<?xml version="1.0" encoding="UTF-8" standalone="no"?>
<!DOCTYPE svg PUBLIC "-//W3C//DTD SVG 1.1//EN"
 "http://www.w3.org/Graphics/SVG/1.1/DTD/svg11.dtd">
<!-- Generated by graphviz version 14.1.5 (0)
 -->
<!-- Title: Gauss Pages: 1 -->
<svg width="1427pt" height="760pt"
 viewBox="0.00 0.00 1427.00 760.00" xmlns="http://www.w3.org/2000/svg" xmlns:xlink="http://www.w3.org/1999/xlink">
<g id="graph0" class="graph" transform="scale(1 1) rotate(0) translate(4 755.78)">
<title>Gauss</title>
<polygon fill="white" stroke="none" points="-4,4 -4,-755.78 1423.09,-755.78 1423.09,4 -4,4"/>
<!-- start -->
<g id="node1" class="node">
<title>start</title>
<ellipse fill="#e6eefc" stroke="#000000" cx="516.75" cy="-732.34" rx="46.85" ry="19.45"/>
<text xml:space="preserve" text-anchor="middle" x="516.75" y="-728.79" font-family="CMU Serif" font-size="14.00">Начало</text>
</g>
<!-- input -->
<g id="node2" class="node">
<title>input</title>
<polygon fill="#f5f5f5" stroke="#000000" points="664.75,-689.89 429.32,-689.89 368.75,-634.89 604.18,-634.89 664.75,-689.89"/>
<text xml:space="preserve" text-anchor="middle" x="516.75" y="-658.84" font-family="CMU Serif" font-size="14.00">Ввод: A (n×n), b (n)</text>
</g>
<!-- start&#45;&gt;input -->
<g id="edge1" class="edge">
<title>start&#45;&gt;input</title>
<path fill="none" stroke="#000000" d="M516.75,-712.41C516.75,-708.99 516.75,-705.32 516.75,-701.58"/>
<polygon fill="#000000" stroke="#000000" points="520.25,-701.85 516.75,-691.85 513.25,-701.85 520.25,-701.85"/>
</g>
<!-- init -->
<g id="node3" class="node">
<title>init</title>
<polygon fill="#ffffff" stroke="#000000" points="677,-611.89 356.5,-611.89 356.5,-575.89 677,-575.89 677,-611.89"/>
<text xml:space="preserve" text-anchor="start" x="364.5" y="-591.34" font-family="CMU Serif" font-size="14.00">сохранить A, b\nкак A</text>
<text xml:space="preserve" text-anchor="start" x="512.25" y="-591.34" font-family="CMU Serif" baseline-shift="sub" font-size="14.00">0</text>
<text xml:space="preserve" text-anchor="start" x="519" y="-591.34" font-family="CMU Serif" font-size="14.00">, b</text>
<text xml:space="preserve" text-anchor="start" x="534.75" y="-591.34" font-family="CMU Serif" baseline-shift="sub" font-size="14.00">0</text>
<text xml:space="preserve" text-anchor="start" x="541.5" y="-591.34" font-family="CMU Serif" font-size="14.00">;\ndet = 1; sgn = +1</text>
</g>
<!-- input&#45;&gt;init -->
<g id="edge2" class="edge">
<title>input&#45;&gt;init</title>
<path fill="none" stroke="#000000" d="M516.75,-634.73C516.75,-631.02 516.75,-627.19 516.75,-623.45"/>
<polygon fill="#000000" stroke="#000000" points="520.25,-623.52 516.75,-613.52 513.25,-623.52 520.25,-623.52"/>
</g>
<!-- iLoop -->
<g id="node4" class="node">
<title>iLoop</title>
<polygon fill="#fff7d1" stroke="#000000" points="516.75,-552.89 388.25,-525.39 516.75,-497.89 645.25,-525.39 516.75,-552.89"/>
<text xml:space="preserve" text-anchor="start" x="460.5" y="-520.14" font-family="CMU Serif" font-size="14.00">для i = 0, … , n−1</text>
</g>
<!-- init&#45;&gt;iLoop -->
<g id="edge3" class="edge">
<title>init&#45;&gt;iLoop</title>
<path fill="none" stroke="#000000" d="M516.75,-575.42C516.75,-572.03 516.75,-568.36 516.75,-564.6"/>
<polygon fill="#000000" stroke="#000000" points="520.25,-564.78 516.75,-554.78 513.25,-564.78 520.25,-564.78"/>
</g>
<!-- pivot -->
<g id="node5" class="node">
<title>pivot</title>
<polygon fill="#ffffff" stroke="#000000" points="469.75,-458.64 159.75,-458.64 159.75,-422.64 469.75,-422.64 469.75,-458.64"/>
<text xml:space="preserve" text-anchor="start" x="167.75" y="-438.09" font-family="CMU Serif" font-size="14.00">найти строку k с max |a</text>
<text xml:space="preserve" text-anchor="start" x="329" y="-438.09" font-family="CMU Serif" baseline-shift="sub" font-size="14.00">k,i</text>
<text xml:space="preserve" text-anchor="start" x="341" y="-438.09" font-family="CMU Serif" font-size="14.00">|\nсреди i ≤ k &lt; n</text>
</g>
<!-- iLoop&#45;&gt;pivot -->
<g id="edge4" class="edge">
<title>iLoop&#45;&gt;pivot</title>
<path fill="none" stroke="#000000" d="M473.91,-506.84C442.87,-494.13 400.72,-476.86 367.59,-463.29"/>
<polygon fill="#000000" stroke="#000000" points="369.16,-460.15 358.58,-459.6 366.51,-466.63 369.16,-460.15"/>
<text xml:space="preserve" text-anchor="middle" x="428.93" y="-475.49" font-family="CMU Serif" font-size="12.00">да</text>
</g>
<!-- detComp -->
<g id="node11" class="node">
<title>detComp</title>
<polygon fill="#ffffff" stroke="#000000" points="753.5,-458.64 634,-458.64 634,-422.64 753.5,-422.64 753.5,-458.64"/>
<text xml:space="preserve" text-anchor="start" x="642" y="-438.09" font-family="CMU Serif" font-size="14.00">det = sgn · ∏ a</text>
<text xml:space="preserve" text-anchor="start" x="736.5" y="-438.09" font-family="CMU Serif" baseline-shift="sub" font-size="14.00">i,i</text>
</g>
<!-- iLoop&#45;&gt;detComp -->
<g id="edge13" class="edge">
<title>iLoop&#45;&gt;detComp</title>
<path fill="none" stroke="#000000" d="M556.03,-506.03C582.58,-493.61 617.8,-477.15 645.97,-463.98"/>
<polygon fill="#000000" stroke="#000000" points="647.45,-467.15 655.02,-459.75 644.48,-460.81 647.45,-467.15"/>
<text xml:space="preserve" text-anchor="middle" x="641.2" y="-475.49" font-family="CMU Serif" font-size="12.00">нет</text>
</g>
<!-- chkPivot -->
<g id="node6" class="node">
<title>chkPivot</title>
<polygon fill="#fff7d1" stroke="#000000" points="314.75,-399.64 232,-372.14 314.75,-344.64 397.5,-372.14 314.75,-399.64"/>
<text xml:space="preserve" text-anchor="start" x="281.38" y="-369.59" font-family="CMU Serif" font-size="14.00">|a</text>
<text xml:space="preserve" text-anchor="start" x="296.38" y="-369.59" font-family="CMU Serif" baseline-shift="sub" font-size="14.00">k,i</text>
<text xml:space="preserve" text-anchor="start" x="308.38" y="-369.59" font-family="CMU Serif" font-size="14.00">| &lt; ε ?</text>
</g>
<!-- pivot&#45;&gt;chkPivot -->
<g id="edge5" class="edge">
<title>pivot&#45;&gt;chkPivot</title>
<path fill="none" stroke="#000000" d="M314.75,-422.17C314.75,-418.78 314.75,-415.11 314.75,-411.35"/>
<polygon fill="#000000" stroke="#000000" points="318.25,-411.53 314.75,-401.53 311.25,-411.53 318.25,-411.53"/>
</g>
<!-- setDetZero -->
<g id="node7" class="node">
<title>setDetZero</title>
<polygon fill="#ffffff" stroke="#000000" points="507.38,-295.89 324.12,-295.89 324.12,-259.89 507.38,-259.89 507.38,-295.89"/>
<text xml:space="preserve" text-anchor="start" x="332.12" y="-272.64" font-family="CMU Serif" font-size="14.00">det = 0; пропустить шаг i</text>
</g>
<!-- chkPivot&#45;&gt;setDetZero -->
<g id="edge6" class="edge">
<title>chkPivot&#45;&gt;setDetZero</title>
<path fill="none" stroke="#000000" d="M336.17,-351.58C351.46,-337.62 372.13,-318.73 388.58,-303.71"/>
<polygon fill="#000000" stroke="#000000" points="390.6,-306.6 395.63,-297.27 385.88,-301.43 390.6,-306.6"/>
<text xml:space="preserve" text-anchor="middle" x="381.42" y="-322.24" font-family="CMU Serif" font-size="12.00">да</text>
</g>
<!-- chkSwap -->
<g id="node8" class="node">
<title>chkSwap</title>
<polygon fill="#fff7d1" stroke="#000000" points="253.75,-305.39 201,-277.89 253.75,-250.39 306.5,-277.89 253.75,-305.39"/>
<text xml:space="preserve" text-anchor="start" x="235.38" y="-272.64" font-family="CMU Serif" font-size="14.00">k ≠ i ?</text>
</g>
<!-- chkPivot&#45;&gt;chkSwap -->
<g id="edge8" class="edge">
<title>chkPivot&#45;&gt;chkSwap</title>
<path fill="none" stroke="#000000" d="M300.29,-349.28C292.13,-336.93 281.82,-321.34 272.98,-307.97"/>
<polygon fill="#000000" stroke="#000000" points="276.12,-306.38 267.69,-299.97 270.29,-310.24 276.12,-306.38"/>
<text xml:space="preserve" text-anchor="middle" x="299.46" y="-322.24" font-family="CMU Serif" font-size="12.00">нет</text>
</g>
<!-- setDetZero&#45;&gt;iLoop -->
<g id="edge7" class="edge">
<title>setDetZero&#45;&gt;iLoop</title>
<path fill="none" stroke="#000000" d="M423.35,-296.23C440.11,-334.46 478.75,-422.64 478.75,-422.64 478.75,-422.64 492.47,-459.39 503.43,-488.72"/>
<polygon fill="#000000" stroke="#000000" points="500.15,-489.94 506.92,-498.08 506.7,-487.49 500.15,-489.94"/>
</g>
<!-- swap -->
<g id="node9" class="node">
<title>swap</title>
<polygon fill="#ffffff" stroke="#000000" points="317.5,-201.64 0,-201.64 0,-165.64 317.5,-165.64 317.5,-201.64"/>
<text xml:space="preserve" text-anchor="start" x="8" y="-178.39" font-family="CMU Serif" font-size="14.00">swap(A[i], A[k]);\nswap(b[i], b[k]);\nsgn = −sgn</text>
</g>
<!-- chkSwap&#45;&gt;swap -->
<g id="edge9" class="edge">
<title>chkSwap&#45;&gt;swap</title>
<path fill="none" stroke="#000000" d="M235.88,-259.54C221.42,-245.49 200.85,-225.52 184.59,-209.74"/>
<polygon fill="#000000" stroke="#000000" points="187.24,-207.42 177.62,-202.97 182.36,-212.45 187.24,-207.42"/>
<text xml:space="preserve" text-anchor="middle" x="221.88" y="-227.99" font-family="CMU Serif" font-size="12.00">да</text>
</g>
<!-- elim -->
<g id="node10" class="node">
<title>elim</title>
<polygon fill="#ffffff" stroke="#000000" points="472,-107.39 37.5,-107.39 37.5,-71.39 472,-71.39 472,-107.39"/>
<text xml:space="preserve" text-anchor="start" x="45.5" y="-86.84" font-family="CMU Serif" font-size="14.00">для j = i+1, … , n−1\nc = −a</text>
<text xml:space="preserve" text-anchor="start" x="222.5" y="-86.84" font-family="CMU Serif" baseline-shift="sub" font-size="14.00">j,i</text>
<text xml:space="preserve" text-anchor="start" x="231.5" y="-86.84" font-family="CMU Serif" font-size="14.00"> / a</text>
<text xml:space="preserve" text-anchor="start" x="251.75" y="-86.84" font-family="CMU Serif" baseline-shift="sub" font-size="14.00">i,i</text>
<text xml:space="preserve" text-anchor="start" x="260.75" y="-86.84" font-family="CMU Serif" font-size="14.00">\nA[j] += c · A[i];\nb[j] += c · b[i]</text>
</g>
<!-- chkSwap&#45;&gt;elim -->
<g id="edge10" class="edge">
<title>chkSwap&#45;&gt;elim</title>
<path fill="none" stroke="#000000" d="M272.55,-259.96C294.18,-240.48 326.75,-211.14 326.75,-211.14 326.75,-211.14 326.75,-156.14 326.75,-156.14 326.75,-156.14 302.44,-133.94 282.07,-115.34"/>
<polygon fill="#000000" stroke="#000000" points="284.53,-112.85 274.78,-108.69 279.81,-118.01 284.53,-112.85"/>
<text xml:space="preserve" text-anchor="middle" x="336.5" y="-180.87" font-family="CMU Serif" font-size="12.00">нет</text>
</g>
<!-- swap&#45;&gt;elim -->
<g id="edge11" class="edge">
<title>swap&#45;&gt;elim</title>
<path fill="none" stroke="#000000" d="M176.81,-165.29C191.42,-151.24 212.2,-131.27 228.63,-115.49"/>
<polygon fill="#000000" stroke="#000000" points="230.9,-118.17 235.68,-108.71 226.05,-113.12 230.9,-118.17"/>
</g>
<!-- elim&#45;&gt;iLoop -->
<g id="edge12" class="edge">
<title>elim&#45;&gt;iLoop</title>
<path fill="none" stroke="#000000" d="M307.93,-107.85C389.4,-134.6 535.75,-182.64 535.75,-182.64 535.75,-441.64 535.75,-441.64 535.75,-441.64 535.75,-441.64 530.25,-465.59 525.17,-487.72"/>
<polygon fill="#000000" stroke="#000000" points="521.82,-486.66 523,-497.19 528.65,-488.22 521.82,-486.66"/>
</g>
<!-- chkDet -->
<g id="node12" class="node">
<title>chkDet</title>
<polygon fill="#fff7d1" stroke="#000000" points="853.75,-399.64 768.75,-372.14 853.75,-344.64 938.75,-372.14 853.75,-399.64"/>
<text xml:space="preserve" text-anchor="start" x="819.25" y="-366.89" font-family="CMU Serif" font-size="14.00">|det| &lt; ε ?</text>
</g>
<!-- detComp&#45;&gt;chkDet -->
<g id="edge14" class="edge">
<title>detComp&#45;&gt;chkDet</title>
<path fill="none" stroke="#000000" d="M735.79,-422.17C757.69,-413.07 784.53,-401.91 807.07,-392.54"/>
<polygon fill="#000000" stroke="#000000" points="808.14,-395.89 816.03,-388.82 805.45,-389.43 808.14,-395.89"/>
</g>
<!-- classify -->
<g id="node13" class="node">
<title>classify</title>
<polygon fill="#fff7d1" stroke="#000000" points="853.75,-211.14 652.5,-183.64 853.75,-156.14 1055,-183.64 853.75,-211.14"/>
<text xml:space="preserve" text-anchor="start" x="761.12" y="-181.09" font-family="CMU Serif" font-size="14.00">есть строка [0 … 0 | b</text>
<text xml:space="preserve" text-anchor="start" x="905.12" y="-181.09" font-family="CMU Serif" baseline-shift="sub" font-size="14.00">i</text>
<text xml:space="preserve" text-anchor="start" x="908.12" y="-181.09" font-family="CMU Serif" font-size="14.00"> ≠ 0] ?</text>
</g>
<!-- chkDet&#45;&gt;classify -->
<g id="edge15" class="edge">
<title>chkDet&#45;&gt;classify</title>
<path fill="none" stroke="#000000" d="M853.75,-344.42C853.75,-312.52 853.75,-258.94 853.75,-222.72"/>
<polygon fill="#000000" stroke="#000000" points="857.25,-223.13 853.75,-213.13 850.25,-223.13 857.25,-223.13"/>
<text xml:space="preserve" text-anchor="middle" x="860.88" y="-275.12" font-family="CMU Serif" font-size="12.00">да</text>
</g>
<!-- back -->
<g id="node16" class="node">
<title>back</title>
<polygon fill="#ffffff" stroke="#000000" points="1223.75,-295.89 931.75,-295.89 931.75,-259.89 1223.75,-259.89 1223.75,-295.89"/>
<text xml:space="preserve" text-anchor="start" x="939.75" y="-275.34" font-family="CMU Serif" font-size="14.00">обратный ход:\nx[i] = (b[i] − Σ a</text>
<text xml:space="preserve" text-anchor="start" x="1148.25" y="-275.34" font-family="CMU Serif" baseline-shift="sub" font-size="14.00">i,j</text>
<text xml:space="preserve" text-anchor="start" x="1157.25" y="-275.34" font-family="CMU Serif" font-size="14.00"> x[j]) / a</text>
<text xml:space="preserve" text-anchor="start" x="1206.75" y="-275.34" font-family="CMU Serif" baseline-shift="sub" font-size="14.00">i,i</text>
</g>
<!-- chkDet&#45;&gt;back -->
<g id="edge20" class="edge">
<title>chkDet&#45;&gt;back</title>
<path fill="none" stroke="#000000" d="M890.24,-356.11C926.85,-341.04 983.6,-317.66 1025.09,-300.58"/>
<polygon fill="#000000" stroke="#000000" points="1026.24,-303.89 1034.15,-296.85 1023.57,-297.42 1026.24,-303.89"/>
<text xml:space="preserve" text-anchor="middle" x="995.56" y="-322.24" font-family="CMU Serif" font-size="12.00">нет</text>
</g>
<!-- noSol -->
<g id="node14" class="node">
<title>noSol</title>
<polygon fill="#fde2e2" stroke="#000000" points="711.42,-116.89 535.37,-116.89 490.08,-61.89 666.13,-61.89 711.42,-116.89"/>
<text xml:space="preserve" text-anchor="middle" x="600.75" y="-85.84" font-family="CMU Serif" font-size="14.00">Нет решений</text>
</g>
<!-- classify&#45;&gt;noSol -->
<g id="edge16" class="edge">
<title>classify&#45;&gt;noSol</title>
<path fill="none" stroke="#000000" d="M800.1,-163.08C766.68,-150.89 722.99,-134.96 685.02,-121.12"/>
<polygon fill="#000000" stroke="#000000" points="686.5,-117.93 675.9,-117.79 684.1,-124.51 686.5,-117.93"/>
<text xml:space="preserve" text-anchor="middle" x="757.04" y="-133.74" font-family="CMU Serif" font-size="12.00">да</text>
</g>
<!-- infSol -->
<g id="node15" class="node">
<title>infSol</title>
<polygon fill="#fde2e2" stroke="#000000" points="1156.06,-116.89 816.73,-116.89 729.44,-61.89 1068.77,-61.89 1156.06,-116.89"/>
<text xml:space="preserve" text-anchor="middle" x="942.75" y="-85.84" font-family="CMU Serif" font-size="14.00">Бесконечно много решений</text>
</g>
<!-- classify&#45;&gt;infSol -->
<g id="edge17" class="edge">
<title>classify&#45;&gt;infSol</title>
<path fill="none" stroke="#000000" d="M876.67,-158.88C886.44,-148.76 898.04,-136.74 908.77,-125.61"/>
<polygon fill="#000000" stroke="#000000" points="911.29,-128.04 915.71,-118.42 906.25,-123.18 911.29,-128.04"/>
<text xml:space="preserve" text-anchor="middle" x="915.97" y="-133.74" font-family="CMU Serif" font-size="12.00">нет</text>
</g>
<!-- stop -->
<g id="node19" class="node">
<title>stop</title>
<ellipse fill="#e6eefc" stroke="#000000" cx="942.75" cy="-19.45" rx="39.95" ry="19.45"/>
<text xml:space="preserve" text-anchor="middle" x="942.75" y="-15.9" font-family="CMU Serif" font-size="14.00">Конец</text>
</g>
<!-- noSol&#45;&gt;stop -->
<g id="edge18" class="edge">
<title>noSol&#45;&gt;stop</title>
<path fill="none" stroke="#000000" d="M675.04,-71.98C699.59,-66.56 720.75,-61.89 720.75,-61.89 720.75,-61.89 829.29,-41.63 894.58,-29.44"/>
<polygon fill="#000000" stroke="#000000" points="895.17,-32.89 904.35,-27.61 893.88,-26.01 895.17,-32.89"/>
</g>
<!-- infSol&#45;&gt;stop -->
<g id="edge19" class="edge">
<title>infSol&#45;&gt;stop</title>
<path fill="none" stroke="#000000" d="M942.75,-61.54C942.75,-57.94 942.75,-54.24 942.75,-50.59"/>
<polygon fill="#000000" stroke="#000000" points="946.25,-50.87 942.75,-40.87 939.25,-50.87 946.25,-50.87"/>
</g>
<!-- resid -->
<g id="node17" class="node">
<title>resid</title>
<polygon fill="#ffffff" stroke="#000000" points="1262.25,-201.64 1159.25,-201.64 1159.25,-165.64 1262.25,-165.64 1262.25,-201.64"/>
<text xml:space="preserve" text-anchor="start" x="1167.25" y="-181.09" font-family="CMU Serif" font-size="14.00">r = A</text>
<text xml:space="preserve" text-anchor="start" x="1198" y="-181.09" font-family="CMU Serif" baseline-shift="sub" font-size="14.00">0</text>
<text xml:space="preserve" text-anchor="start" x="1204.75" y="-181.09" font-family="CMU Serif" font-size="14.00"> · x − b</text>
<text xml:space="preserve" text-anchor="start" x="1247.5" y="-181.09" font-family="CMU Serif" baseline-shift="sub" font-size="14.00">0</text>
</g>
<!-- back&#45;&gt;resid -->
<g id="edge21" class="edge">
<title>back&#45;&gt;resid</title>
<path fill="none" stroke="#000000" d="M1102.77,-259.54C1123.57,-245.11 1153.4,-224.42 1176.44,-208.44"/>
<polygon fill="#000000" stroke="#000000" points="1178.38,-211.35 1184.6,-202.78 1174.39,-205.6 1178.38,-211.35"/>
</g>
<!-- output -->
<g id="node18" class="node">
<title>output</title>
<polygon fill="#f5f5f5" stroke="#000000" points="1419.09,-116.89 1224.48,-116.89 1174.41,-61.89 1369.02,-61.89 1419.09,-116.89"/>
<text xml:space="preserve" text-anchor="start" x="1245.75" y="-84.14" font-family="CMU Serif" font-size="14.00">Вывод: x, det, r</text>
</g>
<!-- resid&#45;&gt;output -->
<g id="edge22" class="edge">
<title>resid&#45;&gt;output</title>
<path fill="none" stroke="#000000" d="M1226.93,-165.29C1237.4,-154.05 1251.42,-139.02 1264.14,-125.37"/>
<polygon fill="#000000" stroke="#000000" points="1266.56,-127.91 1270.82,-118.21 1261.44,-123.14 1266.56,-127.91"/>
</g>
<!-- output&#45;&gt;stop -->
<g id="edge23" class="edge">
<title>output&#45;&gt;stop</title>
<path fill="none" stroke="#000000" d="M1176,-64.15C1169.01,-62.75 1164.75,-61.89 1164.75,-61.89 1164.75,-61.89 1056.21,-41.63 990.92,-29.44"/>
<polygon fill="#000000" stroke="#000000" points="991.62,-26.01 981.15,-27.61 990.33,-32.89 991.62,-26.01"/>
</g>
</g>
</svg>
