<?xml version="1.0" encoding="UTF-8" standalone="no"?>
<!DOCTYPE svg PUBLIC "-//W3C//DTD SVG 1.1//EN"
 "http://www.w3.org/Graphics/SVG/1.1/DTD/svg11.dtd">
<!-- Generated by graphviz version 14.1.5 (0)
 -->
<!-- Title: ImproperIntegral Pages: 1 -->
<svg width="1127pt" height="2394pt"
 viewBox="0.00 0.00 1127.00 2394.00" xmlns="http://www.w3.org/2000/svg" xmlns:xlink="http://www.w3.org/1999/xlink">
<g id="graph0" class="graph" transform="scale(1 1) rotate(0) translate(4 2390.03)">
<title>ImproperIntegral</title>
<polygon fill="white" stroke="none" points="-4,4 -4,-2390.03 1123.18,-2390.03 1123.18,4 -4,4"/>
<!-- start -->
<g id="node1" class="node">
<title>start</title>
<ellipse fill="#e6eefc" stroke="#000000" cx="312.53" cy="-2366.59" rx="148.14" ry="19.45"/>
<text xml:space="preserve" text-anchor="middle" x="312.53" y="-2363.04" font-family="CMU Serif" font-size="14.00">Начало: Integrator::integrate</text>
</g>
<!-- input -->
<g id="node2" class="node">
<title>input</title>
<polygon fill="#f5f5f5" stroke="#000000" points="575.61,-2330.14 157.11,-2330.14 49.46,-2258.14 467.95,-2258.14 575.61,-2330.14"/>
<text xml:space="preserve" text-anchor="start" x="232.28" y="-2295.84" font-family="CMU Serif" font-size="14.00">Ввод: f(x), a, b, разрывы</text>
<text xml:space="preserve" text-anchor="start" x="193.66" y="-2281.84" font-family="CMU Serif" font-size="14.00">(EPS, k</text>
<text xml:space="preserve" text-anchor="start" x="236.41" y="-2281.84" font-family="CMU Serif" baseline-shift="sub" font-size="14.00">InitialN</text>
<text xml:space="preserve" text-anchor="start" x="276.91" y="-2281.84" font-family="CMU Serif" font-size="14.00">, k</text>
<text xml:space="preserve" text-anchor="start" x="291.91" y="-2281.84" font-family="CMU Serif" baseline-shift="sub" font-size="14.00">MaxN</text>
<text xml:space="preserve" text-anchor="start" x="324.16" y="-2281.84" font-family="CMU Serif" font-size="14.00"> — поля класса)</text>
</g>
<!-- start&#45;&gt;input -->
<g id="edge1" class="edge">
<title>start&#45;&gt;input</title>
<path fill="none" stroke="#000000" d="M312.53,-2346.71C312.53,-2345.13 312.53,-2343.49 312.53,-2341.82"/>
<polygon fill="#000000" stroke="#000000" points="316.03,-2341.91 312.53,-2331.91 309.03,-2341.91 316.03,-2341.91"/>
</g>
<!-- chkAB -->
<g id="node3" class="node">
<title>chkAB</title>
<polygon fill="#fff7d1" stroke="#000000" points="312.53,-2241.14 259.03,-2213.64 312.53,-2186.14 366.03,-2213.64 312.53,-2241.14"/>
<text xml:space="preserve" text-anchor="start" x="293.78" y="-2208.39" font-family="CMU Serif" font-size="14.00">a &lt; b?</text>
</g>
<!-- input&#45;&gt;chkAB -->
<g id="edge2" class="edge">
<title>input&#45;&gt;chkAB</title>
<path fill="none" stroke="#000000" d="M312.53,-2258.02C312.53,-2256.29 312.53,-2254.54 312.53,-2252.8"/>
<polygon fill="#000000" stroke="#000000" points="316.03,-2253 312.53,-2243 309.03,-2253 316.03,-2253"/>
</g>
<!-- errAB -->
<g id="node4" class="node">
<title>errAB</title>
<polygon fill="#fde2e2" stroke="#000000" points="439.06,-2089.89 89.84,-2089.89 0,-1917.89 349.23,-1917.89 439.06,-2089.89"/>
<text xml:space="preserve" text-anchor="start" x="174.53" y="-2027.89" font-family="CMU Serif" font-size="14.00">status = error</text>
<text xml:space="preserve" text-anchor="start" x="179.78" y="-2008.39" font-family="CMU Serif" font-size="14.00">value = NaN</text>
<text xml:space="preserve" text-anchor="start" x="121.66" y="-1988.89" font-family="CMU Serif" font-size="14.00">«Левый предел должен быть</text>
<text xml:space="preserve" text-anchor="start" x="159.53" y="-1969.39" font-family="CMU Serif" font-size="14.00">меньше правого»</text>
</g>
<!-- chkAB&#45;&gt;errAB -->
<g id="edge3" class="edge">
<title>chkAB&#45;&gt;errAB</title>
<path fill="none" stroke="#000000" d="M302.76,-2190.8C293.04,-2169.09 277.44,-2134.24 262.36,-2100.55"/>
<polygon fill="#000000" stroke="#000000" points="265.6,-2099.23 258.32,-2091.53 259.21,-2102.09 265.6,-2099.23"/>
<text xml:space="preserve" text-anchor="middle" x="305.45" y="-2166.74" font-family="CMU Serif" font-size="12.00">нет</text>
</g>
<!-- chkEps -->
<g id="node5" class="node">
<title>chkEps</title>
<polygon fill="#fff7d1" stroke="#000000" points="504.53,-2152.89 337.03,-2125.39 504.53,-2097.89 672.03,-2125.39 504.53,-2152.89"/>
<text xml:space="preserve" text-anchor="start" x="428.78" y="-2120.14" font-family="CMU Serif" font-size="14.00">EPS &gt; 0 ∧ isFinite(EPS)?</text>
</g>
<!-- chkAB&#45;&gt;chkEps -->
<g id="edge5" class="edge">
<title>chkAB&#45;&gt;chkEps</title>
<path fill="none" stroke="#000000" d="M340.45,-2200.1C369.13,-2187.21 414.52,-2166.83 450.3,-2150.75"/>
<polygon fill="#000000" stroke="#000000" points="451.52,-2154.04 459.2,-2146.75 448.65,-2147.66 451.52,-2154.04"/>
<text xml:space="preserve" text-anchor="middle" x="432.85" y="-2166.74" font-family="CMU Serif" font-size="12.00">да</text>
</g>
<!-- stop -->
<g id="node25" class="node">
<title>stop</title>
<ellipse fill="#e6eefc" stroke="#000000" cx="998.53" cy="-19.45" rx="39.95" ry="19.45"/>
<text xml:space="preserve" text-anchor="middle" x="998.53" y="-15.9" font-family="CMU Serif" font-size="14.00">Конец</text>
</g>
<!-- errAB&#45;&gt;stop -->
<g id="edge4" class="edge">
<title>errAB&#45;&gt;stop</title>
<path fill="none" stroke="#000000" d="M190.93,-1917.45C168.67,-1850.96 141.53,-1769.89 141.53,-1769.89 141.53,-1769.89 141.53,-1769.89 141.53,-121.39 141.53,-121.39 152.53,-55.89 152.53,-55.89 152.53,-55.89 763.75,-30.28 947.13,-22.6"/>
<polygon fill="#000000" stroke="#000000" points="947.22,-26.1 957.07,-22.18 946.93,-19.1 947.22,-26.1"/>
</g>
<!-- errEps -->
<g id="node6" class="node">
<title>errEps</title>
<polygon fill="#fde2e2" stroke="#000000" points="1119.18,-1835.39 787.27,-1835.39 701.89,-1702.39 1033.8,-1702.39 1119.18,-1835.39"/>
<text xml:space="preserve" text-anchor="start" x="865.53" y="-1783.14" font-family="CMU Serif" font-size="14.00">status = error</text>
<text xml:space="preserve" text-anchor="start" x="870.78" y="-1763.64" font-family="CMU Serif" font-size="14.00">value = NaN</text>
<text xml:space="preserve" text-anchor="start" x="817.91" y="-1744.14" font-family="CMU Serif" font-size="14.00">«Некорректная точность ε»</text>
</g>
<!-- chkEps&#45;&gt;errEps -->
<g id="edge6" class="edge">
<title>chkEps&#45;&gt;errEps</title>
<path fill="none" stroke="#000000" d="M530.55,-2101.68C589.18,-2050.48 733.79,-1924.21 826.75,-1843.05"/>
<polygon fill="#000000" stroke="#000000" points="828.93,-1845.79 834.16,-1836.58 824.32,-1840.52 828.93,-1845.79"/>
<text xml:space="preserve" text-anchor="middle" x="743.32" y="-2001.12" font-family="CMU Serif" font-size="12.00">нет</text>
</g>
<!-- prep -->
<g id="node7" class="node">
<title>prep</title>
<polygon fill="#e6eefc" stroke="#000000" points="605.53,-1909.89 403.53,-1909.89 403.53,-1843.39 605.53,-1843.39 605.53,-1909.89"/>
<text xml:space="preserve" text-anchor="start" x="425.78" y="-1890.89" font-family="CMU Serif" font-size="14.00">plan = prepareIntervals(</text>
<text xml:space="preserve" text-anchor="start" x="456.91" y="-1871.39" font-family="CMU Serif" font-size="14.00">a, b, разрывы)</text>
<text xml:space="preserve" text-anchor="start" x="411.53" y="-1851.89" font-family="CMU Serif" font-size="14.00">(см. отдельную блок&#45;схему)</text>
</g>
<!-- chkEps&#45;&gt;prep -->
<g id="edge8" class="edge">
<title>chkEps&#45;&gt;prep</title>
<path fill="none" stroke="#000000" d="M504.53,-2097.51C504.53,-2055.22 504.53,-1972.69 504.53,-1921.65"/>
<polygon fill="#000000" stroke="#000000" points="508.03,-1921.85 504.53,-1911.85 501.03,-1921.85 508.03,-1921.85"/>
<text xml:space="preserve" text-anchor="middle" x="511.66" y="-2001.12" font-family="CMU Serif" font-size="12.00">да</text>
</g>
<!-- errEps&#45;&gt;stop -->
<g id="edge7" class="edge">
<title>errEps&#45;&gt;stop</title>
<path fill="none" stroke="#000000" d="M980.31,-1702.11C1022.24,-1662.59 1067.53,-1619.89 1067.53,-1619.89 1067.53,-1619.89 1067.53,-1619.89 1067.53,-121.39 1067.53,-121.39 1052.53,-55.89 1052.53,-55.89 1052.53,-55.89 1042.48,-49.29 1031.04,-41.79"/>
<polygon fill="#000000" stroke="#000000" points="1033.29,-39.08 1023.01,-36.51 1029.45,-44.93 1033.29,-39.08"/>
</g>
<!-- improperFlag -->
<g id="node8" class="node">
<title>improperFlag</title>
<polygon fill="#ffffff" stroke="#000000" points="623.53,-1694.39 385.53,-1694.39 385.53,-1627.89 623.53,-1627.89 623.53,-1694.39"/>
<text xml:space="preserve" text-anchor="start" x="393.53" y="-1675.39" font-family="CMU Serif" font-size="14.00">improper = (|plan.segments| &gt; 1)</text>
<text xml:space="preserve" text-anchor="start" x="395.78" y="-1655.89" font-family="CMU Serif" font-size="14.00">∨ plan.segments[0].limit_at_from</text>
<text xml:space="preserve" text-anchor="start" x="404.41" y="-1636.39" font-family="CMU Serif" font-size="14.00">∨ plan.segments[0].limit_at_to</text>
</g>
<!-- prep&#45;&gt;improperFlag -->
<g id="edge9" class="edge">
<title>prep&#45;&gt;improperFlag</title>
<path fill="none" stroke="#000000" d="M504.53,-1843.21C504.53,-1806.69 504.53,-1747.13 504.53,-1706.36"/>
<polygon fill="#000000" stroke="#000000" points="508.03,-1706.39 504.53,-1696.39 501.03,-1706.39 508.03,-1706.39"/>
</g>
<!-- initLoop -->
<g id="node9" class="node">
<title>initLoop</title>
<polygon fill="#ffffff" stroke="#000000" points="575.53,-1610.89 433.53,-1610.89 433.53,-1524.89 575.53,-1524.89 575.53,-1610.89"/>
<text xml:space="preserve" text-anchor="start" x="441.53" y="-1591.89" font-family="CMU Serif" font-size="14.00">total = 0; totalN = 0</text>
<text xml:space="preserve" text-anchor="start" x="455.78" y="-1572.39" font-family="CMU Serif" font-size="14.00">totalRunge = 0</text>
<text xml:space="preserve" text-anchor="start" x="452.03" y="-1552.89" font-family="CMU Serif" font-size="14.00">failedStatus = &quot;&quot;</text>
<text xml:space="preserve" text-anchor="start" x="488.78" y="-1533.39" font-family="CMU Serif" font-size="14.00">k = 0</text>
</g>
<!-- improperFlag&#45;&gt;initLoop -->
<g id="edge10" class="edge">
<title>improperFlag&#45;&gt;initLoop</title>
<path fill="none" stroke="#000000" d="M504.53,-1627.46C504.53,-1625.91 504.53,-1624.34 504.53,-1622.75"/>
<polygon fill="#000000" stroke="#000000" points="508.03,-1622.89 504.53,-1612.89 501.03,-1622.89 508.03,-1622.89"/>
</g>
<!-- chkSeg -->
<g id="node10" class="node">
<title>chkSeg</title>
<polygon fill="#fff7d1" stroke="#000000" points="504.53,-1507.89 346.78,-1480.39 504.53,-1452.89 662.28,-1480.39 504.53,-1507.89"/>
<text xml:space="preserve" text-anchor="start" x="433.66" y="-1475.14" font-family="CMU Serif" font-size="14.00">k &lt; |plan.segments|?</text>
</g>
<!-- initLoop&#45;&gt;chkSeg -->
<g id="edge11" class="edge">
<title>initLoop&#45;&gt;chkSeg</title>
<path fill="none" stroke="#000000" d="M504.53,-1524.39C504.53,-1522.75 504.53,-1521.11 504.53,-1519.47"/>
<polygon fill="#000000" stroke="#000000" points="508.03,-1519.66 504.53,-1509.66 501.03,-1519.66 508.03,-1519.66"/>
</g>
<!-- callSeg -->
<g id="node11" class="node">
<title>callSeg</title>
<polygon fill="#e6eefc" stroke="#000000" points="759.16,-1419.64 533.91,-1419.64 533.91,-1353.14 759.16,-1353.14 759.16,-1419.64"/>
<text xml:space="preserve" text-anchor="start" x="541.91" y="-1400.64" font-family="CMU Serif" font-size="14.00">sr = computeSegmentStandard(</text>
<text xml:space="preserve" text-anchor="start" x="546.03" y="-1381.14" font-family="CMU Serif" font-size="14.00">*this, f, plan.segments[k], EPS)</text>
<text xml:space="preserve" text-anchor="start" x="553.53" y="-1361.64" font-family="CMU Serif" font-size="14.00">(см. отдельную блок&#45;схему)</text>
</g>
<!-- chkSeg&#45;&gt;callSeg -->
<g id="edge13" class="edge">
<title>chkSeg&#45;&gt;callSeg</title>
<path fill="none" stroke="#000000" d="M537.11,-1458.28C551.83,-1448.75 569.69,-1437.17 586.69,-1426.17"/>
<polygon fill="#000000" stroke="#000000" points="588.25,-1429.32 594.74,-1420.95 584.44,-1423.45 588.25,-1429.32"/>
<text xml:space="preserve" text-anchor="middle" x="591.16" y="-1433.49" font-family="CMU Serif" font-size="12.00">да</text>
</g>
<!-- chkAllOk -->
<g id="node17" class="node">
<title>chkAllOk</title>
<polygon fill="#fff7d1" stroke="#000000" points="648.53,-901.89 513.28,-874.39 648.53,-846.89 783.78,-874.39 648.53,-901.89"/>
<text xml:space="preserve" text-anchor="start" x="588.91" y="-869.14" font-family="CMU Serif" font-size="14.00">failedStatus == &quot;&quot;?</text>
</g>
<!-- chkSeg&#45;&gt;chkAllOk -->
<g id="edge12" class="edge">
<title>chkSeg&#45;&gt;chkAllOk</title>
<path fill="none" stroke="#000000" d="M489.29,-1455.22C472.11,-1427.96 446.53,-1387.39 446.53,-1387.39 446.53,-1387.39 446.53,-1387.39 446.53,-980.39 446.53,-980.39 457.53,-918.89 457.53,-918.89 457.53,-918.89 521.21,-904.39 575.03,-892.13"/>
<polygon fill="#000000" stroke="#000000" points="575.54,-895.6 584.52,-889.97 573.99,-888.78 575.54,-895.6"/>
<text xml:space="preserve" text-anchor="middle" x="456.28" y="-1261.74" font-family="CMU Serif" font-size="12.00">нет</text>
</g>
<!-- chkMax -->
<g id="node12" class="node">
<title>chkMax</title>
<polygon fill="#fff7d1" stroke="#000000" points="682.53,-1336.14 521.78,-1308.64 682.53,-1281.14 843.28,-1308.64 682.53,-1336.14"/>
<text xml:space="preserve" text-anchor="start" x="610.16" y="-1303.39" font-family="CMU Serif" font-size="14.00">sr.status = &quot;max_iter&quot;?</text>
</g>
<!-- callSeg&#45;&gt;chkMax -->
<g id="edge14" class="edge">
<title>callSeg&#45;&gt;chkMax</title>
<path fill="none" stroke="#000000" d="M662.01,-1352.83C663.31,-1350.09 664.63,-1347.32 665.94,-1344.56"/>
<polygon fill="#000000" stroke="#000000" points="669.09,-1346.07 670.23,-1335.54 662.77,-1343.07 669.09,-1346.07"/>
</g>
<!-- retMax -->
<g id="node13" class="node">
<title>retMax</title>
<polygon fill="#fde2e2" stroke="#000000" points="1056.74,-1184.89 755.75,-1184.89 678.33,-1051.89 979.31,-1051.89 1056.74,-1184.89"/>
<text xml:space="preserve" text-anchor="start" x="810.91" y="-1132.64" font-family="CMU Serif" font-size="14.00">status = max_iter</text>
<text xml:space="preserve" text-anchor="start" x="817.28" y="-1113.14" font-family="CMU Serif" font-size="14.00">value = sr.value</text>
<text xml:space="preserve" text-anchor="start" x="784.28" y="-1093.64" font-family="CMU Serif" font-size="14.00">n = sr.n; runge = sr.runge</text>
</g>
<!-- chkMax&#45;&gt;retMax -->
<g id="edge15" class="edge">
<title>chkMax&#45;&gt;retMax</title>
<path fill="none" stroke="#000000" d="M716.03,-1286.58C743.38,-1269.37 777.53,-1247.89 777.53,-1247.89 777.53,-1247.89 795.28,-1222.54 815.02,-1194.37"/>
<polygon fill="#000000" stroke="#000000" points="817.74,-1196.59 820.61,-1186.39 812.01,-1192.57 817.74,-1196.59"/>
<text xml:space="preserve" text-anchor="middle" x="770.57" y="-1261.74" font-family="CMU Serif" font-size="12.00">да</text>
</g>
<!-- chkOk -->
<g id="node14" class="node">
<title>chkOk</title>
<polygon fill="#fff7d1" stroke="#000000" points="653.53,-1247.89 534.78,-1220.39 653.53,-1192.89 772.28,-1220.39 653.53,-1247.89"/>
<text xml:space="preserve" text-anchor="start" x="602.16" y="-1215.14" font-family="CMU Serif" font-size="14.00">sr.status = &quot;ok&quot;?</text>
</g>
<!-- chkMax&#45;&gt;chkOk -->
<g id="edge17" class="edge">
<title>chkMax&#45;&gt;chkOk</title>
<path fill="none" stroke="#000000" d="M673.99,-1282.23C671.34,-1274.35 668.37,-1265.52 665.53,-1257.08"/>
<polygon fill="#000000" stroke="#000000" points="668.9,-1256.12 662.4,-1247.76 662.27,-1258.35 668.9,-1256.12"/>
<text xml:space="preserve" text-anchor="middle" x="680.38" y="-1261.74" font-family="CMU Serif" font-size="12.00">нет</text>
</g>
<!-- retMax&#45;&gt;stop -->
<g id="edge16" class="edge">
<title>retMax&#45;&gt;stop</title>
<path fill="none" stroke="#000000" d="M924.02,-1051.49C975.82,-991.05 1044.53,-910.89 1044.53,-910.89 1044.53,-910.89 1044.53,-910.89 1044.53,-121.39 1044.53,-121.39 1029.53,-55.89 1029.53,-55.89 1029.53,-55.89 1025.92,-51.76 1021.17,-46.33"/>
<polygon fill="#000000" stroke="#000000" points="1023.88,-44.12 1014.67,-38.89 1018.61,-48.72 1023.88,-44.12"/>
</g>
<!-- fail -->
<g id="node15" class="node">
<title>fail</title>
<polygon fill="#ffffff" stroke="#000000" points="818.78,-1043.89 642.28,-1043.89 642.28,-918.89 818.78,-918.89 818.78,-1043.89"/>
<text xml:space="preserve" text-anchor="start" x="656.66" y="-1024.89" font-family="CMU Serif" font-size="14.00">failedStatus = sr.status</text>
<text xml:space="preserve" text-anchor="start" x="650.28" y="-1005.39" font-family="CMU Serif" font-size="14.00">total += isFinite(sr.value)</text>
<text xml:space="preserve" text-anchor="start" x="685.53" y="-985.89" font-family="CMU Serif" font-size="14.00">   ? sr.value : 0</text>
<text xml:space="preserve" text-anchor="start" x="686.66" y="-966.39" font-family="CMU Serif" font-size="14.00">totalN += sr.n</text>
<text xml:space="preserve" text-anchor="start" x="654.41" y="-946.89" font-family="CMU Serif" font-size="14.00">totalRunge += sr.runge</text>
<text xml:space="preserve" text-anchor="start" x="677.66" y="-927.39" font-family="CMU Serif" font-size="14.00">выход из цикла</text>
</g>
<!-- chkOk&#45;&gt;fail -->
<g id="edge20" class="edge">
<title>chkOk&#45;&gt;fail</title>
<path fill="none" stroke="#000000" d="M653.14,-1192.55C653.08,-1188.09 653.03,-1184.89 653.03,-1184.89 653.03,-1184.89 653.03,-1051.89 653.03,-1051.89 653.03,-1051.89 653.08,-1051.84 653.19,-1051.75"/>
<polygon fill="#000000" stroke="#000000" points="655.39,-1054.48 660.5,-1045.2 650.71,-1049.27 655.39,-1054.48"/>
<text xml:space="preserve" text-anchor="middle" x="662.78" y="-1115.62" font-family="CMU Serif" font-size="12.00">нет</text>
</g>
<!-- acc -->
<g id="node16" class="node">
<title>acc</title>
<polygon fill="#ffffff" stroke="#000000" points="631.66,-1024.39 463.41,-1024.39 463.41,-938.39 631.66,-938.39 631.66,-1024.39"/>
<text xml:space="preserve" text-anchor="start" x="495.78" y="-1005.39" font-family="CMU Serif" font-size="14.00">total += sr.value</text>
<text xml:space="preserve" text-anchor="start" x="503.66" y="-985.89" font-family="CMU Serif" font-size="14.00">totalN += sr.n</text>
<text xml:space="preserve" text-anchor="start" x="471.41" y="-966.39" font-family="CMU Serif" font-size="14.00">totalRunge += sr.runge</text>
<text xml:space="preserve" text-anchor="start" x="520.16" y="-946.89" font-family="CMU Serif" font-size="14.00">k = k + 1</text>
</g>
<!-- chkOk&#45;&gt;acc -->
<g id="edge18" class="edge">
<title>chkOk&#45;&gt;acc</title>
<path fill="none" stroke="#000000" d="M642.07,-1195.06C639.38,-1189.35 637.28,-1184.89 637.28,-1184.89 637.28,-1184.89 597.58,-1095.3 570.98,-1035.3"/>
<polygon fill="#000000" stroke="#000000" points="574.21,-1033.95 566.96,-1026.23 567.81,-1036.79 574.21,-1033.95"/>
<text xml:space="preserve" text-anchor="middle" x="644.41" y="-1115.62" font-family="CMU Serif" font-size="12.00">да</text>
</g>
<!-- fail&#45;&gt;chkAllOk -->
<g id="edge21" class="edge">
<title>fail&#45;&gt;chkAllOk</title>
<path fill="none" stroke="#000000" d="M682.12,-918.4C679.17,-914.63 676.28,-910.92 673.5,-907.36"/>
<polygon fill="#000000" stroke="#000000" points="676.31,-905.27 667.4,-899.55 670.79,-909.58 676.31,-905.27"/>
</g>
<!-- acc&#45;&gt;chkSeg -->
<g id="edge19" class="edge">
<title>acc&#45;&gt;chkSeg</title>
<path fill="none" stroke="#000000" d="M539.84,-1024.76C527.48,-1092.93 504.53,-1219.39 504.53,-1219.39 504.53,-1387.39 504.53,-1387.39 504.53,-1387.39 504.53,-1387.39 504.53,-1416.13 504.53,-1441.49"/>
<polygon fill="#000000" stroke="#000000" points="501.03,-1441.27 504.53,-1451.27 508.03,-1441.27 501.03,-1441.27"/>
</g>
<!-- retOk -->
<g id="node18" class="node">
<title>retOk</title>
<polygon fill="#dcfce7" stroke="#000000" points="1033.61,-739.14 648.52,-739.14 549.45,-528.14 934.55,-528.14 1033.61,-739.14"/>
<text xml:space="preserve" text-anchor="start" x="755.53" y="-667.39" font-family="CMU Serif" font-size="14.00">status = ok</text>
<text xml:space="preserve" text-anchor="start" x="751.03" y="-647.89" font-family="CMU Serif" font-size="14.00">value = total</text>
<text xml:space="preserve" text-anchor="start" x="758.91" y="-628.39" font-family="CMU Serif" font-size="14.00">n = totalN</text>
<text xml:space="preserve" text-anchor="start" x="726.66" y="-608.89" font-family="CMU Serif" font-size="14.00">runge = totalRunge</text>
<text xml:space="preserve" text-anchor="start" x="682.78" y="-589.39" font-family="CMU Serif" font-size="14.00">сообщение зависит от improper</text>
</g>
<!-- chkAllOk&#45;&gt;retOk -->
<g id="edge22" class="edge">
<title>chkAllOk&#45;&gt;retOk</title>
<path fill="none" stroke="#000000" d="M670.08,-850.8C686.22,-833.88 705.53,-813.64 705.53,-813.64 705.53,-813.64 719.59,-784.37 736.35,-749.51"/>
<polygon fill="#000000" stroke="#000000" points="739.3,-751.44 740.48,-740.91 732.99,-748.4 739.3,-751.44"/>
<text xml:space="preserve" text-anchor="middle" x="704.2" y="-827.49" font-family="CMU Serif" font-size="12.00">да</text>
</g>
<!-- pv -->
<g id="node19" class="node">
<title>pv</title>
<polygon fill="#fef3c7" stroke="#000000" points="699.53,-813.64 497.53,-813.64 497.53,-747.14 699.53,-747.14 699.53,-813.64"/>
<text xml:space="preserve" text-anchor="start" x="524.66" y="-794.64" font-family="CMU Serif" font-size="14.00">pv = tryPrincipalValue(</text>
<text xml:space="preserve" text-anchor="start" x="540.78" y="-775.14" font-family="CMU Serif" font-size="14.00">*this, f, plan, EPS)</text>
<text xml:space="preserve" text-anchor="start" x="505.53" y="-755.64" font-family="CMU Serif" font-size="14.00">(см. отдельную блок&#45;схему)</text>
</g>
<!-- chkAllOk&#45;&gt;pv -->
<g id="edge24" class="edge">
<title>chkAllOk&#45;&gt;pv</title>
<path fill="none" stroke="#000000" d="M635.4,-849.22C631.19,-841.49 626.41,-832.69 621.72,-824.05"/>
<polygon fill="#000000" stroke="#000000" points="624.85,-822.49 617,-815.38 618.7,-825.84 624.85,-822.49"/>
<text xml:space="preserve" text-anchor="middle" x="639.23" y="-827.49" font-family="CMU Serif" font-size="12.00">нет</text>
</g>
<!-- retOk&#45;&gt;stop -->
<g id="edge23" class="edge">
<title>retOk&#45;&gt;stop</title>
<path fill="none" stroke="#000000" d="M900.13,-527.76C959.69,-470.25 1021.53,-410.52 1021.53,-410.52 1021.53,-410.52 1021.53,-410.52 1021.53,-121.39 1021.53,-121.39 1012.07,-79.86 1005.28,-50.08"/>
<polygon fill="#000000" stroke="#000000" points="1008.72,-49.41 1003.09,-40.44 1001.9,-50.96 1008.72,-49.41"/>
</g>
<!-- chkPv -->
<g id="node20" class="node">
<title>chkPv</title>
<polygon fill="#fff7d1" stroke="#000000" points="547.53,-520.14 447.53,-473.14 547.53,-426.14 647.53,-473.14 547.53,-520.14"/>
<text xml:space="preserve" text-anchor="start" x="505.53" y="-477.64" font-family="CMU Serif" font-size="14.00">pv.success ∧</text>
<text xml:space="preserve" text-anchor="start" x="510.41" y="-458.14" font-family="CMU Serif" font-size="14.00">pv.usedPV?</text>
</g>
<!-- pv&#45;&gt;chkPv -->
<g id="edge25" class="edge">
<title>pv&#45;&gt;chkPv</title>
<path fill="none" stroke="#000000" d="M558.17,-746.9C552.49,-742.32 548.53,-739.14 548.53,-739.14 548.53,-739.14 548.04,-609.65 547.75,-531.71"/>
<polygon fill="#000000" stroke="#000000" points="551.25,-532.1 547.71,-522.12 544.25,-532.13 551.25,-532.1"/>
</g>
<!-- retPv -->
<g id="node21" class="node">
<title>retPv</title>
<polygon fill="#fef3c7" stroke="#000000" points="1008.85,-329.89 691.78,-329.89 610.22,-196.89 927.28,-196.89 1008.85,-329.89"/>
<text xml:space="preserve" text-anchor="start" x="721.41" y="-277.64" font-family="CMU Serif" font-size="14.00">status = ok_principal_value</text>
<text xml:space="preserve" text-anchor="start" x="757.03" y="-258.14" font-family="CMU Serif" font-size="14.00">value = pv.value</text>
<text xml:space="preserve" text-anchor="start" x="721.78" y="-238.64" font-family="CMU Serif" font-size="14.00">n = pv.n; runge = pv.runge</text>
</g>
<!-- chkPv&#45;&gt;retPv -->
<g id="edge26" class="edge">
<title>chkPv&#45;&gt;retPv</title>
<path fill="none" stroke="#000000" d="M604.23,-452.35C671.46,-428.87 774.53,-392.89 774.53,-392.89 774.53,-392.89 781.14,-368.63 788.61,-341.19"/>
<polygon fill="#000000" stroke="#000000" points="791.97,-342.18 791.22,-331.61 785.22,-340.34 791.97,-342.18"/>
<text xml:space="preserve" text-anchor="middle" x="758.05" y="-406.74" font-family="CMU Serif" font-size="12.00">да</text>
</g>
<!-- chkInd -->
<g id="node22" class="node">
<title>chkInd</title>
<polygon fill="#fff7d1" stroke="#000000" points="547.53,-392.89 326.03,-365.39 547.53,-337.89 769.03,-365.39 547.53,-392.89"/>
<text xml:space="preserve" text-anchor="start" x="444.78" y="-360.14" font-family="CMU Serif" font-size="14.00">failedStatus = &quot;indeterminate&quot;?</text>
</g>
<!-- chkPv&#45;&gt;chkInd -->
<g id="edge28" class="edge">
<title>chkPv&#45;&gt;chkInd</title>
<path fill="none" stroke="#000000" d="M547.53,-425.76C547.53,-418.73 547.53,-411.55 547.53,-404.73"/>
<polygon fill="#000000" stroke="#000000" points="551.03,-404.81 547.53,-394.81 544.03,-404.81 551.03,-404.81"/>
<text xml:space="preserve" text-anchor="middle" x="557.28" y="-406.74" font-family="CMU Serif" font-size="12.00">нет</text>
</g>
<!-- retPv&#45;&gt;stop -->
<g id="edge27" class="edge">
<title>retPv&#45;&gt;stop</title>
<path fill="none" stroke="#000000" d="M935.81,-209.95C964.41,-198.08 986.53,-188.89 986.53,-188.89 986.53,-188.89 992.95,-98.88 996.39,-50.45"/>
<polygon fill="#000000" stroke="#000000" points="999.88,-50.85 997.09,-40.63 992.89,-50.35 999.88,-50.85"/>
</g>
<!-- retInd -->
<g id="node23" class="node">
<title>retInd</title>
<polygon fill="#fde2e2" stroke="#000000" points="981.06,-188.89 620.7,-188.89 528,-55.89 888.36,-55.89 981.06,-188.89"/>
<text xml:space="preserve" text-anchor="start" x="678.78" y="-136.64" font-family="CMU Serif" font-size="14.00">status = indeterminate</text>
<text xml:space="preserve" text-anchor="start" x="663.78" y="-117.14" font-family="CMU Serif" font-size="14.00">value = total (накопленное)</text>
<text xml:space="preserve" text-anchor="start" x="653.28" y="-97.64" font-family="CMU Serif" font-size="14.00">n = totalN; runge = totalRunge</text>
</g>
<!-- chkInd&#45;&gt;retInd -->
<g id="edge29" class="edge">
<title>chkInd&#45;&gt;retInd</title>
<path fill="none" stroke="#000000" d="M554.21,-338.22C566.24,-291.11 590.28,-196.89 590.28,-196.89 590.28,-196.89 596.68,-194.03 606.95,-189.43"/>
<polygon fill="#000000" stroke="#000000" points="608.33,-192.65 616.02,-185.37 605.47,-186.26 608.33,-192.65"/>
<text xml:space="preserve" text-anchor="middle" x="597.41" y="-260.62" font-family="CMU Serif" font-size="12.00">да</text>
</g>
<!-- retDiv -->
<g id="node24" class="node">
<title>retDiv</title>
<polygon fill="#fde2e2" stroke="#000000" points="516.63,-188.89 231.72,-188.89 158.43,-55.89 443.34,-55.89 516.63,-188.89"/>
<text xml:space="preserve" text-anchor="start" x="281.28" y="-136.64" font-family="CMU Serif" font-size="14.00">status = diverges</text>
<text xml:space="preserve" text-anchor="start" x="297.78" y="-117.14" font-family="CMU Serif" font-size="14.00">value = NaN</text>
<text xml:space="preserve" text-anchor="start" x="259.16" y="-97.64" font-family="CMU Serif" font-size="14.00">«Интеграл расходится»</text>
</g>
<!-- chkInd&#45;&gt;retDiv -->
<g id="edge31" class="edge">
<title>chkInd&#45;&gt;retDiv</title>
<path fill="none" stroke="#000000" d="M526.63,-340.4C497.95,-307.49 445.13,-246.87 402.59,-198.05"/>
<polygon fill="#000000" stroke="#000000" points="405.24,-195.77 396.04,-190.53 399.97,-200.37 405.24,-195.77"/>
<text xml:space="preserve" text-anchor="middle" x="526.8" y="-260.62" font-family="CMU Serif" font-size="12.00">нет</text>
</g>
<!-- retInd&#45;&gt;stop -->
<g id="edge30" class="edge">
<title>retInd&#45;&gt;stop</title>
<path fill="none" stroke="#000000" d="M893.99,-63.69C917.62,-53.92 940.35,-44.51 958.55,-36.99"/>
<polygon fill="#000000" stroke="#000000" points="959.69,-40.3 967.59,-33.25 957.01,-33.84 959.69,-40.3"/>
</g>
<!-- retDiv&#45;&gt;stop -->
<g id="edge32" class="edge">
<title>retDiv&#45;&gt;stop</title>
<path fill="none" stroke="#000000" d="M456.53,-79.26C492.44,-66.55 522.53,-55.89 522.53,-55.89 522.53,-55.89 825.28,-33.35 947.89,-24.22"/>
<polygon fill="#000000" stroke="#000000" points="947.95,-27.72 957.67,-23.49 947.43,-20.74 947.95,-27.72"/>
</g>
</g>
</svg>
