<?xml version="1.0" encoding="UTF-8" standalone="no"?>
<!DOCTYPE svg PUBLIC "-//W3C//DTD SVG 1.1//EN"
 "http://www.w3.org/Graphics/SVG/1.1/DTD/svg11.dtd">
<!-- Generated by graphviz version 14.1.5 (0)
 -->
<!-- Title: IsAntisymmetric Pages: 1 -->
<svg width="649pt" height="696pt"
 viewBox="0.00 0.00 649.00 696.00" xmlns="http://www.w3.org/2000/svg" xmlns:xlink="http://www.w3.org/1999/xlink">
<g id="graph0" class="graph" transform="scale(1 1) rotate(0) translate(4 691.78)">
<title>IsAntisymmetric</title>
<polygon fill="white" stroke="none" points="-4,4 -4,-691.78 644.71,-691.78 644.71,4 -4,4"/>
<!-- start -->
<g id="node1" class="node">
<title>start</title>
<ellipse fill="#e6eefc" stroke="#000000" cx="328.33" cy="-668.34" rx="127.99" ry="19.45"/>
<text xml:space="preserve" text-anchor="middle" x="328.33" y="-664.79" font-family="CMU Serif" font-size="14.00">Начало: isAntisymmetric</text>
</g>
<!-- input -->
<g id="node2" class="node">
<title>input</title>
<polygon fill="#f5f5f5" stroke="#000000" points="526.09,-625.89 211.5,-625.89 130.57,-553.89 445.16,-553.89 526.09,-625.89"/>
<text xml:space="preserve" text-anchor="start" x="288.58" y="-591.59" font-family="CMU Serif" font-size="14.00">Ввод: f, c, d,</text>
<text xml:space="preserve" text-anchor="start" x="240.96" y="-577.59" font-family="CMU Serif" font-size="14.00">tol = 10</text>
<text xml:space="preserve" text-anchor="start" x="290.46" y="-577.59" font-family="CMU Serif" baseline-shift="super" font-size="14.00">−6</text>
<text xml:space="preserve" text-anchor="start" x="303.96" y="-577.59" font-family="CMU Serif" font-size="14.00"> (по умолчанию)</text>
</g>
<!-- start&#45;&gt;input -->
<g id="edge1" class="edge">
<title>start&#45;&gt;input</title>
<path fill="none" stroke="#000000" d="M328.33,-648.44C328.33,-645.08 328.33,-641.45 328.33,-637.7"/>
<polygon fill="#000000" stroke="#000000" points="331.83,-637.78 328.33,-627.78 324.83,-637.78 331.83,-637.78"/>
</g>
<!-- init -->
<g id="node3" class="node">
<title>init</title>
<polygon fill="#ffffff" stroke="#000000" points="379.46,-530.89 277.21,-530.89 277.21,-464.39 379.46,-464.39 379.46,-530.89"/>
<text xml:space="preserve" text-anchor="start" x="285.21" y="-511.89" font-family="CMU Serif" font-size="14.00">samples = 10</text>
<text xml:space="preserve" text-anchor="start" x="297.58" y="-492.39" font-family="CMU Serif" font-size="14.00">worst = 0</text>
<text xml:space="preserve" text-anchor="start" x="314.46" y="-472.89" font-family="CMU Serif" font-size="14.00">i = 0</text>
</g>
<!-- input&#45;&gt;init -->
<g id="edge2" class="edge">
<title>input&#45;&gt;init</title>
<path fill="none" stroke="#000000" d="M328.33,-553.48C328.33,-549.94 328.33,-546.32 328.33,-542.7"/>
<polygon fill="#000000" stroke="#000000" points="331.83,-542.81 328.33,-532.81 324.83,-542.81 331.83,-542.81"/>
</g>
<!-- loop -->
<g id="node4" class="node">
<title>loop</title>
<polygon fill="#fff7d1" stroke="#000000" points="328.33,-441.39 232.83,-413.89 328.33,-386.39 423.83,-413.89 328.33,-441.39"/>
<text xml:space="preserve" text-anchor="start" x="288.58" y="-408.64" font-family="CMU Serif" font-size="14.00">i &lt; samples?</text>
</g>
<!-- init&#45;&gt;loop -->
<g id="edge3" class="edge">
<title>init&#45;&gt;loop</title>
<path fill="none" stroke="#000000" d="M328.33,-464.33C328.33,-460.58 328.33,-456.73 328.33,-452.92"/>
<polygon fill="#000000" stroke="#000000" points="331.83,-453.21 328.33,-443.21 324.83,-453.21 331.83,-453.21"/>
</g>
<!-- ret -->
<g id="node5" class="node">
<title>ret</title>
<polygon fill="#dcfce7" stroke="#000000" points="286.66,-286.14 58.65,-286.14 0,-231.14 228.01,-231.14 286.66,-286.14"/>
<text xml:space="preserve" text-anchor="start" x="82.21" y="-253.39" font-family="CMU Serif" font-size="14.00">Вывод: worst &lt; tol</text>
</g>
<!-- loop&#45;&gt;ret -->
<g id="edge4" class="edge">
<title>loop&#45;&gt;ret</title>
<path fill="none" stroke="#000000" d="M300.56,-393.87C272.21,-374.45 232.33,-347.14 232.33,-347.14 232.33,-347.14 203.31,-318.61 178.41,-294.13"/>
<polygon fill="#000000" stroke="#000000" points="181.18,-291.95 171.6,-287.43 176.27,-296.94 181.18,-291.95"/>
<text xml:space="preserve" text-anchor="middle" x="281.89" y="-363.99" font-family="CMU Serif" font-size="12.00">нет</text>
</g>
<!-- body -->
<g id="node6" class="node">
<title>body</title>
<polygon fill="#ffffff" stroke="#000000" points="415.08,-347.14 241.58,-347.14 241.58,-297.14 415.08,-297.14 415.08,-347.14"/>
<text xml:space="preserve" text-anchor="start" x="266.08" y="-330.84" font-family="CMU Serif" font-size="14.00">t = i / (samples − 1)</text>
<text xml:space="preserve" text-anchor="start" x="251.46" y="-316.84" font-family="CMU Serif" font-size="14.00">δ = d · (10</text>
<text xml:space="preserve" text-anchor="start" x="315.96" y="-316.84" font-family="CMU Serif" baseline-shift="super" font-size="14.00">−3</text>
<text xml:space="preserve" text-anchor="start" x="329.46" y="-316.84" font-family="CMU Serif" font-size="14.00">)</text>
<text xml:space="preserve" text-anchor="start" x="333.96" y="-316.84" font-family="CMU Serif" baseline-shift="super" font-size="14.00">1−t</text>
<text xml:space="preserve" text-anchor="start" x="351.96" y="-316.84" font-family="CMU Serif" font-size="14.00"> · (0.99)</text>
<text xml:space="preserve" text-anchor="start" x="400.71" y="-316.84" font-family="CMU Serif" baseline-shift="super" font-size="14.00">t</text>
<text xml:space="preserve" text-anchor="start" x="249.58" y="-302.84" font-family="CMU Serif" font-size="14.00">fp = f(c + δ); fm = f(c − δ)</text>
</g>
<!-- loop&#45;&gt;body -->
<g id="edge6" class="edge">
<title>loop&#45;&gt;body</title>
<path fill="none" stroke="#000000" d="M328.33,-385.96C328.33,-377.49 328.33,-368 328.33,-359"/>
<polygon fill="#000000" stroke="#000000" points="331.83,-359.12 328.33,-349.12 324.83,-359.12 331.83,-359.12"/>
<text xml:space="preserve" text-anchor="middle" x="335.46" y="-363.99" font-family="CMU Serif" font-size="12.00">да</text>
</g>
<!-- stop -->
<g id="node10" class="node">
<title>stop</title>
<ellipse fill="#e6eefc" stroke="#000000" cx="128.33" cy="-19.45" rx="39.95" ry="19.45"/>
<text xml:space="preserve" text-anchor="middle" x="128.33" y="-15.9" font-family="CMU Serif" font-size="14.00">Конец</text>
</g>
<!-- ret&#45;&gt;stop -->
<g id="edge5" class="edge">
<title>ret&#45;&gt;stop</title>
<path fill="none" stroke="#000000" d="M137.6,-230.79C136.32,-224.78 135.33,-220.14 135.33,-220.14 135.33,-220.14 131.34,-106.27 129.38,-50.5"/>
<polygon fill="#000000" stroke="#000000" points="132.89,-50.62 129.04,-40.74 125.9,-50.86 132.89,-50.62"/>
</g>
<!-- chkFin -->
<g id="node7" class="node">
<title>chkFin</title>
<polygon fill="#fff7d1" stroke="#000000" points="328.33,-220.14 144.33,-192.64 328.33,-165.14 512.33,-192.64 328.33,-220.14"/>
<text xml:space="preserve" text-anchor="start" x="244.33" y="-187.39" font-family="CMU Serif" font-size="14.00">isFinite(fp) ∧ isFinite(fm)?</text>
</g>
<!-- body&#45;&gt;chkFin -->
<g id="edge7" class="edge">
<title>body&#45;&gt;chkFin</title>
<path fill="none" stroke="#000000" d="M328.33,-296.86C328.33,-278.53 328.33,-253.03 328.33,-231.97"/>
<polygon fill="#000000" stroke="#000000" points="331.83,-231.99 328.33,-221.99 324.83,-231.99 331.83,-231.99"/>
</g>
<!-- retFalse -->
<g id="node8" class="node">
<title>retFalse</title>
<polygon fill="#fde2e2" stroke="#000000" points="383.45,-121.39 221,-121.39 179.21,-66.39 341.66,-66.39 383.45,-121.39"/>
<text xml:space="preserve" text-anchor="start" x="240.08" y="-88.64" font-family="CMU Serif" font-size="14.00">Вывод: false</text>
</g>
<!-- chkFin&#45;&gt;retFalse -->
<g id="edge8" class="edge">
<title>chkFin&#45;&gt;retFalse</title>
<path fill="none" stroke="#000000" d="M316.11,-166.47C310.98,-155.93 304.92,-143.45 299.31,-131.9"/>
<polygon fill="#000000" stroke="#000000" points="302.5,-130.45 294.98,-122.99 296.2,-133.51 302.5,-130.45"/>
<text xml:space="preserve" text-anchor="middle" x="318.79" y="-142.74" font-family="CMU Serif" font-size="12.00">нет</text>
</g>
<!-- upd -->
<g id="node9" class="node">
<title>upd</title>
<polygon fill="#ffffff" stroke="#000000" points="640.71,-125.89 413.96,-125.89 413.96,-61.89 640.71,-61.89 640.71,-125.89"/>
<text xml:space="preserve" text-anchor="start" x="421.96" y="-109.59" font-family="CMU Serif" font-size="14.00">denom = max(|fp|, |fm|, 10</text>
<text xml:space="preserve" text-anchor="start" x="607.96" y="-109.59" font-family="CMU Serif" baseline-shift="super" font-size="14.00">−30</text>
<text xml:space="preserve" text-anchor="start" x="628.21" y="-109.59" font-family="CMU Serif" font-size="14.00">)</text>
<text xml:space="preserve" text-anchor="start" x="448.58" y="-95.59" font-family="CMU Serif" font-size="14.00">diff = |fp + fm| / denom</text>
<text xml:space="preserve" text-anchor="start" x="448.58" y="-81.59" font-family="CMU Serif" font-size="14.00">worst = max(worst, diff)</text>
<text xml:space="preserve" text-anchor="start" x="503.71" y="-67.59" font-family="CMU Serif" font-size="14.00">i = i + 1</text>
</g>
<!-- chkFin&#45;&gt;upd -->
<g id="edge10" class="edge">
<title>chkFin&#45;&gt;upd</title>
<path fill="none" stroke="#000000" d="M370.53,-171.12C394.41,-159.51 424.97,-144.66 452.76,-131.15"/>
<polygon fill="#000000" stroke="#000000" points="454.03,-134.42 461.49,-126.9 450.97,-128.13 454.03,-134.42"/>
<text xml:space="preserve" text-anchor="middle" x="446.87" y="-142.74" font-family="CMU Serif" font-size="12.00">да</text>
</g>
<!-- retFalse&#45;&gt;stop -->
<g id="edge9" class="edge">
<title>retFalse&#45;&gt;stop</title>
<path fill="none" stroke="#000000" d="M224.36,-65.91C205.08,-56.79 184.03,-46.82 166.56,-38.55"/>
<polygon fill="#000000" stroke="#000000" points="168.1,-35.4 157.57,-34.29 165.11,-41.73 168.1,-35.4"/>
</g>
<!-- upd&#45;&gt;loop -->
<g id="edge11" class="edge">
<title>upd&#45;&gt;loop</title>
<path fill="none" stroke="#000000" d="M525.83,-126.17C524.06,-163.27 521.33,-220.14 521.33,-220.14 521.33,-220.14 424.33,-347.14 424.33,-347.14 424.33,-347.14 392.42,-369 365.39,-387.51"/>
<polygon fill="#000000" stroke="#000000" points="363.62,-384.48 357.35,-393.02 367.58,-390.25 363.62,-384.48"/>
</g>
</g>
</svg>
