<?xml version="1.0" encoding="UTF-8" standalone="no"?>
<!DOCTYPE svg PUBLIC "-//W3C//DTD SVG 1.1//EN"
 "http://www.w3.org/Graphics/SVG/1.1/DTD/svg11.dtd">
<!-- Generated by graphviz version 14.1.5 (0)
 -->
<!-- Title: LeftRect Pages: 1 -->
<svg width="346pt" height="538pt"
 viewBox="0.00 0.00 346.00 538.00" xmlns="http://www.w3.org/2000/svg" xmlns:xlink="http://www.w3.org/1999/xlink">
<g id="graph0" class="graph" transform="scale(1 1) rotate(0) translate(4 534.03)">
<title>LeftRect</title>
<polygon fill="white" stroke="none" points="-4,4 -4,-534.03 341.64,-534.03 341.64,4 -4,4"/>
<!-- start -->
<g id="node1" class="node">
<title>start</title>
<ellipse fill="#e6eefc" stroke="#000000" cx="168.82" cy="-510.59" rx="168.82" ry="19.45"/>
<text xml:space="preserve" text-anchor="middle" x="168.82" y="-507.04" font-family="CMU Serif" font-size="14.00">Начало: LeftRectIntegrator::apply</text>
</g>
<!-- input -->
<g id="node2" class="node">
<title>input</title>
<polygon fill="#f5f5f5" stroke="#000000" points="298.93,-468.14 91.95,-468.14 38.71,-413.14 245.69,-413.14 298.93,-468.14"/>
<text xml:space="preserve" text-anchor="middle" x="168.82" y="-437.09" font-family="CMU Serif" font-size="14.00">Ввод: f(x), a, b, n</text>
</g>
<!-- start&#45;&gt;input -->
<g id="edge1" class="edge">
<title>start&#45;&gt;input</title>
<path fill="none" stroke="#000000" d="M168.82,-490.66C168.82,-487.24 168.82,-483.57 168.82,-479.83"/>
<polygon fill="#000000" stroke="#000000" points="172.32,-480.1 168.82,-470.1 165.32,-480.1 172.32,-480.1"/>
</g>
<!-- init -->
<g id="node3" class="node">
<title>init</title>
<polygon fill="#ffffff" stroke="#000000" points="220.32,-390.14 117.32,-390.14 117.32,-323.64 220.32,-323.64 220.32,-390.14"/>
<text xml:space="preserve" text-anchor="start" x="125.32" y="-371.14" font-family="CMU Serif" font-size="14.00">h = (b − a) / n</text>
<text xml:space="preserve" text-anchor="start" x="153.07" y="-351.64" font-family="CMU Serif" font-size="14.00">S = 0</text>
<text xml:space="preserve" text-anchor="start" x="154.95" y="-332.14" font-family="CMU Serif" font-size="14.00">i = 0</text>
</g>
<!-- input&#45;&gt;init -->
<g id="edge2" class="edge">
<title>input&#45;&gt;init</title>
<path fill="none" stroke="#000000" d="M168.82,-412.87C168.82,-409.29 168.82,-405.54 168.82,-401.75"/>
<polygon fill="#000000" stroke="#000000" points="172.32,-401.94 168.82,-391.94 165.32,-401.94 172.32,-401.94"/>
</g>
<!-- loop -->
<g id="node4" class="node">
<title>loop</title>
<polygon fill="#fff7d1" stroke="#000000" points="168.82,-300.64 118.32,-273.14 168.82,-245.64 219.32,-273.14 168.82,-300.64"/>
<text xml:space="preserve" text-anchor="start" x="151.57" y="-267.89" font-family="CMU Serif" font-size="14.00">i &lt; n?</text>
</g>
<!-- init&#45;&gt;loop -->
<g id="edge3" class="edge">
<title>init&#45;&gt;loop</title>
<path fill="none" stroke="#000000" d="M168.82,-323.58C168.82,-319.99 168.82,-316.31 168.82,-312.66"/>
<polygon fill="#000000" stroke="#000000" points="172.32,-312.72 168.82,-302.72 165.32,-312.72 172.32,-312.72"/>
</g>
<!-- body -->
<g id="node5" class="node">
<title>body</title>
<polygon fill="#ffffff" stroke="#000000" points="183.07,-206.39 96.57,-206.39 96.57,-139.89 183.07,-139.89 183.07,-206.39"/>
<text xml:space="preserve" text-anchor="start" x="104.57" y="-187.39" font-family="CMU Serif" font-size="14.00">x = a + i · h</text>
<text xml:space="preserve" text-anchor="start" x="106.07" y="-167.89" font-family="CMU Serif" font-size="14.00">S = S + f(x)</text>
<text xml:space="preserve" text-anchor="start" x="116.2" y="-148.39" font-family="CMU Serif" font-size="14.00">i = i + 1</text>
</g>
<!-- loop&#45;&gt;body -->
<g id="edge4" class="edge">
<title>loop&#45;&gt;body</title>
<path fill="none" stroke="#000000" d="M154.37,-252.95C147.42,-243.73 140.57,-234.64 140.57,-234.64 140.57,-234.64 140.48,-227.51 140.37,-218.14"/>
<polygon fill="#000000" stroke="#000000" points="143.87,-218.34 140.25,-208.38 136.87,-218.43 143.87,-218.34"/>
<text xml:space="preserve" text-anchor="middle" x="147.7" y="-223.24" font-family="CMU Serif" font-size="12.00">да</text>
</g>
<!-- mul -->
<g id="node6" class="node">
<title>mul</title>
<polygon fill="#ffffff" stroke="#000000" points="264.82,-191.14 200.82,-191.14 200.82,-155.14 264.82,-155.14 264.82,-191.14"/>
<text xml:space="preserve" text-anchor="start" x="208.82" y="-167.89" font-family="CMU Serif" font-size="14.00">I = S · h</text>
</g>
<!-- loop&#45;&gt;mul -->
<g id="edge6" class="edge">
<title>loop&#45;&gt;mul</title>
<path fill="none" stroke="#000000" d="M181.77,-252.31C191.45,-237.49 204.79,-217.07 215.4,-200.82"/>
<polygon fill="#000000" stroke="#000000" points="218.24,-202.88 220.77,-192.59 212.37,-199.05 218.24,-202.88"/>
<text xml:space="preserve" text-anchor="middle" x="212.49" y="-223.24" font-family="CMU Serif" font-size="12.00">нет</text>
</g>
<!-- body&#45;&gt;loop -->
<g id="edge5" class="edge">
<title>body&#45;&gt;loop</title>
<path fill="none" stroke="#000000" d="M151.04,-206.48C153.21,-212.73 154.82,-217.39 154.82,-217.39 154.82,-217.39 157.18,-226.6 159.96,-237.47"/>
<polygon fill="#000000" stroke="#000000" points="156.56,-238.32 162.43,-247.14 163.34,-236.58 156.56,-238.32"/>
</g>
<!-- output -->
<g id="node7" class="node">
<title>output</title>
<polygon fill="#dcfce7" stroke="#000000" points="307.73,-116.89 188.57,-116.89 157.92,-61.89 277.07,-61.89 307.73,-116.89"/>
<text xml:space="preserve" text-anchor="start" x="204.7" y="-84.14" font-family="CMU Serif" font-size="14.00">Вывод: I</text>
</g>
<!-- mul&#45;&gt;output -->
<g id="edge7" class="edge">
<title>mul&#45;&gt;output</title>
<path fill="none" stroke="#000000" d="M232.82,-154.8C232.82,-147.16 232.82,-137.85 232.82,-128.71"/>
<polygon fill="#000000" stroke="#000000" points="236.32,-128.87 232.82,-118.87 229.32,-128.87 236.32,-128.87"/>
</g>
<!-- stop -->
<g id="node8" class="node">
<title>stop</title>
<ellipse fill="#e6eefc" stroke="#000000" cx="232.82" cy="-19.45" rx="39.95" ry="19.45"/>
<text xml:space="preserve" text-anchor="middle" x="232.82" y="-15.9" font-family="CMU Serif" font-size="14.00">Конец</text>
</g>
<!-- output&#45;&gt;stop -->
<g id="edge8" class="edge">
<title>output&#45;&gt;stop</title>
<path fill="none" stroke="#000000" d="M232.82,-61.54C232.82,-57.94 232.82,-54.24 232.82,-50.59"/>
<polygon fill="#000000" stroke="#000000" points="236.32,-50.87 232.82,-40.87 229.32,-50.87 236.32,-50.87"/>
</g>
</g>
</svg>
