<?xml version="1.0" encoding="UTF-8" standalone="no"?>
<!DOCTYPE svg PUBLIC "-//W3C//DTD SVG 1.1//EN"
 "http://www.w3.org/Graphics/SVG/1.1/DTD/svg11.dtd">
<!-- Generated by graphviz version 14.1.5 (0)
 -->
<!-- Title: LSBest Pages: 1 -->
<svg width="668pt" height="626pt"
 viewBox="0.00 0.00 668.00 626.00" xmlns="http://www.w3.org/2000/svg" xmlns:xlink="http://www.w3.org/1999/xlink">
<g id="graph0" class="graph" transform="scale(1 1) rotate(0) translate(4 622.14)">
<title>LSBest</title>
<polygon fill="white" stroke="none" points="-4,4 -4,-622.14 664.25,-622.14 664.25,4 -4,4"/>
<!-- start -->
<g id="node1" class="node">
<title>start</title>
<ellipse fill="#e6eefc" stroke="#000000" cx="511.25" cy="-598.7" rx="91.39" ry="19.45"/>
<text xml:space="preserve" text-anchor="middle" x="511.25" y="-595.15" font-family="CMU Serif" font-size="14.00">Начало: pickBest</text>
</g>
<!-- input -->
<g id="node2" class="node">
<title>input</title>
<polygon fill="#f5f5f5" stroke="#000000" points="656.14,-556.25 425.65,-556.25 366.36,-501.25 596.85,-501.25 656.14,-556.25"/>
<text xml:space="preserve" text-anchor="middle" x="511.25" y="-525.2" font-family="CMU Serif" font-size="14.00">Ввод: results[1..M]</text>
</g>
<!-- start&#45;&gt;input -->
<g id="edge1" class="edge">
<title>start&#45;&gt;input</title>
<path fill="none" stroke="#000000" d="M511.25,-578.77C511.25,-575.35 511.25,-571.68 511.25,-567.94"/>
<polygon fill="#000000" stroke="#000000" points="514.75,-568.21 511.25,-558.21 507.75,-568.21 514.75,-568.21"/>
</g>
<!-- init -->
<g id="node3" class="node">
<title>init</title>
<polygon fill="#ffffff" stroke="#000000" points="559.75,-478.25 462.75,-478.25 462.75,-411.75 559.75,-411.75 559.75,-478.25"/>
<text xml:space="preserve" text-anchor="start" x="470.75" y="-459.25" font-family="CMU Serif" font-size="14.00">bestIdx = −1</text>
<text xml:space="preserve" text-anchor="start" x="474.88" y="-439.75" font-family="CMU Serif" font-size="14.00">bestδ = +∞</text>
<text xml:space="preserve" text-anchor="start" x="497.38" y="-420.25" font-family="CMU Serif" font-size="14.00">i = 1</text>
</g>
<!-- input&#45;&gt;init -->
<g id="edge2" class="edge">
<title>input&#45;&gt;init</title>
<path fill="none" stroke="#000000" d="M511.25,-500.98C511.25,-497.4 511.25,-493.65 511.25,-489.86"/>
<polygon fill="#000000" stroke="#000000" points="514.75,-490.05 511.25,-480.05 507.75,-490.05 514.75,-490.05"/>
</g>
<!-- loop -->
<g id="node4" class="node">
<title>loop</title>
<polygon fill="#fff7d1" stroke="#000000" points="511.25,-388.75 453.25,-361.25 511.25,-333.75 569.25,-361.25 511.25,-388.75"/>
<text xml:space="preserve" text-anchor="start" x="490.25" y="-356" font-family="CMU Serif" font-size="14.00">i ≤ M?</text>
</g>
<!-- init&#45;&gt;loop -->
<g id="edge3" class="edge">
<title>init&#45;&gt;loop</title>
<path fill="none" stroke="#000000" d="M511.25,-411.69C511.25,-407.94 511.25,-404.09 511.25,-400.28"/>
<polygon fill="#000000" stroke="#000000" points="514.75,-400.57 511.25,-390.57 507.75,-400.57 514.75,-400.57"/>
</g>
<!-- chko -->
<g id="node5" class="node">
<title>chko</title>
<polygon fill="#fff7d1" stroke="#000000" points="186.25,-294.5 0,-267 186.25,-239.5 372.5,-267 186.25,-294.5"/>
<text xml:space="preserve" text-anchor="start" x="101.12" y="-261.75" font-family="CMU Serif" font-size="14.00">results[i].статус = Готово?</text>
</g>
<!-- loop&#45;&gt;chko -->
<g id="edge4" class="edge">
<title>loop&#45;&gt;chko</title>
<path fill="none" stroke="#000000" d="M475.85,-350.2C424.27,-335.56 327.25,-308.02 259.8,-288.88"/>
<polygon fill="#000000" stroke="#000000" points="260.85,-285.54 250.28,-286.17 258.94,-292.27 260.85,-285.54"/>
<text xml:space="preserve" text-anchor="middle" x="384.98" y="-311.35" font-family="CMU Serif" font-size="12.00">да</text>
</g>
<!-- output -->
<g id="node9" class="node">
<title>output</title>
<polygon fill="#dcfce7" stroke="#000000" points="632.03,-294.5 439.9,-294.5 390.47,-239.5 582.6,-239.5 632.03,-294.5"/>
<text xml:space="preserve" text-anchor="start" x="461" y="-261.75" font-family="CMU Serif" font-size="14.00">Вывод: bestIdx</text>
</g>
<!-- loop&#45;&gt;output -->
<g id="edge11" class="edge">
<title>loop&#45;&gt;output</title>
<path fill="none" stroke="#000000" d="M511.25,-333.57C511.25,-325.04 511.25,-315.42 511.25,-306.23"/>
<polygon fill="#000000" stroke="#000000" points="514.75,-306.46 511.25,-296.46 507.75,-306.46 514.75,-306.46"/>
<text xml:space="preserve" text-anchor="middle" x="521" y="-311.35" font-family="CMU Serif" font-size="12.00">нет</text>
</g>
<!-- chkd -->
<g id="node6" class="node">
<title>chkd</title>
<polygon fill="#fff7d1" stroke="#000000" points="186.25,-200.25 42,-172.75 186.25,-145.25 330.5,-172.75 186.25,-200.25"/>
<text xml:space="preserve" text-anchor="start" x="122.12" y="-167.5" font-family="CMU Serif" font-size="14.00">results[i].δ &lt; bestδ?</text>
</g>
<!-- chko&#45;&gt;chkd -->
<g id="edge5" class="edge">
<title>chko&#45;&gt;chkd</title>
<path fill="none" stroke="#000000" d="M186.25,-239.32C186.25,-230.79 186.25,-221.17 186.25,-211.98"/>
<polygon fill="#000000" stroke="#000000" points="189.75,-212.21 186.25,-202.21 182.75,-212.21 189.75,-212.21"/>
<text xml:space="preserve" text-anchor="middle" x="193.38" y="-217.1" font-family="CMU Serif" font-size="12.00">да</text>
</g>
<!-- next -->
<g id="node8" class="node">
<title>next</title>
<polygon fill="#ffffff" stroke="#000000" points="364.88,-36 301.62,-36 301.62,0 364.88,0 364.88,-36"/>
<text xml:space="preserve" text-anchor="start" x="309.62" y="-12.75" font-family="CMU Serif" font-size="14.00">i = i + 1</text>
</g>
<!-- chko&#45;&gt;next -->
<g id="edge6" class="edge">
<title>chko&#45;&gt;next</title>
<path fill="none" stroke="#000000" d="M232.99,-245.92C277.98,-226.58 339.25,-200.25 339.25,-200.25 339.25,-200.25 339.25,-145.25 339.25,-145.25 339.25,-145.25 336.37,-84.69 334.6,-47.45"/>
<polygon fill="#000000" stroke="#000000" points="338.11,-47.62 334.14,-37.8 331.12,-47.96 338.11,-47.62"/>
<text xml:space="preserve" text-anchor="middle" x="348.46" y="-122.85" font-family="CMU Serif" font-size="12.00">нет</text>
</g>
<!-- upd -->
<g id="node7" class="node">
<title>upd</title>
<polygon fill="#ffffff" stroke="#000000" points="267.38,-106 129.12,-106 129.12,-59 267.38,-59 267.38,-106"/>
<text xml:space="preserve" text-anchor="start" x="137.12" y="-87" font-family="CMU Serif" font-size="14.00">bestδ = results[i].δ</text>
<text xml:space="preserve" text-anchor="start" x="164.12" y="-67.5" font-family="CMU Serif" font-size="14.00">bestIdx = i</text>
</g>
<!-- chkd&#45;&gt;upd -->
<g id="edge7" class="edge">
<title>chkd&#45;&gt;upd</title>
<path fill="none" stroke="#000000" d="M189.79,-145.75C190.98,-136.96 192.34,-127 193.6,-117.67"/>
<polygon fill="#000000" stroke="#000000" points="197.06,-118.2 194.94,-107.82 190.13,-117.26 197.06,-118.2"/>
<text xml:space="preserve" text-anchor="middle" x="200.8" y="-122.85" font-family="CMU Serif" font-size="12.00">да</text>
</g>
<!-- chkd&#45;&gt;next -->
<g id="edge8" class="edge">
<title>chkd&#45;&gt;next</title>
<path fill="none" stroke="#000000" d="M215.22,-150.58C241.53,-131.36 276.25,-106 276.25,-106 276.25,-106 298.95,-71.35 315.7,-45.79"/>
<polygon fill="#000000" stroke="#000000" points="318.61,-47.74 321.16,-37.45 312.75,-43.9 318.61,-47.74"/>
<text xml:space="preserve" text-anchor="middle" x="316.4" y="-79.72" font-family="CMU Serif" font-size="12.00">нет</text>
</g>
<!-- upd&#45;&gt;next -->
<g id="edge9" class="edge">
<title>upd&#45;&gt;next</title>
<path fill="none" stroke="#000000" d="M247.75,-58.58C262.02,-51.97 277.45,-44.83 291.23,-38.46"/>
<polygon fill="#000000" stroke="#000000" points="292.41,-41.76 300.01,-34.39 289.47,-35.41 292.41,-41.76"/>
</g>
<!-- next&#45;&gt;loop -->
<g id="edge10" class="edge">
<title>next&#45;&gt;loop</title>
<path fill="none" stroke="#000000" d="M365.2,-25.11C447.48,-40.83 660.25,-81.5 660.25,-81.5 660.25,-268 660.25,-268 660.25,-268 660.25,-268 641.25,-294.5 641.25,-294.5 641.25,-294.5 587.09,-321.89 548.69,-341.32"/>
<polygon fill="#000000" stroke="#000000" points="547.51,-337.99 540.17,-345.62 550.67,-344.23 547.51,-337.99"/>
</g>
<!-- stop -->
<g id="node10" class="node">
<title>stop</title>
<ellipse fill="#e6eefc" stroke="#000000" cx="511.25" cy="-172.75" rx="39.95" ry="19.45"/>
<text xml:space="preserve" text-anchor="middle" x="511.25" y="-169.2" font-family="CMU Serif" font-size="14.00">Конец</text>
</g>
<!-- output&#45;&gt;stop -->
<g id="edge12" class="edge">
<title>output&#45;&gt;stop</title>
<path fill="none" stroke="#000000" d="M511.25,-239.32C511.25,-228.18 511.25,-215.19 511.25,-203.73"/>
<polygon fill="#000000" stroke="#000000" points="514.75,-203.99 511.25,-193.99 507.75,-203.99 514.75,-203.99"/>
</g>
</g>
</svg>
