<?xml version="1.0" encoding="UTF-8" standalone="no"?>
<!DOCTYPE svg PUBLIC "-//W3C//DTD SVG 1.1//EN"
 "http://www.w3.org/Graphics/SVG/1.1/DTD/svg11.dtd">
<!-- Generated by graphviz version 14.1.5 (0)
 -->
<!-- Title: LSBest Pages: 1 -->
<svg width="656pt" height="615pt"
 viewBox="0.00 0.00 656.00 615.00" xmlns="http://www.w3.org/2000/svg" xmlns:xlink="http://www.w3.org/1999/xlink">
<g id="graph0" class="graph" transform="scale(1 1) rotate(0) translate(4 611.14)">
<title>LSBest</title>
<polygon fill="white" stroke="none" points="-4,4 -4,-611.14 651.59,-611.14 651.59,4 -4,4"/>
<!-- start -->
<g id="node1" class="node">
<title>start</title>
<ellipse fill="#e6eefc" stroke="#000000" cx="419.5" cy="-587.7" rx="91.39" ry="19.45"/>
<text xml:space="preserve" text-anchor="middle" x="419.5" y="-584.15" font-family="CMU Serif" font-size="14.00">Начало: pickBest</text>
</g>
<!-- input -->
<g id="node2" class="node">
<title>input</title>
<polygon fill="#f5f5f5" stroke="#000000" points="647.59,-545.25 284.75,-545.25 191.41,-490.25 554.25,-490.25 647.59,-545.25"/>
<text xml:space="preserve" text-anchor="start" x="317.5" y="-515.2" font-family="CMU Serif" font-size="14.00">Ввод: M результатов R</text>
<text xml:space="preserve" text-anchor="start" x="469" y="-515.2" font-family="CMU Serif" baseline-shift="sub" font-size="14.00">1</text>
<text xml:space="preserve" text-anchor="start" x="475.75" y="-515.2" font-family="CMU Serif" font-size="14.00">, …, R</text>
<text xml:space="preserve" text-anchor="start" x="511" y="-515.2" font-family="CMU Serif" baseline-shift="sub" font-size="14.00">M</text>
</g>
<!-- start&#45;&gt;input -->
<g id="edge1" class="edge">
<title>start&#45;&gt;input</title>
<path fill="none" stroke="#000000" d="M419.5,-567.77C419.5,-564.35 419.5,-560.68 419.5,-556.94"/>
<polygon fill="#000000" stroke="#000000" points="423,-557.21 419.5,-547.21 416,-557.21 423,-557.21"/>
</g>
<!-- init -->
<g id="node3" class="node">
<title>init</title>
<polygon fill="#ffffff" stroke="#000000" points="468,-467.25 371,-467.25 371,-400.75 468,-400.75 468,-467.25"/>
<text xml:space="preserve" text-anchor="start" x="379" y="-448.25" font-family="CMU Serif" font-size="14.00">bestIdx = −1</text>
<text xml:space="preserve" text-anchor="start" x="383.12" y="-428.75" font-family="CMU Serif" font-size="14.00">bestδ = +∞</text>
<text xml:space="preserve" text-anchor="start" x="405.62" y="-409.25" font-family="CMU Serif" font-size="14.00">i = 1</text>
</g>
<!-- input&#45;&gt;init -->
<g id="edge2" class="edge">
<title>input&#45;&gt;init</title>
<path fill="none" stroke="#000000" d="M419.5,-489.98C419.5,-486.4 419.5,-482.65 419.5,-478.86"/>
<polygon fill="#000000" stroke="#000000" points="423,-479.05 419.5,-469.05 416,-479.05 423,-479.05"/>
</g>
<!-- loop -->
<g id="node4" class="node">
<title>loop</title>
<polygon fill="#fff7d1" stroke="#000000" points="419.5,-377.75 361.5,-350.25 419.5,-322.75 477.5,-350.25 419.5,-377.75"/>
<text xml:space="preserve" text-anchor="start" x="398.5" y="-345" font-family="CMU Serif" font-size="14.00">i ≤ M?</text>
</g>
<!-- init&#45;&gt;loop -->
<g id="edge3" class="edge">
<title>init&#45;&gt;loop</title>
<path fill="none" stroke="#000000" d="M419.5,-400.69C419.5,-396.94 419.5,-393.09 419.5,-389.28"/>
<polygon fill="#000000" stroke="#000000" points="423,-389.57 419.5,-379.57 416,-389.57 423,-389.57"/>
</g>
<!-- chko -->
<g id="node5" class="node">
<title>chko</title>
<polygon fill="#fff7d1" stroke="#000000" points="140.5,-283.5 0,-256 140.5,-228.5 281,-256 140.5,-283.5"/>
<text xml:space="preserve" text-anchor="start" x="78.25" y="-253.45" font-family="CMU Serif" font-size="14.00">R</text>
<text xml:space="preserve" text-anchor="start" x="87.25" y="-253.45" font-family="CMU Serif" baseline-shift="sub" font-size="14.00">i</text>
<text xml:space="preserve" text-anchor="start" x="90.25" y="-253.45" font-family="CMU Serif" font-size="14.00">.статус = Готово?</text>
</g>
<!-- loop&#45;&gt;chko -->
<g id="edge4" class="edge">
<title>loop&#45;&gt;chko</title>
<path fill="none" stroke="#000000" d="M386.12,-338.21C340.81,-323.23 258.98,-296.17 202.29,-277.43"/>
<polygon fill="#000000" stroke="#000000" points="203.69,-274.21 193.09,-274.39 201.49,-280.85 203.69,-274.21"/>
<text xml:space="preserve" text-anchor="middle" x="312.11" y="-300.35" font-family="CMU Serif" font-size="12.00">да</text>
</g>
<!-- output -->
<g id="node9" class="node">
<title>output</title>
<polygon fill="#dcfce7" stroke="#000000" points="540.28,-283.5 348.15,-283.5 298.72,-228.5 490.85,-228.5 540.28,-283.5"/>
<text xml:space="preserve" text-anchor="start" x="369.25" y="-250.75" font-family="CMU Serif" font-size="14.00">Вывод: bestIdx</text>
</g>
<!-- loop&#45;&gt;output -->
<g id="edge11" class="edge">
<title>loop&#45;&gt;output</title>
<path fill="none" stroke="#000000" d="M419.5,-322.57C419.5,-314.04 419.5,-304.42 419.5,-295.23"/>
<polygon fill="#000000" stroke="#000000" points="423,-295.46 419.5,-285.46 416,-295.46 423,-295.46"/>
<text xml:space="preserve" text-anchor="middle" x="429.25" y="-300.35" font-family="CMU Serif" font-size="12.00">нет</text>
</g>
<!-- chkd -->
<g id="node6" class="node">
<title>chkd</title>
<polygon fill="#fff7d1" stroke="#000000" points="140.5,-189.25 42,-161.75 140.5,-134.25 239,-161.75 140.5,-189.25"/>
<text xml:space="preserve" text-anchor="start" x="99.25" y="-159.2" font-family="CMU Serif" font-size="14.00">R</text>
<text xml:space="preserve" text-anchor="start" x="108.25" y="-159.2" font-family="CMU Serif" baseline-shift="sub" font-size="14.00">i</text>
<text xml:space="preserve" text-anchor="start" x="111.25" y="-159.2" font-family="CMU Serif" font-size="14.00">.δ &lt; bestδ?</text>
</g>
<!-- chko&#45;&gt;chkd -->
<g id="edge5" class="edge">
<title>chko&#45;&gt;chkd</title>
<path fill="none" stroke="#000000" d="M140.5,-228.32C140.5,-219.79 140.5,-210.17 140.5,-200.98"/>
<polygon fill="#000000" stroke="#000000" points="144,-201.21 140.5,-191.21 137,-201.21 144,-201.21"/>
<text xml:space="preserve" text-anchor="middle" x="147.62" y="-206.1" font-family="CMU Serif" font-size="12.00">да</text>
</g>
<!-- next -->
<g id="node8" class="node">
<title>next</title>
<polygon fill="#ffffff" stroke="#000000" points="276.12,-36 212.88,-36 212.88,0 276.12,0 276.12,-36"/>
<text xml:space="preserve" text-anchor="start" x="220.88" y="-12.75" font-family="CMU Serif" font-size="14.00">i = i + 1</text>
</g>
<!-- chko&#45;&gt;next -->
<g id="edge6" class="edge">
<title>chko&#45;&gt;next</title>
<path fill="none" stroke="#000000" d="M173.77,-234.56C205.18,-215.26 247.5,-189.25 247.5,-189.25 247.5,-189.25 247.5,-134.25 247.5,-134.25 247.5,-134.25 246.12,-81.29 245.23,-47.17"/>
<polygon fill="#000000" stroke="#000000" points="248.74,-47.42 244.98,-37.52 241.74,-47.61 248.74,-47.42"/>
<text xml:space="preserve" text-anchor="middle" x="256.96" y="-111.85" font-family="CMU Serif" font-size="12.00">нет</text>
</g>
<!-- upd -->
<g id="node7" class="node">
<title>upd</title>
<polygon fill="#ffffff" stroke="#000000" points="184.75,-95 92.25,-95 92.25,-59 184.75,-59 184.75,-95"/>
<text xml:space="preserve" text-anchor="start" x="100.25" y="-78.7" font-family="CMU Serif" font-size="14.00">bestδ = R</text>
<text xml:space="preserve" text-anchor="start" x="161.75" y="-78.7" font-family="CMU Serif" baseline-shift="sub" font-size="14.00">i</text>
<text xml:space="preserve" text-anchor="start" x="164.75" y="-78.7" font-family="CMU Serif" font-size="14.00">.δ</text>
<text xml:space="preserve" text-anchor="start" x="104.38" y="-64.7" font-family="CMU Serif" font-size="14.00">bestIdx = i</text>
</g>
<!-- chkd&#45;&gt;upd -->
<g id="edge7" class="edge">
<title>chkd&#45;&gt;upd</title>
<path fill="none" stroke="#000000" d="M139.86,-134.11C139.65,-125.41 139.41,-115.7 139.2,-106.84"/>
<polygon fill="#000000" stroke="#000000" points="142.7,-106.88 138.96,-96.97 135.7,-107.05 142.7,-106.88"/>
<text xml:space="preserve" text-anchor="middle" x="146.68" y="-111.85" font-family="CMU Serif" font-size="12.00">да</text>
</g>
<!-- chkd&#45;&gt;next -->
<g id="edge8" class="edge">
<title>chkd&#45;&gt;next</title>
<path fill="none" stroke="#000000" d="M158.15,-138.86C173.57,-119.73 193.5,-95 193.5,-95 193.5,-95 211.83,-67.68 226.52,-45.8"/>
<polygon fill="#000000" stroke="#000000" points="229.42,-47.76 232.08,-37.5 223.61,-43.86 229.42,-47.76"/>
<text xml:space="preserve" text-anchor="middle" x="227.05" y="-74.22" font-family="CMU Serif" font-size="12.00">нет</text>
</g>
<!-- upd&#45;&gt;next -->
<g id="edge9" class="edge">
<title>upd&#45;&gt;next</title>
<path fill="none" stroke="#000000" d="M170.88,-58.59C180.94,-53.18 192.17,-47.14 202.77,-41.44"/>
<polygon fill="#000000" stroke="#000000" points="204.2,-44.64 211.35,-36.83 200.88,-38.48 204.2,-44.64"/>
</g>
<!-- next&#45;&gt;loop -->
<g id="edge10" class="edge">
<title>next&#45;&gt;loop</title>
<path fill="none" stroke="#000000" d="M276.45,-24.62C358.19,-39 568.5,-76 568.5,-76 568.5,-257 568.5,-257 568.5,-257 568.5,-257 549.5,-283.5 549.5,-283.5 549.5,-283.5 495.34,-310.89 456.94,-330.32"/>
<polygon fill="#000000" stroke="#000000" points="455.76,-326.99 448.42,-334.62 458.92,-333.23 455.76,-326.99"/>
</g>
<!-- stop -->
<g id="node10" class="node">
<title>stop</title>
<ellipse fill="#e6eefc" stroke="#000000" cx="419.5" cy="-161.75" rx="39.95" ry="19.45"/>
<text xml:space="preserve" text-anchor="middle" x="419.5" y="-158.2" font-family="CMU Serif" font-size="14.00">Конец</text>
</g>
<!-- output&#45;&gt;stop -->
<g id="edge12" class="edge">
<title>output&#45;&gt;stop</title>
<path fill="none" stroke="#000000" d="M419.5,-228.32C419.5,-217.18 419.5,-204.19 419.5,-192.73"/>
<polygon fill="#000000" stroke="#000000" points="423,-192.99 419.5,-182.99 416,-192.99 423,-192.99"/>
</g>
</g>
</svg>
