<?xml version="1.0" encoding="UTF-8" standalone="no"?>
<!DOCTYPE svg PUBLIC "-//W3C//DTD SVG 1.1//EN"
 "http://www.w3.org/Graphics/SVG/1.1/DTD/svg11.dtd">
<!-- Generated by graphviz version 14.1.5 (0)
 -->
<!-- Title: LSExp Pages: 1 -->
<svg width="764pt" height="765pt"
 viewBox="0.00 0.00 764.00 765.00" xmlns="http://www.w3.org/2000/svg" xmlns:xlink="http://www.w3.org/1999/xlink">
<g id="graph0" class="graph" transform="scale(1 1) rotate(0) translate(4 761.28)">
<title>LSExp</title>
<polygon fill="white" stroke="none" points="-4,4 -4,-761.28 760.28,-761.28 760.28,4 -4,4"/>
<!-- start -->
<g id="node1" class="node">
<title>start</title>
<ellipse fill="#e6eefc" stroke="#000000" cx="544.07" cy="-737.84" rx="116.85" ry="19.45"/>
<text xml:space="preserve" text-anchor="middle" x="544.07" y="-734.29" font-family="CMU Serif" font-size="14.00">Начало: fitExponential</text>
</g>
<!-- input -->
<g id="node2" class="node">
<title>input</title>
<polygon fill="#f5f5f5" stroke="#000000" points="713.84,-695.39 443.78,-695.39 374.31,-640.39 644.37,-640.39 713.84,-695.39"/>
<text xml:space="preserve" text-anchor="middle" x="544.07" y="-664.34" font-family="CMU Serif" font-size="14.00">Ввод: x[1..n], y[1..n], n</text>
</g>
<!-- start&#45;&gt;input -->
<g id="edge1" class="edge">
<title>start&#45;&gt;input</title>
<path fill="none" stroke="#000000" d="M544.07,-717.91C544.07,-714.49 544.07,-710.82 544.07,-707.08"/>
<polygon fill="#000000" stroke="#000000" points="547.57,-707.35 544.07,-697.35 540.57,-707.35 547.57,-707.35"/>
</g>
<!-- init -->
<g id="node3" class="node">
<title>init</title>
<polygon fill="#ffffff" stroke="#000000" points="571.07,-617.39 517.07,-617.39 517.07,-581.39 571.07,-581.39 571.07,-617.39"/>
<text xml:space="preserve" text-anchor="start" x="530.2" y="-594.14" font-family="CMU Serif" font-size="14.00">i = 1</text>
</g>
<!-- input&#45;&gt;init -->
<g id="edge2" class="edge">
<title>input&#45;&gt;init</title>
<path fill="none" stroke="#000000" d="M544.07,-640.23C544.07,-636.52 544.07,-632.69 544.07,-628.95"/>
<polygon fill="#000000" stroke="#000000" points="547.57,-629.02 544.07,-619.02 540.57,-629.02 547.57,-629.02"/>
</g>
<!-- chk1 -->
<g id="node4" class="node">
<title>chk1</title>
<polygon fill="#fff7d1" stroke="#000000" points="544.07,-558.39 489.82,-530.89 544.07,-503.39 598.32,-530.89 544.07,-558.39"/>
<text xml:space="preserve" text-anchor="start" x="524.95" y="-525.64" font-family="CMU Serif" font-size="14.00">i ≤ n?</text>
</g>
<!-- init&#45;&gt;chk1 -->
<g id="edge3" class="edge">
<title>init&#45;&gt;chk1</title>
<path fill="none" stroke="#000000" d="M544.07,-580.92C544.07,-577.53 544.07,-573.86 544.07,-570.1"/>
<polygon fill="#000000" stroke="#000000" points="547.57,-570.28 544.07,-560.28 540.57,-570.28 547.57,-570.28"/>
</g>
<!-- chk2 -->
<g id="node5" class="node">
<title>chk2</title>
<polygon fill="#fff7d1" stroke="#000000" points="544.07,-464.14 487.57,-436.64 544.07,-409.14 600.57,-436.64 544.07,-464.14"/>
<text xml:space="preserve" text-anchor="start" x="523.82" y="-434.09" font-family="CMU Serif" font-size="14.00">y</text>
<text xml:space="preserve" text-anchor="start" x="531.32" y="-434.09" font-family="CMU Serif" baseline-shift="sub" font-size="14.00">i</text>
<text xml:space="preserve" text-anchor="start" x="534.32" y="-434.09" font-family="CMU Serif" font-size="14.00"> &gt; 0?</text>
</g>
<!-- chk1&#45;&gt;chk2 -->
<g id="edge4" class="edge">
<title>chk1&#45;&gt;chk2</title>
<path fill="none" stroke="#000000" d="M544.07,-503.21C544.07,-494.68 544.07,-485.06 544.07,-475.87"/>
<polygon fill="#000000" stroke="#000000" points="547.57,-476.1 544.07,-466.1 540.57,-476.1 547.57,-476.1"/>
<text xml:space="preserve" text-anchor="middle" x="551.2" y="-480.99" font-family="CMU Serif" font-size="12.00">да</text>
</g>
<!-- prep -->
<g id="node8" class="node">
<title>prep</title>
<polygon fill="#ffffff" stroke="#000000" points="452.07,-454.64 382.07,-454.64 382.07,-418.64 452.07,-418.64 452.07,-454.64"/>
<text xml:space="preserve" text-anchor="start" x="398.32" y="-438.34" font-family="CMU Serif" font-size="14.00">X</text>
<text xml:space="preserve" text-anchor="start" x="406.57" y="-438.34" font-family="CMU Serif" baseline-shift="sub" font-size="14.00">i</text>
<text xml:space="preserve" text-anchor="start" x="409.57" y="-438.34" font-family="CMU Serif" font-size="14.00"> = x</text>
<text xml:space="preserve" text-anchor="start" x="432.82" y="-438.34" font-family="CMU Serif" baseline-shift="sub" font-size="14.00">i</text>
<text xml:space="preserve" text-anchor="start" x="390.07" y="-424.34" font-family="CMU Serif" font-size="14.00">Y</text>
<text xml:space="preserve" text-anchor="start" x="398.32" y="-424.34" font-family="CMU Serif" baseline-shift="sub" font-size="14.00">i</text>
<text xml:space="preserve" text-anchor="start" x="401.32" y="-424.34" font-family="CMU Serif" font-size="14.00"> = ln y</text>
<text xml:space="preserve" text-anchor="start" x="441.07" y="-424.34" font-family="CMU Serif" baseline-shift="sub" font-size="14.00">i</text>
</g>
<!-- chk1&#45;&gt;prep -->
<g id="edge9" class="edge">
<title>chk1&#45;&gt;prep</title>
<path fill="none" stroke="#000000" d="M522.24,-514.03C502.38,-499.61 472.79,-478.11 450.05,-461.6"/>
<polygon fill="#000000" stroke="#000000" points="452.15,-458.79 442,-455.75 448.03,-464.46 452.15,-458.79"/>
<text xml:space="preserve" text-anchor="middle" x="501.7" y="-480.99" font-family="CMU Serif" font-size="12.00">нет</text>
</g>
<!-- rej -->
<g id="node6" class="node">
<title>rej</title>
<polygon fill="#fde2e2" stroke="#000000" points="756.28,-311.89 455.29,-311.89 377.87,-256.89 678.85,-256.89 756.28,-311.89"/>
<text xml:space="preserve" text-anchor="start" x="483.82" y="-281.84" font-family="CMU Serif" font-size="14.00">Статус «Требуется y</text>
<text xml:space="preserve" text-anchor="start" x="615.82" y="-281.84" font-family="CMU Serif" baseline-shift="sub" font-size="14.00">i</text>
<text xml:space="preserve" text-anchor="start" x="618.82" y="-281.84" font-family="CMU Serif" font-size="14.00"> &gt; 0»</text>
</g>
<!-- chk2&#45;&gt;rej -->
<g id="edge6" class="edge">
<title>chk2&#45;&gt;rej</title>
<path fill="none" stroke="#000000" d="M547.92,-410.49C551.57,-386.66 557.1,-350.55 561.28,-323.25"/>
<polygon fill="#000000" stroke="#000000" points="564.7,-324.05 562.75,-313.64 557.78,-322.99 564.7,-324.05"/>
<text xml:space="preserve" text-anchor="middle" x="561.92" y="-386.74" font-family="CMU Serif" font-size="12.00">нет</text>
</g>
<!-- next -->
<g id="node7" class="node">
<title>next</title>
<polygon fill="#ffffff" stroke="#000000" points="650.7,-364.39 587.45,-364.39 587.45,-328.39 650.7,-328.39 650.7,-364.39"/>
<text xml:space="preserve" text-anchor="start" x="595.45" y="-341.14" font-family="CMU Serif" font-size="14.00">i = i + 1</text>
</g>
<!-- chk2&#45;&gt;next -->
<g id="edge5" class="edge">
<title>chk2&#45;&gt;next</title>
<path fill="none" stroke="#000000" d="M559.98,-416.93C570.7,-404.31 585,-387.49 596.84,-373.55"/>
<polygon fill="#000000" stroke="#000000" points="599.42,-375.92 603.23,-366.03 594.09,-371.39 599.42,-375.92"/>
<text xml:space="preserve" text-anchor="middle" x="597.62" y="-386.74" font-family="CMU Serif" font-size="12.00">да</text>
</g>
<!-- stop -->
<g id="node13" class="node">
<title>stop</title>
<ellipse fill="#e6eefc" stroke="#000000" cx="419.07" cy="-19.45" rx="39.95" ry="19.45"/>
<text xml:space="preserve" text-anchor="middle" x="419.07" y="-15.9" font-family="CMU Serif" font-size="14.00">Конец</text>
</g>
<!-- rej&#45;&gt;stop -->
<g id="edge7" class="edge">
<title>rej&#45;&gt;stop</title>
<path fill="none" stroke="#000000" d="M567.36,-256.53C567.65,-228.29 568.07,-187.89 568.07,-187.89 568.07,-187.89 568.07,-187.89 568.07,-88.39 568.07,-88.39 549.07,-61.89 549.07,-61.89 549.07,-61.89 500.46,-46.39 462.69,-34.35"/>
<polygon fill="#000000" stroke="#000000" points="463.91,-31.07 453.32,-31.36 461.79,-37.74 463.91,-31.07"/>
</g>
<!-- next&#45;&gt;chk1 -->
<g id="edge8" class="edge">
<title>next&#45;&gt;chk1</title>
<path fill="none" stroke="#000000" d="M617.73,-364.87C615.22,-397.44 610.07,-464.14 610.07,-464.14 610.07,-464.14 588.25,-485.88 569.7,-504.36"/>
<polygon fill="#000000" stroke="#000000" points="567.45,-501.67 562.83,-511.2 572.39,-506.62 567.45,-501.67"/>
</g>
<!-- reg -->
<g id="node9" class="node">
<title>reg</title>
<polygon fill="#eef2ff" stroke="#000000" points="502.2,-369.89 285.95,-369.89 285.95,-322.89 502.2,-322.89 502.2,-369.89"/>
<text xml:space="preserve" text-anchor="start" x="293.95" y="-350.89" font-family="CMU Serif" font-size="14.00">Линейная регрессия по (X, Y):</text>
<text xml:space="preserve" text-anchor="start" x="347.57" y="-331.39" font-family="CMU Serif" font-size="14.00">получить A, B</text>
</g>
<!-- prep&#45;&gt;reg -->
<g id="edge10" class="edge">
<title>prep&#45;&gt;reg</title>
<path fill="none" stroke="#000000" d="M412.53,-418.21C409.78,-407.67 406.19,-393.88 402.9,-381.27"/>
<polygon fill="#000000" stroke="#000000" points="406.3,-380.41 400.39,-371.61 399.52,-382.17 406.3,-380.41"/>
</g>
<!-- back -->
<g id="node10" class="node">
<title>back</title>
<polygon fill="#ffffff" stroke="#000000" points="398.32,-245.89 317.82,-245.89 317.82,-198.89 398.32,-198.89 398.32,-245.89"/>
<text xml:space="preserve" text-anchor="start" x="325.82" y="-226.89" font-family="CMU Serif" font-size="14.00">a = exp(A)</text>
<text xml:space="preserve" text-anchor="start" x="341.57" y="-207.39" font-family="CMU Serif" font-size="14.00">b = B</text>
</g>
<!-- reg&#45;&gt;back -->
<g id="edge11" class="edge">
<title>reg&#45;&gt;back</title>
<path fill="none" stroke="#000000" d="M380.4,-322.49C376.89,-316.6 374.07,-311.89 374.07,-311.89 374.07,-311.89 368.71,-282.2 364.19,-257.21"/>
<polygon fill="#000000" stroke="#000000" points="367.69,-256.89 362.46,-247.67 360.8,-258.13 367.69,-256.89"/>
</g>
<!-- stats -->
<g id="node11" class="node">
<title>stats</title>
<polygon fill="#eef2ff" stroke="#000000" points="404.07,-175.89 172.07,-175.89 172.07,-139.89 404.07,-139.89 404.07,-175.89"/>
<text xml:space="preserve" text-anchor="middle" x="288.07" y="-154.34" font-family="CMU Serif" font-size="14.00">Вызов fillResidualsAndStats(a, b)</text>
</g>
<!-- back&#45;&gt;stats -->
<g id="edge12" class="edge">
<title>back&#45;&gt;stats</title>
<path fill="none" stroke="#000000" d="M332.41,-198.47C326.98,-193.63 321.23,-188.49 315.73,-183.58"/>
<polygon fill="#000000" stroke="#000000" points="318.3,-181.18 308.51,-177.13 313.64,-186.41 318.3,-181.18"/>
</g>
<!-- output -->
<g id="node12" class="node">
<title>output</title>
<polygon fill="#dcfce7" stroke="#000000" points="540.15,-116.89 110.52,-116.89 0,-61.89 429.63,-61.89 540.15,-116.89"/>
<text xml:space="preserve" text-anchor="start" x="147.82" y="-84.14" font-family="CMU Serif" font-size="14.00">Вывод: a, b, S, δ, R² (φ = a · exp(b · x))</text>
</g>
<!-- stats&#45;&gt;output -->
<g id="edge13" class="edge">
<title>stats&#45;&gt;output</title>
<path fill="none" stroke="#000000" d="M283.34,-139.42C282.4,-135.93 281.37,-132.13 280.32,-128.25"/>
<polygon fill="#000000" stroke="#000000" points="283.74,-127.47 277.75,-118.73 276.98,-129.3 283.74,-127.47"/>
</g>
<!-- output&#45;&gt;stop -->
<g id="edge14" class="edge">
<title>output&#45;&gt;stop</title>
<path fill="none" stroke="#000000" d="M328.96,-61.54C346.15,-53.7 364.49,-45.34 380.11,-38.21"/>
<polygon fill="#000000" stroke="#000000" points="381.42,-41.46 389.07,-34.13 378.52,-35.09 381.42,-41.46"/>
</g>
</g>
</svg>
