<?xml version="1.0" encoding="UTF-8" standalone="no"?>
<!DOCTYPE svg PUBLIC "-//W3C//DTD SVG 1.1//EN"
 "http://www.w3.org/Graphics/SVG/1.1/DTD/svg11.dtd">
<!-- Generated by graphviz version 14.1.5 (0)
 -->
<!-- Title: LSLog Pages: 1 -->
<svg width="748pt" height="695pt"
 viewBox="0.00 0.00 748.00 695.00" xmlns="http://www.w3.org/2000/svg" xmlns:xlink="http://www.w3.org/1999/xlink">
<g id="graph0" class="graph" transform="scale(1 1) rotate(0) translate(4 691.28)">
<title>LSLog</title>
<polygon fill="white" stroke="none" points="-4,4 -4,-691.28 744.06,-691.28 744.06,4 -4,4"/>
<!-- start -->
<g id="node1" class="node">
<title>start</title>
<ellipse fill="#e6eefc" stroke="#000000" cx="523.85" cy="-667.84" rx="117.38" ry="19.45"/>
<text xml:space="preserve" text-anchor="middle" x="523.85" y="-664.29" font-family="CMU Serif" font-size="14.00">Начало: fitLogarithmic</text>
</g>
<!-- input -->
<g id="node2" class="node">
<title>input</title>
<polygon fill="#f5f5f5" stroke="#000000" points="693.62,-625.39 423.56,-625.39 354.09,-570.39 624.15,-570.39 693.62,-625.39"/>
<text xml:space="preserve" text-anchor="middle" x="523.85" y="-594.34" font-family="CMU Serif" font-size="14.00">Ввод: x[1..n], y[1..n], n</text>
</g>
<!-- start&#45;&gt;input -->
<g id="edge1" class="edge">
<title>start&#45;&gt;input</title>
<path fill="none" stroke="#000000" d="M523.85,-647.91C523.85,-644.49 523.85,-640.82 523.85,-637.08"/>
<polygon fill="#000000" stroke="#000000" points="527.35,-637.35 523.85,-627.35 520.35,-637.35 527.35,-637.35"/>
</g>
<!-- init -->
<g id="node3" class="node">
<title>init</title>
<polygon fill="#ffffff" stroke="#000000" points="550.85,-547.39 496.85,-547.39 496.85,-511.39 550.85,-511.39 550.85,-547.39"/>
<text xml:space="preserve" text-anchor="start" x="509.98" y="-524.14" font-family="CMU Serif" font-size="14.00">i = 1</text>
</g>
<!-- input&#45;&gt;init -->
<g id="edge2" class="edge">
<title>input&#45;&gt;init</title>
<path fill="none" stroke="#000000" d="M523.85,-570.23C523.85,-566.52 523.85,-562.69 523.85,-558.95"/>
<polygon fill="#000000" stroke="#000000" points="527.35,-559.02 523.85,-549.02 520.35,-559.02 527.35,-559.02"/>
</g>
<!-- chk1 -->
<g id="node4" class="node">
<title>chk1</title>
<polygon fill="#fff7d1" stroke="#000000" points="523.85,-488.39 469.6,-460.89 523.85,-433.39 578.1,-460.89 523.85,-488.39"/>
<text xml:space="preserve" text-anchor="start" x="504.73" y="-455.64" font-family="CMU Serif" font-size="14.00">i ≤ n?</text>
</g>
<!-- init&#45;&gt;chk1 -->
<g id="edge3" class="edge">
<title>init&#45;&gt;chk1</title>
<path fill="none" stroke="#000000" d="M523.85,-510.92C523.85,-507.53 523.85,-503.86 523.85,-500.1"/>
<polygon fill="#000000" stroke="#000000" points="527.35,-500.28 523.85,-490.28 520.35,-500.28 527.35,-500.28"/>
</g>
<!-- chk2 -->
<g id="node5" class="node">
<title>chk2</title>
<polygon fill="#fff7d1" stroke="#000000" points="523.85,-394.14 467.35,-366.64 523.85,-339.14 580.35,-366.64 523.85,-394.14"/>
<text xml:space="preserve" text-anchor="start" x="503.6" y="-364.09" font-family="CMU Serif" font-size="14.00">x</text>
<text xml:space="preserve" text-anchor="start" x="511.1" y="-364.09" font-family="CMU Serif" baseline-shift="sub" font-size="14.00">i</text>
<text xml:space="preserve" text-anchor="start" x="514.1" y="-364.09" font-family="CMU Serif" font-size="14.00"> &gt; 0?</text>
</g>
<!-- chk1&#45;&gt;chk2 -->
<g id="edge4" class="edge">
<title>chk1&#45;&gt;chk2</title>
<path fill="none" stroke="#000000" d="M523.85,-433.21C523.85,-424.68 523.85,-415.06 523.85,-405.87"/>
<polygon fill="#000000" stroke="#000000" points="527.35,-406.1 523.85,-396.1 520.35,-406.1 527.35,-406.1"/>
<text xml:space="preserve" text-anchor="middle" x="530.98" y="-410.99" font-family="CMU Serif" font-size="12.00">да</text>
</g>
<!-- prep -->
<g id="node8" class="node">
<title>prep</title>
<polygon fill="#ffffff" stroke="#000000" points="429.85,-384.64 359.85,-384.64 359.85,-348.64 429.85,-348.64 429.85,-384.64"/>
<text xml:space="preserve" text-anchor="start" x="367.85" y="-368.34" font-family="CMU Serif" font-size="14.00">X</text>
<text xml:space="preserve" text-anchor="start" x="376.1" y="-368.34" font-family="CMU Serif" baseline-shift="sub" font-size="14.00">i</text>
<text xml:space="preserve" text-anchor="start" x="379.1" y="-368.34" font-family="CMU Serif" font-size="14.00"> = ln x</text>
<text xml:space="preserve" text-anchor="start" x="418.85" y="-368.34" font-family="CMU Serif" baseline-shift="sub" font-size="14.00">i</text>
<text xml:space="preserve" text-anchor="start" x="376.1" y="-354.34" font-family="CMU Serif" font-size="14.00">Y</text>
<text xml:space="preserve" text-anchor="start" x="384.35" y="-354.34" font-family="CMU Serif" baseline-shift="sub" font-size="14.00">i</text>
<text xml:space="preserve" text-anchor="start" x="387.35" y="-354.34" font-family="CMU Serif" font-size="14.00"> = y</text>
<text xml:space="preserve" text-anchor="start" x="410.6" y="-354.34" font-family="CMU Serif" baseline-shift="sub" font-size="14.00">i</text>
</g>
<!-- chk1&#45;&gt;prep -->
<g id="edge9" class="edge">
<title>chk1&#45;&gt;prep</title>
<path fill="none" stroke="#000000" d="M501.97,-444.24C481.75,-429.78 451.43,-408.1 428.19,-391.48"/>
<polygon fill="#000000" stroke="#000000" points="430.44,-388.79 420.27,-385.82 426.37,-394.48 430.44,-388.79"/>
<text xml:space="preserve" text-anchor="middle" x="480.66" y="-410.99" font-family="CMU Serif" font-size="12.00">нет</text>
</g>
<!-- rej -->
<g id="node6" class="node">
<title>rej</title>
<polygon fill="#fde2e2" stroke="#000000" points="740.06,-241.89 439.07,-241.89 361.65,-186.89 662.63,-186.89 740.06,-241.89"/>
<text xml:space="preserve" text-anchor="start" x="467.6" y="-211.84" font-family="CMU Serif" font-size="14.00">Статус «Требуется x</text>
<text xml:space="preserve" text-anchor="start" x="599.6" y="-211.84" font-family="CMU Serif" baseline-shift="sub" font-size="14.00">i</text>
<text xml:space="preserve" text-anchor="start" x="602.6" y="-211.84" font-family="CMU Serif" font-size="14.00"> &gt; 0»</text>
</g>
<!-- chk2&#45;&gt;rej -->
<g id="edge6" class="edge">
<title>chk2&#45;&gt;rej</title>
<path fill="none" stroke="#000000" d="M528.16,-340.83C530.67,-326.34 533.35,-310.89 533.35,-310.89 533.35,-310.89 539.02,-279.96 543.91,-253.31"/>
<polygon fill="#000000" stroke="#000000" points="547.3,-254.2 545.66,-243.74 540.41,-252.94 547.3,-254.2"/>
<text xml:space="preserve" text-anchor="middle" x="543.1" y="-316.74" font-family="CMU Serif" font-size="12.00">нет</text>
</g>
<!-- next -->
<g id="node7" class="node">
<title>next</title>
<polygon fill="#ffffff" stroke="#000000" points="630.48,-294.39 567.23,-294.39 567.23,-258.39 630.48,-258.39 630.48,-294.39"/>
<text xml:space="preserve" text-anchor="start" x="575.23" y="-271.14" font-family="CMU Serif" font-size="14.00">i = i + 1</text>
</g>
<!-- chk2&#45;&gt;next -->
<g id="edge5" class="edge">
<title>chk2&#45;&gt;next</title>
<path fill="none" stroke="#000000" d="M539.76,-346.93C550.48,-334.31 564.78,-317.49 576.62,-303.55"/>
<polygon fill="#000000" stroke="#000000" points="579.2,-305.92 583.01,-296.03 573.87,-301.39 579.2,-305.92"/>
<text xml:space="preserve" text-anchor="middle" x="577.4" y="-316.74" font-family="CMU Serif" font-size="12.00">да</text>
</g>
<!-- stop -->
<g id="node12" class="node">
<title>stop</title>
<ellipse fill="#e6eefc" stroke="#000000" cx="409.85" cy="-19.45" rx="39.95" ry="19.45"/>
<text xml:space="preserve" text-anchor="middle" x="409.85" y="-15.9" font-family="CMU Serif" font-size="14.00">Конец</text>
</g>
<!-- rej&#45;&gt;stop -->
<g id="edge7" class="edge">
<title>rej&#45;&gt;stop</title>
<path fill="none" stroke="#000000" d="M548.38,-186.65C544.36,-143.16 536.85,-61.89 536.85,-61.89 536.85,-61.89 489.91,-46.57 453.11,-34.56"/>
<polygon fill="#000000" stroke="#000000" points="454.59,-31.36 444,-31.59 452.42,-38.02 454.59,-31.36"/>
</g>
<!-- next&#45;&gt;chk1 -->
<g id="edge8" class="edge">
<title>next&#45;&gt;chk1</title>
<path fill="none" stroke="#000000" d="M597.51,-294.87C595,-327.44 589.85,-394.14 589.85,-394.14 589.85,-394.14 568.03,-415.88 549.48,-434.36"/>
<polygon fill="#000000" stroke="#000000" points="547.23,-431.67 542.61,-441.2 552.17,-436.62 547.23,-431.67"/>
</g>
<!-- reg -->
<g id="node9" class="node">
<title>reg</title>
<polygon fill="#eef2ff" stroke="#000000" points="477.98,-299.89 261.73,-299.89 261.73,-252.89 477.98,-252.89 477.98,-299.89"/>
<text xml:space="preserve" text-anchor="start" x="269.73" y="-280.89" font-family="CMU Serif" font-size="14.00">Линейная регрессия по (X, Y):</text>
<text xml:space="preserve" text-anchor="start" x="324.48" y="-261.39" font-family="CMU Serif" font-size="14.00">получить a, b</text>
</g>
<!-- prep&#45;&gt;reg -->
<g id="edge10" class="edge">
<title>prep&#45;&gt;reg</title>
<path fill="none" stroke="#000000" d="M389.91,-348.21C386.9,-337.56 382.94,-323.6 379.34,-310.88"/>
<polygon fill="#000000" stroke="#000000" points="382.81,-310.27 376.71,-301.6 376.07,-312.18 382.81,-310.27"/>
</g>
<!-- stats -->
<g id="node10" class="node">
<title>stats</title>
<polygon fill="#eef2ff" stroke="#000000" points="445.85,-175.89 213.85,-175.89 213.85,-139.89 445.85,-139.89 445.85,-175.89"/>
<text xml:space="preserve" text-anchor="middle" x="329.85" y="-154.34" font-family="CMU Serif" font-size="14.00">Вызов fillResidualsAndStats(a, b)</text>
</g>
<!-- reg&#45;&gt;stats -->
<g id="edge11" class="edge">
<title>reg&#45;&gt;stats</title>
<path fill="none" stroke="#000000" d="M358.23,-252.49C355.24,-246.6 352.85,-241.89 352.85,-241.89 352.85,-241.89 344.29,-210.97 337.61,-186.87"/>
<polygon fill="#000000" stroke="#000000" points="341.07,-186.25 335.02,-177.55 334.32,-188.12 341.07,-186.25"/>
</g>
<!-- output -->
<g id="node11" class="node">
<title>output</title>
<polygon fill="#dcfce7" stroke="#000000" points="527.71,-116.89 107.98,-116.89 0,-61.89 419.73,-61.89 527.71,-116.89"/>
<text xml:space="preserve" text-anchor="start" x="144.6" y="-84.14" font-family="CMU Serif" font-size="14.00">Вывод: a, b, S, δ, R² (φ = a · ln(x) + b)</text>
</g>
<!-- stats&#45;&gt;output -->
<g id="edge12" class="edge">
<title>stats&#45;&gt;output</title>
<path fill="none" stroke="#000000" d="M312.51,-139.42C308.21,-135.08 303.44,-130.27 298.62,-125.42"/>
<polygon fill="#000000" stroke="#000000" points="301.13,-122.98 291.6,-118.35 296.16,-127.91 301.13,-122.98"/>
</g>
<!-- output&#45;&gt;stop -->
<g id="edge13" class="edge">
<title>output&#45;&gt;stop</title>
<path fill="none" stroke="#000000" d="M321.56,-61.54C338.39,-53.7 356.37,-45.34 371.68,-38.21"/>
<polygon fill="#000000" stroke="#000000" points="372.84,-41.53 380.43,-34.14 369.89,-35.19 372.84,-41.53"/>
</g>
</g>
</svg>
