<?xml version="1.0" encoding="UTF-8" standalone="no"?>
<!DOCTYPE svg PUBLIC "-//W3C//DTD SVG 1.1//EN"
 "http://www.w3.org/Graphics/SVG/1.1/DTD/svg11.dtd">
<!-- Generated by graphviz version 14.1.5 (0)
 -->
<!-- Title: LSLinear Pages: 1 -->
<svg width="623pt" height="942pt"
 viewBox="0.00 0.00 623.00 942.00" xmlns="http://www.w3.org/2000/svg" xmlns:xlink="http://www.w3.org/1999/xlink">
<g id="graph0" class="graph" transform="scale(1 1) rotate(0) translate(4 937.78)">
<title>LSLinear</title>
<polygon fill="white" stroke="none" points="-4,4 -4,-937.78 618.54,-937.78 618.54,4 -4,4"/>
<!-- start -->
<g id="node1" class="node">
<title>start</title>
<ellipse fill="#e6eefc" stroke="#000000" cx="169.77" cy="-914.34" rx="91.39" ry="19.45"/>
<text xml:space="preserve" text-anchor="middle" x="169.77" y="-910.79" font-family="CMU Serif" font-size="14.00">Начало: fitLinear</text>
</g>
<!-- input -->
<g id="node2" class="node">
<title>input</title>
<polygon fill="#f5f5f5" stroke="#000000" points="339.54,-871.89 69.47,-871.89 0,-816.89 270.06,-816.89 339.54,-871.89"/>
<text xml:space="preserve" text-anchor="middle" x="169.77" y="-840.84" font-family="CMU Serif" font-size="14.00">Ввод: x[1..n], y[1..n], n</text>
</g>
<!-- start&#45;&gt;input -->
<g id="edge1" class="edge">
<title>start&#45;&gt;input</title>
<path fill="none" stroke="#000000" d="M169.77,-894.41C169.77,-890.99 169.77,-887.32 169.77,-883.58"/>
<polygon fill="#000000" stroke="#000000" points="173.27,-883.85 169.77,-873.85 166.27,-883.85 173.27,-883.85"/>
</g>
<!-- zero -->
<g id="node3" class="node">
<title>zero</title>
<polygon fill="#ffffff" stroke="#000000" points="201.77,-793.89 137.77,-793.89 137.77,-688.39 201.77,-688.39 201.77,-793.89"/>
<text xml:space="preserve" text-anchor="start" x="149.89" y="-774.89" font-family="CMU Serif" font-size="14.00">SX = 0</text>
<text xml:space="preserve" text-anchor="start" x="145.77" y="-755.39" font-family="CMU Serif" font-size="14.00">SXX = 0</text>
<text xml:space="preserve" text-anchor="start" x="149.89" y="-735.89" font-family="CMU Serif" font-size="14.00">SY = 0</text>
<text xml:space="preserve" text-anchor="start" x="145.77" y="-716.39" font-family="CMU Serif" font-size="14.00">SXY = 0</text>
<text xml:space="preserve" text-anchor="start" x="155.89" y="-696.89" font-family="CMU Serif" font-size="14.00">i = 1</text>
</g>
<!-- input&#45;&gt;zero -->
<g id="edge2" class="edge">
<title>input&#45;&gt;zero</title>
<path fill="none" stroke="#000000" d="M169.77,-816.52C169.77,-813.07 169.77,-809.42 169.77,-805.67"/>
<polygon fill="#000000" stroke="#000000" points="173.27,-805.72 169.77,-795.72 166.27,-805.72 173.27,-805.72"/>
</g>
<!-- loop -->
<g id="node4" class="node">
<title>loop</title>
<polygon fill="#fff7d1" stroke="#000000" points="169.77,-665.39 115.52,-637.89 169.77,-610.39 224.02,-637.89 169.77,-665.39"/>
<text xml:space="preserve" text-anchor="start" x="150.64" y="-632.64" font-family="CMU Serif" font-size="14.00">i ≤ n?</text>
</g>
<!-- zero&#45;&gt;loop -->
<g id="edge3" class="edge">
<title>zero&#45;&gt;loop</title>
<path fill="none" stroke="#000000" d="M169.77,-688.03C169.77,-684.44 169.77,-680.87 169.77,-677.37"/>
<polygon fill="#000000" stroke="#000000" points="173.27,-677.42 169.77,-667.42 166.27,-677.42 173.27,-677.42"/>
</g>
<!-- body -->
<g id="node5" class="node">
<title>body</title>
<polygon fill="#ffffff" stroke="#000000" points="204.64,-571.14 76.89,-571.14 76.89,-493.14 204.64,-493.14 204.64,-571.14"/>
<text xml:space="preserve" text-anchor="start" x="104.02" y="-554.84" font-family="CMU Serif" font-size="14.00">SX = SX + x</text>
<text xml:space="preserve" text-anchor="start" x="174.52" y="-554.84" font-family="CMU Serif" baseline-shift="sub" font-size="14.00">i</text>
<text xml:space="preserve" text-anchor="start" x="84.89" y="-540.84" font-family="CMU Serif" font-size="14.00">SXX = SXX + x</text>
<text xml:space="preserve" text-anchor="start" x="171.89" y="-540.84" font-family="CMU Serif" baseline-shift="sub" font-size="14.00">i</text>
<text xml:space="preserve" text-anchor="start" x="174.89" y="-540.84" font-family="CMU Serif" font-size="14.00"> · x</text>
<text xml:space="preserve" text-anchor="start" x="193.64" y="-540.84" font-family="CMU Serif" baseline-shift="sub" font-size="14.00">i</text>
<text xml:space="preserve" text-anchor="start" x="104.02" y="-526.84" font-family="CMU Serif" font-size="14.00">SY = SY + y</text>
<text xml:space="preserve" text-anchor="start" x="174.52" y="-526.84" font-family="CMU Serif" baseline-shift="sub" font-size="14.00">i</text>
<text xml:space="preserve" text-anchor="start" x="84.89" y="-512.84" font-family="CMU Serif" font-size="14.00">SXY = SXY + x</text>
<text xml:space="preserve" text-anchor="start" x="171.89" y="-512.84" font-family="CMU Serif" baseline-shift="sub" font-size="14.00">i</text>
<text xml:space="preserve" text-anchor="start" x="174.89" y="-512.84" font-family="CMU Serif" font-size="14.00"> · y</text>
<text xml:space="preserve" text-anchor="start" x="193.64" y="-512.84" font-family="CMU Serif" baseline-shift="sub" font-size="14.00">i</text>
<text xml:space="preserve" text-anchor="start" x="117.14" y="-498.84" font-family="CMU Serif" font-size="14.00">i = i + 1</text>
</g>
<!-- loop&#45;&gt;body -->
<g id="edge4" class="edge">
<title>loop&#45;&gt;body</title>
<path fill="none" stroke="#000000" d="M155.31,-617.7C148.36,-608.48 141.52,-599.39 141.52,-599.39 141.52,-599.39 141.44,-592.18 141.33,-582.52"/>
<polygon fill="#000000" stroke="#000000" points="144.83,-582.77 141.22,-572.81 137.83,-582.85 144.83,-582.77"/>
<text xml:space="preserve" text-anchor="middle" x="148.64" y="-587.99" font-family="CMU Serif" font-size="12.00">да</text>
</g>
<!-- det -->
<g id="node6" class="node">
<title>det</title>
<polygon fill="#ffffff" stroke="#000000" points="366.52,-550.14 223.02,-550.14 223.02,-514.14 366.52,-514.14 366.52,-550.14"/>
<text xml:space="preserve" text-anchor="start" x="231.02" y="-526.89" font-family="CMU Serif" font-size="14.00">Δ = SXX · n − SX · SX</text>
</g>
<!-- loop&#45;&gt;det -->
<g id="edge6" class="edge">
<title>loop&#45;&gt;det</title>
<path fill="none" stroke="#000000" d="M189.85,-620.22C210.2,-603.33 241.91,-577.01 265.14,-557.73"/>
<polygon fill="#000000" stroke="#000000" points="267.28,-560.51 272.74,-551.43 262.81,-555.12 267.28,-560.51"/>
<text xml:space="preserve" text-anchor="middle" x="242.02" y="-587.99" font-family="CMU Serif" font-size="12.00">нет</text>
</g>
<!-- body&#45;&gt;loop -->
<g id="edge5" class="edge">
<title>body&#45;&gt;loop</title>
<path fill="none" stroke="#000000" d="M152.44,-571.27C154.38,-577.59 155.77,-582.14 155.77,-582.14 155.77,-582.14 158.09,-591.22 160.84,-601.98"/>
<polygon fill="#000000" stroke="#000000" points="157.43,-602.75 163.29,-611.57 164.21,-601.01 157.43,-602.75"/>
</g>
<!-- check -->
<g id="node7" class="node">
<title>check</title>
<polygon fill="#fff7d1" stroke="#000000" points="294.77,-470.14 226.27,-442.64 294.77,-415.14 363.27,-442.64 294.77,-470.14"/>
<text xml:space="preserve" text-anchor="start" x="268.52" y="-437.39" font-family="CMU Serif" font-size="14.00">|Δ| &lt; ε?</text>
</g>
<!-- det&#45;&gt;check -->
<g id="edge7" class="edge">
<title>det&#45;&gt;check</title>
<path fill="none" stroke="#000000" d="M294.77,-513.85C294.77,-504.69 294.77,-493.04 294.77,-481.87"/>
<polygon fill="#000000" stroke="#000000" points="298.27,-482.05 294.77,-472.05 291.27,-482.05 298.27,-482.05"/>
</g>
<!-- degen -->
<g id="node8" class="node">
<title>degen</title>
<polygon fill="#fde2e2" stroke="#000000" points="374.22,-300.89 219.19,-300.89 179.31,-245.89 334.34,-245.89 374.22,-300.89"/>
<text xml:space="preserve" text-anchor="middle" x="276.77" y="-269.84" font-family="CMU Serif" font-size="14.00">Вырождена</text>
</g>
<!-- check&#45;&gt;degen -->
<g id="edge8" class="edge">
<title>check&#45;&gt;degen</title>
<path fill="none" stroke="#000000" d="M292,-415.87C289.02,-388.21 284.26,-343.97 280.85,-312.33"/>
<polygon fill="#000000" stroke="#000000" points="284.38,-312.37 279.83,-302.8 277.42,-313.12 284.38,-312.37"/>
<text xml:space="preserve" text-anchor="middle" x="297.68" y="-392.74" font-family="CMU Serif" font-size="12.00">да</text>
</g>
<!-- cramer -->
<g id="node9" class="node">
<title>cramer</title>
<polygon fill="#ffffff" stroke="#000000" points="470.39,-375.89 305.14,-375.89 305.14,-311.89 470.39,-311.89 470.39,-375.89"/>
<text xml:space="preserve" text-anchor="start" x="320.64" y="-359.59" font-family="CMU Serif" font-size="14.00">Δ</text>
<text xml:space="preserve" text-anchor="start" x="329.64" y="-359.59" font-family="CMU Serif" baseline-shift="sub" font-size="14.00">1</text>
<text xml:space="preserve" text-anchor="start" x="336.39" y="-359.59" font-family="CMU Serif" font-size="14.00"> = SXY · n − SX · SY</text>
<text xml:space="preserve" text-anchor="start" x="313.14" y="-345.59" font-family="CMU Serif" font-size="14.00">Δ</text>
<text xml:space="preserve" text-anchor="start" x="322.14" y="-345.59" font-family="CMU Serif" baseline-shift="sub" font-size="14.00">2</text>
<text xml:space="preserve" text-anchor="start" x="328.89" y="-345.59" font-family="CMU Serif" font-size="14.00"> = SXX · SY − SX · SXY</text>
<text xml:space="preserve" text-anchor="start" x="357.39" y="-331.59" font-family="CMU Serif" font-size="14.00">a = Δ</text>
<text xml:space="preserve" text-anchor="start" x="389.64" y="-331.59" font-family="CMU Serif" baseline-shift="sub" font-size="14.00">1</text>
<text xml:space="preserve" text-anchor="start" x="396.39" y="-331.59" font-family="CMU Serif" font-size="14.00"> / Δ</text>
<text xml:space="preserve" text-anchor="start" x="357.02" y="-317.59" font-family="CMU Serif" font-size="14.00">b = Δ</text>
<text xml:space="preserve" text-anchor="start" x="390.02" y="-317.59" font-family="CMU Serif" baseline-shift="sub" font-size="14.00">2</text>
<text xml:space="preserve" text-anchor="start" x="396.77" y="-317.59" font-family="CMU Serif" font-size="14.00"> / Δ</text>
</g>
<!-- check&#45;&gt;cramer -->
<g id="edge10" class="edge">
<title>check&#45;&gt;cramer</title>
<path fill="none" stroke="#000000" d="M313.14,-422.53C323.66,-411.58 337.26,-397.43 349.96,-384.22"/>
<polygon fill="#000000" stroke="#000000" points="352.26,-386.88 356.67,-377.24 347.22,-382.03 352.26,-386.88"/>
<text xml:space="preserve" text-anchor="middle" x="356.59" y="-392.74" font-family="CMU Serif" font-size="12.00">нет</text>
</g>
<!-- stop -->
<g id="node13" class="node">
<title>stop</title>
<ellipse fill="#e6eefc" stroke="#000000" cx="272.77" cy="-19.45" rx="39.95" ry="19.45"/>
<text xml:space="preserve" text-anchor="middle" x="272.77" y="-15.9" font-family="CMU Serif" font-size="14.00">Конец</text>
</g>
<!-- degen&#45;&gt;stop -->
<g id="edge9" class="edge">
<title>degen&#45;&gt;stop</title>
<path fill="none" stroke="#000000" d="M271.71,-245.65C267.02,-220.9 260.77,-187.89 260.77,-187.89 260.77,-187.89 260.77,-187.89 260.77,-88.39 260.77,-88.39 264.28,-68.51 267.5,-50.26"/>
<polygon fill="#000000" stroke="#000000" points="270.93,-50.96 269.23,-40.5 264.04,-49.74 270.93,-50.96"/>
</g>
<!-- stats -->
<g id="node10" class="node">
<title>stats</title>
<polygon fill="#eef2ff" stroke="#000000" points="543.77,-234.89 311.77,-234.89 311.77,-198.89 543.77,-198.89 543.77,-234.89"/>
<text xml:space="preserve" text-anchor="middle" x="427.77" y="-213.34" font-family="CMU Serif" font-size="14.00">Вызов fillResidualsAndStats(a, b)</text>
</g>
<!-- cramer&#45;&gt;stats -->
<g id="edge11" class="edge">
<title>cramer&#45;&gt;stats</title>
<path fill="none" stroke="#000000" d="M397.76,-311.67C404.19,-291.57 412.48,-265.67 418.72,-246.18"/>
<polygon fill="#000000" stroke="#000000" points="422.04,-247.29 421.75,-236.7 415.37,-245.16 422.04,-247.29"/>
</g>
<!-- pear -->
<g id="node11" class="node">
<title>pear</title>
<polygon fill="#ffffff" stroke="#000000" points="507.39,-175.89 384.14,-175.89 384.14,-139.89 507.39,-139.89 507.39,-175.89"/>
<text xml:space="preserve" text-anchor="start" x="392.14" y="-152.64" font-family="CMU Serif" font-size="14.00">r = Pearson(x, y)</text>
</g>
<!-- stats&#45;&gt;pear -->
<g id="edge12" class="edge">
<title>stats&#45;&gt;pear</title>
<path fill="none" stroke="#000000" d="M433.27,-198.48C434.42,-194.83 435.66,-190.9 436.9,-186.98"/>
<polygon fill="#000000" stroke="#000000" points="440.17,-188.23 439.85,-177.64 433.5,-186.12 440.17,-188.23"/>
</g>
<!-- output -->
<g id="node12" class="node">
<title>output</title>
<polygon fill="#dcfce7" stroke="#000000" points="614.54,-116.89 355.61,-116.89 289,-61.89 547.93,-61.89 614.54,-116.89"/>
<text xml:space="preserve" text-anchor="start" x="381.27" y="-84.14" font-family="CMU Serif" font-size="14.00">Вывод: a, b, S, δ, R², r</text>
</g>
<!-- pear&#45;&gt;output -->
<g id="edge13" class="edge">
<title>pear&#45;&gt;output</title>
<path fill="none" stroke="#000000" d="M447.34,-139.42C447.65,-136.03 447.98,-132.36 448.32,-128.6"/>
<polygon fill="#000000" stroke="#000000" points="451.79,-129.05 449.21,-118.78 444.82,-128.42 451.79,-129.05"/>
</g>
<!-- output&#45;&gt;stop -->
<g id="edge14" class="edge">
<title>output&#45;&gt;stop</title>
<path fill="none" stroke="#000000" d="M380.77,-61.44C358.3,-52.91 334.22,-43.77 314.5,-36.29"/>
<polygon fill="#000000" stroke="#000000" points="315.75,-33.02 305.16,-32.74 313.27,-39.56 315.75,-33.02"/>
</g>
</g>
</svg>
