<?xml version="1.0" encoding="UTF-8" standalone="no"?>
<!DOCTYPE svg PUBLIC "-//W3C//DTD SVG 1.1//EN"
 "http://www.w3.org/Graphics/SVG/1.1/DTD/svg11.dtd">
<!-- Generated by graphviz version 14.1.5 (0)
 -->
<!-- Title: LSLinear Pages: 1 -->
<svg width="607pt" height="942pt"
 viewBox="0.00 0.00 607.00 942.00" xmlns="http://www.w3.org/2000/svg" xmlns:xlink="http://www.w3.org/1999/xlink">
<g id="graph0" class="graph" transform="scale(1 1) rotate(0) translate(4 937.78)">
<title>LSLinear</title>
<polygon fill="white" stroke="none" points="-4,4 -4,-937.78 602.99,-937.78 602.99,4 -4,4"/>
<!-- start -->
<g id="node1" class="node">
<title>start</title>
<ellipse fill="#e6eefc" stroke="#000000" cx="154.22" cy="-914.34" rx="91.39" ry="19.45"/>
<text xml:space="preserve" text-anchor="middle" x="154.22" y="-910.79" font-family="CMU Serif" font-size="14.00">Начало: fitLinear</text>
</g>
<!-- input -->
<g id="node2" class="node">
<title>input</title>
<polygon fill="#f5f5f5" stroke="#000000" points="308.43,-871.89 63.11,-871.89 0,-816.89 245.32,-816.89 308.43,-871.89"/>
<text xml:space="preserve" text-anchor="start" x="87.84" y="-841.84" font-family="CMU Serif" font-size="14.00">Ввод: n точек (x</text>
<text xml:space="preserve" text-anchor="start" x="195.09" y="-841.84" font-family="CMU Serif" baseline-shift="sub" font-size="14.00">i</text>
<text xml:space="preserve" text-anchor="start" x="198.09" y="-841.84" font-family="CMU Serif" font-size="14.00">, y</text>
<text xml:space="preserve" text-anchor="start" x="213.09" y="-841.84" font-family="CMU Serif" baseline-shift="sub" font-size="14.00">i</text>
<text xml:space="preserve" text-anchor="start" x="216.09" y="-841.84" font-family="CMU Serif" font-size="14.00">)</text>
</g>
<!-- start&#45;&gt;input -->
<g id="edge1" class="edge">
<title>start&#45;&gt;input</title>
<path fill="none" stroke="#000000" d="M154.22,-894.41C154.22,-890.99 154.22,-887.32 154.22,-883.58"/>
<polygon fill="#000000" stroke="#000000" points="157.72,-883.85 154.22,-873.85 150.72,-883.85 157.72,-883.85"/>
</g>
<!-- zero -->
<g id="node3" class="node">
<title>zero</title>
<polygon fill="#ffffff" stroke="#000000" points="186.22,-793.89 122.22,-793.89 122.22,-688.39 186.22,-688.39 186.22,-793.89"/>
<text xml:space="preserve" text-anchor="start" x="134.34" y="-774.89" font-family="CMU Serif" font-size="14.00">SX = 0</text>
<text xml:space="preserve" text-anchor="start" x="130.22" y="-755.39" font-family="CMU Serif" font-size="14.00">SXX = 0</text>
<text xml:space="preserve" text-anchor="start" x="134.34" y="-735.89" font-family="CMU Serif" font-size="14.00">SY = 0</text>
<text xml:space="preserve" text-anchor="start" x="130.22" y="-716.39" font-family="CMU Serif" font-size="14.00">SXY = 0</text>
<text xml:space="preserve" text-anchor="start" x="140.34" y="-696.89" font-family="CMU Serif" font-size="14.00">i = 1</text>
</g>
<!-- input&#45;&gt;zero -->
<g id="edge2" class="edge">
<title>input&#45;&gt;zero</title>
<path fill="none" stroke="#000000" d="M154.22,-816.52C154.22,-813.07 154.22,-809.42 154.22,-805.67"/>
<polygon fill="#000000" stroke="#000000" points="157.72,-805.72 154.22,-795.72 150.72,-805.72 157.72,-805.72"/>
</g>
<!-- loop -->
<g id="node4" class="node">
<title>loop</title>
<polygon fill="#fff7d1" stroke="#000000" points="154.22,-665.39 99.97,-637.89 154.22,-610.39 208.47,-637.89 154.22,-665.39"/>
<text xml:space="preserve" text-anchor="start" x="135.09" y="-632.64" font-family="CMU Serif" font-size="14.00">i ≤ n?</text>
</g>
<!-- zero&#45;&gt;loop -->
<g id="edge3" class="edge">
<title>zero&#45;&gt;loop</title>
<path fill="none" stroke="#000000" d="M154.22,-688.03C154.22,-684.44 154.22,-680.87 154.22,-677.37"/>
<polygon fill="#000000" stroke="#000000" points="157.72,-677.42 154.22,-667.42 150.72,-677.42 157.72,-677.42"/>
</g>
<!-- body -->
<g id="node5" class="node">
<title>body</title>
<polygon fill="#ffffff" stroke="#000000" points="189.09,-571.14 61.34,-571.14 61.34,-493.14 189.09,-493.14 189.09,-571.14"/>
<text xml:space="preserve" text-anchor="start" x="88.47" y="-554.84" font-family="CMU Serif" font-size="14.00">SX = SX + x</text>
<text xml:space="preserve" text-anchor="start" x="158.97" y="-554.84" font-family="CMU Serif" baseline-shift="sub" font-size="14.00">i</text>
<text xml:space="preserve" text-anchor="start" x="69.34" y="-540.84" font-family="CMU Serif" font-size="14.00">SXX = SXX + x</text>
<text xml:space="preserve" text-anchor="start" x="156.34" y="-540.84" font-family="CMU Serif" baseline-shift="sub" font-size="14.00">i</text>
<text xml:space="preserve" text-anchor="start" x="159.34" y="-540.84" font-family="CMU Serif" font-size="14.00"> · x</text>
<text xml:space="preserve" text-anchor="start" x="178.09" y="-540.84" font-family="CMU Serif" baseline-shift="sub" font-size="14.00">i</text>
<text xml:space="preserve" text-anchor="start" x="88.47" y="-526.84" font-family="CMU Serif" font-size="14.00">SY = SY + y</text>
<text xml:space="preserve" text-anchor="start" x="158.97" y="-526.84" font-family="CMU Serif" baseline-shift="sub" font-size="14.00">i</text>
<text xml:space="preserve" text-anchor="start" x="69.34" y="-512.84" font-family="CMU Serif" font-size="14.00">SXY = SXY + x</text>
<text xml:space="preserve" text-anchor="start" x="156.34" y="-512.84" font-family="CMU Serif" baseline-shift="sub" font-size="14.00">i</text>
<text xml:space="preserve" text-anchor="start" x="159.34" y="-512.84" font-family="CMU Serif" font-size="14.00"> · y</text>
<text xml:space="preserve" text-anchor="start" x="178.09" y="-512.84" font-family="CMU Serif" baseline-shift="sub" font-size="14.00">i</text>
<text xml:space="preserve" text-anchor="start" x="101.59" y="-498.84" font-family="CMU Serif" font-size="14.00">i = i + 1</text>
</g>
<!-- loop&#45;&gt;body -->
<g id="edge4" class="edge">
<title>loop&#45;&gt;body</title>
<path fill="none" stroke="#000000" d="M139.76,-617.7C132.81,-608.48 125.97,-599.39 125.97,-599.39 125.97,-599.39 125.89,-592.18 125.78,-582.52"/>
<polygon fill="#000000" stroke="#000000" points="129.28,-582.77 125.67,-572.81 122.28,-582.85 129.28,-582.77"/>
<text xml:space="preserve" text-anchor="middle" x="133.09" y="-587.99" font-family="CMU Serif" font-size="12.00">да</text>
</g>
<!-- det -->
<g id="node6" class="node">
<title>det</title>
<polygon fill="#ffffff" stroke="#000000" points="350.97,-550.14 207.47,-550.14 207.47,-514.14 350.97,-514.14 350.97,-550.14"/>
<text xml:space="preserve" text-anchor="start" x="215.47" y="-526.89" font-family="CMU Serif" font-size="14.00">Δ = SXX · n − SX · SX</text>
</g>
<!-- loop&#45;&gt;det -->
<g id="edge6" class="edge">
<title>loop&#45;&gt;det</title>
<path fill="none" stroke="#000000" d="M174.3,-620.22C194.65,-603.33 226.36,-577.01 249.59,-557.73"/>
<polygon fill="#000000" stroke="#000000" points="251.73,-560.51 257.19,-551.43 247.26,-555.12 251.73,-560.51"/>
<text xml:space="preserve" text-anchor="middle" x="226.47" y="-587.99" font-family="CMU Serif" font-size="12.00">нет</text>
</g>
<!-- body&#45;&gt;loop -->
<g id="edge5" class="edge">
<title>body&#45;&gt;loop</title>
<path fill="none" stroke="#000000" d="M136.89,-571.27C138.82,-577.59 140.22,-582.14 140.22,-582.14 140.22,-582.14 142.54,-591.22 145.29,-601.98"/>
<polygon fill="#000000" stroke="#000000" points="141.87,-602.75 147.74,-611.57 148.66,-601.01 141.87,-602.75"/>
</g>
<!-- check -->
<g id="node7" class="node">
<title>check</title>
<polygon fill="#fff7d1" stroke="#000000" points="279.22,-470.14 210.72,-442.64 279.22,-415.14 347.72,-442.64 279.22,-470.14"/>
<text xml:space="preserve" text-anchor="start" x="252.97" y="-437.39" font-family="CMU Serif" font-size="14.00">|Δ| &lt; ε?</text>
</g>
<!-- det&#45;&gt;check -->
<g id="edge7" class="edge">
<title>det&#45;&gt;check</title>
<path fill="none" stroke="#000000" d="M279.22,-513.85C279.22,-504.69 279.22,-493.04 279.22,-481.87"/>
<polygon fill="#000000" stroke="#000000" points="282.72,-482.05 279.22,-472.05 275.72,-482.05 282.72,-482.05"/>
</g>
<!-- degen -->
<g id="node8" class="node">
<title>degen</title>
<polygon fill="#fde2e2" stroke="#000000" points="358.67,-300.89 203.64,-300.89 163.76,-245.89 318.79,-245.89 358.67,-300.89"/>
<text xml:space="preserve" text-anchor="middle" x="261.22" y="-269.84" font-family="CMU Serif" font-size="14.00">Вырождена</text>
</g>
<!-- check&#45;&gt;degen -->
<g id="edge8" class="edge">
<title>check&#45;&gt;degen</title>
<path fill="none" stroke="#000000" d="M276.44,-415.87C273.47,-388.21 268.71,-343.97 265.3,-312.33"/>
<polygon fill="#000000" stroke="#000000" points="268.82,-312.37 264.27,-302.8 261.86,-313.12 268.82,-312.37"/>
<text xml:space="preserve" text-anchor="middle" x="282.13" y="-392.74" font-family="CMU Serif" font-size="12.00">да</text>
</g>
<!-- cramer -->
<g id="node9" class="node">
<title>cramer</title>
<polygon fill="#ffffff" stroke="#000000" points="454.84,-375.89 289.59,-375.89 289.59,-311.89 454.84,-311.89 454.84,-375.89"/>
<text xml:space="preserve" text-anchor="start" x="305.09" y="-359.59" font-family="CMU Serif" font-size="14.00">Δ</text>
<text xml:space="preserve" text-anchor="start" x="314.09" y="-359.59" font-family="CMU Serif" baseline-shift="sub" font-size="14.00">1</text>
<text xml:space="preserve" text-anchor="start" x="320.84" y="-359.59" font-family="CMU Serif" font-size="14.00"> = SXY · n − SX · SY</text>
<text xml:space="preserve" text-anchor="start" x="297.59" y="-345.59" font-family="CMU Serif" font-size="14.00">Δ</text>
<text xml:space="preserve" text-anchor="start" x="306.59" y="-345.59" font-family="CMU Serif" baseline-shift="sub" font-size="14.00">2</text>
<text xml:space="preserve" text-anchor="start" x="313.34" y="-345.59" font-family="CMU Serif" font-size="14.00"> = SXX · SY − SX · SXY</text>
<text xml:space="preserve" text-anchor="start" x="341.84" y="-331.59" font-family="CMU Serif" font-size="14.00">a = Δ</text>
<text xml:space="preserve" text-anchor="start" x="374.09" y="-331.59" font-family="CMU Serif" baseline-shift="sub" font-size="14.00">1</text>
<text xml:space="preserve" text-anchor="start" x="380.84" y="-331.59" font-family="CMU Serif" font-size="14.00"> / Δ</text>
<text xml:space="preserve" text-anchor="start" x="341.47" y="-317.59" font-family="CMU Serif" font-size="14.00">b = Δ</text>
<text xml:space="preserve" text-anchor="start" x="374.47" y="-317.59" font-family="CMU Serif" baseline-shift="sub" font-size="14.00">2</text>
<text xml:space="preserve" text-anchor="start" x="381.22" y="-317.59" font-family="CMU Serif" font-size="14.00"> / Δ</text>
</g>
<!-- check&#45;&gt;cramer -->
<g id="edge10" class="edge">
<title>check&#45;&gt;cramer</title>
<path fill="none" stroke="#000000" d="M297.59,-422.53C308.11,-411.58 321.71,-397.43 334.41,-384.22"/>
<polygon fill="#000000" stroke="#000000" points="336.71,-386.88 341.12,-377.24 331.66,-382.03 336.71,-386.88"/>
<text xml:space="preserve" text-anchor="middle" x="341.04" y="-392.74" font-family="CMU Serif" font-size="12.00">нет</text>
</g>
<!-- stop -->
<g id="node13" class="node">
<title>stop</title>
<ellipse fill="#e6eefc" stroke="#000000" cx="257.22" cy="-19.45" rx="39.95" ry="19.45"/>
<text xml:space="preserve" text-anchor="middle" x="257.22" y="-15.9" font-family="CMU Serif" font-size="14.00">Конец</text>
</g>
<!-- degen&#45;&gt;stop -->
<g id="edge9" class="edge">
<title>degen&#45;&gt;stop</title>
<path fill="none" stroke="#000000" d="M256.15,-245.65C251.47,-220.9 245.22,-187.89 245.22,-187.89 245.22,-187.89 245.22,-187.89 245.22,-88.39 245.22,-88.39 248.73,-68.51 251.95,-50.26"/>
<polygon fill="#000000" stroke="#000000" points="255.38,-50.96 253.67,-40.5 248.49,-49.74 255.38,-50.96"/>
</g>
<!-- stats -->
<g id="node10" class="node">
<title>stats</title>
<polygon fill="#eef2ff" stroke="#000000" points="528.22,-234.89 296.22,-234.89 296.22,-198.89 528.22,-198.89 528.22,-234.89"/>
<text xml:space="preserve" text-anchor="middle" x="412.22" y="-213.34" font-family="CMU Serif" font-size="14.00">Вызов fillResidualsAndStats(a, b)</text>
</g>
<!-- cramer&#45;&gt;stats -->
<g id="edge11" class="edge">
<title>cramer&#45;&gt;stats</title>
<path fill="none" stroke="#000000" d="M382.21,-311.67C388.64,-291.57 396.93,-265.67 403.17,-246.18"/>
<polygon fill="#000000" stroke="#000000" points="406.48,-247.29 406.2,-236.7 399.82,-245.16 406.48,-247.29"/>
</g>
<!-- pear -->
<g id="node11" class="node">
<title>pear</title>
<polygon fill="#ffffff" stroke="#000000" points="491.84,-175.89 368.59,-175.89 368.59,-139.89 491.84,-139.89 491.84,-175.89"/>
<text xml:space="preserve" text-anchor="start" x="376.59" y="-152.64" font-family="CMU Serif" font-size="14.00">r = Pearson(x, y)</text>
</g>
<!-- stats&#45;&gt;pear -->
<g id="edge12" class="edge">
<title>stats&#45;&gt;pear</title>
<path fill="none" stroke="#000000" d="M417.72,-198.48C418.87,-194.83 420.11,-190.9 421.35,-186.98"/>
<polygon fill="#000000" stroke="#000000" points="424.62,-188.23 424.3,-177.64 417.95,-186.12 424.62,-188.23"/>
</g>
<!-- output -->
<g id="node12" class="node">
<title>output</title>
<polygon fill="#dcfce7" stroke="#000000" points="598.99,-116.89 340.06,-116.89 273.45,-61.89 532.38,-61.89 598.99,-116.89"/>
<text xml:space="preserve" text-anchor="start" x="365.72" y="-84.14" font-family="CMU Serif" font-size="14.00">Вывод: a, b, S, δ, R², r</text>
</g>
<!-- pear&#45;&gt;output -->
<g id="edge13" class="edge">
<title>pear&#45;&gt;output</title>
<path fill="none" stroke="#000000" d="M431.79,-139.42C432.1,-136.03 432.43,-132.36 432.77,-128.6"/>
<polygon fill="#000000" stroke="#000000" points="436.24,-129.05 433.66,-118.78 429.27,-128.42 436.24,-129.05"/>
</g>
<!-- output&#45;&gt;stop -->
<g id="edge14" class="edge">
<title>output&#45;&gt;stop</title>
<path fill="none" stroke="#000000" d="M365.21,-61.44C342.75,-52.91 318.67,-43.77 298.95,-36.29"/>
<polygon fill="#000000" stroke="#000000" points="300.2,-33.02 289.61,-32.74 297.71,-39.56 300.2,-33.02"/>
</g>
</g>
</svg>
