<?xml version="1.0" encoding="UTF-8" standalone="no"?>
<!DOCTYPE svg PUBLIC "-//W3C//DTD SVG 1.1//EN"
 "http://www.w3.org/Graphics/SVG/1.1/DTD/svg11.dtd">
<!-- Generated by graphviz version 14.1.5 (0)
 -->
<!-- Title: LSPower Pages: 1 -->
<svg width="877pt" height="827pt"
 viewBox="0.00 0.00 877.00 827.00" xmlns="http://www.w3.org/2000/svg" xmlns:xlink="http://www.w3.org/1999/xlink">
<g id="graph0" class="graph" transform="scale(1 1) rotate(0) translate(4 823.28)">
<title>LSPower</title>
<polygon fill="white" stroke="none" points="-4,4 -4,-823.28 873.41,-823.28 873.41,4 -4,4"/>
<!-- start -->
<g id="node1" class="node">
<title>start</title>
<ellipse fill="#e6eefc" stroke="#000000" cx="579.2" cy="-799.84" rx="91.39" ry="19.45"/>
<text xml:space="preserve" text-anchor="middle" x="579.2" y="-796.29" font-family="CMU Serif" font-size="14.00">Начало: fitPower</text>
</g>
<!-- input -->
<g id="node2" class="node">
<title>input</title>
<polygon fill="#f5f5f5" stroke="#000000" points="748.97,-757.39 478.9,-757.39 409.43,-702.39 679.49,-702.39 748.97,-757.39"/>
<text xml:space="preserve" text-anchor="middle" x="579.2" y="-726.34" font-family="CMU Serif" font-size="14.00">Ввод: x[1..n], y[1..n], n</text>
</g>
<!-- start&#45;&gt;input -->
<g id="edge1" class="edge">
<title>start&#45;&gt;input</title>
<path fill="none" stroke="#000000" d="M579.2,-779.91C579.2,-776.49 579.2,-772.82 579.2,-769.08"/>
<polygon fill="#000000" stroke="#000000" points="582.7,-769.35 579.2,-759.35 575.7,-769.35 582.7,-769.35"/>
</g>
<!-- init -->
<g id="node3" class="node">
<title>init</title>
<polygon fill="#ffffff" stroke="#000000" points="606.2,-679.39 552.2,-679.39 552.2,-643.39 606.2,-643.39 606.2,-679.39"/>
<text xml:space="preserve" text-anchor="start" x="565.32" y="-656.14" font-family="CMU Serif" font-size="14.00">i = 1</text>
</g>
<!-- input&#45;&gt;init -->
<g id="edge2" class="edge">
<title>input&#45;&gt;init</title>
<path fill="none" stroke="#000000" d="M579.2,-702.23C579.2,-698.52 579.2,-694.69 579.2,-690.95"/>
<polygon fill="#000000" stroke="#000000" points="582.7,-691.02 579.2,-681.02 575.7,-691.02 582.7,-691.02"/>
</g>
<!-- chk1 -->
<g id="node4" class="node">
<title>chk1</title>
<polygon fill="#fff7d1" stroke="#000000" points="579.2,-620.39 524.95,-592.89 579.2,-565.39 633.45,-592.89 579.2,-620.39"/>
<text xml:space="preserve" text-anchor="start" x="560.07" y="-587.64" font-family="CMU Serif" font-size="14.00">i ≤ n?</text>
</g>
<!-- init&#45;&gt;chk1 -->
<g id="edge3" class="edge">
<title>init&#45;&gt;chk1</title>
<path fill="none" stroke="#000000" d="M579.2,-642.92C579.2,-639.53 579.2,-635.86 579.2,-632.1"/>
<polygon fill="#000000" stroke="#000000" points="582.7,-632.28 579.2,-622.28 575.7,-632.28 582.7,-632.28"/>
</g>
<!-- chkx -->
<g id="node5" class="node">
<title>chkx</title>
<polygon fill="#fff7d1" stroke="#000000" points="579.2,-526.14 522.7,-498.64 579.2,-471.14 635.7,-498.64 579.2,-526.14"/>
<text xml:space="preserve" text-anchor="start" x="558.95" y="-496.09" font-family="CMU Serif" font-size="14.00">x</text>
<text xml:space="preserve" text-anchor="start" x="566.45" y="-496.09" font-family="CMU Serif" baseline-shift="sub" font-size="14.00">i</text>
<text xml:space="preserve" text-anchor="start" x="569.45" y="-496.09" font-family="CMU Serif" font-size="14.00"> &gt; 0?</text>
</g>
<!-- chk1&#45;&gt;chkx -->
<g id="edge4" class="edge">
<title>chk1&#45;&gt;chkx</title>
<path fill="none" stroke="#000000" d="M579.2,-565.21C579.2,-556.68 579.2,-547.06 579.2,-537.87"/>
<polygon fill="#000000" stroke="#000000" points="582.7,-538.1 579.2,-528.1 575.7,-538.1 582.7,-538.1"/>
<text xml:space="preserve" text-anchor="middle" x="586.32" y="-542.99" font-family="CMU Serif" font-size="12.00">да</text>
</g>
<!-- prep -->
<g id="node10" class="node">
<title>prep</title>
<polygon fill="#ffffff" stroke="#000000" points="452.2,-516.64 382.2,-516.64 382.2,-480.64 452.2,-480.64 452.2,-516.64"/>
<text xml:space="preserve" text-anchor="start" x="390.2" y="-500.34" font-family="CMU Serif" font-size="14.00">X</text>
<text xml:space="preserve" text-anchor="start" x="398.45" y="-500.34" font-family="CMU Serif" baseline-shift="sub" font-size="14.00">i</text>
<text xml:space="preserve" text-anchor="start" x="401.45" y="-500.34" font-family="CMU Serif" font-size="14.00"> = ln x</text>
<text xml:space="preserve" text-anchor="start" x="441.2" y="-500.34" font-family="CMU Serif" baseline-shift="sub" font-size="14.00">i</text>
<text xml:space="preserve" text-anchor="start" x="390.2" y="-486.34" font-family="CMU Serif" font-size="14.00">Y</text>
<text xml:space="preserve" text-anchor="start" x="398.45" y="-486.34" font-family="CMU Serif" baseline-shift="sub" font-size="14.00">i</text>
<text xml:space="preserve" text-anchor="start" x="401.45" y="-486.34" font-family="CMU Serif" font-size="14.00"> = ln y</text>
<text xml:space="preserve" text-anchor="start" x="441.2" y="-486.34" font-family="CMU Serif" baseline-shift="sub" font-size="14.00">i</text>
</g>
<!-- chk1&#45;&gt;prep -->
<g id="edge12" class="edge">
<title>chk1&#45;&gt;prep</title>
<path fill="none" stroke="#000000" d="M554.24,-577.68C528.48,-563.01 487.9,-539.9 457.57,-522.63"/>
<polygon fill="#000000" stroke="#000000" points="459.45,-519.67 449.03,-517.77 455.99,-525.76 459.45,-519.67"/>
<text xml:space="preserve" text-anchor="middle" x="522.46" y="-542.99" font-family="CMU Serif" font-size="12.00">нет</text>
</g>
<!-- chky -->
<g id="node6" class="node">
<title>chky</title>
<polygon fill="#fff7d1" stroke="#000000" points="667.2,-431.89 610.7,-404.39 667.2,-376.89 723.7,-404.39 667.2,-431.89"/>
<text xml:space="preserve" text-anchor="start" x="646.95" y="-401.84" font-family="CMU Serif" font-size="14.00">y</text>
<text xml:space="preserve" text-anchor="start" x="654.45" y="-401.84" font-family="CMU Serif" baseline-shift="sub" font-size="14.00">i</text>
<text xml:space="preserve" text-anchor="start" x="657.45" y="-401.84" font-family="CMU Serif" font-size="14.00"> &gt; 0?</text>
</g>
<!-- chkx&#45;&gt;chky -->
<g id="edge5" class="edge">
<title>chkx&#45;&gt;chky</title>
<path fill="none" stroke="#000000" d="M596.58,-479.42C609.6,-465.77 627.6,-446.91 642.16,-431.64"/>
<polygon fill="#000000" stroke="#000000" points="644.43,-434.33 648.8,-424.67 639.37,-429.49 644.43,-434.33"/>
<text xml:space="preserve" text-anchor="middle" x="638.2" y="-448.74" font-family="CMU Serif" font-size="12.00">да</text>
</g>
<!-- rejx -->
<g id="node7" class="node">
<title>rejx</title>
<polygon fill="#fde2e2" stroke="#000000" points="657.41,-365.89 356.42,-365.89 278.99,-310.89 579.98,-310.89 657.41,-365.89"/>
<text xml:space="preserve" text-anchor="start" x="384.95" y="-335.84" font-family="CMU Serif" font-size="14.00">Статус «Требуется x</text>
<text xml:space="preserve" text-anchor="start" x="516.95" y="-335.84" font-family="CMU Serif" baseline-shift="sub" font-size="14.00">i</text>
<text xml:space="preserve" text-anchor="start" x="519.95" y="-335.84" font-family="CMU Serif" font-size="14.00"> &gt; 0»</text>
</g>
<!-- chkx&#45;&gt;rejx -->
<g id="edge6" class="edge">
<title>chkx&#45;&gt;rejx</title>
<path fill="none" stroke="#000000" d="M565.14,-477.6C547.16,-451.97 515.71,-407.13 493.52,-375.49"/>
<polygon fill="#000000" stroke="#000000" points="496.43,-373.55 487.82,-367.37 490.7,-377.57 496.43,-373.55"/>
<text xml:space="preserve" text-anchor="middle" x="560.87" y="-448.74" font-family="CMU Serif" font-size="12.00">нет</text>
</g>
<!-- rejy -->
<g id="node8" class="node">
<title>rejy</title>
<polygon fill="#fde2e2" stroke="#000000" points="869.41,-241.89 568.42,-241.89 490.99,-186.89 791.98,-186.89 869.41,-241.89"/>
<text xml:space="preserve" text-anchor="start" x="596.95" y="-211.84" font-family="CMU Serif" font-size="14.00">Статус «Требуется y</text>
<text xml:space="preserve" text-anchor="start" x="728.95" y="-211.84" font-family="CMU Serif" baseline-shift="sub" font-size="14.00">i</text>
<text xml:space="preserve" text-anchor="start" x="731.95" y="-211.84" font-family="CMU Serif" font-size="14.00"> &gt; 0»</text>
</g>
<!-- chky&#45;&gt;rejy -->
<g id="edge8" class="edge">
<title>chky&#45;&gt;rejy</title>
<path fill="none" stroke="#000000" d="M669.01,-377.25C671.23,-345.11 675.02,-290.32 677.56,-253.49"/>
<polygon fill="#000000" stroke="#000000" points="681.04,-253.95 678.24,-243.73 674.06,-253.47 681.04,-253.95"/>
<text xml:space="preserve" text-anchor="middle" x="683.17" y="-335.62" font-family="CMU Serif" font-size="12.00">нет</text>
</g>
<!-- next -->
<g id="node9" class="node">
<title>next</title>
<polygon fill="#ffffff" stroke="#000000" points="777.82,-294.39 714.57,-294.39 714.57,-258.39 777.82,-258.39 777.82,-294.39"/>
<text xml:space="preserve" text-anchor="start" x="722.57" y="-271.14" font-family="CMU Serif" font-size="14.00">i = i + 1</text>
</g>
<!-- chky&#45;&gt;next -->
<g id="edge7" class="edge">
<title>chky&#45;&gt;next</title>
<path fill="none" stroke="#000000" d="M684.2,-384.64C692.7,-375.27 701.2,-365.89 701.2,-365.89 701.2,-365.89 723.95,-310.89 723.95,-310.89 723.95,-310.89 725.85,-308.03 728.54,-303.98"/>
<polygon fill="#000000" stroke="#000000" points="731.36,-306.06 733.97,-295.79 725.53,-302.19 731.36,-306.06"/>
<text xml:space="preserve" text-anchor="middle" x="731.07" y="-335.62" font-family="CMU Serif" font-size="12.00">да</text>
</g>
<!-- stop -->
<g id="node15" class="node">
<title>stop</title>
<ellipse fill="#e6eefc" stroke="#000000" cx="476.2" cy="-19.45" rx="39.95" ry="19.45"/>
<text xml:space="preserve" text-anchor="middle" x="476.2" y="-15.9" font-family="CMU Serif" font-size="14.00">Конец</text>
</g>
<!-- rejx&#45;&gt;stop -->
<g id="edge9" class="edge">
<title>rejx&#45;&gt;stop</title>
<path fill="none" stroke="#000000" d="M469.95,-310.62C472.31,-274.7 476.2,-215.39 476.2,-215.39 476.2,-215.39 476.2,-215.39 476.2,-88.39 476.2,-88.39 476.2,-68.93 476.2,-50.84"/>
<polygon fill="#000000" stroke="#000000" points="479.7,-50.89 476.2,-40.89 472.7,-50.89 479.7,-50.89"/>
</g>
<!-- rejy&#45;&gt;stop -->
<g id="edge10" class="edge">
<title>rejy&#45;&gt;stop</title>
<path fill="none" stroke="#000000" d="M651.83,-186.56C612.04,-148.92 540.22,-81 501.91,-44.76"/>
<polygon fill="#000000" stroke="#000000" points="504.59,-42.48 494.92,-38.15 499.78,-47.56 504.59,-42.48"/>
</g>
<!-- next&#45;&gt;chk1 -->
<g id="edge11" class="edge">
<title>next&#45;&gt;chk1</title>
<path fill="none" stroke="#000000" d="M744.73,-294.81C741.33,-335.22 733.2,-431.89 733.2,-431.89 733.2,-431.89 644.2,-526.14 644.2,-526.14 644.2,-526.14 623.15,-547.44 605,-565.79"/>
<polygon fill="#000000" stroke="#000000" points="602.56,-563.28 598.02,-572.85 607.54,-568.2 602.56,-563.28"/>
</g>
<!-- reg -->
<g id="node11" class="node">
<title>reg</title>
<polygon fill="#eef2ff" stroke="#000000" points="417.32,-427.89 201.07,-427.89 201.07,-380.89 417.32,-380.89 417.32,-427.89"/>
<text xml:space="preserve" text-anchor="start" x="209.07" y="-408.89" font-family="CMU Serif" font-size="14.00">Линейная регрессия по (X, Y):</text>
<text xml:space="preserve" text-anchor="start" x="262.7" y="-389.39" font-family="CMU Serif" font-size="14.00">получить A, B</text>
</g>
<!-- prep&#45;&gt;reg -->
<g id="edge13" class="edge">
<title>prep&#45;&gt;reg</title>
<path fill="none" stroke="#000000" d="M396.88,-480.29C382.21,-467.76 362.01,-450.5 344.7,-435.71"/>
<polygon fill="#000000" stroke="#000000" points="346.98,-433.06 337.1,-429.23 342.43,-438.38 346.98,-433.06"/>
</g>
<!-- back -->
<g id="node12" class="node">
<title>back</title>
<polygon fill="#ffffff" stroke="#000000" points="283.45,-299.89 202.95,-299.89 202.95,-252.89 283.45,-252.89 283.45,-299.89"/>
<text xml:space="preserve" text-anchor="start" x="210.95" y="-280.89" font-family="CMU Serif" font-size="14.00">a = exp(A)</text>
<text xml:space="preserve" text-anchor="start" x="226.7" y="-261.39" font-family="CMU Serif" font-size="14.00">b = B</text>
</g>
<!-- reg&#45;&gt;back -->
<g id="edge14" class="edge">
<title>reg&#45;&gt;back</title>
<path fill="none" stroke="#000000" d="M289.85,-380.71C283.11,-372.81 277.2,-365.89 277.2,-365.89 277.2,-365.89 265.69,-335.93 256.06,-310.87"/>
<polygon fill="#000000" stroke="#000000" points="259.35,-309.67 252.5,-301.59 252.82,-312.18 259.35,-309.67"/>
</g>
<!-- stats -->
<g id="node13" class="node">
<title>stats</title>
<polygon fill="#eef2ff" stroke="#000000" points="344.2,-175.89 112.2,-175.89 112.2,-139.89 344.2,-139.89 344.2,-175.89"/>
<text xml:space="preserve" text-anchor="middle" x="228.2" y="-154.34" font-family="CMU Serif" font-size="14.00">Вызов fillResidualsAndStats(a, b)</text>
</g>
<!-- back&#45;&gt;stats -->
<g id="edge15" class="edge">
<title>back&#45;&gt;stats</title>
<path fill="none" stroke="#000000" d="M240.27,-252.65C237.87,-234.03 234.47,-207.58 231.88,-187.51"/>
<polygon fill="#000000" stroke="#000000" points="235.38,-187.23 230.63,-177.76 228.43,-188.13 235.38,-187.23"/>
</g>
<!-- output -->
<g id="node14" class="node">
<title>output</title>
<polygon fill="#dcfce7" stroke="#000000" points="448.4,-116.89 91.75,-116.89 0,-61.89 356.65,-61.89 448.4,-116.89"/>
<text xml:space="preserve" text-anchor="start" x="124.07" y="-86.84" font-family="CMU Serif" font-size="14.00">Вывод: a, b, S, δ, R² (φ = a · x</text>
<text xml:space="preserve" text-anchor="start" x="312.32" y="-86.84" font-family="CMU Serif" baseline-shift="super" font-size="14.00">b</text>
<text xml:space="preserve" text-anchor="start" x="319.82" y="-86.84" font-family="CMU Serif" font-size="14.00">)</text>
</g>
<!-- stats&#45;&gt;output -->
<g id="edge16" class="edge">
<title>stats&#45;&gt;output</title>
<path fill="none" stroke="#000000" d="M227.15,-139.42C226.94,-136.03 226.72,-132.36 226.5,-128.6"/>
<polygon fill="#000000" stroke="#000000" points="230,-128.55 225.91,-118.78 223.01,-128.97 230,-128.55"/>
</g>
<!-- output&#45;&gt;stop -->
<g id="edge17" class="edge">
<title>output&#45;&gt;stop</title>
<path fill="none" stroke="#000000" d="M324.16,-61.44C361.08,-51.48 401.12,-40.69 430.83,-32.68"/>
<polygon fill="#000000" stroke="#000000" points="431.49,-36.13 440.23,-30.14 429.66,-29.37 431.49,-36.13"/>
</g>
</g>
</svg>
