<?xml version="1.0" encoding="UTF-8" standalone="no"?>
<!DOCTYPE svg PUBLIC "-//W3C//DTD SVG 1.1//EN"
 "http://www.w3.org/Graphics/SVG/1.1/DTD/svg11.dtd">
<!-- Generated by graphviz version 14.1.5 (0)
 -->
<!-- Title: LSPoly Pages: 1 -->
<svg width="995pt" height="891pt"
 viewBox="0.00 0.00 995.00 891.00" xmlns="http://www.w3.org/2000/svg" xmlns:xlink="http://www.w3.org/1999/xlink">
<g id="graph0" class="graph" transform="scale(1 1) rotate(0) translate(4 887.03)">
<title>LSPoly</title>
<polygon fill="white" stroke="none" points="-4,4 -4,-887.03 991.1,-887.03 991.1,4 -4,4"/>
<!-- start -->
<g id="node1" class="node">
<title>start</title>
<ellipse fill="#e6eefc" stroke="#000000" cx="354" cy="-863.59" rx="96.7" ry="19.45"/>
<text xml:space="preserve" text-anchor="middle" x="354" y="-860.04" font-family="CMU Serif" font-size="14.00">Начало: fitPoly(m)</text>
</g>
<!-- input -->
<g id="node2" class="node">
<title>input</title>
<polygon fill="#f5f5f5" stroke="#000000" points="544.76,-821.14 241.3,-821.14 163.24,-766.14 466.7,-766.14 544.76,-821.14"/>
<text xml:space="preserve" text-anchor="middle" x="354" y="-790.09" font-family="CMU Serif" font-size="14.00">Ввод: x[1..n], y[1..n], n, m</text>
</g>
<!-- start&#45;&gt;input -->
<g id="edge1" class="edge">
<title>start&#45;&gt;input</title>
<path fill="none" stroke="#000000" d="M354,-843.66C354,-840.24 354,-836.57 354,-832.83"/>
<polygon fill="#000000" stroke="#000000" points="357.5,-833.1 354,-823.1 350.5,-833.1 357.5,-833.1"/>
</g>
<!-- zero1 -->
<g id="node3" class="node">
<title>zero1</title>
<polygon fill="#ffffff" stroke="#000000" points="425,-743.14 283,-743.14 283,-676.64 425,-676.64 425,-743.14"/>
<text xml:space="preserve" text-anchor="start" x="291" y="-724.14" font-family="CMU Serif" font-size="14.00">sumPow[0..2m] = 0</text>
<text xml:space="preserve" text-anchor="start" x="297.38" y="-704.64" font-family="CMU Serif" font-size="14.00">sumXky[0..m] = 0</text>
<text xml:space="preserve" text-anchor="start" x="340.12" y="-685.14" font-family="CMU Serif" font-size="14.00">i = 1</text>
</g>
<!-- input&#45;&gt;zero1 -->
<g id="edge2" class="edge">
<title>input&#45;&gt;zero1</title>
<path fill="none" stroke="#000000" d="M354,-765.87C354,-762.29 354,-758.54 354,-754.75"/>
<polygon fill="#000000" stroke="#000000" points="357.5,-754.94 354,-744.94 350.5,-754.94 357.5,-754.94"/>
</g>
<!-- loop1 -->
<g id="node4" class="node">
<title>loop1</title>
<polygon fill="#fff7d1" stroke="#000000" points="354,-653.64 299.75,-626.14 354,-598.64 408.25,-626.14 354,-653.64"/>
<text xml:space="preserve" text-anchor="start" x="334.88" y="-620.89" font-family="CMU Serif" font-size="14.00">i ≤ n?</text>
</g>
<!-- zero1&#45;&gt;loop1 -->
<g id="edge3" class="edge">
<title>zero1&#45;&gt;loop1</title>
<path fill="none" stroke="#000000" d="M354,-676.58C354,-672.83 354,-668.98 354,-665.17"/>
<polygon fill="#000000" stroke="#000000" points="357.5,-665.46 354,-655.46 350.5,-665.46 357.5,-665.46"/>
</g>
<!-- init2 -->
<g id="node5" class="node">
<title>init2</title>
<polygon fill="#ffffff" stroke="#000000" points="312.88,-557.89 257.12,-557.89 257.12,-510.89 312.88,-510.89 312.88,-557.89"/>
<text xml:space="preserve" text-anchor="start" x="265.12" y="-538.89" font-family="CMU Serif" font-size="14.00">xp = 1</text>
<text xml:space="preserve" text-anchor="start" x="269.25" y="-519.39" font-family="CMU Serif" font-size="14.00">k = 0</text>
</g>
<!-- loop1&#45;&gt;init2 -->
<g id="edge4" class="edge">
<title>loop1&#45;&gt;init2</title>
<path fill="none" stroke="#000000" d="M339.37,-606.11C330.71,-594.84 319.52,-580.29 309.54,-567.31"/>
<polygon fill="#000000" stroke="#000000" points="312.34,-565.21 303.47,-559.41 306.79,-569.47 312.34,-565.21"/>
<text xml:space="preserve" text-anchor="middle" x="330.76" y="-576.24" font-family="CMU Serif" font-size="12.00">да</text>
</g>
<!-- build -->
<g id="node9" class="node">
<title>build</title>
<polygon fill="#ffffff" stroke="#000000" points="545.88,-559.39 400.12,-559.39 400.12,-509.39 545.88,-509.39 545.88,-559.39"/>
<text xml:space="preserve" text-anchor="start" x="408.12" y="-543.09" font-family="CMU Serif" font-size="14.00">A</text>
<text xml:space="preserve" text-anchor="start" x="417.12" y="-543.09" font-family="CMU Serif" baseline-shift="sub" font-size="14.00">j,k</text>
<text xml:space="preserve" text-anchor="start" x="429.12" y="-543.09" font-family="CMU Serif" font-size="14.00"> = sumPow[j + k]</text>
<text xml:space="preserve" text-anchor="start" x="426.88" y="-529.09" font-family="CMU Serif" font-size="14.00">b</text>
<text xml:space="preserve" text-anchor="start" x="435.12" y="-529.09" font-family="CMU Serif" baseline-shift="sub" font-size="14.00">j</text>
<text xml:space="preserve" text-anchor="start" x="438.12" y="-529.09" font-family="CMU Serif" font-size="14.00"> = sumXky[j]</text>
<text xml:space="preserve" text-anchor="start" x="426.88" y="-515.09" font-family="CMU Serif" font-size="14.00">для j, k = 0..m</text>
</g>
<!-- loop1&#45;&gt;build -->
<g id="edge10" class="edge">
<title>loop1&#45;&gt;build</title>
<path fill="none" stroke="#000000" d="M375.27,-609.1C390.9,-597.31 412.63,-580.92 431.63,-566.59"/>
<polygon fill="#000000" stroke="#000000" points="433.61,-569.48 439.49,-560.66 429.4,-563.89 433.61,-569.48"/>
<text xml:space="preserve" text-anchor="middle" x="433.91" y="-576.24" font-family="CMU Serif" font-size="12.00">нет</text>
</g>
<!-- loop2 -->
<g id="node6" class="node">
<title>loop2</title>
<polygon fill="#fff7d1" stroke="#000000" points="230,-486.39 148.75,-458.89 230,-431.39 311.25,-458.89 230,-486.39"/>
<text xml:space="preserve" text-anchor="start" x="197.38" y="-453.64" font-family="CMU Serif" font-size="14.00">k ≤ 2 · m?</text>
</g>
<!-- init2&#45;&gt;loop2 -->
<g id="edge5" class="edge">
<title>init2&#45;&gt;loop2</title>
<path fill="none" stroke="#000000" d="M267.9,-510.54C263.04,-504.05 257.68,-496.88 252.55,-490.03"/>
<polygon fill="#000000" stroke="#000000" points="255.48,-488.1 246.69,-482.19 249.88,-492.29 255.48,-488.1"/>
</g>
<!-- acc -->
<g id="node7" class="node">
<title>acc</title>
<polygon fill="#ffffff" stroke="#000000" points="304,-392.14 0,-392.14 0,-328.14 304,-328.14 304,-392.14"/>
<text xml:space="preserve" text-anchor="start" x="55.62" y="-375.84" font-family="CMU Serif" font-size="14.00">sumPow[k] = sumPow[k] + xp</text>
<text xml:space="preserve" text-anchor="start" x="8" y="-361.84" font-family="CMU Serif" font-size="14.00">если k ≤ m: sumXky[k] = sumXky[k] + xp · y</text>
<text xml:space="preserve" text-anchor="start" x="293" y="-361.84" font-family="CMU Serif" baseline-shift="sub" font-size="14.00">i</text>
<text xml:space="preserve" text-anchor="start" x="117.5" y="-347.84" font-family="CMU Serif" font-size="14.00">xp = xp · x</text>
<text xml:space="preserve" text-anchor="start" x="183.5" y="-347.84" font-family="CMU Serif" baseline-shift="sub" font-size="14.00">i</text>
<text xml:space="preserve" text-anchor="start" x="124.62" y="-333.84" font-family="CMU Serif" font-size="14.00">k = k + 1</text>
</g>
<!-- loop2&#45;&gt;acc -->
<g id="edge6" class="edge">
<title>loop2&#45;&gt;acc</title>
<path fill="none" stroke="#000000" d="M213.08,-436.9C204.64,-426.43 194.15,-413.42 184.25,-401.15"/>
<polygon fill="#000000" stroke="#000000" points="187.14,-399.15 178.14,-393.57 181.69,-403.55 187.14,-399.15"/>
<text xml:space="preserve" text-anchor="middle" x="205.11" y="-408.99" font-family="CMU Serif" font-size="12.00">да</text>
</g>
<!-- next1 -->
<g id="node8" class="node">
<title>next1</title>
<polygon fill="#ffffff" stroke="#000000" points="385.62,-378.14 322.38,-378.14 322.38,-342.14 385.62,-342.14 385.62,-378.14"/>
<text xml:space="preserve" text-anchor="start" x="330.38" y="-354.89" font-family="CMU Serif" font-size="14.00">i = i + 1</text>
</g>
<!-- loop2&#45;&gt;next1 -->
<g id="edge8" class="edge">
<title>loop2&#45;&gt;next1</title>
<path fill="none" stroke="#000000" d="M253.91,-439.24C273.53,-423.93 301.45,-402.14 322.82,-385.47"/>
<polygon fill="#000000" stroke="#000000" points="324.91,-388.28 330.64,-379.37 320.6,-382.76 324.91,-388.28"/>
<text xml:space="preserve" text-anchor="middle" x="309.17" y="-408.99" font-family="CMU Serif" font-size="12.00">нет</text>
</g>
<!-- acc&#45;&gt;loop2 -->
<g id="edge7" class="edge">
<title>acc&#45;&gt;loop2</title>
<path fill="none" stroke="#000000" d="M167.88,-392.5C175.07,-406.71 182,-420.39 182,-420.39 182,-420.39 188.75,-425.66 197.19,-432.26"/>
<polygon fill="#000000" stroke="#000000" points="194.77,-434.81 204.81,-438.21 199.08,-429.29 194.77,-434.81"/>
</g>
<!-- next1&#45;&gt;loop1 -->
<g id="edge9" class="edge">
<title>next1&#45;&gt;loop1</title>
<path fill="none" stroke="#000000" d="M354,-378.57C354,-420.76 354,-529.12 354,-587.14"/>
<polygon fill="#000000" stroke="#000000" points="350.5,-586.86 354,-596.86 357.5,-586.86 350.5,-586.86"/>
</g>
<!-- gauss -->
<g id="node10" class="node">
<title>gauss</title>
<polygon fill="#eef2ff" stroke="#000000" points="675.25,-476.89 456.75,-476.89 456.75,-440.89 675.25,-440.89 675.25,-476.89"/>
<text xml:space="preserve" text-anchor="middle" x="566" y="-455.34" font-family="CMU Serif" font-size="14.00">Вызов GaussSolver::solve(A, b)</text>
</g>
<!-- build&#45;&gt;gauss -->
<g id="edge11" class="edge">
<title>build&#45;&gt;gauss</title>
<path fill="none" stroke="#000000" d="M503.97,-508.92C514,-500.99 525.12,-492.2 535.15,-484.27"/>
<polygon fill="#000000" stroke="#000000" points="537.12,-487.18 542.79,-478.23 532.78,-481.68 537.12,-487.18"/>
</g>
<!-- check -->
<g id="node11" class="node">
<title>check</title>
<polygon fill="#fff7d1" stroke="#000000" points="642,-387.64 404,-360.14 642,-332.64 880,-360.14 642,-387.64"/>
<text xml:space="preserve" text-anchor="start" x="531" y="-354.89" font-family="CMU Serif" font-size="14.00">статус = Единственное решение?</text>
</g>
<!-- gauss&#45;&gt;check -->
<g id="edge12" class="edge">
<title>gauss&#45;&gt;check</title>
<path fill="none" stroke="#000000" d="M579.59,-440.59C589.65,-427.78 603.68,-409.92 615.89,-394.38"/>
<polygon fill="#000000" stroke="#000000" points="618.46,-396.77 621.89,-386.75 612.96,-392.45 618.46,-396.77"/>
</g>
<!-- degen -->
<g id="node12" class="node">
<title>degen</title>
<polygon fill="#fde2e2" stroke="#000000" points="694.45,-241.89 539.43,-241.89 499.55,-186.89 654.57,-186.89 694.45,-241.89"/>
<text xml:space="preserve" text-anchor="middle" x="597" y="-210.84" font-family="CMU Serif" font-size="14.00">Вырождена</text>
</g>
<!-- check&#45;&gt;degen -->
<g id="edge13" class="edge">
<title>check&#45;&gt;degen</title>
<path fill="none" stroke="#000000" d="M633.85,-333.11C626.83,-310.7 616.62,-278.08 608.73,-252.86"/>
<polygon fill="#000000" stroke="#000000" points="612.17,-252.15 605.85,-243.65 605.49,-254.24 612.17,-252.15"/>
<text xml:space="preserve" text-anchor="middle" x="637.74" y="-305.74" font-family="CMU Serif" font-size="12.00">нет</text>
</g>
<!-- setc -->
<g id="node13" class="node">
<title>setc</title>
<polygon fill="#ffffff" stroke="#000000" points="806.75,-288.89 633.25,-288.89 633.25,-252.89 806.75,-252.89 806.75,-288.89"/>
<text xml:space="preserve" text-anchor="start" x="641.25" y="-268.34" font-family="CMU Serif" font-size="14.00">a</text>
<text xml:space="preserve" text-anchor="start" x="648.75" y="-268.34" font-family="CMU Serif" baseline-shift="sub" font-size="14.00">0</text>
<text xml:space="preserve" text-anchor="start" x="655.5" y="-268.34" font-family="CMU Serif" font-size="14.00">, a</text>
<text xml:space="preserve" text-anchor="start" x="670.5" y="-268.34" font-family="CMU Serif" baseline-shift="sub" font-size="14.00">1</text>
<text xml:space="preserve" text-anchor="start" x="677.25" y="-268.34" font-family="CMU Serif" font-size="14.00">, …, a</text>
<text xml:space="preserve" text-anchor="start" x="711" y="-268.34" font-family="CMU Serif" baseline-shift="sub" font-size="14.00">m</text>
<text xml:space="preserve" text-anchor="start" x="722.25" y="-268.34" font-family="CMU Serif" font-size="14.00"> = решение</text>
</g>
<!-- check&#45;&gt;setc -->
<g id="edge15" class="edge">
<title>check&#45;&gt;setc</title>
<path fill="none" stroke="#000000" d="M663.73,-334.84C674.07,-323.26 686.45,-309.42 696.96,-297.66"/>
<polygon fill="#000000" stroke="#000000" points="699.5,-300.07 703.56,-290.28 694.28,-295.41 699.5,-300.07"/>
<text xml:space="preserve" text-anchor="middle" x="701.9" y="-305.74" font-family="CMU Serif" font-size="12.00">да</text>
</g>
<!-- stop -->
<g id="node16" class="node">
<title>stop</title>
<ellipse fill="#e6eefc" stroke="#000000" cx="599" cy="-19.45" rx="39.95" ry="19.45"/>
<text xml:space="preserve" text-anchor="middle" x="599" y="-15.9" font-family="CMU Serif" font-size="14.00">Конец</text>
</g>
<!-- degen&#45;&gt;stop -->
<g id="edge14" class="edge">
<title>degen&#45;&gt;stop</title>
<path fill="none" stroke="#000000" d="M597.28,-186.56C597.65,-150.78 598.3,-87.62 598.69,-50.34"/>
<polygon fill="#000000" stroke="#000000" points="602.19,-50.76 598.79,-40.73 595.19,-50.69 602.19,-50.76"/>
</g>
<!-- stats -->
<g id="node14" class="node">
<title>stats</title>
<polygon fill="#eef2ff" stroke="#000000" points="870.12,-175.89 653.88,-175.89 653.88,-139.89 870.12,-139.89 870.12,-175.89"/>
<text xml:space="preserve" text-anchor="middle" x="762" y="-154.34" font-family="CMU Serif" font-size="14.00">Вызов fillResidualsAndStats(a)</text>
</g>
<!-- setc&#45;&gt;stats -->
<g id="edge16" class="edge">
<title>setc&#45;&gt;stats</title>
<path fill="none" stroke="#000000" d="M726.56,-252.55C733.22,-234.95 743.63,-207.44 751.45,-186.78"/>
<polygon fill="#000000" stroke="#000000" points="754.68,-188.12 754.95,-177.53 748.14,-185.64 754.68,-188.12"/>
</g>
<!-- output -->
<g id="node15" class="node">
<title>output</title>
<polygon fill="#dcfce7" stroke="#000000" points="987.1,-116.89 691.06,-116.89 614.9,-61.89 910.94,-61.89 987.1,-116.89"/>
<text xml:space="preserve" text-anchor="start" x="719.25" y="-86.84" font-family="CMU Serif" font-size="14.00">Вывод: a</text>
<text xml:space="preserve" text-anchor="start" x="778.5" y="-86.84" font-family="CMU Serif" baseline-shift="sub" font-size="14.00">0</text>
<text xml:space="preserve" text-anchor="start" x="785.25" y="-86.84" font-family="CMU Serif" font-size="14.00">, …, a</text>
<text xml:space="preserve" text-anchor="start" x="819" y="-86.84" font-family="CMU Serif" baseline-shift="sub" font-size="14.00">m</text>
<text xml:space="preserve" text-anchor="start" x="830.25" y="-86.84" font-family="CMU Serif" font-size="14.00">, S, δ, R²</text>
</g>
<!-- stats&#45;&gt;output -->
<g id="edge17" class="edge">
<title>stats&#45;&gt;output</title>
<path fill="none" stroke="#000000" d="M772.25,-139.42C774.48,-135.61 776.93,-131.44 779.42,-127.19"/>
<polygon fill="#000000" stroke="#000000" points="782.43,-128.97 784.47,-118.58 776.39,-125.43 782.43,-128.97"/>
</g>
<!-- output&#45;&gt;stop -->
<g id="edge18" class="edge">
<title>output&#45;&gt;stop</title>
<path fill="none" stroke="#000000" d="M720.87,-61.44C693.99,-52.4 665.04,-42.66 642.11,-34.95"/>
<polygon fill="#000000" stroke="#000000" points="643.4,-31.69 632.8,-31.82 641.17,-38.32 643.4,-31.69"/>
</g>
</g>
</svg>
