<?xml version="1.0" encoding="UTF-8" standalone="no"?>
<!DOCTYPE svg PUBLIC "-//W3C//DTD SVG 1.1//EN"
 "http://www.w3.org/Graphics/SVG/1.1/DTD/svg11.dtd">
<!-- Generated by graphviz version 14.1.5 (0)
 -->
<!-- Title: LSPoly Pages: 1 -->
<svg width="881pt" height="875pt"
 viewBox="0.00 0.00 881.00 875.00" xmlns="http://www.w3.org/2000/svg" xmlns:xlink="http://www.w3.org/1999/xlink">
<g id="graph0" class="graph" transform="scale(1 1) rotate(0) translate(4 870.53)">
<title>LSPoly</title>
<polygon fill="white" stroke="none" points="-4,4 -4,-870.53 877.1,-870.53 877.1,4 -4,4"/>
<!-- start -->
<g id="node1" class="node">
<title>start</title>
<ellipse fill="#e6eefc" stroke="#000000" cx="240" cy="-847.09" rx="96.7" ry="19.45"/>
<text xml:space="preserve" text-anchor="middle" x="240" y="-843.54" font-family="CMU Serif" font-size="14.00">Начало: fitPoly(m)</text>
</g>
<!-- input -->
<g id="node2" class="node">
<title>input</title>
<polygon fill="#f5f5f5" stroke="#000000" points="415.21,-804.64 136.49,-804.64 64.79,-749.64 343.51,-749.64 415.21,-804.64"/>
<text xml:space="preserve" text-anchor="start" x="163.5" y="-774.59" font-family="CMU Serif" font-size="14.00">Ввод: n точек (x</text>
<text xml:space="preserve" text-anchor="start" x="270.75" y="-774.59" font-family="CMU Serif" baseline-shift="sub" font-size="14.00">i</text>
<text xml:space="preserve" text-anchor="start" x="273.75" y="-774.59" font-family="CMU Serif" font-size="14.00">, y</text>
<text xml:space="preserve" text-anchor="start" x="288.75" y="-774.59" font-family="CMU Serif" baseline-shift="sub" font-size="14.00">i</text>
<text xml:space="preserve" text-anchor="start" x="291.75" y="-774.59" font-family="CMU Serif" font-size="14.00">), m</text>
</g>
<!-- start&#45;&gt;input -->
<g id="edge1" class="edge">
<title>start&#45;&gt;input</title>
<path fill="none" stroke="#000000" d="M240,-827.16C240,-823.74 240,-820.07 240,-816.33"/>
<polygon fill="#000000" stroke="#000000" points="243.5,-816.6 240,-806.6 236.5,-816.6 243.5,-816.6"/>
</g>
<!-- zero1 -->
<g id="node3" class="node">
<title>zero1</title>
<polygon fill="#ffffff" stroke="#000000" points="312.88,-726.64 167.12,-726.64 167.12,-676.64 312.88,-676.64 312.88,-726.64"/>
<text xml:space="preserve" text-anchor="start" x="175.12" y="-710.34" font-family="CMU Serif" font-size="14.00">s</text>
<text xml:space="preserve" text-anchor="start" x="181.88" y="-710.34" font-family="CMU Serif" baseline-shift="sub" font-size="14.00">k</text>
<text xml:space="preserve" text-anchor="start" x="187.88" y="-710.34" font-family="CMU Serif" font-size="14.00"> = 0 для k = 0..2m</text>
<text xml:space="preserve" text-anchor="start" x="180" y="-696.34" font-family="CMU Serif" font-size="14.00">t</text>
<text xml:space="preserve" text-anchor="start" x="185.25" y="-696.34" font-family="CMU Serif" baseline-shift="sub" font-size="14.00">k</text>
<text xml:space="preserve" text-anchor="start" x="191.25" y="-696.34" font-family="CMU Serif" font-size="14.00"> = 0 для k = 0..m</text>
<text xml:space="preserve" text-anchor="start" x="226.12" y="-682.34" font-family="CMU Serif" font-size="14.00">i = 1</text>
</g>
<!-- input&#45;&gt;zero1 -->
<g id="edge2" class="edge">
<title>input&#45;&gt;zero1</title>
<path fill="none" stroke="#000000" d="M240,-749.19C240,-745.5 240,-741.67 240,-737.87"/>
<polygon fill="#000000" stroke="#000000" points="243.5,-738.19 240,-728.19 236.5,-738.19 243.5,-738.19"/>
</g>
<!-- loop1 -->
<g id="node4" class="node">
<title>loop1</title>
<polygon fill="#fff7d1" stroke="#000000" points="240,-653.64 185.75,-626.14 240,-598.64 294.25,-626.14 240,-653.64"/>
<text xml:space="preserve" text-anchor="start" x="220.88" y="-620.89" font-family="CMU Serif" font-size="14.00">i ≤ n?</text>
</g>
<!-- zero1&#45;&gt;loop1 -->
<g id="edge3" class="edge">
<title>zero1&#45;&gt;loop1</title>
<path fill="none" stroke="#000000" d="M240,-676.17C240,-672.73 240,-669.13 240,-665.51"/>
<polygon fill="#000000" stroke="#000000" points="243.5,-665.55 240,-655.55 236.5,-665.55 243.5,-665.55"/>
</g>
<!-- init2 -->
<g id="node5" class="node">
<title>init2</title>
<polygon fill="#ffffff" stroke="#000000" points="198.88,-557.89 143.12,-557.89 143.12,-510.89 198.88,-510.89 198.88,-557.89"/>
<text xml:space="preserve" text-anchor="start" x="151.12" y="-538.89" font-family="CMU Serif" font-size="14.00">xp = 1</text>
<text xml:space="preserve" text-anchor="start" x="155.25" y="-519.39" font-family="CMU Serif" font-size="14.00">k = 0</text>
</g>
<!-- loop1&#45;&gt;init2 -->
<g id="edge4" class="edge">
<title>loop1&#45;&gt;init2</title>
<path fill="none" stroke="#000000" d="M225.37,-606.11C216.71,-594.84 205.52,-580.29 195.54,-567.31"/>
<polygon fill="#000000" stroke="#000000" points="198.34,-565.21 189.47,-559.41 192.79,-569.47 198.34,-565.21"/>
<text xml:space="preserve" text-anchor="middle" x="216.76" y="-576.24" font-family="CMU Serif" font-size="12.00">да</text>
</g>
<!-- build -->
<g id="node9" class="node">
<title>build</title>
<polygon fill="#ffffff" stroke="#000000" points="402.12,-559.39 293.88,-559.39 293.88,-509.39 402.12,-509.39 402.12,-559.39"/>
<text xml:space="preserve" text-anchor="start" x="318.38" y="-543.09" font-family="CMU Serif" font-size="14.00">A</text>
<text xml:space="preserve" text-anchor="start" x="327.38" y="-543.09" font-family="CMU Serif" baseline-shift="sub" font-size="14.00">j,k</text>
<text xml:space="preserve" text-anchor="start" x="339.38" y="-543.09" font-family="CMU Serif" font-size="14.00"> = s</text>
<text xml:space="preserve" text-anchor="start" x="361.88" y="-543.09" font-family="CMU Serif" baseline-shift="sub" font-size="14.00">j+k</text>
<text xml:space="preserve" text-anchor="start" x="330.38" y="-529.09" font-family="CMU Serif" font-size="14.00">b</text>
<text xml:space="preserve" text-anchor="start" x="338.62" y="-529.09" font-family="CMU Serif" baseline-shift="sub" font-size="14.00">j</text>
<text xml:space="preserve" text-anchor="start" x="341.62" y="-529.09" font-family="CMU Serif" font-size="14.00"> = t</text>
<text xml:space="preserve" text-anchor="start" x="362.62" y="-529.09" font-family="CMU Serif" baseline-shift="sub" font-size="14.00">j</text>
<text xml:space="preserve" text-anchor="start" x="301.88" y="-515.09" font-family="CMU Serif" font-size="14.00">для j, k = 0..m</text>
</g>
<!-- loop1&#45;&gt;build -->
<g id="edge10" class="edge">
<title>loop1&#45;&gt;build</title>
<path fill="none" stroke="#000000" d="M260.06,-608.47C274.09,-596.81 293.25,-580.89 310.11,-566.88"/>
<polygon fill="#000000" stroke="#000000" points="312.05,-569.81 317.51,-560.73 307.58,-564.43 312.05,-569.81"/>
<text xml:space="preserve" text-anchor="middle" x="313.42" y="-576.24" font-family="CMU Serif" font-size="12.00">нет</text>
</g>
<!-- loop2 -->
<g id="node6" class="node">
<title>loop2</title>
<polygon fill="#fff7d1" stroke="#000000" points="130,-486.39 48.75,-458.89 130,-431.39 211.25,-458.89 130,-486.39"/>
<text xml:space="preserve" text-anchor="start" x="97.38" y="-453.64" font-family="CMU Serif" font-size="14.00">k ≤ 2 · m?</text>
</g>
<!-- init2&#45;&gt;loop2 -->
<g id="edge5" class="edge">
<title>init2&#45;&gt;loop2</title>
<path fill="none" stroke="#000000" d="M158.25,-510.54C155.06,-504.81 151.57,-498.56 148.17,-492.47"/>
<polygon fill="#000000" stroke="#000000" points="151.26,-490.83 143.34,-483.8 145.15,-494.24 151.26,-490.83"/>
</g>
<!-- acc -->
<g id="node7" class="node">
<title>acc</title>
<polygon fill="#ffffff" stroke="#000000" points="190,-392.14 0,-392.14 0,-328.14 190,-328.14 190,-392.14"/>
<text xml:space="preserve" text-anchor="start" x="58.62" y="-375.84" font-family="CMU Serif" font-size="14.00">s</text>
<text xml:space="preserve" text-anchor="start" x="65.38" y="-375.84" font-family="CMU Serif" baseline-shift="sub" font-size="14.00">k</text>
<text xml:space="preserve" text-anchor="start" x="71.38" y="-375.84" font-family="CMU Serif" font-size="14.00"> = s</text>
<text xml:space="preserve" text-anchor="start" x="93.88" y="-375.84" font-family="CMU Serif" baseline-shift="sub" font-size="14.00">k</text>
<text xml:space="preserve" text-anchor="start" x="99.88" y="-375.84" font-family="CMU Serif" font-size="14.00"> + xp</text>
<text xml:space="preserve" text-anchor="start" x="8" y="-361.84" font-family="CMU Serif" font-size="14.00">если k ≤ m: t</text>
<text xml:space="preserve" text-anchor="start" x="95.75" y="-361.84" font-family="CMU Serif" baseline-shift="sub" font-size="14.00">k</text>
<text xml:space="preserve" text-anchor="start" x="101.75" y="-361.84" font-family="CMU Serif" font-size="14.00"> = t</text>
<text xml:space="preserve" text-anchor="start" x="122.75" y="-361.84" font-family="CMU Serif" baseline-shift="sub" font-size="14.00">k</text>
<text xml:space="preserve" text-anchor="start" x="128.75" y="-361.84" font-family="CMU Serif" font-size="14.00"> + xp · y</text>
<text xml:space="preserve" text-anchor="start" x="179" y="-361.84" font-family="CMU Serif" baseline-shift="sub" font-size="14.00">i</text>
<text xml:space="preserve" text-anchor="start" x="60.5" y="-347.84" font-family="CMU Serif" font-size="14.00">xp = xp · x</text>
<text xml:space="preserve" text-anchor="start" x="126.5" y="-347.84" font-family="CMU Serif" baseline-shift="sub" font-size="14.00">i</text>
<text xml:space="preserve" text-anchor="start" x="67.62" y="-333.84" font-family="CMU Serif" font-size="14.00">k = k + 1</text>
</g>
<!-- loop2&#45;&gt;acc -->
<g id="edge6" class="edge">
<title>loop2&#45;&gt;acc</title>
<path fill="none" stroke="#000000" d="M121.35,-433.98C117.98,-424.67 114.02,-413.73 110.21,-403.2"/>
<polygon fill="#000000" stroke="#000000" points="113.54,-402.09 106.84,-393.88 106.95,-404.47 113.54,-402.09"/>
<text xml:space="preserve" text-anchor="middle" x="122.76" y="-408.99" font-family="CMU Serif" font-size="12.00">да</text>
</g>
<!-- next1 -->
<g id="node8" class="node">
<title>next1</title>
<polygon fill="#ffffff" stroke="#000000" points="271.62,-378.14 208.38,-378.14 208.38,-342.14 271.62,-342.14 271.62,-378.14"/>
<text xml:space="preserve" text-anchor="start" x="216.38" y="-354.89" font-family="CMU Serif" font-size="14.00">i = i + 1</text>
</g>
<!-- loop2&#45;&gt;next1 -->
<g id="edge8" class="edge">
<title>loop2&#45;&gt;next1</title>
<path fill="none" stroke="#000000" d="M152,-438.54C169.13,-423.47 193.04,-402.44 211.62,-386.1"/>
<polygon fill="#000000" stroke="#000000" points="213.92,-388.74 219.12,-379.5 209.3,-383.48 213.92,-388.74"/>
<text xml:space="preserve" text-anchor="middle" x="201.34" y="-408.99" font-family="CMU Serif" font-size="12.00">нет</text>
</g>
<!-- acc&#45;&gt;loop2 -->
<g id="edge7" class="edge">
<title>acc&#45;&gt;loop2</title>
<path fill="none" stroke="#000000" d="M102.94,-392.5C106.54,-406.71 110,-420.39 110,-420.39 110,-420.39 110.98,-422.23 112.51,-425.1"/>
<polygon fill="#000000" stroke="#000000" points="109.4,-426.7 117.19,-433.88 115.57,-423.41 109.4,-426.7"/>
</g>
<!-- next1&#45;&gt;loop1 -->
<g id="edge9" class="edge">
<title>next1&#45;&gt;loop1</title>
<path fill="none" stroke="#000000" d="M240,-378.57C240,-420.76 240,-529.12 240,-587.14"/>
<polygon fill="#000000" stroke="#000000" points="236.5,-586.86 240,-596.86 243.5,-586.86 236.5,-586.86"/>
</g>
<!-- gauss -->
<g id="node10" class="node">
<title>gauss</title>
<polygon fill="#eef2ff" stroke="#000000" points="557.25,-476.89 344.75,-476.89 344.75,-440.89 557.25,-440.89 557.25,-476.89"/>
<text xml:space="preserve" text-anchor="middle" x="451" y="-455.34" font-family="CMU Serif" font-size="14.00">Вызов GaussSolver.solve(A, b)</text>
</g>
<!-- build&#45;&gt;gauss -->
<g id="edge11" class="edge">
<title>build&#45;&gt;gauss</title>
<path fill="none" stroke="#000000" d="M382.3,-508.92C393.64,-500.83 406.23,-491.84 417.51,-483.79"/>
<polygon fill="#000000" stroke="#000000" points="419.28,-486.83 425.38,-478.17 415.21,-481.13 419.28,-486.83"/>
</g>
<!-- check -->
<g id="node11" class="node">
<title>check</title>
<polygon fill="#fff7d1" stroke="#000000" points="528,-387.64 290,-360.14 528,-332.64 766,-360.14 528,-387.64"/>
<text xml:space="preserve" text-anchor="start" x="417" y="-354.89" font-family="CMU Serif" font-size="14.00">статус = Единственное решение?</text>
</g>
<!-- gauss&#45;&gt;check -->
<g id="edge12" class="edge">
<title>gauss&#45;&gt;check</title>
<path fill="none" stroke="#000000" d="M464.77,-440.59C474.96,-427.78 489.18,-409.92 501.54,-394.38"/>
<polygon fill="#000000" stroke="#000000" points="504.14,-396.75 507.63,-386.74 498.66,-392.39 504.14,-396.75"/>
</g>
<!-- degen -->
<g id="node12" class="node">
<title>degen</title>
<polygon fill="#fde2e2" stroke="#000000" points="580.45,-241.89 425.43,-241.89 385.55,-186.89 540.57,-186.89 580.45,-241.89"/>
<text xml:space="preserve" text-anchor="middle" x="483" y="-210.84" font-family="CMU Serif" font-size="14.00">Вырождена</text>
</g>
<!-- check&#45;&gt;degen -->
<g id="edge13" class="edge">
<title>check&#45;&gt;degen</title>
<path fill="none" stroke="#000000" d="M519.85,-333.11C512.83,-310.7 502.62,-278.08 494.73,-252.86"/>
<polygon fill="#000000" stroke="#000000" points="498.17,-252.15 491.85,-243.65 491.49,-254.24 498.17,-252.15"/>
<text xml:space="preserve" text-anchor="middle" x="523.74" y="-305.74" font-family="CMU Serif" font-size="12.00">нет</text>
</g>
<!-- setc -->
<g id="node13" class="node">
<title>setc</title>
<polygon fill="#ffffff" stroke="#000000" points="692.75,-288.89 519.25,-288.89 519.25,-252.89 692.75,-252.89 692.75,-288.89"/>
<text xml:space="preserve" text-anchor="start" x="527.25" y="-268.34" font-family="CMU Serif" font-size="14.00">a</text>
<text xml:space="preserve" text-anchor="start" x="534.75" y="-268.34" font-family="CMU Serif" baseline-shift="sub" font-size="14.00">0</text>
<text xml:space="preserve" text-anchor="start" x="541.5" y="-268.34" font-family="CMU Serif" font-size="14.00">, a</text>
<text xml:space="preserve" text-anchor="start" x="556.5" y="-268.34" font-family="CMU Serif" baseline-shift="sub" font-size="14.00">1</text>
<text xml:space="preserve" text-anchor="start" x="563.25" y="-268.34" font-family="CMU Serif" font-size="14.00">, …, a</text>
<text xml:space="preserve" text-anchor="start" x="597" y="-268.34" font-family="CMU Serif" baseline-shift="sub" font-size="14.00">m</text>
<text xml:space="preserve" text-anchor="start" x="608.25" y="-268.34" font-family="CMU Serif" font-size="14.00"> = решение</text>
</g>
<!-- check&#45;&gt;setc -->
<g id="edge15" class="edge">
<title>check&#45;&gt;setc</title>
<path fill="none" stroke="#000000" d="M549.73,-334.84C560.07,-323.26 572.45,-309.42 582.96,-297.66"/>
<polygon fill="#000000" stroke="#000000" points="585.5,-300.07 589.56,-290.28 580.28,-295.41 585.5,-300.07"/>
<text xml:space="preserve" text-anchor="middle" x="587.9" y="-305.74" font-family="CMU Serif" font-size="12.00">да</text>
</g>
<!-- stop -->
<g id="node16" class="node">
<title>stop</title>
<ellipse fill="#e6eefc" stroke="#000000" cx="485" cy="-19.45" rx="39.95" ry="19.45"/>
<text xml:space="preserve" text-anchor="middle" x="485" y="-15.9" font-family="CMU Serif" font-size="14.00">Конец</text>
</g>
<!-- degen&#45;&gt;stop -->
<g id="edge14" class="edge">
<title>degen&#45;&gt;stop</title>
<path fill="none" stroke="#000000" d="M483.28,-186.56C483.65,-150.78 484.3,-87.62 484.69,-50.34"/>
<polygon fill="#000000" stroke="#000000" points="488.19,-50.76 484.79,-40.73 481.19,-50.69 488.19,-50.76"/>
</g>
<!-- stats -->
<g id="node14" class="node">
<title>stats</title>
<polygon fill="#eef2ff" stroke="#000000" points="756.12,-175.89 539.88,-175.89 539.88,-139.89 756.12,-139.89 756.12,-175.89"/>
<text xml:space="preserve" text-anchor="middle" x="648" y="-154.34" font-family="CMU Serif" font-size="14.00">Вызов fillResidualsAndStats(a)</text>
</g>
<!-- setc&#45;&gt;stats -->
<g id="edge16" class="edge">
<title>setc&#45;&gt;stats</title>
<path fill="none" stroke="#000000" d="M612.56,-252.55C619.22,-234.95 629.63,-207.44 637.45,-186.78"/>
<polygon fill="#000000" stroke="#000000" points="640.68,-188.12 640.95,-177.53 634.14,-185.64 640.68,-188.12"/>
</g>
<!-- output -->
<g id="node15" class="node">
<title>output</title>
<polygon fill="#dcfce7" stroke="#000000" points="873.1,-116.89 577.06,-116.89 500.9,-61.89 796.94,-61.89 873.1,-116.89"/>
<text xml:space="preserve" text-anchor="start" x="605.25" y="-86.84" font-family="CMU Serif" font-size="14.00">Вывод: a</text>
<text xml:space="preserve" text-anchor="start" x="664.5" y="-86.84" font-family="CMU Serif" baseline-shift="sub" font-size="14.00">0</text>
<text xml:space="preserve" text-anchor="start" x="671.25" y="-86.84" font-family="CMU Serif" font-size="14.00">, …, a</text>
<text xml:space="preserve" text-anchor="start" x="705" y="-86.84" font-family="CMU Serif" baseline-shift="sub" font-size="14.00">m</text>
<text xml:space="preserve" text-anchor="start" x="716.25" y="-86.84" font-family="CMU Serif" font-size="14.00">, S, δ, R²</text>
</g>
<!-- stats&#45;&gt;output -->
<g id="edge17" class="edge">
<title>stats&#45;&gt;output</title>
<path fill="none" stroke="#000000" d="M658.25,-139.42C660.48,-135.61 662.93,-131.44 665.42,-127.19"/>
<polygon fill="#000000" stroke="#000000" points="668.43,-128.97 670.47,-118.58 662.39,-125.43 668.43,-128.97"/>
</g>
<!-- output&#45;&gt;stop -->
<g id="edge18" class="edge">
<title>output&#45;&gt;stop</title>
<path fill="none" stroke="#000000" d="M606.87,-61.44C579.99,-52.4 551.04,-42.66 528.11,-34.95"/>
<polygon fill="#000000" stroke="#000000" points="529.4,-31.69 518.8,-31.82 527.17,-38.32 529.4,-31.69"/>
</g>
</g>
</svg>
