<?xml version="1.0" encoding="UTF-8" standalone="no"?>
<!DOCTYPE svg PUBLIC "-//W3C//DTD SVG 1.1//EN"
 "http://www.w3.org/Graphics/SVG/1.1/DTD/svg11.dtd">
<!-- Generated by graphviz version 14.1.5 (0)
 -->
<!-- Title: LSStats Pages: 1 -->
<svg width="683pt" height="870pt"
 viewBox="0.00 0.00 683.00 870.00" xmlns="http://www.w3.org/2000/svg" xmlns:xlink="http://www.w3.org/1999/xlink">
<g id="graph0" class="graph" transform="scale(1 1) rotate(0) translate(4 866.03)">
<title>LSStats</title>
<polygon fill="white" stroke="none" points="-4,4 -4,-866.03 679.16,-866.03 679.16,4 -4,4"/>
<!-- start -->
<g id="node1" class="node">
<title>start</title>
<ellipse fill="#e6eefc" stroke="#000000" cx="268.52" cy="-842.59" rx="149.2" ry="19.45"/>
<text xml:space="preserve" text-anchor="middle" x="268.52" y="-839.04" font-family="CMU Serif" font-size="14.00">Начало: fillResidualsAndStats</text>
</g>
<!-- input -->
<g id="node2" class="node">
<title>input</title>
<polygon fill="#f5f5f5" stroke="#000000" points="537.04,-800.14 109.88,-800.14 0,-745.14 427.15,-745.14 537.04,-800.14"/>
<text xml:space="preserve" text-anchor="start" x="147.02" y="-770.09" font-family="CMU Serif" font-size="14.00">Ввод: коэффициенты, n точек (x</text>
<text xml:space="preserve" text-anchor="start" x="364.52" y="-770.09" font-family="CMU Serif" baseline-shift="sub" font-size="14.00">i</text>
<text xml:space="preserve" text-anchor="start" x="367.52" y="-770.09" font-family="CMU Serif" font-size="14.00">, y</text>
<text xml:space="preserve" text-anchor="start" x="382.52" y="-770.09" font-family="CMU Serif" baseline-shift="sub" font-size="14.00">i</text>
<text xml:space="preserve" text-anchor="start" x="385.52" y="-770.09" font-family="CMU Serif" font-size="14.00">)</text>
</g>
<!-- start&#45;&gt;input -->
<g id="edge1" class="edge">
<title>start&#45;&gt;input</title>
<path fill="none" stroke="#000000" d="M268.52,-822.66C268.52,-819.24 268.52,-815.57 268.52,-811.83"/>
<polygon fill="#000000" stroke="#000000" points="272.02,-812.1 268.52,-802.1 265.02,-812.1 272.02,-812.1"/>
</g>
<!-- z1 -->
<g id="node3" class="node">
<title>z1</title>
<polygon fill="#ffffff" stroke="#000000" points="296.39,-722.14 240.64,-722.14 240.64,-655.64 296.39,-655.64 296.39,-722.14"/>
<text xml:space="preserve" text-anchor="start" x="252.77" y="-703.14" font-family="CMU Serif" font-size="14.00">S = 0</text>
<text xml:space="preserve" text-anchor="start" x="248.64" y="-683.64" font-family="CMU Serif" font-size="14.00">SY = 0</text>
<text xml:space="preserve" text-anchor="start" x="254.64" y="-664.14" font-family="CMU Serif" font-size="14.00">i = 1</text>
</g>
<!-- input&#45;&gt;z1 -->
<g id="edge2" class="edge">
<title>input&#45;&gt;z1</title>
<path fill="none" stroke="#000000" d="M268.52,-744.87C268.52,-741.29 268.52,-737.54 268.52,-733.75"/>
<polygon fill="#000000" stroke="#000000" points="272.02,-733.94 268.52,-723.94 265.02,-733.94 272.02,-733.94"/>
</g>
<!-- loop1 -->
<g id="node4" class="node">
<title>loop1</title>
<polygon fill="#fff7d1" stroke="#000000" points="268.52,-632.64 214.27,-605.14 268.52,-577.64 322.77,-605.14 268.52,-632.64"/>
<text xml:space="preserve" text-anchor="start" x="249.39" y="-599.89" font-family="CMU Serif" font-size="14.00">i ≤ n?</text>
</g>
<!-- z1&#45;&gt;loop1 -->
<g id="edge3" class="edge">
<title>z1&#45;&gt;loop1</title>
<path fill="none" stroke="#000000" d="M268.52,-655.58C268.52,-651.83 268.52,-647.98 268.52,-644.17"/>
<polygon fill="#000000" stroke="#000000" points="272.02,-644.46 268.52,-634.46 265.02,-644.46 272.02,-644.46"/>
</g>
<!-- body1 -->
<g id="node5" class="node">
<title>body1</title>
<polygon fill="#ffffff" stroke="#000000" points="289.52,-538.39 189.52,-538.39 189.52,-460.39 289.52,-460.39 289.52,-538.39"/>
<text xml:space="preserve" text-anchor="start" x="197.52" y="-522.09" font-family="CMU Serif" font-size="14.00">φ</text>
<text xml:space="preserve" text-anchor="start" x="208.02" y="-522.09" font-family="CMU Serif" baseline-shift="sub" font-size="14.00">i</text>
<text xml:space="preserve" text-anchor="start" x="211.02" y="-522.09" font-family="CMU Serif" font-size="14.00"> = phiAt(x</text>
<text xml:space="preserve" text-anchor="start" x="274.02" y="-522.09" font-family="CMU Serif" baseline-shift="sub" font-size="14.00">i</text>
<text xml:space="preserve" text-anchor="start" x="277.02" y="-522.09" font-family="CMU Serif" font-size="14.00">)</text>
<text xml:space="preserve" text-anchor="start" x="206.89" y="-508.09" font-family="CMU Serif" font-size="14.00">ε</text>
<text xml:space="preserve" text-anchor="start" x="213.64" y="-508.09" font-family="CMU Serif" baseline-shift="sub" font-size="14.00">i</text>
<text xml:space="preserve" text-anchor="start" x="216.64" y="-508.09" font-family="CMU Serif" font-size="14.00"> = φ</text>
<text xml:space="preserve" text-anchor="start" x="242.89" y="-508.09" font-family="CMU Serif" baseline-shift="sub" font-size="14.00">i</text>
<text xml:space="preserve" text-anchor="start" x="245.89" y="-508.09" font-family="CMU Serif" font-size="14.00"> − y</text>
<text xml:space="preserve" text-anchor="start" x="269.14" y="-508.09" font-family="CMU Serif" baseline-shift="sub" font-size="14.00">i</text>
<text xml:space="preserve" text-anchor="start" x="200.89" y="-494.09" font-family="CMU Serif" font-size="14.00">S = S + ε</text>
<text xml:space="preserve" text-anchor="start" x="254.14" y="-494.09" font-family="CMU Serif" baseline-shift="sub" font-size="14.00">i</text>
<text xml:space="preserve" text-anchor="start" x="257.14" y="-494.09" font-family="CMU Serif" font-size="14.00"> · ε</text>
<text xml:space="preserve" text-anchor="start" x="275.14" y="-494.09" font-family="CMU Serif" baseline-shift="sub" font-size="14.00">i</text>
<text xml:space="preserve" text-anchor="start" x="202.77" y="-480.09" font-family="CMU Serif" font-size="14.00">SY = SY + y</text>
<text xml:space="preserve" text-anchor="start" x="273.27" y="-480.09" font-family="CMU Serif" baseline-shift="sub" font-size="14.00">i</text>
<text xml:space="preserve" text-anchor="start" x="215.89" y="-466.09" font-family="CMU Serif" font-size="14.00">i = i + 1</text>
</g>
<!-- loop1&#45;&gt;body1 -->
<g id="edge4" class="edge">
<title>loop1&#45;&gt;body1</title>
<path fill="none" stroke="#000000" d="M254.06,-584.95C247.11,-575.73 240.27,-566.64 240.27,-566.64 240.27,-566.64 240.19,-559.43 240.08,-549.77"/>
<polygon fill="#000000" stroke="#000000" points="243.58,-550.02 239.97,-540.06 236.58,-550.1 243.58,-550.02"/>
<text xml:space="preserve" text-anchor="middle" x="247.39" y="-555.24" font-family="CMU Serif" font-size="12.00">да</text>
</g>
<!-- meany -->
<g id="node6" class="node">
<title>meany</title>
<polygon fill="#ffffff" stroke="#000000" points="383.89,-532.64 307.14,-532.64 307.14,-466.14 383.89,-466.14 383.89,-532.64"/>
<text xml:space="preserve" text-anchor="start" x="315.14" y="-513.64" font-family="CMU Serif" font-size="14.00">ȳ = SY / n</text>
<text xml:space="preserve" text-anchor="start" x="322.27" y="-494.14" font-family="CMU Serif" font-size="14.00">SST = 0</text>
<text xml:space="preserve" text-anchor="start" x="331.64" y="-474.64" font-family="CMU Serif" font-size="14.00">i = 1</text>
</g>
<!-- loop1&#45;&gt;meany -->
<g id="edge6" class="edge">
<title>loop1&#45;&gt;meany</title>
<path fill="none" stroke="#000000" d="M283,-584.63C291.95,-572.57 303.78,-556.63 314.74,-541.87"/>
<polygon fill="#000000" stroke="#000000" points="317.36,-544.2 320.51,-534.09 311.74,-540.03 317.36,-544.2"/>
<text xml:space="preserve" text-anchor="middle" x="316.77" y="-555.24" font-family="CMU Serif" font-size="12.00">нет</text>
</g>
<!-- body1&#45;&gt;loop1 -->
<g id="edge5" class="edge">
<title>body1&#45;&gt;loop1</title>
<path fill="none" stroke="#000000" d="M251.19,-538.52C253.13,-544.84 254.52,-549.39 254.52,-549.39 254.52,-549.39 256.84,-558.47 259.59,-569.23"/>
<polygon fill="#000000" stroke="#000000" points="256.18,-570 262.04,-578.82 262.96,-568.26 256.18,-570"/>
</g>
<!-- loop2 -->
<g id="node7" class="node">
<title>loop2</title>
<polygon fill="#fff7d1" stroke="#000000" points="345.52,-437.39 291.27,-409.89 345.52,-382.39 399.77,-409.89 345.52,-437.39"/>
<text xml:space="preserve" text-anchor="start" x="326.39" y="-404.64" font-family="CMU Serif" font-size="14.00">i ≤ n?</text>
</g>
<!-- meany&#45;&gt;loop2 -->
<g id="edge7" class="edge">
<title>meany&#45;&gt;loop2</title>
<path fill="none" stroke="#000000" d="M345.52,-465.81C345.52,-460.33 345.52,-454.6 345.52,-448.99"/>
<polygon fill="#000000" stroke="#000000" points="349.02,-449.29 345.52,-439.29 342.02,-449.29 349.02,-449.29"/>
</g>
<!-- body2 -->
<g id="node8" class="node">
<title>body2</title>
<polygon fill="#ffffff" stroke="#000000" points="376.64,-343.14 256.39,-343.14 256.39,-293.14 376.64,-293.14 376.64,-343.14"/>
<text xml:space="preserve" text-anchor="start" x="287.64" y="-326.84" font-family="CMU Serif" font-size="14.00">d = y</text>
<text xml:space="preserve" text-anchor="start" x="319.14" y="-326.84" font-family="CMU Serif" baseline-shift="sub" font-size="14.00">i</text>
<text xml:space="preserve" text-anchor="start" x="322.14" y="-326.84" font-family="CMU Serif" font-size="14.00"> − ȳ</text>
<text xml:space="preserve" text-anchor="start" x="264.39" y="-312.84" font-family="CMU Serif" font-size="14.00">SST = SST + d · d</text>
<text xml:space="preserve" text-anchor="start" x="292.89" y="-298.84" font-family="CMU Serif" font-size="14.00">i = i + 1</text>
</g>
<!-- loop2&#45;&gt;body2 -->
<g id="edge8" class="edge">
<title>loop2&#45;&gt;body2</title>
<path fill="none" stroke="#000000" d="M331.06,-389.7C324.11,-380.48 317.27,-371.39 317.27,-371.39 317.27,-371.39 317.16,-364 317.03,-354.77"/>
<polygon fill="#000000" stroke="#000000" points="320.53,-354.89 316.89,-344.94 313.53,-354.99 320.53,-354.89"/>
<text xml:space="preserve" text-anchor="middle" x="324.39" y="-359.99" font-family="CMU Serif" font-size="12.00">да</text>
</g>
<!-- rms -->
<g id="node9" class="node">
<title>rms</title>
<polygon fill="#ffffff" stroke="#000000" points="482.14,-336.14 394.89,-336.14 394.89,-300.14 482.14,-300.14 482.14,-336.14"/>
<text xml:space="preserve" text-anchor="start" x="402.89" y="-312.89" font-family="CMU Serif" font-size="14.00">δ = √(S / n)</text>
</g>
<!-- loop2&#45;&gt;rms -->
<g id="edge10" class="edge">
<title>loop2&#45;&gt;rms</title>
<path fill="none" stroke="#000000" d="M363.89,-391.16C377.74,-377.8 396.91,-359.29 412.36,-344.39"/>
<polygon fill="#000000" stroke="#000000" points="414.65,-347.04 419.41,-337.58 409.78,-342.01 414.65,-347.04"/>
<text xml:space="preserve" text-anchor="middle" x="410.1" y="-359.99" font-family="CMU Serif" font-size="12.00">нет</text>
</g>
<!-- body2&#45;&gt;loop2 -->
<g id="edge9" class="edge">
<title>body2&#45;&gt;loop2</title>
<path fill="none" stroke="#000000" d="M326.94,-343.45C329.5,-349.42 331.52,-354.14 331.52,-354.14 331.52,-354.14 333.84,-363.22 336.59,-373.98"/>
<polygon fill="#000000" stroke="#000000" points="333.18,-374.75 339.04,-383.57 339.96,-373.01 333.18,-374.75"/>
</g>
<!-- chk -->
<g id="node10" class="node">
<title>chk</title>
<polygon fill="#fff7d1" stroke="#000000" points="438.52,-270.14 371.52,-242.64 438.52,-215.14 505.52,-242.64 438.52,-270.14"/>
<text xml:space="preserve" text-anchor="start" x="413.02" y="-237.39" font-family="CMU Serif" font-size="14.00">SST &lt; ε?</text>
</g>
<!-- rms&#45;&gt;chk -->
<g id="edge11" class="edge">
<title>rms&#45;&gt;chk</title>
<path fill="none" stroke="#000000" d="M438.52,-299.72C438.52,-294.26 438.52,-287.99 438.52,-281.68"/>
<polygon fill="#000000" stroke="#000000" points="442.02,-281.93 438.52,-271.93 435.02,-281.93 442.02,-281.93"/>
</g>
<!-- r2a -->
<g id="node11" class="node">
<title>r2a</title>
<polygon fill="#ffffff" stroke="#000000" points="433.64,-175.89 307.39,-175.89 307.39,-139.89 433.64,-139.89 433.64,-175.89"/>
<text xml:space="preserve" text-anchor="start" x="315.39" y="-152.64" font-family="CMU Serif" font-size="14.00">R² = (S &lt; ε ? 1 : 0)</text>
</g>
<!-- chk&#45;&gt;r2a -->
<g id="edge12" class="edge">
<title>chk&#45;&gt;r2a</title>
<path fill="none" stroke="#000000" d="M422.06,-221.61C412.97,-210.56 401.59,-196.7 391.83,-184.83"/>
<polygon fill="#000000" stroke="#000000" points="394.77,-182.89 385.72,-177.39 389.36,-187.33 394.77,-182.89"/>
<text xml:space="preserve" text-anchor="middle" x="413.68" y="-192.74" font-family="CMU Serif" font-size="12.00">да</text>
</g>
<!-- r2b -->
<g id="node12" class="node">
<title>r2b</title>
<polygon fill="#ffffff" stroke="#000000" points="564.89,-175.89 452.14,-175.89 452.14,-139.89 564.89,-139.89 564.89,-175.89"/>
<text xml:space="preserve" text-anchor="start" x="460.14" y="-152.64" font-family="CMU Serif" font-size="14.00">R² = 1 − S / SST</text>
</g>
<!-- chk&#45;&gt;r2b -->
<g id="edge13" class="edge">
<title>chk&#45;&gt;r2b</title>
<path fill="none" stroke="#000000" d="M455.46,-221.61C464.81,-210.56 476.53,-196.7 486.58,-184.83"/>
<polygon fill="#000000" stroke="#000000" points="489.1,-187.27 492.89,-177.37 483.76,-182.75 489.1,-187.27"/>
<text xml:space="preserve" text-anchor="middle" x="493.63" y="-192.74" font-family="CMU Serif" font-size="12.00">нет</text>
</g>
<!-- output -->
<g id="node13" class="node">
<title>output</title>
<polygon fill="#dcfce7" stroke="#000000" points="675.16,-116.89 298.72,-116.89 201.88,-61.89 578.32,-61.89 675.16,-116.89"/>
<text xml:space="preserve" text-anchor="start" x="332.39" y="-86.84" font-family="CMU Serif" font-size="14.00">Вывод: φ</text>
<text xml:space="preserve" text-anchor="start" x="394.64" y="-86.84" font-family="CMU Serif" baseline-shift="sub" font-size="14.00">i</text>
<text xml:space="preserve" text-anchor="start" x="397.64" y="-86.84" font-family="CMU Serif" font-size="14.00">, ε</text>
<text xml:space="preserve" text-anchor="start" x="411.89" y="-86.84" font-family="CMU Serif" baseline-shift="sub" font-size="14.00">i</text>
<text xml:space="preserve" text-anchor="start" x="414.89" y="-86.84" font-family="CMU Serif" font-size="14.00"> для i = 1..n, S, δ, R²</text>
</g>
<!-- r2a&#45;&gt;output -->
<g id="edge14" class="edge">
<title>r2a&#45;&gt;output</title>
<path fill="none" stroke="#000000" d="M388.39,-139.42C392.93,-134.97 397.98,-130.04 403.07,-125.06"/>
<polygon fill="#000000" stroke="#000000" points="405.25,-127.82 409.95,-118.33 400.35,-122.82 405.25,-127.82"/>
</g>
<!-- r2b&#45;&gt;output -->
<g id="edge15" class="edge">
<title>r2b&#45;&gt;output</title>
<path fill="none" stroke="#000000" d="M490.13,-139.42C485.45,-134.97 480.25,-130.04 475.02,-125.06"/>
<polygon fill="#000000" stroke="#000000" points="477.57,-122.66 467.91,-118.31 472.75,-127.74 477.57,-122.66"/>
</g>
<!-- stop -->
<g id="node14" class="node">
<title>stop</title>
<ellipse fill="#e6eefc" stroke="#000000" cx="438.52" cy="-19.45" rx="39.95" ry="19.45"/>
<text xml:space="preserve" text-anchor="middle" x="438.52" y="-15.9" font-family="CMU Serif" font-size="14.00">Конец</text>
</g>
<!-- output&#45;&gt;stop -->
<g id="edge16" class="edge">
<title>output&#45;&gt;stop</title>
<path fill="none" stroke="#000000" d="M438.52,-61.54C438.52,-57.94 438.52,-54.24 438.52,-50.59"/>
<polygon fill="#000000" stroke="#000000" points="442.02,-50.87 438.52,-40.87 435.02,-50.87 442.02,-50.87"/>
</g>
</g>
</svg>
