<?xml version="1.0" encoding="UTF-8" standalone="no"?>
<!DOCTYPE svg PUBLIC "-//W3C//DTD SVG 1.1//EN"
 "http://www.w3.org/Graphics/SVG/1.1/DTD/svg11.dtd">
<!-- Generated by graphviz version 14.1.5 (0)
 -->
<!-- Title: LSStats Pages: 1 -->
<svg width="682pt" height="870pt"
 viewBox="0.00 0.00 682.00 870.00" xmlns="http://www.w3.org/2000/svg" xmlns:xlink="http://www.w3.org/1999/xlink">
<g id="graph0" class="graph" transform="scale(1 1) rotate(0) translate(4 866.03)">
<title>LSStats</title>
<polygon fill="white" stroke="none" points="-4,4 -4,-866.03 678.38,-866.03 678.38,4 -4,4"/>
<!-- start -->
<g id="node1" class="node">
<title>start</title>
<ellipse fill="#e6eefc" stroke="#000000" cx="284.07" cy="-842.59" rx="149.2" ry="19.45"/>
<text xml:space="preserve" text-anchor="middle" x="284.07" y="-839.04" font-family="CMU Serif" font-size="14.00">Начало: fillResidualsAndStats</text>
</g>
<!-- input -->
<g id="node2" class="node">
<title>input</title>
<polygon fill="#f5f5f5" stroke="#000000" points="568.14,-800.14 116.25,-800.14 0,-745.14 451.89,-745.14 568.14,-800.14"/>
<text xml:space="preserve" text-anchor="middle" x="284.07" y="-769.09" font-family="CMU Serif" font-size="14.00">Ввод: коэффициенты, x[1..n], y[1..n], n</text>
</g>
<!-- start&#45;&gt;input -->
<g id="edge1" class="edge">
<title>start&#45;&gt;input</title>
<path fill="none" stroke="#000000" d="M284.07,-822.66C284.07,-819.24 284.07,-815.57 284.07,-811.83"/>
<polygon fill="#000000" stroke="#000000" points="287.57,-812.1 284.07,-802.1 280.57,-812.1 287.57,-812.1"/>
</g>
<!-- z1 -->
<g id="node3" class="node">
<title>z1</title>
<polygon fill="#ffffff" stroke="#000000" points="311.95,-722.14 256.2,-722.14 256.2,-655.64 311.95,-655.64 311.95,-722.14"/>
<text xml:space="preserve" text-anchor="start" x="268.32" y="-703.14" font-family="CMU Serif" font-size="14.00">S = 0</text>
<text xml:space="preserve" text-anchor="start" x="264.2" y="-683.64" font-family="CMU Serif" font-size="14.00">SY = 0</text>
<text xml:space="preserve" text-anchor="start" x="270.2" y="-664.14" font-family="CMU Serif" font-size="14.00">i = 1</text>
</g>
<!-- input&#45;&gt;z1 -->
<g id="edge2" class="edge">
<title>input&#45;&gt;z1</title>
<path fill="none" stroke="#000000" d="M284.07,-744.87C284.07,-741.29 284.07,-737.54 284.07,-733.75"/>
<polygon fill="#000000" stroke="#000000" points="287.57,-733.94 284.07,-723.94 280.57,-733.94 287.57,-733.94"/>
</g>
<!-- loop1 -->
<g id="node4" class="node">
<title>loop1</title>
<polygon fill="#fff7d1" stroke="#000000" points="284.07,-632.64 229.82,-605.14 284.07,-577.64 338.32,-605.14 284.07,-632.64"/>
<text xml:space="preserve" text-anchor="start" x="264.95" y="-599.89" font-family="CMU Serif" font-size="14.00">i ≤ n?</text>
</g>
<!-- z1&#45;&gt;loop1 -->
<g id="edge3" class="edge">
<title>z1&#45;&gt;loop1</title>
<path fill="none" stroke="#000000" d="M284.07,-655.58C284.07,-651.83 284.07,-647.98 284.07,-644.17"/>
<polygon fill="#000000" stroke="#000000" points="287.57,-644.46 284.07,-634.46 280.57,-644.46 287.57,-644.46"/>
</g>
<!-- body1 -->
<g id="node5" class="node">
<title>body1</title>
<polygon fill="#ffffff" stroke="#000000" points="305.07,-538.39 205.07,-538.39 205.07,-460.39 305.07,-460.39 305.07,-538.39"/>
<text xml:space="preserve" text-anchor="start" x="213.07" y="-522.09" font-family="CMU Serif" font-size="14.00">φ</text>
<text xml:space="preserve" text-anchor="start" x="223.57" y="-522.09" font-family="CMU Serif" baseline-shift="sub" font-size="14.00">i</text>
<text xml:space="preserve" text-anchor="start" x="226.57" y="-522.09" font-family="CMU Serif" font-size="14.00"> = phiAt(x</text>
<text xml:space="preserve" text-anchor="start" x="289.57" y="-522.09" font-family="CMU Serif" baseline-shift="sub" font-size="14.00">i</text>
<text xml:space="preserve" text-anchor="start" x="292.57" y="-522.09" font-family="CMU Serif" font-size="14.00">)</text>
<text xml:space="preserve" text-anchor="start" x="222.45" y="-508.09" font-family="CMU Serif" font-size="14.00">ε</text>
<text xml:space="preserve" text-anchor="start" x="229.2" y="-508.09" font-family="CMU Serif" baseline-shift="sub" font-size="14.00">i</text>
<text xml:space="preserve" text-anchor="start" x="232.2" y="-508.09" font-family="CMU Serif" font-size="14.00"> = φ</text>
<text xml:space="preserve" text-anchor="start" x="258.45" y="-508.09" font-family="CMU Serif" baseline-shift="sub" font-size="14.00">i</text>
<text xml:space="preserve" text-anchor="start" x="261.45" y="-508.09" font-family="CMU Serif" font-size="14.00"> − y</text>
<text xml:space="preserve" text-anchor="start" x="284.7" y="-508.09" font-family="CMU Serif" baseline-shift="sub" font-size="14.00">i</text>
<text xml:space="preserve" text-anchor="start" x="216.45" y="-494.09" font-family="CMU Serif" font-size="14.00">S = S + ε</text>
<text xml:space="preserve" text-anchor="start" x="269.7" y="-494.09" font-family="CMU Serif" baseline-shift="sub" font-size="14.00">i</text>
<text xml:space="preserve" text-anchor="start" x="272.7" y="-494.09" font-family="CMU Serif" font-size="14.00"> · ε</text>
<text xml:space="preserve" text-anchor="start" x="290.7" y="-494.09" font-family="CMU Serif" baseline-shift="sub" font-size="14.00">i</text>
<text xml:space="preserve" text-anchor="start" x="218.32" y="-480.09" font-family="CMU Serif" font-size="14.00">SY = SY + y</text>
<text xml:space="preserve" text-anchor="start" x="288.82" y="-480.09" font-family="CMU Serif" baseline-shift="sub" font-size="14.00">i</text>
<text xml:space="preserve" text-anchor="start" x="231.45" y="-466.09" font-family="CMU Serif" font-size="14.00">i = i + 1</text>
</g>
<!-- loop1&#45;&gt;body1 -->
<g id="edge4" class="edge">
<title>loop1&#45;&gt;body1</title>
<path fill="none" stroke="#000000" d="M269.61,-584.95C262.66,-575.73 255.82,-566.64 255.82,-566.64 255.82,-566.64 255.74,-559.43 255.63,-549.77"/>
<polygon fill="#000000" stroke="#000000" points="259.13,-550.02 255.52,-540.06 252.13,-550.1 259.13,-550.02"/>
<text xml:space="preserve" text-anchor="middle" x="262.95" y="-555.24" font-family="CMU Serif" font-size="12.00">да</text>
</g>
<!-- meany -->
<g id="node6" class="node">
<title>meany</title>
<polygon fill="#ffffff" stroke="#000000" points="399.45,-532.64 322.7,-532.64 322.7,-466.14 399.45,-466.14 399.45,-532.64"/>
<text xml:space="preserve" text-anchor="start" x="330.7" y="-513.64" font-family="CMU Serif" font-size="14.00">ȳ = SY / n</text>
<text xml:space="preserve" text-anchor="start" x="337.82" y="-494.14" font-family="CMU Serif" font-size="14.00">SST = 0</text>
<text xml:space="preserve" text-anchor="start" x="347.2" y="-474.64" font-family="CMU Serif" font-size="14.00">i = 1</text>
</g>
<!-- loop1&#45;&gt;meany -->
<g id="edge6" class="edge">
<title>loop1&#45;&gt;meany</title>
<path fill="none" stroke="#000000" d="M298.55,-584.63C307.5,-572.57 319.33,-556.63 330.29,-541.87"/>
<polygon fill="#000000" stroke="#000000" points="332.91,-544.2 336.06,-534.09 327.29,-540.03 332.91,-544.2"/>
<text xml:space="preserve" text-anchor="middle" x="332.32" y="-555.24" font-family="CMU Serif" font-size="12.00">нет</text>
</g>
<!-- body1&#45;&gt;loop1 -->
<g id="edge5" class="edge">
<title>body1&#45;&gt;loop1</title>
<path fill="none" stroke="#000000" d="M266.74,-538.52C268.68,-544.84 270.07,-549.39 270.07,-549.39 270.07,-549.39 272.39,-558.47 275.14,-569.23"/>
<polygon fill="#000000" stroke="#000000" points="271.73,-570 277.6,-578.82 278.51,-568.26 271.73,-570"/>
</g>
<!-- loop2 -->
<g id="node7" class="node">
<title>loop2</title>
<polygon fill="#fff7d1" stroke="#000000" points="361.07,-437.39 306.82,-409.89 361.07,-382.39 415.32,-409.89 361.07,-437.39"/>
<text xml:space="preserve" text-anchor="start" x="341.95" y="-404.64" font-family="CMU Serif" font-size="14.00">i ≤ n?</text>
</g>
<!-- meany&#45;&gt;loop2 -->
<g id="edge7" class="edge">
<title>meany&#45;&gt;loop2</title>
<path fill="none" stroke="#000000" d="M361.07,-465.81C361.07,-460.33 361.07,-454.6 361.07,-448.99"/>
<polygon fill="#000000" stroke="#000000" points="364.57,-449.29 361.07,-439.29 357.57,-449.29 364.57,-449.29"/>
</g>
<!-- body2 -->
<g id="node8" class="node">
<title>body2</title>
<polygon fill="#ffffff" stroke="#000000" points="392.2,-343.14 271.95,-343.14 271.95,-293.14 392.2,-293.14 392.2,-343.14"/>
<text xml:space="preserve" text-anchor="start" x="303.2" y="-326.84" font-family="CMU Serif" font-size="14.00">d = y</text>
<text xml:space="preserve" text-anchor="start" x="334.7" y="-326.84" font-family="CMU Serif" baseline-shift="sub" font-size="14.00">i</text>
<text xml:space="preserve" text-anchor="start" x="337.7" y="-326.84" font-family="CMU Serif" font-size="14.00"> − ȳ</text>
<text xml:space="preserve" text-anchor="start" x="279.95" y="-312.84" font-family="CMU Serif" font-size="14.00">SST = SST + d · d</text>
<text xml:space="preserve" text-anchor="start" x="308.45" y="-298.84" font-family="CMU Serif" font-size="14.00">i = i + 1</text>
</g>
<!-- loop2&#45;&gt;body2 -->
<g id="edge8" class="edge">
<title>loop2&#45;&gt;body2</title>
<path fill="none" stroke="#000000" d="M346.61,-389.7C339.66,-380.48 332.82,-371.39 332.82,-371.39 332.82,-371.39 332.71,-364 332.58,-354.77"/>
<polygon fill="#000000" stroke="#000000" points="336.08,-354.89 332.44,-344.94 329.08,-354.99 336.08,-354.89"/>
<text xml:space="preserve" text-anchor="middle" x="339.95" y="-359.99" font-family="CMU Serif" font-size="12.00">да</text>
</g>
<!-- rms -->
<g id="node9" class="node">
<title>rms</title>
<polygon fill="#ffffff" stroke="#000000" points="497.7,-336.14 410.45,-336.14 410.45,-300.14 497.7,-300.14 497.7,-336.14"/>
<text xml:space="preserve" text-anchor="start" x="418.45" y="-312.89" font-family="CMU Serif" font-size="14.00">δ = √(S / n)</text>
</g>
<!-- loop2&#45;&gt;rms -->
<g id="edge10" class="edge">
<title>loop2&#45;&gt;rms</title>
<path fill="none" stroke="#000000" d="M379.44,-391.16C393.29,-377.8 412.47,-359.29 427.91,-344.39"/>
<polygon fill="#000000" stroke="#000000" points="430.2,-347.04 434.96,-337.58 425.34,-342.01 430.2,-347.04"/>
<text xml:space="preserve" text-anchor="middle" x="425.65" y="-359.99" font-family="CMU Serif" font-size="12.00">нет</text>
</g>
<!-- body2&#45;&gt;loop2 -->
<g id="edge9" class="edge">
<title>body2&#45;&gt;loop2</title>
<path fill="none" stroke="#000000" d="M342.49,-343.45C345.05,-349.42 347.07,-354.14 347.07,-354.14 347.07,-354.14 349.39,-363.22 352.14,-373.98"/>
<polygon fill="#000000" stroke="#000000" points="348.73,-374.75 354.6,-383.57 355.51,-373.01 348.73,-374.75"/>
</g>
<!-- chk -->
<g id="node10" class="node">
<title>chk</title>
<polygon fill="#fff7d1" stroke="#000000" points="454.07,-270.14 387.07,-242.64 454.07,-215.14 521.07,-242.64 454.07,-270.14"/>
<text xml:space="preserve" text-anchor="start" x="428.57" y="-237.39" font-family="CMU Serif" font-size="14.00">SST &lt; ε?</text>
</g>
<!-- rms&#45;&gt;chk -->
<g id="edge11" class="edge">
<title>rms&#45;&gt;chk</title>
<path fill="none" stroke="#000000" d="M454.07,-299.72C454.07,-294.26 454.07,-287.99 454.07,-281.68"/>
<polygon fill="#000000" stroke="#000000" points="457.57,-281.93 454.07,-271.93 450.57,-281.93 457.57,-281.93"/>
</g>
<!-- r2a -->
<g id="node11" class="node">
<title>r2a</title>
<polygon fill="#ffffff" stroke="#000000" points="449.2,-175.89 322.95,-175.89 322.95,-139.89 449.2,-139.89 449.2,-175.89"/>
<text xml:space="preserve" text-anchor="start" x="330.95" y="-152.64" font-family="CMU Serif" font-size="14.00">R² = (S &lt; ε ? 1 : 0)</text>
</g>
<!-- chk&#45;&gt;r2a -->
<g id="edge12" class="edge">
<title>chk&#45;&gt;r2a</title>
<path fill="none" stroke="#000000" d="M437.61,-221.61C428.53,-210.56 417.14,-196.7 407.39,-184.83"/>
<polygon fill="#000000" stroke="#000000" points="410.32,-182.89 401.27,-177.39 404.91,-187.33 410.32,-182.89"/>
<text xml:space="preserve" text-anchor="middle" x="429.23" y="-192.74" font-family="CMU Serif" font-size="12.00">да</text>
</g>
<!-- r2b -->
<g id="node12" class="node">
<title>r2b</title>
<polygon fill="#ffffff" stroke="#000000" points="580.45,-175.89 467.7,-175.89 467.7,-139.89 580.45,-139.89 580.45,-175.89"/>
<text xml:space="preserve" text-anchor="start" x="475.7" y="-152.64" font-family="CMU Serif" font-size="14.00">R² = 1 − S / SST</text>
</g>
<!-- chk&#45;&gt;r2b -->
<g id="edge13" class="edge">
<title>chk&#45;&gt;r2b</title>
<path fill="none" stroke="#000000" d="M471.02,-221.61C480.37,-210.56 492.08,-196.7 502.13,-184.83"/>
<polygon fill="#000000" stroke="#000000" points="504.65,-187.27 508.44,-177.37 499.31,-182.75 504.65,-187.27"/>
<text xml:space="preserve" text-anchor="middle" x="509.18" y="-192.74" font-family="CMU Serif" font-size="12.00">нет</text>
</g>
<!-- output -->
<g id="node13" class="node">
<title>output</title>
<polygon fill="#dcfce7" stroke="#000000" points="674.38,-116.89 323.92,-116.89 233.76,-61.89 584.22,-61.89 674.38,-116.89"/>
<text xml:space="preserve" text-anchor="start" x="355.82" y="-84.14" font-family="CMU Serif" font-size="14.00">Вывод: φ[1..n], ε[1..n], S, δ, R²</text>
</g>
<!-- r2a&#45;&gt;output -->
<g id="edge14" class="edge">
<title>r2a&#45;&gt;output</title>
<path fill="none" stroke="#000000" d="M403.94,-139.42C408.48,-134.97 413.53,-130.04 418.62,-125.06"/>
<polygon fill="#000000" stroke="#000000" points="420.8,-127.82 425.5,-118.33 415.9,-122.82 420.8,-127.82"/>
</g>
<!-- r2b&#45;&gt;output -->
<g id="edge15" class="edge">
<title>r2b&#45;&gt;output</title>
<path fill="none" stroke="#000000" d="M505.68,-139.42C501,-134.97 495.81,-130.04 490.57,-125.06"/>
<polygon fill="#000000" stroke="#000000" points="493.12,-122.66 483.46,-118.31 488.3,-127.74 493.12,-122.66"/>
</g>
<!-- stop -->
<g id="node14" class="node">
<title>stop</title>
<ellipse fill="#e6eefc" stroke="#000000" cx="454.07" cy="-19.45" rx="39.95" ry="19.45"/>
<text xml:space="preserve" text-anchor="middle" x="454.07" y="-15.9" font-family="CMU Serif" font-size="14.00">Конец</text>
</g>
<!-- output&#45;&gt;stop -->
<g id="edge16" class="edge">
<title>output&#45;&gt;stop</title>
<path fill="none" stroke="#000000" d="M454.07,-61.54C454.07,-57.94 454.07,-54.24 454.07,-50.59"/>
<polygon fill="#000000" stroke="#000000" points="457.57,-50.87 454.07,-40.87 450.57,-50.87 457.57,-50.87"/>
</g>
</g>
</svg>
