<?xml version="1.0" encoding="UTF-8" standalone="no"?>
<!DOCTYPE svg PUBLIC "-//W3C//DTD SVG 1.1//EN"
 "http://www.w3.org/Graphics/SVG/1.1/DTD/svg11.dtd">
<!-- Generated by graphviz version 14.1.5 (0)
 -->
<!-- Title: MidRect Pages: 1 -->
<svg width="345pt" height="538pt"
 viewBox="0.00 0.00 345.00 538.00" xmlns="http://www.w3.org/2000/svg" xmlns:xlink="http://www.w3.org/1999/xlink">
<g id="graph0" class="graph" transform="scale(1 1) rotate(0) translate(4 534.03)">
<title>MidRect</title>
<polygon fill="white" stroke="none" points="-4,4 -4,-534.03 340.58,-534.03 340.58,4 -4,4"/>
<!-- start -->
<g id="node1" class="node">
<title>start</title>
<ellipse fill="#e6eefc" stroke="#000000" cx="168.29" cy="-510.59" rx="168.29" ry="19.45"/>
<text xml:space="preserve" text-anchor="middle" x="168.29" y="-507.04" font-family="CMU Serif" font-size="14.00">Начало: MidRectIntegrator::apply</text>
</g>
<!-- input -->
<g id="node2" class="node">
<title>input</title>
<polygon fill="#f5f5f5" stroke="#000000" points="298.4,-468.14 91.42,-468.14 38.18,-413.14 245.16,-413.14 298.4,-468.14"/>
<text xml:space="preserve" text-anchor="middle" x="168.29" y="-437.09" font-family="CMU Serif" font-size="14.00">Ввод: f(x), a, b, n</text>
</g>
<!-- start&#45;&gt;input -->
<g id="edge1" class="edge">
<title>start&#45;&gt;input</title>
<path fill="none" stroke="#000000" d="M168.29,-490.66C168.29,-487.24 168.29,-483.57 168.29,-479.83"/>
<polygon fill="#000000" stroke="#000000" points="171.79,-480.1 168.29,-470.1 164.79,-480.1 171.79,-480.1"/>
</g>
<!-- init -->
<g id="node3" class="node">
<title>init</title>
<polygon fill="#ffffff" stroke="#000000" points="219.79,-390.14 116.79,-390.14 116.79,-323.64 219.79,-323.64 219.79,-390.14"/>
<text xml:space="preserve" text-anchor="start" x="124.79" y="-371.14" font-family="CMU Serif" font-size="14.00">h = (b − a) / n</text>
<text xml:space="preserve" text-anchor="start" x="152.54" y="-351.64" font-family="CMU Serif" font-size="14.00">S = 0</text>
<text xml:space="preserve" text-anchor="start" x="154.42" y="-332.14" font-family="CMU Serif" font-size="14.00">i = 0</text>
</g>
<!-- input&#45;&gt;init -->
<g id="edge2" class="edge">
<title>input&#45;&gt;init</title>
<path fill="none" stroke="#000000" d="M168.29,-412.87C168.29,-409.29 168.29,-405.54 168.29,-401.75"/>
<polygon fill="#000000" stroke="#000000" points="171.79,-401.94 168.29,-391.94 164.79,-401.94 171.79,-401.94"/>
</g>
<!-- loop -->
<g id="node4" class="node">
<title>loop</title>
<polygon fill="#fff7d1" stroke="#000000" points="168.29,-300.64 117.79,-273.14 168.29,-245.64 218.79,-273.14 168.29,-300.64"/>
<text xml:space="preserve" text-anchor="start" x="151.04" y="-267.89" font-family="CMU Serif" font-size="14.00">i &lt; n?</text>
</g>
<!-- init&#45;&gt;loop -->
<g id="edge3" class="edge">
<title>init&#45;&gt;loop</title>
<path fill="none" stroke="#000000" d="M168.29,-323.58C168.29,-319.99 168.29,-316.31 168.29,-312.66"/>
<polygon fill="#000000" stroke="#000000" points="171.79,-312.72 168.29,-302.72 164.79,-312.72 171.79,-312.72"/>
</g>
<!-- body -->
<g id="node5" class="node">
<title>body</title>
<polygon fill="#ffffff" stroke="#000000" points="205.04,-206.39 73.54,-206.39 73.54,-139.89 205.04,-139.89 205.04,-206.39"/>
<text xml:space="preserve" text-anchor="start" x="81.54" y="-187.39" font-family="CMU Serif" font-size="14.00">x = a + (i + 0.5) · h</text>
<text xml:space="preserve" text-anchor="start" x="105.54" y="-167.89" font-family="CMU Serif" font-size="14.00">S = S + f(x)</text>
<text xml:space="preserve" text-anchor="start" x="115.67" y="-148.39" font-family="CMU Serif" font-size="14.00">i = i + 1</text>
</g>
<!-- loop&#45;&gt;body -->
<g id="edge4" class="edge">
<title>loop&#45;&gt;body</title>
<path fill="none" stroke="#000000" d="M153.84,-252.95C146.88,-243.73 140.04,-234.64 140.04,-234.64 140.04,-234.64 139.95,-227.51 139.84,-218.14"/>
<polygon fill="#000000" stroke="#000000" points="143.34,-218.34 139.72,-208.38 136.34,-218.43 143.34,-218.34"/>
<text xml:space="preserve" text-anchor="middle" x="147.17" y="-223.24" font-family="CMU Serif" font-size="12.00">да</text>
</g>
<!-- mul -->
<g id="node6" class="node">
<title>mul</title>
<polygon fill="#ffffff" stroke="#000000" points="287.29,-191.14 223.29,-191.14 223.29,-155.14 287.29,-155.14 287.29,-191.14"/>
<text xml:space="preserve" text-anchor="start" x="231.29" y="-167.89" font-family="CMU Serif" font-size="14.00">I = S · h</text>
</g>
<!-- loop&#45;&gt;mul -->
<g id="edge6" class="edge">
<title>loop&#45;&gt;mul</title>
<path fill="none" stroke="#000000" d="M184.25,-254.17C197.78,-238.92 217.36,-216.87 232.54,-199.77"/>
<polygon fill="#000000" stroke="#000000" points="234.99,-202.28 239.01,-192.48 229.76,-197.63 234.99,-202.28"/>
<text xml:space="preserve" text-anchor="middle" x="224.15" y="-223.24" font-family="CMU Serif" font-size="12.00">нет</text>
</g>
<!-- body&#45;&gt;loop -->
<g id="edge5" class="edge">
<title>body&#45;&gt;loop</title>
<path fill="none" stroke="#000000" d="M150.51,-206.48C152.68,-212.73 154.29,-217.39 154.29,-217.39 154.29,-217.39 156.65,-226.6 159.43,-237.47"/>
<polygon fill="#000000" stroke="#000000" points="156.03,-238.32 161.9,-247.14 162.81,-236.58 156.03,-238.32"/>
</g>
<!-- output -->
<g id="node7" class="node">
<title>output</title>
<polygon fill="#dcfce7" stroke="#000000" points="330.2,-116.89 211.04,-116.89 180.39,-61.89 299.54,-61.89 330.2,-116.89"/>
<text xml:space="preserve" text-anchor="start" x="227.17" y="-84.14" font-family="CMU Serif" font-size="14.00">Вывод: I</text>
</g>
<!-- mul&#45;&gt;output -->
<g id="edge7" class="edge">
<title>mul&#45;&gt;output</title>
<path fill="none" stroke="#000000" d="M255.29,-154.8C255.29,-147.16 255.29,-137.85 255.29,-128.71"/>
<polygon fill="#000000" stroke="#000000" points="258.79,-128.87 255.29,-118.87 251.79,-128.87 258.79,-128.87"/>
</g>
<!-- stop -->
<g id="node8" class="node">
<title>stop</title>
<ellipse fill="#e6eefc" stroke="#000000" cx="255.29" cy="-19.45" rx="39.95" ry="19.45"/>
<text xml:space="preserve" text-anchor="middle" x="255.29" y="-15.9" font-family="CMU Serif" font-size="14.00">Конец</text>
</g>
<!-- output&#45;&gt;stop -->
<g id="edge8" class="edge">
<title>output&#45;&gt;stop</title>
<path fill="none" stroke="#000000" d="M255.29,-61.54C255.29,-57.94 255.29,-54.24 255.29,-50.59"/>
<polygon fill="#000000" stroke="#000000" points="258.79,-50.87 255.29,-40.87 251.79,-50.87 258.79,-50.87"/>
</g>
</g>
</svg>
