<?xml version="1.0" encoding="UTF-8" standalone="no"?>
<!DOCTYPE svg PUBLIC "-//W3C//DTD SVG 1.1//EN"
 "http://www.w3.org/Graphics/SVG/1.1/DTD/svg11.dtd">
<!-- Generated by graphviz version 14.1.5 (0)
 -->
<!-- Title: RungeLoop Pages: 1 -->
<svg width="776pt" height="1284pt"
 viewBox="0.00 0.00 776.00 1284.00" xmlns="http://www.w3.org/2000/svg" xmlns:xlink="http://www.w3.org/1999/xlink">
<g id="graph0" class="graph" transform="scale(1 1) rotate(0) translate(4 1279.53)">
<title>RungeLoop</title>
<polygon fill="white" stroke="none" points="-4,4 -4,-1279.53 771.84,-1279.53 771.84,4 -4,4"/>
<!-- start -->
<g id="node1" class="node">
<title>start</title>
<ellipse fill="#e6eefc" stroke="#000000" cx="326.84" cy="-1256.09" rx="158.22" ry="19.45"/>
<text xml:space="preserve" text-anchor="middle" x="326.84" y="-1252.54" font-family="CMU Serif" font-size="14.00">Начало: Integrator::rungeSolve</text>
</g>
<!-- input -->
<g id="node2" class="node">
<title>input</title>
<polygon fill="#f5f5f5" stroke="#000000" points="653.67,-1213.64 133.75,-1213.64 0,-1141.64 519.92,-1141.64 653.67,-1213.64"/>
<text xml:space="preserve" text-anchor="start" x="280.34" y="-1179.34" font-family="CMU Serif" font-size="14.00">Ввод: f(x), a, b</text>
<text xml:space="preserve" text-anchor="start" x="177.21" y="-1165.34" font-family="CMU Serif" font-size="14.00">(EPS, k</text>
<text xml:space="preserve" text-anchor="start" x="219.96" y="-1165.34" font-family="CMU Serif" baseline-shift="sub" font-size="14.00">InitialN</text>
<text xml:space="preserve" text-anchor="start" x="260.46" y="-1165.34" font-family="CMU Serif" font-size="14.00"> = 4, k</text>
<text xml:space="preserve" text-anchor="start" x="299.46" y="-1165.34" font-family="CMU Serif" baseline-shift="sub" font-size="14.00">MaxN</text>
<text xml:space="preserve" text-anchor="start" x="331.71" y="-1165.34" font-family="CMU Serif" font-size="14.00"> = 2</text>
<text xml:space="preserve" text-anchor="start" x="355.71" y="-1165.34" font-family="CMU Serif" baseline-shift="super" font-size="14.00">20</text>
<text xml:space="preserve" text-anchor="start" x="369.21" y="-1165.34" font-family="CMU Serif" font-size="14.00"> — поля класса)</text>
</g>
<!-- start&#45;&gt;input -->
<g id="edge1" class="edge">
<title>start&#45;&gt;input</title>
<path fill="none" stroke="#000000" d="M326.84,-1236.19C326.84,-1232.83 326.84,-1229.2 326.84,-1225.45"/>
<polygon fill="#000000" stroke="#000000" points="330.34,-1225.53 326.84,-1215.53 323.34,-1225.53 330.34,-1225.53"/>
</g>
<!-- init -->
<g id="node3" class="node">
<title>init</title>
<polygon fill="#ffffff" stroke="#000000" points="396.71,-1118.64 256.96,-1118.64 256.96,-1054.64 396.71,-1054.64 396.71,-1118.64"/>
<text xml:space="preserve" text-anchor="start" x="292.71" y="-1102.34" font-family="CMU Serif" font-size="14.00">k = order()</text>
<text xml:space="preserve" text-anchor="start" x="276.59" y="-1088.34" font-family="CMU Serif" font-size="14.00">denom = 2</text>
<text xml:space="preserve" text-anchor="start" x="347.09" y="-1088.34" font-family="CMU Serif" baseline-shift="super" font-size="14.00">k</text>
<text xml:space="preserve" text-anchor="start" x="353.09" y="-1088.34" font-family="CMU Serif" font-size="14.00"> − 1</text>
<text xml:space="preserve" text-anchor="start" x="290.46" y="-1074.34" font-family="CMU Serif" font-size="14.00">n = k</text>
<text xml:space="preserve" text-anchor="start" x="322.71" y="-1074.34" font-family="CMU Serif" baseline-shift="sub" font-size="14.00">InitialN</text>
<text xml:space="preserve" text-anchor="start" x="264.96" y="-1060.34" font-family="CMU Serif" font-size="14.00">I</text>
<text xml:space="preserve" text-anchor="start" x="269.46" y="-1060.34" font-family="CMU Serif" baseline-shift="sub" font-size="14.00">h</text>
<text xml:space="preserve" text-anchor="start" x="276.96" y="-1060.34" font-family="CMU Serif" font-size="14.00"> = apply(f, a, b, n)</text>
</g>
<!-- input&#45;&gt;init -->
<g id="edge2" class="edge">
<title>input&#45;&gt;init</title>
<path fill="none" stroke="#000000" d="M326.84,-1141.21C326.84,-1137.64 326.84,-1133.99 326.84,-1130.36"/>
<polygon fill="#000000" stroke="#000000" points="330.34,-1130.43 326.84,-1120.43 323.34,-1130.43 330.34,-1130.43"/>
</g>
<!-- chkInit -->
<g id="node4" class="node">
<title>chkInit</title>
<polygon fill="#fff7d1" stroke="#000000" points="326.84,-1031.64 235.84,-1004.14 326.84,-976.64 417.84,-1004.14 326.84,-1031.64"/>
<text xml:space="preserve" text-anchor="start" x="289.34" y="-1001.59" font-family="CMU Serif" font-size="14.00">isFinite(I</text>
<text xml:space="preserve" text-anchor="start" x="346.34" y="-1001.59" font-family="CMU Serif" baseline-shift="sub" font-size="14.00">h</text>
<text xml:space="preserve" text-anchor="start" x="353.84" y="-1001.59" font-family="CMU Serif" font-size="14.00">)?</text>
</g>
<!-- init&#45;&gt;chkInit -->
<g id="edge3" class="edge">
<title>init&#45;&gt;chkInit</title>
<path fill="none" stroke="#000000" d="M326.84,-1054.29C326.84,-1050.74 326.84,-1047.09 326.84,-1043.46"/>
<polygon fill="#000000" stroke="#000000" points="330.34,-1043.61 326.84,-1033.61 323.34,-1043.61 330.34,-1043.61"/>
</g>
<!-- errInit -->
<g id="node5" class="node">
<title>errInit</title>
<polygon fill="#fde2e2" stroke="#000000" points="295.06,-871.39 83.13,-871.39 28.61,-738.39 240.54,-738.39 295.06,-871.39"/>
<text xml:space="preserve" text-anchor="start" x="105.59" y="-819.14" font-family="CMU Serif" font-size="14.00">status = diverges</text>
<text xml:space="preserve" text-anchor="start" x="122.09" y="-799.64" font-family="CMU Serif" font-size="14.00">value = NaN</text>
<text xml:space="preserve" text-anchor="start" x="145.34" y="-780.14" font-family="CMU Serif" font-size="14.00">n = 4</text>
</g>
<!-- chkInit&#45;&gt;errInit -->
<g id="edge4" class="edge">
<title>chkInit&#45;&gt;errInit</title>
<path fill="none" stroke="#000000" d="M308.86,-981.66C288.53,-957.34 254.28,-916.41 223.96,-880.15"/>
<polygon fill="#000000" stroke="#000000" points="226.82,-878.12 217.72,-872.7 221.45,-882.61 226.82,-878.12"/>
<text xml:space="preserve" text-anchor="middle" x="303.88" y="-954.24" font-family="CMU Serif" font-size="12.00">нет</text>
</g>
<!-- loop -->
<g id="node6" class="node">
<title>loop</title>
<polygon fill="#fff7d1" stroke="#000000" points="446.84,-937.39 348.34,-909.89 446.84,-882.39 545.34,-909.89 446.84,-937.39"/>
<text xml:space="preserve" text-anchor="start" x="405.59" y="-907.34" font-family="CMU Serif" font-size="14.00">2n ≤ k</text>
<text xml:space="preserve" text-anchor="start" x="449.84" y="-907.34" font-family="CMU Serif" baseline-shift="sub" font-size="14.00">MaxN</text>
<text xml:space="preserve" text-anchor="start" x="482.09" y="-907.34" font-family="CMU Serif" font-size="14.00">?</text>
</g>
<!-- chkInit&#45;&gt;loop -->
<g id="edge6" class="edge">
<title>chkInit&#45;&gt;loop</title>
<path fill="none" stroke="#000000" d="M351.99,-983.8C369.47,-970.36 393,-952.28 412.24,-937.49"/>
<polygon fill="#000000" stroke="#000000" points="414.31,-940.31 420.1,-931.44 410.04,-934.76 414.31,-940.31"/>
<text xml:space="preserve" text-anchor="middle" x="404.71" y="-954.24" font-family="CMU Serif" font-size="12.00">да</text>
</g>
<!-- stop -->
<g id="node15" class="node">
<title>stop</title>
<ellipse fill="#e6eefc" stroke="#000000" cx="220.84" cy="-19.45" rx="39.95" ry="19.45"/>
<text xml:space="preserve" text-anchor="middle" x="220.84" y="-15.9" font-family="CMU Serif" font-size="14.00">Конец</text>
</g>
<!-- errInit&#45;&gt;stop -->
<g id="edge5" class="edge">
<title>errInit&#45;&gt;stop</title>
<path fill="none" stroke="#000000" d="M138.6,-738.18C121.36,-689.44 100.84,-631.39 100.84,-631.39 100.84,-631.39 100.84,-631.39 100.84,-124.89 100.84,-124.89 157.9,-75.22 193.33,-44.39"/>
<polygon fill="#000000" stroke="#000000" points="195.44,-47.19 200.68,-37.99 190.84,-41.91 195.44,-47.19"/>
</g>
<!-- maxIt -->
<g id="node7" class="node">
<title>maxIt</title>
<polygon fill="#fde2e2" stroke="#000000" points="767.84,-680.39 554.67,-680.39 499.84,-580.39 713,-580.39 767.84,-680.39"/>
<text xml:space="preserve" text-anchor="start" x="577.21" y="-639.09" font-family="CMU Serif" font-size="14.00">status = max_iter</text>
<text xml:space="preserve" text-anchor="start" x="602.34" y="-625.09" font-family="CMU Serif" font-size="14.00">value = I</text>
<text xml:space="preserve" text-anchor="start" x="657.84" y="-625.09" font-family="CMU Serif" baseline-shift="sub" font-size="14.00">h</text>
<text xml:space="preserve" text-anchor="start" x="615.46" y="-611.09" font-family="CMU Serif" font-size="14.00">R = ∞</text>
</g>
<!-- loop&#45;&gt;maxIt -->
<g id="edge7" class="edge">
<title>loop&#45;&gt;maxIt</title>
<path fill="none" stroke="#000000" d="M473.75,-889.48C486.44,-880.33 498.84,-871.39 498.84,-871.39 498.84,-871.39 560.57,-761.65 600.54,-690.58"/>
<polygon fill="#000000" stroke="#000000" points="603.43,-692.58 605.29,-682.15 597.33,-689.15 603.43,-692.58"/>
<text xml:space="preserve" text-anchor="middle" x="581.87" y="-802.12" font-family="CMU Serif" font-size="12.00">нет</text>
</g>
<!-- step -->
<g id="node8" class="node">
<title>step</title>
<polygon fill="#ffffff" stroke="#000000" points="449.46,-727.39 296.21,-727.39 296.21,-691.39 449.46,-691.39 449.46,-727.39"/>
<text xml:space="preserve" text-anchor="start" x="350.71" y="-711.09" font-family="CMU Serif" font-size="14.00">n&#39; = 2n</text>
<text xml:space="preserve" text-anchor="start" x="304.21" y="-697.09" font-family="CMU Serif" font-size="14.00">I</text>
<text xml:space="preserve" text-anchor="start" x="308.71" y="-697.09" font-family="CMU Serif" baseline-shift="sub" font-size="14.00">h/2</text>
<text xml:space="preserve" text-anchor="start" x="327.46" y="-697.09" font-family="CMU Serif" font-size="14.00"> = apply(f, a, b, n&#39;)</text>
</g>
<!-- loop&#45;&gt;step -->
<g id="edge9" class="edge">
<title>loop&#45;&gt;step</title>
<path fill="none" stroke="#000000" d="M437.76,-884.55C423.96,-847.52 397.75,-777.23 383.21,-738.22"/>
<polygon fill="#000000" stroke="#000000" points="386.57,-737.21 379.8,-729.07 380.01,-739.66 386.57,-737.21"/>
<text xml:space="preserve" text-anchor="middle" x="439.81" y="-802.12" font-family="CMU Serif" font-size="12.00">да</text>
</g>
<!-- maxIt&#45;&gt;stop -->
<g id="edge8" class="edge">
<title>maxIt&#45;&gt;stop</title>
<path fill="none" stroke="#000000" d="M625.34,-580.01C618.79,-541.95 610.84,-495.77 610.84,-495.77 610.84,-495.77 610.84,-495.77 610.84,-124.89 610.84,-124.89 553.84,-61.89 553.84,-61.89 553.84,-61.89 363.63,-38.22 270.73,-26.65"/>
<polygon fill="#000000" stroke="#000000" points="271.22,-23.19 260.86,-25.43 270.35,-30.14 271.22,-23.19"/>
</g>
<!-- chkFin -->
<g id="node9" class="node">
<title>chkFin</title>
<polygon fill="#fff7d1" stroke="#000000" points="354.84,-569.39 252.59,-541.89 354.84,-514.39 457.09,-541.89 354.84,-569.39"/>
<text xml:space="preserve" text-anchor="start" x="311.71" y="-539.34" font-family="CMU Serif" font-size="14.00">isFinite(I</text>
<text xml:space="preserve" text-anchor="start" x="368.71" y="-539.34" font-family="CMU Serif" baseline-shift="sub" font-size="14.00">h/2</text>
<text xml:space="preserve" text-anchor="start" x="387.46" y="-539.34" font-family="CMU Serif" font-size="14.00">)?</text>
</g>
<!-- step&#45;&gt;chkFin -->
<g id="edge10" class="edge">
<title>step&#45;&gt;chkFin</title>
<path fill="none" stroke="#000000" d="M370.94,-690.99C368.1,-664.82 362.65,-614.7 358.88,-580.07"/>
<polygon fill="#000000" stroke="#000000" points="362.4,-580.04 357.84,-570.48 355.44,-580.8 362.4,-580.04"/>
</g>
<!-- errDiv -->
<g id="node10" class="node">
<title>errDiv</title>
<polygon fill="#fde2e2" stroke="#000000" points="382.06,-428.14 170.13,-428.14 115.61,-295.14 327.54,-295.14 382.06,-428.14"/>
<text xml:space="preserve" text-anchor="start" x="192.59" y="-375.89" font-family="CMU Serif" font-size="14.00">status = diverges</text>
<text xml:space="preserve" text-anchor="start" x="209.09" y="-356.39" font-family="CMU Serif" font-size="14.00">value = NaN</text>
<text xml:space="preserve" text-anchor="start" x="230.84" y="-336.89" font-family="CMU Serif" font-size="14.00">n = n&#39;</text>
</g>
<!-- chkFin&#45;&gt;errDiv -->
<g id="edge11" class="edge">
<title>chkFin&#45;&gt;errDiv</title>
<path fill="none" stroke="#000000" d="M331.74,-520.09C310.35,-500.82 281.84,-475.14 281.84,-475.14 281.84,-475.14 277.18,-459.25 271.36,-439.42"/>
<polygon fill="#000000" stroke="#000000" points="274.73,-438.47 268.55,-429.86 268.01,-440.44 274.73,-438.47"/>
<text xml:space="preserve" text-anchor="middle" x="321.86" y="-491.99" font-family="CMU Serif" font-size="12.00">нет</text>
</g>
<!-- runge -->
<g id="node11" class="node">
<title>runge</title>
<polygon fill="#ffffff" stroke="#000000" points="456.84,-475.14 290.84,-475.14 290.84,-439.14 456.84,-439.14 456.84,-475.14"/>
<text xml:space="preserve" text-anchor="start" x="298.84" y="-454.59" font-family="CMU Serif" font-size="14.00">R = |I</text>
<text xml:space="preserve" text-anchor="start" x="335.59" y="-454.59" font-family="CMU Serif" baseline-shift="sub" font-size="14.00">h/2</text>
<text xml:space="preserve" text-anchor="start" x="354.34" y="-454.59" font-family="CMU Serif" font-size="14.00"> − I</text>
<text xml:space="preserve" text-anchor="start" x="374.59" y="-454.59" font-family="CMU Serif" baseline-shift="sub" font-size="14.00">h</text>
<text xml:space="preserve" text-anchor="start" x="382.09" y="-454.59" font-family="CMU Serif" font-size="14.00">| / denom</text>
</g>
<!-- chkFin&#45;&gt;runge -->
<g id="edge13" class="edge">
<title>chkFin&#45;&gt;runge</title>
<path fill="none" stroke="#000000" d="M360.64,-515.61C362.77,-506.35 365.18,-495.82 367.37,-486.32"/>
<polygon fill="#000000" stroke="#000000" points="370.71,-487.41 369.53,-476.88 363.88,-485.85 370.71,-487.41"/>
<text xml:space="preserve" text-anchor="middle" x="374.27" y="-491.99" font-family="CMU Serif" font-size="12.00">да</text>
</g>
<!-- errDiv&#45;&gt;stop -->
<g id="edge12" class="edge">
<title>errDiv&#45;&gt;stop</title>
<path fill="none" stroke="#000000" d="M228.5,-295.11C213.55,-246.96 195.84,-189.89 195.84,-189.89 195.84,-189.89 195.84,-61.89 195.84,-61.89 195.84,-61.89 199.62,-55.63 204.23,-47.97"/>
<polygon fill="#000000" stroke="#000000" points="207.14,-49.93 209.31,-39.56 201.15,-46.31 207.14,-49.93"/>
</g>
<!-- chkR -->
<g id="node12" class="node">
<title>chkR</title>
<polygon fill="#fff7d1" stroke="#000000" points="382.84,-284.14 309.09,-256.64 382.84,-229.14 456.59,-256.64 382.84,-284.14"/>
<text xml:space="preserve" text-anchor="start" x="353.96" y="-251.39" font-family="CMU Serif" font-size="14.00">R ≤ EPS?</text>
</g>
<!-- runge&#45;&gt;chkR -->
<g id="edge14" class="edge">
<title>runge&#45;&gt;chkR</title>
<path fill="none" stroke="#000000" d="M379.38,-438.89C381.23,-433.12 382.84,-428.14 382.84,-428.14 382.84,-428.14 382.84,-346.37 382.84,-296.09"/>
<polygon fill="#000000" stroke="#000000" points="386.34,-296.17 382.84,-286.17 379.34,-296.17 386.34,-296.17"/>
</g>
<!-- upd -->
<g id="node13" class="node">
<title>upd</title>
<polygon fill="#ffffff" stroke="#000000" points="544.59,-143.89 473.09,-143.89 473.09,-107.89 544.59,-107.89 544.59,-143.89"/>
<text xml:space="preserve" text-anchor="start" x="481.09" y="-127.59" font-family="CMU Serif" font-size="14.00">I</text>
<text xml:space="preserve" text-anchor="start" x="485.59" y="-127.59" font-family="CMU Serif" baseline-shift="sub" font-size="14.00">h</text>
<text xml:space="preserve" text-anchor="start" x="493.09" y="-127.59" font-family="CMU Serif" font-size="14.00"> ← I</text>
<text xml:space="preserve" text-anchor="start" x="517.84" y="-127.59" font-family="CMU Serif" baseline-shift="sub" font-size="14.00">h/2</text>
<text xml:space="preserve" text-anchor="start" x="488.96" y="-113.59" font-family="CMU Serif" font-size="14.00">n ← n&#39;</text>
</g>
<!-- chkR&#45;&gt;upd -->
<g id="edge17" class="edge">
<title>chkR&#45;&gt;upd</title>
<path fill="none" stroke="#000000" d="M405.4,-237.33C429.37,-217.87 463.84,-189.89 463.84,-189.89 463.84,-189.89 477.63,-170.58 489.95,-153.33"/>
<polygon fill="#000000" stroke="#000000" points="492.7,-155.51 495.66,-145.34 487,-151.44 492.7,-155.51"/>
<text xml:space="preserve" text-anchor="middle" x="460.01" y="-206.74" font-family="CMU Serif" font-size="12.00">нет</text>
</g>
<!-- ok -->
<g id="node14" class="node">
<title>ok</title>
<polygon fill="#dcfce7" stroke="#000000" points="455.28,-189.89 255.73,-189.89 204.39,-61.89 403.95,-61.89 455.28,-189.89"/>
<text xml:space="preserve" text-anchor="start" x="293.84" y="-141.59" font-family="CMU Serif" font-size="14.00">status = ok</text>
<text xml:space="preserve" text-anchor="start" x="292.71" y="-127.59" font-family="CMU Serif" font-size="14.00">value = I</text>
<text xml:space="preserve" text-anchor="start" x="348.21" y="-127.59" font-family="CMU Serif" baseline-shift="sub" font-size="14.00">h/2</text>
<text xml:space="preserve" text-anchor="start" x="311.84" y="-113.59" font-family="CMU Serif" font-size="14.00">n = n&#39;</text>
<text xml:space="preserve" text-anchor="start" x="277.34" y="-99.59" font-family="CMU Serif" font-size="14.00">runge_error = R</text>
</g>
<!-- chkR&#45;&gt;ok -->
<g id="edge15" class="edge">
<title>chkR&#45;&gt;ok</title>
<path fill="none" stroke="#000000" d="M373.24,-232.33C369.49,-223.23 364.97,-212.25 360.29,-200.86"/>
<polygon fill="#000000" stroke="#000000" points="363.57,-199.65 356.53,-191.73 357.1,-202.31 363.57,-199.65"/>
<text xml:space="preserve" text-anchor="middle" x="374.3" y="-206.74" font-family="CMU Serif" font-size="12.00">да</text>
</g>
<!-- upd&#45;&gt;loop -->
<g id="edge18" class="edge">
<title>upd&#45;&gt;loop</title>
<path fill="none" stroke="#000000" d="M505.6,-144.25C499.05,-179.4 484.84,-255.64 484.84,-255.64 484.84,-710.39 484.84,-710.39 484.84,-710.39 484.84,-710.39 464.84,-814.85 453.86,-872.21"/>
<polygon fill="#000000" stroke="#000000" points="450.45,-871.38 452.01,-881.86 457.33,-872.7 450.45,-871.38"/>
</g>
<!-- ok&#45;&gt;stop -->
<g id="edge16" class="edge">
<title>ok&#45;&gt;stop</title>
<path fill="none" stroke="#000000" d="M263.6,-61.43C257.66,-55.73 251.92,-50.23 246.67,-45.2"/>
<polygon fill="#000000" stroke="#000000" points="249.09,-42.67 239.45,-38.28 244.25,-47.73 249.09,-42.67"/>
</g>
</g>
</svg>
