<?xml version="1.0" encoding="UTF-8" standalone="no"?>
<!DOCTYPE svg PUBLIC "-//W3C//DTD SVG 1.1//EN"
 "http://www.w3.org/Graphics/SVG/1.1/DTD/svg11.dtd">
<!-- Generated by graphviz version 14.1.5 (0)
 -->
<!-- Title: Simpson Pages: 1 -->
<svg width="531pt" height="543pt"
 viewBox="0.00 0.00 531.00 543.00" xmlns="http://www.w3.org/2000/svg" xmlns:xlink="http://www.w3.org/1999/xlink">
<g id="graph0" class="graph" transform="scale(1 1) rotate(0) translate(4 538.78)">
<title>Simpson</title>
<polygon fill="white" stroke="none" points="-4,4 -4,-538.78 526.92,-538.78 526.92,4 -4,4"/>
<!-- start -->
<g id="node1" class="node">
<title>start</title>
<ellipse fill="#e6eefc" stroke="#000000" cx="331.38" cy="-515.34" rx="169.88" ry="19.45"/>
<text xml:space="preserve" text-anchor="middle" x="331.38" y="-511.79" font-family="CMU Serif" font-size="14.00">Начало: SimpsonIntegrator::apply</text>
</g>
<!-- input -->
<g id="node2" class="node">
<title>input</title>
<polygon fill="#f5f5f5" stroke="#000000" points="522.92,-472.89 218.22,-472.89 139.83,-417.89 444.53,-417.89 522.92,-472.89"/>
<text xml:space="preserve" text-anchor="middle" x="331.38" y="-441.84" font-family="CMU Serif" font-size="14.00">Ввод: f(x), a, b, n (чётное)</text>
</g>
<!-- start&#45;&gt;input -->
<g id="edge1" class="edge">
<title>start&#45;&gt;input</title>
<path fill="none" stroke="#000000" d="M331.38,-495.41C331.38,-491.99 331.38,-488.32 331.38,-484.58"/>
<polygon fill="#000000" stroke="#000000" points="334.88,-484.85 331.38,-474.85 327.88,-484.85 334.88,-484.85"/>
</g>
<!-- init -->
<g id="node3" class="node">
<title>init</title>
<polygon fill="#ffffff" stroke="#000000" points="382.88,-394.89 279.88,-394.89 279.88,-328.39 382.88,-328.39 382.88,-394.89"/>
<text xml:space="preserve" text-anchor="start" x="287.88" y="-375.89" font-family="CMU Serif" font-size="14.00">h = (b − a) / n</text>
<text xml:space="preserve" text-anchor="start" x="290.5" y="-356.39" font-family="CMU Serif" font-size="14.00">S = f(a) + f(b)</text>
<text xml:space="preserve" text-anchor="start" x="317.5" y="-336.89" font-family="CMU Serif" font-size="14.00">i = 1</text>
</g>
<!-- input&#45;&gt;init -->
<g id="edge2" class="edge">
<title>input&#45;&gt;init</title>
<path fill="none" stroke="#000000" d="M331.38,-417.62C331.38,-414.04 331.38,-410.29 331.38,-406.5"/>
<polygon fill="#000000" stroke="#000000" points="334.88,-406.69 331.38,-396.69 327.88,-406.69 334.88,-406.69"/>
</g>
<!-- loop -->
<g id="node4" class="node">
<title>loop</title>
<polygon fill="#fff7d1" stroke="#000000" points="331.38,-305.39 280.88,-277.89 331.38,-250.39 381.88,-277.89 331.38,-305.39"/>
<text xml:space="preserve" text-anchor="start" x="314.12" y="-272.64" font-family="CMU Serif" font-size="14.00">i &lt; n?</text>
</g>
<!-- init&#45;&gt;loop -->
<g id="edge3" class="edge">
<title>init&#45;&gt;loop</title>
<path fill="none" stroke="#000000" d="M331.38,-328.33C331.38,-324.74 331.38,-321.06 331.38,-317.41"/>
<polygon fill="#000000" stroke="#000000" points="334.88,-317.47 331.38,-307.47 327.88,-317.47 334.88,-317.47"/>
</g>
<!-- parity -->
<g id="node5" class="node">
<title>parity</title>
<polygon fill="#fff7d1" stroke="#000000" points="200.38,-211.14 97.38,-183.64 200.37,-156.14 303.38,-183.64 200.38,-211.14"/>
<text xml:space="preserve" text-anchor="start" x="156.88" y="-178.39" font-family="CMU Serif" font-size="14.00">i mod 2 == 0?</text>
</g>
<!-- loop&#45;&gt;parity -->
<g id="edge4" class="edge">
<title>loop&#45;&gt;parity</title>
<path fill="none" stroke="#000000" d="M309.74,-261.66C290.07,-247.8 260.63,-227.07 237.24,-210.6"/>
<polygon fill="#000000" stroke="#000000" points="239.4,-207.84 229.2,-204.94 235.37,-213.56 239.4,-207.84"/>
<text xml:space="preserve" text-anchor="middle" x="284.73" y="-227.99" font-family="CMU Serif" font-size="12.00">да</text>
</g>
<!-- mul -->
<g id="node9" class="node">
<title>mul</title>
<polygon fill="#ffffff" stroke="#000000" points="460.88,-201.64 375.88,-201.64 375.88,-165.64 460.88,-165.64 460.88,-201.64"/>
<text xml:space="preserve" text-anchor="start" x="383.88" y="-178.39" font-family="CMU Serif" font-size="14.00">I = S · h / 3</text>
</g>
<!-- loop&#45;&gt;mul -->
<g id="edge10" class="edge">
<title>loop&#45;&gt;mul</title>
<path fill="none" stroke="#000000" d="M348.15,-259.1C361.23,-245.23 379.58,-225.78 394.24,-210.23"/>
<polygon fill="#000000" stroke="#000000" points="396.59,-212.84 400.91,-203.16 391.5,-208.03 396.59,-212.84"/>
<text xml:space="preserve" text-anchor="middle" x="392.42" y="-227.99" font-family="CMU Serif" font-size="12.00">нет</text>
</g>
<!-- even -->
<g id="node6" class="node">
<title>even</title>
<polygon fill="#ffffff" stroke="#000000" points="303.75,-107.39 161,-107.39 161,-71.39 303.75,-71.39 303.75,-107.39"/>
<text xml:space="preserve" text-anchor="start" x="169" y="-84.14" font-family="CMU Serif" font-size="14.00">S = S + 2 · f(a + i · h)</text>
</g>
<!-- parity&#45;&gt;even -->
<g id="edge5" class="edge">
<title>parity&#45;&gt;even</title>
<path fill="none" stroke="#000000" d="M208.95,-157.92C213.15,-145.82 218.22,-131.21 222.57,-118.67"/>
<polygon fill="#000000" stroke="#000000" points="225.84,-119.9 225.82,-109.3 219.23,-117.6 225.84,-119.9"/>
<text xml:space="preserve" text-anchor="middle" x="226.37" y="-133.74" font-family="CMU Serif" font-size="12.00">да</text>
</g>
<!-- odd -->
<g id="node7" class="node">
<title>odd</title>
<polygon fill="#ffffff" stroke="#000000" points="142.75,-107.39 0,-107.39 0,-71.39 142.75,-71.39 142.75,-107.39"/>
<text xml:space="preserve" text-anchor="start" x="8" y="-84.14" font-family="CMU Serif" font-size="14.00">S = S + 4 · f(a + i · h)</text>
</g>
<!-- parity&#45;&gt;odd -->
<g id="edge6" class="edge">
<title>parity&#45;&gt;odd</title>
<path fill="none" stroke="#000000" d="M173.02,-163.08C153.14,-148.86 126.11,-129.53 104.92,-114.38"/>
<polygon fill="#000000" stroke="#000000" points="107.05,-111.6 96.88,-108.63 102.98,-117.29 107.05,-111.6"/>
<text xml:space="preserve" text-anchor="middle" x="157.18" y="-133.74" font-family="CMU Serif" font-size="12.00">нет</text>
</g>
<!-- incr -->
<g id="node8" class="node">
<title>incr</title>
<polygon fill="#ffffff" stroke="#000000" points="264,-37.45 200.75,-37.45 200.75,-1.45 264,-1.45 264,-37.45"/>
<text xml:space="preserve" text-anchor="start" x="208.75" y="-14.2" font-family="CMU Serif" font-size="14.00">i = i + 1</text>
</g>
<!-- even&#45;&gt;incr -->
<g id="edge7" class="edge">
<title>even&#45;&gt;incr</title>
<path fill="none" stroke="#000000" d="M232.38,-70.89C232.38,-64.26 232.38,-56.53 232.38,-49.14"/>
<polygon fill="#000000" stroke="#000000" points="235.88,-49.16 232.38,-39.16 228.88,-49.16 235.88,-49.16"/>
</g>
<!-- odd&#45;&gt;incr -->
<g id="edge8" class="edge">
<title>odd&#45;&gt;incr</title>
<path fill="none" stroke="#000000" d="M112.84,-70.89C136.51,-60.9 166.13,-48.4 189.96,-38.35"/>
<polygon fill="#000000" stroke="#000000" points="191.21,-41.62 199.06,-34.5 188.49,-35.17 191.21,-41.62"/>
</g>
<!-- incr&#45;&gt;loop -->
<g id="edge9" class="edge">
<title>incr&#45;&gt;loop</title>
<path fill="none" stroke="#000000" d="M264.45,-37.06C286.71,-48.59 312.38,-61.89 312.38,-61.89 312.38,-61.89 322.71,-178.87 328.14,-240.25"/>
<polygon fill="#000000" stroke="#000000" points="324.62,-240.22 328.99,-249.88 331.59,-239.61 324.62,-240.22"/>
</g>
<!-- output -->
<g id="node10" class="node">
<title>output</title>
<polygon fill="#dcfce7" stroke="#000000" points="509.28,-116.89 390.12,-116.89 359.47,-61.89 478.63,-61.89 509.28,-116.89"/>
<text xml:space="preserve" text-anchor="start" x="406.25" y="-84.14" font-family="CMU Serif" font-size="14.00">Вывод: I</text>
</g>
<!-- mul&#45;&gt;output -->
<g id="edge11" class="edge">
<title>mul&#45;&gt;output</title>
<path fill="none" stroke="#000000" d="M421.38,-165.29C423.2,-154.79 425.6,-140.99 427.84,-128.09"/>
<polygon fill="#000000" stroke="#000000" points="431.22,-129.04 429.48,-118.59 424.33,-127.85 431.22,-129.04"/>
</g>
<!-- stop -->
<g id="node11" class="node">
<title>stop</title>
<ellipse fill="#e6eefc" stroke="#000000" cx="434.38" cy="-19.45" rx="39.95" ry="19.45"/>
<text xml:space="preserve" text-anchor="middle" x="434.38" y="-15.9" font-family="CMU Serif" font-size="14.00">Конец</text>
</g>
<!-- output&#45;&gt;stop -->
<g id="edge12" class="edge">
<title>output&#45;&gt;stop</title>
<path fill="none" stroke="#000000" d="M434.38,-61.54C434.38,-57.94 434.38,-54.24 434.38,-50.59"/>
<polygon fill="#000000" stroke="#000000" points="437.88,-50.87 434.38,-40.87 430.88,-50.87 437.88,-50.87"/>
</g>
</g>
</svg>
