<?xml version="1.0" encoding="UTF-8" standalone="no"?>
<!DOCTYPE svg PUBLIC "-//W3C//DTD SVG 1.1//EN"
 "http://www.w3.org/Graphics/SVG/1.1/DTD/svg11.dtd">
<!-- Generated by graphviz version 14.1.5 (0)
 -->
<!-- Title: SystemIter Pages: 1 -->
<svg width="734pt" height="1057pt"
 viewBox="0.00 0.00 734.00 1057.00" xmlns="http://www.w3.org/2000/svg" xmlns:xlink="http://www.w3.org/1999/xlink">
<g id="graph0" class="graph" transform="scale(1 1) rotate(0) translate(4 1052.53)">
<title>SystemIter</title>
<polygon fill="white" stroke="none" points="-4,4 -4,-1052.53 729.78,-1052.53 729.78,4 -4,4"/>
<!-- start -->
<g id="node1" class="node">
<title>start</title>
<ellipse fill="#e6eefc" stroke="#000000" cx="395.78" cy="-1029.09" rx="46.85" ry="19.45"/>
<text xml:space="preserve" text-anchor="middle" x="395.78" y="-1025.54" font-family="CMU Serif" font-size="14.00">Начало</text>
</g>
<!-- input -->
<g id="node2" class="node">
<title>input</title>
<polygon fill="#f5f5f5" stroke="#000000" points="616.09,-986.64 265.62,-986.64 175.47,-931.64 525.93,-931.64 616.09,-986.64"/>
<text xml:space="preserve" text-anchor="start" x="297.53" y="-956.59" font-family="CMU Serif" font-size="14.00">Ввод: φ</text>
<text xml:space="preserve" text-anchor="start" x="349.28" y="-956.59" font-family="CMU Serif" baseline-shift="sub" font-size="14.00">1</text>
<text xml:space="preserve" text-anchor="start" x="356.03" y="-956.59" font-family="CMU Serif" font-size="14.00">(x,y), φ</text>
<text xml:space="preserve" text-anchor="start" x="401.78" y="-956.59" font-family="CMU Serif" baseline-shift="sub" font-size="14.00">2</text>
<text xml:space="preserve" text-anchor="start" x="408.53" y="-956.59" font-family="CMU Serif" font-size="14.00">(x,y), x</text>
<text xml:space="preserve" text-anchor="start" x="451.28" y="-956.59" font-family="CMU Serif" baseline-shift="sub" font-size="14.00">0</text>
<text xml:space="preserve" text-anchor="start" x="458.03" y="-956.59" font-family="CMU Serif" font-size="14.00">, y</text>
<text xml:space="preserve" text-anchor="start" x="473.03" y="-956.59" font-family="CMU Serif" baseline-shift="sub" font-size="14.00">0</text>
<text xml:space="preserve" text-anchor="start" x="479.78" y="-956.59" font-family="CMU Serif" font-size="14.00">, ε</text>
</g>
<!-- start&#45;&gt;input -->
<g id="edge1" class="edge">
<title>start&#45;&gt;input</title>
<path fill="none" stroke="#000000" d="M395.78,-1009.16C395.78,-1005.74 395.78,-1002.07 395.78,-998.33"/>
<polygon fill="#000000" stroke="#000000" points="399.28,-998.6 395.78,-988.6 392.28,-998.6 399.28,-998.6"/>
</g>
<!-- initXY -->
<g id="node3" class="node">
<title>initXY</title>
<polygon fill="#ffffff" stroke="#000000" points="464.53,-908.64 327.03,-908.64 327.03,-872.64 464.53,-872.64 464.53,-908.64"/>
<text xml:space="preserve" text-anchor="start" x="335.03" y="-888.09" font-family="CMU Serif" font-size="14.00">x = x</text>
<text xml:space="preserve" text-anchor="start" x="365.78" y="-888.09" font-family="CMU Serif" baseline-shift="sub" font-size="14.00">0</text>
<text xml:space="preserve" text-anchor="start" x="372.53" y="-888.09" font-family="CMU Serif" font-size="14.00">; y = y</text>
<text xml:space="preserve" text-anchor="start" x="410.78" y="-888.09" font-family="CMU Serif" baseline-shift="sub" font-size="14.00">0</text>
<text xml:space="preserve" text-anchor="start" x="417.53" y="-888.09" font-family="CMU Serif" font-size="14.00">; k = 0</text>
</g>
<!-- input&#45;&gt;initXY -->
<g id="edge2" class="edge">
<title>input&#45;&gt;initXY</title>
<path fill="none" stroke="#000000" d="M395.78,-931.48C395.78,-927.77 395.78,-923.94 395.78,-920.2"/>
<polygon fill="#000000" stroke="#000000" points="399.28,-920.27 395.78,-910.27 392.28,-920.27 399.28,-920.27"/>
</g>
<!-- kMax -->
<g id="node4" class="node">
<title>kMax</title>
<polygon fill="#fff7d1" stroke="#000000" points="395.78,-849.64 316.03,-822.14 395.78,-794.64 475.53,-822.14 395.78,-849.64"/>
<text xml:space="preserve" text-anchor="start" x="363.9" y="-819.59" font-family="CMU Serif" font-size="14.00">k &lt; N</text>
<text xml:space="preserve" text-anchor="start" x="397.65" y="-819.59" font-family="CMU Serif" baseline-shift="sub" font-size="14.00">max</text>
<text xml:space="preserve" text-anchor="start" x="421.65" y="-819.59" font-family="CMU Serif" font-size="14.00">?</text>
</g>
<!-- initXY&#45;&gt;kMax -->
<g id="edge3" class="edge">
<title>initXY&#45;&gt;kMax</title>
<path fill="none" stroke="#000000" d="M395.78,-872.17C395.78,-868.78 395.78,-865.11 395.78,-861.35"/>
<polygon fill="#000000" stroke="#000000" points="399.28,-861.53 395.78,-851.53 392.28,-861.53 399.28,-861.53"/>
</g>
<!-- errMax -->
<g id="node5" class="node">
<title>errMax</title>
<polygon fill="#fde2e2" stroke="#000000" points="283.55,-694.39 58.02,-694.39 0,-600.39 225.53,-600.39 283.55,-694.39"/>
<text xml:space="preserve" text-anchor="middle" x="141.78" y="-653.59" font-family="CMU Serif" font-size="14.00">Превышен лимит</text>
<text xml:space="preserve" text-anchor="middle" x="141.78" y="-634.09" font-family="CMU Serif" font-size="14.00">итераций</text>
</g>
<!-- kMax&#45;&gt;errMax -->
<g id="edge4" class="edge">
<title>kMax&#45;&gt;errMax</title>
<path fill="none" stroke="#000000" d="M368.98,-803.52C339.36,-784.05 295.78,-755.39 295.78,-755.39 295.78,-755.39 256.58,-728.16 217.74,-701.17"/>
<polygon fill="#000000" stroke="#000000" points="219.88,-698.4 209.67,-695.56 215.89,-704.14 219.88,-698.4"/>
<text xml:space="preserve" text-anchor="middle" x="346.99" y="-772.24" font-family="CMU Serif" font-size="12.00">нет</text>
</g>
<!-- rows -->
<g id="node6" class="node">
<title>rows</title>
<polygon fill="#ffffff" stroke="#000000" points="487.03,-755.39 304.53,-755.39 304.53,-705.39 487.03,-705.39 487.03,-755.39"/>
<text xml:space="preserve" text-anchor="start" x="312.53" y="-739.09" font-family="CMU Serif" font-size="14.00">q</text>
<text xml:space="preserve" text-anchor="start" x="320.78" y="-739.09" font-family="CMU Serif" baseline-shift="sub" font-size="14.00">1</text>
<text xml:space="preserve" text-anchor="start" x="327.53" y="-739.09" font-family="CMU Serif" font-size="14.00"> = |∂φ</text>
<text xml:space="preserve" text-anchor="start" x="368.78" y="-739.09" font-family="CMU Serif" baseline-shift="sub" font-size="14.00">1</text>
<text xml:space="preserve" text-anchor="start" x="375.53" y="-739.09" font-family="CMU Serif" font-size="14.00">/∂x| + |∂φ</text>
<text xml:space="preserve" text-anchor="start" x="444.53" y="-739.09" font-family="CMU Serif" baseline-shift="sub" font-size="14.00">1</text>
<text xml:space="preserve" text-anchor="start" x="451.28" y="-739.09" font-family="CMU Serif" font-size="14.00">/∂y|</text>
<text xml:space="preserve" text-anchor="start" x="312.53" y="-725.09" font-family="CMU Serif" font-size="14.00">q</text>
<text xml:space="preserve" text-anchor="start" x="320.78" y="-725.09" font-family="CMU Serif" baseline-shift="sub" font-size="14.00">2</text>
<text xml:space="preserve" text-anchor="start" x="327.53" y="-725.09" font-family="CMU Serif" font-size="14.00"> = |∂φ</text>
<text xml:space="preserve" text-anchor="start" x="368.78" y="-725.09" font-family="CMU Serif" baseline-shift="sub" font-size="14.00">2</text>
<text xml:space="preserve" text-anchor="start" x="375.53" y="-725.09" font-family="CMU Serif" font-size="14.00">/∂x| + |∂φ</text>
<text xml:space="preserve" text-anchor="start" x="444.53" y="-725.09" font-family="CMU Serif" baseline-shift="sub" font-size="14.00">2</text>
<text xml:space="preserve" text-anchor="start" x="451.28" y="-725.09" font-family="CMU Serif" font-size="14.00">/∂y|</text>
<text xml:space="preserve" text-anchor="start" x="346.65" y="-711.09" font-family="CMU Serif" font-size="14.00">q = max(q</text>
<text xml:space="preserve" text-anchor="start" x="411.15" y="-711.09" font-family="CMU Serif" baseline-shift="sub" font-size="14.00">1</text>
<text xml:space="preserve" text-anchor="start" x="417.9" y="-711.09" font-family="CMU Serif" font-size="14.00">, q</text>
<text xml:space="preserve" text-anchor="start" x="433.65" y="-711.09" font-family="CMU Serif" baseline-shift="sub" font-size="14.00">2</text>
<text xml:space="preserve" text-anchor="start" x="440.4" y="-711.09" font-family="CMU Serif" font-size="14.00">)</text>
</g>
<!-- kMax&#45;&gt;rows -->
<g id="edge6" class="edge">
<title>kMax&#45;&gt;rows</title>
<path fill="none" stroke="#000000" d="M395.78,-794.21C395.78,-785.74 395.78,-776.25 395.78,-767.25"/>
<polygon fill="#000000" stroke="#000000" points="399.28,-767.37 395.78,-757.37 392.28,-767.37 399.28,-767.37"/>
<text xml:space="preserve" text-anchor="middle" x="402.9" y="-772.24" font-family="CMU Serif" font-size="12.00">да</text>
</g>
<!-- stop -->
<g id="node15" class="node">
<title>stop</title>
<ellipse fill="#e6eefc" stroke="#000000" cx="190.78" cy="-19.45" rx="39.95" ry="19.45"/>
<text xml:space="preserve" text-anchor="middle" x="190.78" y="-15.9" font-family="CMU Serif" font-size="14.00">Конец</text>
</g>
<!-- errMax&#45;&gt;stop -->
<g id="edge5" class="edge">
<title>errMax&#45;&gt;stop</title>
<path fill="none" stroke="#000000" d="M132.18,-599.97C124.42,-562.42 114.78,-515.77 114.78,-515.77 114.78,-515.77 114.78,-515.77 114.78,-88.39 114.78,-88.39 142.14,-63.93 164.03,-44.36"/>
<polygon fill="#000000" stroke="#000000" points="166.13,-47.18 171.25,-37.9 161.46,-41.96 166.13,-47.18"/>
</g>
<!-- chkQ -->
<g id="node7" class="node">
<title>chkQ</title>
<polygon fill="#fff7d1" stroke="#000000" points="395.78,-589.39 257.53,-561.89 395.78,-534.39 534.03,-561.89 395.78,-589.39"/>
<text xml:space="preserve" text-anchor="start" x="334.65" y="-556.64" font-family="CMU Serif" font-size="14.00">q &lt; 1 и q конечен?</text>
</g>
<!-- rows&#45;&gt;chkQ -->
<g id="edge7" class="edge">
<title>rows&#45;&gt;chkQ</title>
<path fill="none" stroke="#000000" d="M395.78,-705.18C395.78,-677.87 395.78,-633.09 395.78,-601.06"/>
<polygon fill="#000000" stroke="#000000" points="399.28,-601.41 395.78,-591.41 392.28,-601.41 399.28,-601.41"/>
</g>
<!-- errQ -->
<g id="node8" class="node">
<title>errQ</title>
<polygon fill="#fde2e2" stroke="#000000" points="451.99,-448.14 195.53,-448.14 129.56,-354.14 386.02,-354.14 451.99,-448.14"/>
<text xml:space="preserve" text-anchor="middle" x="290.78" y="-407.34" font-family="CMU Serif" font-size="14.00">Условие сходимости</text>
<text xml:space="preserve" text-anchor="middle" x="290.78" y="-387.84" font-family="CMU Serif" font-size="14.00">не выполнено</text>
</g>
<!-- chkQ&#45;&gt;errQ -->
<g id="edge8" class="edge">
<title>chkQ&#45;&gt;errQ</title>
<path fill="none" stroke="#000000" d="M380.06,-537.12C366.24,-516.23 345.59,-485.02 327.63,-457.86"/>
<polygon fill="#000000" stroke="#000000" points="330.68,-456.12 322.24,-449.71 324.84,-459.98 330.68,-456.12"/>
<text xml:space="preserve" text-anchor="middle" x="378.97" y="-511.99" font-family="CMU Serif" font-size="12.00">нет</text>
</g>
<!-- nextXY -->
<g id="node9" class="node">
<title>nextXY</title>
<polygon fill="#ffffff" stroke="#000000" points="504.53,-495.14 385.03,-495.14 385.03,-459.14 504.53,-459.14 504.53,-495.14"/>
<text xml:space="preserve" text-anchor="start" x="393.03" y="-478.84" font-family="CMU Serif" font-size="14.00">x</text>
<text xml:space="preserve" text-anchor="start" x="400.53" y="-478.84" font-family="CMU Serif" baseline-shift="sub" font-size="14.00">k+1</text>
<text xml:space="preserve" text-anchor="start" x="420.03" y="-478.84" font-family="CMU Serif" font-size="14.00"> = φ</text>
<text xml:space="preserve" text-anchor="start" x="446.28" y="-478.84" font-family="CMU Serif" baseline-shift="sub" font-size="14.00">1</text>
<text xml:space="preserve" text-anchor="start" x="453.03" y="-478.84" font-family="CMU Serif" font-size="14.00">(x</text>
<text xml:space="preserve" text-anchor="start" x="465.03" y="-478.84" font-family="CMU Serif" baseline-shift="sub" font-size="14.00">k</text>
<text xml:space="preserve" text-anchor="start" x="471.03" y="-478.84" font-family="CMU Serif" font-size="14.00">, y</text>
<text xml:space="preserve" text-anchor="start" x="486.03" y="-478.84" font-family="CMU Serif" baseline-shift="sub" font-size="14.00">k</text>
<text xml:space="preserve" text-anchor="start" x="492.03" y="-478.84" font-family="CMU Serif" font-size="14.00">)</text>
<text xml:space="preserve" text-anchor="start" x="393.03" y="-464.84" font-family="CMU Serif" font-size="14.00">y</text>
<text xml:space="preserve" text-anchor="start" x="400.53" y="-464.84" font-family="CMU Serif" baseline-shift="sub" font-size="14.00">k+1</text>
<text xml:space="preserve" text-anchor="start" x="420.03" y="-464.84" font-family="CMU Serif" font-size="14.00"> = φ</text>
<text xml:space="preserve" text-anchor="start" x="446.28" y="-464.84" font-family="CMU Serif" baseline-shift="sub" font-size="14.00">2</text>
<text xml:space="preserve" text-anchor="start" x="453.03" y="-464.84" font-family="CMU Serif" font-size="14.00">(x</text>
<text xml:space="preserve" text-anchor="start" x="465.03" y="-464.84" font-family="CMU Serif" baseline-shift="sub" font-size="14.00">k</text>
<text xml:space="preserve" text-anchor="start" x="471.03" y="-464.84" font-family="CMU Serif" font-size="14.00">, y</text>
<text xml:space="preserve" text-anchor="start" x="486.03" y="-464.84" font-family="CMU Serif" baseline-shift="sub" font-size="14.00">k</text>
<text xml:space="preserve" text-anchor="start" x="492.03" y="-464.84" font-family="CMU Serif" font-size="14.00">)</text>
</g>
<!-- chkQ&#45;&gt;nextXY -->
<g id="edge10" class="edge">
<title>chkQ&#45;&gt;nextXY</title>
<path fill="none" stroke="#000000" d="M409.95,-536.96C415.84,-527 422.71,-515.4 428.78,-505.15"/>
<polygon fill="#000000" stroke="#000000" points="431.67,-507.14 433.75,-496.75 425.65,-503.58 431.67,-507.14"/>
<text xml:space="preserve" text-anchor="middle" x="434.65" y="-511.99" font-family="CMU Serif" font-size="12.00">да</text>
</g>
<!-- errQ&#45;&gt;stop -->
<g id="edge9" class="edge">
<title>errQ&#45;&gt;stop</title>
<path fill="none" stroke="#000000" d="M243.87,-353.72C205.93,-316.17 158.78,-269.52 158.78,-269.52 158.78,-269.52 158.78,-269.52 158.78,-88.39 158.78,-88.39 168.61,-67.51 177.38,-48.89"/>
<polygon fill="#000000" stroke="#000000" points="180.46,-50.56 181.56,-40.02 174.13,-47.58 180.46,-50.56"/>
</g>
<!-- chkFin -->
<g id="node10" class="node">
<title>chkFin</title>
<polygon fill="#fff7d1" stroke="#000000" points="462.78,-343.14 317.03,-315.64 462.78,-288.14 608.53,-315.64 462.78,-343.14"/>
<text xml:space="preserve" text-anchor="start" x="397.9" y="-313.09" font-family="CMU Serif" font-size="14.00">x</text>
<text xml:space="preserve" text-anchor="start" x="405.4" y="-313.09" font-family="CMU Serif" baseline-shift="sub" font-size="14.00">k+1</text>
<text xml:space="preserve" text-anchor="start" x="424.9" y="-313.09" font-family="CMU Serif" font-size="14.00">, y</text>
<text xml:space="preserve" text-anchor="start" x="439.9" y="-313.09" font-family="CMU Serif" baseline-shift="sub" font-size="14.00">k+1</text>
<text xml:space="preserve" text-anchor="start" x="459.4" y="-313.09" font-family="CMU Serif" font-size="14.00"> конечны?</text>
</g>
<!-- nextXY&#45;&gt;chkFin -->
<g id="edge11" class="edge">
<title>nextXY&#45;&gt;chkFin</title>
<path fill="none" stroke="#000000" d="M449.71,-458.89C451.35,-453.12 452.78,-448.14 452.78,-448.14 452.78,-448.14 456.93,-393.55 459.88,-354.72"/>
<polygon fill="#000000" stroke="#000000" points="463.37,-355 460.64,-344.76 456.39,-354.47 463.37,-355"/>
</g>
<!-- errDiv -->
<g id="node11" class="node">
<title>errDiv</title>
<polygon fill="#fde2e2" stroke="#000000" points="403.34,-182.89 221.1,-182.89 174.21,-127.89 356.46,-127.89 403.34,-182.89"/>
<text xml:space="preserve" text-anchor="middle" x="288.78" y="-151.84" font-family="CMU Serif" font-size="14.00">Расходимость</text>
</g>
<!-- chkFin&#45;&gt;errDiv -->
<g id="edge12" class="edge">
<title>chkFin&#45;&gt;errDiv</title>
<path fill="none" stroke="#000000" d="M404.02,-298.81C331.82,-279.35 218.78,-248.89 218.78,-248.89 218.78,-248.89 218.78,-193.89 218.78,-193.89 218.78,-193.89 222.68,-191.8 228.65,-188.6"/>
<polygon fill="#000000" stroke="#000000" points="230.15,-191.77 237.31,-183.96 226.85,-185.6 230.15,-191.77"/>
<text xml:space="preserve" text-anchor="middle" x="329.7" y="-265.74" font-family="CMU Serif" font-size="12.00">нет</text>
</g>
<!-- stopCrit -->
<g id="node12" class="node">
<title>stopCrit</title>
<polygon fill="#fff7d1" stroke="#000000" points="462.78,-248.89 227.78,-221.39 462.78,-193.89 697.78,-221.39 462.78,-248.89"/>
<text xml:space="preserve" text-anchor="start" x="353.28" y="-218.84" font-family="CMU Serif" font-size="14.00">max(|x</text>
<text xml:space="preserve" text-anchor="start" x="400.53" y="-218.84" font-family="CMU Serif" baseline-shift="sub" font-size="14.00">k+1</text>
<text xml:space="preserve" text-anchor="start" x="420.03" y="-218.84" font-family="CMU Serif" font-size="14.00"> − x</text>
<text xml:space="preserve" text-anchor="start" x="443.28" y="-218.84" font-family="CMU Serif" baseline-shift="sub" font-size="14.00">k</text>
<text xml:space="preserve" text-anchor="start" x="449.28" y="-218.84" font-family="CMU Serif" font-size="14.00">|, |y</text>
<text xml:space="preserve" text-anchor="start" x="479.28" y="-218.84" font-family="CMU Serif" baseline-shift="sub" font-size="14.00">k+1</text>
<text xml:space="preserve" text-anchor="start" x="498.78" y="-218.84" font-family="CMU Serif" font-size="14.00"> − y</text>
<text xml:space="preserve" text-anchor="start" x="522.03" y="-218.84" font-family="CMU Serif" baseline-shift="sub" font-size="14.00">k</text>
<text xml:space="preserve" text-anchor="start" x="528.03" y="-218.84" font-family="CMU Serif" font-size="14.00">|) ≤ ε?</text>
</g>
<!-- chkFin&#45;&gt;stopCrit -->
<g id="edge14" class="edge">
<title>chkFin&#45;&gt;stopCrit</title>
<path fill="none" stroke="#000000" d="M462.78,-287.96C462.78,-279.43 462.78,-269.81 462.78,-260.62"/>
<polygon fill="#000000" stroke="#000000" points="466.28,-260.85 462.78,-250.85 459.28,-260.85 466.28,-260.85"/>
<text xml:space="preserve" text-anchor="middle" x="469.9" y="-265.74" font-family="CMU Serif" font-size="12.00">да</text>
</g>
<!-- errDiv&#45;&gt;stop -->
<g id="edge13" class="edge">
<title>errDiv&#45;&gt;stop</title>
<path fill="none" stroke="#000000" d="M268.01,-127.54C263.36,-121.53 259.78,-116.89 259.78,-116.89 259.78,-116.89 230.37,-75.79 209.96,-47.25"/>
<polygon fill="#000000" stroke="#000000" points="212.98,-45.46 204.31,-39.37 207.28,-49.54 212.98,-45.46"/>
</g>
<!-- shift -->
<g id="node13" class="node">
<title>shift</title>
<polygon fill="#ffffff" stroke="#000000" points="696.9,-114.39 624.65,-114.39 624.65,-64.39 696.9,-64.39 696.9,-114.39"/>
<text xml:space="preserve" text-anchor="start" x="632.65" y="-98.09" font-family="CMU Serif" font-size="14.00">x</text>
<text xml:space="preserve" text-anchor="start" x="640.15" y="-98.09" font-family="CMU Serif" baseline-shift="sub" font-size="14.00">k</text>
<text xml:space="preserve" text-anchor="start" x="646.15" y="-98.09" font-family="CMU Serif" font-size="14.00"> = x</text>
<text xml:space="preserve" text-anchor="start" x="669.4" y="-98.09" font-family="CMU Serif" baseline-shift="sub" font-size="14.00">k+1</text>
<text xml:space="preserve" text-anchor="start" x="632.65" y="-84.09" font-family="CMU Serif" font-size="14.00">y</text>
<text xml:space="preserve" text-anchor="start" x="640.15" y="-84.09" font-family="CMU Serif" baseline-shift="sub" font-size="14.00">k</text>
<text xml:space="preserve" text-anchor="start" x="646.15" y="-84.09" font-family="CMU Serif" font-size="14.00"> = y</text>
<text xml:space="preserve" text-anchor="start" x="669.4" y="-84.09" font-family="CMU Serif" baseline-shift="sub" font-size="14.00">k+1</text>
<text xml:space="preserve" text-anchor="start" x="633.4" y="-70.09" font-family="CMU Serif" font-size="14.00">k = k + 1</text>
</g>
<!-- stopCrit&#45;&gt;shift -->
<g id="edge17" class="edge">
<title>stopCrit&#45;&gt;shift</title>
<path fill="none" stroke="#000000" d="M497.26,-197.75C529.91,-176.31 579.14,-143.99 615.05,-120.41"/>
<polygon fill="#000000" stroke="#000000" points="616.63,-123.56 623.07,-115.15 612.79,-117.71 616.63,-123.56"/>
<text xml:space="preserve" text-anchor="middle" x="612.02" y="-152.62" font-family="CMU Serif" font-size="12.00">нет</text>
</g>
<!-- output -->
<g id="node14" class="node">
<title>output</title>
<polygon fill="#f5f5f5" stroke="#000000" points="518.45,-116.89 320.12,-116.89 269.11,-61.89 467.43,-61.89 518.45,-116.89"/>
<text xml:space="preserve" text-anchor="start" x="341.65" y="-84.14" font-family="CMU Serif" font-size="14.00">Вывод: x*, y*, k</text>
</g>
<!-- stopCrit&#45;&gt;output -->
<g id="edge15" class="edge">
<title>stopCrit&#45;&gt;output</title>
<path fill="none" stroke="#000000" d="M449.31,-195.02C439.06,-175.71 424.81,-148.87 413.32,-127.2"/>
<polygon fill="#000000" stroke="#000000" points="416.41,-125.57 408.63,-118.38 410.23,-128.85 416.41,-125.57"/>
<text xml:space="preserve" text-anchor="middle" x="449.51" y="-152.62" font-family="CMU Serif" font-size="12.00">да</text>
</g>
<!-- shift&#45;&gt;kMax -->
<g id="edge18" class="edge">
<title>shift&#45;&gt;kMax</title>
<path fill="none" stroke="#000000" d="M673,-114.84C691.83,-152.5 725.78,-220.39 725.78,-220.39 725.78,-731.39 725.78,-731.39 725.78,-731.39 725.78,-731.39 543.95,-780.84 450.23,-806.33"/>
<polygon fill="#000000" stroke="#000000" points="449.45,-802.92 440.72,-808.92 451.29,-809.67 449.45,-802.92"/>
</g>
<!-- output&#45;&gt;stop -->
<g id="edge16" class="edge">
<title>output&#45;&gt;stop</title>
<path fill="none" stroke="#000000" d="M313.25,-61.44C286.14,-52.36 256.94,-42.59 233.86,-34.86"/>
<polygon fill="#000000" stroke="#000000" points="235.08,-31.58 224.48,-31.73 232.86,-38.22 235.08,-31.58"/>
</g>
</g>
</svg>
