<?xml version="1.0" encoding="UTF-8" standalone="no"?>
<!DOCTYPE svg PUBLIC "-//W3C//DTD SVG 1.1//EN"
 "http://www.w3.org/Graphics/SVG/1.1/DTD/svg11.dtd">
<!-- Generated by graphviz version 14.1.5 (0)
 -->
<!-- Title: TryPrincipalValue Pages: 1 -->
<svg width="990pt" height="2515pt"
 viewBox="0.00 0.00 990.00 2515.00" xmlns="http://www.w3.org/2000/svg" xmlns:xlink="http://www.w3.org/1999/xlink">
<g id="graph0" class="graph" transform="scale(1 1) rotate(0) translate(4 2511.14)">
<title>TryPrincipalValue</title>
<polygon fill="white" stroke="none" points="-4,4 -4,-2511.14 985.88,-2511.14 985.88,4 -4,4"/>
<!-- start -->
<g id="node1" class="node">
<title>start</title>
<ellipse fill="#e6eefc" stroke="#000000" cx="789" cy="-2487.7" rx="131.7" ry="19.45"/>
<text xml:space="preserve" text-anchor="middle" x="789" y="-2484.15" font-family="CMU Serif" font-size="14.00">Начало: tryPrincipalValue</text>
</g>
<!-- input -->
<g id="node2" class="node">
<title>input</title>
<polygon fill="#f5f5f5" stroke="#000000" points="965.77,-2451.25 684.57,-2451.25 612.23,-2396.25 893.43,-2396.25 965.77,-2451.25"/>
<text xml:space="preserve" text-anchor="start" x="711.75" y="-2418.5" font-family="CMU Serif" font-size="14.00">Ввод: integ, f, plan, eps</text>
</g>
<!-- start&#45;&gt;input -->
<g id="edge1" class="edge">
<title>start&#45;&gt;input</title>
<path fill="none" stroke="#000000" d="M789,-2467.77C789,-2466.17 789,-2464.52 789,-2462.84"/>
<polygon fill="#000000" stroke="#000000" points="792.5,-2463.05 789,-2453.05 785.5,-2463.05 792.5,-2463.05"/>
</g>
<!-- init -->
<g id="node3" class="node">
<title>init</title>
<polygon fill="#ffffff" stroke="#000000" points="873.88,-2379.25 704.12,-2379.25 704.12,-2312.75 873.88,-2312.75 873.88,-2379.25"/>
<text xml:space="preserve" text-anchor="start" x="712.12" y="-2360.25" font-family="CMU Serif" font-size="14.00">acc = 0; nAcc = 0; rg = 0</text>
<text xml:space="preserve" text-anchor="start" x="741.38" y="-2340.75" font-family="CMU Serif" font-size="14.00">usedPV = false</text>
<text xml:space="preserve" text-anchor="start" x="775.12" y="-2321.25" font-family="CMU Serif" font-size="14.00">i = 0</text>
</g>
<!-- input&#45;&gt;init -->
<g id="edge2" class="edge">
<title>input&#45;&gt;init</title>
<path fill="none" stroke="#000000" d="M789,-2395.83C789,-2394.18 789,-2392.5 789,-2390.81"/>
<polygon fill="#000000" stroke="#000000" points="792.5,-2391.05 789,-2381.05 785.5,-2391.05 792.5,-2391.05"/>
</g>
<!-- chkI -->
<g id="node4" class="node">
<title>chkI</title>
<polygon fill="#fff7d1" stroke="#000000" points="789,-2295.75 635,-2268.25 789,-2240.75 943,-2268.25 789,-2295.75"/>
<text xml:space="preserve" text-anchor="start" x="720" y="-2263" font-family="CMU Serif" font-size="14.00">i &lt; |plan.segments|?</text>
</g>
<!-- init&#45;&gt;chkI -->
<g id="edge3" class="edge">
<title>init&#45;&gt;chkI</title>
<path fill="none" stroke="#000000" d="M789,-2312.44C789,-2310.82 789,-2309.18 789,-2307.55"/>
<polygon fill="#000000" stroke="#000000" points="792.5,-2307.6 789,-2297.6 785.5,-2307.6 792.5,-2307.6"/>
</g>
<!-- retSucc -->
<g id="node5" class="node">
<title>retSucc</title>
<polygon fill="#fef3c7" stroke="#000000" points="369.21,-2163.5 79.36,-2163.5 4.79,-1952.5 294.64,-1952.5 369.21,-2163.5"/>
<text xml:space="preserve" text-anchor="start" x="139.38" y="-2091.75" font-family="CMU Serif" font-size="14.00">success = true</text>
<text xml:space="preserve" text-anchor="start" x="107.12" y="-2072.25" font-family="CMU Serif" font-size="14.00">usedPV (как накоплено)</text>
<text xml:space="preserve" text-anchor="start" x="151" y="-2052.75" font-family="CMU Serif" font-size="14.00">value = acc</text>
<text xml:space="preserve" text-anchor="start" x="158.88" y="-2033.25" font-family="CMU Serif" font-size="14.00">n = nAcc</text>
<text xml:space="preserve" text-anchor="start" x="151.75" y="-2013.75" font-family="CMU Serif" font-size="14.00">runge = rg</text>
</g>
<!-- chkI&#45;&gt;retSucc -->
<g id="edge4" class="edge">
<title>chkI&#45;&gt;retSucc</title>
<path fill="none" stroke="#000000" d="M722.47,-2252.25C643.97,-2234.55 524,-2207.5 524,-2207.5 524,-2207.5 448.92,-2174.42 369.64,-2139.48"/>
<polygon fill="#000000" stroke="#000000" points="371.4,-2136.43 360.83,-2135.6 368.57,-2142.84 371.4,-2136.43"/>
<text xml:space="preserve" text-anchor="middle" x="643.63" y="-2221.35" font-family="CMU Serif" font-size="12.00">нет</text>
</g>
<!-- segI -->
<g id="node6" class="node">
<title>segI</title>
<polygon fill="#ffffff" stroke="#000000" points="694.62,-2207.5 529.38,-2207.5 529.38,-2171.5 694.62,-2171.5 694.62,-2207.5"/>
<text xml:space="preserve" text-anchor="middle" x="612" y="-2185.95" font-family="CMU Serif" font-size="14.00">seg = plan.segments[i]</text>
</g>
<!-- chkI&#45;&gt;segI -->
<g id="edge6" class="edge">
<title>chkI&#45;&gt;segI</title>
<path fill="none" stroke="#000000" d="M745.25,-2248.28C720.23,-2237.43 688.75,-2223.78 662.67,-2212.47"/>
<polygon fill="#000000" stroke="#000000" points="664.18,-2209.31 653.61,-2208.54 661.39,-2215.73 664.18,-2209.31"/>
<text xml:space="preserve" text-anchor="middle" x="712.93" y="-2221.35" font-family="CMU Serif" font-size="12.00">да</text>
</g>
<!-- stop -->
<g id="node35" class="node">
<title>stop</title>
<ellipse fill="#e6eefc" stroke="#000000" cx="180" cy="-62.5" rx="39.95" ry="19.45"/>
<text xml:space="preserve" text-anchor="middle" x="180" y="-58.95" font-family="CMU Serif" font-size="14.00">Конец</text>
</g>
<!-- retSucc&#45;&gt;stop -->
<g id="edge5" class="edge">
<title>retSucc&#45;&gt;stop</title>
<path fill="none" stroke="#000000" d="M98.7,-1952.12C50.28,-1894.6 0,-1834.88 0,-1834.88 0,-1834.88 0,-1834.88 0,-188 0,-188 96.48,-121.27 148.17,-85.52"/>
<polygon fill="#000000" stroke="#000000" points="150.09,-88.44 156.32,-79.88 146.11,-82.69 150.09,-88.44"/>
</g>
<!-- chkOrd -->
<g id="node7" class="node">
<title>chkOrd</title>
<polygon fill="#fff7d1" stroke="#000000" points="534,-1944.5 383.75,-1897.5 534,-1850.5 684.25,-1897.5 534,-1944.5"/>
<text xml:space="preserve" text-anchor="start" x="466.88" y="-1902" font-family="CMU Serif" font-size="14.00">¬seg.limit_at_from ∧</text>
<text xml:space="preserve" text-anchor="start" x="479.62" y="-1882.5" font-family="CMU Serif" font-size="14.00">¬seg.limit_at_to?</text>
</g>
<!-- segI&#45;&gt;chkOrd -->
<g id="edge7" class="edge">
<title>segI&#45;&gt;chkOrd</title>
<path fill="none" stroke="#000000" d="M607.35,-2171.23C595.99,-2128.98 566.42,-2019.03 548.48,-1952.35"/>
<polygon fill="#000000" stroke="#000000" points="551.86,-1951.44 545.89,-1942.69 545.1,-1953.26 551.86,-1951.44"/>
</g>
<!-- callOrd -->
<g id="node8" class="node">
<title>callOrd</title>
<polygon fill="#e6eefc" stroke="#000000" points="284.75,-1776.75 99.25,-1776.75 99.25,-1729.75 284.75,-1729.75 284.75,-1776.75"/>
<text xml:space="preserve" text-anchor="start" x="107.25" y="-1757.75" font-family="CMU Serif" font-size="14.00">inner = integ.rungeSolve(</text>
<text xml:space="preserve" text-anchor="start" x="130.88" y="-1738.25" font-family="CMU Serif" font-size="14.00">f, seg.from, seg.to)</text>
</g>
<!-- chkOrd&#45;&gt;callOrd -->
<g id="edge8" class="edge">
<title>chkOrd&#45;&gt;callOrd</title>
<path fill="none" stroke="#000000" d="M461.12,-1872.83C389.22,-1849.48 290,-1817.25 290,-1817.25 290,-1817.25 262.78,-1799.75 237.02,-1783.19"/>
<polygon fill="#000000" stroke="#000000" points="239.24,-1780.45 228.93,-1777.99 235.45,-1786.34 239.24,-1780.45"/>
<text xml:space="preserve" text-anchor="middle" x="369.22" y="-1831.1" font-family="CMU Serif" font-size="12.00">да</text>
</g>
<!-- chkPair -->
<g id="node12" class="node">
<title>chkPair</title>
<polygon fill="#fff7d1" stroke="#000000" points="534,-1817.25 296,-1753.25 534,-1689.25 772,-1753.25 534,-1817.25"/>
<text xml:space="preserve" text-anchor="start" x="448.88" y="-1768.95" font-family="CMU Serif" font-size="14.00">i + 1 &lt; |plan.segments| ∧</text>
<text xml:space="preserve" text-anchor="start" x="479.62" y="-1754.95" font-family="CMU Serif" font-size="14.00">seg.limit_at_to ∧</text>
<text xml:space="preserve" text-anchor="start" x="453.75" y="-1740.95" font-family="CMU Serif" font-size="14.00">plan[i+1].limit_at_from ∧</text>
<text xml:space="preserve" text-anchor="start" x="423" y="-1726.95" font-family="CMU Serif" font-size="14.00">|seg.to − plan[i+1].from| &lt; 10</text>
<text xml:space="preserve" text-anchor="start" x="618.75" y="-1726.95" font-family="CMU Serif" baseline-shift="super" font-size="14.00">−15</text>
<text xml:space="preserve" text-anchor="start" x="639" y="-1726.95" font-family="CMU Serif" font-size="14.00">?</text>
</g>
<!-- chkOrd&#45;&gt;chkPair -->
<g id="edge14" class="edge">
<title>chkOrd&#45;&gt;chkPair</title>
<path fill="none" stroke="#000000" d="M534,-1850.32C534,-1843.45 534,-1836.22 534,-1828.95"/>
<polygon fill="#000000" stroke="#000000" points="537.5,-1829.04 534,-1819.04 530.5,-1829.04 537.5,-1829.04"/>
<text xml:space="preserve" text-anchor="middle" x="543.75" y="-1831.1" font-family="CMU Serif" font-size="12.00">нет</text>
</g>
<!-- chkOrdOk -->
<g id="node9" class="node">
<title>chkOrdOk</title>
<polygon fill="#fff7d1" stroke="#000000" points="192,-1640.5 50,-1613 192,-1585.5 334,-1613 192,-1640.5"/>
<text xml:space="preserve" text-anchor="start" x="129" y="-1607.75" font-family="CMU Serif" font-size="14.00">inner.status = &quot;ok&quot;?</text>
</g>
<!-- callOrd&#45;&gt;chkOrdOk -->
<g id="edge9" class="edge">
<title>callOrd&#45;&gt;chkOrdOk</title>
<path fill="none" stroke="#000000" d="M192,-1729.42C192,-1708.37 192,-1676.71 192,-1651.87"/>
<polygon fill="#000000" stroke="#000000" points="195.5,-1652.16 192,-1642.16 188.5,-1652.16 195.5,-1652.16"/>
</g>
<!-- retFailOrd -->
<g id="node10" class="node">
<title>retFailOrd</title>
<polygon fill="#fde2e2" stroke="#000000" points="394.54,-1434.75 89.84,-1434.75 11.46,-1340.75 316.16,-1340.75 394.54,-1434.75"/>
<text xml:space="preserve" text-anchor="start" x="154.25" y="-1392.25" font-family="CMU Serif" font-size="14.00">success = false</text>
<text xml:space="preserve" text-anchor="start" x="118.62" y="-1372.75" font-family="CMU Serif" font-size="14.00">(подотрезок не сошёлся)</text>
</g>
<!-- chkOrdOk&#45;&gt;retFailOrd -->
<g id="edge10" class="edge">
<title>chkOrdOk&#45;&gt;retFailOrd</title>
<path fill="none" stroke="#000000" d="M188.5,-1585.68C185.62,-1563.98 182,-1536.75 182,-1536.75 182,-1536.75 182,-1473.5 183.61,-1446.62"/>
<polygon fill="#000000" stroke="#000000" points="187.08,-1447.08 184.75,-1436.75 180.13,-1446.28 187.08,-1447.08"/>
<text xml:space="preserve" text-anchor="middle" x="195.07" y="-1550.6" font-family="CMU Serif" font-size="12.00">нет</text>
</g>
<!-- accOrd -->
<g id="node11" class="node">
<title>accOrd</title>
<polygon fill="#ffffff" stroke="#000000" points="320.88,-1532.75 187.12,-1532.75 187.12,-1446.75 320.88,-1446.75 320.88,-1532.75"/>
<text xml:space="preserve" text-anchor="start" x="195.12" y="-1513.75" font-family="CMU Serif" font-size="14.00">acc += inner.value</text>
<text xml:space="preserve" text-anchor="start" x="203" y="-1494.25" font-family="CMU Serif" font-size="14.00">nAcc += inner.n</text>
<text xml:space="preserve" text-anchor="start" x="195.88" y="-1474.75" font-family="CMU Serif" font-size="14.00">rg += inner.runge</text>
<text xml:space="preserve" text-anchor="start" x="230.38" y="-1455.25" font-family="CMU Serif" font-size="14.00">i = i + 1</text>
</g>
<!-- chkOrdOk&#45;&gt;accOrd -->
<g id="edge12" class="edge">
<title>chkOrdOk&#45;&gt;accOrd</title>
<path fill="none" stroke="#000000" d="M204.55,-1587.46C211.11,-1574.63 219.4,-1558.42 227.31,-1542.94"/>
<polygon fill="#000000" stroke="#000000" points="230.31,-1544.77 231.74,-1534.28 224.07,-1541.59 230.31,-1544.77"/>
<text xml:space="preserve" text-anchor="middle" x="231.98" y="-1550.6" font-family="CMU Serif" font-size="12.00">да</text>
</g>
<!-- retFailOrd&#45;&gt;stop -->
<g id="edge11" class="edge">
<title>retFailOrd&#45;&gt;stop</title>
<path fill="none" stroke="#000000" d="M184.23,-1340.36C169.33,-1303.55 151,-1258.25 151,-1258.25 151,-1258.25 151,-1258.25 151,-188 151,-188 164.49,-130.08 173.07,-93.26"/>
<polygon fill="#000000" stroke="#000000" points="176.46,-94.15 175.32,-83.61 169.64,-92.56 176.46,-94.15"/>
</g>
<!-- accOrd&#45;&gt;chkI -->
<g id="edge13" class="edge">
<title>accOrd&#45;&gt;chkI</title>
<path fill="none" stroke="#000000" d="M320.35,-1533.14C323.87,-1535.39 326,-1536.75 326,-1536.75 326,-1536.75 756,-1544.75 756,-1544.75 756,-1544.75 789,-1612 789,-1612 789,-2190.5 789,-2190.5 789,-2190.5 789,-2190.5 789,-2209.73 789,-2228.93"/>
<polygon fill="#000000" stroke="#000000" points="785.5,-2228.89 789,-2238.89 792.5,-2228.89 785.5,-2228.89"/>
</g>
<!-- computeD -->
<g id="node13" class="node">
<title>computeD</title>
<polygon fill="#ffffff" stroke="#000000" points="627.12,-1656 440.88,-1656 440.88,-1570 627.12,-1570 627.12,-1656"/>
<text xml:space="preserve" text-anchor="start" x="502.5" y="-1637" font-family="CMU Serif" font-size="14.00">c = seg.to</text>
<text xml:space="preserve" text-anchor="start" x="462.75" y="-1617.5" font-family="CMU Serif" font-size="14.00">leftLen = c − seg.from</text>
<text xml:space="preserve" text-anchor="start" x="448.88" y="-1598" font-family="CMU Serif" font-size="14.00">rightLen = plan[i+1].to − c</text>
<text xml:space="preserve" text-anchor="start" x="449.25" y="-1578.5" font-family="CMU Serif" font-size="14.00">d = min(leftLen, rightLen)</text>
</g>
<!-- chkPair&#45;&gt;computeD -->
<g id="edge15" class="edge">
<title>chkPair&#45;&gt;computeD</title>
<path fill="none" stroke="#000000" d="M534,-1688.79C534,-1681.7 534,-1674.52 534,-1667.57"/>
<polygon fill="#000000" stroke="#000000" points="537.5,-1667.64 534,-1657.64 530.5,-1667.64 537.5,-1667.64"/>
<text xml:space="preserve" text-anchor="middle" x="541.12" y="-1669.85" font-family="CMU Serif" font-size="12.00">да</text>
</g>
<!-- fallback -->
<g id="node31" class="node">
<title>fallback</title>
<polygon fill="#e6eefc" stroke="#000000" points="445.62,-1332.75 220.38,-1332.75 220.38,-1266.25 445.62,-1266.25 445.62,-1332.75"/>
<text xml:space="preserve" text-anchor="start" x="228.38" y="-1313.75" font-family="CMU Serif" font-size="14.00">sr = computeSegmentStandard(</text>
<text xml:space="preserve" text-anchor="start" x="276.75" y="-1294.25" font-family="CMU Serif" font-size="14.00">integ, f, seg, eps)</text>
<text xml:space="preserve" text-anchor="start" x="240" y="-1274.75" font-family="CMU Serif" font-size="14.00">(см. отдельную блок&#45;схему)</text>
</g>
<!-- chkPair&#45;&gt;fallback -->
<g id="edge41" class="edge">
<title>chkPair&#45;&gt;fallback</title>
<path fill="none" stroke="#000000" d="M584.95,-1702.72C609.21,-1679.13 633,-1656 633,-1656 633,-1656 742,-1536.75 742,-1536.75 742,-1536.75 742,-1442.75 742,-1442.75 742,-1442.75 622,-1340.75 622,-1340.75 622,-1340.75 496.29,-1334.87 457.24,-1332.32"/>
<polygon fill="#000000" stroke="#000000" points="457.7,-1328.84 447.44,-1331.49 457.11,-1335.82 457.7,-1328.84"/>
<text xml:space="preserve" text-anchor="middle" x="744.14" y="-1550.6" font-family="CMU Serif" font-size="12.00">нет</text>
</g>
<!-- chkAnti -->
<g id="node14" class="node">
<title>chkAnti</title>
<polygon fill="#fff7d1" stroke="#000000" points="534,-1536.75 332,-1489.75 534,-1442.75 736,-1489.75 534,-1536.75"/>
<text xml:space="preserve" text-anchor="start" x="455.62" y="-1494.25" font-family="CMU Serif" font-size="14.00">isAntisymmetric(f, c, d)?</text>
<text xml:space="preserve" text-anchor="start" x="441" y="-1474.75" font-family="CMU Serif" font-size="14.00">(см. отдельную блок&#45;схему)</text>
</g>
<!-- computeD&#45;&gt;chkAnti -->
<g id="edge16" class="edge">
<title>computeD&#45;&gt;chkAnti</title>
<path fill="none" stroke="#000000" d="M534,-1569.59C534,-1562.77 534,-1555.61 534,-1548.51"/>
<polygon fill="#000000" stroke="#000000" points="537.5,-1548.57 534,-1538.57 530.5,-1548.57 537.5,-1548.57"/>
</g>
<!-- initTails -->
<g id="node15" class="node">
<title>initTails</title>
<polygon fill="#ffffff" stroke="#000000" points="795.25,-1323 456.75,-1323 456.75,-1276 795.25,-1276 795.25,-1323"/>
<text xml:space="preserve" text-anchor="start" x="480.5" y="-1304" font-family="CMU Serif" font-size="14.00">leftTailVal = 0; leftTailN = 0; leftTailRunge = 0</text>
<text xml:space="preserve" text-anchor="start" x="464.75" y="-1284.5" font-family="CMU Serif" font-size="14.00">rightTailVal = 0; rightTailN = 0; rightTailRunge = 0</text>
</g>
<!-- chkAnti&#45;&gt;initTails -->
<g id="edge17" class="edge">
<title>chkAnti&#45;&gt;initTails</title>
<path fill="none" stroke="#000000" d="M554.19,-1447.44C570.92,-1413.21 594.38,-1365.21 609.87,-1333.5"/>
<polygon fill="#000000" stroke="#000000" points="612.89,-1335.3 614.13,-1324.78 606.6,-1332.23 612.89,-1335.3"/>
<text xml:space="preserve" text-anchor="middle" x="613.25" y="-1384.97" font-family="CMU Serif" font-size="12.00">да</text>
</g>
<!-- chkAnti&#45;&gt;fallback -->
<g id="edge40" class="edge">
<title>chkAnti&#45;&gt;fallback</title>
<path fill="none" stroke="#000000" d="M499.49,-1450.64C459.79,-1406.78 400,-1340.75 400,-1340.75 400,-1340.75 398.87,-1340.07 396.9,-1338.89"/>
<polygon fill="#000000" stroke="#000000" points="399.07,-1336.11 388.7,-1333.96 395.46,-1342.11 399.07,-1336.11"/>
<text xml:space="preserve" text-anchor="middle" x="492.69" y="-1384.97" font-family="CMU Serif" font-size="12.00">нет</text>
</g>
<!-- chkLeftLen -->
<g id="node16" class="node">
<title>chkLeftLen</title>
<polygon fill="#fff7d1" stroke="#000000" points="626,-1249.25 481,-1221.75 626,-1194.25 771,-1221.75 626,-1249.25"/>
<text xml:space="preserve" text-anchor="start" x="561.5" y="-1219.2" font-family="CMU Serif" font-size="14.00">leftLen &gt; d + 10</text>
<text xml:space="preserve" text-anchor="start" x="664.25" y="-1219.2" font-family="CMU Serif" baseline-shift="super" font-size="14.00">−15</text>
<text xml:space="preserve" text-anchor="start" x="684.5" y="-1219.2" font-family="CMU Serif" font-size="14.00">?</text>
</g>
<!-- initTails&#45;&gt;chkLeftLen -->
<g id="edge18" class="edge">
<title>initTails&#45;&gt;chkLeftLen</title>
<path fill="none" stroke="#000000" d="M626,-1275.77C626,-1271.16 626,-1266.2 626,-1261.22"/>
<polygon fill="#000000" stroke="#000000" points="629.5,-1261.25 626,-1251.25 622.5,-1261.25 629.5,-1261.25"/>
</g>
<!-- chkLeftSing -->
<g id="node17" class="node">
<title>chkLeftSing</title>
<polygon fill="#fff7d1" stroke="#000000" points="615,-1145.5 481.25,-1118 615,-1090.5 748.75,-1118 615,-1145.5"/>
<text xml:space="preserve" text-anchor="start" x="556.12" y="-1112.75" font-family="CMU Serif" font-size="14.00">seg.limit_at_from?</text>
</g>
<!-- chkLeftLen&#45;&gt;chkLeftSing -->
<g id="edge19" class="edge">
<title>chkLeftLen&#45;&gt;chkLeftSing</title>
<path fill="none" stroke="#000000" d="M623.17,-1194.55C621.91,-1182.92 620.41,-1169.01 619.04,-1156.33"/>
<polygon fill="#000000" stroke="#000000" points="622.54,-1156.18 617.99,-1146.62 615.58,-1156.94 622.54,-1156.18"/>
<text xml:space="preserve" text-anchor="middle" x="629.25" y="-1174.85" font-family="CMU Serif" font-size="12.00">да</text>
</g>
<!-- chkRightLen -->
<g id="node23" class="node">
<title>chkRightLen</title>
<polygon fill="#fff7d1" stroke="#000000" points="649,-581 493.5,-553.5 649,-526 804.5,-553.5 649,-581"/>
<text xml:space="preserve" text-anchor="start" x="579.25" y="-550.95" font-family="CMU Serif" font-size="14.00">rightLen &gt; d + 10</text>
<text xml:space="preserve" text-anchor="start" x="692.5" y="-550.95" font-family="CMU Serif" baseline-shift="super" font-size="14.00">−15</text>
<text xml:space="preserve" text-anchor="start" x="712.75" y="-550.95" font-family="CMU Serif" font-size="14.00">?</text>
</g>
<!-- chkLeftLen&#45;&gt;chkRightLen -->
<g id="edge20" class="edge">
<title>chkLeftLen&#45;&gt;chkRightLen</title>
<path fill="none" stroke="#000000" d="M666.85,-1201.68C704.31,-1184.19 754,-1161 754,-1161 754,-1161 766,-1119 766,-1119 766,-1119 766,-1119 766,-723.25 766,-723.25 706.03,-636.75 671.96,-587.61"/>
<polygon fill="#000000" stroke="#000000" points="674.95,-585.79 666.38,-579.56 669.2,-589.78 674.95,-585.79"/>
<text xml:space="preserve" text-anchor="middle" x="775.75" y="-859.6" font-family="CMU Serif" font-size="12.00">нет</text>
</g>
<!-- callLeftLim -->
<g id="node18" class="node">
<title>callLeftLim</title>
<polygon fill="#e6eefc" stroke="#000000" points="742.62,-926 517.38,-926 517.38,-879 742.62,-879 742.62,-926"/>
<text xml:space="preserve" text-anchor="start" x="558.38" y="-907" font-family="CMU Serif" font-size="14.00">res = limitAtEndpoint(</text>
<text xml:space="preserve" text-anchor="start" x="525.38" y="-887.5" font-family="CMU Serif" font-size="14.00">integ, f, seg.from, c − d, +1, eps)</text>
</g>
<!-- chkLeftSing&#45;&gt;callLeftLim -->
<g id="edge21" class="edge">
<title>chkLeftSing&#45;&gt;callLeftLim</title>
<path fill="none" stroke="#000000" d="M616.87,-1090.39C619.58,-1051.75 624.62,-980.09 627.6,-937.62"/>
<polygon fill="#000000" stroke="#000000" points="631.09,-937.94 628.3,-927.72 624.11,-937.45 631.09,-937.94"/>
<text xml:space="preserve" text-anchor="middle" x="634.95" y="-997.73" font-family="CMU Serif" font-size="12.00">да</text>
</g>
<!-- callLeftRng -->
<g id="node19" class="node">
<title>callLeftRng</title>
<polygon fill="#e6eefc" stroke="#000000" points="505.88,-926 336.12,-926 336.12,-879 505.88,-879 505.88,-926"/>
<text xml:space="preserve" text-anchor="start" x="344.12" y="-907" font-family="CMU Serif" font-size="14.00">res = integ.rungeSolve(</text>
<text xml:space="preserve" text-anchor="start" x="364.75" y="-887.5" font-family="CMU Serif" font-size="14.00">f, seg.from, c − d)</text>
</g>
<!-- chkLeftSing&#45;&gt;callLeftRng -->
<g id="edge22" class="edge">
<title>chkLeftSing&#45;&gt;callLeftRng</title>
<path fill="none" stroke="#000000" d="M604.48,-1092.32C583.19,-1042.37 537,-934 537,-934 537,-934 528.92,-931.87 517.02,-928.75"/>
<polygon fill="#000000" stroke="#000000" points="518.24,-925.45 507.68,-926.29 516.46,-932.22 518.24,-925.45"/>
<text xml:space="preserve" text-anchor="middle" x="601.7" y="-997.73" font-family="CMU Serif" font-size="12.00">нет</text>
</g>
<!-- chkLeftOk -->
<g id="node20" class="node">
<title>chkLeftOk</title>
<polygon fill="#fff7d1" stroke="#000000" points="551,-845.75 422.5,-818.25 551,-790.75 679.5,-818.25 551,-845.75"/>
<text xml:space="preserve" text-anchor="start" x="494.75" y="-813" font-family="CMU Serif" font-size="14.00">res.status = &quot;ok&quot;?</text>
</g>
<!-- callLeftLim&#45;&gt;chkLeftOk -->
<g id="edge23" class="edge">
<title>callLeftLim&#45;&gt;chkLeftOk</title>
<path fill="none" stroke="#000000" d="M607.99,-878.59C599.38,-869.62 589.37,-859.2 580.17,-849.62"/>
<polygon fill="#000000" stroke="#000000" points="582.84,-847.35 573.39,-842.56 577.79,-852.2 582.84,-847.35"/>
</g>
<!-- callLeftRng&#45;&gt;chkLeftOk -->
<g id="edge24" class="edge">
<title>callLeftRng&#45;&gt;chkLeftOk</title>
<path fill="none" stroke="#000000" d="M457.21,-878.59C473.54,-868.26 492.91,-856 509.79,-845.32"/>
<polygon fill="#000000" stroke="#000000" points="511.54,-848.36 518.12,-840.05 507.8,-842.44 511.54,-848.36"/>
</g>
<!-- retFailLT -->
<g id="node21" class="node">
<title>retFailLT</title>
<polygon fill="#fde2e2" stroke="#000000" points="581.43,-683 292.81,-683 218.57,-589 507.19,-589 581.43,-683"/>
<text xml:space="preserve" text-anchor="start" x="351.25" y="-640.5" font-family="CMU Serif" font-size="14.00">success = false</text>
<text xml:space="preserve" text-anchor="start" x="320.5" y="-621" font-family="CMU Serif" font-size="14.00">(хвостовой расходится)</text>
</g>
<!-- chkLeftOk&#45;&gt;retFailLT -->
<g id="edge25" class="edge">
<title>chkLeftOk&#45;&gt;retFailLT</title>
<path fill="none" stroke="#000000" d="M531.88,-794.42C510.37,-768.75 474.68,-726.14 445.84,-691.72"/>
<polygon fill="#000000" stroke="#000000" points="448.75,-689.74 439.65,-684.33 443.39,-694.24 448.75,-689.74"/>
<text xml:space="preserve" text-anchor="middle" x="530.81" y="-771.35" font-family="CMU Serif" font-size="12.00">нет</text>
</g>
<!-- assignLeft -->
<g id="node22" class="node">
<title>assignLeft</title>
<polygon fill="#ffffff" stroke="#000000" points="727.62,-757.5 544.38,-757.5 544.38,-691 727.62,-691 727.62,-757.5"/>
<text xml:space="preserve" text-anchor="start" x="567" y="-738.5" font-family="CMU Serif" font-size="14.00">leftTailVal = res.value</text>
<text xml:space="preserve" text-anchor="start" x="584.62" y="-719" font-family="CMU Serif" font-size="14.00">leftTailN = res.n</text>
<text xml:space="preserve" text-anchor="start" x="552.38" y="-699.5" font-family="CMU Serif" font-size="14.00">leftTailRunge = res.runge</text>
</g>
<!-- chkLeftOk&#45;&gt;assignLeft -->
<g id="edge27" class="edge">
<title>chkLeftOk&#45;&gt;assignLeft</title>
<path fill="none" stroke="#000000" d="M571.58,-794.98C579.64,-786.25 589.15,-775.96 598.35,-766"/>
<polygon fill="#000000" stroke="#000000" points="600.73,-768.59 604.94,-758.87 595.58,-763.84 600.73,-768.59"/>
<text xml:space="preserve" text-anchor="middle" x="605.71" y="-771.35" font-family="CMU Serif" font-size="12.00">да</text>
</g>
<!-- retFailLT&#45;&gt;stop -->
<g id="edge26" class="edge">
<title>retFailLT&#45;&gt;stop</title>
<path fill="none" stroke="#000000" d="M326.64,-588.59C270.63,-553.16 203,-510.38 203,-510.38 203,-510.38 203,-510.38 203,-188 203,-188 192.3,-130.08 185.5,-93.26"/>
<polygon fill="#000000" stroke="#000000" points="188.98,-92.83 183.72,-83.63 182.09,-94.1 188.98,-92.83"/>
</g>
<!-- assignLeft&#45;&gt;chkRightLen -->
<g id="edge28" class="edge">
<title>assignLeft&#45;&gt;chkRightLen</title>
<path fill="none" stroke="#000000" d="M638.51,-690.71C640.68,-662.56 643.81,-621.83 646.09,-592.25"/>
<polygon fill="#000000" stroke="#000000" points="649.56,-592.86 646.83,-582.62 642.58,-592.32 649.56,-592.86"/>
</g>
<!-- chkRightSing -->
<g id="node24" class="node">
<title>chkRightSing</title>
<polygon fill="#fff7d1" stroke="#000000" points="636,-492.75 485,-465.25 636,-437.75 787,-465.25 636,-492.75"/>
<text xml:space="preserve" text-anchor="start" x="568.5" y="-460" font-family="CMU Serif" font-size="14.00">plan[i+1].limit_at_to?</text>
</g>
<!-- chkRightLen&#45;&gt;chkRightSing -->
<g id="edge29" class="edge">
<title>chkRightLen&#45;&gt;chkRightSing</title>
<path fill="none" stroke="#000000" d="M645.1,-526.62C644.02,-519.44 642.82,-511.49 641.66,-503.79"/>
<polygon fill="#000000" stroke="#000000" points="645.12,-503.27 640.17,-493.9 638.2,-504.31 645.12,-503.27"/>
<text xml:space="preserve" text-anchor="middle" x="650.79" y="-506.6" font-family="CMU Serif" font-size="12.00">да</text>
</g>
<!-- accPV -->
<g id="node30" class="node">
<title>accPV</title>
<polygon fill="#fef3c7" stroke="#000000" points="981.88,-125 626.12,-125 626.12,0 981.88,0 981.88,-125"/>
<text xml:space="preserve" text-anchor="start" x="705.38" y="-106" font-family="CMU Serif" font-size="14.00">acc += leftTailVal + rightTailVal</text>
<text xml:space="preserve" text-anchor="start" x="709.12" y="-86.5" font-family="CMU Serif" font-size="14.00">nAcc += leftTailN + rightTailN</text>
<text xml:space="preserve" text-anchor="start" x="684.75" y="-67" font-family="CMU Serif" font-size="14.00">rg += leftTailRunge + rightTailRunge</text>
<text xml:space="preserve" text-anchor="start" x="634.12" y="-47.5" font-family="CMU Serif" font-size="14.00">(подотрезок [c − d, c + d] зануляется в смысле V.p.)</text>
<text xml:space="preserve" text-anchor="start" x="757.5" y="-28" font-family="CMU Serif" font-size="14.00">usedPV = true</text>
<text xml:space="preserve" text-anchor="start" x="780.38" y="-8.5" font-family="CMU Serif" font-size="14.00">i = i + 2</text>
</g>
<!-- chkRightLen&#45;&gt;accPV -->
<g id="edge30" class="edge">
<title>chkRightLen&#45;&gt;accPV</title>
<path fill="none" stroke="#000000" d="M694.56,-533.59C736.75,-516.09 793,-492.75 793,-492.75 793,-492.75 804,-466.25 804,-466.25 804,-466.25 804,-466.25 804,-188 804,-188 804,-163.77 804,-136.69"/>
<polygon fill="#000000" stroke="#000000" points="807.5,-136.9 804,-126.9 800.5,-136.9 807.5,-136.9"/>
<text xml:space="preserve" text-anchor="middle" x="813.75" y="-338.1" font-family="CMU Serif" font-size="12.00">нет</text>
</g>
<!-- callRightLim -->
<g id="node25" class="node">
<title>callRightLim</title>
<polygon fill="#e6eefc" stroke="#000000" points="779.25,-404.5 536.75,-404.5 536.75,-357.5 779.25,-357.5 779.25,-404.5"/>
<text xml:space="preserve" text-anchor="start" x="586.38" y="-385.5" font-family="CMU Serif" font-size="14.00">res = limitAtEndpoint(</text>
<text xml:space="preserve" text-anchor="start" x="544.75" y="-366" font-family="CMU Serif" font-size="14.00">integ, f, plan[i+1].to, c + d, −1, eps)</text>
</g>
<!-- chkRightSing&#45;&gt;callRightLim -->
<g id="edge31" class="edge">
<title>chkRightSing&#45;&gt;callRightLim</title>
<path fill="none" stroke="#000000" d="M642.84,-438.68C644.79,-431.39 646.94,-423.34 649,-415.65"/>
<polygon fill="#000000" stroke="#000000" points="652.32,-416.8 651.52,-406.23 645.55,-414.99 652.32,-416.8"/>
<text xml:space="preserve" text-anchor="middle" x="656.74" y="-418.35" font-family="CMU Serif" font-size="12.00">да</text>
</g>
<!-- callRightRng -->
<g id="node26" class="node">
<title>callRightRng</title>
<polygon fill="#e6eefc" stroke="#000000" points="525.88,-404.5 356.12,-404.5 356.12,-357.5 525.88,-357.5 525.88,-404.5"/>
<text xml:space="preserve" text-anchor="start" x="364.12" y="-385.5" font-family="CMU Serif" font-size="14.00">res = integ.rungeSolve(</text>
<text xml:space="preserve" text-anchor="start" x="376.12" y="-366" font-family="CMU Serif" font-size="14.00">f, c + d, plan[i+1].to)</text>
</g>
<!-- chkRightSing&#45;&gt;callRightRng -->
<g id="edge32" class="edge">
<title>chkRightSing&#45;&gt;callRightRng</title>
<path fill="none" stroke="#000000" d="M591.75,-445.59C566.44,-434.91 534.23,-421.32 506.08,-409.45"/>
<polygon fill="#000000" stroke="#000000" points="507.49,-406.24 496.91,-405.58 504.77,-412.69 507.49,-406.24"/>
<text xml:space="preserve" text-anchor="middle" x="559.93" y="-418.35" font-family="CMU Serif" font-size="12.00">нет</text>
</g>
<!-- chkRightOk -->
<g id="node27" class="node">
<title>chkRightOk</title>
<polygon fill="#fff7d1" stroke="#000000" points="525,-324.25 396.5,-296.75 525,-269.25 653.5,-296.75 525,-324.25"/>
<text xml:space="preserve" text-anchor="start" x="468.75" y="-291.5" font-family="CMU Serif" font-size="14.00">res.status = &quot;ok&quot;?</text>
</g>
<!-- callRightLim&#45;&gt;chkRightOk -->
<g id="edge33" class="edge">
<title>callRightLim&#45;&gt;chkRightOk</title>
<path fill="none" stroke="#000000" d="M620.95,-357.09C604.09,-346.66 584.06,-334.28 566.68,-323.52"/>
<polygon fill="#000000" stroke="#000000" points="568.96,-320.82 558.62,-318.54 565.28,-326.78 568.96,-320.82"/>
</g>
<!-- callRightRng&#45;&gt;chkRightOk -->
<g id="edge34" class="edge">
<title>callRightRng&#45;&gt;chkRightOk</title>
<path fill="none" stroke="#000000" d="M464.4,-357.09C473.73,-347.95 484.59,-337.32 494.52,-327.59"/>
<polygon fill="#000000" stroke="#000000" points="496.82,-330.24 501.51,-320.75 491.92,-325.24 496.82,-330.24"/>
</g>
<!-- retFailRT -->
<g id="node28" class="node">
<title>retFailRT</title>
<polygon fill="#fde2e2" stroke="#000000" points="582.43,-236 293.81,-236 219.57,-142 508.19,-142 582.43,-236"/>
<text xml:space="preserve" text-anchor="start" x="352.25" y="-193.5" font-family="CMU Serif" font-size="14.00">success = false</text>
<text xml:space="preserve" text-anchor="start" x="321.5" y="-174" font-family="CMU Serif" font-size="14.00">(хвостовой расходится)</text>
</g>
<!-- chkRightOk&#45;&gt;retFailRT -->
<g id="edge35" class="edge">
<title>chkRightOk&#45;&gt;retFailRT</title>
<path fill="none" stroke="#000000" d="M499.91,-274.35C489.5,-265.47 476.91,-254.74 464.25,-243.94"/>
<polygon fill="#000000" stroke="#000000" points="466.54,-241.29 456.66,-237.46 461.99,-246.62 466.54,-241.29"/>
<text xml:space="preserve" text-anchor="middle" x="491.1" y="-249.85" font-family="CMU Serif" font-size="12.00">нет</text>
</g>
<!-- assignRight -->
<g id="node29" class="node">
<title>assignRight</title>
<polygon fill="#ffffff" stroke="#000000" points="786.88,-222.25 593.12,-222.25 593.12,-155.75 786.88,-155.75 786.88,-222.25"/>
<text xml:space="preserve" text-anchor="start" x="615.75" y="-203.25" font-family="CMU Serif" font-size="14.00">rightTailVal = res.value</text>
<text xml:space="preserve" text-anchor="start" x="633.38" y="-183.75" font-family="CMU Serif" font-size="14.00">rightTailN = res.n</text>
<text xml:space="preserve" text-anchor="start" x="601.12" y="-164.25" font-family="CMU Serif" font-size="14.00">rightTailRunge = res.runge</text>
</g>
<!-- chkRightOk&#45;&gt;assignRight -->
<g id="edge37" class="edge">
<title>chkRightOk&#45;&gt;assignRight</title>
<path fill="none" stroke="#000000" d="M556.42,-275.61C576.98,-262.44 604.5,-244.79 629.23,-228.95"/>
<polygon fill="#000000" stroke="#000000" points="631.1,-231.91 637.63,-223.57 627.32,-226.01 631.1,-231.91"/>
<text xml:space="preserve" text-anchor="middle" x="609.68" y="-249.85" font-family="CMU Serif" font-size="12.00">да</text>
</g>
<!-- retFailRT&#45;&gt;stop -->
<g id="edge36" class="edge">
<title>retFailRT&#45;&gt;stop</title>
<path fill="none" stroke="#000000" d="M318.71,-141.64C282.97,-121.51 243.01,-98.99 215.19,-83.33"/>
<polygon fill="#000000" stroke="#000000" points="217.27,-80.48 206.84,-78.62 213.84,-86.58 217.27,-80.48"/>
</g>
<!-- assignRight&#45;&gt;accPV -->
<g id="edge38" class="edge">
<title>assignRight&#45;&gt;accPV</title>
<path fill="none" stroke="#000000" d="M719.95,-155.29C726.15,-148.52 732.91,-141.14 739.81,-133.6"/>
<polygon fill="#000000" stroke="#000000" points="742.14,-136.24 746.31,-126.5 736.98,-131.51 742.14,-136.24"/>
</g>
<!-- accPV&#45;&gt;chkI -->
<g id="edge39" class="edge">
<title>accPV&#45;&gt;chkI</title>
<path fill="none" stroke="#000000" d="M819.41,-125.39C827.19,-156.63 835,-188 835,-188 835,-2190.5 835,-2190.5 835,-2190.5 835,-2190.5 810,-2232.75 810,-2232.75 810,-2232.75 809.9,-2232.91 809.73,-2233.2"/>
<polygon fill="#000000" stroke="#000000" points="806.81,-2231.26 804.6,-2241.62 812.79,-2234.9 806.81,-2231.26"/>
</g>
<!-- chkFb -->
<g id="node32" class="node">
<title>chkFb</title>
<polygon fill="#fff7d1" stroke="#000000" points="343,-1249.25 224.25,-1221.75 343,-1194.25 461.75,-1221.75 343,-1249.25"/>
<text xml:space="preserve" text-anchor="start" x="291.62" y="-1216.5" font-family="CMU Serif" font-size="14.00">sr.status = &quot;ok&quot;?</text>
</g>
<!-- fallback&#45;&gt;chkFb -->
<g id="edge42" class="edge">
<title>fallback&#45;&gt;chkFb</title>
<path fill="none" stroke="#000000" d="M337.3,-1265.94C337.56,-1263.95 337.83,-1261.95 338.09,-1259.94"/>
<polygon fill="#000000" stroke="#000000" points="341.54,-1260.53 339.38,-1250.16 334.6,-1259.62 341.54,-1260.53"/>
</g>
<!-- retFailFb -->
<g id="node33" class="node">
<title>retFailFb</title>
<polygon fill="#fde2e2" stroke="#000000" points="531.54,-1067 237.98,-1067 162.46,-934 456.02,-934 531.54,-1067"/>
<text xml:space="preserve" text-anchor="start" x="298.25" y="-1014.75" font-family="CMU Serif" font-size="14.00">success = false</text>
<text xml:space="preserve" text-anchor="start" x="292.62" y="-995.25" font-family="CMU Serif" font-size="14.00">(несобственный</text>
<text xml:space="preserve" text-anchor="start" x="266" y="-975.75" font-family="CMU Serif" font-size="14.00">подотрезок расходится)</text>
</g>
<!-- chkFb&#45;&gt;retFailFb -->
<g id="edge43" class="edge">
<title>chkFb&#45;&gt;retFailFb</title>
<path fill="none" stroke="#000000" d="M343.49,-1193.87C344.01,-1165.29 344.86,-1118.78 345.59,-1078.65"/>
<polygon fill="#000000" stroke="#000000" points="349.09,-1078.82 345.77,-1068.76 342.09,-1078.69 349.09,-1078.82"/>
<text xml:space="preserve" text-anchor="middle" x="353.69" y="-1174.85" font-family="CMU Serif" font-size="12.00">нет</text>
</g>
<!-- accFb -->
<g id="node34" class="node">
<title>accFb</title>
<polygon fill="#ffffff" stroke="#000000" points="470.25,-1161 359.75,-1161 359.75,-1075 470.25,-1075 470.25,-1161"/>
<text xml:space="preserve" text-anchor="start" x="367.75" y="-1142" font-family="CMU Serif" font-size="14.00">acc += sr.value</text>
<text xml:space="preserve" text-anchor="start" x="375.62" y="-1122.5" font-family="CMU Serif" font-size="14.00">nAcc += sr.n</text>
<text xml:space="preserve" text-anchor="start" x="368.5" y="-1103" font-family="CMU Serif" font-size="14.00">rg += sr.runge</text>
<text xml:space="preserve" text-anchor="start" x="391.38" y="-1083.5" font-family="CMU Serif" font-size="14.00">i = i + 1</text>
</g>
<!-- chkFb&#45;&gt;accFb -->
<g id="edge45" class="edge">
<title>chkFb&#45;&gt;accFb</title>
<path fill="none" stroke="#000000" d="M359.34,-1197.66C365.12,-1189.49 371.89,-1179.93 378.66,-1170.35"/>
<polygon fill="#000000" stroke="#000000" points="381.34,-1172.62 384.26,-1162.44 375.63,-1168.58 381.34,-1172.62"/>
<text xml:space="preserve" text-anchor="middle" x="386.12" y="-1174.85" font-family="CMU Serif" font-size="12.00">да</text>
</g>
<!-- retFailFb&#45;&gt;stop -->
<g id="edge44" class="edge">
<title>retFailFb&#45;&gt;stop</title>
<path fill="none" stroke="#000000" d="M266.44,-933.83C223.73,-899.02 180,-863.38 180,-863.38 180,-863.38 180,-863.38 180,-188 180,-188 180,-130.38 180,-93.54"/>
<polygon fill="#000000" stroke="#000000" points="183.5,-93.92 180,-83.92 176.5,-93.92 183.5,-93.92"/>
</g>
<!-- accFb&#45;&gt;chkI -->
<g id="edge46" class="edge">
<title>accFb&#45;&gt;chkI</title>
<path fill="none" stroke="#000000" d="M470.37,-1157.12C473.86,-1159.52 476,-1161 476,-1161 476,-1161 638,-1169 638,-1169 638,-1169 777,-1194.25 777,-1194.25 777,-1194.25 812,-1220.75 812,-1220.75 812,-2190.5 812,-2190.5 812,-2190.5 812,-2190.5 805.84,-2211.05 799.9,-2230.88"/>
<polygon fill="#000000" stroke="#000000" points="796.61,-2229.66 797.09,-2240.24 803.32,-2231.67 796.61,-2229.66"/>
</g>
</g>
</svg>
