<?xml version="1.0" encoding="UTF-8" standalone="no"?>
<!DOCTYPE svg PUBLIC "-//W3C//DTD SVG 1.1//EN"
 "http://www.w3.org/Graphics/SVG/1.1/DTD/svg11.dtd">
<!-- Generated by graphviz version 14.1.5 (0)
 -->
<!-- Title: UML Pages: 1 -->
<svg width="310pt" height="1264pt"
 viewBox="0.00 0.00 310.00 1264.00" xmlns="http://www.w3.org/2000/svg" xmlns:xlink="http://www.w3.org/1999/xlink">
<g id="graph0" class="graph" transform="scale(1 1) rotate(0) translate(4 1260.25)">
<title>UML</title>
<polygon fill="white" stroke="none" points="-4,4 -4,-1260.25 305.5,-1260.25 305.5,4 -4,4"/>
<!-- GaussSolver -->
<g id="node1" class="node">
<title>GaussSolver</title>
<polygon fill="#ffffff" stroke="none" points="8,-502.5 8,-680 293.5,-680 293.5,-502.5 8,-502.5"/>
<text xml:space="preserve" text-anchor="start" x="114" y="-662.6" font-family="CMU Serif" font-weight="bold" font-size="12.00">GaussSolver</text>
<text xml:space="preserve" text-anchor="start" x="15" y="-630.25" font-family="CMU Serif" font-size="12.00">+ kEps : double = 1e−12</text>
<text xml:space="preserve" text-anchor="start" x="15" y="-601" font-family="CMU Serif" font-size="12.00">+ kMaxSize : int = 20</text>
<text xml:space="preserve" text-anchor="start" x="15" y="-571.75" font-family="CMU Serif" font-size="12.00">+ solve(A, b) : GaussResult</text>
<text xml:space="preserve" text-anchor="start" x="15" y="-542.5" font-family="CMU Serif" font-size="12.00">+ generateMatrix(n, seed) : vec&lt;vec&lt;double&gt;&gt;</text>
<text xml:space="preserve" text-anchor="start" x="15" y="-513.25" font-family="CMU Serif" font-size="12.00">+ generateAugmentation(n, seed) : vec&lt;double&gt;</text>
<polygon fill="black" stroke="black" points="8,-649.75 8,-649.75 293.5,-649.75 293.5,-649.75 8,-649.75"/>
<polygon fill="black" stroke="black" points="8,-591.25 8,-591.25 293.5,-591.25 293.5,-591.25 8,-591.25"/>
<polygon fill="none" stroke="black" points="8,-502.5 8,-680 293.5,-680 293.5,-502.5 8,-502.5"/>
</g>
<!-- GaussResult -->
<g id="node2" class="node">
<title>GaussResult</title>
<polygon fill="#ffffff" stroke="none" points="34.25,-224 34.25,-430.75 267.25,-430.75 267.25,-224 34.25,-224"/>
<text xml:space="preserve" text-anchor="start" x="114" y="-413.35" font-family="CMU Serif" font-weight="bold" font-size="12.00">GaussResult</text>
<text xml:space="preserve" text-anchor="start" x="41.25" y="-381" font-family="CMU Serif" font-size="12.00">+ status : GaussStatus</text>
<text xml:space="preserve" text-anchor="start" x="41.25" y="-351.75" font-family="CMU Serif" font-size="12.00">+ triangular : matrix</text>
<text xml:space="preserve" text-anchor="start" x="41.25" y="-322.5" font-family="CMU Serif" font-size="12.00">+ reducedAugmentation : vec&lt;double&gt;</text>
<text xml:space="preserve" text-anchor="start" x="41.25" y="-293.25" font-family="CMU Serif" font-size="12.00">+ solution : vec&lt;double&gt;</text>
<text xml:space="preserve" text-anchor="start" x="41.25" y="-264" font-family="CMU Serif" font-size="12.00">+ residuals : vec&lt;double&gt;</text>
<text xml:space="preserve" text-anchor="start" x="41.25" y="-234.75" font-family="CMU Serif" font-size="12.00">+ determinant : double</text>
<polygon fill="black" stroke="black" points="34.25,-400.5 34.25,-400.5 267.25,-400.5 267.25,-400.5 34.25,-400.5"/>
<polygon fill="none" stroke="black" points="34.25,-224 34.25,-430.75 267.25,-430.75 267.25,-224 34.25,-224"/>
</g>
<!-- GaussSolver&#45;&gt;GaussResult -->
<g id="edge3" class="edge">
<title>GaussSolver&#45;&gt;GaussResult</title>
<path fill="none" stroke="#000000" d="M150.75,-498.66C150.75,-481.56 150.75,-463.47 150.75,-445.72"/>
<polygon fill="#000000" stroke="#000000" points="150.75,-435.94 155.25,-445.94 150.75,-439.72 150.75,-445.94 150.75,-445.94 150.75,-445.94 150.75,-439.72 146.25,-445.94 150.75,-435.94"/>
<text xml:space="preserve" text-anchor="middle" x="182.62" y="-464.05" font-family="CMU Serif" font-size="11.00">возвращает</text>
</g>
<!-- GaussStatus -->
<g id="node3" class="node">
<title>GaussStatus</title>
<polygon fill="#fff7d1" stroke="none" points="80.38,-4 80.38,-152.25 221.12,-152.25 221.12,-4 80.38,-4"/>
<text xml:space="preserve" text-anchor="start" x="87.38" y="-134.85" font-family="CMU Serif" font-weight="bold" font-size="12.00">«enum» GaussStatus</text>
<text xml:space="preserve" text-anchor="start" x="87.38" y="-102.5" font-family="CMU Serif" font-size="12.00">SINGLE_SOLUTION</text>
<text xml:space="preserve" text-anchor="start" x="87.38" y="-73.25" font-family="CMU Serif" font-size="12.00">NO_SOLUTIONS</text>
<text xml:space="preserve" text-anchor="start" x="87.38" y="-44" font-family="CMU Serif" font-size="12.00">INFINITE_SOLUTIONS</text>
<text xml:space="preserve" text-anchor="start" x="87.38" y="-14.75" font-family="CMU Serif" font-size="12.00">INVALID_SIZE</text>
<polygon fill="black" stroke="black" points="80.38,-122 80.38,-122 221.12,-122 221.12,-122 80.38,-122"/>
<polygon fill="none" stroke="black" points="80.38,-4 80.38,-152.25 221.12,-152.25 221.12,-4 80.38,-4"/>
</g>
<!-- GaussResult&#45;&gt;GaussStatus -->
<g id="edge4" class="edge">
<title>GaussResult&#45;&gt;GaussStatus</title>
<path fill="none" stroke="#000000" d="M150.75,-220.08C150.75,-202.48 150.75,-184.39 150.75,-167.29"/>
<polygon fill="#000000" stroke="#000000" points="150.75,-157.43 155.25,-167.43 150.75,-161.21 150.75,-167.43 150.75,-167.43 150.75,-167.43 150.75,-161.21 146.25,-167.43 150.75,-157.43"/>
<text xml:space="preserve" text-anchor="middle" x="169.12" y="-185.55" font-family="CMU Serif" font-size="11.00">хранит</text>
</g>
<!-- GaussModule -->
<g id="node4" class="node">
<title>GaussModule</title>
<polygon fill="#e6eefc" stroke="none" points="14,-751.75 14,-841.5 287.5,-841.5 287.5,-751.75 14,-751.75"/>
<text xml:space="preserve" text-anchor="start" x="110.25" y="-824.1" font-family="CMU Serif" font-weight="bold" font-size="12.00">GaussModule</text>
<text xml:space="preserve" text-anchor="start" x="21" y="-791.75" font-family="CMU Serif" font-size="12.00">+ solve(payload : QVariantMap) : QVariantMap</text>
<text xml:space="preserve" text-anchor="start" x="21" y="-762.5" font-family="CMU Serif" font-size="12.00">+ generate(size : qint32) : QVariantMap</text>
<polygon fill="black" stroke="black" points="14,-811.25 14,-811.25 287.5,-811.25 287.5,-811.25 14,-811.25"/>
<polygon fill="none" stroke="black" points="14,-751.75 14,-841.5 287.5,-841.5 287.5,-751.75 14,-751.75"/>
</g>
<!-- GaussModule&#45;&gt;GaussSolver -->
<g id="edge2" class="edge">
<title>GaussModule&#45;&gt;GaussSolver</title>
<path fill="none" stroke="#000000" d="M150.75,-747.94C150.75,-732.02 150.75,-713.61 150.75,-695.14"/>
<polygon fill="#000000" stroke="#000000" points="150.75,-685.19 155.25,-695.19 150.75,-688.98 150.75,-695.19 150.75,-695.19 150.75,-695.19 150.75,-688.98 146.25,-695.19 150.75,-685.19"/>
<text xml:space="preserve" text-anchor="middle" x="180.75" y="-713.3" font-family="CMU Serif" font-size="11.00">использует</text>
</g>
<!-- Backend -->
<g id="node5" class="node">
<title>Backend</title>
<polygon fill="#e6eefc" stroke="none" points="17.75,-913.25 17.75,-1032.25 283.75,-1032.25 283.75,-913.25 17.75,-913.25"/>
<text xml:space="preserve" text-anchor="start" x="95.62" y="-1014.85" font-family="CMU Serif" font-weight="bold" font-size="12.00">Backend : QObject</text>
<text xml:space="preserve" text-anchor="start" x="24.75" y="-982.5" font-family="CMU Serif" font-size="12.00">+ solveLinearSystem(payload) : QVariantMap</text>
<text xml:space="preserve" text-anchor="start" x="24.75" y="-953.25" font-family="CMU Serif" font-size="12.00">+ generateLinearSystem(size) : QVariantMap</text>
<text xml:space="preserve" text-anchor="start" x="24.75" y="-924" font-family="CMU Serif" font-size="12.00">… (методы ЛР №2 и №3)</text>
<polygon fill="black" stroke="black" points="17.75,-1002 17.75,-1002 283.75,-1002 283.75,-1002 17.75,-1002"/>
<polygon fill="none" stroke="black" points="17.75,-913.25 17.75,-1032.25 283.75,-1032.25 283.75,-913.25 17.75,-913.25"/>
</g>
<!-- Backend&#45;&gt;GaussModule -->
<g id="edge1" class="edge">
<title>Backend&#45;&gt;GaussModule</title>
<path fill="none" stroke="#000000" d="M150.75,-909.38C150.75,-892.09 150.75,-873.38 150.75,-856.31"/>
<polygon fill="#000000" stroke="#000000" points="150.75,-846.57 155.25,-856.57 150.75,-850.36 150.75,-856.57 150.75,-856.57 150.75,-856.57 150.75,-850.36 146.25,-856.57 150.75,-846.57"/>
<text xml:space="preserve" text-anchor="middle" x="176.25" y="-874.8" font-family="CMU Serif" font-size="11.00">вызывает</text>
</g>
<!-- ModuleGaussQml -->
<g id="node6" class="node">
<title>ModuleGaussQml</title>
<polygon fill="#f5f5f5" stroke="none" points="27.5,-1104 27.5,-1252.25 274,-1252.25 274,-1104 27.5,-1104"/>
<text xml:space="preserve" text-anchor="start" x="97.12" y="-1234.85" font-family="CMU Serif" font-weight="bold" font-size="12.00">ModuleGauss.qml</text>
<text xml:space="preserve" text-anchor="start" x="34.5" y="-1202.5" font-family="CMU Serif" font-size="12.00">QML&#45;компонент (RowLayout)</text>
<text xml:space="preserve" text-anchor="start" x="34.5" y="-1173.25" font-family="CMU Serif" font-size="12.00">— ввод матрицы [A | b]</text>
<text xml:space="preserve" text-anchor="start" x="34.5" y="-1144" font-family="CMU Serif" font-size="12.00">— кнопки «Случайные» и «Вычислить»</text>
<text xml:space="preserve" text-anchor="start" x="34.5" y="-1114.75" font-family="CMU Serif" font-size="12.00">— вывод треуг. матрицы, x, det, невязок</text>
<polygon fill="black" stroke="black" points="27.5,-1222 27.5,-1222 274,-1222 274,-1222 27.5,-1222"/>
<polygon fill="none" stroke="black" points="27.5,-1104 27.5,-1252.25 274,-1252.25 274,-1104 27.5,-1104"/>
</g>
<!-- ModuleGaussQml&#45;&gt;Backend -->
<g id="edge5" class="edge">
<title>ModuleGaussQml&#45;&gt;Backend</title>
<path fill="none" stroke="#000000" d="M150.75,-1100.24C150.75,-1082.89 150.75,-1064.52 150.75,-1047.31"/>
<polygon fill="#000000" stroke="#000000" points="150.75,-1037.41 155.25,-1047.41 150.75,-1041.19 150.75,-1047.41 150.75,-1047.41 150.75,-1047.41 150.75,-1041.19 146.25,-1047.41 150.75,-1037.41"/>
<text xml:space="preserve" text-anchor="middle" x="187.5" y="-1065.55" font-family="CMU Serif" font-size="11.00">Q_INVOKABLE</text>
</g>
</g>
</svg>
