<?xml version="1.0" encoding="UTF-8" standalone="no"?>
<!DOCTYPE svg PUBLIC "-//W3C//DTD SVG 1.1//EN"
 "http://www.w3.org/Graphics/SVG/1.1/DTD/svg11.dtd">
<!-- Generated by graphviz version 14.1.5 (0)
 -->
<!-- Title: UMLLab4 Pages: 1 -->
<svg width="580pt" height="1352pt"
 viewBox="0.00 0.00 580.00 1352.00" xmlns="http://www.w3.org/2000/svg" xmlns:xlink="http://www.w3.org/1999/xlink">
<g id="graph0" class="graph" transform="scale(1 1) rotate(0) translate(4 1348)">
<title>UMLLab4</title>
<polygon fill="white" stroke="none" points="-4,4 -4,-1348 576.25,-1348 576.25,4 -4,4"/>
<!-- LSA -->
<g id="node1" class="node">
<title>LSA</title>
<polygon fill="#ffffff" stroke="none" points="202.75,-590.25 202.75,-767.75 420.75,-767.75 420.75,-590.25 202.75,-590.25"/>
<text xml:space="preserve" text-anchor="start" x="229.25" y="-750.35" font-family="CMU Serif" font-weight="bold" font-size="12.00">LeastSquaresApproximator</text>
<text xml:space="preserve" text-anchor="start" x="209.75" y="-718" font-family="CMU Serif" font-size="12.00">+ kMinPoints : size_t = 4</text>
<text xml:space="preserve" text-anchor="start" x="209.75" y="-688.75" font-family="CMU Serif" font-size="12.00">+ kMaxPoints : size_t = 12</text>
<text xml:space="preserve" text-anchor="start" x="209.75" y="-659.5" font-family="CMU Serif" font-size="12.00">+ approximate(kind, data) : Result</text>
<text xml:space="preserve" text-anchor="start" x="209.75" y="-630.25" font-family="CMU Serif" font-size="12.00">+ approximateAll(data) : vec&lt;Result&gt;</text>
<text xml:space="preserve" text-anchor="start" x="209.75" y="-601" font-family="CMU Serif" font-size="12.00">+ evaluate(r, x) : double &#160;«static»</text>
<polygon fill="black" stroke="black" points="202.75,-737.5 202.75,-737.5 420.75,-737.5 420.75,-737.5 202.75,-737.5"/>
<polygon fill="black" stroke="black" points="202.75,-679 202.75,-679 420.75,-679 420.75,-679 202.75,-679"/>
<polygon fill="none" stroke="black" points="202.75,-590.25 202.75,-767.75 420.75,-767.75 420.75,-590.25 202.75,-590.25"/>
</g>
<!-- Result -->
<g id="node2" class="node">
<title>Result</title>
<polygon fill="#ffffff" stroke="none" points="39.5,-282.5 39.5,-518.5 220,-518.5 220,-282.5 39.5,-282.5"/>
<text xml:space="preserve" text-anchor="start" x="111" y="-501.1" font-family="CMU Serif" font-weight="bold" font-size="12.00">Result</text>
<text xml:space="preserve" text-anchor="start" x="46.5" y="-468.75" font-family="CMU Serif" font-size="12.00">+ kind : Kind</text>
<text xml:space="preserve" text-anchor="start" x="46.5" y="-439.5" font-family="CMU Serif" font-size="12.00">+ status : Status</text>
<text xml:space="preserve" text-anchor="start" x="46.5" y="-410.25" font-family="CMU Serif" font-size="12.00">+ coeffs : vec&lt;double&gt;</text>
<text xml:space="preserve" text-anchor="start" x="46.5" y="-381" font-family="CMU Serif" font-size="12.00">+ phi : vec&lt;double&gt;</text>
<text xml:space="preserve" text-anchor="start" x="46.5" y="-351.75" font-family="CMU Serif" font-size="12.00">+ eps : vec&lt;double&gt;</text>
<text xml:space="preserve" text-anchor="start" x="46.5" y="-322.5" font-family="CMU Serif" font-size="12.00">+ S, delta, r2 : double</text>
<text xml:space="preserve" text-anchor="start" x="46.5" y="-293.25" font-family="CMU Serif" font-size="12.00">+ pearson : optional&lt;double&gt;</text>
<polygon fill="black" stroke="black" points="39.5,-488.25 39.5,-488.25 220,-488.25 220,-488.25 39.5,-488.25"/>
<polygon fill="none" stroke="black" points="39.5,-282.5 39.5,-518.5 220,-518.5 220,-282.5 39.5,-282.5"/>
</g>
<!-- LSA&#45;&gt;Result -->
<g id="edge4" class="edge">
<title>LSA&#45;&gt;Result</title>
<path fill="none" stroke="#000000" d="M251.4,-586.31C239.89,-568.83 227.64,-550.22 215.52,-531.81"/>
<polygon fill="#000000" stroke="#000000" points="210.06,-523.51 219.32,-529.39 212.14,-526.67 215.56,-531.86 215.56,-531.86 215.56,-531.86 212.14,-526.67 211.8,-534.34 210.06,-523.51"/>
<text xml:space="preserve" text-anchor="middle" x="263.52" y="-551.8" font-family="CMU Serif" font-size="11.00">возвращает</text>
</g>
<!-- Point -->
<g id="node3" class="node">
<title>Point</title>
<polygon fill="#ffffff" stroke="none" points="272.5,-355.62 272.5,-445.38 351,-445.38 351,-355.62 272.5,-355.62"/>
<text xml:space="preserve" text-anchor="start" x="296" y="-427.98" font-family="CMU Serif" font-weight="bold" font-size="12.00">Point</text>
<text xml:space="preserve" text-anchor="start" x="279.5" y="-395.62" font-family="CMU Serif" font-size="12.00">+ x : double</text>
<text xml:space="preserve" text-anchor="start" x="279.5" y="-366.38" font-family="CMU Serif" font-size="12.00">+ y : double</text>
<polygon fill="black" stroke="black" points="272.5,-415.12 272.5,-415.12 351,-415.12 351,-415.12 272.5,-415.12"/>
<polygon fill="none" stroke="black" points="272.5,-355.62 272.5,-445.38 351,-445.38 351,-355.62 272.5,-355.62"/>
</g>
<!-- LSA&#45;&gt;Point -->
<g id="edge5" class="edge">
<title>LSA&#45;&gt;Point</title>
<path fill="none" stroke="#000000" d="M311.75,-586.31C311.75,-544.71 311.75,-496.75 311.75,-460.11"/>
<polygon fill="#000000" stroke="#000000" points="311.75,-450.34 316.25,-460.34 311.75,-454.12 311.75,-460.34 311.75,-460.34 311.75,-460.34 311.75,-454.12 307.25,-460.34 311.75,-450.34"/>
<text xml:space="preserve" text-anchor="middle" x="341.38" y="-551.8" font-family="CMU Serif" font-size="11.00">принимает</text>
</g>
<!-- GaussSolver -->
<g id="node6" class="node">
<title>GaussSolver</title>
<polygon fill="#f5f5f5" stroke="none" points="403.25,-370.25 403.25,-430.75 564.25,-430.75 564.25,-370.25 403.25,-370.25"/>
<text xml:space="preserve" text-anchor="start" x="413.25" y="-413.35" font-family="CMU Serif" font-weight="bold" font-size="12.00">GaussSolver</text>
<text xml:space="preserve" text-anchor="start" x="486.75" y="-413.35" font-family="CMU Serif" font-size="12.00"> &#160;(из ЛР №1)</text>
<text xml:space="preserve" text-anchor="start" x="410.25" y="-381" font-family="CMU Serif" font-size="12.00">+ solve(A, b) : GaussResult</text>
<polygon fill="black" stroke="black" points="403.25,-400.5 403.25,-400.5 564.25,-400.5 564.25,-400.5 403.25,-400.5"/>
<polygon fill="none" stroke="black" points="403.25,-370.25 403.25,-430.75 564.25,-430.75 564.25,-370.25 403.25,-370.25"/>
</g>
<!-- LSA&#45;&gt;GaussSolver -->
<g id="edge3" class="edge">
<title>LSA&#45;&gt;GaussSolver</title>
<path fill="none" stroke="#000000" d="M368.78,-586.31C398.71,-538.2 433.94,-481.57 457.44,-443.79"/>
<polygon fill="#000000" stroke="#000000" points="462.51,-435.65 461.05,-446.52 460.51,-438.86 457.23,-444.14 457.23,-444.14 457.23,-444.14 460.51,-438.86 453.4,-441.76 462.51,-435.65"/>
<text xml:space="preserve" text-anchor="middle" x="456.34" y="-551.8" font-family="CMU Serif" font-size="11.00">нормальные уравнения</text>
</g>
<!-- Kind -->
<g id="node4" class="node">
<title>Kind</title>
<polygon fill="#fff7d1" stroke="none" points="8,-4 8,-210.75 101.5,-210.75 101.5,-4 8,-4"/>
<text xml:space="preserve" text-anchor="start" x="15" y="-193.35" font-family="CMU Serif" font-weight="bold" font-size="12.00">«enum» Kind</text>
<text xml:space="preserve" text-anchor="start" x="15" y="-161" font-family="CMU Serif" font-size="12.00">Linear</text>
<text xml:space="preserve" text-anchor="start" x="15" y="-131.75" font-family="CMU Serif" font-size="12.00">Poly2</text>
<text xml:space="preserve" text-anchor="start" x="15" y="-102.5" font-family="CMU Serif" font-size="12.00">Poly3</text>
<text xml:space="preserve" text-anchor="start" x="15" y="-73.25" font-family="CMU Serif" font-size="12.00">Exponential</text>
<text xml:space="preserve" text-anchor="start" x="15" y="-44" font-family="CMU Serif" font-size="12.00">Logarithmic</text>
<text xml:space="preserve" text-anchor="start" x="15" y="-14.75" font-family="CMU Serif" font-size="12.00">Power</text>
<polygon fill="black" stroke="black" points="8,-180.5 8,-180.5 101.5,-180.5 101.5,-180.5 8,-180.5"/>
<polygon fill="none" stroke="black" points="8,-4 8,-210.75 101.5,-210.75 101.5,-4 8,-4"/>
</g>
<!-- Result&#45;&gt;Kind -->
<g id="edge6" class="edge">
<title>Result&#45;&gt;Kind</title>
<path fill="none" stroke="#000000" d="M98.59,-278.57C94.06,-260.97 89.4,-242.88 84.89,-225.37"/>
<polygon fill="#000000" stroke="#000000" points="82.41,-215.73 89.26,-224.29 83.35,-219.39 84.9,-225.41 84.9,-225.41 84.9,-225.41 83.35,-219.39 80.54,-226.53 82.41,-215.73"/>
<text xml:space="preserve" text-anchor="middle" x="110.62" y="-244.05" font-family="CMU Serif" font-size="11.00">хранит</text>
</g>
<!-- Status -->
<g id="node5" class="node">
<title>Status</title>
<polygon fill="#fff7d1" stroke="none" points="153.38,-4 153.38,-210.75 258.12,-210.75 258.12,-4 153.38,-4"/>
<text xml:space="preserve" text-anchor="start" x="160.38" y="-193.35" font-family="CMU Serif" font-weight="bold" font-size="12.00">«enum» Status</text>
<text xml:space="preserve" text-anchor="start" x="160.38" y="-161" font-family="CMU Serif" font-size="12.00">Ok</text>
<text xml:space="preserve" text-anchor="start" x="160.38" y="-131.75" font-family="CMU Serif" font-size="12.00">TooFew</text>
<text xml:space="preserve" text-anchor="start" x="160.38" y="-102.5" font-family="CMU Serif" font-size="12.00">TooMany</text>
<text xml:space="preserve" text-anchor="start" x="160.38" y="-73.25" font-family="CMU Serif" font-size="12.00">NonPositiveX</text>
<text xml:space="preserve" text-anchor="start" x="160.38" y="-44" font-family="CMU Serif" font-size="12.00">NonPositiveY</text>
<text xml:space="preserve" text-anchor="start" x="160.38" y="-14.75" font-family="CMU Serif" font-size="12.00">Degenerate</text>
<polygon fill="black" stroke="black" points="153.38,-180.5 153.38,-180.5 258.12,-180.5 258.12,-180.5 153.38,-180.5"/>
<polygon fill="none" stroke="black" points="153.38,-4 153.38,-210.75 258.12,-210.75 258.12,-4 153.38,-4"/>
</g>
<!-- Result&#45;&gt;Status -->
<g id="edge7" class="edge">
<title>Result&#45;&gt;Status</title>
<path fill="none" stroke="#000000" d="M161.32,-278.57C165.91,-260.97 170.64,-242.88 175.21,-225.37"/>
<polygon fill="#000000" stroke="#000000" points="177.73,-215.72 179.55,-226.54 176.77,-219.38 175.2,-225.4 175.2,-225.4 175.2,-225.4 176.77,-219.38 170.85,-224.26 177.73,-215.72"/>
<text xml:space="preserve" text-anchor="middle" x="188.4" y="-244.05" font-family="CMU Serif" font-size="11.00">хранит</text>
</g>
<!-- ApproximationModule -->
<g id="node7" class="node">
<title>ApproximationModule</title>
<polygon fill="#e6eefc" stroke="none" points="120.62,-839.5 120.62,-929.25 502.88,-929.25 502.88,-839.5 120.62,-839.5"/>
<text xml:space="preserve" text-anchor="start" x="244.25" y="-911.85" font-family="CMU Serif" font-weight="bold" font-size="12.00">ApproximationModule</text>
<text xml:space="preserve" text-anchor="start" x="127.62" y="-879.5" font-family="CMU Serif" font-size="12.00">+ approximate(payload) : QVariantMap</text>
<text xml:space="preserve" text-anchor="start" x="127.62" y="-850.25" font-family="CMU Serif" font-size="12.00">+ sampleApproximation(kind, coeffs, xMin, xMax, n) : QVariantList</text>
<polygon fill="black" stroke="black" points="120.62,-899 120.62,-899 502.88,-899 502.88,-899 120.62,-899"/>
<polygon fill="none" stroke="black" points="120.62,-839.5 120.62,-929.25 502.88,-929.25 502.88,-839.5 120.62,-839.5"/>
</g>
<!-- ApproximationModule&#45;&gt;LSA -->
<g id="edge2" class="edge">
<title>ApproximationModule&#45;&gt;LSA</title>
<path fill="none" stroke="#000000" d="M311.75,-835.69C311.75,-819.77 311.75,-801.36 311.75,-782.89"/>
<polygon fill="#000000" stroke="#000000" points="311.75,-772.94 316.25,-782.94 311.75,-776.73 311.75,-782.94 311.75,-782.94 311.75,-782.94 311.75,-776.73 307.25,-782.94 311.75,-772.94"/>
<text xml:space="preserve" text-anchor="middle" x="341.75" y="-801.05" font-family="CMU Serif" font-size="11.00">использует</text>
</g>
<!-- Backend -->
<g id="node8" class="node">
<title>Backend</title>
<polygon fill="#e6eefc" stroke="none" points="190,-1001 190,-1120 433.5,-1120 433.5,-1001 190,-1001"/>
<text xml:space="preserve" text-anchor="start" x="256.62" y="-1102.6" font-family="CMU Serif" font-weight="bold" font-size="12.00">Backend : QObject</text>
<text xml:space="preserve" text-anchor="start" x="197" y="-1070.25" font-family="CMU Serif" font-size="12.00">+ approximate(payload) : QVariantMap</text>
<text xml:space="preserve" text-anchor="start" x="197" y="-1041" font-family="CMU Serif" font-size="12.00">+ sampleApproximation(…) : QVariantList</text>
<text xml:space="preserve" text-anchor="start" x="197" y="-1011.75" font-family="CMU Serif" font-size="12.00">… (методы ЛР №1–№3)</text>
<polygon fill="black" stroke="black" points="190,-1089.75 190,-1089.75 433.5,-1089.75 433.5,-1089.75 190,-1089.75"/>
<polygon fill="none" stroke="black" points="190,-1001 190,-1120 433.5,-1120 433.5,-1001 190,-1001"/>
</g>
<!-- Backend&#45;&gt;ApproximationModule -->
<g id="edge1" class="edge">
<title>Backend&#45;&gt;ApproximationModule</title>
<path fill="none" stroke="#000000" d="M311.75,-997.13C311.75,-979.84 311.75,-961.13 311.75,-944.06"/>
<polygon fill="#000000" stroke="#000000" points="311.75,-934.32 316.25,-944.32 311.75,-938.11 311.75,-944.32 311.75,-944.32 311.75,-944.32 311.75,-938.11 307.25,-944.32 311.75,-934.32"/>
<text xml:space="preserve" text-anchor="middle" x="337.25" y="-962.55" font-family="CMU Serif" font-size="11.00">вызывает</text>
</g>
<!-- ModuleApproxQml -->
<g id="node9" class="node">
<title>ModuleApproxQml</title>
<polygon fill="#f5f5f5" stroke="none" points="191.88,-1191.75 191.88,-1340 431.62,-1340 431.62,-1191.75 191.88,-1191.75"/>
<text xml:space="preserve" text-anchor="start" x="231.12" y="-1322.6" font-family="CMU Serif" font-weight="bold" font-size="12.00">ModuleApproximation.qml</text>
<text xml:space="preserve" text-anchor="start" x="198.88" y="-1290.25" font-family="CMU Serif" font-size="12.00">QML&#45;компонент (RowLayout)</text>
<text xml:space="preserve" text-anchor="start" x="198.88" y="-1261" font-family="CMU Serif" font-size="12.00">— редактируемая таблица (x, y)</text>
<text xml:space="preserve" text-anchor="start" x="198.88" y="-1231.75" font-family="CMU Serif" font-size="12.00">— кнопки «Случайные» и «Рассчитать»</text>
<text xml:space="preserve" text-anchor="start" x="198.88" y="-1202.5" font-family="CMU Serif" font-size="12.00">— таблица моделей и общий график</text>
<polygon fill="black" stroke="black" points="191.88,-1309.75 191.88,-1309.75 431.62,-1309.75 431.62,-1309.75 191.88,-1309.75"/>
<polygon fill="none" stroke="black" points="191.88,-1191.75 191.88,-1340 431.62,-1340 431.62,-1191.75 191.88,-1191.75"/>
</g>
<!-- ModuleApproxQml&#45;&gt;Backend -->
<g id="edge8" class="edge">
<title>ModuleApproxQml&#45;&gt;Backend</title>
<path fill="none" stroke="#000000" d="M311.75,-1187.99C311.75,-1170.64 311.75,-1152.27 311.75,-1135.06"/>
<polygon fill="#000000" stroke="#000000" points="311.75,-1125.16 316.25,-1135.16 311.75,-1128.94 311.75,-1135.16 311.75,-1135.16 311.75,-1135.16 311.75,-1128.94 307.25,-1135.16 311.75,-1125.16"/>
<text xml:space="preserve" text-anchor="middle" x="348.5" y="-1153.3" font-family="CMU Serif" font-size="11.00">Q_INVOKABLE</text>
</g>
</g>
</svg>
