<?xml version="1.0" encoding="UTF-8"?>
<svg xmlns="http://www.w3.org/2000/svg" xmlns:xlink="http://www.w3.org/1999/xlink" width="128.9528pt" height="25.928pt" viewBox="0 0 128.9528 25.928">
<defs>
<g>
<g id="glyph-0-0">
<path d="M 4.5 -7.46875 C 5.265625 -7.46875 5.828125 -7.28125 6.234375 -6.9375 C 5.796875 -6.875 5.5 -6.484375 5.5 -6.0625 C 5.5 -5.46875 5.78125 -5.1875 6.375 -5.1875 C 6.96875 -5.1875 7.25 -5.5 7.25 -6.09375 C 7.25 -7.359375 5.875 -8.046875 4.484375 -8.046875 C 3.375 -8.046875 2.453125 -7.640625 1.71875 -6.828125 C 0.984375 -6 0.609375 -5.015625 0.609375 -3.875 C 0.609375 -2.78125 0.984375 -1.8125 1.71875 -1 C 2.453125 -0.203125 3.359375 0.203125 4.453125 0.203125 C 5.34375 0.203125 6.046875 -0.046875 6.546875 -0.578125 C 6.96875 -0.984375 7.234375 -1.40625 7.375 -1.828125 C 7.4375 -2 7.453125 -2.09375 7.453125 -2.171875 C 7.453125 -2.328125 7.34375 -2.40625 7.140625 -2.40625 C 7 -2.40625 6.90625 -2.328125 6.859375 -2.1875 C 6.484375 -0.984375 5.75 -0.375 4.609375 -0.375 C 4.09375 -0.375 3.59375 -0.609375 3.09375 -1.09375 C 2.5 -1.65625 2.203125 -2.578125 2.203125 -3.90625 C 2.203125 -5.703125 2.890625 -7.46875 4.5 -7.46875 Z M 4.5 -7.46875 "/>
</g>
<g id="glyph-0-1">
<path d="M 4.46875 0.203125 C 5.578125 0.203125 6.515625 -0.203125 7.28125 -0.984375 C 8.0625 -1.78125 8.453125 -2.734375 8.453125 -3.84375 C 8.453125 -4.96875 8.078125 -5.953125 7.328125 -6.78125 C 6.578125 -7.609375 5.625 -8.046875 4.484375 -8.046875 C 3.359375 -8.046875 2.421875 -7.609375 1.65625 -6.78125 C 0.875 -5.953125 0.5 -4.96875 0.5 -3.84375 C 0.5 -2.734375 0.875 -1.78125 1.65625 -0.984375 C 2.421875 -0.203125 3.375 0.203125 4.46875 0.203125 Z M 4.484375 -0.375 C 3.625 -0.375 2.984375 -0.75 2.53125 -1.53125 C 2.25 -2.03125 2.09375 -2.859375 2.09375 -3.984375 C 2.09375 -5.078125 2.25 -5.875 2.515625 -6.375 C 2.9375 -7.140625 3.59375 -7.515625 4.46875 -7.515625 C 5.3125 -7.515625 5.953125 -7.140625 6.40625 -6.40625 C 6.71875 -5.90625 6.859375 -5.09375 6.859375 -3.984375 C 6.859375 -1.90625 6.25 -0.375 4.484375 -0.375 Z M 4.484375 -0.375 "/>
</g>
<g id="glyph-0-2">
<path d="M 6.46875 -2.328125 C 6.46875 -3.703125 5.53125 -4.5625 3.6875 -4.921875 C 2.84375 -5.078125 2.296875 -5.28125 2.015625 -5.46875 C 1.71875 -5.671875 1.578125 -5.953125 1.578125 -6.296875 C 1.578125 -7.140625 2.203125 -7.5625 3.46875 -7.5625 C 4.6875 -7.5625 5.34375 -6.875 5.4375 -5.5 C 5.453125 -5.34375 5.546875 -5.28125 5.734375 -5.28125 C 5.921875 -5.28125 6.03125 -5.4375 6.03125 -5.765625 L 6.03125 -7.546875 C 6.03125 -7.875 5.9375 -8.046875 5.765625 -8.046875 C 5.5625 -8.046875 5.296875 -7.71875 5.109375 -7.578125 C 4.671875 -7.875 4.109375 -8.046875 3.46875 -8.046875 C 1.859375 -8.046875 0.59375 -7.328125 0.59375 -5.796875 C 0.59375 -5.1875 0.84375 -4.671875 1.359375 -4.25 C 2 -3.734375 2.578125 -3.625 3.71875 -3.421875 C 4.890625 -3.203125 5.46875 -2.671875 5.46875 -1.859375 C 5.46875 -0.84375 4.84375 -0.328125 3.578125 -0.328125 C 2.328125 -0.328125 1.546875 -1.15625 1.203125 -2.78125 C 1.15625 -3.015625 1.0625 -3.140625 0.890625 -3.140625 C 0.703125 -3.140625 0.59375 -2.96875 0.59375 -2.625 L 0.59375 -0.3125 C 0.59375 0.03125 0.6875 0.203125 0.859375 0.203125 C 0.921875 0.203125 1 0.140625 1.15625 0.015625 C 1.46875 -0.265625 1.328125 -0.21875 1.65625 -0.53125 C 2.171875 -0.046875 2.8125 0.203125 3.578125 0.203125 C 5.28125 0.203125 6.46875 -0.6875 6.46875 -2.328125 Z M 6.46875 -2.328125 "/>
</g>
<g id="glyph-0-3">
<path d="M 5.703125 4.453125 C 5.875 4.453125 5.953125 4.359375 5.953125 4.203125 C 5.953125 4.140625 5.921875 4.078125 5.875 4 C 4.9375 3.28125 4.1875 2.09375 3.625 0.46875 C 3.140625 -0.953125 2.890625 -2.359375 2.890625 -3.734375 L 2.890625 -5.25 C 2.890625 -6.625 3.140625 -8.03125 3.625 -9.4375 C 4.1875 -11.078125 4.9375 -12.265625 5.875 -12.984375 C 5.921875 -13.03125 5.953125 -13.109375 5.953125 -13.171875 C 5.953125 -13.34375 5.875 -13.421875 5.703125 -13.421875 C 5.6875 -13.421875 5.640625 -13.40625 5.578125 -13.375 C 4.5 -12.546875 3.609375 -11.328125 2.875 -9.6875 C 2.171875 -8.125 1.8125 -6.65625 1.8125 -5.25 L 1.8125 -3.734375 C 1.8125 -2.3125 2.171875 -0.84375 2.875 0.71875 C 3.609375 2.359375 4.5 3.578125 5.578125 4.40625 C 5.640625 4.4375 5.6875 4.453125 5.703125 4.453125 Z M 5.703125 4.453125 "/>
</g>
<g id="glyph-0-4">
<path d="M 9.46875 -6.703125 C 9.46875 -7.515625 8.65625 -7.9375 7.75 -7.9375 C 6.984375 -7.9375 6.375 -7.515625 5.90625 -6.703125 C 5.53125 -7.515625 4.90625 -7.9375 3.984375 -7.9375 C 3.109375 -7.9375 2.390625 -7.515625 1.8125 -6.71875 C 1.328125 -6.015625 1.078125 -5.5 1.078125 -5.15625 C 1.078125 -4.984375 1.171875 -4.90625 1.34375 -4.90625 C 1.515625 -4.90625 1.609375 -4.984375 1.65625 -5.15625 C 2 -6.1875 2.75 -7.421875 3.953125 -7.421875 C 4.546875 -7.421875 4.828125 -7.03125 4.828125 -6.296875 C 4.828125 -5.921875 4.5 -4.53125 3.875 -2.125 C 3.578125 -0.921875 3.03125 -0.328125 2.265625 -0.328125 C 2.015625 -0.328125 1.78125 -0.375 1.578125 -0.46875 C 2.046875 -0.640625 2.28125 -0.96875 2.28125 -1.4375 C 2.28125 -1.90625 2.046875 -2.140625 1.5625 -2.140625 C 0.96875 -2.140625 0.515625 -1.640625 0.515625 -1.046875 C 0.515625 -0.21875 1.359375 0.203125 2.25 0.203125 C 3 0.203125 3.609375 -0.21875 4.09375 -1.046875 C 4.4375 -0.21875 5.078125 0.203125 6.015625 0.203125 C 6.875 0.203125 7.59375 -0.21875 8.171875 -1.015625 C 8.65625 -1.71875 8.90625 -2.25 8.90625 -2.578125 C 8.90625 -2.75 8.8125 -2.84375 8.640625 -2.84375 C 8.46875 -2.84375 8.390625 -2.75 8.328125 -2.578125 C 8.03125 -1.5625 7.21875 -0.328125 6.046875 -0.328125 C 5.453125 -0.328125 5.15625 -0.6875 5.15625 -1.421875 C 5.15625 -1.65625 5.25 -2.15625 5.4375 -2.96875 L 6.046875 -5.390625 C 6.390625 -6.734375 6.953125 -7.421875 7.734375 -7.421875 C 7.984375 -7.421875 8.21875 -7.359375 8.421875 -7.265625 C 7.9375 -7.109375 7.703125 -6.78125 7.703125 -6.296875 C 7.703125 -5.828125 7.953125 -5.59375 8.4375 -5.59375 C 9.015625 -5.59375 9.46875 -6.125 9.46875 -6.703125 Z M 9.46875 -6.703125 "/>
</g>
<g id="glyph-0-5">
<path d="M 1.40625 4.40625 C 2.484375 3.578125 3.375 2.359375 4.109375 0.71875 C 4.8125 -0.84375 5.171875 -2.3125 5.171875 -3.734375 L 5.171875 -5.25 C 5.171875 -6.65625 4.8125 -8.125 4.109375 -9.6875 C 3.375 -11.328125 2.484375 -12.546875 1.40625 -13.375 C 1.34375 -13.40625 1.296875 -13.421875 1.28125 -13.421875 C 1.109375 -13.421875 1.015625 -13.34375 1.015625 -13.171875 C 1.015625 -13.109375 1.0625 -13.03125 1.109375 -12.984375 C 2.046875 -12.265625 2.796875 -11.078125 3.359375 -9.4375 C 3.84375 -8.03125 4.09375 -6.625 4.09375 -5.25 L 4.09375 -3.734375 C 4.09375 -2.359375 3.84375 -0.953125 3.359375 0.46875 C 2.796875 2.09375 2.046875 3.28125 1.109375 4 C 1.0625 4.078125 1.015625 4.140625 1.015625 4.203125 C 1.015625 4.359375 1.109375 4.453125 1.28125 4.453125 C 1.296875 4.453125 1.34375 4.4375 1.40625 4.40625 Z M 1.40625 4.40625 "/>
</g>
<g id="glyph-0-6">
<path d="M 12.53125 -4.84375 L 1.4375 -4.84375 C 1.15625 -4.84375 1 -4.71875 1 -4.484375 C 1 -4.25 1.15625 -4.125 1.4375 -4.125 L 12.53125 -4.125 C 12.8125 -4.125 12.96875 -4.25 12.96875 -4.484375 C 12.96875 -4.703125 12.75 -4.84375 12.53125 -4.84375 Z M 12.53125 -4.84375 "/>
</g>
<g id="glyph-0-7">
<path d="M 2.21875 -2.3125 C 2.21875 -2.75 2.3125 -3.34375 2.5 -4.078125 L 3.375 -4.078125 C 4.546875 -4.078125 5.4375 -4.21875 6.09375 -4.484375 C 6.671875 -4.734375 7.078125 -5.09375 7.265625 -5.546875 C 7.390625 -5.859375 7.453125 -6.140625 7.453125 -6.375 C 7.453125 -7.359375 6.515625 -7.9375 5.515625 -7.9375 C 4.8125 -7.9375 4.109375 -7.75 3.40625 -7.390625 C 2.03125 -6.671875 0.828125 -5.046875 0.828125 -3.0625 C 0.828125 -1.234375 1.890625 0.203125 3.65625 0.203125 C 4.609375 0.203125 5.453125 -0.03125 6.1875 -0.484375 C 6.796875 -0.859375 7.25 -1.234375 7.546875 -1.609375 C 7.671875 -1.78125 7.71875 -1.90625 7.71875 -1.953125 C 7.71875 -2.15625 7.625 -2.265625 7.4375 -2.265625 C 7.34375 -2.265625 7.25 -2.1875 7.140625 -2.046875 C 6.546875 -1.25 5.8125 -0.75 4.96875 -0.53125 C 4.421875 -0.390625 4 -0.328125 3.703125 -0.328125 C 2.671875 -0.328125 2.21875 -1.296875 2.21875 -2.3125 Z M 6.734375 -6.375 C 6.734375 -5.1875 5.578125 -4.59375 3.265625 -4.59375 L 2.640625 -4.59375 C 2.984375 -5.78125 3.484375 -6.578125 4.171875 -6.953125 C 4.703125 -7.25 5.15625 -7.421875 5.515625 -7.421875 C 6.15625 -7.421875 6.734375 -7.015625 6.734375 -6.375 Z M 6.734375 -6.375 "/>
</g>
<g id="glyph-0-8">
<path d="M 12.53125 -6.59375 L 1.4375 -6.59375 C 1.15625 -6.59375 1 -6.4375 1 -6.171875 C 1 -5.90625 1.15625 -5.765625 1.4375 -5.765625 L 12.53125 -5.765625 C 12.8125 -5.765625 12.96875 -5.90625 12.96875 -6.171875 C 12.96875 -6.390625 12.765625 -6.59375 12.53125 -6.59375 Z M 12.53125 -3.21875 L 1.4375 -3.21875 C 1.15625 -3.21875 1 -3.0625 1 -2.796875 C 1 -2.53125 1.15625 -2.390625 1.4375 -2.390625 L 12.53125 -2.390625 C 12.8125 -2.390625 12.96875 -2.53125 12.96875 -2.796875 C 12.96875 -3.03125 12.765625 -3.21875 12.53125 -3.21875 Z M 12.53125 -3.21875 "/>
</g>
<g id="glyph-0-9">
<path d="M 4.46875 0.390625 C 7 0.390625 8.265625 -1.65625 8.265625 -5.75 C 8.265625 -8.484375 7.6875 -10.328125 6.546875 -11.21875 C 5.921875 -11.703125 5.21875 -11.953125 4.484375 -11.953125 C 1.953125 -11.953125 0.703125 -9.890625 0.703125 -5.75 C 0.703125 -2.4375 1.578125 0.390625 4.46875 0.390625 Z M 6.484375 -9.40625 C 6.609375 -8.78125 6.65625 -7.625 6.65625 -5.953125 C 6.65625 -4.3125 6.59375 -3.09375 6.46875 -2.296875 C 6.234375 -0.859375 5.5625 -0.140625 4.46875 -0.140625 C 4.0625 -0.140625 3.640625 -0.3125 3.265625 -0.609375 C 2.78125 -1.015625 2.5 -1.859375 2.375 -3.15625 C 2.3125 -3.609375 2.296875 -4.546875 2.296875 -5.953125 C 2.296875 -7.515625 2.359375 -8.625 2.4375 -9.203125 C 2.609375 -10.203125 2.921875 -10.828125 3.421875 -11.09375 C 3.828125 -11.3125 4.171875 -11.421875 4.46875 -11.421875 C 5.640625 -11.421875 6.28125 -10.46875 6.484375 -9.40625 Z M 6.484375 -9.40625 "/>
</g>
<g id="glyph-1-0">
<path d="M 7.328125 -4.578125 C 7.328125 -5.21875 6.671875 -5.546875 6 -5.546875 C 5.421875 -5.546875 4.96875 -5.265625 4.609375 -4.71875 C 4.3125 -5.265625 3.8125 -5.546875 3.109375 -5.546875 C 2.65625 -5.546875 2.15625 -5.34375 1.671875 -4.921875 C 1.15625 -4.5 0.890625 -4.0625 0.890625 -3.609375 C 0.890625 -3.46875 0.984375 -3.390625 1.140625 -3.390625 C 1.28125 -3.390625 1.375 -3.46875 1.4375 -3.625 C 1.65625 -4.3125 2.28125 -5.09375 3.078125 -5.09375 C 3.546875 -5.09375 3.765625 -4.84375 3.765625 -4.328125 C 3.765625 -4.171875 3.6875 -3.75 3.515625 -3.046875 L 3.09375 -1.375 C 2.984375 -0.890625 2.515625 -0.3125 1.96875 -0.3125 C 1.765625 -0.3125 1.578125 -0.359375 1.421875 -0.4375 C 1.671875 -0.546875 1.890625 -0.828125 1.890625 -1.125 C 1.890625 -1.421875 1.65625 -1.640625 1.359375 -1.640625 C 0.921875 -1.640625 0.609375 -1.25 0.609375 -0.828125 C 0.609375 -0.203125 1.265625 0.125 1.953125 0.125 C 2.53125 0.125 2.984375 -0.15625 3.328125 -0.703125 C 3.625 -0.15625 4.125 0.125 4.8125 0.125 C 5.5 0.125 6.0625 -0.15625 6.484375 -0.703125 C 6.84375 -1.1875 7.03125 -1.578125 7.03125 -1.8125 C 7.03125 -1.953125 6.953125 -2.015625 6.796875 -2.015625 C 6.65625 -2.015625 6.5625 -1.9375 6.5 -1.765625 C 6.296875 -1.109375 5.65625 -0.3125 4.859375 -0.3125 C 4.390625 -0.3125 4.15625 -0.5625 4.15625 -1.0625 C 4.15625 -1.25 4.375 -2.203125 4.796875 -3.875 C 5.015625 -4.6875 5.390625 -5.09375 5.953125 -5.09375 L 6.0625 -5.09375 C 6.21875 -5.09375 6.375 -5.046875 6.5 -4.984375 C 6.1875 -4.84375 6.046875 -4.625 6.046875 -4.296875 C 6.046875 -4 6.28125 -3.78125 6.578125 -3.78125 C 7.015625 -3.78125 7.328125 -4.15625 7.328125 -4.578125 Z M 7.328125 -4.578125 "/>
</g>
</g>
</defs>
<g fill="rgb(100%, 100%, 100%)" fill-opacity="1">
<use xlink:href="#glyph-0-0" x="4.143938" y="17.415639"/>
<use xlink:href="#glyph-0-1" x="12.113807" y="17.415639"/>
<use xlink:href="#glyph-0-2" x="21.088884" y="17.415639"/>
</g>
<g fill="rgb(100%, 100%, 100%)" fill-opacity="1">
<use xlink:href="#glyph-0-3" x="28.161244" y="17.415639"/>
</g>
<g fill="rgb(100%, 100%, 100%)" fill-opacity="1">
<use xlink:href="#glyph-0-4" x="35.143854" y="17.415639"/>
</g>
<g fill="rgb(100%, 100%, 100%)" fill-opacity="1">
<use xlink:href="#glyph-0-5" x="45.411342" y="17.415639"/>
</g>
<g fill="rgb(100%, 100%, 100%)" fill-opacity="1">
<use xlink:href="#glyph-0-6" x="56.382875" y="17.415639"/>
</g>
<g fill="rgb(100%, 100%, 100%)" fill-opacity="1">
<use xlink:href="#glyph-0-7" x="74.337018" y="17.415639"/>
</g>
<g fill="rgb(100%, 100%, 100%)" fill-opacity="1">
<use xlink:href="#glyph-1-0" x="82.70179" y="10.899733"/>
</g>
<g fill="rgb(100%, 100%, 100%)" fill-opacity="1">
<use xlink:href="#glyph-0-8" x="96.835342" y="17.415639"/>
</g>
<g fill="rgb(100%, 100%, 100%)" fill-opacity="1">
<use xlink:href="#glyph-0-9" x="115.786715" y="17.415639"/>
</g>
</svg>
