<?xml version="1.0" encoding="UTF-8" standalone="no" ?>
<svg xmlns="http://www.w3.org/2000/svg" width="189.816px" height="17.640px" viewBox="0 -891.7 10487.4 974.7" xmlns:xlink="http://www.w3.org/1999/xlink"><defs><path id="MJX-50-NCM-I-1D465" d="M527 373C527 419 482 442 432 442C389 442 355 419 329 373C308 419 273 442 222 442C173 442 133 419 101 374C74 335 60 306 60 287C60 278 65 273 75 273C84 273 90 278 92 287C111 345 153 413 220 413C253 413 269 392 269 351C269 330 251 252 216 118C199 51 169 18 126 18C112 18 99 21 88 26C114 36 127 54 127 80C127 106 114 119 87 119C54 119 29 91 29 58C29 12 76-11 125-11C167-11 201 12 228 58C247 12 283-11 335-11C383-11 423 12 455 57C482 96 496 125 496 144C496 153 491 158 481 158C472 158 467 153 464 144C447 87 402 18 337 18C304 18 287 38 287 79C287 92 292 120 303 165L337 300C356 375 387 413 431 413C445 413 458 410 469 405C442 396 429 378 429 351C429 325 443 312 470 312C502 312 527 341 527 373Z"/><path id="MJX-50-NCM-N-35" d="M118 315C123 315 129 319 134 326C164 371 205 393 257 393C292 393 319 373 337 332C348 305 354 264 354 209C354 146 346 102 331 76C306 35 272 14 229 14C162 14 109 62 91 114C94 113 96 114 100 114C130 114 155 137 155 167C155 198 130 219 100 219C65 219 50 200 50 163C50 63 131-22 231-22C292-22 344 0 386 44C428 88 449 141 449 202C449 260 432 310 398 353C361 400 315 423 259 423C212 423 171 408 138 378L138 556C165 548 191 544 218 544C264 544 304 555 338 578C369 597 390 616 402 634C408 642 411 648 411 651C411 661 406 666 396 666C341 645 294 634 256 634C211 634 168 643 127 662C122 664 118 665 114 665C105 665 100 656 100 637L100 345C100 324 100 315 118 315Z"/><path id="MJX-50-NCM-N-2B" d="M698 274L413 274L413 559C413 575 405 583 389 583C373 583 365 575 365 559L365 274L80 274C64 274 56 266 56 250C56 234 64 226 80 226L365 226L365-59C365-75 373-83 389-83C405-83 413-75 413-59L413 226L698 226C714 226 722 234 722 250C722 263 711 274 698 274Z"/><path id="MJX-50-NCM-N-33" d="M303 353C369 378 431 441 431 526C431 569 410 604 369 631C333 654 292 666 246 666C201 666 162 654 127 631C88 605 68 571 68 528C68 495 90 472 122 472C154 472 176 495 176 527C176 560 157 578 119 580C145 615 186 633 242 633C302 633 332 598 332 527C332 485 324 450 309 421C282 373 245 364 183 364C171 362 165 357 165 348C165 333 172 333 192 333L235 333C310 333 348 280 348 173C348 88 317 14 241 14C176 14 128 36 99 80C134 79 160 105 160 139C160 173 135 198 101 198C62 198 42 178 42 137C42 88 64 49 108 18C147-9 193-22 244-22C301-22 350-3 393 34C436 71 457 117 457 173C457 267 383 332 303 353Z"/><path id="MJX-50-NCM-N-2062" d=""/><path id="MJX-50-NCM-N-34" d="M353 677C344 677 336 672 330 663L28 199L28 163L289 163L289 81C289 63 285 51 278 46C271 41 252 39 219 39L194 39L194 0C223 2 269 3 331 3C393 3 439 2 468 0L468 39L443 39C410 39 391 41 384 46C377 51 373 63 373 81L373 163L471 163L471 202L373 202L373 660C373 670 366 677 353 677M295 553L295 202L67 202Z"/><path id="MJX-50-NCM-N-2212" d="M698 270L80 270C64 270 56 263 56 250C56 237 64 230 80 230L698 230C714 230 722 237 722 250C722 262 710 270 698 270Z"/><path id="MJX-50-NCM-N-32" d="M237 666C186 666 143 648 106 612C69 576 50 534 50 483C50 449 75 424 106 424C136 424 161 450 161 480C161 513 137 536 105 536C102 536 100 536 98 535C117 584 161 627 224 627C306 627 352 556 352 470C352 403 318 331 250 255L62 43C49 28 50 29 50 0L421 0L450 180L417 180C409 129 402 100 396 91C391 86 361 84 306 84L139 84L236 179C304 243 390 312 419 365C439 400 449 435 449 470C449 588 357 666 237 666Z"/></defs><g stroke="#FFFFFF" fill="#FFFFFF" stroke-width="0" transform="scale(1,-1)"><g data-mml-node="math" data-latex="x^{5}+3x^{4}-5x^{2}-3x+2" data-semantic-type="infixop" data-semantic-role="addition" data-semantic-annotation="depth:1" data-semantic-id="26" data-semantic-children="23,17" data-semantic-content="16" data-semantic-attributes="latex:x^{5}+3x^{4}-5x^{2}-3x+2" data-semantic-owns="23 16 17" aria-level="0" data-speech-node="true" data-semantic-structure="(26 (23 (20 (2 0 1) 3 (19 4 18 (7 5 6))) 8 (22 9 21 (12 10 11)) 13 (25 14 24 15)) 16 17)"><g data-mml-node="mrow" data-semantic-added="true" data-semantic-type="infixop" data-semantic-role="subtraction" data-semantic-annotation="depth:2" data-semantic-id="23" data-semantic-children="20,22,25" data-semantic-content="8,13" data-semantic-parent="26" data-semantic-owns="20 8 22 13 25" aria-level="1" data-speech-node="true"><g data-mml-node="mrow" data-semantic-added="true" data-semantic-type="infixop" data-semantic-role="addition" data-semantic-annotation="depth:3" data-semantic-id="20" data-semantic-children="2,19" data-semantic-content="3" data-semantic-parent="23" data-semantic-owns="2 3 19" aria-level="2" data-speech-node="true"><g data-mml-node="msup" data-latex="x^{5}" data-semantic-type="superscript" data-semantic-role="latinletter" data-semantic-annotation="depth:4" data-semantic-id="2" data-semantic-children="0,1" data-semantic-parent="20" data-semantic-attributes="latex:x^{5}" data-semantic-owns="0 1" aria-level="3" data-speech-node="true"><g data-mml-node="mi" data-latex="x" data-semantic-type="identifier" data-semantic-role="latinletter" data-semantic-font="italic" data-semantic-annotation="clearspeak:simple;nemeth:number;depth:5" data-semantic-id="0" data-semantic-parent="2" data-semantic-attributes="latex:x" aria-level="4" data-speech-node="true"><use data-c="1D465" xlink:href="#MJX-50-NCM-I-1D465" xmlns:xlink="http://www.w3.org/1999/xlink"/></g><g data-mml-node="TeXAtom" transform="translate(605,413) scale(0.707)" data-mjx-texclass="ORD" data-latex="{5}"><g data-mml-node="mn" data-latex="5" data-semantic-type="number" data-semantic-role="integer" data-semantic-font="normal" data-semantic-annotation="clearspeak:simple;depth:5" data-semantic-id="1" data-semantic-parent="2" data-semantic-attributes="latex:{5};texclass:ORD" aria-level="4" data-speech-node="true"><use data-c="35" xlink:href="#MJX-50-NCM-N-35" xmlns:xlink="http://www.w3.org/1999/xlink"/></g></g></g><g data-mml-node="mo" data-latex="+" data-semantic-type="operator" data-semantic-role="addition" data-semantic-annotation="depth:4" data-semantic-id="3" data-semantic-parent="20" data-semantic-attributes="latex:+" data-semantic-operator="infixop,+" aria-level="3" data-speech-node="true" transform="translate(1230.8,0)"><use data-c="2B" xlink:href="#MJX-50-NCM-N-2B" xmlns:xlink="http://www.w3.org/1999/xlink"/></g><g data-mml-node="mrow" data-semantic-added="true" data-semantic-type="infixop" data-semantic-role="implicit" data-semantic-annotation="clearspeak:unit;depth:4" data-semantic-id="19" data-semantic-children="4,7" data-semantic-content="18" data-semantic-parent="20" data-semantic-owns="4 18 7" aria-level="3" data-speech-node="true" transform="translate(2231,0)"><g data-mml-node="mn" data-latex="3" data-semantic-type="number" data-semantic-role="integer" data-semantic-font="normal" data-semantic-annotation="clearspeak:simple;depth:5" data-semantic-id="4" data-semantic-parent="19" data-semantic-attributes="latex:3" aria-level="4" data-speech-node="true"><use data-c="33" xlink:href="#MJX-50-NCM-N-33" xmlns:xlink="http://www.w3.org/1999/xlink"/></g><g data-mml-node="mo" data-semantic-type="operator" data-semantic-role="multiplication" data-semantic-annotation="depth:5" data-semantic-id="18" data-semantic-parent="19" data-semantic-added="true" data-semantic-operator="infixop,⁢" aria-level="4" data-speech-node="true" transform="translate(500,0)"><use data-c="2062" xlink:href="#MJX-50-NCM-N-2062" xmlns:xlink="http://www.w3.org/1999/xlink"/></g><g data-mml-node="msup" data-latex="x^{4}" data-semantic-type="superscript" data-semantic-role="latinletter" data-semantic-annotation="depth:5" data-semantic-id="7" data-semantic-children="5,6" data-semantic-parent="19" data-semantic-attributes="latex:x^{4}" data-semantic-owns="5 6" aria-level="4" data-speech-node="true" transform="translate(500,0)"><g data-mml-node="mi" data-latex="x" data-semantic-type="identifier" data-semantic-role="latinletter" data-semantic-font="italic" data-semantic-annotation="clearspeak:simple;depth:6" data-semantic-id="5" data-semantic-parent="7" data-semantic-attributes="latex:x" aria-level="5" data-speech-node="true"><use data-c="1D465" xlink:href="#MJX-50-NCM-I-1D465" xmlns:xlink="http://www.w3.org/1999/xlink"/></g><g data-mml-node="TeXAtom" transform="translate(605,413) scale(0.707)" data-mjx-texclass="ORD" data-latex="{4}"><g data-mml-node="mn" data-latex="4" data-semantic-type="number" data-semantic-role="integer" data-semantic-font="normal" data-semantic-annotation="clearspeak:simple;depth:6" data-semantic-id="6" data-semantic-parent="7" data-semantic-attributes="latex:{4};texclass:ORD" aria-level="5" data-speech-node="true"><use data-c="34" xlink:href="#MJX-50-NCM-N-34" xmlns:xlink="http://www.w3.org/1999/xlink"/></g></g></g></g></g><g data-mml-node="mo" data-latex="-" data-semantic-type="operator" data-semantic-role="subtraction" data-semantic-annotation="depth:3" data-semantic-id="8" data-semantic-parent="23" data-semantic-attributes="latex:-" data-semantic-operator="infixop,−" aria-level="2" data-speech-node="true" transform="translate(3961.8,0)"><use data-c="2212" xlink:href="#MJX-50-NCM-N-2212" xmlns:xlink="http://www.w3.org/1999/xlink"/></g><g data-mml-node="mrow" data-semantic-added="true" data-semantic-type="infixop" data-semantic-role="implicit" data-semantic-annotation="clearspeak:unit;depth:3" data-semantic-id="22" data-semantic-children="9,12" data-semantic-content="21" data-semantic-parent="23" data-semantic-owns="9 21 12" aria-level="2" data-speech-node="true" transform="translate(4962,0)"><g data-mml-node="mn" data-latex="5" data-semantic-type="number" data-semantic-role="integer" data-semantic-font="normal" data-semantic-annotation="clearspeak:simple;depth:4" data-semantic-id="9" data-semantic-parent="22" data-semantic-attributes="latex:5" aria-level="3" data-speech-node="true"><use data-c="35" xlink:href="#MJX-50-NCM-N-35" xmlns:xlink="http://www.w3.org/1999/xlink"/></g><g data-mml-node="mo" data-semantic-type="operator" data-semantic-role="multiplication" data-semantic-annotation="depth:4" data-semantic-id="21" data-semantic-parent="22" data-semantic-added="true" data-semantic-operator="infixop,⁢" aria-level="3" data-speech-node="true" transform="translate(500,0)"><use data-c="2062" xlink:href="#MJX-50-NCM-N-2062" xmlns:xlink="http://www.w3.org/1999/xlink"/></g><g data-mml-node="msup" data-latex="x^{2}" data-semantic-type="superscript" data-semantic-role="latinletter" data-semantic-annotation="depth:4" data-semantic-id="12" data-semantic-children="10,11" data-semantic-parent="22" data-semantic-attributes="latex:x^{2}" data-semantic-owns="10 11" aria-level="3" data-speech-node="true" transform="translate(500,0)"><g data-mml-node="mi" data-latex="x" data-semantic-type="identifier" data-semantic-role="latinletter" data-semantic-font="italic" data-semantic-annotation="clearspeak:simple;depth:5" data-semantic-id="10" data-semantic-parent="12" data-semantic-attributes="latex:x" aria-level="4" data-speech-node="true"><use data-c="1D465" xlink:href="#MJX-50-NCM-I-1D465" xmlns:xlink="http://www.w3.org/1999/xlink"/></g><g data-mml-node="TeXAtom" transform="translate(605,413) scale(0.707)" data-mjx-texclass="ORD" data-latex="{2}"><g data-mml-node="mn" data-latex="2" data-semantic-type="number" data-semantic-role="integer" data-semantic-font="normal" data-semantic-annotation="clearspeak:simple;depth:5" data-semantic-id="11" data-semantic-parent="12" data-semantic-attributes="latex:{2};texclass:ORD" aria-level="4" data-speech-node="true"><use data-c="32" xlink:href="#MJX-50-NCM-N-32" xmlns:xlink="http://www.w3.org/1999/xlink"/></g></g></g></g><g data-mml-node="mo" data-latex="-" data-semantic-type="operator" data-semantic-role="subtraction" data-semantic-annotation="depth:3" data-semantic-id="13" data-semantic-parent="23" data-semantic-attributes="latex:-" data-semantic-operator="infixop,−" aria-level="2" data-speech-node="true" transform="translate(6692.8,0)"><use data-c="2212" xlink:href="#MJX-50-NCM-N-2212" xmlns:xlink="http://www.w3.org/1999/xlink"/></g><g data-mml-node="mrow" data-semantic-added="true" data-semantic-type="infixop" data-semantic-role="implicit" data-semantic-annotation="clearspeak:simple;clearspeak:unit;depth:3" data-semantic-id="25" data-semantic-children="14,15" data-semantic-content="24" data-semantic-parent="23" data-semantic-owns="14 24 15" aria-level="2" data-speech-node="true" transform="translate(7693,0)"><g data-mml-node="mn" data-latex="3" data-semantic-type="number" data-semantic-role="integer" data-semantic-font="normal" data-semantic-annotation="clearspeak:simple;depth:4" data-semantic-id="14" data-semantic-parent="25" data-semantic-attributes="latex:3" aria-level="3" data-speech-node="true"><use data-c="33" xlink:href="#MJX-50-NCM-N-33" xmlns:xlink="http://www.w3.org/1999/xlink"/></g><g data-mml-node="mo" data-semantic-type="operator" data-semantic-role="multiplication" data-semantic-annotation="depth:4" data-semantic-id="24" data-semantic-parent="25" data-semantic-added="true" data-semantic-operator="infixop,⁢" aria-level="3" data-speech-node="true" transform="translate(500,0)"><use data-c="2062" xlink:href="#MJX-50-NCM-N-2062" xmlns:xlink="http://www.w3.org/1999/xlink"/></g><g data-mml-node="mi" data-latex="x" data-semantic-type="identifier" data-semantic-role="latinletter" data-semantic-font="italic" data-semantic-annotation="clearspeak:simple;depth:4" data-semantic-id="15" data-semantic-parent="25" data-semantic-attributes="latex:x" aria-level="3" data-speech-node="true" transform="translate(500,0)"><use data-c="1D465" xlink:href="#MJX-50-NCM-I-1D465" xmlns:xlink="http://www.w3.org/1999/xlink"/></g></g></g><g data-mml-node="mo" data-latex="+" data-semantic-type="operator" data-semantic-role="addition" data-semantic-annotation="depth:2" data-semantic-id="16" data-semantic-parent="26" data-semantic-attributes="latex:+" data-semantic-operator="infixop,+" aria-level="1" data-speech-node="true" transform="translate(8987.2,0)"><use data-c="2B" xlink:href="#MJX-50-NCM-N-2B" xmlns:xlink="http://www.w3.org/1999/xlink"/></g><g data-mml-node="mn" data-latex="2" data-semantic-type="number" data-semantic-role="integer" data-semantic-font="normal" data-semantic-annotation="clearspeak:simple;depth:2" data-semantic-id="17" data-semantic-parent="26" data-semantic-attributes="latex:2" aria-level="1" data-speech-node="true" transform="translate(9987.4,0)"><use data-c="32" xlink:href="#MJX-50-NCM-N-32" xmlns:xlink="http://www.w3.org/1999/xlink"/></g></g></g></svg>