<?xml version="1.0" encoding="UTF-8"?>
<svg xmlns="http://www.w3.org/2000/svg" xmlns:xlink="http://www.w3.org/1999/xlink" width="54.8888pt" height="19.7806pt" viewBox="0 0 54.8888 19.7806">
<defs>
<g>
<g id="glyph-0-0">
<path d="M 2.90625 -7.859375 C 2.09375 -7.859375 1.484375 -7.421875 1.03125 -6.53125 C 0.6875 -5.84375 0.515625 -5.359375 0.515625 -5.09375 C 0.515625 -4.9375 0.609375 -4.84375 0.796875 -4.84375 C 1.046875 -4.84375 1.0625 -4.953125 1.140625 -5.21875 C 1.546875 -6.625 2.125 -7.328125 2.84375 -7.328125 C 3.078125 -7.328125 3.203125 -7.171875 3.203125 -6.859375 C 3.203125 -6.5625 3.109375 -6.15625 2.921875 -5.640625 C 2.25 -3.8125 1.90625 -2.578125 1.90625 -1.921875 C 1.90625 -0.5625 2.734375 0.234375 4.109375 0.234375 C 4.703125 0.234375 5.25 0.015625 5.75 -0.40625 C 5.125 1.9375 4.140625 3.109375 2.8125 3.109375 C 2.203125 3.109375 1.796875 2.921875 1.578125 2.53125 C 2.296875 2.484375 2.65625 2.15625 2.65625 1.515625 C 2.65625 1.0625 2.421875 0.84375 1.9375 0.84375 C 1.28125 0.84375 0.890625 1.390625 0.890625 2.046875 C 0.890625 3.03125 1.78125 3.640625 2.8125 3.640625 C 4.859375 3.640625 6.53125 1.765625 6.96875 0.015625 L 8.65625 -6.703125 C 8.703125 -6.90625 8.71875 -7.046875 8.71875 -7.140625 C 8.71875 -7.5 8.53125 -7.671875 8.15625 -7.671875 C 7.859375 -7.671875 7.640625 -7.53125 7.46875 -7.265625 C 7.375 -6.890625 7.28125 -6.5625 7.21875 -6.296875 L 6.09375 -1.71875 C 5.90625 -1.078125 4.96875 -0.28125 4.171875 -0.28125 C 3.484375 -0.28125 3.15625 -0.734375 3.15625 -1.640625 C 3.15625 -2.390625 3.453125 -3.53125 4.046875 -5.046875 C 4.265625 -5.671875 4.390625 -6.109375 4.390625 -6.359375 C 4.390625 -7.21875 3.765625 -7.859375 2.90625 -7.859375 Z M 2.90625 -7.859375 "/>
</g>
<g id="glyph-0-1">
<path d="M 12.421875 -6.53125 L 1.421875 -6.53125 C 1.140625 -6.53125 1 -6.390625 1 -6.125 C 1 -5.859375 1.140625 -5.71875 1.421875 -5.71875 L 12.421875 -5.71875 C 12.703125 -5.71875 12.84375 -5.859375 12.84375 -6.125 C 12.84375 -6.328125 12.65625 -6.53125 12.421875 -6.53125 Z M 12.421875 -3.1875 L 1.421875 -3.1875 C 1.140625 -3.1875 1 -3.046875 1 -2.78125 C 1 -2.515625 1.140625 -2.359375 1.421875 -2.359375 L 12.421875 -2.359375 C 12.703125 -2.359375 12.84375 -2.515625 12.84375 -2.78125 C 12.84375 -3 12.65625 -3.1875 12.421875 -3.1875 Z M 12.421875 -3.1875 "/>
</g>
<g id="glyph-0-2">
<path d="M 2.203125 -2.296875 C 2.203125 -2.71875 2.296875 -3.3125 2.46875 -4.046875 L 3.34375 -4.046875 C 4.5 -4.046875 5.390625 -4.1875 6.03125 -4.453125 C 6.625 -4.703125 7.015625 -5.046875 7.203125 -5.5 C 7.328125 -5.796875 7.390625 -6.09375 7.390625 -6.3125 C 7.390625 -7.296875 6.453125 -7.859375 5.46875 -7.859375 C 4.765625 -7.859375 4.078125 -7.6875 3.375 -7.328125 C 2.015625 -6.625 0.8125 -5 0.8125 -3.046875 C 0.8125 -1.234375 1.875 0.203125 3.625 0.203125 C 4.578125 0.203125 5.40625 -0.03125 6.140625 -0.484375 C 6.75 -0.859375 7.1875 -1.234375 7.46875 -1.609375 C 7.59375 -1.765625 7.65625 -1.890625 7.65625 -1.9375 C 7.65625 -2.140625 7.5625 -2.25 7.375 -2.25 C 7.28125 -2.25 7.1875 -2.171875 7.078125 -2.03125 C 6.5 -1.25 5.765625 -0.75 4.9375 -0.53125 C 4.375 -0.390625 3.96875 -0.328125 3.671875 -0.328125 C 2.65625 -0.328125 2.203125 -1.28125 2.203125 -2.296875 Z M 6.671875 -6.3125 C 6.671875 -5.140625 5.53125 -4.5625 3.234375 -4.5625 L 2.609375 -4.5625 C 2.953125 -5.734375 3.453125 -6.515625 4.125 -6.890625 C 4.65625 -7.1875 5.109375 -7.34375 5.46875 -7.34375 C 6.109375 -7.34375 6.671875 -6.953125 6.671875 -6.3125 Z M 6.671875 -6.3125 "/>
</g>
<g id="glyph-1-0">
<path d="M 7.265625 -4.546875 C 7.265625 -5.1875 6.625 -5.5 5.953125 -5.5 C 5.390625 -5.5 4.921875 -5.21875 4.578125 -4.671875 C 4.28125 -5.21875 3.78125 -5.5 3.09375 -5.5 C 2.625 -5.5 2.140625 -5.296875 1.65625 -4.890625 C 1.140625 -4.46875 0.890625 -4.03125 0.890625 -3.578125 C 0.890625 -3.4375 0.96875 -3.359375 1.140625 -3.359375 C 1.265625 -3.359375 1.359375 -3.4375 1.421875 -3.609375 C 1.640625 -4.28125 2.25 -5.0625 3.0625 -5.0625 C 3.515625 -5.0625 3.734375 -4.8125 3.734375 -4.296875 C 3.734375 -4.140625 3.65625 -3.71875 3.484375 -3.03125 L 3.0625 -1.359375 C 2.953125 -0.890625 2.5 -0.3125 1.953125 -0.3125 C 1.75 -0.3125 1.5625 -0.34375 1.40625 -0.4375 C 1.65625 -0.546875 1.875 -0.828125 1.875 -1.109375 C 1.875 -1.40625 1.640625 -1.625 1.34375 -1.625 C 0.921875 -1.625 0.59375 -1.25 0.59375 -0.828125 C 0.59375 -0.203125 1.265625 0.125 1.9375 0.125 C 2.5 0.125 2.96875 -0.15625 3.296875 -0.703125 C 3.609375 -0.15625 4.09375 0.125 4.78125 0.125 C 5.46875 0.125 6.015625 -0.15625 6.4375 -0.703125 C 6.796875 -1.1875 6.984375 -1.5625 6.984375 -1.796875 C 6.984375 -1.9375 6.90625 -2 6.75 -2 C 6.609375 -2 6.515625 -1.921875 6.453125 -1.765625 C 6.25 -1.09375 5.609375 -0.3125 4.828125 -0.3125 C 4.359375 -0.3125 4.125 -0.5625 4.125 -1.0625 C 4.125 -1.25 4.34375 -2.1875 4.765625 -3.84375 C 4.96875 -4.65625 5.34375 -5.0625 5.90625 -5.0625 L 6.015625 -5.046875 C 6.171875 -5.046875 6.328125 -5.015625 6.453125 -4.953125 C 6.140625 -4.8125 6 -4.59375 6 -4.265625 C 6 -3.96875 6.234375 -3.75 6.53125 -3.75 C 6.953125 -3.75 7.265625 -4.125 7.265625 -4.546875 Z M 7.265625 -4.546875 "/>
</g>
</g>
</defs>
<g fill="rgb(100%, 100%, 100%)" fill-opacity="1">
<use xlink:href="#glyph-0-0" x="2.224135" y="13.936027"/>
</g>
<g fill="rgb(100%, 100%, 100%)" fill-opacity="1">
<use xlink:href="#glyph-0-1" x="16.391001" y="13.936027"/>
</g>
<g fill="rgb(100%, 100%, 100%)" fill-opacity="1">
<use xlink:href="#glyph-0-2" x="35.186527" y="13.936027"/>
</g>
<g fill="rgb(100%, 100%, 100%)" fill-opacity="1">
<use xlink:href="#glyph-1-0" x="43.48251" y="7.473705"/>
</g>
</svg>
