<?xml version="1.0" encoding="UTF-8" standalone="no"?>
<!DOCTYPE svg PUBLIC "-//W3C//DTD SVG 1.1//EN"
 "http://www.w3.org/Graphics/SVG/1.1/DTD/svg11.dtd">
<!-- Generated by graphviz version 14.1.5 (0)
 -->
<!-- Title: ComputeSegment Pages: 1 -->
<svg width="1099pt" height="1151pt"
 viewBox="0.00 0.00 1099.00 1151.00" xmlns="http://www.w3.org/2000/svg" xmlns:xlink="http://www.w3.org/1999/xlink">
<g id="graph0" class="graph" transform="scale(1 1) rotate(0) translate(4 1147.28)">
<title>ComputeSegment</title>
<polygon fill="white" stroke="none" points="-4,4 -4,-1147.28 1094.77,-1147.28 1094.77,4 -4,4"/>
<!-- start -->
<g id="node1" class="node">
<title>start</title>
<ellipse fill="#e6eefc" stroke="#000000" cx="302.99" cy="-1123.84" rx="176.78" ry="19.45"/>
<text xml:space="preserve" text-anchor="middle" x="302.99" y="-1120.29" font-family="CMU Serif" font-size="14.00">Начало: computeSegmentStandard</text>
</g>
<!-- input -->
<g id="node2" class="node">
<title>input</title>
<polygon fill="#f5f5f5" stroke="#000000" points="491.42,-1081.39 191.67,-1081.39 114.56,-1026.39 414.31,-1026.39 491.42,-1081.39"/>
<text xml:space="preserve" text-anchor="middle" x="302.99" y="-1050.34" font-family="CMU Serif" font-size="14.00">Ввод: integ, f(x), seg, eps</text>
</g>
<!-- start&#45;&gt;input -->
<g id="edge1" class="edge">
<title>start&#45;&gt;input</title>
<path fill="none" stroke="#000000" d="M302.99,-1103.91C302.99,-1100.49 302.99,-1096.82 302.99,-1093.08"/>
<polygon fill="#000000" stroke="#000000" points="306.49,-1093.35 302.99,-1083.35 299.49,-1093.35 306.49,-1093.35"/>
</g>
<!-- chkAny -->
<g id="node3" class="node">
<title>chkAny</title>
<polygon fill="#fff7d1" stroke="#000000" points="302.99,-1003.39 160.99,-956.39 302.99,-909.39 444.99,-956.39 302.99,-1003.39"/>
<text xml:space="preserve" text-anchor="start" x="239.99" y="-960.89" font-family="CMU Serif" font-size="14.00">seg.limit_at_from ∨</text>
<text xml:space="preserve" text-anchor="start" x="252.74" y="-941.39" font-family="CMU Serif" font-size="14.00">seg.limit_at_to?</text>
</g>
<!-- input&#45;&gt;chkAny -->
<g id="edge2" class="edge">
<title>input&#45;&gt;chkAny</title>
<path fill="none" stroke="#000000" d="M302.99,-1026.03C302.99,-1022.56 302.99,-1018.9 302.99,-1015.15"/>
<polygon fill="#000000" stroke="#000000" points="306.49,-1015.27 302.99,-1005.27 299.49,-1015.27 306.49,-1015.27"/>
</g>
<!-- plain -->
<g id="node4" class="node">
<title>plain</title>
<polygon fill="#e6eefc" stroke="#000000" points="280.74,-856.39 53.24,-856.39 53.24,-789.89 280.74,-789.89 280.74,-856.39"/>
<text xml:space="preserve" text-anchor="start" x="82.24" y="-837.39" font-family="CMU Serif" font-size="14.00">inner = integ.rungeSolve(</text>
<text xml:space="preserve" text-anchor="start" x="105.87" y="-817.89" font-family="CMU Serif" font-size="14.00">f, seg.from, seg.to)</text>
<text xml:space="preserve" text-anchor="start" x="61.24" y="-798.39" font-family="CMU Serif" font-size="14.00">(см. блок&#45;схему правила Рунге)</text>
</g>
<!-- chkAny&#45;&gt;plain -->
<g id="edge3" class="edge">
<title>chkAny&#45;&gt;plain</title>
<path fill="none" stroke="#000000" d="M267.26,-920.91C249.3,-903.57 227.43,-882.46 208.7,-864.39"/>
<polygon fill="#000000" stroke="#000000" points="211.33,-862.07 201.71,-857.64 206.47,-867.1 211.33,-862.07"/>
<text xml:space="preserve" text-anchor="middle" x="252.89" y="-886.99" font-family="CMU Serif" font-size="12.00">нет</text>
</g>
<!-- chkBoth -->
<g id="node6" class="node">
<title>chkBoth</title>
<polygon fill="#fff7d1" stroke="#000000" points="442.99,-870.14 300.99,-823.14 442.99,-776.14 584.99,-823.14 442.99,-870.14"/>
<text xml:space="preserve" text-anchor="start" x="379.99" y="-827.64" font-family="CMU Serif" font-size="14.00">seg.limit_at_from ∧</text>
<text xml:space="preserve" text-anchor="start" x="392.74" y="-808.14" font-family="CMU Serif" font-size="14.00">seg.limit_at_to?</text>
</g>
<!-- chkAny&#45;&gt;chkBoth -->
<g id="edge6" class="edge">
<title>chkAny&#45;&gt;chkBoth</title>
<path fill="none" stroke="#000000" d="M339.41,-921.25C357.48,-904.31 379.46,-883.71 398.51,-865.84"/>
<polygon fill="#000000" stroke="#000000" points="400.75,-868.54 405.65,-859.15 395.97,-863.43 400.75,-868.54"/>
<text xml:space="preserve" text-anchor="middle" x="388.5" y="-886.99" font-family="CMU Serif" font-size="12.00">да</text>
</g>
<!-- retPlain -->
<g id="node5" class="node">
<title>retPlain</title>
<polygon fill="#dcfce7" stroke="#000000" points="309.99,-659.39 63.43,-659.39 0,-604.39 246.56,-604.39 309.99,-659.39"/>
<text xml:space="preserve" text-anchor="start" x="88.24" y="-626.64" font-family="CMU Serif" font-size="14.00">r ← inner (целиком)</text>
</g>
<!-- plain&#45;&gt;retPlain -->
<g id="edge4" class="edge">
<title>plain&#45;&gt;retPlain</title>
<path fill="none" stroke="#000000" d="M164.93,-789.61C162.84,-756.66 159.61,-705.73 157.41,-670.94"/>
<polygon fill="#000000" stroke="#000000" points="160.92,-671.07 156.8,-661.31 153.94,-671.51 160.92,-671.07"/>
</g>
<!-- stop -->
<g id="node18" class="node">
<title>stop</title>
<ellipse fill="#e6eefc" stroke="#000000" cx="342.99" cy="-19.45" rx="39.95" ry="19.45"/>
<text xml:space="preserve" text-anchor="middle" x="342.99" y="-15.9" font-family="CMU Serif" font-size="14.00">Конец</text>
</g>
<!-- retPlain&#45;&gt;stop -->
<g id="edge5" class="edge">
<title>retPlain&#45;&gt;stop</title>
<path fill="none" stroke="#000000" d="M150.88,-603.99C145.85,-571.1 137.99,-519.77 137.99,-519.77 137.99,-519.77 137.99,-519.77 137.99,-146.89 137.99,-146.89 190.99,-61.89 190.99,-61.89 190.99,-61.89 231.99,-49.89 231.99,-49.89 231.99,-49.89 266.82,-40.65 297.46,-32.53"/>
<polygon fill="#000000" stroke="#000000" points="298.25,-35.94 307.02,-29.99 296.46,-29.17 298.25,-35.94"/>
</g>
<!-- splitMid -->
<g id="node7" class="node">
<title>splitMid</title>
<polygon fill="#e6eefc" stroke="#000000" points="552.62,-736.89 333.37,-736.89 333.37,-670.39 552.62,-670.39 552.62,-736.89"/>
<text xml:space="preserve" text-anchor="start" x="350.74" y="-717.89" font-family="CMU Serif" font-size="14.00">mid = (seg.from + seg.to) / 2</text>
<text xml:space="preserve" text-anchor="start" x="372.49" y="-698.39" font-family="CMU Serif" font-size="14.00">lr1 = limitAtEndpoint(</text>
<text xml:space="preserve" text-anchor="start" x="341.37" y="-678.89" font-family="CMU Serif" font-size="14.00">integ, f, seg.from, mid, +1, eps)</text>
</g>
<!-- chkBoth&#45;&gt;splitMid -->
<g id="edge7" class="edge">
<title>chkBoth&#45;&gt;splitMid</title>
<path fill="none" stroke="#000000" d="M442.99,-775.7C442.99,-766.78 442.99,-757.46 442.99,-748.62"/>
<polygon fill="#000000" stroke="#000000" points="446.49,-748.87 442.99,-738.87 439.49,-748.87 446.49,-748.87"/>
<text xml:space="preserve" text-anchor="middle" x="450.12" y="-753.74" font-family="CMU Serif" font-size="12.00">да</text>
</g>
<!-- chkLeft -->
<g id="node14" class="node">
<title>chkLeft</title>
<polygon fill="#fff7d1" stroke="#000000" points="709.99,-731.14 576.24,-703.64 709.99,-676.14 843.74,-703.64 709.99,-731.14"/>
<text xml:space="preserve" text-anchor="start" x="651.12" y="-698.39" font-family="CMU Serif" font-size="14.00">seg.limit_at_from?</text>
</g>
<!-- chkBoth&#45;&gt;chkLeft -->
<g id="edge17" class="edge">
<title>chkBoth&#45;&gt;chkLeft</title>
<path fill="none" stroke="#000000" d="M503.25,-795.63C549.81,-775.13 613.59,-747.07 657.95,-727.55"/>
<polygon fill="#000000" stroke="#000000" points="659.09,-730.86 666.84,-723.63 656.27,-724.46 659.09,-730.86"/>
<text xml:space="preserve" text-anchor="middle" x="618.01" y="-753.74" font-family="CMU Serif" font-size="12.00">нет</text>
</g>
<!-- chk1 -->
<g id="node8" class="node">
<title>chk1</title>
<polygon fill="#fff7d1" stroke="#000000" points="442.99,-593.39 316.74,-565.89 442.99,-538.39 569.24,-565.89 442.99,-593.39"/>
<text xml:space="preserve" text-anchor="start" x="387.87" y="-560.64" font-family="CMU Serif" font-size="14.00">lr1.status = &quot;ok&quot;?</text>
</g>
<!-- splitMid&#45;&gt;chk1 -->
<g id="edge8" class="edge">
<title>splitMid&#45;&gt;chk1</title>
<path fill="none" stroke="#000000" d="M442.99,-670.13C442.99,-650.59 442.99,-625.62 442.99,-605.14"/>
<polygon fill="#000000" stroke="#000000" points="446.49,-605.18 442.99,-595.18 439.49,-605.18 446.49,-605.18"/>
</g>
<!-- ret1 -->
<g id="node9" class="node">
<title>ret1</title>
<polygon fill="#fde2e2" stroke="#000000" points="431.44,-433.14 209.61,-433.14 152.55,-339.14 374.37,-339.14 431.44,-433.14"/>
<text xml:space="preserve" text-anchor="start" x="232.74" y="-390.64" font-family="CMU Serif" font-size="14.00">status = lr1.status</text>
<text xml:space="preserve" text-anchor="start" x="269.87" y="-371.14" font-family="CMU Serif" font-size="14.00">(не ok)</text>
</g>
<!-- chk1&#45;&gt;ret1 -->
<g id="edge9" class="edge">
<title>chk1&#45;&gt;ret1</title>
<path fill="none" stroke="#000000" d="M410.59,-545.16C378.78,-525.8 334.99,-499.14 334.99,-499.14 334.99,-499.14 324.45,-471.66 313.8,-443.93"/>
<polygon fill="#000000" stroke="#000000" points="317.13,-442.84 310.28,-434.76 310.59,-445.35 317.13,-442.84"/>
<text xml:space="preserve" text-anchor="middle" x="389.53" y="-515.99" font-family="CMU Serif" font-size="12.00">нет</text>
</g>
<!-- call2 -->
<g id="node10" class="node">
<title>call2</title>
<polygon fill="#e6eefc" stroke="#000000" points="545.99,-495.14 343.99,-495.14 343.99,-448.14 545.99,-448.14 545.99,-495.14"/>
<text xml:space="preserve" text-anchor="start" x="374.49" y="-476.14" font-family="CMU Serif" font-size="14.00">lr2 = limitAtEndpoint(</text>
<text xml:space="preserve" text-anchor="start" x="351.99" y="-456.64" font-family="CMU Serif" font-size="14.00">integ, f, seg.to, mid, −1, eps)</text>
</g>
<!-- chk1&#45;&gt;call2 -->
<g id="edge11" class="edge">
<title>chk1&#45;&gt;call2</title>
<path fill="none" stroke="#000000" d="M443.57,-538.21C443.79,-528.39 444.03,-517.13 444.26,-506.74"/>
<polygon fill="#000000" stroke="#000000" points="447.75,-507.1 444.47,-497.03 440.75,-506.95 447.75,-507.1"/>
<text xml:space="preserve" text-anchor="middle" x="451.3" y="-515.99" font-family="CMU Serif" font-size="12.00">да</text>
</g>
<!-- ret1&#45;&gt;stop -->
<g id="edge10" class="edge">
<title>ret1&#45;&gt;stop</title>
<path fill="none" stroke="#000000" d="M262.36,-338.94C233.84,-294.46 194.99,-233.89 194.99,-233.89 194.99,-233.89 194.99,-61.89 194.99,-61.89 194.99,-61.89 254.53,-45.22 298.08,-33.02"/>
<polygon fill="#000000" stroke="#000000" points="298.9,-36.43 307.58,-30.36 297.01,-29.69 298.9,-36.43"/>
</g>
<!-- chk2 -->
<g id="node11" class="node">
<title>chk2</title>
<polygon fill="#fff7d1" stroke="#000000" points="445.99,-328.14 319.74,-300.64 445.99,-273.14 572.24,-300.64 445.99,-328.14"/>
<text xml:space="preserve" text-anchor="start" x="390.87" y="-295.39" font-family="CMU Serif" font-size="14.00">lr2.status = &quot;ok&quot;?</text>
</g>
<!-- call2&#45;&gt;chk2 -->
<g id="edge12" class="edge">
<title>call2&#45;&gt;chk2</title>
<path fill="none" stroke="#000000" d="M445.13,-447.85C445.29,-420.12 445.57,-372.91 445.77,-339.65"/>
<polygon fill="#000000" stroke="#000000" points="449.27,-340.06 445.83,-330.04 442.27,-340.02 449.27,-340.06"/>
</g>
<!-- ret2 -->
<g id="node12" class="node">
<title>ret2</title>
<polygon fill="#fde2e2" stroke="#000000" points="482.44,-194.89 260.61,-194.89 203.55,-100.89 425.37,-100.89 482.44,-194.89"/>
<text xml:space="preserve" text-anchor="start" x="283.74" y="-152.39" font-family="CMU Serif" font-size="14.00">status = lr2.status</text>
<text xml:space="preserve" text-anchor="start" x="320.87" y="-132.89" font-family="CMU Serif" font-size="14.00">(не ok)</text>
</g>
<!-- chk2&#45;&gt;ret2 -->
<g id="edge13" class="edge">
<title>chk2&#45;&gt;ret2</title>
<path fill="none" stroke="#000000" d="M430.13,-276.42C417.07,-257.3 398.01,-229.41 381.05,-204.58"/>
<polygon fill="#000000" stroke="#000000" points="384.05,-202.78 375.52,-196.49 378.27,-206.73 384.05,-202.78"/>
<text xml:space="preserve" text-anchor="middle" x="428.12" y="-250.74" font-family="CMU Serif" font-size="12.00">нет</text>
</g>
<!-- retBoth -->
<g id="node13" class="node">
<title>retBoth</title>
<polygon fill="#dcfce7" stroke="#000000" points="941.3,-233.89 590.84,-233.89 500.68,-61.89 851.15,-61.89 941.3,-233.89"/>
<text xml:space="preserve" text-anchor="start" x="630.62" y="-171.89" font-family="CMU Serif" font-size="14.00">value = lr1.value + lr2.value</text>
<text xml:space="preserve" text-anchor="start" x="669.99" y="-152.39" font-family="CMU Serif" font-size="14.00">n = lr1.n + lr2.n</text>
<text xml:space="preserve" text-anchor="start" x="622.74" y="-132.89" font-family="CMU Serif" font-size="14.00">runge = lr1.runge + lr2.runge</text>
<text xml:space="preserve" text-anchor="start" x="679.74" y="-113.39" font-family="CMU Serif" font-size="14.00">status = &quot;ok&quot;</text>
</g>
<!-- chk2&#45;&gt;retBoth -->
<g id="edge15" class="edge">
<title>chk2&#45;&gt;retBoth</title>
<path fill="none" stroke="#000000" d="M481.1,-280.4C505.52,-267.01 539.88,-248.17 574.98,-228.93"/>
<polygon fill="#000000" stroke="#000000" points="576.48,-232.1 583.57,-224.23 573.12,-225.96 576.48,-232.1"/>
<text xml:space="preserve" text-anchor="middle" x="549.92" y="-250.74" font-family="CMU Serif" font-size="12.00">да</text>
</g>
<!-- ret2&#45;&gt;stop -->
<g id="edge14" class="edge">
<title>ret2&#45;&gt;stop</title>
<path fill="none" stroke="#000000" d="M342.99,-100.53C342.99,-83.84 342.99,-65.47 342.99,-50.53"/>
<polygon fill="#000000" stroke="#000000" points="346.49,-50.9 342.99,-40.9 339.49,-50.9 346.49,-50.9"/>
</g>
<!-- retBoth&#45;&gt;stop -->
<g id="edge16" class="edge">
<title>retBoth&#45;&gt;stop</title>
<path fill="none" stroke="#000000" d="M502.4,-66.11C495.17,-63.43 490.99,-61.89 490.99,-61.89 490.99,-61.89 431.46,-45.22 387.91,-33.02"/>
<polygon fill="#000000" stroke="#000000" points="388.98,-29.69 378.41,-30.36 387.09,-36.43 388.98,-29.69"/>
</g>
<!-- callLeft -->
<g id="node15" class="node">
<title>callLeft</title>
<polygon fill="#e6eefc" stroke="#000000" points="827.49,-589.39 592.49,-589.39 592.49,-542.39 827.49,-542.39 827.49,-589.39"/>
<text xml:space="preserve" text-anchor="start" x="643.62" y="-570.39" font-family="CMU Serif" font-size="14.00">lr = limitAtEndpoint(</text>
<text xml:space="preserve" text-anchor="start" x="600.49" y="-550.89" font-family="CMU Serif" font-size="14.00">integ, f, seg.from, seg.to, +1, eps)</text>
</g>
<!-- chkLeft&#45;&gt;callLeft -->
<g id="edge18" class="edge">
<title>chkLeft&#45;&gt;callLeft</title>
<path fill="none" stroke="#000000" d="M709.99,-675.82C709.99,-654.37 709.99,-624.16 709.99,-600.99"/>
<polygon fill="#000000" stroke="#000000" points="713.49,-601.11 709.99,-591.11 706.49,-601.11 713.49,-601.11"/>
<text xml:space="preserve" text-anchor="middle" x="717.12" y="-629.12" font-family="CMU Serif" font-size="12.00">да</text>
</g>
<!-- callRight -->
<g id="node16" class="node">
<title>callRight</title>
<polygon fill="#e6eefc" stroke="#000000" points="1080.49,-589.39 845.49,-589.39 845.49,-542.39 1080.49,-542.39 1080.49,-589.39"/>
<text xml:space="preserve" text-anchor="start" x="896.62" y="-570.39" font-family="CMU Serif" font-size="14.00">lr = limitAtEndpoint(</text>
<text xml:space="preserve" text-anchor="start" x="853.49" y="-550.89" font-family="CMU Serif" font-size="14.00">integ, f, seg.to, seg.from, −1, eps)</text>
</g>
<!-- chkLeft&#45;&gt;callRight -->
<g id="edge20" class="edge">
<title>chkLeft&#45;&gt;callRight</title>
<path fill="none" stroke="#000000" d="M746.24,-683.19C789.23,-660.13 861.23,-621.49 910.36,-595.13"/>
<polygon fill="#000000" stroke="#000000" points="911.99,-598.23 919.14,-590.42 908.68,-592.06 911.99,-598.23"/>
<text xml:space="preserve" text-anchor="middle" x="897.99" y="-629.12" font-family="CMU Serif" font-size="12.00">нет</text>
</g>
<!-- retLR -->
<g id="node17" class="node">
<title>retLR</title>
<polygon fill="#dcfce7" stroke="#000000" points="1090.77,-499.14 887.51,-499.14 835.21,-444.14 1038.48,-444.14 1090.77,-499.14"/>
<text xml:space="preserve" text-anchor="start" x="909.37" y="-466.39" font-family="CMU Serif" font-size="14.00">r ← lr (целиком)</text>
</g>
<!-- callLeft&#45;&gt;retLR -->
<g id="edge19" class="edge">
<title>callLeft&#45;&gt;retLR</title>
<path fill="none" stroke="#000000" d="M772.86,-541.97C804.82,-530.31 844.11,-515.99 878.67,-503.39"/>
<polygon fill="#000000" stroke="#000000" points="879.61,-506.77 887.8,-500.06 877.21,-500.2 879.61,-506.77"/>
</g>
<!-- callRight&#45;&gt;retLR -->
<g id="edge21" class="edge">
<title>callRight&#45;&gt;retLR</title>
<path fill="none" stroke="#000000" d="M962.99,-542.09C962.99,-532.61 962.99,-521.34 962.99,-510.67"/>
<polygon fill="#000000" stroke="#000000" points="966.49,-510.95 962.99,-500.95 959.49,-510.95 966.49,-510.95"/>
</g>
<!-- retLR&#45;&gt;stop -->
<g id="edge22" class="edge">
<title>retLR&#45;&gt;stop</title>
<path fill="none" stroke="#000000" d="M962.14,-443.82C959.25,-352.89 949.99,-61.89 949.99,-61.89 949.99,-61.89 539.4,-33.86 393.6,-23.9"/>
<polygon fill="#000000" stroke="#000000" points="394.08,-20.43 383.86,-23.24 393.6,-27.41 394.08,-20.43"/>
</g>
</g>
</svg>
