<?xml version="1.0" encoding="UTF-8" standalone="no"?>
<!DOCTYPE svg PUBLIC "-//W3C//DTD SVG 1.1//EN"
 "http://www.w3.org/Graphics/SVG/1.1/DTD/svg11.dtd">
<!-- Generated by graphviz version 14.1.5 (0)
 -->
<!-- Title: Dihotomy Pages: 1 -->
<svg width="666pt" height="1079pt"
 viewBox="0.00 0.00 666.00 1079.00" xmlns="http://www.w3.org/2000/svg" xmlns:xlink="http://www.w3.org/1999/xlink">
<g id="graph0" class="graph" transform="scale(1 1) rotate(0) translate(4 1074.53)">
<title>Dihotomy</title>
<polygon fill="white" stroke="none" points="-4,4 -4,-1074.53 662.15,-1074.53 662.15,4 -4,4"/>
<!-- start -->
<g id="node1" class="node">
<title>start</title>
<ellipse fill="#e6eefc" stroke="#000000" cx="530.38" cy="-1051.09" rx="46.85" ry="19.45"/>
<text xml:space="preserve" text-anchor="middle" x="530.38" y="-1047.54" font-family="CMU Serif" font-size="14.00">Начало</text>
</g>
<!-- input -->
<g id="node2" class="node">
<title>input</title>
<polygon fill="#f5f5f5" stroke="#000000" points="658.15,-1008.64 454.89,-1008.64 402.6,-953.64 605.86,-953.64 658.15,-1008.64"/>
<text xml:space="preserve" text-anchor="middle" x="530.38" y="-977.59" font-family="CMU Serif" font-size="14.00">Ввод: f(x), a, b, ε</text>
</g>
<!-- start&#45;&gt;input -->
<g id="edge1" class="edge">
<title>start&#45;&gt;input</title>
<path fill="none" stroke="#000000" d="M530.38,-1031.16C530.38,-1027.74 530.38,-1024.07 530.38,-1020.33"/>
<polygon fill="#000000" stroke="#000000" points="533.88,-1020.6 530.38,-1010.6 526.88,-1020.6 533.88,-1020.6"/>
</g>
<!-- init -->
<g id="node3" class="node">
<title>init</title>
<polygon fill="#ffffff" stroke="#000000" points="611.12,-930.64 449.62,-930.64 449.62,-894.64 611.12,-894.64 611.12,-930.64"/>
<text xml:space="preserve" text-anchor="start" x="457.62" y="-910.09" font-family="CMU Serif" font-size="14.00">f</text>
<text xml:space="preserve" text-anchor="start" x="462.12" y="-910.09" font-family="CMU Serif" baseline-shift="sub" font-size="14.00">a</text>
<text xml:space="preserve" text-anchor="start" x="468.88" y="-910.09" font-family="CMU Serif" font-size="14.00"> = f(a); f</text>
<text xml:space="preserve" text-anchor="start" x="517.62" y="-910.09" font-family="CMU Serif" baseline-shift="sub" font-size="14.00">b</text>
<text xml:space="preserve" text-anchor="start" x="525.12" y="-910.09" font-family="CMU Serif" font-size="14.00"> = f(b); n = 0</text>
</g>
<!-- input&#45;&gt;init -->
<g id="edge2" class="edge">
<title>input&#45;&gt;init</title>
<path fill="none" stroke="#000000" d="M530.38,-953.48C530.38,-949.77 530.38,-945.94 530.38,-942.2"/>
<polygon fill="#000000" stroke="#000000" points="533.88,-942.27 530.38,-932.27 526.88,-942.27 533.88,-942.27"/>
</g>
<!-- chkA -->
<g id="node4" class="node">
<title>chkA</title>
<polygon fill="#fff7d1" stroke="#000000" points="530.38,-871.64 455.88,-844.14 530.38,-816.64 604.88,-844.14 530.38,-871.64"/>
<text xml:space="preserve" text-anchor="start" x="501.12" y="-841.59" font-family="CMU Serif" font-size="14.00">|f</text>
<text xml:space="preserve" text-anchor="start" x="513.12" y="-841.59" font-family="CMU Serif" baseline-shift="sub" font-size="14.00">a</text>
<text xml:space="preserve" text-anchor="start" x="519.88" y="-841.59" font-family="CMU Serif" font-size="14.00">| ≤ ε?</text>
</g>
<!-- init&#45;&gt;chkA -->
<g id="edge3" class="edge">
<title>init&#45;&gt;chkA</title>
<path fill="none" stroke="#000000" d="M530.38,-894.17C530.38,-890.78 530.38,-887.11 530.38,-883.35"/>
<polygon fill="#000000" stroke="#000000" points="533.88,-883.53 530.38,-873.53 526.88,-883.53 533.88,-883.53"/>
</g>
<!-- retA -->
<g id="node5" class="node">
<title>retA</title>
<polygon fill="#ffffff" stroke="#000000" points="609.5,-711.39 555.25,-711.39 555.25,-675.39 609.5,-675.39 609.5,-711.39"/>
<text xml:space="preserve" text-anchor="start" x="563.25" y="-688.14" font-family="CMU Serif" font-size="14.00">x* = a</text>
</g>
<!-- chkA&#45;&gt;retA -->
<g id="edge4" class="edge">
<title>chkA&#45;&gt;retA</title>
<path fill="none" stroke="#000000" d="M541.73,-820.51C551.28,-801.49 563.38,-777.39 563.38,-777.39 563.38,-777.39 570.39,-746.75 575.89,-722.7"/>
<polygon fill="#000000" stroke="#000000" points="579.28,-723.59 578.1,-713.06 572.46,-722.03 579.28,-723.59"/>
<text xml:space="preserve" text-anchor="middle" x="564.53" y="-794.24" font-family="CMU Serif" font-size="12.00">да</text>
</g>
<!-- chkB -->
<g id="node6" class="node">
<title>chkB</title>
<polygon fill="#fff7d1" stroke="#000000" points="479.38,-777.39 404.12,-749.89 479.37,-722.39 554.62,-749.89 479.38,-777.39"/>
<text xml:space="preserve" text-anchor="start" x="449.75" y="-747.34" font-family="CMU Serif" font-size="14.00">|f</text>
<text xml:space="preserve" text-anchor="start" x="461.75" y="-747.34" font-family="CMU Serif" baseline-shift="sub" font-size="14.00">b</text>
<text xml:space="preserve" text-anchor="start" x="469.25" y="-747.34" font-family="CMU Serif" font-size="14.00">| ≤ ε?</text>
</g>
<!-- chkA&#45;&gt;chkB -->
<g id="edge6" class="edge">
<title>chkA&#45;&gt;chkB</title>
<path fill="none" stroke="#000000" d="M518.03,-820.81C511.81,-809.56 504.16,-795.71 497.3,-783.32"/>
<polygon fill="#000000" stroke="#000000" points="500.42,-781.72 492.52,-774.66 494.29,-785.11 500.42,-781.72"/>
<text xml:space="preserve" text-anchor="middle" x="519.19" y="-794.24" font-family="CMU Serif" font-size="12.00">нет</text>
</g>
<!-- output -->
<g id="node18" class="node">
<title>output</title>
<polygon fill="#f5f5f5" stroke="#000000" points="611.27,-133.14 447.59,-133.14 405.48,-78.14 569.16,-78.14 611.27,-133.14"/>
<text xml:space="preserve" text-anchor="start" x="466.75" y="-100.39" font-family="CMU Serif" font-size="14.00">Вывод: x*, n</text>
</g>
<!-- retA&#45;&gt;output -->
<g id="edge5" class="edge">
<title>retA&#45;&gt;output</title>
<path fill="none" stroke="#000000" d="M582.38,-675.05C582.38,-643.83 582.38,-581.39 582.38,-581.39 582.38,-581.39 582.38,-581.39 582.38,-198.89 582.38,-198.89 540.38,-144.14 540.38,-144.14 540.38,-144.14 539.72,-143.38 538.6,-142.06"/>
<polygon fill="#000000" stroke="#000000" points="541.43,-139.98 532.27,-134.65 536.1,-144.53 541.43,-139.98"/>
</g>
<!-- retB -->
<g id="node7" class="node">
<title>retB</title>
<polygon fill="#ffffff" stroke="#000000" points="550.88,-598.39 495.88,-598.39 495.88,-562.39 550.88,-562.39 550.88,-598.39"/>
<text xml:space="preserve" text-anchor="start" x="503.88" y="-575.14" font-family="CMU Serif" font-size="14.00">x* = b</text>
</g>
<!-- chkB&#45;&gt;retB -->
<g id="edge7" class="edge">
<title>chkB&#45;&gt;retB</title>
<path fill="none" stroke="#000000" d="M485.77,-724.53C493.8,-693.99 507.53,-641.72 515.99,-609.51"/>
<polygon fill="#000000" stroke="#000000" points="519.31,-610.65 518.46,-600.09 512.54,-608.87 519.31,-610.65"/>
<text xml:space="preserve" text-anchor="middle" x="505.68" y="-690.62" font-family="CMU Serif" font-size="12.00">да</text>
</g>
<!-- chkSign -->
<g id="node8" class="node">
<title>chkSign</title>
<polygon fill="#fff7d1" stroke="#000000" points="377.38,-664.39 304.38,-636.89 377.38,-609.39 450.38,-636.89 377.38,-664.39"/>
<text xml:space="preserve" text-anchor="start" x="348.88" y="-634.34" font-family="CMU Serif" font-size="14.00">f</text>
<text xml:space="preserve" text-anchor="start" x="353.38" y="-634.34" font-family="CMU Serif" baseline-shift="sub" font-size="14.00">a</text>
<text xml:space="preserve" text-anchor="start" x="360.12" y="-634.34" font-family="CMU Serif" font-size="14.00">·f</text>
<text xml:space="preserve" text-anchor="start" x="368.38" y="-634.34" font-family="CMU Serif" baseline-shift="sub" font-size="14.00">b</text>
<text xml:space="preserve" text-anchor="start" x="375.88" y="-634.34" font-family="CMU Serif" font-size="14.00"> &gt; 0?</text>
</g>
<!-- chkB&#45;&gt;chkSign -->
<g id="edge9" class="edge">
<title>chkB&#45;&gt;chkSign</title>
<path fill="none" stroke="#000000" d="M460.9,-728.79C444.8,-711.27 421.27,-685.66 403.29,-666.09"/>
<polygon fill="#000000" stroke="#000000" points="406.08,-663.95 396.73,-658.96 400.92,-668.69 406.08,-663.95"/>
<text xml:space="preserve" text-anchor="middle" x="453.22" y="-690.62" font-family="CMU Serif" font-size="12.00">нет</text>
</g>
<!-- retB&#45;&gt;output -->
<g id="edge8" class="edge">
<title>retB&#45;&gt;output</title>
<path fill="none" stroke="#000000" d="M525.99,-561.94C531.62,-524.41 544.38,-439.39 544.38,-439.39 544.38,-439.39 544.38,-439.39 544.38,-198.89 544.38,-198.89 532.92,-169.55 522.94,-143.96"/>
<polygon fill="#000000" stroke="#000000" points="526.23,-142.78 519.34,-134.73 519.71,-145.32 526.23,-142.78"/>
</g>
<!-- errNoRoot -->
<g id="node9" class="node">
<title>errNoRoot</title>
<polygon fill="#fde2e2" stroke="#000000" points="529.26,-485.39 287.65,-485.39 225.49,-391.39 467.1,-391.39 529.26,-485.39"/>
<text xml:space="preserve" text-anchor="middle" x="377.38" y="-444.59" font-family="CMU Serif" font-size="14.00">Корня нет /</text>
<text xml:space="preserve" text-anchor="middle" x="377.38" y="-425.09" font-family="CMU Serif" font-size="14.00">нескольких корней</text>
</g>
<!-- chkSign&#45;&gt;errNoRoot -->
<g id="edge10" class="edge">
<title>chkSign&#45;&gt;errNoRoot</title>
<path fill="none" stroke="#000000" d="M377.38,-608.98C377.38,-580.21 377.38,-533.74 377.38,-496.71"/>
<polygon fill="#000000" stroke="#000000" points="380.88,-497.07 377.38,-487.07 373.88,-497.07 380.88,-497.07"/>
<text xml:space="preserve" text-anchor="middle" x="384.5" y="-577.62" font-family="CMU Serif" font-size="12.00">да</text>
</g>
<!-- loopCond -->
<g id="node10" class="node">
<title>loopCond</title>
<polygon fill="#fff7d1" stroke="#000000" points="150.38,-551.39 59.38,-523.89 150.37,-496.39 241.38,-523.89 150.38,-551.39"/>
<text xml:space="preserve" text-anchor="start" x="112.88" y="-518.64" font-family="CMU Serif" font-size="14.00">|b − a| &gt; ε?</text>
</g>
<!-- chkSign&#45;&gt;loopCond -->
<g id="edge12" class="edge">
<title>chkSign&#45;&gt;loopCond</title>
<path fill="none" stroke="#000000" d="M346.29,-620.69C307.06,-601.51 239.32,-568.38 194.68,-546.56"/>
<polygon fill="#000000" stroke="#000000" points="196.3,-543.45 185.78,-542.2 193.22,-549.74 196.3,-543.45"/>
<text xml:space="preserve" text-anchor="middle" x="307.22" y="-577.62" font-family="CMU Serif" font-size="12.00">нет</text>
</g>
<!-- stop -->
<g id="node19" class="node">
<title>stop</title>
<ellipse fill="#e6eefc" stroke="#000000" cx="416.38" cy="-19.45" rx="39.95" ry="19.45"/>
<text xml:space="preserve" text-anchor="middle" x="416.38" y="-15.9" font-family="CMU Serif" font-size="14.00">Конец</text>
</g>
<!-- errNoRoot&#45;&gt;stop -->
<g id="edge11" class="edge">
<title>errNoRoot&#45;&gt;stop</title>
<path fill="none" stroke="#000000" d="M377.38,-390.96C377.38,-356.83 377.38,-316.39 377.38,-316.39 377.38,-316.39 377.38,-316.39 377.38,-104.64 377.38,-104.64 391.84,-73.41 403.16,-48.99"/>
<polygon fill="#000000" stroke="#000000" points="406.25,-50.63 407.28,-40.09 399.9,-47.69 406.25,-50.63"/>
</g>
<!-- incr -->
<g id="node11" class="node">
<title>incr</title>
<polygon fill="#ffffff" stroke="#000000" points="187.25,-380.39 113.5,-380.39 113.5,-344.39 187.25,-344.39 187.25,-380.39"/>
<text xml:space="preserve" text-anchor="start" x="121.5" y="-357.14" font-family="CMU Serif" font-size="14.00">n = n + 1</text>
</g>
<!-- loopCond&#45;&gt;incr -->
<g id="edge13" class="edge">
<title>loopCond&#45;&gt;incr</title>
<path fill="none" stroke="#000000" d="M150.38,-496.19C150.38,-467.35 150.38,-421.58 150.38,-392.01"/>
<polygon fill="#000000" stroke="#000000" points="153.88,-392.31 150.38,-382.31 146.88,-392.31 153.88,-392.31"/>
<text xml:space="preserve" text-anchor="middle" x="157.5" y="-435.62" font-family="CMU Serif" font-size="12.00">да</text>
</g>
<!-- finalX -->
<g id="node17" class="node">
<title>finalX</title>
<polygon fill="#ffffff" stroke="#000000" points="325.5,-333.39 217.25,-333.39 217.25,-297.39 325.5,-297.39 325.5,-333.39"/>
<text xml:space="preserve" text-anchor="start" x="225.25" y="-310.14" font-family="CMU Serif" font-size="14.00">x* = (a + b) / 2</text>
</g>
<!-- loopCond&#45;&gt;finalX -->
<g id="edge22" class="edge">
<title>loopCond&#45;&gt;finalX</title>
<path fill="none" stroke="#000000" d="M161.67,-499.35C165.29,-491.82 168.38,-485.39 168.38,-485.39 168.38,-485.39 196.88,-391.39 196.88,-391.39 196.88,-391.39 224.56,-363.52 246.18,-341.76"/>
<polygon fill="#000000" stroke="#000000" points="248.47,-344.42 253.03,-334.86 243.5,-339.49 248.47,-344.42"/>
<text xml:space="preserve" text-anchor="middle" x="206.62" y="-435.62" font-family="CMU Serif" font-size="12.00">нет</text>
</g>
<!-- mid -->
<g id="node12" class="node">
<title>mid</title>
<polygon fill="#ffffff" stroke="#000000" points="283.62,-286.39 113.12,-286.39 113.12,-250.39 283.62,-250.39 283.62,-286.39"/>
<text xml:space="preserve" text-anchor="start" x="121.12" y="-265.84" font-family="CMU Serif" font-size="14.00">x</text>
<text xml:space="preserve" text-anchor="start" x="128.62" y="-265.84" font-family="CMU Serif" baseline-shift="sub" font-size="14.00">n</text>
<text xml:space="preserve" text-anchor="start" x="136.12" y="-265.84" font-family="CMU Serif" font-size="14.00"> = (a + b) / 2; f</text>
<text xml:space="preserve" text-anchor="start" x="225.38" y="-265.84" font-family="CMU Serif" baseline-shift="sub" font-size="14.00">x</text>
<text xml:space="preserve" text-anchor="start" x="231.38" y="-265.84" font-family="CMU Serif" font-size="14.00"> = f(x</text>
<text xml:space="preserve" text-anchor="start" x="263.62" y="-265.84" font-family="CMU Serif" baseline-shift="sub" font-size="14.00">n</text>
<text xml:space="preserve" text-anchor="start" x="271.12" y="-265.84" font-family="CMU Serif" font-size="14.00">)</text>
</g>
<!-- incr&#45;&gt;mid -->
<g id="edge14" class="edge">
<title>incr&#45;&gt;mid</title>
<path fill="none" stroke="#000000" d="M159.4,-344.09C166.38,-330.72 176.16,-311.98 184.17,-296.61"/>
<polygon fill="#000000" stroke="#000000" points="187.16,-298.44 188.69,-287.96 180.96,-295.21 187.16,-298.44"/>
</g>
<!-- chkFx -->
<g id="node13" class="node">
<title>chkFx</title>
<polygon fill="#fff7d1" stroke="#000000" points="198.38,-227.39 124.63,-199.89 198.37,-172.39 272.12,-199.89 198.38,-227.39"/>
<text xml:space="preserve" text-anchor="start" x="169.5" y="-197.34" font-family="CMU Serif" font-size="14.00">|f</text>
<text xml:space="preserve" text-anchor="start" x="181.5" y="-197.34" font-family="CMU Serif" baseline-shift="sub" font-size="14.00">x</text>
<text xml:space="preserve" text-anchor="start" x="187.5" y="-197.34" font-family="CMU Serif" font-size="14.00">| ≤ ε?</text>
</g>
<!-- mid&#45;&gt;chkFx -->
<g id="edge15" class="edge">
<title>mid&#45;&gt;chkFx</title>
<path fill="none" stroke="#000000" d="M198.38,-249.92C198.38,-246.53 198.38,-242.86 198.38,-239.1"/>
<polygon fill="#000000" stroke="#000000" points="201.88,-239.28 198.38,-229.28 194.88,-239.28 201.88,-239.28"/>
</g>
<!-- chkHalf -->
<g id="node14" class="node">
<title>chkHalf</title>
<polygon fill="#fff7d1" stroke="#000000" points="189.38,-133.14 113.38,-105.64 189.37,-78.14 265.38,-105.64 189.38,-133.14"/>
<text xml:space="preserve" text-anchor="start" x="159.38" y="-103.09" font-family="CMU Serif" font-size="14.00">f</text>
<text xml:space="preserve" text-anchor="start" x="163.88" y="-103.09" font-family="CMU Serif" baseline-shift="sub" font-size="14.00">a</text>
<text xml:space="preserve" text-anchor="start" x="170.62" y="-103.09" font-family="CMU Serif" font-size="14.00">·f</text>
<text xml:space="preserve" text-anchor="start" x="178.88" y="-103.09" font-family="CMU Serif" baseline-shift="sub" font-size="14.00">x</text>
<text xml:space="preserve" text-anchor="start" x="184.88" y="-103.09" font-family="CMU Serif" font-size="14.00"> ≤ 0?</text>
</g>
<!-- chkFx&#45;&gt;chkHalf -->
<g id="edge17" class="edge">
<title>chkFx&#45;&gt;chkHalf</title>
<path fill="none" stroke="#000000" d="M195.87,-173.19C194.98,-164.07 193.96,-153.62 192.99,-143.74"/>
<polygon fill="#000000" stroke="#000000" points="196.5,-143.64 192.05,-134.03 189.53,-144.32 196.5,-143.64"/>
<text xml:space="preserve" text-anchor="middle" x="204.43" y="-149.99" font-family="CMU Serif" font-size="12.00">нет</text>
</g>
<!-- chkFx&#45;&gt;output -->
<g id="edge16" class="edge">
<title>chkFx&#45;&gt;output</title>
<path fill="none" stroke="#000000" d="M228.68,-183.2C259.93,-167.02 304.12,-144.14 304.12,-144.14 304.12,-144.14 369.09,-132.21 425.74,-121.81"/>
<polygon fill="#000000" stroke="#000000" points="426.25,-125.28 435.45,-120.03 424.98,-118.39 426.25,-125.28"/>
<text xml:space="preserve" text-anchor="middle" x="311.25" y="-149.99" font-family="CMU Serif" font-size="12.00">да</text>
</g>
<!-- setB -->
<g id="node15" class="node">
<title>setB</title>
<polygon fill="#ffffff" stroke="#000000" points="100.75,-37.45 0,-37.45 0,-1.45 100.75,-1.45 100.75,-37.45"/>
<text xml:space="preserve" text-anchor="start" x="8" y="-16.9" font-family="CMU Serif" font-size="14.00">b = x</text>
<text xml:space="preserve" text-anchor="start" x="39.5" y="-16.9" font-family="CMU Serif" baseline-shift="sub" font-size="14.00">n</text>
<text xml:space="preserve" text-anchor="start" x="47" y="-16.9" font-family="CMU Serif" font-size="14.00">; f</text>
<text xml:space="preserve" text-anchor="start" x="59" y="-16.9" font-family="CMU Serif" baseline-shift="sub" font-size="14.00">b</text>
<text xml:space="preserve" text-anchor="start" x="66.5" y="-16.9" font-family="CMU Serif" font-size="14.00"> = f</text>
<text xml:space="preserve" text-anchor="start" x="86.75" y="-16.9" font-family="CMU Serif" baseline-shift="sub" font-size="14.00">x</text>
</g>
<!-- chkHalf&#45;&gt;setB -->
<g id="edge18" class="edge">
<title>chkHalf&#45;&gt;setB</title>
<path fill="none" stroke="#000000" d="M161.58,-87.81C140.74,-75.18 111.96,-57.75 88.89,-43.78"/>
<polygon fill="#000000" stroke="#000000" points="90.74,-40.8 80.37,-38.62 87.11,-46.79 90.74,-40.8"/>
<text xml:space="preserve" text-anchor="middle" x="131.17" y="-55.74" font-family="CMU Serif" font-size="12.00">да</text>
</g>
<!-- setA -->
<g id="node16" class="node">
<title>setA</title>
<polygon fill="#ffffff" stroke="#000000" points="224,-37.45 124.75,-37.45 124.75,-1.45 224,-1.45 224,-37.45"/>
<text xml:space="preserve" text-anchor="start" x="132.75" y="-16.9" font-family="CMU Serif" font-size="14.00">a = x</text>
<text xml:space="preserve" text-anchor="start" x="163.5" y="-16.9" font-family="CMU Serif" baseline-shift="sub" font-size="14.00">n</text>
<text xml:space="preserve" text-anchor="start" x="171" y="-16.9" font-family="CMU Serif" font-size="14.00">; f</text>
<text xml:space="preserve" text-anchor="start" x="183" y="-16.9" font-family="CMU Serif" baseline-shift="sub" font-size="14.00">a</text>
<text xml:space="preserve" text-anchor="start" x="189.75" y="-16.9" font-family="CMU Serif" font-size="14.00"> = f</text>
<text xml:space="preserve" text-anchor="start" x="210" y="-16.9" font-family="CMU Serif" baseline-shift="sub" font-size="14.00">x</text>
</g>
<!-- chkHalf&#45;&gt;setA -->
<g id="edge19" class="edge">
<title>chkHalf&#45;&gt;setA</title>
<path fill="none" stroke="#000000" d="M184.87,-79.38C183.18,-69.88 181.24,-59 179.5,-49.2"/>
<polygon fill="#000000" stroke="#000000" points="182.96,-48.67 177.76,-39.44 176.07,-49.89 182.96,-48.67"/>
<text xml:space="preserve" text-anchor="middle" x="192.07" y="-55.74" font-family="CMU Serif" font-size="12.00">нет</text>
</g>
<!-- setB&#45;&gt;loopCond -->
<g id="edge20" class="edge">
<title>setB&#45;&gt;loopCond</title>
<path fill="none" stroke="#000000" d="M49.75,-37.89C48.87,-62.55 47.38,-104.64 47.38,-104.64 47.38,-363.39 47.38,-363.39 47.38,-363.39 47.38,-363.39 93.38,-485.39 93.38,-485.39 93.38,-485.39 102.35,-491.29 113.17,-498.41"/>
<polygon fill="#000000" stroke="#000000" points="111,-501.18 121.28,-503.75 114.85,-495.33 111,-501.18"/>
</g>
<!-- setA&#45;&gt;loopCond -->
<g id="edge21" class="edge">
<title>setA&#45;&gt;loopCond</title>
<path fill="none" stroke="#000000" d="M129.88,-37.91C113.73,-44.25 99.38,-49.89 99.38,-49.89 99.38,-49.89 85.38,-104.64 85.38,-104.64 85.38,-363.39 85.38,-363.39 85.38,-363.39 85.38,-363.39 117.2,-441.49 136.32,-488.39"/>
<polygon fill="#000000" stroke="#000000" points="133.06,-489.67 140.07,-497.61 139.54,-487.03 133.06,-489.67"/>
</g>
<!-- finalX&#45;&gt;output -->
<g id="edge23" class="edge">
<title>finalX&#45;&gt;output</title>
<path fill="none" stroke="#000000" d="M291.17,-297.04C330.3,-262.74 418.14,-185.74 469.32,-140.87"/>
<polygon fill="#000000" stroke="#000000" points="471.47,-143.65 476.68,-134.42 466.85,-138.38 471.47,-143.65"/>
</g>
<!-- output&#45;&gt;stop -->
<g id="edge24" class="edge">
<title>output&#45;&gt;stop</title>
<path fill="none" stroke="#000000" d="M479.01,-77.77C467.36,-67.11 454.07,-54.94 442.73,-44.57"/>
<polygon fill="#000000" stroke="#000000" points="445.36,-42.23 435.62,-38.06 440.64,-47.39 445.36,-42.23"/>
</g>
</g>
</svg>
