<?xml version="1.0" encoding="UTF-8" standalone="no"?>
<!DOCTYPE svg PUBLIC "-//W3C//DTD SVG 1.1//EN"
 "http://www.w3.org/Graphics/SVG/1.1/DTD/svg11.dtd">
<!-- Generated by graphviz version 14.1.5 (0)
 -->
<!-- Title: Dihotomy Pages: 1 -->
<svg width="848pt" height="1157pt"
 viewBox="0.00 0.00 848.00 1157.00" xmlns="http://www.w3.org/2000/svg" xmlns:xlink="http://www.w3.org/1999/xlink">
<g id="graph0" class="graph" transform="scale(1 1) rotate(0) translate(4 1152.53)">
<title>Dihotomy</title>
<polygon fill="white" stroke="none" points="-4,4 -4,-1152.53 844.44,-1152.53 844.44,4 -4,4"/>
<!-- start -->
<g id="node1" class="node">
<title>start</title>
<ellipse fill="#e6eefc" stroke="#000000" cx="712.66" cy="-1129.09" rx="46.85" ry="19.45"/>
<text xml:space="preserve" text-anchor="middle" x="712.66" y="-1125.54" font-family="CMU Serif" font-size="14.00">Начало</text>
</g>
<!-- input -->
<g id="node2" class="node">
<title>input</title>
<polygon fill="#f5f5f5" stroke="#000000" points="840.44,-1086.64 637.17,-1086.64 584.88,-1031.64 788.15,-1031.64 840.44,-1086.64"/>
<text xml:space="preserve" text-anchor="middle" x="712.66" y="-1055.59" font-family="CMU Serif" font-size="14.00">Ввод: f(x), a, b, ε</text>
</g>
<!-- start&#45;&gt;input -->
<g id="edge1" class="edge">
<title>start&#45;&gt;input</title>
<path fill="none" stroke="#000000" d="M712.66,-1109.16C712.66,-1105.74 712.66,-1102.07 712.66,-1098.33"/>
<polygon fill="#000000" stroke="#000000" points="716.16,-1098.6 712.66,-1088.6 709.16,-1098.6 716.16,-1098.6"/>
</g>
<!-- init -->
<g id="node3" class="node">
<title>init</title>
<polygon fill="#ffffff" stroke="#000000" points="793.41,-1008.64 631.91,-1008.64 631.91,-972.64 793.41,-972.64 793.41,-1008.64"/>
<text xml:space="preserve" text-anchor="start" x="639.91" y="-988.09" font-family="CMU Serif" font-size="14.00">f</text>
<text xml:space="preserve" text-anchor="start" x="644.41" y="-988.09" font-family="CMU Serif" baseline-shift="sub" font-size="14.00">a</text>
<text xml:space="preserve" text-anchor="start" x="651.16" y="-988.09" font-family="CMU Serif" font-size="14.00"> = f(a); f</text>
<text xml:space="preserve" text-anchor="start" x="699.91" y="-988.09" font-family="CMU Serif" baseline-shift="sub" font-size="14.00">b</text>
<text xml:space="preserve" text-anchor="start" x="707.41" y="-988.09" font-family="CMU Serif" font-size="14.00"> = f(b); n = 0</text>
</g>
<!-- input&#45;&gt;init -->
<g id="edge2" class="edge">
<title>input&#45;&gt;init</title>
<path fill="none" stroke="#000000" d="M712.66,-1031.48C712.66,-1027.77 712.66,-1023.94 712.66,-1020.2"/>
<polygon fill="#000000" stroke="#000000" points="716.16,-1020.27 712.66,-1010.27 709.16,-1020.27 716.16,-1020.27"/>
</g>
<!-- chkA -->
<g id="node4" class="node">
<title>chkA</title>
<polygon fill="#fff7d1" stroke="#000000" points="712.66,-949.64 638.16,-922.14 712.66,-894.64 787.16,-922.14 712.66,-949.64"/>
<text xml:space="preserve" text-anchor="start" x="683.41" y="-919.59" font-family="CMU Serif" font-size="14.00">|f</text>
<text xml:space="preserve" text-anchor="start" x="695.41" y="-919.59" font-family="CMU Serif" baseline-shift="sub" font-size="14.00">a</text>
<text xml:space="preserve" text-anchor="start" x="702.16" y="-919.59" font-family="CMU Serif" font-size="14.00">| ≤ ε?</text>
</g>
<!-- init&#45;&gt;chkA -->
<g id="edge3" class="edge">
<title>init&#45;&gt;chkA</title>
<path fill="none" stroke="#000000" d="M712.66,-972.17C712.66,-968.78 712.66,-965.11 712.66,-961.35"/>
<polygon fill="#000000" stroke="#000000" points="716.16,-961.53 712.66,-951.53 709.16,-961.53 716.16,-961.53"/>
</g>
<!-- retA -->
<g id="node5" class="node">
<title>retA</title>
<polygon fill="#ffffff" stroke="#000000" points="791.78,-789.39 737.53,-789.39 737.53,-753.39 791.78,-753.39 791.78,-789.39"/>
<text xml:space="preserve" text-anchor="start" x="745.53" y="-766.14" font-family="CMU Serif" font-size="14.00">x* = a</text>
</g>
<!-- chkA&#45;&gt;retA -->
<g id="edge4" class="edge">
<title>chkA&#45;&gt;retA</title>
<path fill="none" stroke="#000000" d="M724.01,-898.51C733.56,-879.49 745.66,-855.39 745.66,-855.39 745.66,-855.39 752.67,-824.75 758.18,-800.7"/>
<polygon fill="#000000" stroke="#000000" points="761.56,-801.59 760.38,-791.06 754.74,-800.03 761.56,-801.59"/>
<text xml:space="preserve" text-anchor="middle" x="746.81" y="-872.24" font-family="CMU Serif" font-size="12.00">да</text>
</g>
<!-- chkB -->
<g id="node6" class="node">
<title>chkB</title>
<polygon fill="#fff7d1" stroke="#000000" points="661.66,-855.39 586.41,-827.89 661.66,-800.39 736.91,-827.89 661.66,-855.39"/>
<text xml:space="preserve" text-anchor="start" x="632.03" y="-825.34" font-family="CMU Serif" font-size="14.00">|f</text>
<text xml:space="preserve" text-anchor="start" x="644.03" y="-825.34" font-family="CMU Serif" baseline-shift="sub" font-size="14.00">b</text>
<text xml:space="preserve" text-anchor="start" x="651.53" y="-825.34" font-family="CMU Serif" font-size="14.00">| ≤ ε?</text>
</g>
<!-- chkA&#45;&gt;chkB -->
<g id="edge6" class="edge">
<title>chkA&#45;&gt;chkB</title>
<path fill="none" stroke="#000000" d="M700.31,-898.81C694.09,-887.56 686.44,-873.71 679.58,-861.32"/>
<polygon fill="#000000" stroke="#000000" points="682.7,-859.72 674.8,-852.66 676.57,-863.11 682.7,-859.72"/>
<text xml:space="preserve" text-anchor="middle" x="701.47" y="-872.24" font-family="CMU Serif" font-size="12.00">нет</text>
</g>
<!-- output -->
<g id="node19" class="node">
<title>output</title>
<polygon fill="#f5f5f5" stroke="#000000" points="791.55,-116.89 627.87,-116.89 585.76,-61.89 749.45,-61.89 791.55,-116.89"/>
<text xml:space="preserve" text-anchor="start" x="647.03" y="-84.14" font-family="CMU Serif" font-size="14.00">Вывод: x*, n</text>
</g>
<!-- retA&#45;&gt;output -->
<g id="edge5" class="edge">
<title>retA&#45;&gt;output</title>
<path fill="none" stroke="#000000" d="M764.66,-753.05C764.66,-721.83 764.66,-659.39 764.66,-659.39 764.66,-659.39 764.66,-659.39 764.66,-182.64 764.66,-182.64 721.66,-127.89 721.66,-127.89 721.66,-127.89 720.98,-127.13 719.83,-125.81"/>
<polygon fill="#000000" stroke="#000000" points="722.52,-123.58 713.29,-118.38 717.27,-128.2 722.52,-123.58"/>
</g>
<!-- retB -->
<g id="node7" class="node">
<title>retB</title>
<polygon fill="#ffffff" stroke="#000000" points="733.16,-676.39 678.16,-676.39 678.16,-640.39 733.16,-640.39 733.16,-676.39"/>
<text xml:space="preserve" text-anchor="start" x="686.16" y="-653.14" font-family="CMU Serif" font-size="14.00">x* = b</text>
</g>
<!-- chkB&#45;&gt;retB -->
<g id="edge7" class="edge">
<title>chkB&#45;&gt;retB</title>
<path fill="none" stroke="#000000" d="M668.05,-802.53C676.08,-771.99 689.81,-719.72 698.27,-687.51"/>
<polygon fill="#000000" stroke="#000000" points="701.59,-688.65 700.74,-678.09 694.82,-686.87 701.59,-688.65"/>
<text xml:space="preserve" text-anchor="middle" x="687.96" y="-768.62" font-family="CMU Serif" font-size="12.00">да</text>
</g>
<!-- chkSign -->
<g id="node8" class="node">
<title>chkSign</title>
<polygon fill="#fff7d1" stroke="#000000" points="412.66,-742.39 339.66,-714.89 412.66,-687.39 485.66,-714.89 412.66,-742.39"/>
<text xml:space="preserve" text-anchor="start" x="384.16" y="-712.34" font-family="CMU Serif" font-size="14.00">f</text>
<text xml:space="preserve" text-anchor="start" x="388.66" y="-712.34" font-family="CMU Serif" baseline-shift="sub" font-size="14.00">a</text>
<text xml:space="preserve" text-anchor="start" x="395.41" y="-712.34" font-family="CMU Serif" font-size="14.00">·f</text>
<text xml:space="preserve" text-anchor="start" x="403.66" y="-712.34" font-family="CMU Serif" baseline-shift="sub" font-size="14.00">b</text>
<text xml:space="preserve" text-anchor="start" x="411.16" y="-712.34" font-family="CMU Serif" font-size="14.00"> &gt; 0?</text>
</g>
<!-- chkB&#45;&gt;chkSign -->
<g id="edge9" class="edge">
<title>chkB&#45;&gt;chkSign</title>
<path fill="none" stroke="#000000" d="M628.59,-812.15C584.1,-792.32 504.88,-757 455.76,-735.11"/>
<polygon fill="#000000" stroke="#000000" points="457.4,-732.01 446.84,-731.13 454.55,-738.4 457.4,-732.01"/>
<text xml:space="preserve" text-anchor="middle" x="583.76" y="-768.62" font-family="CMU Serif" font-size="12.00">нет</text>
</g>
<!-- retB&#45;&gt;output -->
<g id="edge8" class="edge">
<title>retB&#45;&gt;output</title>
<path fill="none" stroke="#000000" d="M708.27,-639.94C713.9,-602.41 726.66,-517.39 726.66,-517.39 726.66,-517.39 726.66,-517.39 726.66,-182.64 726.66,-182.64 714.57,-153.3 704.03,-127.71"/>
<polygon fill="#000000" stroke="#000000" points="707.27,-126.39 700.22,-118.47 700.8,-129.05 707.27,-126.39"/>
</g>
<!-- errNoRoot -->
<g id="node9" class="node">
<title>errNoRoot</title>
<polygon fill="#fde2e2" stroke="#000000" points="347.31,-563.39 71.06,-563.39 0,-469.39 276.25,-469.39 347.31,-563.39"/>
<text xml:space="preserve" text-anchor="middle" x="173.66" y="-522.59" font-family="CMU Serif" font-size="14.00">Необходимое условие</text>
<text xml:space="preserve" text-anchor="middle" x="173.66" y="-503.09" font-family="CMU Serif" font-size="14.00">не выполнено</text>
</g>
<!-- chkSign&#45;&gt;errNoRoot -->
<g id="edge10" class="edge">
<title>chkSign&#45;&gt;errNoRoot</title>
<path fill="none" stroke="#000000" d="M390.17,-695.4C355.86,-667.19 289.11,-612.32 238.75,-570.91"/>
<polygon fill="#000000" stroke="#000000" points="240.99,-568.22 231.04,-564.57 236.54,-573.63 240.99,-568.22"/>
<text xml:space="preserve" text-anchor="middle" x="372.4" y="-655.62" font-family="CMU Serif" font-size="12.00">да</text>
</g>
<!-- loopCond -->
<g id="node10" class="node">
<title>loopCond</title>
<polygon fill="#fff7d1" stroke="#000000" points="412.66,-629.39 321.66,-601.89 412.66,-574.39 503.66,-601.89 412.66,-629.39"/>
<text xml:space="preserve" text-anchor="start" x="375.16" y="-596.64" font-family="CMU Serif" font-size="14.00">|b − a| &gt; ε?</text>
</g>
<!-- chkSign&#45;&gt;loopCond -->
<g id="edge12" class="edge">
<title>chkSign&#45;&gt;loopCond</title>
<path fill="none" stroke="#000000" d="M412.66,-687.02C412.66,-673.22 412.66,-656.16 412.66,-641.02"/>
<polygon fill="#000000" stroke="#000000" points="416.16,-641.41 412.66,-631.41 409.16,-641.41 416.16,-641.41"/>
<text xml:space="preserve" text-anchor="middle" x="422.41" y="-655.62" font-family="CMU Serif" font-size="12.00">нет</text>
</g>
<!-- stop -->
<g id="node20" class="node">
<title>stop</title>
<ellipse fill="#e6eefc" stroke="#000000" cx="244.66" cy="-19.45" rx="39.95" ry="19.45"/>
<text xml:space="preserve" text-anchor="middle" x="244.66" y="-15.9" font-family="CMU Serif" font-size="14.00">Конец</text>
</g>
<!-- errNoRoot&#45;&gt;stop -->
<g id="edge11" class="edge">
<title>errNoRoot&#45;&gt;stop</title>
<path fill="none" stroke="#000000" d="M196.3,-468.96C212.94,-434.83 232.66,-394.39 232.66,-394.39 232.66,-394.39 232.66,-394.39 232.66,-88.39 232.66,-88.39 236.17,-68.51 239.39,-50.26"/>
<polygon fill="#000000" stroke="#000000" points="242.82,-50.96 241.11,-40.5 235.93,-49.74 242.82,-50.96"/>
</g>
<!-- incr -->
<g id="node11" class="node">
<title>incr</title>
<polygon fill="#ffffff" stroke="#000000" points="515.53,-458.39 441.78,-458.39 441.78,-422.39 515.53,-422.39 515.53,-458.39"/>
<text xml:space="preserve" text-anchor="start" x="449.78" y="-435.14" font-family="CMU Serif" font-size="14.00">n = n + 1</text>
</g>
<!-- loopCond&#45;&gt;incr -->
<g id="edge13" class="edge">
<title>loopCond&#45;&gt;incr</title>
<path fill="none" stroke="#000000" d="M422.54,-577.01C434.52,-548.06 454.66,-499.38 467.28,-468.89"/>
<polygon fill="#000000" stroke="#000000" points="470.39,-470.53 470.98,-459.95 463.92,-467.85 470.39,-470.53"/>
<text xml:space="preserve" text-anchor="middle" x="473.16" y="-513.62" font-family="CMU Serif" font-size="12.00">да</text>
</g>
<!-- finalX -->
<g id="node18" class="node">
<title>finalX</title>
<polygon fill="#ffffff" stroke="#000000" points="649.78,-411.39 541.53,-411.39 541.53,-375.39 649.78,-375.39 649.78,-411.39"/>
<text xml:space="preserve" text-anchor="start" x="549.53" y="-388.14" font-family="CMU Serif" font-size="14.00">x* = (a + b) / 2</text>
</g>
<!-- loopCond&#45;&gt;finalX -->
<g id="edge23" class="edge">
<title>loopCond&#45;&gt;finalX</title>
<path fill="none" stroke="#000000" d="M445.29,-583.9C464.34,-573.97 484.66,-563.39 484.66,-563.39 484.66,-563.39 546.7,-468.93 578.01,-421.25"/>
<polygon fill="#000000" stroke="#000000" points="580.8,-423.39 583.36,-413.11 574.95,-419.54 580.8,-423.39"/>
<text xml:space="preserve" text-anchor="middle" x="554.66" y="-513.62" font-family="CMU Serif" font-size="12.00">нет</text>
</g>
<!-- mid -->
<g id="node12" class="node">
<title>mid</title>
<polygon fill="#ffffff" stroke="#000000" points="598.91,-364.39 428.41,-364.39 428.41,-328.39 598.91,-328.39 598.91,-364.39"/>
<text xml:space="preserve" text-anchor="start" x="436.41" y="-343.84" font-family="CMU Serif" font-size="14.00">x</text>
<text xml:space="preserve" text-anchor="start" x="443.91" y="-343.84" font-family="CMU Serif" baseline-shift="sub" font-size="14.00">n</text>
<text xml:space="preserve" text-anchor="start" x="451.41" y="-343.84" font-family="CMU Serif" font-size="14.00"> = (a + b) / 2; f</text>
<text xml:space="preserve" text-anchor="start" x="540.66" y="-343.84" font-family="CMU Serif" baseline-shift="sub" font-size="14.00">x</text>
<text xml:space="preserve" text-anchor="start" x="546.66" y="-343.84" font-family="CMU Serif" font-size="14.00"> = f(x</text>
<text xml:space="preserve" text-anchor="start" x="578.91" y="-343.84" font-family="CMU Serif" baseline-shift="sub" font-size="14.00">n</text>
<text xml:space="preserve" text-anchor="start" x="586.41" y="-343.84" font-family="CMU Serif" font-size="14.00">)</text>
</g>
<!-- incr&#45;&gt;mid -->
<g id="edge14" class="edge">
<title>incr&#45;&gt;mid</title>
<path fill="none" stroke="#000000" d="M485.24,-422.09C490.27,-408.85 497.32,-390.34 503.13,-375.05"/>
<polygon fill="#000000" stroke="#000000" points="506.28,-376.62 506.56,-366.03 499.74,-374.13 506.28,-376.62"/>
</g>
<!-- chkFx -->
<g id="node13" class="node">
<title>chkFx</title>
<polygon fill="#fff7d1" stroke="#000000" points="513.66,-305.39 439.91,-277.89 513.66,-250.39 587.41,-277.89 513.66,-305.39"/>
<text xml:space="preserve" text-anchor="start" x="484.78" y="-275.34" font-family="CMU Serif" font-size="14.00">|f</text>
<text xml:space="preserve" text-anchor="start" x="496.78" y="-275.34" font-family="CMU Serif" baseline-shift="sub" font-size="14.00">x</text>
<text xml:space="preserve" text-anchor="start" x="502.78" y="-275.34" font-family="CMU Serif" font-size="14.00">| ≤ ε?</text>
</g>
<!-- mid&#45;&gt;chkFx -->
<g id="edge15" class="edge">
<title>mid&#45;&gt;chkFx</title>
<path fill="none" stroke="#000000" d="M513.66,-327.92C513.66,-324.53 513.66,-320.86 513.66,-317.1"/>
<polygon fill="#000000" stroke="#000000" points="517.16,-317.28 513.66,-307.28 510.16,-317.28 517.16,-317.28"/>
</g>
<!-- chkHalf -->
<g id="node14" class="node">
<title>chkHalf</title>
<polygon fill="#fff7d1" stroke="#000000" points="504.66,-211.14 428.66,-183.64 504.66,-156.14 580.66,-183.64 504.66,-211.14"/>
<text xml:space="preserve" text-anchor="start" x="474.66" y="-181.09" font-family="CMU Serif" font-size="14.00">f</text>
<text xml:space="preserve" text-anchor="start" x="479.16" y="-181.09" font-family="CMU Serif" baseline-shift="sub" font-size="14.00">a</text>
<text xml:space="preserve" text-anchor="start" x="485.91" y="-181.09" font-family="CMU Serif" font-size="14.00">·f</text>
<text xml:space="preserve" text-anchor="start" x="494.16" y="-181.09" font-family="CMU Serif" baseline-shift="sub" font-size="14.00">x</text>
<text xml:space="preserve" text-anchor="start" x="500.16" y="-181.09" font-family="CMU Serif" font-size="14.00"> ≤ 0?</text>
</g>
<!-- chkFx&#45;&gt;chkHalf -->
<g id="edge18" class="edge">
<title>chkFx&#45;&gt;chkHalf</title>
<path fill="none" stroke="#000000" d="M511.15,-251.19C510.26,-242.07 509.24,-231.62 508.28,-221.74"/>
<polygon fill="#000000" stroke="#000000" points="511.78,-221.64 507.33,-212.03 504.82,-222.32 511.78,-221.64"/>
<text xml:space="preserve" text-anchor="middle" x="519.71" y="-227.99" font-family="CMU Serif" font-size="12.00">нет</text>
</g>
<!-- setStarInner -->
<g id="node17" class="node">
<title>setStarInner</title>
<polygon fill="#ffffff" stroke="#000000" points="660.53,-201.64 598.78,-201.64 598.78,-165.64 660.53,-165.64 660.53,-201.64"/>
<text xml:space="preserve" text-anchor="start" x="606.78" y="-181.09" font-family="CMU Serif" font-size="14.00">x* = x</text>
<text xml:space="preserve" text-anchor="start" x="645.03" y="-181.09" font-family="CMU Serif" baseline-shift="sub" font-size="14.00">n</text>
</g>
<!-- chkFx&#45;&gt;setStarInner -->
<g id="edge16" class="edge">
<title>chkFx&#45;&gt;setStarInner</title>
<path fill="none" stroke="#000000" d="M536.57,-258.67C554.47,-244.43 579.51,-224.52 599.11,-208.93"/>
<polygon fill="#000000" stroke="#000000" points="601.13,-211.8 606.78,-202.83 596.77,-206.32 601.13,-211.8"/>
<text xml:space="preserve" text-anchor="middle" x="589.17" y="-227.99" font-family="CMU Serif" font-size="12.00">да</text>
</g>
<!-- setB -->
<g id="node15" class="node">
<title>setB</title>
<polygon fill="#ffffff" stroke="#000000" points="546.03,-107.39 445.28,-107.39 445.28,-71.39 546.03,-71.39 546.03,-107.39"/>
<text xml:space="preserve" text-anchor="start" x="453.28" y="-86.84" font-family="CMU Serif" font-size="14.00">b = x</text>
<text xml:space="preserve" text-anchor="start" x="484.78" y="-86.84" font-family="CMU Serif" baseline-shift="sub" font-size="14.00">n</text>
<text xml:space="preserve" text-anchor="start" x="492.28" y="-86.84" font-family="CMU Serif" font-size="14.00">; f</text>
<text xml:space="preserve" text-anchor="start" x="504.28" y="-86.84" font-family="CMU Serif" baseline-shift="sub" font-size="14.00">b</text>
<text xml:space="preserve" text-anchor="start" x="511.78" y="-86.84" font-family="CMU Serif" font-size="14.00"> = f</text>
<text xml:space="preserve" text-anchor="start" x="532.03" y="-86.84" font-family="CMU Serif" baseline-shift="sub" font-size="14.00">x</text>
</g>
<!-- chkHalf&#45;&gt;setB -->
<g id="edge19" class="edge">
<title>chkHalf&#45;&gt;setB</title>
<path fill="none" stroke="#000000" d="M502.15,-156.94C501,-145.19 499.64,-131.21 498.46,-119.11"/>
<polygon fill="#000000" stroke="#000000" points="501.95,-118.91 497.5,-109.29 494.99,-119.59 501.95,-118.91"/>
<text xml:space="preserve" text-anchor="middle" x="508.09" y="-133.74" font-family="CMU Serif" font-size="12.00">да</text>
</g>
<!-- setA -->
<g id="node16" class="node">
<title>setA</title>
<polygon fill="#ffffff" stroke="#000000" points="415.28,-107.39 316.03,-107.39 316.03,-71.39 415.28,-71.39 415.28,-107.39"/>
<text xml:space="preserve" text-anchor="start" x="324.03" y="-86.84" font-family="CMU Serif" font-size="14.00">a = x</text>
<text xml:space="preserve" text-anchor="start" x="354.78" y="-86.84" font-family="CMU Serif" baseline-shift="sub" font-size="14.00">n</text>
<text xml:space="preserve" text-anchor="start" x="362.28" y="-86.84" font-family="CMU Serif" font-size="14.00">; f</text>
<text xml:space="preserve" text-anchor="start" x="374.28" y="-86.84" font-family="CMU Serif" baseline-shift="sub" font-size="14.00">a</text>
<text xml:space="preserve" text-anchor="start" x="381.03" y="-86.84" font-family="CMU Serif" font-size="14.00"> = f</text>
<text xml:space="preserve" text-anchor="start" x="401.28" y="-86.84" font-family="CMU Serif" baseline-shift="sub" font-size="14.00">x</text>
</g>
<!-- chkHalf&#45;&gt;setA -->
<g id="edge20" class="edge">
<title>chkHalf&#45;&gt;setA</title>
<path fill="none" stroke="#000000" d="M478.51,-165.29C456.67,-150.79 425.32,-129.99 401.2,-113.98"/>
<polygon fill="#000000" stroke="#000000" points="403.21,-111.12 392.94,-108.5 399.34,-116.95 403.21,-111.12"/>
<text xml:space="preserve" text-anchor="middle" x="457.36" y="-133.74" font-family="CMU Serif" font-size="12.00">нет</text>
</g>
<!-- setB&#45;&gt;loopCond -->
<g id="edge21" class="edge">
<title>setB&#45;&gt;loopCond</title>
<path fill="none" stroke="#000000" d="M459.86,-107.82C439.75,-117.62 418.66,-127.89 418.66,-127.89 418.66,-127.89 400.66,-182.64 400.66,-182.64 400.66,-441.39 400.66,-441.39 400.66,-441.39 400.66,-441.39 406.27,-516.06 409.82,-563.22"/>
<polygon fill="#000000" stroke="#000000" points="406.32,-563.33 410.56,-573.04 413.3,-562.81 406.32,-563.33"/>
</g>
<!-- setA&#45;&gt;loopCond -->
<g id="edge22" class="edge">
<title>setA&#45;&gt;loopCond</title>
<path fill="none" stroke="#000000" d="M365.09,-107.74C364.22,-134.46 362.66,-182.64 362.66,-182.64 362.66,-441.39 362.66,-441.39 362.66,-441.39 362.66,-441.39 386.66,-563.39 386.66,-563.39 386.66,-563.39 388.32,-565.79 390.8,-569.37"/>
<polygon fill="#000000" stroke="#000000" points="387.79,-571.18 396.37,-577.4 393.55,-567.19 387.79,-571.18"/>
</g>
<!-- setStarInner&#45;&gt;output -->
<g id="edge17" class="edge">
<title>setStarInner&#45;&gt;output</title>
<path fill="none" stroke="#000000" d="M640.75,-165.29C647.74,-154.37 657.01,-139.87 665.54,-126.53"/>
<polygon fill="#000000" stroke="#000000" points="668.32,-128.69 670.76,-118.38 662.42,-124.91 668.32,-128.69"/>
</g>
<!-- finalX&#45;&gt;output -->
<g id="edge24" class="edge">
<title>finalX&#45;&gt;output</title>
<path fill="none" stroke="#000000" d="M617.23,-375C644.7,-352.84 688.66,-317.39 688.66,-317.39 688.66,-317.39 688.66,-317.39 688.66,-182.64 688.66,-182.64 688.66,-153.82 688.66,-128.4"/>
<polygon fill="#000000" stroke="#000000" points="692.16,-128.59 688.66,-118.59 685.16,-128.59 692.16,-128.59"/>
</g>
<!-- output&#45;&gt;stop -->
<g id="edge25" class="edge">
<title>output&#45;&gt;stop</title>
<path fill="none" stroke="#000000" d="M590.57,-68.99C570.13,-64.95 554.66,-61.89 554.66,-61.89 554.66,-61.89 381.79,-38.78 294.23,-27.07"/>
<polygon fill="#000000" stroke="#000000" points="294.85,-23.63 284.48,-25.77 293.93,-30.56 294.85,-23.63"/>
</g>
</g>
</svg>
