<?xml version="1.0" encoding="UTF-8" standalone="no"?>
<!DOCTYPE svg PUBLIC "-//W3C//DTD SVG 1.1//EN"
 "http://www.w3.org/Graphics/SVG/1.1/DTD/svg11.dtd">
<!-- Generated by graphviz version 14.1.5 (0)
 -->
<!-- Title: ImproperIntegral Pages: 1 -->
<svg width="1133pt" height="1519pt"
 viewBox="0.00 0.00 1133.00 1519.00" xmlns="http://www.w3.org/2000/svg" xmlns:xlink="http://www.w3.org/1999/xlink">
<g id="graph0" class="graph" transform="scale(1 1) rotate(0) translate(4 1515.28)">
<title>ImproperIntegral</title>
<polygon fill="white" stroke="none" points="-4,4 -4,-1515.28 1128.78,-1515.28 1128.78,4 -4,4"/>
<!-- start -->
<g id="node1" class="node">
<title>start</title>
<ellipse fill="#e6eefc" stroke="#000000" cx="880.78" cy="-1491.84" rx="46.85" ry="19.45"/>
<text xml:space="preserve" text-anchor="middle" x="880.78" y="-1488.29" font-family="CMU Serif" font-size="14.00">Начало</text>
</g>
<!-- input -->
<g id="node2" class="node">
<title>input</title>
<polygon fill="#f5f5f5" stroke="#000000" points="1062.99,-1449.39 773.13,-1449.39 698.57,-1355.39 988.42,-1355.39 1062.99,-1449.39"/>
<text xml:space="preserve" text-anchor="middle" x="880.78" y="-1408.59" font-family="CMU Serif" font-size="14.00">Ввод: метод, f(x), a, b, ε,</text>
<text xml:space="preserve" text-anchor="middle" x="880.78" y="-1389.09" font-family="CMU Serif" font-size="14.00">разрывы</text>
</g>
<!-- start&#45;&gt;input -->
<g id="edge1" class="edge">
<title>start&#45;&gt;input</title>
<path fill="none" stroke="#000000" d="M880.78,-1472.29C880.78,-1468.83 880.78,-1465.04 880.78,-1461.09"/>
<polygon fill="#000000" stroke="#000000" points="884.28,-1461.13 880.78,-1451.13 877.28,-1461.13 884.28,-1461.13"/>
</g>
<!-- plan -->
<g id="node3" class="node">
<title>plan</title>
<polygon fill="#ffffff" stroke="#000000" points="993.03,-1332.39 768.53,-1332.39 768.53,-1265.89 993.03,-1265.89 993.03,-1332.39"/>
<text xml:space="preserve" text-anchor="start" x="776.53" y="-1313.39" font-family="CMU Serif" font-size="14.00">prepareIntervals(a, b, разрывы)</text>
<text xml:space="preserve" text-anchor="start" x="804.28" y="-1293.89" font-family="CMU Serif" font-size="14.00">→ сегменты с флагами</text>
<text xml:space="preserve" text-anchor="start" x="798.28" y="-1274.39" font-family="CMU Serif" font-size="14.00">limit_at_from / limit_at_to</text>
</g>
<!-- input&#45;&gt;plan -->
<g id="edge2" class="edge">
<title>input&#45;&gt;plan</title>
<path fill="none" stroke="#000000" d="M880.78,-1354.91C880.78,-1351.29 880.78,-1347.63 880.78,-1344.03"/>
<polygon fill="#000000" stroke="#000000" points="884.28,-1344.27 880.78,-1334.27 877.28,-1344.27 884.28,-1344.27"/>
</g>
<!-- loopSeg -->
<g id="node4" class="node">
<title>loopSeg</title>
<polygon fill="#e6eefc" stroke="#000000" points="964.53,-1242.89 797.03,-1242.89 797.03,-1206.89 964.53,-1206.89 964.53,-1242.89"/>
<text xml:space="preserve" text-anchor="middle" x="880.78" y="-1221.34" font-family="CMU Serif" font-size="14.00">Для каждого сегмента</text>
</g>
<!-- plan&#45;&gt;loopSeg -->
<g id="edge3" class="edge">
<title>plan&#45;&gt;loopSeg</title>
<path fill="none" stroke="#000000" d="M880.78,-1265.4C880.78,-1261.83 880.78,-1258.21 880.78,-1254.69"/>
<polygon fill="#000000" stroke="#000000" points="884.28,-1254.83 880.78,-1244.83 877.28,-1254.83 884.28,-1254.83"/>
</g>
<!-- isSing -->
<g id="node5" class="node">
<title>isSing</title>
<polygon fill="#fff7d1" stroke="#000000" points="770.78,-1183.89 578.53,-1156.39 770.78,-1128.89 963.03,-1156.39 770.78,-1183.89"/>
<text xml:space="preserve" text-anchor="start" x="682.65" y="-1151.14" font-family="CMU Serif" font-size="14.00">limit_at_from ∨ limit_at_to?</text>
</g>
<!-- loopSeg&#45;&gt;isSing -->
<g id="edge4" class="edge">
<title>loopSeg&#45;&gt;isSing</title>
<path fill="none" stroke="#000000" d="M851.88,-1206.42C840.93,-1199.8 828.18,-1192.09 816.08,-1184.78"/>
<polygon fill="#000000" stroke="#000000" points="818.23,-1181.99 807.86,-1179.81 814.61,-1187.98 818.23,-1181.99"/>
</g>
<!-- plain -->
<g id="node6" class="node">
<title>plain</title>
<polygon fill="#ffffff" stroke="#000000" points="940.4,-1042.64 673.15,-1042.64 673.15,-1006.64 940.4,-1006.64 940.4,-1042.64"/>
<text xml:space="preserve" text-anchor="start" x="681.15" y="-1022.09" font-family="CMU Serif" font-size="14.00">I</text>
<text xml:space="preserve" text-anchor="start" x="685.65" y="-1022.09" font-family="CMU Serif" baseline-shift="sub" font-size="14.00">seg</text>
<text xml:space="preserve" text-anchor="start" x="705.15" y="-1022.09" font-family="CMU Serif" font-size="14.00"> = rungeSolve(метод, f, сегмент, ε)</text>
</g>
<!-- isSing&#45;&gt;plain -->
<g id="edge5" class="edge">
<title>isSing&#45;&gt;plain</title>
<path fill="none" stroke="#000000" d="M777.98,-1129.45C784.06,-1107.53 792.75,-1076.21 798.99,-1053.71"/>
<polygon fill="#000000" stroke="#000000" points="802.3,-1054.88 801.6,-1044.31 795.55,-1053.01 802.3,-1054.88"/>
<text xml:space="preserve" text-anchor="middle" x="795.46" y="-1106.49" font-family="CMU Serif" font-size="12.00">нет</text>
</g>
<!-- shrink -->
<g id="node8" class="node">
<title>shrink</title>
<polygon fill="#ffffff" stroke="#000000" points="540.28,-1089.64 377.28,-1089.64 377.28,-1053.64 540.28,-1053.64 540.28,-1089.64"/>
<text xml:space="preserve" text-anchor="start" x="431.78" y="-1073.34" font-family="CMU Serif" font-size="14.00">σ</text>
<text xml:space="preserve" text-anchor="start" x="440.03" y="-1073.34" font-family="CMU Serif" baseline-shift="sub" font-size="14.00">k</text>
<text xml:space="preserve" text-anchor="start" x="446.03" y="-1073.34" font-family="CMU Serif" font-size="14.00"> = d·r</text>
<text xml:space="preserve" text-anchor="start" x="479.78" y="-1073.34" font-family="CMU Serif" baseline-shift="super" font-size="14.00">k</text>
<text xml:space="preserve" text-anchor="start" x="385.28" y="-1059.34" font-family="CMU Serif" font-size="14.00">вычислить I(c ± σ</text>
<text xml:space="preserve" text-anchor="start" x="503.03" y="-1059.34" font-family="CMU Serif" baseline-shift="sub" font-size="14.00">k</text>
<text xml:space="preserve" text-anchor="start" x="509.03" y="-1059.34" font-family="CMU Serif" font-size="14.00">, ...)</text>
</g>
<!-- isSing&#45;&gt;shrink -->
<g id="edge9" class="edge">
<title>isSing&#45;&gt;shrink</title>
<path fill="none" stroke="#000000" d="M704.99,-1137.94C655.5,-1124.82 587.56,-1106.8 535.58,-1093.01"/>
<polygon fill="#000000" stroke="#000000" points="536.77,-1089.7 526.21,-1090.52 534.98,-1096.47 536.77,-1089.7"/>
<text xml:space="preserve" text-anchor="middle" x="631.26" y="-1106.49" font-family="CMU Serif" font-size="12.00">да</text>
</g>
<!-- chkPlain -->
<g id="node7" class="node">
<title>chkPlain</title>
<polygon fill="#fff7d1" stroke="#000000" points="868.78,-769.39 774.78,-741.89 868.78,-714.39 962.78,-741.89 868.78,-769.39"/>
<text xml:space="preserve" text-anchor="start" x="829.78" y="-736.64" font-family="CMU Serif" font-size="14.00">status = ok?</text>
</g>
<!-- plain&#45;&gt;chkPlain -->
<g id="edge6" class="edge">
<title>plain&#45;&gt;chkPlain</title>
<path fill="none" stroke="#000000" d="M812.85,-1006.38C824.7,-972.69 849.78,-901.39 849.78,-901.39 849.78,-901.39 858.72,-826.8 864.34,-779.96"/>
<polygon fill="#000000" stroke="#000000" points="867.79,-780.56 865.5,-770.21 860.84,-779.72 867.79,-780.56"/>
</g>
<!-- accumOk -->
<g id="node15" class="node">
<title>accumOk</title>
<polygon fill="#ffffff" stroke="#000000" points="915.78,-646.14 821.78,-646.14 821.78,-610.14 915.78,-610.14 915.78,-646.14"/>
<text xml:space="preserve" text-anchor="start" x="829.78" y="-625.59" font-family="CMU Serif" font-size="14.00">I</text>
<text xml:space="preserve" text-anchor="start" x="834.28" y="-625.59" font-family="CMU Serif" baseline-shift="sub" font-size="14.00">total</text>
<text xml:space="preserve" text-anchor="start" x="859.78" y="-625.59" font-family="CMU Serif" font-size="14.00"> += I</text>
<text xml:space="preserve" text-anchor="start" x="888.28" y="-625.59" font-family="CMU Serif" baseline-shift="sub" font-size="14.00">seg</text>
</g>
<!-- chkPlain&#45;&gt;accumOk -->
<g id="edge7" class="edge">
<title>chkPlain&#45;&gt;accumOk</title>
<path fill="none" stroke="#000000" d="M868.78,-714.12C868.78,-697.21 868.78,-675.35 868.78,-658.04"/>
<polygon fill="#000000" stroke="#000000" points="872.28,-658.15 868.78,-648.15 865.28,-658.15 872.28,-658.15"/>
<text xml:space="preserve" text-anchor="middle" x="875.9" y="-691.99" font-family="CMU Serif" font-size="12.00">да</text>
</g>
<!-- tryPV -->
<g id="node17" class="node">
<title>tryPV</title>
<polygon fill="#fef3c7" stroke="#000000" points="807.78,-548.64 89.78,-548.64 89.78,-512.64 807.78,-512.64 807.78,-548.64"/>
<text xml:space="preserve" text-anchor="start" x="97.78" y="-525.39" font-family="CMU Serif" font-size="14.00">Стандартная схема\nне сошлась ⇒ попробовать\nсимметричное зануление\n(главное значение Коши)</text>
</g>
<!-- chkPlain&#45;&gt;tryPV -->
<g id="edge8" class="edge">
<title>chkPlain&#45;&gt;tryPV</title>
<path fill="none" stroke="#000000" d="M834.77,-723.94C759.4,-686.4 578.37,-596.2 493.77,-554.06"/>
<polygon fill="#000000" stroke="#000000" points="495.57,-551.04 485.06,-549.71 492.45,-557.31 495.57,-551.04"/>
<text xml:space="preserve" text-anchor="middle" x="744" y="-625.37" font-family="CMU Serif" font-size="12.00">нет</text>
</g>
<!-- bigAbs -->
<g id="node10" class="node">
<title>bigAbs</title>
<polygon fill="#fff7d1" stroke="#000000" points="458.78,-995.64 365.53,-968.14 458.78,-940.64 552.03,-968.14 458.78,-995.64"/>
<text xml:space="preserve" text-anchor="start" x="420.15" y="-965.59" font-family="CMU Serif" font-size="14.00">|I</text>
<text xml:space="preserve" text-anchor="start" x="432.15" y="-965.59" font-family="CMU Serif" baseline-shift="sub" font-size="14.00">k</text>
<text xml:space="preserve" text-anchor="start" x="438.15" y="-965.59" font-family="CMU Serif" font-size="14.00">| &gt; 10</text>
<text xml:space="preserve" text-anchor="start" x="477.9" y="-965.59" font-family="CMU Serif" baseline-shift="super" font-size="14.00">15</text>
<text xml:space="preserve" text-anchor="start" x="491.4" y="-965.59" font-family="CMU Serif" font-size="14.00">?</text>
</g>
<!-- shrink&#45;&gt;bigAbs -->
<g id="edge10" class="edge">
<title>shrink&#45;&gt;bigAbs</title>
<path fill="none" stroke="#000000" d="M458.78,-1053.42C458.78,-1040.77 458.78,-1023.08 458.78,-1007.18"/>
<polygon fill="#000000" stroke="#000000" points="462.28,-1007.52 458.78,-997.52 455.28,-1007.52 462.28,-1007.52"/>
</g>
<!-- stable -->
<g id="node9" class="node">
<title>stable</title>
<polygon fill="#fff7d1" stroke="#000000" points="625.78,-901.39 411.03,-873.89 625.78,-846.39 840.53,-873.89 625.78,-901.39"/>
<text xml:space="preserve" text-anchor="start" x="526.4" y="-871.34" font-family="CMU Serif" font-size="14.00">|I</text>
<text xml:space="preserve" text-anchor="start" x="538.4" y="-871.34" font-family="CMU Serif" baseline-shift="sub" font-size="14.00">k</text>
<text xml:space="preserve" text-anchor="start" x="544.4" y="-871.34" font-family="CMU Serif" font-size="14.00"> − I</text>
<text xml:space="preserve" text-anchor="start" x="564.65" y="-871.34" font-family="CMU Serif" baseline-shift="sub" font-size="14.00">k−1</text>
<text xml:space="preserve" text-anchor="start" x="584.15" y="-871.34" font-family="CMU Serif" font-size="14.00">| &lt; ε\nдля 2 подряд?</text>
</g>
<!-- kmax -->
<g id="node11" class="node">
<title>kmax</title>
<polygon fill="#fff7d1" stroke="#000000" points="305.78,-769.39 225.28,-741.89 305.78,-714.39 386.28,-741.89 305.78,-769.39"/>
<text xml:space="preserve" text-anchor="start" x="273.53" y="-739.34" font-family="CMU Serif" font-size="14.00">k ≥ k</text>
<text xml:space="preserve" text-anchor="start" x="308.03" y="-739.34" font-family="CMU Serif" baseline-shift="sub" font-size="14.00">max</text>
<text xml:space="preserve" text-anchor="start" x="332.03" y="-739.34" font-family="CMU Serif" font-size="14.00">?</text>
</g>
<!-- stable&#45;&gt;kmax -->
<g id="edge16" class="edge">
<title>stable&#45;&gt;kmax</title>
<path fill="none" stroke="#000000" d="M610.24,-848.09C605.87,-841.11 602.28,-835.39 602.28,-835.39 602.28,-835.39 582.78,-780.39 582.78,-780.39 582.78,-780.39 469.78,-769.39 469.78,-769.39 469.78,-769.39 416.46,-760.78 370.63,-753.37"/>
<polygon fill="#000000" stroke="#000000" points="371.4,-749.95 360.97,-751.81 370.29,-756.86 371.4,-749.95"/>
<text xml:space="preserve" text-anchor="middle" x="612.03" y="-805.12" font-family="CMU Serif" font-size="12.00">нет</text>
</g>
<!-- segOk -->
<g id="node12" class="node">
<title>segOk</title>
<polygon fill="#dcfce7" stroke="#000000" points="756.45,-769.39 535.86,-769.39 479.11,-714.39 699.7,-714.39 756.45,-769.39"/>
<text xml:space="preserve" text-anchor="middle" x="617.78" y="-738.34" font-family="CMU Serif" font-size="14.00">Сегмент сошёлся</text>
</g>
<!-- stable&#45;&gt;segOk -->
<g id="edge14" class="edge">
<title>stable&#45;&gt;segOk</title>
<path fill="none" stroke="#000000" d="M625.78,-846.14C625.78,-825.11 625.78,-797.51 624.74,-781.06"/>
<polygon fill="#000000" stroke="#000000" points="628.24,-780.81 623.67,-771.25 621.28,-781.57 628.24,-780.81"/>
<text xml:space="preserve" text-anchor="middle" x="632.9" y="-805.12" font-family="CMU Serif" font-size="12.00">да</text>
</g>
<!-- bigAbs&#45;&gt;stable -->
<g id="edge13" class="edge">
<title>bigAbs&#45;&gt;stable</title>
<path fill="none" stroke="#000000" d="M490.58,-949.57C514.77,-936.21 548.51,-917.58 576.23,-902.26"/>
<polygon fill="#000000" stroke="#000000" points="577.75,-905.42 584.81,-897.52 574.37,-899.29 577.75,-905.42"/>
<text xml:space="preserve" text-anchor="middle" x="566.99" y="-918.24" font-family="CMU Serif" font-size="12.00">нет</text>
</g>
<!-- segDiv -->
<g id="node13" class="node">
<title>segDiv</title>
<polygon fill="#fde2e2" stroke="#000000" points="581.33,-835.39 332.29,-835.39 268.23,-780.39 517.27,-780.39 581.33,-835.39"/>
<text xml:space="preserve" text-anchor="middle" x="424.78" y="-804.34" font-family="CMU Serif" font-size="14.00">Сегмент расходится</text>
</g>
<!-- bigAbs&#45;&gt;segDiv -->
<g id="edge11" class="edge">
<title>bigAbs&#45;&gt;segDiv</title>
<path fill="none" stroke="#000000" d="M440.43,-945.98C423.77,-926.75 401.78,-901.39 401.78,-901.39 401.78,-901.39 401.78,-846.39 401.78,-846.39 401.78,-846.39 402,-846.02 402.41,-845.36"/>
<polygon fill="#000000" stroke="#000000" points="405.27,-847.39 407.52,-837.04 399.31,-843.73 405.27,-847.39"/>
<text xml:space="preserve" text-anchor="middle" x="432.54" y="-918.24" font-family="CMU Serif" font-size="12.00">да</text>
</g>
<!-- kmax&#45;&gt;shrink -->
<g id="edge19" class="edge">
<title>kmax&#45;&gt;shrink</title>
<path fill="none" stroke="#000000" d="M285.37,-762.52C275.93,-771.59 266.78,-780.39 266.78,-780.39 266.78,-780.39 266.78,-835.39 266.78,-835.39 266.78,-835.39 356.78,-995.64 356.78,-995.64 356.78,-995.64 396.37,-1024.75 426.23,-1046.7"/>
<polygon fill="#000000" stroke="#000000" points="423.77,-1049.25 433.9,-1052.35 427.92,-1043.61 423.77,-1049.25"/>
<text xml:space="preserve" text-anchor="middle" x="328.77" y="-918.24" font-family="CMU Serif" font-size="12.00">нет</text>
</g>
<!-- segInd -->
<g id="node14" class="node">
<title>segInd</title>
<polygon fill="#fde2e2" stroke="#000000" points="421.12,-675.14 237.64,-675.14 190.44,-581.14 373.92,-581.14 421.12,-675.14"/>
<text xml:space="preserve" text-anchor="middle" x="305.78" y="-634.34" font-family="CMU Serif" font-size="14.00">Сегмент:</text>
<text xml:space="preserve" text-anchor="middle" x="305.78" y="-614.84" font-family="CMU Serif" font-size="14.00">indeterminate</text>
</g>
<!-- kmax&#45;&gt;segInd -->
<g id="edge17" class="edge">
<title>kmax&#45;&gt;segInd</title>
<path fill="none" stroke="#000000" d="M305.78,-714.12C305.78,-705.77 305.78,-696.21 305.78,-686.59"/>
<polygon fill="#000000" stroke="#000000" points="309.28,-686.85 305.78,-676.85 302.28,-686.85 309.28,-686.85"/>
<text xml:space="preserve" text-anchor="middle" x="312.9" y="-691.99" font-family="CMU Serif" font-size="12.00">да</text>
</g>
<!-- segOk&#45;&gt;accumOk -->
<g id="edge15" class="edge">
<title>segOk&#45;&gt;accumOk</title>
<path fill="none" stroke="#000000" d="M680.45,-713.96C722.71,-695.8 770.78,-675.14 770.78,-675.14 770.78,-675.14 796.42,-663.1 821.48,-651.34"/>
<polygon fill="#000000" stroke="#000000" points="822.79,-654.59 830.36,-647.17 819.82,-648.26 822.79,-654.59"/>
</g>
<!-- segDiv&#45;&gt;tryPV -->
<g id="edge12" class="edge">
<title>segDiv&#45;&gt;tryPV</title>
<path fill="none" stroke="#000000" d="M427.12,-780C431.67,-727.92 441.62,-613.73 446.28,-560.29"/>
<polygon fill="#000000" stroke="#000000" points="449.76,-560.73 447.14,-550.47 442.78,-560.13 449.76,-560.73"/>
</g>
<!-- segInd&#45;&gt;tryPV -->
<g id="edge18" class="edge">
<title>segInd&#45;&gt;tryPV</title>
<path fill="none" stroke="#000000" d="M374.35,-581.35C387.79,-572.37 401.37,-563.31 413.18,-555.42"/>
<polygon fill="#000000" stroke="#000000" points="415.01,-558.4 421.39,-549.94 411.13,-552.58 415.01,-558.4"/>
</g>
<!-- more -->
<g id="node16" class="node">
<title>more</title>
<polygon fill="#fff7d1" stroke="#000000" points="985.78,-558.14 846.78,-530.64 985.78,-503.14 1124.78,-530.64 985.78,-558.14"/>
<text xml:space="preserve" text-anchor="middle" x="985.78" y="-527.09" font-family="CMU Serif" font-size="14.00">Есть ещё сегмент?</text>
</g>
<!-- accumOk&#45;&gt;more -->
<g id="edge20" class="edge">
<title>accumOk&#45;&gt;more</title>
<path fill="none" stroke="#000000" d="M889.97,-609.85C906.87,-596.05 930.91,-576.43 950.68,-560.29"/>
<polygon fill="#000000" stroke="#000000" points="952.71,-563.15 958.25,-554.12 948.29,-557.73 952.71,-563.15"/>
</g>
<!-- more&#45;&gt;loopSeg -->
<g id="edge21" class="edge">
<title>more&#45;&gt;loopSeg</title>
<path fill="none" stroke="#000000" d="M987.17,-558.24C988.65,-586.5 990.78,-627.14 990.78,-627.14 990.78,-1157.39 990.78,-1157.39 990.78,-1157.39 990.78,-1157.39 971.78,-1183.89 971.78,-1183.89 971.78,-1183.89 951.97,-1192.6 930.83,-1201.89"/>
<polygon fill="#000000" stroke="#000000" points="929.56,-1198.63 921.81,-1205.85 932.38,-1205.03 929.56,-1198.63"/>
<text xml:space="preserve" text-anchor="middle" x="997.9" y="-918.24" font-family="CMU Serif" font-size="12.00">да</text>
</g>
<!-- done -->
<g id="node22" class="node">
<title>done</title>
<polygon fill="#f5f5f5" stroke="#000000" points="777.86,-155.89 370.5,-155.89 265.7,-61.89 673.06,-61.89 777.86,-155.89"/>
<text xml:space="preserve" text-anchor="start" x="406.28" y="-113.39" font-family="CMU Serif" font-size="14.00">Статус: ok или\nok_principal_value</text>
<text xml:space="preserve" text-anchor="start" x="477.15" y="-93.89" font-family="CMU Serif" font-size="14.00">Вывод: I, n, R</text>
</g>
<!-- more&#45;&gt;done -->
<g id="edge22" class="edge">
<title>more&#45;&gt;done</title>
<path fill="none" stroke="#000000" d="M985.78,-502.63C985.78,-480.79 985.78,-453.64 985.78,-453.64 985.78,-453.64 985.78,-453.64 985.78,-224.89 985.78,-224.89 966.78,-178.89 966.78,-178.89 966.78,-178.89 878.93,-165.27 781.3,-150.13"/>
<polygon fill="#000000" stroke="#000000" points="781.89,-146.68 771.47,-148.61 780.82,-153.6 781.89,-146.68"/>
<text xml:space="preserve" text-anchor="middle" x="995.53" y="-365.12" font-family="CMU Serif" font-size="12.00">нет</text>
</g>
<!-- adj -->
<g id="node18" class="node">
<title>adj</title>
<polygon fill="#fff7d1" stroke="#000000" points="448.78,-480.14 101.28,-452.64 448.78,-425.14 796.28,-452.64 448.78,-480.14"/>
<text xml:space="preserve" text-anchor="start" x="283.03" y="-447.39" font-family="CMU Serif" font-size="14.00">Сегменты с общим c,\nlimit_at_to = limit_at_from?</text>
</g>
<!-- tryPV&#45;&gt;adj -->
<g id="edge23" class="edge">
<title>tryPV&#45;&gt;adj</title>
<path fill="none" stroke="#000000" d="M448.78,-512.4C448.78,-506.19 448.78,-498.91 448.78,-491.64"/>
<polygon fill="#000000" stroke="#000000" points="452.28,-491.88 448.78,-481.88 445.28,-491.88 452.28,-491.88"/>
</g>
<!-- symm -->
<g id="node19" class="node">
<title>symm</title>
<polygon fill="#ffffff" stroke="#000000" points="648.9,-385.89 336.65,-385.89 336.65,-349.89 648.9,-349.89 648.9,-385.89"/>
<text xml:space="preserve" text-anchor="start" x="422.65" y="-369.59" font-family="CMU Serif" font-size="14.00">d = min(c − a</text>
<text xml:space="preserve" text-anchor="start" x="506.65" y="-369.59" font-family="CMU Serif" baseline-shift="sub" font-size="14.00">L</text>
<text xml:space="preserve" text-anchor="start" x="512.65" y="-369.59" font-family="CMU Serif" font-size="14.00">, b</text>
<text xml:space="preserve" text-anchor="start" x="528.4" y="-369.59" font-family="CMU Serif" baseline-shift="sub" font-size="14.00">R</text>
<text xml:space="preserve" text-anchor="start" x="535.9" y="-369.59" font-family="CMU Serif" font-size="14.00"> − c)</text>
<text xml:space="preserve" text-anchor="start" x="344.65" y="-355.59" font-family="CMU Serif" font-size="14.00">проверка антисимметрии f\nна [c − d, c + d]</text>
</g>
<!-- adj&#45;&gt;symm -->
<g id="edge24" class="edge">
<title>adj&#45;&gt;symm</title>
<path fill="none" stroke="#000000" d="M462.46,-425.91C467.45,-416.54 473.1,-405.9 478.16,-396.38"/>
<polygon fill="#000000" stroke="#000000" points="481.25,-398.03 482.85,-387.56 475.07,-394.75 481.25,-398.03"/>
<text xml:space="preserve" text-anchor="middle" x="484.42" y="-402.74" font-family="CMU Serif" font-size="12.00">да</text>
</g>
<!-- diverges -->
<g id="node21" class="node">
<title>diverges</title>
<polygon fill="#fde2e2" stroke="#000000" points="255.56,-338.89 52.29,-338.89 0,-283.89 203.27,-283.89 255.56,-338.89"/>
<text xml:space="preserve" text-anchor="middle" x="127.78" y="-307.84" font-family="CMU Serif" font-size="14.00">Статус: diverges</text>
</g>
<!-- adj&#45;&gt;diverges -->
<g id="edge27" class="edge">
<title>adj&#45;&gt;diverges</title>
<path fill="none" stroke="#000000" d="M396.49,-428.96C343.2,-405.84 260.11,-369.79 200.43,-343.91"/>
<polygon fill="#000000" stroke="#000000" points="201.9,-340.73 191.34,-339.96 199.12,-347.15 201.9,-340.73"/>
<text xml:space="preserve" text-anchor="middle" x="371.2" y="-402.74" font-family="CMU Serif" font-size="12.00">нет</text>
</g>
<!-- pvOk -->
<g id="node20" class="node">
<title>pvOk</title>
<polygon fill="#fef3c7" stroke="#000000" points="958.25,-272.89 263.92,-272.89 85.31,-178.89 779.64,-178.89 958.25,-272.89"/>
<text xml:space="preserve" text-anchor="start" x="431.03" y="-230.39" font-family="CMU Serif" font-size="14.00">Статус:\nok_principal_value</text>
<text xml:space="preserve" text-anchor="start" x="319.28" y="-210.89" font-family="CMU Serif" font-size="14.00">занулить подотрезок\n[c − d, c + d],\nинтегрировать хвосты</text>
</g>
<!-- symm&#45;&gt;pvOk -->
<g id="edge25" class="edge">
<title>symm&#45;&gt;pvOk</title>
<path fill="none" stroke="#000000" d="M496.39,-349.44C499.79,-333.05 505.06,-307.61 509.92,-284.14"/>
<polygon fill="#000000" stroke="#000000" points="513.28,-285.17 511.88,-274.67 506.43,-283.75 513.28,-285.17"/>
</g>
<!-- pvOk&#45;&gt;done -->
<g id="edge26" class="edge">
<title>pvOk&#45;&gt;done</title>
<path fill="none" stroke="#000000" d="M521.78,-178.45C521.78,-174.88 521.78,-171.26 521.78,-167.64"/>
<polygon fill="#000000" stroke="#000000" points="525.28,-167.65 521.78,-157.65 518.28,-167.65 525.28,-167.65"/>
</g>
<!-- stop -->
<g id="node23" class="node">
<title>stop</title>
<ellipse fill="#e6eefc" stroke="#000000" cx="69.78" cy="-19.45" rx="39.95" ry="19.45"/>
<text xml:space="preserve" text-anchor="middle" x="69.78" y="-15.9" font-family="CMU Serif" font-size="14.00">Конец</text>
</g>
<!-- diverges&#45;&gt;stop -->
<g id="edge28" class="edge">
<title>diverges&#45;&gt;stop</title>
<path fill="none" stroke="#000000" d="M91.26,-283.54C83.08,-277.53 76.78,-272.89 76.78,-272.89 76.78,-272.89 72.46,-117.28 70.61,-50.41"/>
<polygon fill="#000000" stroke="#000000" points="74.11,-50.42 70.34,-40.52 67.12,-50.61 74.11,-50.42"/>
</g>
<!-- done&#45;&gt;stop -->
<g id="edge29" class="edge">
<title>done&#45;&gt;stop</title>
<path fill="none" stroke="#000000" d="M281.55,-61.42C218.99,-49.31 157.88,-37.49 117.52,-29.68"/>
<polygon fill="#000000" stroke="#000000" points="118.41,-26.29 107.93,-27.83 117.08,-33.16 118.41,-26.29"/>
</g>
</g>
</svg>
