<?xml version="1.0" encoding="UTF-8" standalone="no"?>
<!DOCTYPE svg PUBLIC "-//W3C//DTD SVG 1.1//EN"
 "http://www.w3.org/Graphics/SVG/1.1/DTD/svg11.dtd">
<!-- Generated by graphviz version 14.1.5 (0)
 -->
<!-- Title: ImproperIntegral Pages: 1 -->
<svg width="1169pt" height="2496pt"
 viewBox="0.00 0.00 1169.00 2496.00" xmlns="http://www.w3.org/2000/svg" xmlns:xlink="http://www.w3.org/1999/xlink">
<g id="graph0" class="graph" transform="scale(1 1) rotate(0) translate(4 2492.03)">
<title>ImproperIntegral</title>
<polygon fill="white" stroke="none" points="-4,4 -4,-2492.03 1165.18,-2492.03 1165.18,4 -4,4"/>
<!-- start -->
<g id="node1" class="node">
<title>start</title>
<ellipse fill="#e6eefc" stroke="#000000" cx="360.53" cy="-2468.59" rx="148.14" ry="19.45"/>
<text xml:space="preserve" text-anchor="middle" x="360.53" y="-2465.04" font-family="CMU Serif" font-size="14.00">Начало: Integrator::integrate</text>
</g>
<!-- input -->
<g id="node2" class="node">
<title>input</title>
<polygon fill="#f5f5f5" stroke="#000000" points="623.61,-2426.14 205.11,-2426.14 97.46,-2354.14 515.95,-2354.14 623.61,-2426.14"/>
<text xml:space="preserve" text-anchor="start" x="280.28" y="-2391.84" font-family="CMU Serif" font-size="14.00">Ввод: f(x), a, b, разрывы</text>
<text xml:space="preserve" text-anchor="start" x="241.66" y="-2377.84" font-family="CMU Serif" font-size="14.00">(EPS, k</text>
<text xml:space="preserve" text-anchor="start" x="284.41" y="-2377.84" font-family="CMU Serif" baseline-shift="sub" font-size="14.00">InitialN</text>
<text xml:space="preserve" text-anchor="start" x="324.91" y="-2377.84" font-family="CMU Serif" font-size="14.00">, k</text>
<text xml:space="preserve" text-anchor="start" x="339.91" y="-2377.84" font-family="CMU Serif" baseline-shift="sub" font-size="14.00">MaxN</text>
<text xml:space="preserve" text-anchor="start" x="372.16" y="-2377.84" font-family="CMU Serif" font-size="14.00"> — поля класса)</text>
</g>
<!-- start&#45;&gt;input -->
<g id="edge1" class="edge">
<title>start&#45;&gt;input</title>
<path fill="none" stroke="#000000" d="M360.53,-2448.69C360.53,-2445.33 360.53,-2441.7 360.53,-2437.95"/>
<polygon fill="#000000" stroke="#000000" points="364.03,-2438.03 360.53,-2428.03 357.03,-2438.03 364.03,-2438.03"/>
</g>
<!-- chkAB -->
<g id="node3" class="node">
<title>chkAB</title>
<polygon fill="#fff7d1" stroke="#000000" points="360.53,-2331.14 307.03,-2303.64 360.53,-2276.14 414.03,-2303.64 360.53,-2331.14"/>
<text xml:space="preserve" text-anchor="start" x="341.78" y="-2298.39" font-family="CMU Serif" font-size="14.00">a &lt; b?</text>
</g>
<!-- input&#45;&gt;chkAB -->
<g id="edge2" class="edge">
<title>input&#45;&gt;chkAB</title>
<path fill="none" stroke="#000000" d="M360.53,-2353.79C360.53,-2350.2 360.53,-2346.54 360.53,-2342.92"/>
<polygon fill="#000000" stroke="#000000" points="364.03,-2343.13 360.53,-2333.13 357.03,-2343.13 364.03,-2343.13"/>
</g>
<!-- errAB -->
<g id="node4" class="node">
<title>errAB</title>
<polygon fill="#fde2e2" stroke="#000000" points="439.06,-2170.89 89.84,-2170.89 0,-1998.89 349.23,-1998.89 439.06,-2170.89"/>
<text xml:space="preserve" text-anchor="start" x="174.53" y="-2108.89" font-family="CMU Serif" font-size="14.00">status = error</text>
<text xml:space="preserve" text-anchor="start" x="179.78" y="-2089.39" font-family="CMU Serif" font-size="14.00">value = NaN</text>
<text xml:space="preserve" text-anchor="start" x="121.66" y="-2069.89" font-family="CMU Serif" font-size="14.00">«Левый предел должен быть</text>
<text xml:space="preserve" text-anchor="start" x="159.53" y="-2050.39" font-family="CMU Serif" font-size="14.00">меньше правого»</text>
</g>
<!-- chkAB&#45;&gt;errAB -->
<g id="edge3" class="edge">
<title>chkAB&#45;&gt;errAB</title>
<path fill="none" stroke="#000000" d="M347.52,-2282.64C332.31,-2259.26 306.06,-2218.9 281.27,-2180.79"/>
<polygon fill="#000000" stroke="#000000" points="284.22,-2178.91 275.83,-2172.44 278.35,-2182.73 284.22,-2178.91"/>
<text xml:space="preserve" text-anchor="middle" x="344.76" y="-2253.74" font-family="CMU Serif" font-size="12.00">нет</text>
</g>
<!-- chkEps -->
<g id="node5" class="node">
<title>chkEps</title>
<polygon fill="#fff7d1" stroke="#000000" points="558.53,-2236.89 391.03,-2209.39 558.53,-2181.89 726.03,-2209.39 558.53,-2236.89"/>
<text xml:space="preserve" text-anchor="start" x="482.78" y="-2204.14" font-family="CMU Serif" font-size="14.00">EPS &gt; 0 ∧ isFinite(EPS)?</text>
</g>
<!-- chkAB&#45;&gt;chkEps -->
<g id="edge5" class="edge">
<title>chkAB&#45;&gt;chkEps</title>
<path fill="none" stroke="#000000" d="M388.06,-2289.81C418.37,-2275.7 467.8,-2252.66 505.65,-2235.03"/>
<polygon fill="#000000" stroke="#000000" points="507.04,-2238.24 514.62,-2230.85 504.08,-2231.9 507.04,-2238.24"/>
<text xml:space="preserve" text-anchor="middle" x="484.39" y="-2253.74" font-family="CMU Serif" font-size="12.00">да</text>
</g>
<!-- stop -->
<g id="node25" class="node">
<title>stop</title>
<ellipse fill="#e6eefc" stroke="#000000" cx="1030.53" cy="-19.45" rx="39.95" ry="19.45"/>
<text xml:space="preserve" text-anchor="middle" x="1030.53" y="-15.9" font-family="CMU Serif" font-size="14.00">Конец</text>
</g>
<!-- errAB&#45;&gt;stop -->
<g id="edge4" class="edge">
<title>errAB&#45;&gt;stop</title>
<path fill="none" stroke="#000000" d="M192.77,-1998.62C171.23,-1929.98 144.53,-1844.89 144.53,-1844.89 144.53,-1844.89 144.53,-1844.89 144.53,-127.39 144.53,-127.39 163.53,-61.89 163.53,-61.89 163.53,-61.89 793.37,-31.78 979.4,-22.89"/>
<polygon fill="#000000" stroke="#000000" points="979.41,-26.39 989.23,-22.42 979.07,-19.4 979.41,-26.39"/>
</g>
<!-- errEps -->
<g id="node6" class="node">
<title>errEps</title>
<polygon fill="#fde2e2" stroke="#000000" points="1161.18,-1910.39 829.27,-1910.39 743.89,-1777.39 1075.8,-1777.39 1161.18,-1910.39"/>
<text xml:space="preserve" text-anchor="start" x="907.53" y="-1858.14" font-family="CMU Serif" font-size="14.00">status = error</text>
<text xml:space="preserve" text-anchor="start" x="912.78" y="-1838.64" font-family="CMU Serif" font-size="14.00">value = NaN</text>
<text xml:space="preserve" text-anchor="start" x="859.91" y="-1819.14" font-family="CMU Serif" font-size="14.00">«Некорректная точность ε»</text>
</g>
<!-- chkEps&#45;&gt;errEps -->
<g id="edge6" class="edge">
<title>chkEps&#45;&gt;errEps</title>
<path fill="none" stroke="#000000" d="M583.18,-2185.65C640.03,-2133.2 782.4,-2001.86 872.85,-1918.4"/>
<polygon fill="#000000" stroke="#000000" points="875.08,-1921.11 880.06,-1911.76 870.33,-1915.97 875.08,-1921.11"/>
<text xml:space="preserve" text-anchor="middle" x="790.55" y="-2082.12" font-family="CMU Serif" font-size="12.00">нет</text>
</g>
<!-- prep -->
<g id="node7" class="node">
<title>prep</title>
<polygon fill="#e6eefc" stroke="#000000" points="659.53,-1987.89 457.53,-1987.89 457.53,-1921.39 659.53,-1921.39 659.53,-1987.89"/>
<text xml:space="preserve" text-anchor="start" x="479.78" y="-1968.89" font-family="CMU Serif" font-size="14.00">plan = prepareIntervals(</text>
<text xml:space="preserve" text-anchor="start" x="510.91" y="-1949.39" font-family="CMU Serif" font-size="14.00">a, b, разрывы)</text>
<text xml:space="preserve" text-anchor="start" x="465.53" y="-1929.89" font-family="CMU Serif" font-size="14.00">(см. отдельную блок&#45;схему)</text>
</g>
<!-- chkEps&#45;&gt;prep -->
<g id="edge8" class="edge">
<title>chkEps&#45;&gt;prep</title>
<path fill="none" stroke="#000000" d="M558.53,-2181.82C558.53,-2138.46 558.53,-2052.06 558.53,-1999.49"/>
<polygon fill="#000000" stroke="#000000" points="562.03,-1999.7 558.53,-1989.7 555.03,-1999.7 562.03,-1999.7"/>
<text xml:space="preserve" text-anchor="middle" x="565.66" y="-2082.12" font-family="CMU Serif" font-size="12.00">да</text>
</g>
<!-- errEps&#45;&gt;stop -->
<g id="edge7" class="edge">
<title>errEps&#45;&gt;stop</title>
<path fill="none" stroke="#000000" d="M1034.79,-1776.91C1086.91,-1735.11 1144.53,-1688.89 1144.53,-1688.89 1144.53,-1688.89 1144.53,-1688.89 1144.53,-127.39 1144.53,-127.39 1120.53,-61.89 1120.53,-61.89 1120.53,-61.89 1093.62,-49.5 1069.22,-38.26"/>
<polygon fill="#000000" stroke="#000000" points="1070.93,-35.2 1060.38,-34.19 1068,-41.55 1070.93,-35.2"/>
</g>
<!-- improperFlag -->
<g id="node8" class="node">
<title>improperFlag</title>
<polygon fill="#ffffff" stroke="#000000" points="677.53,-1766.39 439.53,-1766.39 439.53,-1699.89 677.53,-1699.89 677.53,-1766.39"/>
<text xml:space="preserve" text-anchor="start" x="447.53" y="-1747.39" font-family="CMU Serif" font-size="14.00">improper = (|plan.segments| &gt; 1)</text>
<text xml:space="preserve" text-anchor="start" x="449.78" y="-1727.89" font-family="CMU Serif" font-size="14.00">∨ plan.segments[0].limit_at_from</text>
<text xml:space="preserve" text-anchor="start" x="458.41" y="-1708.39" font-family="CMU Serif" font-size="14.00">∨ plan.segments[0].limit_at_to</text>
</g>
<!-- prep&#45;&gt;improperFlag -->
<g id="edge9" class="edge">
<title>prep&#45;&gt;improperFlag</title>
<path fill="none" stroke="#000000" d="M558.53,-1921.25C558.53,-1883.32 558.53,-1820.3 558.53,-1778"/>
<polygon fill="#000000" stroke="#000000" points="562.03,-1778.18 558.53,-1768.18 555.03,-1778.18 562.03,-1778.18"/>
</g>
<!-- initLoop -->
<g id="node9" class="node">
<title>initLoop</title>
<polygon fill="#ffffff" stroke="#000000" points="629.53,-1676.89 487.53,-1676.89 487.53,-1590.89 629.53,-1590.89 629.53,-1676.89"/>
<text xml:space="preserve" text-anchor="start" x="495.53" y="-1657.89" font-family="CMU Serif" font-size="14.00">total = 0; totalN = 0</text>
<text xml:space="preserve" text-anchor="start" x="509.78" y="-1638.39" font-family="CMU Serif" font-size="14.00">totalRunge = 0</text>
<text xml:space="preserve" text-anchor="start" x="506.03" y="-1618.89" font-family="CMU Serif" font-size="14.00">failedStatus = &quot;&quot;</text>
<text xml:space="preserve" text-anchor="start" x="542.78" y="-1599.39" font-family="CMU Serif" font-size="14.00">k = 0</text>
</g>
<!-- improperFlag&#45;&gt;initLoop -->
<g id="edge10" class="edge">
<title>improperFlag&#45;&gt;initLoop</title>
<path fill="none" stroke="#000000" d="M558.53,-1699.49C558.53,-1695.9 558.53,-1692.18 558.53,-1688.43"/>
<polygon fill="#000000" stroke="#000000" points="562.03,-1688.64 558.53,-1678.64 555.03,-1688.64 562.03,-1688.64"/>
</g>
<!-- chkSeg -->
<g id="node10" class="node">
<title>chkSeg</title>
<polygon fill="#fff7d1" stroke="#000000" points="558.53,-1567.89 400.78,-1540.39 558.53,-1512.89 716.28,-1540.39 558.53,-1567.89"/>
<text xml:space="preserve" text-anchor="start" x="487.66" y="-1535.14" font-family="CMU Serif" font-size="14.00">k &lt; |plan.segments|?</text>
</g>
<!-- initLoop&#45;&gt;chkSeg -->
<g id="edge11" class="edge">
<title>initLoop&#45;&gt;chkSeg</title>
<path fill="none" stroke="#000000" d="M558.53,-1590.62C558.53,-1586.95 558.53,-1583.24 558.53,-1579.6"/>
<polygon fill="#000000" stroke="#000000" points="562.03,-1579.83 558.53,-1569.83 555.03,-1579.83 562.03,-1579.83"/>
</g>
<!-- callSeg -->
<g id="node11" class="node">
<title>callSeg</title>
<polygon fill="#e6eefc" stroke="#000000" points="824.16,-1473.64 598.91,-1473.64 598.91,-1407.14 824.16,-1407.14 824.16,-1473.64"/>
<text xml:space="preserve" text-anchor="start" x="606.91" y="-1454.64" font-family="CMU Serif" font-size="14.00">sr = computeSegmentStandard(</text>
<text xml:space="preserve" text-anchor="start" x="611.03" y="-1435.14" font-family="CMU Serif" font-size="14.00">*this, f, plan.segments[k], EPS)</text>
<text xml:space="preserve" text-anchor="start" x="618.53" y="-1415.64" font-family="CMU Serif" font-size="14.00">(см. отдельную блок&#45;схему)</text>
</g>
<!-- chkSeg&#45;&gt;callSeg -->
<g id="edge13" class="edge">
<title>chkSeg&#45;&gt;callSeg</title>
<path fill="none" stroke="#000000" d="M591.35,-1518.37C608.79,-1507.2 630.77,-1493.12 651.16,-1480.06"/>
<polygon fill="#000000" stroke="#000000" points="652.89,-1483.11 659.43,-1474.77 649.12,-1477.21 652.89,-1483.11"/>
<text xml:space="preserve" text-anchor="middle" x="646.75" y="-1490.49" font-family="CMU Serif" font-size="12.00">да</text>
</g>
<!-- chkAllOk -->
<g id="node17" class="node">
<title>chkAllOk</title>
<polygon fill="#fff7d1" stroke="#000000" points="723.53,-931.89 588.28,-904.39 723.53,-876.89 858.78,-904.39 723.53,-931.89"/>
<text xml:space="preserve" text-anchor="start" x="663.91" y="-899.14" font-family="CMU Serif" font-size="14.00">failedStatus == &quot;&quot;?</text>
</g>
<!-- chkSeg&#45;&gt;chkAllOk -->
<g id="edge12" class="edge">
<title>chkSeg&#45;&gt;chkAllOk</title>
<path fill="none" stroke="#000000" d="M540.38,-1515.67C518.18,-1486.66 483.53,-1441.39 483.53,-1441.39 483.53,-1441.39 483.53,-1441.39 483.53,-1016.39 483.53,-1016.39 502.53,-954.89 502.53,-954.89 502.53,-954.89 585.32,-936.35 649.56,-921.96"/>
<polygon fill="#000000" stroke="#000000" points="650.03,-925.44 659.02,-919.84 648.5,-918.61 650.03,-925.44"/>
<text xml:space="preserve" text-anchor="middle" x="493.28" y="-1306.74" font-family="CMU Serif" font-size="12.00">нет</text>
</g>
<!-- chkMax -->
<g id="node12" class="node">
<title>chkMax</title>
<polygon fill="#fff7d1" stroke="#000000" points="747.53,-1384.14 586.78,-1356.64 747.53,-1329.14 908.28,-1356.64 747.53,-1384.14"/>
<text xml:space="preserve" text-anchor="start" x="675.16" y="-1351.39" font-family="CMU Serif" font-size="14.00">sr.status = &quot;max_iter&quot;?</text>
</g>
<!-- callSeg&#45;&gt;chkMax -->
<g id="edge14" class="edge">
<title>callSeg&#45;&gt;chkMax</title>
<path fill="none" stroke="#000000" d="M725.76,-1407.08C727.77,-1402.51 729.85,-1397.79 731.89,-1393.17"/>
<polygon fill="#000000" stroke="#000000" points="735.08,-1394.61 735.91,-1384.04 728.67,-1391.78 735.08,-1394.61"/>
</g>
<!-- retMax -->
<g id="node13" class="node">
<title>retMax</title>
<polygon fill="#fde2e2" stroke="#000000" points="1129.74,-1223.89 828.75,-1223.89 751.33,-1090.89 1052.31,-1090.89 1129.74,-1223.89"/>
<text xml:space="preserve" text-anchor="start" x="883.91" y="-1171.64" font-family="CMU Serif" font-size="14.00">status = max_iter</text>
<text xml:space="preserve" text-anchor="start" x="890.28" y="-1152.14" font-family="CMU Serif" font-size="14.00">value = sr.value</text>
<text xml:space="preserve" text-anchor="start" x="857.28" y="-1132.64" font-family="CMU Serif" font-size="14.00">n = sr.n; runge = sr.runge</text>
</g>
<!-- chkMax&#45;&gt;retMax -->
<g id="edge15" class="edge">
<title>chkMax&#45;&gt;retMax</title>
<path fill="none" stroke="#000000" d="M781.68,-1334.66C813,-1315.41 854.53,-1289.89 854.53,-1289.89 854.53,-1289.89 872.04,-1263.12 891.25,-1233.74"/>
<polygon fill="#000000" stroke="#000000" points="894.16,-1235.69 896.7,-1225.41 888.3,-1231.86 894.16,-1235.69"/>
<text xml:space="preserve" text-anchor="middle" x="842.29" y="-1306.74" font-family="CMU Serif" font-size="12.00">да</text>
</g>
<!-- chkOk -->
<g id="node14" class="node">
<title>chkOk</title>
<polygon fill="#fff7d1" stroke="#000000" points="726.53,-1289.89 607.78,-1262.39 726.53,-1234.89 845.28,-1262.39 726.53,-1289.89"/>
<text xml:space="preserve" text-anchor="start" x="675.16" y="-1257.14" font-family="CMU Serif" font-size="14.00">sr.status = &quot;ok&quot;?</text>
</g>
<!-- chkMax&#45;&gt;chkOk -->
<g id="edge17" class="edge">
<title>chkMax&#45;&gt;chkOk</title>
<path fill="none" stroke="#000000" d="M741.68,-1329.94C739.57,-1320.65 737.13,-1309.96 734.85,-1299.92"/>
<polygon fill="#000000" stroke="#000000" points="738.32,-1299.4 732.69,-1290.43 731.49,-1300.95 738.32,-1299.4"/>
<text xml:space="preserve" text-anchor="middle" x="748.66" y="-1306.74" font-family="CMU Serif" font-size="12.00">нет</text>
</g>
<!-- retMax&#45;&gt;stop -->
<g id="edge16" class="edge">
<title>retMax&#45;&gt;stop</title>
<path fill="none" stroke="#000000" d="M991.92,-1090.61C1040.67,-1028.2 1106.53,-943.89 1106.53,-943.89 1106.53,-943.89 1106.53,-943.89 1106.53,-127.39 1106.53,-127.39 1082.53,-61.89 1082.53,-61.89 1082.53,-61.89 1071.43,-53.04 1059.49,-43.52"/>
<polygon fill="#000000" stroke="#000000" points="1061.97,-41.03 1051.97,-37.53 1057.61,-46.5 1061.97,-41.03"/>
</g>
<!-- fail -->
<g id="node15" class="node">
<title>fail</title>
<polygon fill="#ffffff" stroke="#000000" points="873.78,-1079.89 697.28,-1079.89 697.28,-954.89 873.78,-954.89 873.78,-1079.89"/>
<text xml:space="preserve" text-anchor="start" x="711.66" y="-1060.89" font-family="CMU Serif" font-size="14.00">failedStatus = sr.status</text>
<text xml:space="preserve" text-anchor="start" x="705.28" y="-1041.39" font-family="CMU Serif" font-size="14.00">total += isFinite(sr.value)</text>
<text xml:space="preserve" text-anchor="start" x="740.53" y="-1021.89" font-family="CMU Serif" font-size="14.00">   ? sr.value : 0</text>
<text xml:space="preserve" text-anchor="start" x="741.66" y="-1002.39" font-family="CMU Serif" font-size="14.00">totalN += sr.n</text>
<text xml:space="preserve" text-anchor="start" x="709.41" y="-982.89" font-family="CMU Serif" font-size="14.00">totalRunge += sr.runge</text>
<text xml:space="preserve" text-anchor="start" x="732.66" y="-963.39" font-family="CMU Serif" font-size="14.00">выход из цикла</text>
</g>
<!-- chkOk&#45;&gt;fail -->
<g id="edge20" class="edge">
<title>chkOk&#45;&gt;fail</title>
<path fill="none" stroke="#000000" d="M724.1,-1235.35C723.5,-1228.95 723.03,-1223.89 723.03,-1223.89 723.03,-1223.89 723.03,-1090.89 723.03,-1090.89 723.03,-1090.89 723.73,-1090.08 724.99,-1088.62"/>
<polygon fill="#000000" stroke="#000000" points="727.39,-1091.2 731.27,-1081.34 722.09,-1086.63 727.39,-1091.2"/>
<text xml:space="preserve" text-anchor="middle" x="732.78" y="-1154.62" font-family="CMU Serif" font-size="12.00">нет</text>
</g>
<!-- acc -->
<g id="node16" class="node">
<title>acc</title>
<polygon fill="#ffffff" stroke="#000000" points="679.66,-1060.39 511.41,-1060.39 511.41,-974.39 679.66,-974.39 679.66,-1060.39"/>
<text xml:space="preserve" text-anchor="start" x="543.78" y="-1041.39" font-family="CMU Serif" font-size="14.00">total += sr.value</text>
<text xml:space="preserve" text-anchor="start" x="551.66" y="-1021.89" font-family="CMU Serif" font-size="14.00">totalN += sr.n</text>
<text xml:space="preserve" text-anchor="start" x="519.41" y="-1002.39" font-family="CMU Serif" font-size="14.00">totalRunge += sr.runge</text>
<text xml:space="preserve" text-anchor="start" x="568.16" y="-982.89" font-family="CMU Serif" font-size="14.00">k = k + 1</text>
</g>
<!-- chkOk&#45;&gt;acc -->
<g id="edge18" class="edge">
<title>chkOk&#45;&gt;acc</title>
<path fill="none" stroke="#000000" d="M713.2,-1237.85C708.93,-1230.32 705.28,-1223.89 705.28,-1223.89 705.28,-1223.89 655.78,-1131.2 623.27,-1070.32"/>
<polygon fill="#000000" stroke="#000000" points="626.52,-1068.98 618.72,-1061.81 620.34,-1072.28 626.52,-1068.98"/>
<text xml:space="preserve" text-anchor="middle" x="712.41" y="-1154.62" font-family="CMU Serif" font-size="12.00">да</text>
</g>
<!-- fail&#45;&gt;chkAllOk -->
<g id="edge21" class="edge">
<title>fail&#45;&gt;chkAllOk</title>
<path fill="none" stroke="#000000" d="M750.91,-954.4C748.05,-949.29 745.24,-944.25 742.57,-939.47"/>
<polygon fill="#000000" stroke="#000000" points="745.65,-937.81 737.72,-930.78 739.54,-941.22 745.65,-937.81"/>
</g>
<!-- acc&#45;&gt;chkSeg -->
<g id="edge19" class="edge">
<title>acc&#45;&gt;chkSeg</title>
<path fill="none" stroke="#000000" d="M589.09,-1060.72C578.49,-1130.34 558.53,-1261.39 558.53,-1261.39 558.53,-1441.39 558.53,-1441.39 558.53,-1441.39 558.53,-1441.39 558.53,-1473.7 558.53,-1501.22"/>
<polygon fill="#000000" stroke="#000000" points="555.03,-1501.1 558.53,-1511.1 562.03,-1501.1 555.03,-1501.1"/>
</g>
<!-- retOk -->
<g id="node18" class="node">
<title>retOk</title>
<polygon fill="#dcfce7" stroke="#000000" points="1091.61,-760.14 706.52,-760.14 607.45,-549.14 992.55,-549.14 1091.61,-760.14"/>
<text xml:space="preserve" text-anchor="start" x="813.53" y="-688.39" font-family="CMU Serif" font-size="14.00">status = ok</text>
<text xml:space="preserve" text-anchor="start" x="809.03" y="-668.89" font-family="CMU Serif" font-size="14.00">value = total</text>
<text xml:space="preserve" text-anchor="start" x="816.91" y="-649.39" font-family="CMU Serif" font-size="14.00">n = totalN</text>
<text xml:space="preserve" text-anchor="start" x="784.66" y="-629.89" font-family="CMU Serif" font-size="14.00">runge = totalRunge</text>
<text xml:space="preserve" text-anchor="start" x="740.78" y="-610.39" font-family="CMU Serif" font-size="14.00">сообщение зависит от improper</text>
</g>
<!-- chkAllOk&#45;&gt;retOk -->
<g id="edge22" class="edge">
<title>chkAllOk&#45;&gt;retOk</title>
<path fill="none" stroke="#000000" d="M735.84,-879.18C748.83,-853.65 770.25,-811.53 791.02,-770.7"/>
<polygon fill="#000000" stroke="#000000" points="794.04,-772.48 795.45,-761.98 787.8,-769.31 794.04,-772.48"/>
<text xml:space="preserve" text-anchor="middle" x="757.87" y="-854.49" font-family="CMU Serif" font-size="12.00">да</text>
</g>
<!-- pv -->
<g id="node19" class="node">
<title>pv</title>
<polygon fill="#fef3c7" stroke="#000000" points="725.53,-837.64 523.53,-837.64 523.53,-771.14 725.53,-771.14 725.53,-837.64"/>
<text xml:space="preserve" text-anchor="start" x="550.66" y="-818.64" font-family="CMU Serif" font-size="14.00">pv = tryPrincipalValue(</text>
<text xml:space="preserve" text-anchor="start" x="566.78" y="-799.14" font-family="CMU Serif" font-size="14.00">*this, f, plan, EPS)</text>
<text xml:space="preserve" text-anchor="start" x="531.53" y="-779.64" font-family="CMU Serif" font-size="14.00">(см. отдельную блок&#45;схему)</text>
</g>
<!-- chkAllOk&#45;&gt;pv -->
<g id="edge24" class="edge">
<title>chkAllOk&#45;&gt;pv</title>
<path fill="none" stroke="#000000" d="M701.07,-881.15C690.49,-870.68 677.54,-857.86 665.32,-845.77"/>
<polygon fill="#000000" stroke="#000000" points="668.07,-843.57 658.5,-839.02 663.15,-848.54 668.07,-843.57"/>
<text xml:space="preserve" text-anchor="middle" x="692.65" y="-854.49" font-family="CMU Serif" font-size="12.00">нет</text>
</g>
<!-- retOk&#45;&gt;stop -->
<g id="edge23" class="edge">
<title>retOk&#45;&gt;stop</title>
<path fill="none" stroke="#000000" d="M950.06,-548.93C1007.63,-488.96 1068.53,-425.52 1068.53,-425.52 1068.53,-425.52 1068.53,-425.52 1068.53,-127.39 1068.53,-127.39 1041.53,-49.89 1041.53,-49.89 1041.53,-49.89 1041.5,-49.81 1041.45,-49.66"/>
<polygon fill="#000000" stroke="#000000" points="1044.74,-48.49 1037.97,-40.34 1038.19,-50.94 1044.74,-48.49"/>
</g>
<!-- chkPv -->
<g id="node20" class="node">
<title>chkPv</title>
<polygon fill="#fff7d1" stroke="#000000" points="595.53,-538.14 495.53,-491.14 595.53,-444.14 695.53,-491.14 595.53,-538.14"/>
<text xml:space="preserve" text-anchor="start" x="553.53" y="-495.64" font-family="CMU Serif" font-size="14.00">pv.success ∧</text>
<text xml:space="preserve" text-anchor="start" x="558.41" y="-476.14" font-family="CMU Serif" font-size="14.00">pv.usedPV?</text>
</g>
<!-- pv&#45;&gt;chkPv -->
<g id="edge25" class="edge">
<title>pv&#45;&gt;chkPv</title>
<path fill="none" stroke="#000000" d="M611.07,-771.05C608.47,-764.8 606.53,-760.14 606.53,-760.14 606.53,-760.14 601.09,-627.44 597.86,-548.79"/>
<polygon fill="#000000" stroke="#000000" points="601.37,-548.96 597.46,-539.12 594.37,-549.25 601.37,-548.96"/>
</g>
<!-- retPv -->
<g id="node21" class="node">
<title>retPv</title>
<polygon fill="#fef3c7" stroke="#000000" points="1047.85,-338.89 730.78,-338.89 649.22,-205.89 966.28,-205.89 1047.85,-338.89"/>
<text xml:space="preserve" text-anchor="start" x="760.41" y="-286.64" font-family="CMU Serif" font-size="14.00">status = ok_principal_value</text>
<text xml:space="preserve" text-anchor="start" x="796.03" y="-267.14" font-family="CMU Serif" font-size="14.00">value = pv.value</text>
<text xml:space="preserve" text-anchor="start" x="760.78" y="-247.64" font-family="CMU Serif" font-size="14.00">n = pv.n; runge = pv.runge</text>
</g>
<!-- chkPv&#45;&gt;retPv -->
<g id="edge26" class="edge">
<title>chkPv&#45;&gt;retPv</title>
<path fill="none" stroke="#000000" d="M650.86,-469.72C719.2,-444.5 826.53,-404.89 826.53,-404.89 826.53,-404.89 830.86,-379.04 835.67,-350.27"/>
<polygon fill="#000000" stroke="#000000" points="839.08,-351.07 837.28,-340.63 832.18,-349.92 839.08,-351.07"/>
<text xml:space="preserve" text-anchor="middle" x="802.97" y="-421.74" font-family="CMU Serif" font-size="12.00">да</text>
</g>
<!-- chkInd -->
<g id="node22" class="node">
<title>chkInd</title>
<polygon fill="#fff7d1" stroke="#000000" points="595.53,-404.89 374.03,-377.39 595.53,-349.89 817.03,-377.39 595.53,-404.89"/>
<text xml:space="preserve" text-anchor="start" x="492.78" y="-372.14" font-family="CMU Serif" font-size="14.00">failedStatus = &quot;indeterminate&quot;?</text>
</g>
<!-- chkPv&#45;&gt;chkInd -->
<g id="edge28" class="edge">
<title>chkPv&#45;&gt;chkInd</title>
<path fill="none" stroke="#000000" d="M595.53,-443.72C595.53,-434.73 595.53,-425.41 595.53,-416.72"/>
<polygon fill="#000000" stroke="#000000" points="599.03,-416.86 595.53,-406.86 592.03,-416.86 599.03,-416.86"/>
<text xml:space="preserve" text-anchor="middle" x="605.28" y="-421.74" font-family="CMU Serif" font-size="12.00">нет</text>
</g>
<!-- retPv&#45;&gt;stop -->
<g id="edge27" class="edge">
<title>retPv&#45;&gt;stop</title>
<path fill="none" stroke="#000000" d="M971.24,-213.8C994.4,-202.93 1011.53,-194.89 1011.53,-194.89 1011.53,-194.89 1021.83,-100.35 1027.26,-50.46"/>
<polygon fill="#000000" stroke="#000000" points="1030.73,-50.94 1028.34,-40.62 1023.77,-50.18 1030.73,-50.94"/>
</g>
<!-- retInd -->
<g id="node23" class="node">
<title>retInd</title>
<polygon fill="#fde2e2" stroke="#000000" points="1002.06,-194.89 641.7,-194.89 549,-61.89 909.36,-61.89 1002.06,-194.89"/>
<text xml:space="preserve" text-anchor="start" x="699.78" y="-142.64" font-family="CMU Serif" font-size="14.00">status = indeterminate</text>
<text xml:space="preserve" text-anchor="start" x="684.78" y="-123.14" font-family="CMU Serif" font-size="14.00">value = total (накопленное)</text>
<text xml:space="preserve" text-anchor="start" x="674.28" y="-103.64" font-family="CMU Serif" font-size="14.00">n = totalN; runge = totalRunge</text>
</g>
<!-- chkInd&#45;&gt;retInd -->
<g id="edge29" class="edge">
<title>chkInd&#45;&gt;retInd</title>
<path fill="none" stroke="#000000" d="M600.27,-350.12C608.9,-302.3 626.28,-205.89 626.28,-205.89 626.28,-205.89 630.34,-203.81 637.11,-200.34"/>
<polygon fill="#000000" stroke="#000000" points="638.39,-203.62 645.69,-195.94 635.19,-197.39 638.39,-203.62"/>
<text xml:space="preserve" text-anchor="middle" x="633.41" y="-269.62" font-family="CMU Serif" font-size="12.00">да</text>
</g>
<!-- retDiv -->
<g id="node24" class="node">
<title>retDiv</title>
<polygon fill="#fde2e2" stroke="#000000" points="530.63,-194.89 245.72,-194.89 172.43,-61.89 457.34,-61.89 530.63,-194.89"/>
<text xml:space="preserve" text-anchor="start" x="295.28" y="-142.64" font-family="CMU Serif" font-size="14.00">status = diverges</text>
<text xml:space="preserve" text-anchor="start" x="311.78" y="-123.14" font-family="CMU Serif" font-size="14.00">value = NaN</text>
<text xml:space="preserve" text-anchor="start" x="273.16" y="-103.64" font-family="CMU Serif" font-size="14.00">«Интеграл расходится»</text>
</g>
<!-- chkInd&#45;&gt;retDiv -->
<g id="edge31" class="edge">
<title>chkInd&#45;&gt;retDiv</title>
<path fill="none" stroke="#000000" d="M572.14,-352.71C538.45,-318.61 474.82,-254.19 424.52,-203.27"/>
<polygon fill="#000000" stroke="#000000" points="427.14,-200.95 417.63,-196.3 422.16,-205.87 427.14,-200.95"/>
<text xml:space="preserve" text-anchor="middle" x="564.38" y="-269.62" font-family="CMU Serif" font-size="12.00">нет</text>
</g>
<!-- retInd&#45;&gt;stop -->
<g id="edge30" class="edge">
<title>retInd&#45;&gt;stop</title>
<path fill="none" stroke="#000000" d="M914.6,-69.07C942.39,-57.41 969.44,-46.07 990.41,-37.27"/>
<polygon fill="#000000" stroke="#000000" points="991.53,-40.6 999.4,-33.5 988.82,-34.14 991.53,-40.6"/>
</g>
<!-- retDiv&#45;&gt;stop -->
<g id="edge32" class="edge">
<title>retDiv&#45;&gt;stop</title>
<path fill="none" stroke="#000000" d="M470.86,-85.82C508.06,-72.86 539.53,-61.89 539.53,-61.89 539.53,-61.89 854.69,-35.29 980.01,-24.71"/>
<polygon fill="#000000" stroke="#000000" points="980,-28.22 989.67,-23.89 979.41,-21.25 980,-28.22"/>
</g>
</g>
</svg>
