<?xml version="1.0" encoding="UTF-8" standalone="no"?>
<!DOCTYPE svg PUBLIC "-//W3C//DTD SVG 1.1//EN"
 "http://www.w3.org/Graphics/SVG/1.1/DTD/svg11.dtd">
<!-- Generated by graphviz version 14.1.5 (0)
 -->
<!-- Title: IterEq Pages: 1 -->
<svg width="912pt" height="1676pt"
 viewBox="0.00 0.00 912.00 1676.00" xmlns="http://www.w3.org/2000/svg" xmlns:xlink="http://www.w3.org/1999/xlink">
<g id="graph0" class="graph" transform="scale(1 1) rotate(0) translate(4 1671.53)">
<title>IterEq</title>
<polygon fill="white" stroke="none" points="-4,4 -4,-1671.53 907.99,-1671.53 907.99,4 -4,4"/>
<!-- start -->
<g id="node1" class="node">
<title>start</title>
<ellipse fill="#e6eefc" stroke="#000000" cx="127.78" cy="-1648.09" rx="46.85" ry="19.45"/>
<text xml:space="preserve" text-anchor="middle" x="127.78" y="-1644.54" font-family="CMU Serif" font-size="14.00">Начало</text>
</g>
<!-- input -->
<g id="node2" class="node">
<title>input</title>
<polygon fill="#f5f5f5" stroke="#000000" points="255.56,-1605.64 52.29,-1605.64 0,-1550.64 203.27,-1550.64 255.56,-1605.64"/>
<text xml:space="preserve" text-anchor="middle" x="127.78" y="-1574.59" font-family="CMU Serif" font-size="14.00">Ввод: f(x), a, b, ε</text>
</g>
<!-- start&#45;&gt;input -->
<g id="edge1" class="edge">
<title>start&#45;&gt;input</title>
<path fill="none" stroke="#000000" d="M127.78,-1628.16C127.78,-1624.74 127.78,-1621.07 127.78,-1617.33"/>
<polygon fill="#000000" stroke="#000000" points="131.28,-1617.6 127.78,-1607.6 124.28,-1617.6 131.28,-1617.6"/>
</g>
<!-- initM -->
<g id="node3" class="node">
<title>initM</title>
<polygon fill="#ffffff" stroke="#000000" points="205.15,-1527.64 50.4,-1527.64 50.4,-1491.64 205.15,-1491.64 205.15,-1527.64"/>
<text xml:space="preserve" text-anchor="start" x="58.4" y="-1504.39" font-family="CMU Serif" font-size="14.00">N = 1000; M = 0; i = 0</text>
</g>
<!-- input&#45;&gt;initM -->
<g id="edge2" class="edge">
<title>input&#45;&gt;initM</title>
<path fill="none" stroke="#000000" d="M127.78,-1550.48C127.78,-1546.77 127.78,-1542.94 127.78,-1539.2"/>
<polygon fill="#000000" stroke="#000000" points="131.28,-1539.27 127.78,-1529.27 124.28,-1539.27 131.28,-1539.27"/>
</g>
<!-- loopM -->
<g id="node4" class="node">
<title>loopM</title>
<polygon fill="#fff7d1" stroke="#000000" points="127.78,-1468.64 72.03,-1441.14 127.78,-1413.64 183.53,-1441.14 127.78,-1468.64"/>
<text xml:space="preserve" text-anchor="start" x="107.9" y="-1435.89" font-family="CMU Serif" font-size="14.00">i ≤ N?</text>
</g>
<!-- initM&#45;&gt;loopM -->
<g id="edge3" class="edge">
<title>initM&#45;&gt;loopM</title>
<path fill="none" stroke="#000000" d="M127.78,-1491.17C127.78,-1487.78 127.78,-1484.11 127.78,-1480.35"/>
<polygon fill="#000000" stroke="#000000" points="131.28,-1480.53 127.78,-1470.53 124.28,-1480.53 131.28,-1480.53"/>
</g>
<!-- bodyM -->
<g id="node5" class="node">
<title>bodyM</title>
<polygon fill="#ffffff" stroke="#000000" points="171.28,-1371.89 26.28,-1371.89 26.28,-1321.89 171.28,-1321.89 171.28,-1371.89"/>
<text xml:space="preserve" text-anchor="start" x="38.4" y="-1355.59" font-family="CMU Serif" font-size="14.00">x</text>
<text xml:space="preserve" text-anchor="start" x="45.9" y="-1355.59" font-family="CMU Serif" baseline-shift="sub" font-size="14.00">i</text>
<text xml:space="preserve" text-anchor="start" x="48.9" y="-1355.59" font-family="CMU Serif" font-size="14.00"> = a + (b − a)·i / N</text>
<text xml:space="preserve" text-anchor="start" x="34.28" y="-1341.59" font-family="CMU Serif" font-size="14.00">M = max(M, |f&#39;(x</text>
<text xml:space="preserve" text-anchor="start" x="143.78" y="-1341.59" font-family="CMU Serif" baseline-shift="sub" font-size="14.00">i</text>
<text xml:space="preserve" text-anchor="start" x="146.78" y="-1341.59" font-family="CMU Serif" font-size="14.00">)|)</text>
<text xml:space="preserve" text-anchor="start" x="75.15" y="-1327.59" font-family="CMU Serif" font-size="14.00">i = i + 1</text>
</g>
<!-- loopM&#45;&gt;bodyM -->
<g id="edge4" class="edge">
<title>loopM&#45;&gt;bodyM</title>
<path fill="none" stroke="#000000" d="M112.99,-1420.51C106.16,-1411.44 99.53,-1402.64 99.53,-1402.64 99.53,-1402.64 99.41,-1394 99.27,-1383.59"/>
<polygon fill="#000000" stroke="#000000" points="102.77,-1383.85 99.14,-1373.9 95.77,-1383.94 102.77,-1383.85"/>
<text xml:space="preserve" text-anchor="middle" x="106.65" y="-1391.24" font-family="CMU Serif" font-size="12.00">да</text>
</g>
<!-- chkM -->
<g id="node6" class="node">
<title>chkM</title>
<polygon fill="#fff7d1" stroke="#000000" points="283.78,-1374.39 189.78,-1346.89 283.78,-1319.39 377.78,-1346.89 283.78,-1374.39"/>
<text xml:space="preserve" text-anchor="start" x="244.78" y="-1341.64" font-family="CMU Serif" font-size="14.00">M конечен?</text>
</g>
<!-- loopM&#45;&gt;chkM -->
<g id="edge6" class="edge">
<title>loopM&#45;&gt;chkM</title>
<path fill="none" stroke="#000000" d="M152.5,-1425.52C176.94,-1411.07 214.74,-1388.71 243.52,-1371.7"/>
<polygon fill="#000000" stroke="#000000" points="245.16,-1374.8 251.98,-1366.69 241.59,-1368.77 245.16,-1374.8"/>
<text xml:space="preserve" text-anchor="middle" x="229.5" y="-1391.24" font-family="CMU Serif" font-size="12.00">нет</text>
</g>
<!-- bodyM&#45;&gt;loopM -->
<g id="edge5" class="edge">
<title>bodyM&#45;&gt;loopM</title>
<path fill="none" stroke="#000000" d="M108.53,-1372.28C111.4,-1379.44 113.78,-1385.39 113.78,-1385.39 113.78,-1385.39 116.1,-1394.47 118.85,-1405.23"/>
<polygon fill="#000000" stroke="#000000" points="115.44,-1406 121.3,-1414.82 122.22,-1404.26 115.44,-1406"/>
</g>
<!-- errM -->
<g id="node7" class="node">
<title>errM</title>
<polygon fill="#fde2e2" stroke="#000000" points="338.34,-1214.14 156.1,-1214.14 109.22,-1159.14 291.46,-1159.14 338.34,-1214.14"/>
<text xml:space="preserve" text-anchor="middle" x="223.78" y="-1183.09" font-family="CMU Serif" font-size="14.00">Расходимость</text>
</g>
<!-- chkM&#45;&gt;errM -->
<g id="edge7" class="edge">
<title>chkM&#45;&gt;errM</title>
<path fill="none" stroke="#000000" d="M274.67,-1321.86C264.92,-1296.14 249.32,-1255 237.96,-1225.04"/>
<polygon fill="#000000" stroke="#000000" points="241.34,-1224.08 234.52,-1215.97 234.79,-1226.56 241.34,-1224.08"/>
<text xml:space="preserve" text-anchor="middle" x="278.35" y="-1296.99" font-family="CMU Serif" font-size="12.00">нет</text>
</g>
<!-- sign -->
<g id="node8" class="node">
<title>sign</title>
<polygon fill="#fff7d1" stroke="#000000" points="386.78,-1280.14 272.53,-1252.64 386.78,-1225.14 501.03,-1252.64 386.78,-1280.14"/>
<text xml:space="preserve" text-anchor="start" x="337.65" y="-1247.39" font-family="CMU Serif" font-size="14.00">f&#39;((a+b)/2) ≥ 0?</text>
</g>
<!-- chkM&#45;&gt;sign -->
<g id="edge9" class="edge">
<title>chkM&#45;&gt;sign</title>
<path fill="none" stroke="#000000" d="M306.38,-1325.65C320.57,-1312.94 339.09,-1296.35 354.78,-1282.3"/>
<polygon fill="#000000" stroke="#000000" points="356.91,-1285.09 362.03,-1275.81 352.24,-1279.87 356.91,-1285.09"/>
<text xml:space="preserve" text-anchor="middle" x="351.63" y="-1296.99" font-family="CMU Serif" font-size="12.00">да</text>
</g>
<!-- stop -->
<g id="node27" class="node">
<title>stop</title>
<ellipse fill="#e6eefc" stroke="#000000" cx="483.78" cy="-19.45" rx="39.95" ry="19.45"/>
<text xml:space="preserve" text-anchor="middle" x="483.78" y="-15.9" font-family="CMU Serif" font-size="14.00">Конец</text>
</g>
<!-- errM&#45;&gt;stop -->
<g id="edge8" class="edge">
<title>errM&#45;&gt;stop</title>
<path fill="none" stroke="#000000" d="M214.92,-1158.9C206.72,-1134.15 195.78,-1101.14 195.78,-1101.14 195.78,-1101.14 195.78,-1101.14 195.78,-88.39 195.78,-88.39 355.72,-50.66 437.22,-31.43"/>
<polygon fill="#000000" stroke="#000000" points="437.77,-34.9 446.7,-29.19 436.17,-28.08 437.77,-34.9"/>
</g>
<!-- lamNeg -->
<g id="node9" class="node">
<title>lamNeg</title>
<polygon fill="#ffffff" stroke="#000000" points="526.4,-1148.14 445.15,-1148.14 445.15,-1112.14 526.4,-1112.14 526.4,-1148.14"/>
<text xml:space="preserve" text-anchor="start" x="453.15" y="-1124.89" font-family="CMU Serif" font-size="14.00">λ = −1 / M</text>
</g>
<!-- sign&#45;&gt;lamNeg -->
<g id="edge10" class="edge">
<title>sign&#45;&gt;lamNeg</title>
<path fill="none" stroke="#000000" d="M405.17,-1229.26C422,-1208.77 446.9,-1178.46 464.57,-1156.96"/>
<polygon fill="#000000" stroke="#000000" points="467.05,-1159.46 470.69,-1149.51 461.64,-1155.01 467.05,-1159.46"/>
<text xml:space="preserve" text-anchor="middle" x="468.98" y="-1183.87" font-family="CMU Serif" font-size="12.00">да</text>
</g>
<!-- lamPos -->
<g id="node10" class="node">
<title>lamPos</title>
<polygon fill="#ffffff" stroke="#000000" points="427.4,-1148.14 346.15,-1148.14 346.15,-1112.14 427.4,-1112.14 427.4,-1148.14"/>
<text xml:space="preserve" text-anchor="start" x="354.15" y="-1124.89" font-family="CMU Serif" font-size="14.00">λ = +1 / M</text>
</g>
<!-- sign&#45;&gt;lamPos -->
<g id="edge11" class="edge">
<title>sign&#45;&gt;lamPos</title>
<path fill="none" stroke="#000000" d="M386.78,-1224.9C386.78,-1205.61 386.78,-1179.59 386.78,-1159.86"/>
<polygon fill="#000000" stroke="#000000" points="390.28,-1160.02 386.78,-1150.02 383.28,-1160.02 390.28,-1160.02"/>
<text xml:space="preserve" text-anchor="middle" x="396.53" y="-1183.87" font-family="CMU Serif" font-size="12.00">нет</text>
</g>
<!-- initQ -->
<g id="node11" class="node">
<title>initQ</title>
<polygon fill="#ffffff" stroke="#000000" points="527.53,-1089.14 444.03,-1089.14 444.03,-1053.14 527.53,-1053.14 527.53,-1089.14"/>
<text xml:space="preserve" text-anchor="start" x="452.03" y="-1065.89" font-family="CMU Serif" font-size="14.00">q = 0; i = 0</text>
</g>
<!-- lamNeg&#45;&gt;initQ -->
<g id="edge12" class="edge">
<title>lamNeg&#45;&gt;initQ</title>
<path fill="none" stroke="#000000" d="M485.78,-1111.73C485.78,-1108.3 485.78,-1104.63 485.78,-1100.94"/>
<polygon fill="#000000" stroke="#000000" points="489.28,-1100.96 485.78,-1090.96 482.28,-1100.96 489.28,-1100.96"/>
</g>
<!-- lamPos&#45;&gt;initQ -->
<g id="edge13" class="edge">
<title>lamPos&#45;&gt;initQ</title>
<path fill="none" stroke="#000000" d="M417.02,-1111.73C426.14,-1106.48 436.29,-1100.64 445.93,-1095.09"/>
<polygon fill="#000000" stroke="#000000" points="447.49,-1098.22 454.41,-1090.2 444,-1092.16 447.49,-1098.22"/>
</g>
<!-- loopQ -->
<g id="node12" class="node">
<title>loopQ</title>
<polygon fill="#fff7d1" stroke="#000000" points="598.78,-1030.14 543.03,-1002.64 598.78,-975.14 654.53,-1002.64 598.78,-1030.14"/>
<text xml:space="preserve" text-anchor="start" x="578.9" y="-997.39" font-family="CMU Serif" font-size="14.00">i ≤ N?</text>
</g>
<!-- initQ&#45;&gt;loopQ -->
<g id="edge14" class="edge">
<title>initQ&#45;&gt;loopQ</title>
<path fill="none" stroke="#000000" d="M515.47,-1052.67C530.38,-1043.89 548.54,-1033.21 564.09,-1024.06"/>
<polygon fill="#000000" stroke="#000000" points="565.72,-1027.15 572.57,-1019.07 562.17,-1021.12 565.72,-1027.15"/>
</g>
<!-- bodyQ -->
<g id="node13" class="node">
<title>bodyQ</title>
<polygon fill="#ffffff" stroke="#000000" points="843.4,-933.39 672.15,-933.39 672.15,-883.39 843.4,-883.39 843.4,-933.39"/>
<text xml:space="preserve" text-anchor="start" x="697.4" y="-917.09" font-family="CMU Serif" font-size="14.00">x</text>
<text xml:space="preserve" text-anchor="start" x="704.9" y="-917.09" font-family="CMU Serif" baseline-shift="sub" font-size="14.00">i</text>
<text xml:space="preserve" text-anchor="start" x="707.9" y="-917.09" font-family="CMU Serif" font-size="14.00"> = a + (b − a)·i / N</text>
<text xml:space="preserve" text-anchor="start" x="680.15" y="-903.09" font-family="CMU Serif" font-size="14.00">q = max(q, |1 + λ·f&#39;(x</text>
<text xml:space="preserve" text-anchor="start" x="815.9" y="-903.09" font-family="CMU Serif" baseline-shift="sub" font-size="14.00">i</text>
<text xml:space="preserve" text-anchor="start" x="818.9" y="-903.09" font-family="CMU Serif" font-size="14.00">)|)</text>
<text xml:space="preserve" text-anchor="start" x="734.15" y="-889.09" font-family="CMU Serif" font-size="14.00">i = i + 1</text>
</g>
<!-- loopQ&#45;&gt;bodyQ -->
<g id="edge15" class="edge">
<title>loopQ&#45;&gt;bodyQ</title>
<path fill="none" stroke="#000000" d="M625.86,-988.1C647.34,-977.36 673.78,-964.14 673.78,-964.14 673.78,-964.14 691.55,-952.56 710.74,-940.05"/>
<polygon fill="#000000" stroke="#000000" points="712.47,-943.1 718.93,-934.71 708.65,-937.24 712.47,-943.1"/>
<text xml:space="preserve" text-anchor="middle" x="705.73" y="-952.74" font-family="CMU Serif" font-size="12.00">да</text>
</g>
<!-- chkQ -->
<g id="node14" class="node">
<title>chkQ</title>
<polygon fill="#fff7d1" stroke="#000000" points="515.78,-935.89 377.53,-908.39 515.78,-880.89 654.03,-908.39 515.78,-935.89"/>
<text xml:space="preserve" text-anchor="start" x="454.65" y="-903.14" font-family="CMU Serif" font-size="14.00">q &lt; 1 и q конечен?</text>
</g>
<!-- loopQ&#45;&gt;chkQ -->
<g id="edge17" class="edge">
<title>loopQ&#45;&gt;chkQ</title>
<path fill="none" stroke="#000000" d="M581.98,-982.97C571.08,-970.85 556.59,-954.75 543.96,-940.71"/>
<polygon fill="#000000" stroke="#000000" points="546.68,-938.5 537.39,-933.4 541.47,-943.18 546.68,-938.5"/>
<text xml:space="preserve" text-anchor="middle" x="574.46" y="-952.74" font-family="CMU Serif" font-size="12.00">нет</text>
</g>
<!-- bodyQ&#45;&gt;loopQ -->
<g id="edge16" class="edge">
<title>bodyQ&#45;&gt;loopQ</title>
<path fill="none" stroke="#000000" d="M703.16,-933.78C687.12,-940.94 673.78,-946.89 673.78,-946.89 673.78,-946.89 650.63,-963.79 630.06,-978.81"/>
<polygon fill="#000000" stroke="#000000" points="628.11,-975.89 622.1,-984.62 632.24,-981.55 628.11,-975.89"/>
</g>
<!-- errQ -->
<g id="node15" class="node">
<title>errQ</title>
<polygon fill="#fde2e2" stroke="#000000" points="903.99,-794.64 647.54,-794.64 581.56,-700.64 838.02,-700.64 903.99,-794.64"/>
<text xml:space="preserve" text-anchor="middle" x="742.78" y="-753.84" font-family="CMU Serif" font-size="14.00">Условие сходимости</text>
<text xml:space="preserve" text-anchor="middle" x="742.78" y="-734.34" font-family="CMU Serif" font-size="14.00">не выполнено</text>
</g>
<!-- chkQ&#45;&gt;errQ -->
<g id="edge18" class="edge">
<title>chkQ&#45;&gt;errQ</title>
<path fill="none" stroke="#000000" d="M545.46,-886.64C576.18,-865.15 625.42,-830.71 667.03,-801.62"/>
<polygon fill="#000000" stroke="#000000" points="668.9,-804.58 675.09,-795.98 664.88,-798.85 668.9,-804.58"/>
<text xml:space="preserve" text-anchor="middle" x="600.79" y="-858.49" font-family="CMU Serif" font-size="12.00">нет</text>
</g>
<!-- x0 -->
<g id="node16" class="node">
<title>x0</title>
<polygon fill="#ffffff" stroke="#000000" points="542.78,-841.64 488.78,-841.64 488.78,-805.64 542.78,-805.64 542.78,-841.64"/>
<text xml:space="preserve" text-anchor="start" x="497.03" y="-821.09" font-family="CMU Serif" font-size="14.00">x</text>
<text xml:space="preserve" text-anchor="start" x="504.53" y="-821.09" font-family="CMU Serif" baseline-shift="sub" font-size="14.00">0</text>
<text xml:space="preserve" text-anchor="start" x="511.28" y="-821.09" font-family="CMU Serif" font-size="14.00"> = a</text>
</g>
<!-- chkQ&#45;&gt;x0 -->
<g id="edge20" class="edge">
<title>chkQ&#45;&gt;x0</title>
<path fill="none" stroke="#000000" d="M515.78,-880.75C515.78,-872.05 515.78,-862.34 515.78,-853.48"/>
<polygon fill="#000000" stroke="#000000" points="519.28,-853.61 515.78,-843.61 512.28,-853.61 519.28,-853.61"/>
<text xml:space="preserve" text-anchor="middle" x="522.9" y="-858.49" font-family="CMU Serif" font-size="12.00">да</text>
</g>
<!-- errQ&#45;&gt;stop -->
<g id="edge19" class="edge">
<title>errQ&#45;&gt;stop</title>
<path fill="none" stroke="#000000" d="M750.6,-700.22C756.92,-662.67 764.78,-616.02 764.78,-616.02 764.78,-616.02 764.78,-616.02 764.78,-88.39 764.78,-88.39 745.78,-61.89 745.78,-61.89 745.78,-61.89 608.6,-40.19 532.76,-28.19"/>
<polygon fill="#000000" stroke="#000000" points="533.52,-24.77 523.09,-26.66 532.42,-31.68 533.52,-24.77"/>
</g>
<!-- chkF2 -->
<g id="node17" class="node">
<title>chkF2</title>
<polygon fill="#fff7d1" stroke="#000000" points="515.78,-689.64 403.03,-662.14 515.78,-634.64 628.53,-662.14 515.78,-689.64"/>
<text xml:space="preserve" text-anchor="start" x="467.4" y="-659.59" font-family="CMU Serif" font-size="14.00">f(x</text>
<text xml:space="preserve" text-anchor="start" x="483.9" y="-659.59" font-family="CMU Serif" baseline-shift="sub" font-size="14.00">0</text>
<text xml:space="preserve" text-anchor="start" x="490.65" y="-659.59" font-family="CMU Serif" font-size="14.00">)·f&#39;&#39;(x</text>
<text xml:space="preserve" text-anchor="start" x="522.9" y="-659.59" font-family="CMU Serif" baseline-shift="sub" font-size="14.00">0</text>
<text xml:space="preserve" text-anchor="start" x="529.65" y="-659.59" font-family="CMU Serif" font-size="14.00">) &lt; 0?</text>
</g>
<!-- x0&#45;&gt;chkF2 -->
<g id="edge21" class="edge">
<title>x0&#45;&gt;chkF2</title>
<path fill="none" stroke="#000000" d="M515.78,-805.27C515.78,-780.53 515.78,-734.51 515.78,-701.53"/>
<polygon fill="#000000" stroke="#000000" points="519.28,-701.55 515.78,-691.55 512.28,-701.55 519.28,-701.55"/>
</g>
<!-- x0b -->
<g id="node18" class="node">
<title>x0b</title>
<polygon fill="#ffffff" stroke="#000000" points="592.9,-595.39 538.65,-595.39 538.65,-559.39 592.9,-559.39 592.9,-595.39"/>
<text xml:space="preserve" text-anchor="start" x="546.65" y="-574.84" font-family="CMU Serif" font-size="14.00">x</text>
<text xml:space="preserve" text-anchor="start" x="554.15" y="-574.84" font-family="CMU Serif" baseline-shift="sub" font-size="14.00">0</text>
<text xml:space="preserve" text-anchor="start" x="560.9" y="-574.84" font-family="CMU Serif" font-size="14.00"> = b</text>
</g>
<!-- chkF2&#45;&gt;x0b -->
<g id="edge22" class="edge">
<title>chkF2&#45;&gt;x0b</title>
<path fill="none" stroke="#000000" d="M529.97,-637.65C535.99,-627.69 543.05,-616.01 549.3,-605.67"/>
<polygon fill="#000000" stroke="#000000" points="552.25,-607.55 554.43,-597.18 546.26,-603.93 552.25,-607.55"/>
<text xml:space="preserve" text-anchor="middle" x="555.3" y="-612.24" font-family="CMU Serif" font-size="12.00">да</text>
</g>
<!-- firstStep -->
<g id="node19" class="node">
<title>firstStep</title>
<polygon fill="#ffffff" stroke="#000000" points="609.4,-536.39 438.15,-536.39 438.15,-500.39 609.4,-500.39 609.4,-536.39"/>
<text xml:space="preserve" text-anchor="start" x="446.15" y="-515.84" font-family="CMU Serif" font-size="14.00">x</text>
<text xml:space="preserve" text-anchor="start" x="453.65" y="-515.84" font-family="CMU Serif" baseline-shift="sub" font-size="14.00">n+1</text>
<text xml:space="preserve" text-anchor="start" x="474.65" y="-515.84" font-family="CMU Serif" font-size="14.00"> = x</text>
<text xml:space="preserve" text-anchor="start" x="497.9" y="-515.84" font-family="CMU Serif" baseline-shift="sub" font-size="14.00">n</text>
<text xml:space="preserve" text-anchor="start" x="505.4" y="-515.84" font-family="CMU Serif" font-size="14.00"> + λ·f(x</text>
<text xml:space="preserve" text-anchor="start" x="548.9" y="-515.84" font-family="CMU Serif" baseline-shift="sub" font-size="14.00">n</text>
<text xml:space="preserve" text-anchor="start" x="556.4" y="-515.84" font-family="CMU Serif" font-size="14.00">); n = 0</text>
</g>
<!-- chkF2&#45;&gt;firstStep -->
<g id="edge23" class="edge">
<title>chkF2&#45;&gt;firstStep</title>
<path fill="none" stroke="#000000" d="M513.57,-634.78C512.04,-616.48 510.28,-595.39 510.28,-595.39 510.28,-595.39 510.28,-559.39 510.28,-559.39 510.28,-559.39 512.1,-553.99 514.41,-547.16"/>
<polygon fill="#000000" stroke="#000000" points="517.61,-548.61 517.49,-538.02 510.98,-546.38 517.61,-548.61"/>
<text xml:space="preserve" text-anchor="middle" x="520.03" y="-574.62" font-family="CMU Serif" font-size="12.00">нет</text>
</g>
<!-- x0b&#45;&gt;firstStep -->
<g id="edge24" class="edge">
<title>x0b&#45;&gt;firstStep</title>
<path fill="none" stroke="#000000" d="M552.95,-558.98C549.86,-554.78 546.48,-550.2 543.16,-545.7"/>
<polygon fill="#000000" stroke="#000000" points="546.18,-543.89 537.43,-537.91 540.54,-548.04 546.18,-543.89"/>
</g>
<!-- loopCond -->
<g id="node20" class="node">
<title>loopCond</title>
<polygon fill="#fff7d1" stroke="#000000" points="523.78,-477.39 405.03,-449.89 523.78,-422.39 642.53,-449.89 523.78,-477.39"/>
<text xml:space="preserve" text-anchor="start" x="472.4" y="-447.34" font-family="CMU Serif" font-size="14.00">|x</text>
<text xml:space="preserve" text-anchor="start" x="487.4" y="-447.34" font-family="CMU Serif" baseline-shift="sub" font-size="14.00">n+1</text>
<text xml:space="preserve" text-anchor="start" x="508.4" y="-447.34" font-family="CMU Serif" font-size="14.00"> − x</text>
<text xml:space="preserve" text-anchor="start" x="531.65" y="-447.34" font-family="CMU Serif" baseline-shift="sub" font-size="14.00">n</text>
<text xml:space="preserve" text-anchor="start" x="539.15" y="-447.34" font-family="CMU Serif" font-size="14.00">| &gt; ε?</text>
</g>
<!-- firstStep&#45;&gt;loopCond -->
<g id="edge25" class="edge">
<title>firstStep&#45;&gt;loopCond</title>
<path fill="none" stroke="#000000" d="M523.78,-499.92C523.78,-496.53 523.78,-492.86 523.78,-489.1"/>
<polygon fill="#000000" stroke="#000000" points="527.28,-489.28 523.78,-479.28 520.28,-489.28 527.28,-489.28"/>
</g>
<!-- update -->
<g id="node21" class="node">
<title>update</title>
<polygon fill="#ffffff" stroke="#000000" points="640.4,-383.14 565.15,-383.14 565.15,-347.14 640.4,-347.14 640.4,-383.14"/>
<text xml:space="preserve" text-anchor="start" x="573.15" y="-362.59" font-family="CMU Serif" font-size="14.00">x</text>
<text xml:space="preserve" text-anchor="start" x="580.65" y="-362.59" font-family="CMU Serif" baseline-shift="sub" font-size="14.00">n</text>
<text xml:space="preserve" text-anchor="start" x="588.15" y="-362.59" font-family="CMU Serif" font-size="14.00"> = x</text>
<text xml:space="preserve" text-anchor="start" x="611.4" y="-362.59" font-family="CMU Serif" baseline-shift="sub" font-size="14.00">n+1</text>
</g>
<!-- loopCond&#45;&gt;update -->
<g id="edge27" class="edge">
<title>loopCond&#45;&gt;update</title>
<path fill="none" stroke="#000000" d="M544.54,-427.15C554.88,-416.31 567.46,-403.14 578.28,-391.81"/>
<polygon fill="#000000" stroke="#000000" points="580.72,-394.31 585.1,-384.66 575.66,-389.48 580.72,-394.31"/>
<text xml:space="preserve" text-anchor="middle" x="582.1" y="-399.99" font-family="CMU Serif" font-size="12.00">да</text>
</g>
<!-- output -->
<g id="node26" class="node">
<title>output</title>
<polygon fill="#f5f5f5" stroke="#000000" points="508.55,-336.14 271.89,-336.14 211.01,-281.14 447.67,-281.14 508.55,-336.14"/>
<text xml:space="preserve" text-anchor="start" x="296.03" y="-306.09" font-family="CMU Serif" font-size="14.00">Вывод: x* = x</text>
<text xml:space="preserve" text-anchor="start" x="386.03" y="-306.09" font-family="CMU Serif" baseline-shift="sub" font-size="14.00">n+1</text>
<text xml:space="preserve" text-anchor="start" x="407.03" y="-306.09" font-family="CMU Serif" font-size="14.00">, n</text>
</g>
<!-- loopCond&#45;&gt;output -->
<g id="edge26" class="edge">
<title>loopCond&#45;&gt;output</title>
<path fill="none" stroke="#000000" d="M498.87,-427.74C472.58,-405.42 430.74,-369.89 399.81,-343.63"/>
<polygon fill="#000000" stroke="#000000" points="402.44,-341.27 392.55,-337.47 397.91,-346.61 402.44,-341.27"/>
<text xml:space="preserve" text-anchor="middle" x="488.91" y="-399.99" font-family="CMU Serif" font-size="12.00">нет</text>
</g>
<!-- step -->
<g id="node22" class="node">
<title>step</title>
<polygon fill="#ffffff" stroke="#000000" points="683.15,-270.14 552.4,-270.14 552.4,-234.14 683.15,-234.14 683.15,-270.14"/>
<text xml:space="preserve" text-anchor="start" x="560.4" y="-249.59" font-family="CMU Serif" font-size="14.00">x</text>
<text xml:space="preserve" text-anchor="start" x="567.9" y="-249.59" font-family="CMU Serif" baseline-shift="sub" font-size="14.00">n+1</text>
<text xml:space="preserve" text-anchor="start" x="588.9" y="-249.59" font-family="CMU Serif" font-size="14.00"> = x</text>
<text xml:space="preserve" text-anchor="start" x="612.15" y="-249.59" font-family="CMU Serif" baseline-shift="sub" font-size="14.00">n</text>
<text xml:space="preserve" text-anchor="start" x="619.65" y="-249.59" font-family="CMU Serif" font-size="14.00"> + λ·f(x</text>
<text xml:space="preserve" text-anchor="start" x="663.15" y="-249.59" font-family="CMU Serif" baseline-shift="sub" font-size="14.00">n</text>
<text xml:space="preserve" text-anchor="start" x="670.65" y="-249.59" font-family="CMU Serif" font-size="14.00">)</text>
</g>
<!-- update&#45;&gt;step -->
<g id="edge28" class="edge">
<title>update&#45;&gt;step</title>
<path fill="none" stroke="#000000" d="M605.12,-346.8C607.48,-329.37 611.15,-302.2 613.93,-281.61"/>
<polygon fill="#000000" stroke="#000000" points="617.38,-282.24 615.25,-271.86 610.44,-281.3 617.38,-282.24"/>
</g>
<!-- chkFinite -->
<g id="node23" class="node">
<title>chkFinite</title>
<polygon fill="#fff7d1" stroke="#000000" points="625.78,-211.14 516.03,-183.64 625.78,-156.14 735.53,-183.64 625.78,-211.14"/>
<text xml:space="preserve" text-anchor="start" x="578.9" y="-181.09" font-family="CMU Serif" font-size="14.00">x</text>
<text xml:space="preserve" text-anchor="start" x="586.4" y="-181.09" font-family="CMU Serif" baseline-shift="sub" font-size="14.00">n+1</text>
<text xml:space="preserve" text-anchor="start" x="607.4" y="-181.09" font-family="CMU Serif" font-size="14.00"> конечен?</text>
</g>
<!-- step&#45;&gt;chkFinite -->
<g id="edge29" class="edge">
<title>step&#45;&gt;chkFinite</title>
<path fill="none" stroke="#000000" d="M619.88,-233.67C620.32,-230.06 620.79,-226.12 621.27,-222.1"/>
<polygon fill="#000000" stroke="#000000" points="624.74,-222.61 622.46,-212.26 617.79,-221.77 624.74,-222.61"/>
</g>
<!-- errDiv -->
<g id="node24" class="node">
<title>errDiv</title>
<polygon fill="#fde2e2" stroke="#000000" points="736.34,-116.89 554.1,-116.89 507.22,-61.89 689.46,-61.89 736.34,-116.89"/>
<text xml:space="preserve" text-anchor="middle" x="621.78" y="-85.84" font-family="CMU Serif" font-size="14.00">Расходимость</text>
</g>
<!-- chkFinite&#45;&gt;errDiv -->
<g id="edge30" class="edge">
<title>chkFinite&#45;&gt;errDiv</title>
<path fill="none" stroke="#000000" d="M624.62,-155.96C624.25,-147.43 623.84,-137.81 623.44,-128.62"/>
<polygon fill="#000000" stroke="#000000" points="626.94,-128.68 623.01,-118.85 619.95,-128.99 626.94,-128.68"/>
<text xml:space="preserve" text-anchor="middle" x="633.89" y="-133.74" font-family="CMU Serif" font-size="12.00">нет</text>
</g>
<!-- incr -->
<g id="node25" class="node">
<title>incr</title>
<polygon fill="#ffffff" stroke="#000000" points="489.65,-107.39 415.9,-107.39 415.9,-71.39 489.65,-71.39 489.65,-107.39"/>
<text xml:space="preserve" text-anchor="start" x="423.9" y="-84.14" font-family="CMU Serif" font-size="14.00">n = n + 1</text>
</g>
<!-- chkFinite&#45;&gt;incr -->
<g id="edge32" class="edge">
<title>chkFinite&#45;&gt;incr</title>
<path fill="none" stroke="#000000" d="M590.46,-164.5C552.58,-145.04 497.78,-116.89 497.78,-116.89 497.78,-116.89 495.56,-115.59 492.11,-113.55"/>
<polygon fill="#000000" stroke="#000000" points="493.99,-110.6 483.6,-108.54 490.44,-116.63 493.99,-110.6"/>
<text xml:space="preserve" text-anchor="middle" x="557.44" y="-133.74" font-family="CMU Serif" font-size="12.00">да</text>
</g>
<!-- errDiv&#45;&gt;stop -->
<g id="edge31" class="edge">
<title>errDiv&#45;&gt;stop</title>
<path fill="none" stroke="#000000" d="M567.24,-61.54C551.87,-53.97 535.5,-45.91 521.36,-38.95"/>
<polygon fill="#000000" stroke="#000000" points="522.92,-35.82 512.4,-34.54 519.83,-42.1 522.92,-35.82"/>
</g>
<!-- incr&#45;&gt;loopCond -->
<g id="edge33" class="edge">
<title>incr&#45;&gt;loopCond</title>
<path fill="none" stroke="#000000" d="M457.94,-107.66C471.97,-154.61 509.78,-281.14 509.78,-281.14 509.78,-281.14 516.53,-362.01 520.66,-411.45"/>
<polygon fill="#000000" stroke="#000000" points="517.15,-411.5 521.47,-421.17 524.12,-410.92 517.15,-411.5"/>
</g>
<!-- output&#45;&gt;stop -->
<g id="edge34" class="edge">
<title>output&#45;&gt;stop</title>
<path fill="none" stroke="#000000" d="M361.99,-280.9C364.05,-256.15 366.78,-223.14 366.78,-223.14 366.78,-223.14 366.78,-223.14 366.78,-88.39 366.78,-88.39 406.78,-61.89 406.78,-61.89 406.78,-61.89 427.7,-50.63 447.74,-39.84"/>
<polygon fill="#000000" stroke="#000000" points="449.23,-43.02 456.38,-35.19 445.91,-36.85 449.23,-43.02"/>
</g>
</g>
</svg>
