<?xml version="1.0" encoding="UTF-8" standalone="no"?>
<!DOCTYPE svg PUBLIC "-//W3C//DTD SVG 1.1//EN"
 "http://www.w3.org/Graphics/SVG/1.1/DTD/svg11.dtd">
<!-- Generated by graphviz version 14.1.5 (0)
 -->
<!-- Title: IterEq Pages: 1 -->
<svg width="801pt" height="1487pt"
 viewBox="0.00 0.00 801.00 1487.00" xmlns="http://www.w3.org/2000/svg" xmlns:xlink="http://www.w3.org/1999/xlink">
<g id="graph0" class="graph" transform="scale(1 1) rotate(0) translate(4 1483.03)">
<title>IterEq</title>
<polygon fill="white" stroke="none" points="-4,4 -4,-1483.03 796.78,-1483.03 796.78,4 -4,4"/>
<!-- start -->
<g id="node1" class="node">
<title>start</title>
<ellipse fill="#e6eefc" stroke="#000000" cx="146.56" cy="-1459.59" rx="46.85" ry="19.45"/>
<text xml:space="preserve" text-anchor="middle" x="146.56" y="-1456.04" font-family="CMU Serif" font-size="14.00">Начало</text>
</g>
<!-- input -->
<g id="node2" class="node">
<title>input</title>
<polygon fill="#f5f5f5" stroke="#000000" points="274.34,-1417.14 71.07,-1417.14 18.78,-1362.14 222.05,-1362.14 274.34,-1417.14"/>
<text xml:space="preserve" text-anchor="middle" x="146.56" y="-1386.09" font-family="CMU Serif" font-size="14.00">Ввод: f(x), a, b, ε</text>
</g>
<!-- start&#45;&gt;input -->
<g id="edge1" class="edge">
<title>start&#45;&gt;input</title>
<path fill="none" stroke="#000000" d="M146.56,-1439.66C146.56,-1436.24 146.56,-1432.57 146.56,-1428.83"/>
<polygon fill="#000000" stroke="#000000" points="150.06,-1429.1 146.56,-1419.1 143.06,-1429.1 150.06,-1429.1"/>
</g>
<!-- maxDf -->
<g id="node3" class="node">
<title>maxDf</title>
<polygon fill="#ffffff" stroke="#000000" points="217.19,-1339.14 75.94,-1339.14 75.94,-1303.14 217.19,-1303.14 217.19,-1339.14"/>
<text xml:space="preserve" text-anchor="start" x="83.94" y="-1318.59" font-family="CMU Serif" font-size="14.00">M = max</text>
<text xml:space="preserve" text-anchor="start" x="140.19" y="-1318.59" font-family="CMU Serif" baseline-shift="sub" font-size="14.00">[a,b]</text>
<text xml:space="preserve" text-anchor="start" x="164.94" y="-1318.59" font-family="CMU Serif" font-size="14.00"> |f&#39;(x)|</text>
</g>
<!-- input&#45;&gt;maxDf -->
<g id="edge2" class="edge">
<title>input&#45;&gt;maxDf</title>
<path fill="none" stroke="#000000" d="M146.56,-1361.98C146.56,-1358.27 146.56,-1354.44 146.56,-1350.7"/>
<polygon fill="#000000" stroke="#000000" points="150.06,-1350.77 146.56,-1340.77 143.06,-1350.77 150.06,-1350.77"/>
</g>
<!-- chkM -->
<g id="node4" class="node">
<title>chkM</title>
<polygon fill="#fff7d1" stroke="#000000" points="146.56,-1280.14 52.56,-1252.64 146.56,-1225.14 240.56,-1252.64 146.56,-1280.14"/>
<text xml:space="preserve" text-anchor="start" x="107.56" y="-1247.39" font-family="CMU Serif" font-size="14.00">M конечен?</text>
</g>
<!-- maxDf&#45;&gt;chkM -->
<g id="edge3" class="edge">
<title>maxDf&#45;&gt;chkM</title>
<path fill="none" stroke="#000000" d="M146.56,-1302.67C146.56,-1299.28 146.56,-1295.61 146.56,-1291.85"/>
<polygon fill="#000000" stroke="#000000" points="150.06,-1292.03 146.56,-1282.03 143.06,-1292.03 150.06,-1292.03"/>
</g>
<!-- errM -->
<g id="node5" class="node">
<title>errM</title>
<polygon fill="#fde2e2" stroke="#000000" points="229.12,-1119.89 46.88,-1119.89 0,-1064.89 182.24,-1064.89 229.12,-1119.89"/>
<text xml:space="preserve" text-anchor="middle" x="114.56" y="-1088.84" font-family="CMU Serif" font-size="14.00">Расходимость</text>
</g>
<!-- chkM&#45;&gt;errM -->
<g id="edge4" class="edge">
<title>chkM&#45;&gt;errM</title>
<path fill="none" stroke="#000000" d="M141.42,-1226.22C136.24,-1200.61 128.19,-1160.79 122.25,-1131.43"/>
<polygon fill="#000000" stroke="#000000" points="125.72,-1130.93 120.31,-1121.83 118.86,-1132.32 125.72,-1130.93"/>
<text xml:space="preserve" text-anchor="middle" x="148.22" y="-1202.74" font-family="CMU Serif" font-size="12.00">нет</text>
</g>
<!-- sign -->
<g id="node6" class="node">
<title>sign</title>
<polygon fill="#fff7d1" stroke="#000000" points="272.56,-1185.89 158.31,-1158.39 272.56,-1130.89 386.81,-1158.39 272.56,-1185.89"/>
<text xml:space="preserve" text-anchor="start" x="223.44" y="-1153.14" font-family="CMU Serif" font-size="14.00">f&#39;((a+b)/2) ≥ 0?</text>
</g>
<!-- chkM&#45;&gt;sign -->
<g id="edge6" class="edge">
<title>chkM&#45;&gt;sign</title>
<path fill="none" stroke="#000000" d="M172.67,-1232.53C190.96,-1219.13 215.67,-1201.05 235.93,-1186.21"/>
<polygon fill="#000000" stroke="#000000" points="237.96,-1189.06 243.96,-1180.33 233.82,-1183.42 237.96,-1189.06"/>
<text xml:space="preserve" text-anchor="middle" x="227.97" y="-1202.74" font-family="CMU Serif" font-size="12.00">да</text>
</g>
<!-- stop -->
<g id="node23" class="node">
<title>stop</title>
<ellipse fill="#e6eefc" stroke="#000000" cx="380.56" cy="-19.45" rx="39.95" ry="19.45"/>
<text xml:space="preserve" text-anchor="middle" x="380.56" y="-15.9" font-family="CMU Serif" font-size="14.00">Конец</text>
</g>
<!-- errM&#45;&gt;stop -->
<g id="edge5" class="edge">
<title>errM&#45;&gt;stop</title>
<path fill="none" stroke="#000000" d="M105.07,-1064.65C96.28,-1039.9 84.56,-1006.89 84.56,-1006.89 84.56,-1006.89 84.56,-1006.89 84.56,-88.39 84.56,-88.39 250.18,-50.37 333.65,-31.21"/>
<polygon fill="#000000" stroke="#000000" points="334.42,-34.63 343.38,-28.98 332.85,-27.81 334.42,-34.63"/>
</g>
<!-- lamNeg -->
<g id="node7" class="node">
<title>lamNeg</title>
<polygon fill="#ffffff" stroke="#000000" points="412.19,-1053.89 330.94,-1053.89 330.94,-1017.89 412.19,-1017.89 412.19,-1053.89"/>
<text xml:space="preserve" text-anchor="start" x="338.94" y="-1030.64" font-family="CMU Serif" font-size="14.00">λ = −1 / M</text>
</g>
<!-- sign&#45;&gt;lamNeg -->
<g id="edge7" class="edge">
<title>sign&#45;&gt;lamNeg</title>
<path fill="none" stroke="#000000" d="M290.95,-1135.01C307.78,-1114.52 332.68,-1084.21 350.35,-1062.71"/>
<polygon fill="#000000" stroke="#000000" points="352.83,-1065.21 356.47,-1055.26 347.42,-1060.76 352.83,-1065.21"/>
<text xml:space="preserve" text-anchor="middle" x="354.76" y="-1089.62" font-family="CMU Serif" font-size="12.00">да</text>
</g>
<!-- lamPos -->
<g id="node8" class="node">
<title>lamPos</title>
<polygon fill="#ffffff" stroke="#000000" points="313.19,-1053.89 231.94,-1053.89 231.94,-1017.89 313.19,-1017.89 313.19,-1053.89"/>
<text xml:space="preserve" text-anchor="start" x="239.94" y="-1030.64" font-family="CMU Serif" font-size="14.00">λ = +1 / M</text>
</g>
<!-- sign&#45;&gt;lamPos -->
<g id="edge8" class="edge">
<title>sign&#45;&gt;lamPos</title>
<path fill="none" stroke="#000000" d="M272.56,-1130.65C272.56,-1111.36 272.56,-1085.34 272.56,-1065.61"/>
<polygon fill="#000000" stroke="#000000" points="276.06,-1065.77 272.56,-1055.77 269.06,-1065.77 276.06,-1065.77"/>
<text xml:space="preserve" text-anchor="middle" x="282.31" y="-1089.62" font-family="CMU Serif" font-size="12.00">нет</text>
</g>
<!-- qCalc -->
<g id="node9" class="node">
<title>qCalc</title>
<polygon fill="#ffffff" stroke="#000000" points="457.56,-994.89 285.56,-994.89 285.56,-958.89 457.56,-958.89 457.56,-994.89"/>
<text xml:space="preserve" text-anchor="start" x="293.56" y="-974.34" font-family="CMU Serif" font-size="14.00">q = max</text>
<text xml:space="preserve" text-anchor="start" x="345.31" y="-974.34" font-family="CMU Serif" baseline-shift="sub" font-size="14.00">[a,b]</text>
<text xml:space="preserve" text-anchor="start" x="370.06" y="-974.34" font-family="CMU Serif" font-size="14.00"> |1 + λ·f&#39;(x)|</text>
</g>
<!-- lamNeg&#45;&gt;qCalc -->
<g id="edge9" class="edge">
<title>lamNeg&#45;&gt;qCalc</title>
<path fill="none" stroke="#000000" d="M371.56,-1017.48C371.56,-1014.05 371.56,-1010.38 371.56,-1006.69"/>
<polygon fill="#000000" stroke="#000000" points="375.06,-1006.71 371.56,-996.71 368.06,-1006.71 375.06,-1006.71"/>
</g>
<!-- lamPos&#45;&gt;qCalc -->
<g id="edge10" class="edge">
<title>lamPos&#45;&gt;qCalc</title>
<path fill="none" stroke="#000000" d="M302.8,-1017.48C311.92,-1012.23 322.07,-1006.39 331.71,-1000.84"/>
<polygon fill="#000000" stroke="#000000" points="333.27,-1003.97 340.19,-995.95 329.78,-997.91 333.27,-1003.97"/>
</g>
<!-- chkQ -->
<g id="node10" class="node">
<title>chkQ</title>
<polygon fill="#fff7d1" stroke="#000000" points="404.56,-935.89 266.31,-908.39 404.56,-880.89 542.81,-908.39 404.56,-935.89"/>
<text xml:space="preserve" text-anchor="start" x="343.44" y="-903.14" font-family="CMU Serif" font-size="14.00">q &lt; 1 и q конечен?</text>
</g>
<!-- qCalc&#45;&gt;chkQ -->
<g id="edge11" class="edge">
<title>qCalc&#45;&gt;chkQ</title>
<path fill="none" stroke="#000000" d="M380.23,-958.42C382.45,-953.94 384.92,-948.96 387.41,-943.95"/>
<polygon fill="#000000" stroke="#000000" points="390.49,-945.62 391.8,-935.1 384.22,-942.5 390.49,-945.62"/>
</g>
<!-- errQ -->
<g id="node11" class="node">
<title>errQ</title>
<polygon fill="#fde2e2" stroke="#000000" points="792.78,-794.64 536.32,-794.64 470.35,-700.64 726.8,-700.64 792.78,-794.64"/>
<text xml:space="preserve" text-anchor="middle" x="631.56" y="-753.84" font-family="CMU Serif" font-size="14.00">Условие сходимости</text>
<text xml:space="preserve" text-anchor="middle" x="631.56" y="-734.34" font-family="CMU Serif" font-size="14.00">не выполнено</text>
</g>
<!-- chkQ&#45;&gt;errQ -->
<g id="edge12" class="edge">
<title>chkQ&#45;&gt;errQ</title>
<path fill="none" stroke="#000000" d="M434.24,-886.64C464.96,-865.15 514.2,-830.71 555.81,-801.62"/>
<polygon fill="#000000" stroke="#000000" points="557.68,-804.58 563.87,-795.98 553.67,-798.85 557.68,-804.58"/>
<text xml:space="preserve" text-anchor="middle" x="489.57" y="-858.49" font-family="CMU Serif" font-size="12.00">нет</text>
</g>
<!-- x0 -->
<g id="node12" class="node">
<title>x0</title>
<polygon fill="#ffffff" stroke="#000000" points="431.56,-841.64 377.56,-841.64 377.56,-805.64 431.56,-805.64 431.56,-841.64"/>
<text xml:space="preserve" text-anchor="start" x="385.81" y="-821.09" font-family="CMU Serif" font-size="14.00">x</text>
<text xml:space="preserve" text-anchor="start" x="393.31" y="-821.09" font-family="CMU Serif" baseline-shift="sub" font-size="14.00">0</text>
<text xml:space="preserve" text-anchor="start" x="400.06" y="-821.09" font-family="CMU Serif" font-size="14.00"> = a</text>
</g>
<!-- chkQ&#45;&gt;x0 -->
<g id="edge14" class="edge">
<title>chkQ&#45;&gt;x0</title>
<path fill="none" stroke="#000000" d="M404.56,-880.75C404.56,-872.05 404.56,-862.34 404.56,-853.48"/>
<polygon fill="#000000" stroke="#000000" points="408.06,-853.61 404.56,-843.61 401.06,-853.61 408.06,-853.61"/>
<text xml:space="preserve" text-anchor="middle" x="411.69" y="-858.49" font-family="CMU Serif" font-size="12.00">да</text>
</g>
<!-- errQ&#45;&gt;stop -->
<g id="edge13" class="edge">
<title>errQ&#45;&gt;stop</title>
<path fill="none" stroke="#000000" d="M642.22,-700.22C650.85,-662.67 661.56,-616.02 661.56,-616.02 661.56,-616.02 661.56,-616.02 661.56,-88.39 661.56,-88.39 642.56,-61.89 642.56,-61.89 642.56,-61.89 505.38,-40.19 429.55,-28.19"/>
<polygon fill="#000000" stroke="#000000" points="430.3,-24.77 419.87,-26.66 429.2,-31.68 430.3,-24.77"/>
</g>
<!-- chkF2 -->
<g id="node13" class="node">
<title>chkF2</title>
<polygon fill="#fff7d1" stroke="#000000" points="404.56,-689.64 291.81,-662.14 404.56,-634.64 517.31,-662.14 404.56,-689.64"/>
<text xml:space="preserve" text-anchor="start" x="356.19" y="-659.59" font-family="CMU Serif" font-size="14.00">f(x</text>
<text xml:space="preserve" text-anchor="start" x="372.69" y="-659.59" font-family="CMU Serif" baseline-shift="sub" font-size="14.00">0</text>
<text xml:space="preserve" text-anchor="start" x="379.44" y="-659.59" font-family="CMU Serif" font-size="14.00">)·f&#39;&#39;(x</text>
<text xml:space="preserve" text-anchor="start" x="411.69" y="-659.59" font-family="CMU Serif" baseline-shift="sub" font-size="14.00">0</text>
<text xml:space="preserve" text-anchor="start" x="418.44" y="-659.59" font-family="CMU Serif" font-size="14.00">) &lt; 0?</text>
</g>
<!-- x0&#45;&gt;chkF2 -->
<g id="edge15" class="edge">
<title>x0&#45;&gt;chkF2</title>
<path fill="none" stroke="#000000" d="M404.56,-805.27C404.56,-780.53 404.56,-734.51 404.56,-701.53"/>
<polygon fill="#000000" stroke="#000000" points="408.06,-701.55 404.56,-691.55 401.06,-701.55 408.06,-701.55"/>
</g>
<!-- x0b -->
<g id="node14" class="node">
<title>x0b</title>
<polygon fill="#ffffff" stroke="#000000" points="481.69,-595.39 427.44,-595.39 427.44,-559.39 481.69,-559.39 481.69,-595.39"/>
<text xml:space="preserve" text-anchor="start" x="435.44" y="-574.84" font-family="CMU Serif" font-size="14.00">x</text>
<text xml:space="preserve" text-anchor="start" x="442.94" y="-574.84" font-family="CMU Serif" baseline-shift="sub" font-size="14.00">0</text>
<text xml:space="preserve" text-anchor="start" x="449.69" y="-574.84" font-family="CMU Serif" font-size="14.00"> = b</text>
</g>
<!-- chkF2&#45;&gt;x0b -->
<g id="edge16" class="edge">
<title>chkF2&#45;&gt;x0b</title>
<path fill="none" stroke="#000000" d="M418.76,-637.65C424.78,-627.69 431.83,-616.01 438.08,-605.67"/>
<polygon fill="#000000" stroke="#000000" points="441.03,-607.55 443.21,-597.18 435.04,-603.93 441.03,-607.55"/>
<text xml:space="preserve" text-anchor="middle" x="444.09" y="-612.24" font-family="CMU Serif" font-size="12.00">да</text>
</g>
<!-- firstStep -->
<g id="node15" class="node">
<title>firstStep</title>
<polygon fill="#ffffff" stroke="#000000" points="498.19,-536.39 326.94,-536.39 326.94,-500.39 498.19,-500.39 498.19,-536.39"/>
<text xml:space="preserve" text-anchor="start" x="334.94" y="-515.84" font-family="CMU Serif" font-size="14.00">x</text>
<text xml:space="preserve" text-anchor="start" x="342.44" y="-515.84" font-family="CMU Serif" baseline-shift="sub" font-size="14.00">n+1</text>
<text xml:space="preserve" text-anchor="start" x="363.44" y="-515.84" font-family="CMU Serif" font-size="14.00"> = x</text>
<text xml:space="preserve" text-anchor="start" x="386.69" y="-515.84" font-family="CMU Serif" baseline-shift="sub" font-size="14.00">n</text>
<text xml:space="preserve" text-anchor="start" x="394.19" y="-515.84" font-family="CMU Serif" font-size="14.00"> + λ·f(x</text>
<text xml:space="preserve" text-anchor="start" x="437.69" y="-515.84" font-family="CMU Serif" baseline-shift="sub" font-size="14.00">n</text>
<text xml:space="preserve" text-anchor="start" x="445.19" y="-515.84" font-family="CMU Serif" font-size="14.00">); n = 0</text>
</g>
<!-- chkF2&#45;&gt;firstStep -->
<g id="edge17" class="edge">
<title>chkF2&#45;&gt;firstStep</title>
<path fill="none" stroke="#000000" d="M402.36,-634.78C400.83,-616.48 399.06,-595.39 399.06,-595.39 399.06,-595.39 399.06,-559.39 399.06,-559.39 399.06,-559.39 400.88,-553.99 403.19,-547.16"/>
<polygon fill="#000000" stroke="#000000" points="406.39,-548.61 406.27,-538.02 399.76,-546.38 406.39,-548.61"/>
<text xml:space="preserve" text-anchor="middle" x="408.81" y="-574.62" font-family="CMU Serif" font-size="12.00">нет</text>
</g>
<!-- x0b&#45;&gt;firstStep -->
<g id="edge18" class="edge">
<title>x0b&#45;&gt;firstStep</title>
<path fill="none" stroke="#000000" d="M441.73,-558.98C438.64,-554.78 435.26,-550.2 431.94,-545.7"/>
<polygon fill="#000000" stroke="#000000" points="434.96,-543.89 426.21,-537.91 429.32,-548.04 434.96,-543.89"/>
</g>
<!-- loopCond -->
<g id="node16" class="node">
<title>loopCond</title>
<polygon fill="#fff7d1" stroke="#000000" points="412.56,-477.39 293.81,-449.89 412.56,-422.39 531.31,-449.89 412.56,-477.39"/>
<text xml:space="preserve" text-anchor="start" x="361.19" y="-447.34" font-family="CMU Serif" font-size="14.00">|x</text>
<text xml:space="preserve" text-anchor="start" x="376.19" y="-447.34" font-family="CMU Serif" baseline-shift="sub" font-size="14.00">n+1</text>
<text xml:space="preserve" text-anchor="start" x="397.19" y="-447.34" font-family="CMU Serif" font-size="14.00"> − x</text>
<text xml:space="preserve" text-anchor="start" x="420.44" y="-447.34" font-family="CMU Serif" baseline-shift="sub" font-size="14.00">n</text>
<text xml:space="preserve" text-anchor="start" x="427.94" y="-447.34" font-family="CMU Serif" font-size="14.00">| &gt; ε?</text>
</g>
<!-- firstStep&#45;&gt;loopCond -->
<g id="edge19" class="edge">
<title>firstStep&#45;&gt;loopCond</title>
<path fill="none" stroke="#000000" d="M412.56,-499.92C412.56,-496.53 412.56,-492.86 412.56,-489.1"/>
<polygon fill="#000000" stroke="#000000" points="416.06,-489.28 412.56,-479.28 409.06,-489.28 416.06,-489.28"/>
</g>
<!-- update -->
<g id="node17" class="node">
<title>update</title>
<polygon fill="#ffffff" stroke="#000000" points="536.19,-383.14 460.94,-383.14 460.94,-347.14 536.19,-347.14 536.19,-383.14"/>
<text xml:space="preserve" text-anchor="start" x="468.94" y="-362.59" font-family="CMU Serif" font-size="14.00">x</text>
<text xml:space="preserve" text-anchor="start" x="476.44" y="-362.59" font-family="CMU Serif" baseline-shift="sub" font-size="14.00">n</text>
<text xml:space="preserve" text-anchor="start" x="483.94" y="-362.59" font-family="CMU Serif" font-size="14.00"> = x</text>
<text xml:space="preserve" text-anchor="start" x="507.19" y="-362.59" font-family="CMU Serif" baseline-shift="sub" font-size="14.00">n+1</text>
</g>
<!-- loopCond&#45;&gt;update -->
<g id="edge21" class="edge">
<title>loopCond&#45;&gt;update</title>
<path fill="none" stroke="#000000" d="M435.16,-427.15C446.53,-416.21 460.38,-402.88 472.23,-391.47"/>
<polygon fill="#000000" stroke="#000000" points="474.58,-394.08 479.36,-384.62 469.72,-389.03 474.58,-394.08"/>
<text xml:space="preserve" text-anchor="middle" x="475.41" y="-399.99" font-family="CMU Serif" font-size="12.00">да</text>
</g>
<!-- output -->
<g id="node22" class="node">
<title>output</title>
<polygon fill="#f5f5f5" stroke="#000000" points="397.34,-336.14 160.67,-336.14 99.79,-281.14 336.45,-281.14 397.34,-336.14"/>
<text xml:space="preserve" text-anchor="start" x="184.81" y="-306.09" font-family="CMU Serif" font-size="14.00">Вывод: x* = x</text>
<text xml:space="preserve" text-anchor="start" x="274.81" y="-306.09" font-family="CMU Serif" baseline-shift="sub" font-size="14.00">n+1</text>
<text xml:space="preserve" text-anchor="start" x="295.81" y="-306.09" font-family="CMU Serif" font-size="14.00">, n</text>
</g>
<!-- loopCond&#45;&gt;output -->
<g id="edge20" class="edge">
<title>loopCond&#45;&gt;output</title>
<path fill="none" stroke="#000000" d="M387.65,-427.74C361.36,-405.42 319.52,-369.89 288.59,-343.63"/>
<polygon fill="#000000" stroke="#000000" points="291.22,-341.27 281.33,-337.47 286.69,-346.61 291.22,-341.27"/>
<text xml:space="preserve" text-anchor="middle" x="377.7" y="-399.99" font-family="CMU Serif" font-size="12.00">нет</text>
</g>
<!-- step -->
<g id="node18" class="node">
<title>step</title>
<polygon fill="#ffffff" stroke="#000000" points="577.94,-270.14 447.19,-270.14 447.19,-234.14 577.94,-234.14 577.94,-270.14"/>
<text xml:space="preserve" text-anchor="start" x="455.19" y="-249.59" font-family="CMU Serif" font-size="14.00">x</text>
<text xml:space="preserve" text-anchor="start" x="462.69" y="-249.59" font-family="CMU Serif" baseline-shift="sub" font-size="14.00">n+1</text>
<text xml:space="preserve" text-anchor="start" x="483.69" y="-249.59" font-family="CMU Serif" font-size="14.00"> = x</text>
<text xml:space="preserve" text-anchor="start" x="506.94" y="-249.59" font-family="CMU Serif" baseline-shift="sub" font-size="14.00">n</text>
<text xml:space="preserve" text-anchor="start" x="514.44" y="-249.59" font-family="CMU Serif" font-size="14.00"> + λ·f(x</text>
<text xml:space="preserve" text-anchor="start" x="557.94" y="-249.59" font-family="CMU Serif" baseline-shift="sub" font-size="14.00">n</text>
<text xml:space="preserve" text-anchor="start" x="565.44" y="-249.59" font-family="CMU Serif" font-size="14.00">)</text>
</g>
<!-- update&#45;&gt;step -->
<g id="edge22" class="edge">
<title>update&#45;&gt;step</title>
<path fill="none" stroke="#000000" d="M500.75,-346.8C502.95,-329.37 506.37,-302.2 508.97,-281.61"/>
<polygon fill="#000000" stroke="#000000" points="512.42,-282.22 510.2,-271.86 505.48,-281.35 512.42,-282.22"/>
</g>
<!-- chkFinite -->
<g id="node19" class="node">
<title>chkFinite</title>
<polygon fill="#fff7d1" stroke="#000000" points="521.56,-211.14 411.81,-183.64 521.56,-156.14 631.31,-183.64 521.56,-211.14"/>
<text xml:space="preserve" text-anchor="start" x="474.69" y="-181.09" font-family="CMU Serif" font-size="14.00">x</text>
<text xml:space="preserve" text-anchor="start" x="482.19" y="-181.09" font-family="CMU Serif" baseline-shift="sub" font-size="14.00">n+1</text>
<text xml:space="preserve" text-anchor="start" x="503.19" y="-181.09" font-family="CMU Serif" font-size="14.00"> конечен?</text>
</g>
<!-- step&#45;&gt;chkFinite -->
<g id="edge23" class="edge">
<title>step&#45;&gt;chkFinite</title>
<path fill="none" stroke="#000000" d="M514.93,-233.67C515.41,-230.06 515.95,-226.12 516.49,-222.1"/>
<polygon fill="#000000" stroke="#000000" points="519.95,-222.64 517.82,-212.26 513.01,-221.7 519.95,-222.64"/>
</g>
<!-- errDiv -->
<g id="node20" class="node">
<title>errDiv</title>
<polygon fill="#fde2e2" stroke="#000000" points="633.12,-116.89 450.88,-116.89 404,-61.89 586.24,-61.89 633.12,-116.89"/>
<text xml:space="preserve" text-anchor="middle" x="518.56" y="-85.84" font-family="CMU Serif" font-size="14.00">Расходимость</text>
</g>
<!-- chkFinite&#45;&gt;errDiv -->
<g id="edge24" class="edge">
<title>chkFinite&#45;&gt;errDiv</title>
<path fill="none" stroke="#000000" d="M520.69,-155.96C520.42,-147.43 520.1,-137.81 519.8,-128.62"/>
<polygon fill="#000000" stroke="#000000" points="523.31,-128.73 519.49,-118.85 516.31,-128.95 523.31,-128.73"/>
<text xml:space="preserve" text-anchor="middle" x="530.08" y="-133.74" font-family="CMU Serif" font-size="12.00">нет</text>
</g>
<!-- incr -->
<g id="node21" class="node">
<title>incr</title>
<polygon fill="#ffffff" stroke="#000000" points="386.44,-107.39 312.69,-107.39 312.69,-71.39 386.44,-71.39 386.44,-107.39"/>
<text xml:space="preserve" text-anchor="start" x="320.69" y="-84.14" font-family="CMU Serif" font-size="14.00">n = n + 1</text>
</g>
<!-- chkFinite&#45;&gt;incr -->
<g id="edge26" class="edge">
<title>chkFinite&#45;&gt;incr</title>
<path fill="none" stroke="#000000" d="M486.52,-164.5C448.93,-145.04 394.56,-116.89 394.56,-116.89 394.56,-116.89 392.34,-115.59 388.9,-113.55"/>
<polygon fill="#000000" stroke="#000000" points="390.77,-110.6 380.38,-108.54 387.22,-116.63 390.77,-110.6"/>
<text xml:space="preserve" text-anchor="middle" x="453.81" y="-133.74" font-family="CMU Serif" font-size="12.00">да</text>
</g>
<!-- errDiv&#45;&gt;stop -->
<g id="edge25" class="edge">
<title>errDiv&#45;&gt;stop</title>
<path fill="none" stroke="#000000" d="M464.02,-61.54C448.65,-53.97 432.28,-45.91 418.14,-38.95"/>
<polygon fill="#000000" stroke="#000000" points="419.7,-35.82 409.18,-34.54 416.61,-42.1 419.7,-35.82"/>
</g>
<!-- incr&#45;&gt;loopCond -->
<g id="edge27" class="edge">
<title>incr&#45;&gt;loopCond</title>
<path fill="none" stroke="#000000" d="M354,-107.66C366.06,-154.61 398.56,-281.14 398.56,-281.14 398.56,-281.14 405.31,-362.01 409.44,-411.45"/>
<polygon fill="#000000" stroke="#000000" points="405.93,-411.5 410.25,-421.17 412.9,-410.92 405.93,-411.5"/>
</g>
<!-- output&#45;&gt;stop -->
<g id="edge28" class="edge">
<title>output&#45;&gt;stop</title>
<path fill="none" stroke="#000000" d="M253.31,-280.9C257.7,-256.15 263.56,-223.14 263.56,-223.14 263.56,-223.14 263.56,-223.14 263.56,-88.39 263.56,-88.39 303.56,-61.89 303.56,-61.89 303.56,-61.89 324.49,-50.63 344.52,-39.84"/>
<polygon fill="#000000" stroke="#000000" points="346.01,-43.02 353.16,-35.19 342.7,-36.85 346.01,-43.02"/>
</g>
</g>
</svg>
