<?xml version="1.0" encoding="UTF-8" standalone="no"?>
<!DOCTYPE svg PUBLIC "-//W3C//DTD SVG 1.1//EN"
 "http://www.w3.org/Graphics/SVG/1.1/DTD/svg11.dtd">
<!-- Generated by graphviz version 14.1.5 (0)
 -->
<!-- Title: LeftRect Pages: 1 -->
<svg width="355pt" height="639pt"
 viewBox="0.00 0.00 355.00 639.00" xmlns="http://www.w3.org/2000/svg" xmlns:xlink="http://www.w3.org/1999/xlink">
<g id="graph0" class="graph" transform="scale(1 1) rotate(0) translate(4 635.28)">
<title>LeftRect</title>
<polygon fill="white" stroke="none" points="-4,4 -4,-635.28 350.91,-635.28 350.91,4 -4,4"/>
<!-- start -->
<g id="node1" class="node">
<title>start</title>
<ellipse fill="#e6eefc" stroke="#000000" cx="150" cy="-611.84" rx="46.85" ry="19.45"/>
<text xml:space="preserve" text-anchor="middle" x="150" y="-608.29" font-family="CMU Serif" font-size="14.00">Начало</text>
</g>
<!-- input -->
<g id="node2" class="node">
<title>input</title>
<polygon fill="#f5f5f5" stroke="#000000" points="280.12,-569.39 73.14,-569.39 19.89,-514.39 226.87,-514.39 280.12,-569.39"/>
<text xml:space="preserve" text-anchor="middle" x="150" y="-538.34" font-family="CMU Serif" font-size="14.00">Ввод: f(x), a, b, n</text>
</g>
<!-- start&#45;&gt;input -->
<g id="edge1" class="edge">
<title>start&#45;&gt;input</title>
<path fill="none" stroke="#000000" d="M150,-591.91C150,-588.49 150,-584.82 150,-581.08"/>
<polygon fill="#000000" stroke="#000000" points="153.5,-581.35 150,-571.35 146.5,-581.35 153.5,-581.35"/>
</g>
<!-- chkN -->
<g id="node3" class="node">
<title>chkN</title>
<polygon fill="#fff7d1" stroke="#000000" points="150,-491.39 95,-463.89 150,-436.39 205,-463.89 150,-491.39"/>
<text xml:space="preserve" text-anchor="start" x="130.5" y="-458.64" font-family="CMU Serif" font-size="14.00">n &gt; 0?</text>
</g>
<!-- input&#45;&gt;chkN -->
<g id="edge2" class="edge">
<title>input&#45;&gt;chkN</title>
<path fill="none" stroke="#000000" d="M150,-514.31C150,-510.67 150,-506.88 150,-503.08"/>
<polygon fill="#000000" stroke="#000000" points="153.5,-503.36 150,-493.36 146.5,-503.36 153.5,-503.36"/>
</g>
<!-- err -->
<g id="node4" class="node">
<title>err</title>
<polygon fill="#fde2e2" stroke="#000000" points="240.01,-350.14 49.11,-350.14 0,-295.14 190.9,-295.14 240.01,-350.14"/>
<text xml:space="preserve" text-anchor="middle" x="120" y="-319.09" font-family="CMU Serif" font-size="14.00">Ошибка: n ≤ 0</text>
</g>
<!-- chkN&#45;&gt;err -->
<g id="edge3" class="edge">
<title>chkN&#45;&gt;err</title>
<path fill="none" stroke="#000000" d="M144.78,-438.64C140.2,-417.38 133.47,-386.13 128.18,-361.57"/>
<polygon fill="#000000" stroke="#000000" points="131.63,-360.99 126.1,-351.95 124.79,-362.46 131.63,-360.99"/>
<text xml:space="preserve" text-anchor="middle" x="151.59" y="-413.99" font-family="CMU Serif" font-size="12.00">нет</text>
</g>
<!-- init -->
<g id="node5" class="node">
<title>init</title>
<polygon fill="#ffffff" stroke="#000000" points="338.63,-397.14 161.38,-397.14 161.38,-361.14 338.63,-361.14 338.63,-397.14"/>
<text xml:space="preserve" text-anchor="start" x="169.38" y="-373.89" font-family="CMU Serif" font-size="14.00">h = (b − a) / n; S = 0; i = 0</text>
</g>
<!-- chkN&#45;&gt;init -->
<g id="edge5" class="edge">
<title>chkN&#45;&gt;init</title>
<path fill="none" stroke="#000000" d="M170.24,-446.15C184.69,-434.19 204.34,-417.92 220.53,-404.53"/>
<polygon fill="#000000" stroke="#000000" points="222.47,-407.47 227.94,-398.4 218.01,-402.08 222.47,-407.47"/>
<text xml:space="preserve" text-anchor="middle" x="221.93" y="-413.99" font-family="CMU Serif" font-size="12.00">да</text>
</g>
<!-- stop -->
<g id="node10" class="node">
<title>stop</title>
<ellipse fill="#e6eefc" stroke="#000000" cx="149" cy="-19.45" rx="39.95" ry="19.45"/>
<text xml:space="preserve" text-anchor="middle" x="149" y="-15.9" font-family="CMU Serif" font-size="14.00">Конец</text>
</g>
<!-- err&#45;&gt;stop -->
<g id="edge4" class="edge">
<title>err&#45;&gt;stop</title>
<path fill="none" stroke="#000000" d="M124.12,-294.74C129.15,-261.85 137,-210.52 137,-210.52 137,-210.52 137,-210.52 137,-88.39 137,-88.39 140.51,-68.51 143.74,-50.26"/>
<polygon fill="#000000" stroke="#000000" points="147.17,-50.96 145.46,-40.5 140.28,-49.74 147.17,-50.96"/>
</g>
<!-- loop -->
<g id="node6" class="node">
<title>loop</title>
<polygon fill="#fff7d1" stroke="#000000" points="253,-284.14 202.5,-256.64 253,-229.14 303.5,-256.64 253,-284.14"/>
<text xml:space="preserve" text-anchor="start" x="235.75" y="-251.39" font-family="CMU Serif" font-size="14.00">i &lt; n?</text>
</g>
<!-- init&#45;&gt;loop -->
<g id="edge6" class="edge">
<title>init&#45;&gt;loop</title>
<path fill="none" stroke="#000000" d="M250.43,-360.88C250.86,-343.89 251.52,-317.38 252.06,-295.48"/>
<polygon fill="#000000" stroke="#000000" points="255.56,-295.8 252.31,-285.71 248.56,-295.62 255.56,-295.8"/>
</g>
<!-- body -->
<g id="node7" class="node">
<title>body</title>
<polygon fill="#ffffff" stroke="#000000" points="255.25,-189.89 168.75,-189.89 168.75,-139.89 255.25,-139.89 255.25,-189.89"/>
<text xml:space="preserve" text-anchor="start" x="179" y="-173.59" font-family="CMU Serif" font-size="14.00">x</text>
<text xml:space="preserve" text-anchor="start" x="186.5" y="-173.59" font-family="CMU Serif" baseline-shift="sub" font-size="14.00">i</text>
<text xml:space="preserve" text-anchor="start" x="189.5" y="-173.59" font-family="CMU Serif" font-size="14.00"> = a + i·h</text>
<text xml:space="preserve" text-anchor="start" x="176.75" y="-159.59" font-family="CMU Serif" font-size="14.00">S = S + f(x</text>
<text xml:space="preserve" text-anchor="start" x="239.75" y="-159.59" font-family="CMU Serif" baseline-shift="sub" font-size="14.00">i</text>
<text xml:space="preserve" text-anchor="start" x="242.75" y="-159.59" font-family="CMU Serif" font-size="14.00">)</text>
<text xml:space="preserve" text-anchor="start" x="188.38" y="-145.59" font-family="CMU Serif" font-size="14.00">i = i + 1</text>
</g>
<!-- loop&#45;&gt;body -->
<g id="edge7" class="edge">
<title>loop&#45;&gt;body</title>
<path fill="none" stroke="#000000" d="M237.88,-236.89C230.32,-227.52 222.75,-218.14 222.75,-218.14 222.75,-218.14 221.2,-210.58 219.27,-201.22"/>
<polygon fill="#000000" stroke="#000000" points="222.75,-200.75 217.31,-191.66 215.89,-202.16 222.75,-200.75"/>
<text xml:space="preserve" text-anchor="middle" x="229.88" y="-206.74" font-family="CMU Serif" font-size="12.00">да</text>
</g>
<!-- mul -->
<g id="node8" class="node">
<title>mul</title>
<polygon fill="#ffffff" stroke="#000000" points="337,-182.89 273,-182.89 273,-146.89 337,-146.89 337,-182.89"/>
<text xml:space="preserve" text-anchor="start" x="281" y="-159.64" font-family="CMU Serif" font-size="14.00">I = S · h</text>
</g>
<!-- loop&#45;&gt;mul -->
<g id="edge9" class="edge">
<title>loop&#45;&gt;mul</title>
<path fill="none" stroke="#000000" d="M264.8,-235.28C272.06,-222.75 281.45,-206.54 289.33,-192.94"/>
<polygon fill="#000000" stroke="#000000" points="292.26,-194.87 294.24,-184.47 286.2,-191.36 292.26,-194.87"/>
<text xml:space="preserve" text-anchor="middle" x="293.41" y="-206.74" font-family="CMU Serif" font-size="12.00">нет</text>
</g>
<!-- body&#45;&gt;loop -->
<g id="edge8" class="edge">
<title>body&#45;&gt;loop</title>
<path fill="none" stroke="#000000" d="M229.37,-190.2C233.63,-196.17 237,-200.89 237,-200.89 237,-200.89 239.79,-210.43 243.04,-221.54"/>
<polygon fill="#000000" stroke="#000000" points="239.63,-222.35 245.79,-230.97 246.35,-220.39 239.63,-222.35"/>
</g>
<!-- output -->
<g id="node9" class="node">
<title>output</title>
<polygon fill="#f5f5f5" stroke="#000000" points="346.91,-116.89 227.75,-116.89 197.1,-61.89 316.26,-61.89 346.91,-116.89"/>
<text xml:space="preserve" text-anchor="start" x="243.88" y="-84.14" font-family="CMU Serif" font-size="14.00">Вывод: I</text>
</g>
<!-- mul&#45;&gt;output -->
<g id="edge10" class="edge">
<title>mul&#45;&gt;output</title>
<path fill="none" stroke="#000000" d="M297.18,-146.47C294.61,-140.73 291.64,-134.12 288.66,-127.48"/>
<polygon fill="#000000" stroke="#000000" points="291.94,-126.24 284.65,-118.55 285.55,-129.11 291.94,-126.24"/>
</g>
<!-- output&#45;&gt;stop -->
<g id="edge11" class="edge">
<title>output&#45;&gt;stop</title>
<path fill="none" stroke="#000000" d="M223.39,-61.54C210.38,-54.35 196.57,-46.72 184.42,-40.01"/>
<polygon fill="#000000" stroke="#000000" points="186.43,-37.12 175.98,-35.35 183.04,-43.25 186.43,-37.12"/>
</g>
</g>
</svg>
