<?xml version="1.0" encoding="UTF-8" standalone="no"?>
<!DOCTYPE svg PUBLIC "-//W3C//DTD SVG 1.1//EN"
 "http://www.w3.org/Graphics/SVG/1.1/DTD/svg11.dtd">
<!-- Generated by graphviz version 14.1.5 (0)
 -->
<!-- Title: LimitAtEndpoint Pages: 1 -->
<svg width="777pt" height="2107pt"
 viewBox="0.00 0.00 777.00 2107.00" xmlns="http://www.w3.org/2000/svg" xmlns:xlink="http://www.w3.org/1999/xlink">
<g id="graph0" class="graph" transform="scale(1 1) rotate(0) translate(4 2102.78)">
<title>LimitAtEndpoint</title>
<polygon fill="white" stroke="none" points="-4,4 -4,-2102.78 773.16,-2102.78 773.16,4 -4,4"/>
<!-- start -->
<g id="node1" class="node">
<title>start</title>
<ellipse fill="#e6eefc" stroke="#000000" cx="401.66" cy="-2079.34" rx="124.8" ry="19.45"/>
<text xml:space="preserve" text-anchor="middle" x="401.66" y="-2075.79" font-family="CMU Serif" font-size="14.00">Начало: limitAtEndpoint</text>
</g>
<!-- input -->
<g id="node2" class="node">
<title>input</title>
<polygon fill="#f5f5f5" stroke="#000000" points="571.42,-2042.89 301.36,-2042.89 231.89,-1948.89 501.95,-1948.89 571.42,-2042.89"/>
<text xml:space="preserve" text-anchor="start" x="327.78" y="-2000.39" font-family="CMU Serif" font-size="14.00">Ввод: integ, f, c, other,</text>
<text xml:space="preserve" text-anchor="start" x="337.53" y="-1980.89" font-family="CMU Serif" font-size="14.00">side ∈ {+1, −1}, eps</text>
</g>
<!-- start&#45;&gt;input -->
<g id="edge1" class="edge">
<title>start&#45;&gt;input</title>
<path fill="none" stroke="#000000" d="M401.66,-2059.45C401.66,-2057.89 401.66,-2056.27 401.66,-2054.61"/>
<polygon fill="#000000" stroke="#000000" points="405.16,-2054.63 401.66,-2044.63 398.16,-2054.63 405.16,-2054.63"/>
</g>
<!-- init -->
<g id="node3" class="node">
<title>init</title>
<polygon fill="#ffffff" stroke="#000000" points="503.78,-1931.89 299.53,-1931.89 299.53,-1797.89 503.78,-1797.89 503.78,-1931.89"/>
<text xml:space="preserve" text-anchor="start" x="329.28" y="-1915.59" font-family="CMU Serif" font-size="14.00">d</text>
<text xml:space="preserve" text-anchor="start" x="337.53" y="-1915.59" font-family="CMU Serif" baseline-shift="sub" font-size="14.00">0</text>
<text xml:space="preserve" text-anchor="start" x="344.28" y="-1915.59" font-family="CMU Serif" font-size="14.00"> = |other − c| · 0.01</text>
<text xml:space="preserve" text-anchor="start" x="380.66" y="-1901.59" font-family="CMU Serif" font-size="14.00">r = 0.5</text>
<text xml:space="preserve" text-anchor="start" x="349.53" y="-1887.59" font-family="CMU Serif" font-size="14.00">k</text>
<text xml:space="preserve" text-anchor="start" x="357.03" y="-1887.59" font-family="CMU Serif" baseline-shift="sub" font-size="14.00">maxShrinks</text>
<text xml:space="preserve" text-anchor="start" x="421.53" y="-1887.59" font-family="CMU Serif" font-size="14.00"> = 50</text>
<text xml:space="preserve" text-anchor="start" x="354.03" y="-1873.59" font-family="CMU Serif" font-size="14.00">k</text>
<text xml:space="preserve" text-anchor="start" x="361.53" y="-1873.59" font-family="CMU Serif" baseline-shift="sub" font-size="14.00">needStable</text>
<text xml:space="preserve" text-anchor="start" x="425.28" y="-1873.59" font-family="CMU Serif" font-size="14.00"> = 2</text>
<text xml:space="preserve" text-anchor="start" x="364.53" y="-1859.59" font-family="CMU Serif" font-size="14.00">kBig = 10</text>
<text xml:space="preserve" text-anchor="start" x="425.28" y="-1859.59" font-family="CMU Serif" baseline-shift="super" font-size="14.00">15</text>
<text xml:space="preserve" text-anchor="start" x="343.16" y="-1845.59" font-family="CMU Serif" font-size="14.00">stableTol = 3 · eps</text>
<text xml:space="preserve" text-anchor="start" x="307.53" y="-1831.59" font-family="CMU Serif" font-size="14.00">prevI = NaN; stableCount = 0</text>
<text xml:space="preserve" text-anchor="start" x="327.03" y="-1817.59" font-family="CMU Serif" font-size="14.00">lastValue = 0; lastN = 0</text>
<text xml:space="preserve" text-anchor="start" x="322.16" y="-1803.59" font-family="CMU Serif" font-size="14.00">lastRunge = 0; kStep = 0</text>
</g>
<!-- input&#45;&gt;init -->
<g id="edge2" class="edge">
<title>input&#45;&gt;init</title>
<path fill="none" stroke="#000000" d="M401.66,-1948.68C401.66,-1947.01 401.66,-1945.32 401.66,-1943.62"/>
<polygon fill="#000000" stroke="#000000" points="405.16,-1943.76 401.66,-1933.76 398.16,-1943.76 405.16,-1943.76"/>
</g>
<!-- chkLoop -->
<g id="node4" class="node">
<title>chkLoop</title>
<polygon fill="#fff7d1" stroke="#000000" points="401.66,-1780.89 255.16,-1753.39 401.66,-1725.89 548.16,-1753.39 401.66,-1780.89"/>
<text xml:space="preserve" text-anchor="start" x="336.41" y="-1750.84" font-family="CMU Serif" font-size="14.00">kStep &lt; k</text>
<text xml:space="preserve" text-anchor="start" x="396.41" y="-1750.84" font-family="CMU Serif" baseline-shift="sub" font-size="14.00">maxShrinks</text>
<text xml:space="preserve" text-anchor="start" x="460.91" y="-1750.84" font-family="CMU Serif" font-size="14.00">?</text>
</g>
<!-- init&#45;&gt;chkLoop -->
<g id="edge3" class="edge">
<title>init&#45;&gt;chkLoop</title>
<path fill="none" stroke="#000000" d="M401.66,-1797.67C401.66,-1795.96 401.66,-1794.26 401.66,-1792.59"/>
<polygon fill="#000000" stroke="#000000" points="405.16,-1792.69 401.66,-1782.69 398.16,-1792.69 405.16,-1792.69"/>
</g>
<!-- retInd -->
<g id="node5" class="node">
<title>retInd</title>
<polygon fill="#fde2e2" stroke="#000000" points="347.31,-1634.64 71.06,-1634.64 0,-1462.64 276.25,-1462.64 347.31,-1634.64"/>
<text xml:space="preserve" text-anchor="start" x="97.91" y="-1572.64" font-family="CMU Serif" font-size="14.00">status = indeterminate</text>
<text xml:space="preserve" text-anchor="start" x="118.16" y="-1553.14" font-family="CMU Serif" font-size="14.00">value = lastValue</text>
<text xml:space="preserve" text-anchor="start" x="144.41" y="-1533.64" font-family="CMU Serif" font-size="14.00">n = lastN</text>
<text xml:space="preserve" text-anchor="start" x="112.16" y="-1514.14" font-family="CMU Serif" font-size="14.00">runge = lastRunge</text>
</g>
<!-- chkLoop&#45;&gt;retInd -->
<g id="edge4" class="edge">
<title>chkLoop&#45;&gt;retInd</title>
<path fill="none" stroke="#000000" d="M365.39,-1732.33C334.02,-1714.97 293.66,-1692.64 293.66,-1692.64 293.66,-1692.64 274.96,-1670.36 252.33,-1643.39"/>
<polygon fill="#000000" stroke="#000000" points="255.28,-1641.46 246.17,-1636.05 249.91,-1645.96 255.28,-1641.46"/>
<text xml:space="preserve" text-anchor="middle" x="348.19" y="-1706.49" font-family="CMU Serif" font-size="12.00">нет</text>
</g>
<!-- comp -->
<g id="node6" class="node">
<title>comp</title>
<polygon fill="#ffffff" stroke="#000000" points="504.53,-1692.64 298.78,-1692.64 298.78,-1642.64 504.53,-1642.64 504.53,-1692.64"/>
<text xml:space="preserve" text-anchor="start" x="350.66" y="-1676.34" font-family="CMU Serif" font-size="14.00">σ = d</text>
<text xml:space="preserve" text-anchor="start" x="382.91" y="-1676.34" font-family="CMU Serif" baseline-shift="sub" font-size="14.00">0</text>
<text xml:space="preserve" text-anchor="start" x="389.66" y="-1676.34" font-family="CMU Serif" font-size="14.00"> · 0.5</text>
<text xml:space="preserve" text-anchor="start" x="421.16" y="-1676.34" font-family="CMU Serif" baseline-shift="super" font-size="14.00">kStep</text>
<text xml:space="preserve" text-anchor="start" x="306.78" y="-1662.34" font-family="CMU Serif" font-size="14.00">side &gt; 0: lo = c + σ; hi = other</text>
<text xml:space="preserve" text-anchor="start" x="310.16" y="-1648.34" font-family="CMU Serif" font-size="14.00">иначе:  lo = other; hi = c − σ</text>
</g>
<!-- chkLoop&#45;&gt;comp -->
<g id="edge6" class="edge">
<title>chkLoop&#45;&gt;comp</title>
<path fill="none" stroke="#000000" d="M401.66,-1725.43C401.66,-1718.75 401.66,-1711.49 401.66,-1704.46"/>
<polygon fill="#000000" stroke="#000000" points="405.16,-1704.51 401.66,-1694.51 398.16,-1704.51 405.16,-1704.51"/>
<text xml:space="preserve" text-anchor="middle" x="408.78" y="-1706.49" font-family="CMU Serif" font-size="12.00">да</text>
</g>
<!-- stop -->
<g id="node22" class="node">
<title>stop</title>
<ellipse fill="#e6eefc" stroke="#000000" cx="229.66" cy="-19.45" rx="39.95" ry="19.45"/>
<text xml:space="preserve" text-anchor="middle" x="229.66" y="-15.9" font-family="CMU Serif" font-size="14.00">Конец</text>
</g>
<!-- retInd&#45;&gt;stop -->
<g id="edge5" class="edge">
<title>retInd&#45;&gt;stop</title>
<path fill="none" stroke="#000000" d="M159.08,-1462.47C152.28,-1422.72 145.66,-1384.02 145.66,-1384.02 145.66,-1384.02 145.66,-1384.02 145.66,-140.89 145.66,-140.89 176.66,-55.89 176.66,-55.89 176.66,-55.89 186.33,-49.42 197.41,-42.01"/>
<polygon fill="#000000" stroke="#000000" points="199.25,-44.99 205.61,-36.52 195.36,-39.17 199.25,-44.99"/>
</g>
<!-- chkLoHi -->
<g id="node7" class="node">
<title>chkLoHi</title>
<polygon fill="#fff7d1" stroke="#000000" points="401.66,-1454.64 339.16,-1427.14 401.66,-1399.64 464.16,-1427.14 401.66,-1454.64"/>
<text xml:space="preserve" text-anchor="start" x="378.41" y="-1421.89" font-family="CMU Serif" font-size="14.00">lo &lt; hi?</text>
</g>
<!-- comp&#45;&gt;chkLoHi -->
<g id="edge7" class="edge">
<title>comp&#45;&gt;chkLoHi</title>
<path fill="none" stroke="#000000" d="M401.66,-1642.46C401.66,-1601 401.66,-1516.02 401.66,-1466.43"/>
<polygon fill="#000000" stroke="#000000" points="405.16,-1466.44 401.66,-1456.44 398.16,-1466.44 405.16,-1466.44"/>
</g>
<!-- retIndLo -->
<g id="node8" class="node">
<title>retIndLo</title>
<polygon fill="#fde2e2" stroke="#000000" points="504.31,-1311.39 228.06,-1311.39 157,-1178.39 433.25,-1178.39 504.31,-1311.39"/>
<text xml:space="preserve" text-anchor="start" x="254.91" y="-1259.14" font-family="CMU Serif" font-size="14.00">status = indeterminate</text>
<text xml:space="preserve" text-anchor="start" x="275.16" y="-1239.64" font-family="CMU Serif" font-size="14.00">value = lastValue</text>
<text xml:space="preserve" text-anchor="start" x="301.41" y="-1220.14" font-family="CMU Serif" font-size="14.00">n = lastN</text>
</g>
<!-- chkLoHi&#45;&gt;retIndLo -->
<g id="edge8" class="edge">
<title>chkLoHi&#45;&gt;retIndLo</title>
<path fill="none" stroke="#000000" d="M392.66,-1403.31C384.59,-1382.81 372.26,-1351.51 360.72,-1322.21"/>
<polygon fill="#000000" stroke="#000000" points="363.99,-1320.96 357.07,-1312.94 357.47,-1323.52 363.99,-1320.96"/>
<text xml:space="preserve" text-anchor="middle" x="397.33" y="-1380.24" font-family="CMU Serif" font-size="12.00">нет</text>
</g>
<!-- callRunge -->
<g id="node9" class="node">
<title>callRunge</title>
<polygon fill="#e6eefc" stroke="#000000" points="619.78,-1366.39 385.53,-1366.39 385.53,-1319.39 619.78,-1319.39 619.78,-1366.39"/>
<text xml:space="preserve" text-anchor="start" x="393.53" y="-1347.39" font-family="CMU Serif" font-size="14.00">inner = integ.rungeSolve(f, lo, hi)</text>
<text xml:space="preserve" text-anchor="start" x="396.91" y="-1327.89" font-family="CMU Serif" font-size="14.00">(см. блок&#45;схему правила Рунге)</text>
</g>
<!-- chkLoHi&#45;&gt;callRunge -->
<g id="edge10" class="edge">
<title>chkLoHi&#45;&gt;callRunge</title>
<path fill="none" stroke="#000000" d="M423.08,-1408.7C435.54,-1398.54 451.6,-1385.47 466.02,-1373.73"/>
<polygon fill="#000000" stroke="#000000" points="468.02,-1376.61 473.57,-1367.58 463.6,-1371.18 468.02,-1376.61"/>
<text xml:space="preserve" text-anchor="middle" x="471.3" y="-1380.24" font-family="CMU Serif" font-size="12.00">да</text>
</g>
<!-- retIndLo&#45;&gt;stop -->
<g id="edge9" class="edge">
<title>retIndLo&#45;&gt;stop</title>
<path fill="none" stroke="#000000" d="M278.15,-1178.04C236.3,-1125.54 184.66,-1060.77 184.66,-1060.77 184.66,-1060.77 184.66,-1060.77 184.66,-140.89 184.66,-140.89 205.37,-85.44 218.69,-49.79"/>
<polygon fill="#000000" stroke="#000000" points="221.97,-51.01 222.19,-40.42 215.42,-48.56 221.97,-51.01"/>
</g>
<!-- chkDiv -->
<g id="node10" class="node">
<title>chkDiv</title>
<polygon fill="#fff7d1" stroke="#000000" points="507.66,-1170.39 331.16,-1123.39 507.66,-1076.39 684.16,-1123.39 507.66,-1170.39"/>
<text xml:space="preserve" text-anchor="start" x="427.41" y="-1127.89" font-family="CMU Serif" font-size="14.00">inner.status = &quot;diverges&quot;</text>
<text xml:space="preserve" text-anchor="start" x="428.53" y="-1108.39" font-family="CMU Serif" font-size="14.00">∨ ¬isFinite(inner.value)?</text>
</g>
<!-- callRunge&#45;&gt;chkDiv -->
<g id="edge11" class="edge">
<title>callRunge&#45;&gt;chkDiv</title>
<path fill="none" stroke="#000000" d="M504.9,-1319.09C505.33,-1314.67 505.66,-1311.39 505.66,-1311.39 505.66,-1311.39 506.45,-1236.96 507.04,-1182.01"/>
<polygon fill="#000000" stroke="#000000" points="510.54,-1182.17 507.15,-1172.13 503.54,-1182.09 510.54,-1182.17"/>
</g>
<!-- retDiv -->
<g id="node11" class="node">
<title>retDiv</title>
<polygon fill="#fde2e2" stroke="#000000" points="461.88,-980.14 249.95,-980.14 195.43,-847.14 407.36,-847.14 461.88,-980.14"/>
<text xml:space="preserve" text-anchor="start" x="272.41" y="-927.89" font-family="CMU Serif" font-size="14.00">status = diverges</text>
<text xml:space="preserve" text-anchor="start" x="288.91" y="-908.39" font-family="CMU Serif" font-size="14.00">value = NaN</text>
<text xml:space="preserve" text-anchor="start" x="293.03" y="-888.89" font-family="CMU Serif" font-size="14.00">n = inner.n</text>
</g>
<!-- chkDiv&#45;&gt;retDiv -->
<g id="edge12" class="edge">
<title>chkDiv&#45;&gt;retDiv</title>
<path fill="none" stroke="#000000" d="M446.71,-1092.2C401.49,-1069.81 347.66,-1043.14 347.66,-1043.14 347.66,-1043.14 344.07,-1018.88 340.01,-991.44"/>
<polygon fill="#000000" stroke="#000000" points="343.53,-991.27 338.6,-981.89 336.6,-992.3 343.53,-991.27"/>
<text xml:space="preserve" text-anchor="middle" x="404.6" y="-1056.99" font-family="CMU Serif" font-size="12.00">да</text>
</g>
<!-- chkBig -->
<g id="node12" class="node">
<title>chkBig</title>
<polygon fill="#fff7d1" stroke="#000000" points="507.66,-1043.14 353.66,-1015.64 507.66,-988.14 661.66,-1015.64 507.66,-1043.14"/>
<text xml:space="preserve" text-anchor="start" x="438.66" y="-1010.39" font-family="CMU Serif" font-size="14.00">|inner.value| &gt; kBig?</text>
</g>
<!-- chkDiv&#45;&gt;chkBig -->
<g id="edge14" class="edge">
<title>chkDiv&#45;&gt;chkBig</title>
<path fill="none" stroke="#000000" d="M507.66,-1076.01C507.66,-1068.98 507.66,-1061.8 507.66,-1054.98"/>
<polygon fill="#000000" stroke="#000000" points="511.16,-1055.06 507.66,-1045.06 504.16,-1055.06 511.16,-1055.06"/>
<text xml:space="preserve" text-anchor="middle" x="517.41" y="-1056.99" font-family="CMU Serif" font-size="12.00">нет</text>
</g>
<!-- retDiv&#45;&gt;stop -->
<g id="edge13" class="edge">
<title>retDiv&#45;&gt;stop</title>
<path fill="none" stroke="#000000" d="M298.15,-846.84C269.06,-784.11 229.66,-699.14 229.66,-699.14 229.66,-699.14 229.66,-699.14 229.66,-140.89 229.66,-140.89 229.66,-86.2 229.66,-50.53"/>
<polygon fill="#000000" stroke="#000000" points="233.16,-50.78 229.66,-40.78 226.16,-50.78 233.16,-50.78"/>
</g>
<!-- retDivBig -->
<g id="node13" class="node">
<title>retDivBig</title>
<polygon fill="#fde2e2" stroke="#000000" points="538.88,-764.64 326.95,-764.64 272.43,-631.64 484.36,-631.64 538.88,-764.64"/>
<text xml:space="preserve" text-anchor="start" x="349.41" y="-712.39" font-family="CMU Serif" font-size="14.00">status = diverges</text>
<text xml:space="preserve" text-anchor="start" x="365.91" y="-692.89" font-family="CMU Serif" font-size="14.00">value = NaN</text>
<text xml:space="preserve" text-anchor="start" x="370.03" y="-673.39" font-family="CMU Serif" font-size="14.00">n = inner.n</text>
</g>
<!-- chkBig&#45;&gt;retDivBig -->
<g id="edge15" class="edge">
<title>chkBig&#45;&gt;retDivBig</title>
<path fill="none" stroke="#000000" d="M500.82,-989.2C488.23,-942.34 462.66,-847.14 462.66,-847.14 462.66,-847.14 449.03,-811.77 435.11,-775.61"/>
<polygon fill="#000000" stroke="#000000" points="438.39,-774.4 431.53,-766.33 431.86,-776.92 438.39,-774.4"/>
<text xml:space="preserve" text-anchor="middle" x="505.06" y="-910.87" font-family="CMU Serif" font-size="12.00">да</text>
</g>
<!-- upd -->
<g id="node14" class="node">
<title>upd</title>
<polygon fill="#ffffff" stroke="#000000" points="670.91,-839.14 494.41,-839.14 494.41,-772.64 670.91,-772.64 670.91,-839.14"/>
<text xml:space="preserve" text-anchor="start" x="508.41" y="-820.14" font-family="CMU Serif" font-size="14.00">lastValue = inner.value</text>
<text xml:space="preserve" text-anchor="start" x="534.66" y="-800.64" font-family="CMU Serif" font-size="14.00">lastN = inner.n</text>
<text xml:space="preserve" text-anchor="start" x="502.41" y="-781.14" font-family="CMU Serif" font-size="14.00">lastRunge = inner.runge</text>
</g>
<!-- chkBig&#45;&gt;upd -->
<g id="edge17" class="edge">
<title>chkBig&#45;&gt;upd</title>
<path fill="none" stroke="#000000" d="M516.7,-989.58C529.15,-955.11 551.74,-892.53 566.97,-850.34"/>
<polygon fill="#000000" stroke="#000000" points="570.25,-851.57 570.35,-840.98 563.66,-849.2 570.25,-851.57"/>
<text xml:space="preserve" text-anchor="middle" x="576.21" y="-910.87" font-family="CMU Serif" font-size="12.00">нет</text>
</g>
<!-- retDivBig&#45;&gt;stop -->
<g id="edge16" class="edge">
<title>retDivBig&#45;&gt;stop</title>
<path fill="none" stroke="#000000" d="M350.64,-631.29C306.77,-578.79 252.66,-514.02 252.66,-514.02 252.66,-514.02 252.66,-514.02 252.66,-140.89 252.66,-140.89 242.47,-77.03 237.56,-50.22"/>
<polygon fill="#000000" stroke="#000000" points="241.03,-49.68 235.6,-40.58 234.17,-51.08 241.03,-49.68"/>
</g>
<!-- chkPrev -->
<g id="node15" class="node">
<title>chkPrev</title>
<polygon fill="#fff7d1" stroke="#000000" points="559.66,-623.64 417.66,-576.64 559.66,-529.64 701.66,-576.64 559.66,-623.64"/>
<text xml:space="preserve" text-anchor="start" x="507.91" y="-581.14" font-family="CMU Serif" font-size="14.00">isFinite(prevI) ∧</text>
<text xml:space="preserve" text-anchor="start" x="496.66" y="-561.64" font-family="CMU Serif" font-size="14.00">inner.status = &quot;ok&quot;?</text>
</g>
<!-- upd&#45;&gt;chkPrev -->
<g id="edge18" class="edge">
<title>upd&#45;&gt;chkPrev</title>
<path fill="none" stroke="#000000" d="M579.36,-772.33C575.7,-736.17 569.73,-677.14 565.31,-633.55"/>
<polygon fill="#000000" stroke="#000000" points="568.81,-633.36 564.32,-623.77 561.85,-634.07 568.81,-633.36"/>
</g>
<!-- chkClose -->
<g id="node16" class="node">
<title>chkClose</title>
<polygon fill="#fff7d1" stroke="#000000" points="467.66,-496.39 315.91,-449.39 467.66,-402.39 619.41,-449.39 467.66,-496.39"/>
<text xml:space="preserve" text-anchor="start" x="399.78" y="-453.89" font-family="CMU Serif" font-size="14.00">|inner.value − prevI|</text>
<text xml:space="preserve" text-anchor="start" x="429.41" y="-434.39" font-family="CMU Serif" font-size="14.00">&lt; stableTol?</text>
</g>
<!-- chkPrev&#45;&gt;chkClose -->
<g id="edge19" class="edge">
<title>chkPrev&#45;&gt;chkClose</title>
<path fill="none" stroke="#000000" d="M532.3,-538.4C522.83,-525.51 512.1,-510.89 502.13,-497.33"/>
<polygon fill="#000000" stroke="#000000" points="505.02,-495.34 496.28,-489.36 499.38,-499.49 505.02,-495.34"/>
<text xml:space="preserve" text-anchor="middle" x="526.29" y="-510.24" font-family="CMU Serif" font-size="12.00">да</text>
</g>
<!-- zeroCnt -->
<g id="node18" class="node">
<title>zeroCnt</title>
<polygon fill="#ffffff" stroke="#000000" points="701.78,-369.14 581.53,-369.14 581.53,-333.14 701.78,-333.14 701.78,-369.14"/>
<text xml:space="preserve" text-anchor="middle" x="641.66" y="-347.59" font-family="CMU Serif" font-size="14.00">stableCount = 0</text>
</g>
<!-- chkPrev&#45;&gt;zeroCnt -->
<g id="edge20" class="edge">
<title>chkPrev&#45;&gt;zeroCnt</title>
<path fill="none" stroke="#000000" d="M589.49,-539.26C606.58,-518.43 624.66,-496.39 624.66,-496.39 624.66,-496.39 633.33,-422.78 638.29,-380.72"/>
<polygon fill="#000000" stroke="#000000" points="641.73,-381.38 639.43,-371.04 634.78,-380.57 641.73,-381.38"/>
<text xml:space="preserve" text-anchor="middle" x="645.42" y="-446.62" font-family="CMU Serif" font-size="12.00">нет</text>
</g>
<!-- incCnt -->
<g id="node17" class="node">
<title>incCnt</title>
<polygon fill="#ffffff" stroke="#000000" points="570.78,-369.14 354.53,-369.14 354.53,-333.14 570.78,-333.14 570.78,-369.14"/>
<text xml:space="preserve" text-anchor="middle" x="462.66" y="-347.59" font-family="CMU Serif" font-size="14.00">stableCount = stableCount + 1</text>
</g>
<!-- chkClose&#45;&gt;incCnt -->
<g id="edge21" class="edge">
<title>chkClose&#45;&gt;incCnt</title>
<path fill="none" stroke="#000000" d="M465.29,-402.8C464.9,-395.3 464.5,-387.72 464.14,-380.78"/>
<polygon fill="#000000" stroke="#000000" points="467.65,-380.82 463.64,-371.02 460.66,-381.19 467.65,-380.82"/>
<text xml:space="preserve" text-anchor="middle" x="471.83" y="-382.99" font-family="CMU Serif" font-size="12.00">да</text>
</g>
<!-- chkClose&#45;&gt;zeroCnt -->
<g id="edge22" class="edge">
<title>chkClose&#45;&gt;zeroCnt</title>
<path fill="none" stroke="#000000" d="M521.28,-418.73C546.68,-404.68 576.55,-388.15 600.18,-375.08"/>
<polygon fill="#000000" stroke="#000000" points="601.85,-378.16 608.91,-370.26 598.46,-372.03 601.85,-378.16"/>
<text xml:space="preserve" text-anchor="middle" x="604.74" y="-382.99" font-family="CMU Serif" font-size="12.00">нет</text>
</g>
<!-- chkCnt -->
<g id="node19" class="node">
<title>chkCnt</title>
<polygon fill="#fff7d1" stroke="#000000" points="462.66,-316.14 269.66,-288.64 462.66,-261.14 655.66,-288.64 462.66,-316.14"/>
<text xml:space="preserve" text-anchor="start" x="374.16" y="-286.09" font-family="CMU Serif" font-size="14.00">stableCount ≥ k</text>
<text xml:space="preserve" text-anchor="start" x="481.41" y="-286.09" font-family="CMU Serif" baseline-shift="sub" font-size="14.00">needStable</text>
<text xml:space="preserve" text-anchor="start" x="545.16" y="-286.09" font-family="CMU Serif" font-size="14.00">?</text>
</g>
<!-- incCnt&#45;&gt;chkCnt -->
<g id="edge23" class="edge">
<title>incCnt&#45;&gt;chkCnt</title>
<path fill="none" stroke="#000000" d="M462.66,-332.64C462.66,-331.07 462.66,-329.44 462.66,-327.78"/>
<polygon fill="#000000" stroke="#000000" points="466.16,-328.08 462.66,-318.08 459.16,-328.08 466.16,-328.08"/>
</g>
<!-- setPrev -->
<g id="node21" class="node">
<title>setPrev</title>
<polygon fill="#ffffff" stroke="#000000" points="769.16,-175.14 576.16,-175.14 576.16,-108.64 769.16,-108.64 769.16,-175.14"/>
<text xml:space="preserve" text-anchor="start" x="584.16" y="-156.14" font-family="CMU Serif" font-size="14.00">prevI = (inner.status = &quot;ok&quot;)</text>
<text xml:space="preserve" text-anchor="start" x="611.53" y="-136.64" font-family="CMU Serif" font-size="14.00">? inner.value : NaN</text>
<text xml:space="preserve" text-anchor="start" x="616.03" y="-117.14" font-family="CMU Serif" font-size="14.00">kStep = kStep + 1</text>
</g>
<!-- zeroCnt&#45;&gt;setPrev -->
<g id="edge27" class="edge">
<title>zeroCnt&#45;&gt;setPrev</title>
<path fill="none" stroke="#000000" d="M651.89,-332.74C656.81,-324.38 661.66,-316.14 661.66,-316.14 661.66,-316.14 666.6,-238.27 669.86,-186.94"/>
<polygon fill="#000000" stroke="#000000" points="673.35,-187.19 670.49,-176.99 666.36,-186.75 673.35,-187.19"/>
</g>
<!-- retOk -->
<g id="node20" class="node">
<title>retOk</title>
<polygon fill="#dcfce7" stroke="#000000" points="562.54,-227.89 332.06,-227.89 272.77,-55.89 503.25,-55.89 562.54,-227.89"/>
<text xml:space="preserve" text-anchor="start" x="381.66" y="-165.89" font-family="CMU Serif" font-size="14.00">status = ok</text>
<text xml:space="preserve" text-anchor="start" x="355.78" y="-146.39" font-family="CMU Serif" font-size="14.00">value = inner.value</text>
<text xml:space="preserve" text-anchor="start" x="382.03" y="-126.89" font-family="CMU Serif" font-size="14.00">n = inner.n</text>
<text xml:space="preserve" text-anchor="start" x="356.16" y="-107.39" font-family="CMU Serif" font-size="14.00">runge = lastRunge</text>
</g>
<!-- chkCnt&#45;&gt;retOk -->
<g id="edge24" class="edge">
<title>chkCnt&#45;&gt;retOk</title>
<path fill="none" stroke="#000000" d="M454.71,-262.1C452.57,-255.19 450.11,-247.29 447.51,-238.91"/>
<polygon fill="#000000" stroke="#000000" points="450.9,-238.04 444.59,-229.53 444.22,-240.12 450.9,-238.04"/>
<text xml:space="preserve" text-anchor="middle" x="458.91" y="-241.74" font-family="CMU Serif" font-size="12.00">да</text>
</g>
<!-- chkCnt&#45;&gt;setPrev -->
<g id="edge26" class="edge">
<title>chkCnt&#45;&gt;setPrev</title>
<path fill="none" stroke="#000000" d="M500.56,-266.07C530.64,-248.96 567.66,-227.89 567.66,-227.89 567.66,-227.89 596.23,-204.76 623.57,-182.63"/>
<polygon fill="#000000" stroke="#000000" points="625.61,-185.48 631.18,-176.46 621.21,-180.03 625.61,-185.48"/>
<text xml:space="preserve" text-anchor="middle" x="562.17" y="-241.74" font-family="CMU Serif" font-size="12.00">нет</text>
</g>
<!-- retOk&#45;&gt;stop -->
<g id="edge25" class="edge">
<title>retOk&#45;&gt;stop</title>
<path fill="none" stroke="#000000" d="M284.29,-55.45C276.64,-50.55 269.42,-45.92 262.89,-41.73"/>
<polygon fill="#000000" stroke="#000000" points="264.8,-38.81 254.49,-36.36 261.03,-44.7 264.8,-38.81"/>
</g>
<!-- setPrev&#45;&gt;chkLoop -->
<g id="edge28" class="edge">
<title>setPrev&#45;&gt;chkLoop</title>
<path fill="none" stroke="#000000" d="M682.98,-175.38C696.54,-218.05 718.66,-287.64 718.66,-287.64 718.66,-1668.64 718.66,-1668.64 718.66,-1668.64 718.66,-1668.64 565.79,-1709.03 472.37,-1733.71"/>
<polygon fill="#000000" stroke="#000000" points="471.52,-1730.31 462.74,-1736.25 473.31,-1737.08 471.52,-1730.31"/>
</g>
</g>
</svg>
