<?xml version="1.0" encoding="UTF-8" standalone="no"?>
<!DOCTYPE svg PUBLIC "-//W3C//DTD SVG 1.1//EN"
 "http://www.w3.org/Graphics/SVG/1.1/DTD/svg11.dtd">
<!-- Generated by graphviz version 14.1.5 (0)
 -->
<!-- Title: LimitAtEndpoint Pages: 1 -->
<svg width="747pt" height="1887pt"
 viewBox="0.00 0.00 747.00 1887.00" xmlns="http://www.w3.org/2000/svg" xmlns:xlink="http://www.w3.org/1999/xlink">
<g id="graph0" class="graph" transform="scale(1 1) rotate(0) translate(4 1882.53)">
<title>LimitAtEndpoint</title>
<polygon fill="white" stroke="none" points="-4,4 -4,-1882.53 743.16,-1882.53 743.16,4 -4,4"/>
<!-- start -->
<g id="node1" class="node">
<title>start</title>
<ellipse fill="#e6eefc" stroke="#000000" cx="375.66" cy="-1859.09" rx="124.8" ry="19.45"/>
<text xml:space="preserve" text-anchor="middle" x="375.66" y="-1855.54" font-family="CMU Serif" font-size="14.00">Начало: limitAtEndpoint</text>
</g>
<!-- input -->
<g id="node2" class="node">
<title>input</title>
<polygon fill="#f5f5f5" stroke="#000000" points="545.42,-1822.64 275.36,-1822.64 205.89,-1728.64 475.95,-1728.64 545.42,-1822.64"/>
<text xml:space="preserve" text-anchor="start" x="301.78" y="-1780.14" font-family="CMU Serif" font-size="14.00">Ввод: integ, f, c, other,</text>
<text xml:space="preserve" text-anchor="start" x="311.53" y="-1760.64" font-family="CMU Serif" font-size="14.00">side ∈ {+1, −1}, eps</text>
</g>
<!-- start&#45;&gt;input -->
<g id="edge1" class="edge">
<title>start&#45;&gt;input</title>
<path fill="none" stroke="#000000" d="M375.66,-1839.2C375.66,-1837.64 375.66,-1836.02 375.66,-1834.36"/>
<polygon fill="#000000" stroke="#000000" points="379.16,-1834.38 375.66,-1824.38 372.16,-1834.38 379.16,-1834.38"/>
</g>
<!-- init -->
<g id="node3" class="node">
<title>init</title>
<polygon fill="#ffffff" stroke="#000000" points="477.78,-1711.64 273.53,-1711.64 273.53,-1577.64 477.78,-1577.64 477.78,-1711.64"/>
<text xml:space="preserve" text-anchor="start" x="303.28" y="-1695.34" font-family="CMU Serif" font-size="14.00">d</text>
<text xml:space="preserve" text-anchor="start" x="311.53" y="-1695.34" font-family="CMU Serif" baseline-shift="sub" font-size="14.00">0</text>
<text xml:space="preserve" text-anchor="start" x="318.28" y="-1695.34" font-family="CMU Serif" font-size="14.00"> = |other − c| · 0.01</text>
<text xml:space="preserve" text-anchor="start" x="354.66" y="-1681.34" font-family="CMU Serif" font-size="14.00">r = 0.5</text>
<text xml:space="preserve" text-anchor="start" x="323.53" y="-1667.34" font-family="CMU Serif" font-size="14.00">k</text>
<text xml:space="preserve" text-anchor="start" x="331.03" y="-1667.34" font-family="CMU Serif" baseline-shift="sub" font-size="14.00">maxShrinks</text>
<text xml:space="preserve" text-anchor="start" x="395.53" y="-1667.34" font-family="CMU Serif" font-size="14.00"> = 50</text>
<text xml:space="preserve" text-anchor="start" x="328.03" y="-1653.34" font-family="CMU Serif" font-size="14.00">k</text>
<text xml:space="preserve" text-anchor="start" x="335.53" y="-1653.34" font-family="CMU Serif" baseline-shift="sub" font-size="14.00">needStable</text>
<text xml:space="preserve" text-anchor="start" x="399.28" y="-1653.34" font-family="CMU Serif" font-size="14.00"> = 2</text>
<text xml:space="preserve" text-anchor="start" x="338.53" y="-1639.34" font-family="CMU Serif" font-size="14.00">kBig = 10</text>
<text xml:space="preserve" text-anchor="start" x="399.28" y="-1639.34" font-family="CMU Serif" baseline-shift="super" font-size="14.00">15</text>
<text xml:space="preserve" text-anchor="start" x="317.16" y="-1625.34" font-family="CMU Serif" font-size="14.00">stableTol = 3 · eps</text>
<text xml:space="preserve" text-anchor="start" x="281.53" y="-1611.34" font-family="CMU Serif" font-size="14.00">prevI = NaN; stableCount = 0</text>
<text xml:space="preserve" text-anchor="start" x="301.03" y="-1597.34" font-family="CMU Serif" font-size="14.00">lastValue = 0; lastN = 0</text>
<text xml:space="preserve" text-anchor="start" x="296.16" y="-1583.34" font-family="CMU Serif" font-size="14.00">lastRunge = 0; kStep = 0</text>
</g>
<!-- input&#45;&gt;init -->
<g id="edge2" class="edge">
<title>input&#45;&gt;init</title>
<path fill="none" stroke="#000000" d="M375.66,-1728.43C375.66,-1726.76 375.66,-1725.07 375.66,-1723.37"/>
<polygon fill="#000000" stroke="#000000" points="379.16,-1723.51 375.66,-1713.51 372.16,-1723.51 379.16,-1723.51"/>
</g>
<!-- chkLoop -->
<g id="node4" class="node">
<title>chkLoop</title>
<polygon fill="#fff7d1" stroke="#000000" points="375.66,-1560.64 229.16,-1533.14 375.66,-1505.64 522.16,-1533.14 375.66,-1560.64"/>
<text xml:space="preserve" text-anchor="start" x="310.41" y="-1530.59" font-family="CMU Serif" font-size="14.00">kStep &lt; k</text>
<text xml:space="preserve" text-anchor="start" x="370.41" y="-1530.59" font-family="CMU Serif" baseline-shift="sub" font-size="14.00">maxShrinks</text>
<text xml:space="preserve" text-anchor="start" x="434.91" y="-1530.59" font-family="CMU Serif" font-size="14.00">?</text>
</g>
<!-- init&#45;&gt;chkLoop -->
<g id="edge3" class="edge">
<title>init&#45;&gt;chkLoop</title>
<path fill="none" stroke="#000000" d="M375.66,-1577.42C375.66,-1575.71 375.66,-1574.01 375.66,-1572.34"/>
<polygon fill="#000000" stroke="#000000" points="379.16,-1572.44 375.66,-1562.44 372.16,-1572.44 379.16,-1572.44"/>
</g>
<!-- retInd -->
<g id="node5" class="node">
<title>retInd</title>
<polygon fill="#fde2e2" stroke="#000000" points="347.31,-1414.39 71.06,-1414.39 0,-1242.39 276.25,-1242.39 347.31,-1414.39"/>
<text xml:space="preserve" text-anchor="start" x="97.91" y="-1352.39" font-family="CMU Serif" font-size="14.00">status = indeterminate</text>
<text xml:space="preserve" text-anchor="start" x="118.16" y="-1332.89" font-family="CMU Serif" font-size="14.00">value = lastValue</text>
<text xml:space="preserve" text-anchor="start" x="144.41" y="-1313.39" font-family="CMU Serif" font-size="14.00">n = lastN</text>
<text xml:space="preserve" text-anchor="start" x="112.16" y="-1293.89" font-family="CMU Serif" font-size="14.00">runge = lastRunge</text>
</g>
<!-- chkLoop&#45;&gt;retInd -->
<g id="edge4" class="edge">
<title>chkLoop&#45;&gt;retInd</title>
<path fill="none" stroke="#000000" d="M339.39,-1512.08C308.02,-1494.72 267.66,-1472.39 267.66,-1472.39 267.66,-1472.39 253.39,-1450.68 235.97,-1424.18"/>
<polygon fill="#000000" stroke="#000000" points="238.94,-1422.34 230.53,-1415.9 233.09,-1426.18 238.94,-1422.34"/>
<text xml:space="preserve" text-anchor="middle" x="322.19" y="-1486.24" font-family="CMU Serif" font-size="12.00">нет</text>
</g>
<!-- comp -->
<g id="node6" class="node">
<title>comp</title>
<polygon fill="#ffffff" stroke="#000000" points="478.53,-1472.39 272.78,-1472.39 272.78,-1422.39 478.53,-1422.39 478.53,-1472.39"/>
<text xml:space="preserve" text-anchor="start" x="324.66" y="-1456.09" font-family="CMU Serif" font-size="14.00">σ = d</text>
<text xml:space="preserve" text-anchor="start" x="356.91" y="-1456.09" font-family="CMU Serif" baseline-shift="sub" font-size="14.00">0</text>
<text xml:space="preserve" text-anchor="start" x="363.66" y="-1456.09" font-family="CMU Serif" font-size="14.00"> · 0.5</text>
<text xml:space="preserve" text-anchor="start" x="395.16" y="-1456.09" font-family="CMU Serif" baseline-shift="super" font-size="14.00">kStep</text>
<text xml:space="preserve" text-anchor="start" x="280.78" y="-1442.09" font-family="CMU Serif" font-size="14.00">side &gt; 0: lo = c + σ; hi = other</text>
<text xml:space="preserve" text-anchor="start" x="284.16" y="-1428.09" font-family="CMU Serif" font-size="14.00">иначе:  lo = other; hi = c − σ</text>
</g>
<!-- chkLoop&#45;&gt;comp -->
<g id="edge6" class="edge">
<title>chkLoop&#45;&gt;comp</title>
<path fill="none" stroke="#000000" d="M375.66,-1505.18C375.66,-1498.5 375.66,-1491.24 375.66,-1484.21"/>
<polygon fill="#000000" stroke="#000000" points="379.16,-1484.26 375.66,-1474.26 372.16,-1484.26 379.16,-1484.26"/>
<text xml:space="preserve" text-anchor="middle" x="382.78" y="-1486.24" font-family="CMU Serif" font-size="12.00">да</text>
</g>
<!-- stop -->
<g id="node20" class="node">
<title>stop</title>
<ellipse fill="#e6eefc" stroke="#000000" cx="210.66" cy="-19.45" rx="39.95" ry="19.45"/>
<text xml:space="preserve" text-anchor="middle" x="210.66" y="-15.9" font-family="CMU Serif" font-size="14.00">Конец</text>
</g>
<!-- retInd&#45;&gt;stop -->
<g id="edge5" class="edge">
<title>retInd&#45;&gt;stop</title>
<path fill="none" stroke="#000000" d="M136.22,-1242.16C121.77,-1209.26 108.66,-1179.39 108.66,-1179.39 108.66,-1179.39 108.66,-1179.39 108.66,-140.89 108.66,-140.89 158.69,-81.8 188.68,-46.4"/>
<polygon fill="#000000" stroke="#000000" points="191.05,-49.01 194.85,-39.11 185.71,-44.48 191.05,-49.01"/>
</g>
<!-- callRunge -->
<g id="node7" class="node">
<title>callRunge</title>
<polygon fill="#e6eefc" stroke="#000000" points="492.78,-1234.39 258.53,-1234.39 258.53,-1187.39 492.78,-1187.39 492.78,-1234.39"/>
<text xml:space="preserve" text-anchor="start" x="266.53" y="-1215.39" font-family="CMU Serif" font-size="14.00">inner = integ.rungeSolve(f, lo, hi)</text>
<text xml:space="preserve" text-anchor="start" x="269.91" y="-1195.89" font-family="CMU Serif" font-size="14.00">(см. блок&#45;схему правила Рунге)</text>
</g>
<!-- comp&#45;&gt;callRunge -->
<g id="edge7" class="edge">
<title>comp&#45;&gt;callRunge</title>
<path fill="none" stroke="#000000" d="M375.66,-1422.18C375.66,-1380.21 375.66,-1293.87 375.66,-1245.91"/>
<polygon fill="#000000" stroke="#000000" points="379.16,-1246.1 375.66,-1236.1 372.16,-1246.1 379.16,-1246.1"/>
</g>
<!-- chkDiv -->
<g id="node8" class="node">
<title>chkDiv</title>
<polygon fill="#fff7d1" stroke="#000000" points="375.66,-1170.39 199.16,-1123.39 375.66,-1076.39 552.16,-1123.39 375.66,-1170.39"/>
<text xml:space="preserve" text-anchor="start" x="295.41" y="-1127.89" font-family="CMU Serif" font-size="14.00">inner.status = &quot;diverges&quot;</text>
<text xml:space="preserve" text-anchor="start" x="296.53" y="-1108.39" font-family="CMU Serif" font-size="14.00">∨ ¬isFinite(inner.value)?</text>
</g>
<!-- callRunge&#45;&gt;chkDiv -->
<g id="edge8" class="edge">
<title>callRunge&#45;&gt;chkDiv</title>
<path fill="none" stroke="#000000" d="M375.66,-1186.98C375.66,-1185.4 375.66,-1183.78 375.66,-1182.12"/>
<polygon fill="#000000" stroke="#000000" points="379.16,-1182.32 375.66,-1172.32 372.16,-1182.32 379.16,-1182.32"/>
</g>
<!-- retDiv -->
<g id="node9" class="node">
<title>retDiv</title>
<polygon fill="#fde2e2" stroke="#000000" points="385.88,-980.14 173.95,-980.14 119.43,-847.14 331.36,-847.14 385.88,-980.14"/>
<text xml:space="preserve" text-anchor="start" x="196.41" y="-927.89" font-family="CMU Serif" font-size="14.00">status = diverges</text>
<text xml:space="preserve" text-anchor="start" x="212.91" y="-908.39" font-family="CMU Serif" font-size="14.00">value = NaN</text>
<text xml:space="preserve" text-anchor="start" x="217.03" y="-888.89" font-family="CMU Serif" font-size="14.00">n = inner.n</text>
</g>
<!-- chkDiv&#45;&gt;retDiv -->
<g id="edge9" class="edge">
<title>chkDiv&#45;&gt;retDiv</title>
<path fill="none" stroke="#000000" d="M328.16,-1088.78C297.63,-1067.18 263.66,-1043.14 263.66,-1043.14 263.66,-1043.14 261.6,-1019.09 259.26,-991.81"/>
<polygon fill="#000000" stroke="#000000" points="262.75,-991.57 258.41,-981.9 255.78,-992.17 262.75,-991.57"/>
<text xml:space="preserve" text-anchor="middle" x="305.66" y="-1056.99" font-family="CMU Serif" font-size="12.00">да</text>
</g>
<!-- chkBig -->
<g id="node10" class="node">
<title>chkBig</title>
<polygon fill="#fff7d1" stroke="#000000" points="423.66,-1043.14 269.66,-1015.64 423.66,-988.14 577.66,-1015.64 423.66,-1043.14"/>
<text xml:space="preserve" text-anchor="start" x="354.66" y="-1010.39" font-family="CMU Serif" font-size="14.00">|inner.value| &gt; kBig?</text>
</g>
<!-- chkDiv&#45;&gt;chkBig -->
<g id="edge11" class="edge">
<title>chkDiv&#45;&gt;chkBig</title>
<path fill="none" stroke="#000000" d="M394.49,-1080.9C398.83,-1071.33 403.41,-1061.25 407.62,-1051.97"/>
<polygon fill="#000000" stroke="#000000" points="410.78,-1053.47 411.73,-1042.91 404.41,-1050.57 410.78,-1053.47"/>
<text xml:space="preserve" text-anchor="middle" x="416.51" y="-1056.99" font-family="CMU Serif" font-size="12.00">нет</text>
</g>
<!-- retDiv&#45;&gt;stop -->
<g id="edge10" class="edge">
<title>retDiv&#45;&gt;stop</title>
<path fill="none" stroke="#000000" d="M233.55,-846.86C222.06,-807.34 209.66,-764.64 209.66,-764.64 209.66,-764.64 199.66,-699.14 199.66,-699.14 199.66,-699.14 199.66,-699.14 199.66,-140.89 199.66,-140.89 204.65,-86.2 207.91,-50.53"/>
<polygon fill="#000000" stroke="#000000" points="211.38,-51.05 208.8,-40.77 204.4,-50.41 211.38,-51.05"/>
</g>
<!-- retDivBig -->
<g id="node11" class="node">
<title>retDivBig</title>
<polygon fill="#fde2e2" stroke="#000000" points="480.88,-764.64 268.95,-764.64 214.43,-631.64 426.36,-631.64 480.88,-764.64"/>
<text xml:space="preserve" text-anchor="start" x="291.41" y="-712.39" font-family="CMU Serif" font-size="14.00">status = diverges</text>
<text xml:space="preserve" text-anchor="start" x="307.91" y="-692.89" font-family="CMU Serif" font-size="14.00">value = NaN</text>
<text xml:space="preserve" text-anchor="start" x="312.03" y="-673.39" font-family="CMU Serif" font-size="14.00">n = inner.n</text>
</g>
<!-- chkBig&#45;&gt;retDivBig -->
<g id="edge12" class="edge">
<title>chkBig&#45;&gt;retDivBig</title>
<path fill="none" stroke="#000000" d="M417.96,-988.84C407.58,-941.85 386.66,-847.14 386.66,-847.14 386.66,-847.14 377.34,-811.77 367.81,-775.61"/>
<polygon fill="#000000" stroke="#000000" points="371.31,-775.16 365.37,-766.38 364.54,-776.94 371.31,-775.16"/>
<text xml:space="preserve" text-anchor="middle" x="422.79" y="-910.87" font-family="CMU Serif" font-size="12.00">да</text>
</g>
<!-- upd -->
<g id="node12" class="node">
<title>upd</title>
<polygon fill="#ffffff" stroke="#000000" points="594.91,-839.14 418.41,-839.14 418.41,-772.64 594.91,-772.64 594.91,-839.14"/>
<text xml:space="preserve" text-anchor="start" x="432.41" y="-820.14" font-family="CMU Serif" font-size="14.00">lastValue = inner.value</text>
<text xml:space="preserve" text-anchor="start" x="458.66" y="-800.64" font-family="CMU Serif" font-size="14.00">lastN = inner.n</text>
<text xml:space="preserve" text-anchor="start" x="426.41" y="-781.14" font-family="CMU Serif" font-size="14.00">lastRunge = inner.runge</text>
</g>
<!-- chkBig&#45;&gt;upd -->
<g id="edge14" class="edge">
<title>chkBig&#45;&gt;upd</title>
<path fill="none" stroke="#000000" d="M433.67,-989.58C447.47,-955.03 472.55,-892.26 489.4,-850.07"/>
<polygon fill="#000000" stroke="#000000" points="492.58,-851.55 493.04,-840.96 486.08,-848.95 492.58,-851.55"/>
<text xml:space="preserve" text-anchor="middle" x="498.48" y="-910.87" font-family="CMU Serif" font-size="12.00">нет</text>
</g>
<!-- retDivBig&#45;&gt;stop -->
<g id="edge13" class="edge">
<title>retDivBig&#45;&gt;stop</title>
<path fill="none" stroke="#000000" d="M302.7,-631.29C266.87,-578.79 222.66,-514.02 222.66,-514.02 222.66,-514.02 222.66,-514.02 222.66,-140.89 222.66,-140.89 217.21,-86.2 213.65,-50.53"/>
<polygon fill="#000000" stroke="#000000" points="217.16,-50.37 212.68,-40.77 210.19,-51.07 217.16,-50.37"/>
</g>
<!-- chkPrev -->
<g id="node13" class="node">
<title>chkPrev</title>
<polygon fill="#fff7d1" stroke="#000000" points="506.66,-623.64 364.66,-576.64 506.66,-529.64 648.66,-576.64 506.66,-623.64"/>
<text xml:space="preserve" text-anchor="start" x="454.91" y="-581.14" font-family="CMU Serif" font-size="14.00">isFinite(prevI) ∧</text>
<text xml:space="preserve" text-anchor="start" x="443.66" y="-561.64" font-family="CMU Serif" font-size="14.00">inner.status = &quot;ok&quot;?</text>
</g>
<!-- upd&#45;&gt;chkPrev -->
<g id="edge15" class="edge">
<title>upd&#45;&gt;chkPrev</title>
<path fill="none" stroke="#000000" d="M506.66,-772.33C506.66,-736.62 506.66,-678.61 506.66,-635.19"/>
<polygon fill="#000000" stroke="#000000" points="510.16,-635.44 506.66,-625.44 503.16,-635.44 510.16,-635.44"/>
</g>
<!-- chkClose -->
<g id="node14" class="node">
<title>chkClose</title>
<polygon fill="#fff7d1" stroke="#000000" points="422.66,-496.39 270.91,-449.39 422.66,-402.39 574.41,-449.39 422.66,-496.39"/>
<text xml:space="preserve" text-anchor="start" x="354.78" y="-453.89" font-family="CMU Serif" font-size="14.00">|inner.value − prevI|</text>
<text xml:space="preserve" text-anchor="start" x="384.41" y="-434.39" font-family="CMU Serif" font-size="14.00">&lt; stableTol?</text>
</g>
<!-- chkPrev&#45;&gt;chkClose -->
<g id="edge16" class="edge">
<title>chkPrev&#45;&gt;chkClose</title>
<path fill="none" stroke="#000000" d="M481.23,-537.72C472.83,-525.21 463.39,-511.13 454.57,-497.98"/>
<polygon fill="#000000" stroke="#000000" points="457.61,-496.23 449.13,-489.87 451.8,-500.12 457.61,-496.23"/>
<text xml:space="preserve" text-anchor="middle" x="476.81" y="-510.24" font-family="CMU Serif" font-size="12.00">да</text>
</g>
<!-- zeroCnt -->
<g id="node16" class="node">
<title>zeroCnt</title>
<polygon fill="#ffffff" stroke="#000000" points="656.78,-369.14 536.53,-369.14 536.53,-333.14 656.78,-333.14 656.78,-369.14"/>
<text xml:space="preserve" text-anchor="middle" x="596.66" y="-347.59" font-family="CMU Serif" font-size="14.00">stableCount = 0</text>
</g>
<!-- chkPrev&#45;&gt;zeroCnt -->
<g id="edge17" class="edge">
<title>chkPrev&#45;&gt;zeroCnt</title>
<path fill="none" stroke="#000000" d="M539.31,-540.19C558.75,-519.09 579.66,-496.39 579.66,-496.39 579.66,-496.39 588.33,-422.78 593.29,-380.72"/>
<polygon fill="#000000" stroke="#000000" points="596.73,-381.38 594.43,-371.04 589.78,-380.57 596.73,-381.38"/>
<text xml:space="preserve" text-anchor="middle" x="600.42" y="-446.62" font-family="CMU Serif" font-size="12.00">нет</text>
</g>
<!-- incCnt -->
<g id="node15" class="node">
<title>incCnt</title>
<polygon fill="#ffffff" stroke="#000000" points="525.78,-369.14 309.53,-369.14 309.53,-333.14 525.78,-333.14 525.78,-369.14"/>
<text xml:space="preserve" text-anchor="middle" x="417.66" y="-347.59" font-family="CMU Serif" font-size="14.00">stableCount = stableCount + 1</text>
</g>
<!-- chkClose&#45;&gt;incCnt -->
<g id="edge18" class="edge">
<title>chkClose&#45;&gt;incCnt</title>
<path fill="none" stroke="#000000" d="M420.29,-402.8C419.9,-395.3 419.5,-387.72 419.14,-380.78"/>
<polygon fill="#000000" stroke="#000000" points="422.65,-380.82 418.64,-371.02 415.66,-381.19 422.65,-380.82"/>
<text xml:space="preserve" text-anchor="middle" x="426.83" y="-382.99" font-family="CMU Serif" font-size="12.00">да</text>
</g>
<!-- chkClose&#45;&gt;zeroCnt -->
<g id="edge19" class="edge">
<title>chkClose&#45;&gt;zeroCnt</title>
<path fill="none" stroke="#000000" d="M476.28,-418.73C501.68,-404.68 531.55,-388.15 555.18,-375.08"/>
<polygon fill="#000000" stroke="#000000" points="556.85,-378.16 563.91,-370.26 553.46,-372.03 556.85,-378.16"/>
<text xml:space="preserve" text-anchor="middle" x="559.74" y="-382.99" font-family="CMU Serif" font-size="12.00">нет</text>
</g>
<!-- chkCnt -->
<g id="node17" class="node">
<title>chkCnt</title>
<polygon fill="#fff7d1" stroke="#000000" points="432.66,-316.14 239.66,-288.64 432.66,-261.14 625.66,-288.64 432.66,-316.14"/>
<text xml:space="preserve" text-anchor="start" x="344.16" y="-286.09" font-family="CMU Serif" font-size="14.00">stableCount ≥ k</text>
<text xml:space="preserve" text-anchor="start" x="451.41" y="-286.09" font-family="CMU Serif" baseline-shift="sub" font-size="14.00">needStable</text>
<text xml:space="preserve" text-anchor="start" x="515.16" y="-286.09" font-family="CMU Serif" font-size="14.00">?</text>
</g>
<!-- incCnt&#45;&gt;chkCnt -->
<g id="edge20" class="edge">
<title>incCnt&#45;&gt;chkCnt</title>
<path fill="none" stroke="#000000" d="M421.99,-332.64C422.47,-330.74 422.96,-328.75 423.46,-326.71"/>
<polygon fill="#000000" stroke="#000000" points="426.83,-327.67 425.84,-317.12 420.04,-325.99 426.83,-327.67"/>
</g>
<!-- setPrev -->
<g id="node19" class="node">
<title>setPrev</title>
<polygon fill="#ffffff" stroke="#000000" points="739.16,-175.14 546.16,-175.14 546.16,-108.64 739.16,-108.64 739.16,-175.14"/>
<text xml:space="preserve" text-anchor="start" x="554.16" y="-156.14" font-family="CMU Serif" font-size="14.00">prevI = (inner.status = &quot;ok&quot;)</text>
<text xml:space="preserve" text-anchor="start" x="581.53" y="-136.64" font-family="CMU Serif" font-size="14.00">? inner.value : NaN</text>
<text xml:space="preserve" text-anchor="start" x="586.03" y="-117.14" font-family="CMU Serif" font-size="14.00">kStep = kStep + 1</text>
</g>
<!-- zeroCnt&#45;&gt;setPrev -->
<g id="edge24" class="edge">
<title>zeroCnt&#45;&gt;setPrev</title>
<path fill="none" stroke="#000000" d="M614.57,-332.74C623.18,-324.38 631.66,-316.14 631.66,-316.14 631.66,-316.14 636.6,-238.27 639.86,-186.94"/>
<polygon fill="#000000" stroke="#000000" points="643.35,-187.19 640.49,-176.99 636.36,-186.75 643.35,-187.19"/>
</g>
<!-- retOk -->
<g id="node18" class="node">
<title>retOk</title>
<polygon fill="#dcfce7" stroke="#000000" points="532.54,-227.89 302.06,-227.89 242.77,-55.89 473.25,-55.89 532.54,-227.89"/>
<text xml:space="preserve" text-anchor="start" x="351.66" y="-165.89" font-family="CMU Serif" font-size="14.00">status = ok</text>
<text xml:space="preserve" text-anchor="start" x="325.78" y="-146.39" font-family="CMU Serif" font-size="14.00">value = inner.value</text>
<text xml:space="preserve" text-anchor="start" x="352.03" y="-126.89" font-family="CMU Serif" font-size="14.00">n = inner.n</text>
<text xml:space="preserve" text-anchor="start" x="326.16" y="-107.39" font-family="CMU Serif" font-size="14.00">runge = lastRunge</text>
</g>
<!-- chkCnt&#45;&gt;retOk -->
<g id="edge21" class="edge">
<title>chkCnt&#45;&gt;retOk</title>
<path fill="none" stroke="#000000" d="M424.71,-262.1C422.57,-255.19 420.11,-247.29 417.51,-238.91"/>
<polygon fill="#000000" stroke="#000000" points="420.9,-238.04 414.59,-229.53 414.22,-240.12 420.9,-238.04"/>
<text xml:space="preserve" text-anchor="middle" x="428.91" y="-241.74" font-family="CMU Serif" font-size="12.00">да</text>
</g>
<!-- chkCnt&#45;&gt;setPrev -->
<g id="edge23" class="edge">
<title>chkCnt&#45;&gt;setPrev</title>
<path fill="none" stroke="#000000" d="M470.56,-266.07C500.64,-248.96 537.66,-227.89 537.66,-227.89 537.66,-227.89 566.23,-204.76 593.57,-182.63"/>
<polygon fill="#000000" stroke="#000000" points="595.61,-185.48 601.18,-176.46 591.21,-180.03 595.61,-185.48"/>
<text xml:space="preserve" text-anchor="middle" x="532.17" y="-241.74" font-family="CMU Serif" font-size="12.00">нет</text>
</g>
<!-- retOk&#45;&gt;stop -->
<g id="edge22" class="edge">
<title>retOk&#45;&gt;stop</title>
<path fill="none" stroke="#000000" d="M262.33,-55.61C255.35,-50.86 248.74,-46.36 242.72,-42.27"/>
<polygon fill="#000000" stroke="#000000" points="244.7,-39.38 234.46,-36.64 240.76,-45.16 244.7,-39.38"/>
</g>
<!-- setPrev&#45;&gt;chkLoop -->
<g id="edge25" class="edge">
<title>setPrev&#45;&gt;chkLoop</title>
<path fill="none" stroke="#000000" d="M649.61,-175.38C658.75,-218.05 673.66,-287.64 673.66,-287.64 673.66,-1448.39 673.66,-1448.39 673.66,-1448.39 673.66,-1448.39 532.08,-1488.18 444.09,-1512.91"/>
<polygon fill="#000000" stroke="#000000" points="443.25,-1509.51 434.57,-1515.58 445.14,-1516.25 443.25,-1509.51"/>
</g>
</g>
</svg>
