<?xml version="1.0" encoding="UTF-8" standalone="no"?>
<!DOCTYPE svg PUBLIC "-//W3C//DTD SVG 1.1//EN"
 "http://www.w3.org/Graphics/SVG/1.1/DTD/svg11.dtd">
<!-- Generated by graphviz version 14.1.5 (0)
 -->
<!-- Title: LimitAtEndpoint Pages: 1 -->
<svg width="819pt" height="2197pt"
 viewBox="0.00 0.00 819.00 2197.00" xmlns="http://www.w3.org/2000/svg" xmlns:xlink="http://www.w3.org/1999/xlink">
<g id="graph0" class="graph" transform="scale(1 1) rotate(0) translate(4 2192.78)">
<title>LimitAtEndpoint</title>
<polygon fill="white" stroke="none" points="-4,4 -4,-2192.78 815.16,-2192.78 815.16,4 -4,4"/>
<!-- start -->
<g id="node1" class="node">
<title>start</title>
<ellipse fill="#e6eefc" stroke="#000000" cx="409.66" cy="-2169.34" rx="124.8" ry="19.45"/>
<text xml:space="preserve" text-anchor="middle" x="409.66" y="-2165.79" font-family="CMU Serif" font-size="14.00">Начало: limitAtEndpoint</text>
</g>
<!-- input -->
<g id="node2" class="node">
<title>input</title>
<polygon fill="#f5f5f5" stroke="#000000" points="579.42,-2126.89 309.36,-2126.89 239.89,-2032.89 509.95,-2032.89 579.42,-2126.89"/>
<text xml:space="preserve" text-anchor="start" x="335.78" y="-2084.39" font-family="CMU Serif" font-size="14.00">Ввод: integ, f, c, other,</text>
<text xml:space="preserve" text-anchor="start" x="345.53" y="-2064.89" font-family="CMU Serif" font-size="14.00">side ∈ {+1, −1}, eps</text>
</g>
<!-- start&#45;&gt;input -->
<g id="edge1" class="edge">
<title>start&#45;&gt;input</title>
<path fill="none" stroke="#000000" d="M409.66,-2149.79C409.66,-2146.33 409.66,-2142.54 409.66,-2138.59"/>
<polygon fill="#000000" stroke="#000000" points="413.16,-2138.63 409.66,-2128.63 406.16,-2138.63 413.16,-2138.63"/>
</g>
<!-- init -->
<g id="node3" class="node">
<title>init</title>
<polygon fill="#ffffff" stroke="#000000" points="511.78,-2009.89 307.53,-2009.89 307.53,-1875.89 511.78,-1875.89 511.78,-2009.89"/>
<text xml:space="preserve" text-anchor="start" x="337.28" y="-1993.59" font-family="CMU Serif" font-size="14.00">d</text>
<text xml:space="preserve" text-anchor="start" x="345.53" y="-1993.59" font-family="CMU Serif" baseline-shift="sub" font-size="14.00">0</text>
<text xml:space="preserve" text-anchor="start" x="352.28" y="-1993.59" font-family="CMU Serif" font-size="14.00"> = |other − c| · 0.01</text>
<text xml:space="preserve" text-anchor="start" x="388.66" y="-1979.59" font-family="CMU Serif" font-size="14.00">r = 0.5</text>
<text xml:space="preserve" text-anchor="start" x="357.53" y="-1965.59" font-family="CMU Serif" font-size="14.00">k</text>
<text xml:space="preserve" text-anchor="start" x="365.03" y="-1965.59" font-family="CMU Serif" baseline-shift="sub" font-size="14.00">maxShrinks</text>
<text xml:space="preserve" text-anchor="start" x="429.53" y="-1965.59" font-family="CMU Serif" font-size="14.00"> = 50</text>
<text xml:space="preserve" text-anchor="start" x="362.03" y="-1951.59" font-family="CMU Serif" font-size="14.00">k</text>
<text xml:space="preserve" text-anchor="start" x="369.53" y="-1951.59" font-family="CMU Serif" baseline-shift="sub" font-size="14.00">needStable</text>
<text xml:space="preserve" text-anchor="start" x="433.28" y="-1951.59" font-family="CMU Serif" font-size="14.00"> = 2</text>
<text xml:space="preserve" text-anchor="start" x="372.53" y="-1937.59" font-family="CMU Serif" font-size="14.00">kBig = 10</text>
<text xml:space="preserve" text-anchor="start" x="433.28" y="-1937.59" font-family="CMU Serif" baseline-shift="super" font-size="14.00">15</text>
<text xml:space="preserve" text-anchor="start" x="351.16" y="-1923.59" font-family="CMU Serif" font-size="14.00">stableTol = 3 · eps</text>
<text xml:space="preserve" text-anchor="start" x="315.53" y="-1909.59" font-family="CMU Serif" font-size="14.00">prevI = NaN; stableCount = 0</text>
<text xml:space="preserve" text-anchor="start" x="335.03" y="-1895.59" font-family="CMU Serif" font-size="14.00">lastValue = 0; lastN = 0</text>
<text xml:space="preserve" text-anchor="start" x="330.16" y="-1881.59" font-family="CMU Serif" font-size="14.00">lastRunge = 0; kStep = 0</text>
</g>
<!-- input&#45;&gt;init -->
<g id="edge2" class="edge">
<title>input&#45;&gt;init</title>
<path fill="none" stroke="#000000" d="M409.66,-2032.43C409.66,-2028.85 409.66,-2025.17 409.66,-2021.46"/>
<polygon fill="#000000" stroke="#000000" points="413.16,-2021.75 409.66,-2011.75 406.16,-2021.75 413.16,-2021.75"/>
</g>
<!-- chkLoop -->
<g id="node4" class="node">
<title>chkLoop</title>
<polygon fill="#fff7d1" stroke="#000000" points="409.66,-1852.89 263.16,-1825.39 409.66,-1797.89 556.16,-1825.39 409.66,-1852.89"/>
<text xml:space="preserve" text-anchor="start" x="344.41" y="-1822.84" font-family="CMU Serif" font-size="14.00">kStep &lt; k</text>
<text xml:space="preserve" text-anchor="start" x="404.41" y="-1822.84" font-family="CMU Serif" baseline-shift="sub" font-size="14.00">maxShrinks</text>
<text xml:space="preserve" text-anchor="start" x="468.91" y="-1822.84" font-family="CMU Serif" font-size="14.00">?</text>
</g>
<!-- init&#45;&gt;chkLoop -->
<g id="edge3" class="edge">
<title>init&#45;&gt;chkLoop</title>
<path fill="none" stroke="#000000" d="M409.66,-1875.71C409.66,-1872.02 409.66,-1868.38 409.66,-1864.85"/>
<polygon fill="#000000" stroke="#000000" points="413.16,-1864.87 409.66,-1854.87 406.16,-1864.87 413.16,-1864.87"/>
</g>
<!-- retInd -->
<g id="node5" class="node">
<title>retInd</title>
<polygon fill="#fde2e2" stroke="#000000" points="347.31,-1697.64 71.06,-1697.64 0,-1525.64 276.25,-1525.64 347.31,-1697.64"/>
<text xml:space="preserve" text-anchor="start" x="97.91" y="-1635.64" font-family="CMU Serif" font-size="14.00">status = indeterminate</text>
<text xml:space="preserve" text-anchor="start" x="118.16" y="-1616.14" font-family="CMU Serif" font-size="14.00">value = lastValue</text>
<text xml:space="preserve" text-anchor="start" x="144.41" y="-1596.64" font-family="CMU Serif" font-size="14.00">n = lastN</text>
<text xml:space="preserve" text-anchor="start" x="112.16" y="-1577.14" font-family="CMU Serif" font-size="14.00">runge = lastRunge</text>
</g>
<!-- chkLoop&#45;&gt;retInd -->
<g id="edge4" class="edge">
<title>chkLoop&#45;&gt;retInd</title>
<path fill="none" stroke="#000000" d="M374.83,-1803.95C341.95,-1784.65 297.66,-1758.64 297.66,-1758.64 297.66,-1758.64 277.46,-1734.87 253.38,-1706.51"/>
<polygon fill="#000000" stroke="#000000" points="256.27,-1704.5 247.13,-1699.15 250.93,-1709.03 256.27,-1704.5"/>
<text xml:space="preserve" text-anchor="middle" x="353.85" y="-1775.49" font-family="CMU Serif" font-size="12.00">нет</text>
</g>
<!-- comp -->
<g id="node6" class="node">
<title>comp</title>
<polygon fill="#ffffff" stroke="#000000" points="512.53,-1758.64 306.78,-1758.64 306.78,-1708.64 512.53,-1708.64 512.53,-1758.64"/>
<text xml:space="preserve" text-anchor="start" x="358.66" y="-1742.34" font-family="CMU Serif" font-size="14.00">σ = d</text>
<text xml:space="preserve" text-anchor="start" x="390.91" y="-1742.34" font-family="CMU Serif" baseline-shift="sub" font-size="14.00">0</text>
<text xml:space="preserve" text-anchor="start" x="397.66" y="-1742.34" font-family="CMU Serif" font-size="14.00"> · 0.5</text>
<text xml:space="preserve" text-anchor="start" x="429.16" y="-1742.34" font-family="CMU Serif" baseline-shift="super" font-size="14.00">kStep</text>
<text xml:space="preserve" text-anchor="start" x="314.78" y="-1728.34" font-family="CMU Serif" font-size="14.00">side &gt; 0: lo = c + σ; hi = other</text>
<text xml:space="preserve" text-anchor="start" x="318.16" y="-1714.34" font-family="CMU Serif" font-size="14.00">иначе:  lo = other; hi = c − σ</text>
</g>
<!-- chkLoop&#45;&gt;comp -->
<g id="edge6" class="edge">
<title>chkLoop&#45;&gt;comp</title>
<path fill="none" stroke="#000000" d="M409.66,-1797.46C409.66,-1788.99 409.66,-1779.5 409.66,-1770.5"/>
<polygon fill="#000000" stroke="#000000" points="413.16,-1770.62 409.66,-1760.62 406.16,-1770.62 413.16,-1770.62"/>
<text xml:space="preserve" text-anchor="middle" x="416.78" y="-1775.49" font-family="CMU Serif" font-size="12.00">да</text>
</g>
<!-- stop -->
<g id="node22" class="node">
<title>stop</title>
<ellipse fill="#e6eefc" stroke="#000000" cx="234.66" cy="-19.45" rx="39.95" ry="19.45"/>
<text xml:space="preserve" text-anchor="middle" x="234.66" y="-15.9" font-family="CMU Serif" font-size="14.00">Конец</text>
</g>
<!-- retInd&#45;&gt;stop -->
<g id="edge5" class="edge">
<title>retInd&#45;&gt;stop</title>
<path fill="none" stroke="#000000" d="M162.59,-1525.33C157.11,-1483.09 151.66,-1441.02 151.66,-1441.02 151.66,-1441.02 151.66,-1441.02 151.66,-146.89 151.66,-146.89 177.66,-61.89 177.66,-61.89 177.66,-61.89 190.4,-52.62 203.84,-42.85"/>
<polygon fill="#000000" stroke="#000000" points="205.85,-45.72 211.88,-37 201.74,-40.05 205.85,-45.72"/>
</g>
<!-- chkLoHi -->
<g id="node7" class="node">
<title>chkLoHi</title>
<polygon fill="#fff7d1" stroke="#000000" points="409.66,-1514.64 347.16,-1487.14 409.66,-1459.64 472.16,-1487.14 409.66,-1514.64"/>
<text xml:space="preserve" text-anchor="start" x="386.41" y="-1481.89" font-family="CMU Serif" font-size="14.00">lo &lt; hi?</text>
</g>
<!-- comp&#45;&gt;chkLoHi -->
<g id="edge7" class="edge">
<title>comp&#45;&gt;chkLoHi</title>
<path fill="none" stroke="#000000" d="M409.66,-1708.3C409.66,-1665.7 409.66,-1577.31 409.66,-1526.43"/>
<polygon fill="#000000" stroke="#000000" points="413.16,-1526.48 409.66,-1516.48 406.16,-1526.48 413.16,-1526.48"/>
</g>
<!-- retIndLo -->
<g id="node8" class="node">
<title>retIndLo</title>
<polygon fill="#fde2e2" stroke="#000000" points="514.31,-1362.39 238.06,-1362.39 167,-1229.39 443.25,-1229.39 514.31,-1362.39"/>
<text xml:space="preserve" text-anchor="start" x="264.91" y="-1310.14" font-family="CMU Serif" font-size="14.00">status = indeterminate</text>
<text xml:space="preserve" text-anchor="start" x="285.16" y="-1290.64" font-family="CMU Serif" font-size="14.00">value = lastValue</text>
<text xml:space="preserve" text-anchor="start" x="311.41" y="-1271.14" font-family="CMU Serif" font-size="14.00">n = lastN</text>
</g>
<!-- chkLoHi&#45;&gt;retIndLo -->
<g id="edge8" class="edge">
<title>chkLoHi&#45;&gt;retIndLo</title>
<path fill="none" stroke="#000000" d="M401.2,-1462.94C393.05,-1440.59 380.27,-1405.54 368.55,-1373.39"/>
<polygon fill="#000000" stroke="#000000" points="371.85,-1372.23 365.14,-1364.04 365.28,-1374.63 371.85,-1372.23"/>
<text xml:space="preserve" text-anchor="middle" x="405.73" y="-1437.24" font-family="CMU Serif" font-size="12.00">нет</text>
</g>
<!-- callRunge -->
<g id="node9" class="node">
<title>callRunge</title>
<polygon fill="#e6eefc" stroke="#000000" points="630.78,-1420.39 396.53,-1420.39 396.53,-1373.39 630.78,-1373.39 630.78,-1420.39"/>
<text xml:space="preserve" text-anchor="start" x="404.53" y="-1401.39" font-family="CMU Serif" font-size="14.00">inner = integ.rungeSolve(f, lo, hi)</text>
<text xml:space="preserve" text-anchor="start" x="407.91" y="-1381.89" font-family="CMU Serif" font-size="14.00">(см. блок&#45;схему правила Рунге)</text>
</g>
<!-- chkLoHi&#45;&gt;callRunge -->
<g id="edge10" class="edge">
<title>chkLoHi&#45;&gt;callRunge</title>
<path fill="none" stroke="#000000" d="M430.2,-1468.71C443.89,-1457.09 462.23,-1441.53 478.23,-1427.95"/>
<polygon fill="#000000" stroke="#000000" points="480.32,-1430.77 485.68,-1421.63 475.79,-1425.43 480.32,-1430.77"/>
<text xml:space="preserve" text-anchor="middle" x="481.15" y="-1437.24" font-family="CMU Serif" font-size="12.00">да</text>
</g>
<!-- retIndLo&#45;&gt;stop -->
<g id="edge9" class="edge">
<title>retIndLo&#45;&gt;stop</title>
<path fill="none" stroke="#000000" d="M288.75,-1229.01C245.75,-1174.43 191.66,-1105.77 191.66,-1105.77 191.66,-1105.77 191.66,-1105.77 191.66,-146.89 191.66,-146.89 211.94,-87.25 224.64,-49.89"/>
<polygon fill="#000000" stroke="#000000" points="227.92,-51.13 227.82,-40.54 221.29,-48.88 227.92,-51.13"/>
</g>
<!-- chkDiv -->
<g id="node10" class="node">
<title>chkDiv</title>
<polygon fill="#fff7d1" stroke="#000000" points="527.66,-1218.39 351.16,-1171.39 527.66,-1124.39 704.16,-1171.39 527.66,-1218.39"/>
<text xml:space="preserve" text-anchor="start" x="447.41" y="-1175.89" font-family="CMU Serif" font-size="14.00">inner.status = &quot;diverges&quot;</text>
<text xml:space="preserve" text-anchor="start" x="448.53" y="-1156.39" font-family="CMU Serif" font-size="14.00">∨ ¬isFinite(inner.value)?</text>
</g>
<!-- callRunge&#45;&gt;chkDiv -->
<g id="edge11" class="edge">
<title>callRunge&#45;&gt;chkDiv</title>
<path fill="none" stroke="#000000" d="M515.08,-1373.23C517.17,-1339.78 521.16,-1276.09 524.09,-1229.38"/>
<polygon fill="#000000" stroke="#000000" points="527.58,-1229.6 524.71,-1219.4 520.59,-1229.16 527.58,-1229.6"/>
</g>
<!-- retDiv -->
<g id="node11" class="node">
<title>retDiv</title>
<polygon fill="#fde2e2" stroke="#000000" points="472.88,-1019.14 260.95,-1019.14 206.43,-886.14 418.36,-886.14 472.88,-1019.14"/>
<text xml:space="preserve" text-anchor="start" x="283.41" y="-966.89" font-family="CMU Serif" font-size="14.00">status = diverges</text>
<text xml:space="preserve" text-anchor="start" x="299.91" y="-947.39" font-family="CMU Serif" font-size="14.00">value = NaN</text>
<text xml:space="preserve" text-anchor="start" x="304.03" y="-927.89" font-family="CMU Serif" font-size="14.00">n = inner.n</text>
</g>
<!-- chkDiv&#45;&gt;retDiv -->
<g id="edge12" class="edge">
<title>chkDiv&#45;&gt;retDiv</title>
<path fill="none" stroke="#000000" d="M468.81,-1139.61C422.12,-1115.19 364.66,-1085.14 364.66,-1085.14 364.66,-1085.14 359.74,-1059.29 354.27,-1030.52"/>
<polygon fill="#000000" stroke="#000000" points="357.75,-1030.05 352.44,-1020.88 350.87,-1031.36 357.75,-1030.05"/>
<text xml:space="preserve" text-anchor="middle" x="422.54" y="-1101.99" font-family="CMU Serif" font-size="12.00">да</text>
</g>
<!-- chkBig -->
<g id="node12" class="node">
<title>chkBig</title>
<polygon fill="#fff7d1" stroke="#000000" points="527.66,-1085.14 373.66,-1057.64 527.66,-1030.14 681.66,-1057.64 527.66,-1085.14"/>
<text xml:space="preserve" text-anchor="start" x="458.66" y="-1052.39" font-family="CMU Serif" font-size="14.00">|inner.value| &gt; kBig?</text>
</g>
<!-- chkDiv&#45;&gt;chkBig -->
<g id="edge14" class="edge">
<title>chkDiv&#45;&gt;chkBig</title>
<path fill="none" stroke="#000000" d="M527.66,-1123.97C527.66,-1114.98 527.66,-1105.66 527.66,-1096.97"/>
<polygon fill="#000000" stroke="#000000" points="531.16,-1097.11 527.66,-1087.11 524.16,-1097.11 531.16,-1097.11"/>
<text xml:space="preserve" text-anchor="middle" x="537.41" y="-1101.99" font-family="CMU Serif" font-size="12.00">нет</text>
</g>
<!-- retDiv&#45;&gt;stop -->
<g id="edge13" class="edge">
<title>retDiv&#45;&gt;stop</title>
<path fill="none" stroke="#000000" d="M308.15,-885.78C277.22,-821.13 234.66,-732.14 234.66,-732.14 234.66,-732.14 234.66,-732.14 234.66,-146.89 234.66,-146.89 234.66,-88.07 234.66,-50.67"/>
<polygon fill="#000000" stroke="#000000" points="238.16,-50.89 234.66,-40.89 231.16,-50.89 238.16,-50.89"/>
</g>
<!-- retDivBig -->
<g id="node13" class="node">
<title>retDivBig</title>
<polygon fill="#fde2e2" stroke="#000000" points="558.88,-797.64 346.95,-797.64 292.43,-664.64 504.36,-664.64 558.88,-797.64"/>
<text xml:space="preserve" text-anchor="start" x="369.41" y="-745.39" font-family="CMU Serif" font-size="14.00">status = diverges</text>
<text xml:space="preserve" text-anchor="start" x="385.91" y="-725.89" font-family="CMU Serif" font-size="14.00">value = NaN</text>
<text xml:space="preserve" text-anchor="start" x="390.03" y="-706.39" font-family="CMU Serif" font-size="14.00">n = inner.n</text>
</g>
<!-- chkBig&#45;&gt;retDivBig -->
<g id="edge15" class="edge">
<title>chkBig&#45;&gt;retDivBig</title>
<path fill="none" stroke="#000000" d="M519.65,-1031.18C504.78,-983.85 472.33,-880.64 449.75,-808.8"/>
<polygon fill="#000000" stroke="#000000" points="453.15,-807.93 446.81,-799.44 446.47,-810.02 453.15,-807.93"/>
<text xml:space="preserve" text-anchor="middle" x="522.74" y="-949.87" font-family="CMU Serif" font-size="12.00">да</text>
</g>
<!-- upd -->
<g id="node14" class="node">
<title>upd</title>
<polygon fill="#ffffff" stroke="#000000" points="699.91,-875.14 523.41,-875.14 523.41,-808.64 699.91,-808.64 699.91,-875.14"/>
<text xml:space="preserve" text-anchor="start" x="537.41" y="-856.14" font-family="CMU Serif" font-size="14.00">lastValue = inner.value</text>
<text xml:space="preserve" text-anchor="start" x="563.66" y="-836.64" font-family="CMU Serif" font-size="14.00">lastN = inner.n</text>
<text xml:space="preserve" text-anchor="start" x="531.41" y="-817.14" font-family="CMU Serif" font-size="14.00">lastRunge = inner.runge</text>
</g>
<!-- chkBig&#45;&gt;upd -->
<g id="edge17" class="edge">
<title>chkBig&#45;&gt;upd</title>
<path fill="none" stroke="#000000" d="M537.46,-1031.7C551.5,-995.97 577.55,-929.69 594.74,-885.93"/>
<polygon fill="#000000" stroke="#000000" points="597.96,-887.32 598.36,-876.73 591.44,-884.76 597.96,-887.32"/>
<text xml:space="preserve" text-anchor="middle" x="603.26" y="-949.87" font-family="CMU Serif" font-size="12.00">нет</text>
</g>
<!-- retDivBig&#45;&gt;stop -->
<g id="edge16" class="edge">
<title>retDivBig&#45;&gt;stop</title>
<path fill="none" stroke="#000000" d="M372.36,-664.26C328.2,-609.68 272.66,-541.02 272.66,-541.02 272.66,-541.02 272.66,-541.02 272.66,-146.89 272.66,-146.89 248.66,-49.89 248.66,-49.89 248.66,-49.89 248.5,-49.56 248.22,-48.98"/>
<polygon fill="#000000" stroke="#000000" points="251.39,-47.49 243.93,-39.96 245.07,-50.49 251.39,-47.49"/>
</g>
<!-- chkPrev -->
<g id="node15" class="node">
<title>chkPrev</title>
<polygon fill="#fff7d1" stroke="#000000" points="598.66,-653.64 456.66,-606.64 598.66,-559.64 740.66,-606.64 598.66,-653.64"/>
<text xml:space="preserve" text-anchor="start" x="546.91" y="-611.14" font-family="CMU Serif" font-size="14.00">isFinite(prevI) ∧</text>
<text xml:space="preserve" text-anchor="start" x="535.66" y="-591.64" font-family="CMU Serif" font-size="14.00">inner.status = &quot;ok&quot;?</text>
</g>
<!-- upd&#45;&gt;chkPrev -->
<g id="edge18" class="edge">
<title>upd&#45;&gt;chkPrev</title>
<path fill="none" stroke="#000000" d="M609.85,-808.46C607.78,-771.26 604.34,-709.61 601.82,-664.41"/>
<polygon fill="#000000" stroke="#000000" points="605.32,-664.3 601.27,-654.51 598.33,-664.69 605.32,-664.3"/>
</g>
<!-- chkClose -->
<g id="node16" class="node">
<title>chkClose</title>
<polygon fill="#fff7d1" stroke="#000000" points="493.66,-520.39 341.91,-473.39 493.66,-426.39 645.41,-473.39 493.66,-520.39"/>
<text xml:space="preserve" text-anchor="start" x="425.78" y="-477.89" font-family="CMU Serif" font-size="14.00">|inner.value − prevI|</text>
<text xml:space="preserve" text-anchor="start" x="455.41" y="-458.39" font-family="CMU Serif" font-size="14.00">&lt; stableTol?</text>
</g>
<!-- chkPrev&#45;&gt;chkClose -->
<g id="edge19" class="edge">
<title>chkPrev&#45;&gt;chkClose</title>
<path fill="none" stroke="#000000" d="M569.41,-569.08C557.32,-553.98 543.18,-536.3 530.41,-520.33"/>
<polygon fill="#000000" stroke="#000000" points="533.4,-518.47 524.42,-512.85 527.94,-522.84 533.4,-518.47"/>
<text xml:space="preserve" text-anchor="middle" x="559.57" y="-537.24" font-family="CMU Serif" font-size="12.00">да</text>
</g>
<!-- zeroCnt -->
<g id="node18" class="node">
<title>zeroCnt</title>
<polygon fill="#ffffff" stroke="#000000" points="740.78,-387.14 620.53,-387.14 620.53,-351.14 740.78,-351.14 740.78,-387.14"/>
<text xml:space="preserve" text-anchor="middle" x="680.66" y="-365.59" font-family="CMU Serif" font-size="14.00">stableCount = 0</text>
</g>
<!-- chkPrev&#45;&gt;zeroCnt -->
<g id="edge20" class="edge">
<title>chkPrev&#45;&gt;zeroCnt</title>
<path fill="none" stroke="#000000" d="M623.71,-567.5C638.62,-544.81 654.66,-520.39 654.66,-520.39 654.66,-520.39 668.18,-442.23 675.72,-398.66"/>
<polygon fill="#000000" stroke="#000000" points="679.16,-399.32 677.42,-388.87 672.26,-398.12 679.16,-399.32"/>
<text xml:space="preserve" text-anchor="middle" x="680.42" y="-470.62" font-family="CMU Serif" font-size="12.00">нет</text>
</g>
<!-- incCnt -->
<g id="node17" class="node">
<title>incCnt</title>
<polygon fill="#ffffff" stroke="#000000" points="601.78,-387.14 385.53,-387.14 385.53,-351.14 601.78,-351.14 601.78,-387.14"/>
<text xml:space="preserve" text-anchor="middle" x="493.66" y="-365.59" font-family="CMU Serif" font-size="14.00">stableCount = stableCount + 1</text>
</g>
<!-- chkClose&#45;&gt;incCnt -->
<g id="edge21" class="edge">
<title>chkClose&#45;&gt;incCnt</title>
<path fill="none" stroke="#000000" d="M493.66,-426.05C493.66,-416.82 493.66,-407.38 493.66,-398.95"/>
<polygon fill="#000000" stroke="#000000" points="497.16,-398.97 493.66,-388.97 490.16,-398.97 497.16,-398.97"/>
<text xml:space="preserve" text-anchor="middle" x="500.78" y="-403.99" font-family="CMU Serif" font-size="12.00">да</text>
</g>
<!-- chkClose&#45;&gt;zeroCnt -->
<g id="edge22" class="edge">
<title>chkClose&#45;&gt;zeroCnt</title>
<path fill="none" stroke="#000000" d="M547.74,-442.82C576.82,-426.92 612.12,-407.61 639.03,-392.9"/>
<polygon fill="#000000" stroke="#000000" points="640.48,-396.1 647.58,-388.23 637.13,-389.95 640.48,-396.1"/>
<text xml:space="preserve" text-anchor="middle" x="635.15" y="-403.99" font-family="CMU Serif" font-size="12.00">нет</text>
</g>
<!-- chkCnt -->
<g id="node19" class="node">
<title>chkCnt</title>
<polygon fill="#fff7d1" stroke="#000000" points="493.66,-328.14 300.66,-300.64 493.66,-273.14 686.66,-300.64 493.66,-328.14"/>
<text xml:space="preserve" text-anchor="start" x="405.16" y="-298.09" font-family="CMU Serif" font-size="14.00">stableCount ≥ k</text>
<text xml:space="preserve" text-anchor="start" x="512.41" y="-298.09" font-family="CMU Serif" baseline-shift="sub" font-size="14.00">needStable</text>
<text xml:space="preserve" text-anchor="start" x="576.16" y="-298.09" font-family="CMU Serif" font-size="14.00">?</text>
</g>
<!-- incCnt&#45;&gt;chkCnt -->
<g id="edge23" class="edge">
<title>incCnt&#45;&gt;chkCnt</title>
<path fill="none" stroke="#000000" d="M493.66,-350.67C493.66,-347.28 493.66,-343.61 493.66,-339.85"/>
<polygon fill="#000000" stroke="#000000" points="497.16,-340.03 493.66,-330.03 490.16,-340.03 497.16,-340.03"/>
</g>
<!-- setPrev -->
<g id="node21" class="node">
<title>setPrev</title>
<polygon fill="#ffffff" stroke="#000000" points="811.16,-181.14 618.16,-181.14 618.16,-114.64 811.16,-114.64 811.16,-181.14"/>
<text xml:space="preserve" text-anchor="start" x="626.16" y="-162.14" font-family="CMU Serif" font-size="14.00">prevI = (inner.status = &quot;ok&quot;)</text>
<text xml:space="preserve" text-anchor="start" x="653.53" y="-142.64" font-family="CMU Serif" font-size="14.00">? inner.value : NaN</text>
<text xml:space="preserve" text-anchor="start" x="658.03" y="-123.14" font-family="CMU Serif" font-size="14.00">kStep = kStep + 1</text>
</g>
<!-- zeroCnt&#45;&gt;setPrev -->
<g id="edge27" class="edge">
<title>zeroCnt&#45;&gt;setPrev</title>
<path fill="none" stroke="#000000" d="M687.1,-350.95C691.17,-340.1 695.66,-328.14 695.66,-328.14 695.66,-328.14 704.41,-245.57 710.03,-192.51"/>
<polygon fill="#000000" stroke="#000000" points="713.48,-193.17 711.06,-182.86 706.52,-192.43 713.48,-193.17"/>
</g>
<!-- retOk -->
<g id="node20" class="node">
<title>retOk</title>
<polygon fill="#dcfce7" stroke="#000000" points="595.54,-233.89 365.06,-233.89 305.77,-61.89 536.25,-61.89 595.54,-233.89"/>
<text xml:space="preserve" text-anchor="start" x="414.66" y="-171.89" font-family="CMU Serif" font-size="14.00">status = ok</text>
<text xml:space="preserve" text-anchor="start" x="388.78" y="-152.39" font-family="CMU Serif" font-size="14.00">value = inner.value</text>
<text xml:space="preserve" text-anchor="start" x="415.03" y="-132.89" font-family="CMU Serif" font-size="14.00">n = inner.n</text>
<text xml:space="preserve" text-anchor="start" x="389.16" y="-113.39" font-family="CMU Serif" font-size="14.00">runge = lastRunge</text>
</g>
<!-- chkCnt&#45;&gt;retOk -->
<g id="edge24" class="edge">
<title>chkCnt&#45;&gt;retOk</title>
<path fill="none" stroke="#000000" d="M486.26,-273.73C483.88,-265.35 481.07,-255.52 478.1,-245.12"/>
<polygon fill="#000000" stroke="#000000" points="481.49,-244.22 475.38,-235.56 474.75,-246.14 481.49,-244.22"/>
<text xml:space="preserve" text-anchor="middle" x="489.25" y="-250.74" font-family="CMU Serif" font-size="12.00">да</text>
</g>
<!-- chkCnt&#45;&gt;setPrev -->
<g id="edge26" class="edge">
<title>chkCnt&#45;&gt;setPrev</title>
<path fill="none" stroke="#000000" d="M530.31,-277.93C562.64,-258.78 604.66,-233.89 604.66,-233.89 604.66,-233.89 634.85,-210.56 663.6,-188.34"/>
<polygon fill="#000000" stroke="#000000" points="665.47,-191.32 671.24,-182.44 661.19,-185.78 665.47,-191.32"/>
<text xml:space="preserve" text-anchor="middle" x="595.8" y="-250.74" font-family="CMU Serif" font-size="12.00">нет</text>
</g>
<!-- retOk&#45;&gt;stop -->
<g id="edge25" class="edge">
<title>retOk&#45;&gt;stop</title>
<path fill="none" stroke="#000000" d="M306.11,-61.4C294.23,-54.37 286.66,-49.89 286.66,-49.89 286.66,-49.89 279.27,-45.71 270.06,-40.5"/>
<polygon fill="#000000" stroke="#000000" points="271.79,-37.45 261.36,-35.57 268.34,-43.54 271.79,-37.45"/>
</g>
<!-- setPrev&#45;&gt;chkLoop -->
<g id="edge28" class="edge">
<title>setPrev&#45;&gt;chkLoop</title>
<path fill="none" stroke="#000000" d="M726.37,-181.6C742.26,-225.94 768.66,-299.64 768.66,-299.64 768.66,-1734.64 768.66,-1734.64 768.66,-1734.64 768.66,-1734.64 586.98,-1780.06 482.11,-1806.28"/>
<polygon fill="#000000" stroke="#000000" points="481.28,-1802.88 472.43,-1808.7 482.98,-1809.67 481.28,-1802.88"/>
</g>
</g>
</svg>
