<?xml version="1.0" encoding="UTF-8" standalone="no"?>
<!DOCTYPE svg PUBLIC "-//W3C//DTD SVG 1.1//EN"
 "http://www.w3.org/Graphics/SVG/1.1/DTD/svg11.dtd">
<!-- Generated by graphviz version 14.1.5 (0)
 -->
<!-- Title: MidRect Pages: 1 -->
<svg width="383pt" height="639pt"
 viewBox="0.00 0.00 383.00 639.00" xmlns="http://www.w3.org/2000/svg" xmlns:xlink="http://www.w3.org/1999/xlink">
<g id="graph0" class="graph" transform="scale(1 1) rotate(0) translate(4 635.28)">
<title>MidRect</title>
<polygon fill="white" stroke="none" points="-4,4 -4,-635.28 379,-635.28 379,4 -4,4"/>
<!-- start -->
<g id="node1" class="node">
<title>start</title>
<ellipse fill="#e6eefc" stroke="#000000" cx="150" cy="-611.84" rx="46.85" ry="19.45"/>
<text xml:space="preserve" text-anchor="middle" x="150" y="-608.29" font-family="CMU Serif" font-size="14.00">Начало</text>
</g>
<!-- input -->
<g id="node2" class="node">
<title>input</title>
<polygon fill="#f5f5f5" stroke="#000000" points="280.12,-569.39 73.14,-569.39 19.89,-514.39 226.87,-514.39 280.12,-569.39"/>
<text xml:space="preserve" text-anchor="middle" x="150" y="-538.34" font-family="CMU Serif" font-size="14.00">Ввод: f(x), a, b, n</text>
</g>
<!-- start&#45;&gt;input -->
<g id="edge1" class="edge">
<title>start&#45;&gt;input</title>
<path fill="none" stroke="#000000" d="M150,-591.91C150,-588.49 150,-584.82 150,-581.08"/>
<polygon fill="#000000" stroke="#000000" points="153.5,-581.35 150,-571.35 146.5,-581.35 153.5,-581.35"/>
</g>
<!-- chkN -->
<g id="node3" class="node">
<title>chkN</title>
<polygon fill="#fff7d1" stroke="#000000" points="150,-491.39 95,-463.89 150,-436.39 205,-463.89 150,-491.39"/>
<text xml:space="preserve" text-anchor="start" x="130.5" y="-458.64" font-family="CMU Serif" font-size="14.00">n &gt; 0?</text>
</g>
<!-- input&#45;&gt;chkN -->
<g id="edge2" class="edge">
<title>input&#45;&gt;chkN</title>
<path fill="none" stroke="#000000" d="M150,-514.31C150,-510.67 150,-506.88 150,-503.08"/>
<polygon fill="#000000" stroke="#000000" points="153.5,-503.36 150,-493.36 146.5,-503.36 153.5,-503.36"/>
</g>
<!-- err -->
<g id="node4" class="node">
<title>err</title>
<polygon fill="#fde2e2" stroke="#000000" points="240.01,-350.14 49.11,-350.14 0,-295.14 190.9,-295.14 240.01,-350.14"/>
<text xml:space="preserve" text-anchor="middle" x="120" y="-319.09" font-family="CMU Serif" font-size="14.00">Ошибка: n ≤ 0</text>
</g>
<!-- chkN&#45;&gt;err -->
<g id="edge3" class="edge">
<title>chkN&#45;&gt;err</title>
<path fill="none" stroke="#000000" d="M144.78,-438.64C140.2,-417.38 133.47,-386.13 128.18,-361.57"/>
<polygon fill="#000000" stroke="#000000" points="131.63,-360.99 126.1,-351.95 124.79,-362.46 131.63,-360.99"/>
<text xml:space="preserve" text-anchor="middle" x="151.59" y="-413.99" font-family="CMU Serif" font-size="12.00">нет</text>
</g>
<!-- init -->
<g id="node5" class="node">
<title>init</title>
<polygon fill="#ffffff" stroke="#000000" points="338.63,-397.14 161.38,-397.14 161.38,-361.14 338.63,-361.14 338.63,-397.14"/>
<text xml:space="preserve" text-anchor="start" x="169.38" y="-373.89" font-family="CMU Serif" font-size="14.00">h = (b − a) / n; S = 0; i = 0</text>
</g>
<!-- chkN&#45;&gt;init -->
<g id="edge5" class="edge">
<title>chkN&#45;&gt;init</title>
<path fill="none" stroke="#000000" d="M170.24,-446.15C184.69,-434.19 204.34,-417.92 220.53,-404.53"/>
<polygon fill="#000000" stroke="#000000" points="222.47,-407.47 227.94,-398.4 218.01,-402.08 222.47,-407.47"/>
<text xml:space="preserve" text-anchor="middle" x="221.93" y="-413.99" font-family="CMU Serif" font-size="12.00">да</text>
</g>
<!-- stop -->
<g id="node10" class="node">
<title>stop</title>
<ellipse fill="#e6eefc" stroke="#000000" cx="135" cy="-19.45" rx="39.95" ry="19.45"/>
<text xml:space="preserve" text-anchor="middle" x="135" y="-15.9" font-family="CMU Serif" font-size="14.00">Конец</text>
</g>
<!-- err&#45;&gt;stop -->
<g id="edge4" class="edge">
<title>err&#45;&gt;stop</title>
<path fill="none" stroke="#000000" d="M120.73,-294.74C121.62,-261.85 123,-210.52 123,-210.52 123,-210.52 123,-210.52 123,-88.39 123,-88.39 126.51,-68.51 129.74,-50.26"/>
<polygon fill="#000000" stroke="#000000" points="133.17,-50.96 131.46,-40.5 126.28,-49.74 133.17,-50.96"/>
</g>
<!-- loop -->
<g id="node6" class="node">
<title>loop</title>
<polygon fill="#fff7d1" stroke="#000000" points="254,-284.14 203.5,-256.64 254,-229.14 304.5,-256.64 254,-284.14"/>
<text xml:space="preserve" text-anchor="start" x="236.75" y="-251.39" font-family="CMU Serif" font-size="14.00">i &lt; n?</text>
</g>
<!-- init&#45;&gt;loop -->
<g id="edge6" class="edge">
<title>init&#45;&gt;loop</title>
<path fill="none" stroke="#000000" d="M250.58,-360.88C251.14,-343.89 252.02,-317.38 252.75,-295.48"/>
<polygon fill="#000000" stroke="#000000" points="256.24,-295.82 253.07,-285.71 249.24,-295.59 256.24,-295.82"/>
</g>
<!-- body -->
<g id="node7" class="node">
<title>body</title>
<polygon fill="#ffffff" stroke="#000000" points="293.38,-189.89 150.63,-189.89 150.63,-139.89 293.38,-139.89 293.38,-189.89"/>
<text xml:space="preserve" text-anchor="start" x="158.63" y="-173.59" font-family="CMU Serif" font-size="14.00">x</text>
<text xml:space="preserve" text-anchor="start" x="166.13" y="-173.59" font-family="CMU Serif" baseline-shift="sub" font-size="14.00">i+½</text>
<text xml:space="preserve" text-anchor="start" x="184.88" y="-173.59" font-family="CMU Serif" font-size="14.00"> = a + (i + 0.5)·h</text>
<text xml:space="preserve" text-anchor="start" x="178.88" y="-159.59" font-family="CMU Serif" font-size="14.00">S = S + f(x</text>
<text xml:space="preserve" text-anchor="start" x="241.88" y="-159.59" font-family="CMU Serif" baseline-shift="sub" font-size="14.00">i+½</text>
<text xml:space="preserve" text-anchor="start" x="260.63" y="-159.59" font-family="CMU Serif" font-size="14.00">)</text>
<text xml:space="preserve" text-anchor="start" x="198.38" y="-145.59" font-family="CMU Serif" font-size="14.00">i = i + 1</text>
</g>
<!-- loop&#45;&gt;body -->
<g id="edge7" class="edge">
<title>loop&#45;&gt;body</title>
<path fill="none" stroke="#000000" d="M238.88,-236.89C231.32,-227.52 223.75,-218.14 223.75,-218.14 223.75,-218.14 223.51,-210.75 223.2,-201.52"/>
<polygon fill="#000000" stroke="#000000" points="226.7,-201.57 222.87,-191.69 219.71,-201.8 226.7,-201.57"/>
<text xml:space="preserve" text-anchor="middle" x="230.88" y="-206.74" font-family="CMU Serif" font-size="12.00">да</text>
</g>
<!-- mul -->
<g id="node8" class="node">
<title>mul</title>
<polygon fill="#ffffff" stroke="#000000" points="375,-182.89 311,-182.89 311,-146.89 375,-146.89 375,-182.89"/>
<text xml:space="preserve" text-anchor="start" x="319" y="-159.64" font-family="CMU Serif" font-size="14.00">I = S · h</text>
</g>
<!-- loop&#45;&gt;mul -->
<g id="edge9" class="edge">
<title>loop&#45;&gt;mul</title>
<path fill="none" stroke="#000000" d="M271.16,-238.34C284.46,-224.93 303.08,-206.15 318.03,-191.08"/>
<polygon fill="#000000" stroke="#000000" points="320.27,-193.78 324.83,-184.22 315.3,-188.85 320.27,-193.78"/>
<text xml:space="preserve" text-anchor="middle" x="316.23" y="-206.74" font-family="CMU Serif" font-size="12.00">нет</text>
</g>
<!-- body&#45;&gt;loop -->
<g id="edge8" class="edge">
<title>body&#45;&gt;loop</title>
<path fill="none" stroke="#000000" d="M233.12,-190.2C235.85,-196.17 238,-200.89 238,-200.89 238,-200.89 240.79,-210.43 244.04,-221.54"/>
<polygon fill="#000000" stroke="#000000" points="240.63,-222.35 246.79,-230.97 247.35,-220.39 240.63,-222.35"/>
</g>
<!-- output -->
<g id="node9" class="node">
<title>output</title>
<polygon fill="#f5f5f5" stroke="#000000" points="358.91,-116.89 239.75,-116.89 209.1,-61.89 328.26,-61.89 358.91,-116.89"/>
<text xml:space="preserve" text-anchor="start" x="255.88" y="-84.14" font-family="CMU Serif" font-size="14.00">Вывод: I</text>
</g>
<!-- mul&#45;&gt;output -->
<g id="edge10" class="edge">
<title>mul&#45;&gt;output</title>
<path fill="none" stroke="#000000" d="M329.02,-146.47C324.09,-140.32 318.34,-133.17 312.64,-126.06"/>
<polygon fill="#000000" stroke="#000000" points="315.44,-123.96 306.45,-118.35 309.98,-128.34 315.44,-123.96"/>
</g>
<!-- output&#45;&gt;stop -->
<g id="edge11" class="edge">
<title>output&#45;&gt;stop</title>
<path fill="none" stroke="#000000" d="M225.12,-61.54C207.93,-53.7 189.59,-45.34 173.97,-38.21"/>
<polygon fill="#000000" stroke="#000000" points="175.56,-35.09 165.01,-34.13 172.66,-41.46 175.56,-35.09"/>
</g>
</g>
</svg>
