<?xml version="1.0" encoding="UTF-8" standalone="no"?>
<!DOCTYPE svg PUBLIC "-//W3C//DTD SVG 1.1//EN"
 "http://www.w3.org/Graphics/SVG/1.1/DTD/svg11.dtd">
<!-- Generated by graphviz version 14.1.5 (0)
 -->
<!-- Title: Newton Pages: 1 -->
<svg width="660pt" height="1084pt"
 viewBox="0.00 0.00 660.00 1084.00" xmlns="http://www.w3.org/2000/svg" xmlns:xlink="http://www.w3.org/1999/xlink">
<g id="graph0" class="graph" transform="scale(1 1) rotate(0) translate(4 1079.78)">
<title>Newton</title>
<polygon fill="white" stroke="none" points="-4,4 -4,-1079.78 656.12,-1079.78 656.12,4 -4,4"/>
<!-- start -->
<g id="node1" class="node">
<title>start</title>
<ellipse fill="#e6eefc" stroke="#000000" cx="431.22" cy="-1056.34" rx="46.85" ry="19.45"/>
<text xml:space="preserve" text-anchor="middle" x="431.22" y="-1052.79" font-family="CMU Serif" font-size="14.00">Начало</text>
</g>
<!-- input -->
<g id="node2" class="node">
<title>input</title>
<polygon fill="#f5f5f5" stroke="#000000" points="559,-1013.89 355.73,-1013.89 303.44,-958.89 506.71,-958.89 559,-1013.89"/>
<text xml:space="preserve" text-anchor="middle" x="431.22" y="-982.84" font-family="CMU Serif" font-size="14.00">Ввод: f(x), a, b, ε</text>
</g>
<!-- start&#45;&gt;input -->
<g id="edge1" class="edge">
<title>start&#45;&gt;input</title>
<path fill="none" stroke="#000000" d="M431.22,-1036.41C431.22,-1032.99 431.22,-1029.32 431.22,-1025.58"/>
<polygon fill="#000000" stroke="#000000" points="434.72,-1025.85 431.22,-1015.85 427.72,-1025.85 434.72,-1025.85"/>
</g>
<!-- assign -->
<g id="node3" class="node">
<title>assign</title>
<polygon fill="#ffffff" stroke="#000000" points="458.22,-935.89 404.22,-935.89 404.22,-899.89 458.22,-899.89 458.22,-935.89"/>
<text xml:space="preserve" text-anchor="start" x="415.84" y="-912.64" font-family="CMU Serif" font-size="14.00">x = a</text>
</g>
<!-- input&#45;&gt;assign -->
<g id="edge2" class="edge">
<title>input&#45;&gt;assign</title>
<path fill="none" stroke="#000000" d="M431.22,-958.73C431.22,-955.02 431.22,-951.19 431.22,-947.45"/>
<polygon fill="#000000" stroke="#000000" points="434.72,-947.52 431.22,-937.52 427.72,-947.52 434.72,-947.52"/>
</g>
<!-- chkStart -->
<g id="node4" class="node">
<title>chkStart</title>
<polygon fill="#fff7d1" stroke="#000000" points="431.22,-876.89 331.97,-849.39 431.22,-821.89 530.47,-849.39 431.22,-876.89"/>
<text xml:space="preserve" text-anchor="start" x="389.59" y="-844.14" font-family="CMU Serif" font-size="14.00">f(x)·f&#39;&#39;(x) &lt; 0?</text>
</g>
<!-- assign&#45;&gt;chkStart -->
<g id="edge3" class="edge">
<title>assign&#45;&gt;chkStart</title>
<path fill="none" stroke="#000000" d="M431.22,-899.42C431.22,-896.03 431.22,-892.36 431.22,-888.6"/>
<polygon fill="#000000" stroke="#000000" points="434.72,-888.78 431.22,-878.78 427.72,-888.78 434.72,-888.78"/>
</g>
<!-- swapEnd -->
<g id="node5" class="node">
<title>swapEnd</title>
<polygon fill="#ffffff" stroke="#000000" points="427.22,-782.64 373.22,-782.64 373.22,-746.64 427.22,-746.64 427.22,-782.64"/>
<text xml:space="preserve" text-anchor="start" x="384.47" y="-759.39" font-family="CMU Serif" font-size="14.00">x = b</text>
</g>
<!-- chkStart&#45;&gt;swapEnd -->
<g id="edge4" class="edge">
<title>chkStart&#45;&gt;swapEnd</title>
<path fill="none" stroke="#000000" d="M422.09,-824.01C418.5,-814.45 414.37,-803.43 410.67,-793.55"/>
<polygon fill="#000000" stroke="#000000" points="414.05,-792.58 407.26,-784.44 407.49,-795.04 414.05,-792.58"/>
<text xml:space="preserve" text-anchor="middle" x="423.77" y="-799.49" font-family="CMU Serif" font-size="12.00">да</text>
</g>
<!-- initN -->
<g id="node6" class="node">
<title>initN</title>
<polygon fill="#ffffff" stroke="#000000" points="458.22,-723.64 404.22,-723.64 404.22,-687.64 458.22,-687.64 458.22,-723.64"/>
<text xml:space="preserve" text-anchor="start" x="414.72" y="-700.39" font-family="CMU Serif" font-size="14.00">n = 0</text>
</g>
<!-- chkStart&#45;&gt;initN -->
<g id="edge5" class="edge">
<title>chkStart&#45;&gt;initN</title>
<path fill="none" stroke="#000000" d="M434,-822.35C434.68,-815.95 435.22,-810.89 435.22,-810.89 435.22,-810.89 436.22,-782.64 436.22,-782.64 436.22,-782.64 436.22,-746.64 436.22,-746.64 436.22,-746.64 435.57,-741.49 434.75,-734.88"/>
<polygon fill="#000000" stroke="#000000" points="438.27,-734.83 433.56,-725.34 431.32,-735.7 438.27,-734.83"/>
<text xml:space="preserve" text-anchor="middle" x="445.97" y="-761.87" font-family="CMU Serif" font-size="12.00">нет</text>
</g>
<!-- swapEnd&#45;&gt;initN -->
<g id="edge6" class="edge">
<title>swapEnd&#45;&gt;initN</title>
<path fill="none" stroke="#000000" d="M409.69,-746.23C411.79,-742.36 414.07,-738.17 416.33,-734.01"/>
<polygon fill="#000000" stroke="#000000" points="419.38,-735.73 421.08,-725.28 413.23,-732.39 419.38,-735.73"/>
</g>
<!-- loopCond -->
<g id="node7" class="node">
<title>loopCond</title>
<polygon fill="#fff7d1" stroke="#000000" points="431.22,-664.64 350.72,-637.14 431.22,-609.64 511.72,-637.14 431.22,-664.64"/>
<text xml:space="preserve" text-anchor="start" x="398.97" y="-631.89" font-family="CMU Serif" font-size="14.00">|f(x)| &gt; ε?</text>
</g>
<!-- initN&#45;&gt;loopCond -->
<g id="edge7" class="edge">
<title>initN&#45;&gt;loopCond</title>
<path fill="none" stroke="#000000" d="M431.22,-687.17C431.22,-683.78 431.22,-680.11 431.22,-676.35"/>
<polygon fill="#000000" stroke="#000000" points="434.72,-676.53 431.22,-666.53 427.72,-676.53 434.72,-676.53"/>
</g>
<!-- calcDer -->
<g id="node8" class="node">
<title>calcDer</title>
<polygon fill="#ffffff" stroke="#000000" points="385.34,-570.39 313.09,-570.39 313.09,-534.39 385.34,-534.39 385.34,-570.39"/>
<text xml:space="preserve" text-anchor="start" x="321.09" y="-549.84" font-family="CMU Serif" font-size="14.00">f&#39;</text>
<text xml:space="preserve" text-anchor="start" x="330.09" y="-549.84" font-family="CMU Serif" baseline-shift="sub" font-size="14.00">x</text>
<text xml:space="preserve" text-anchor="start" x="336.09" y="-549.84" font-family="CMU Serif" font-size="14.00"> = f&#39;(x)</text>
</g>
<!-- loopCond&#45;&gt;calcDer -->
<g id="edge9" class="edge">
<title>loopCond&#45;&gt;calcDer</title>
<path fill="none" stroke="#000000" d="M411.37,-616.11C400.2,-604.84 386.15,-590.66 374.23,-578.63"/>
<polygon fill="#000000" stroke="#000000" points="376.98,-576.43 367.45,-571.79 372.01,-581.36 376.98,-576.43"/>
<text xml:space="preserve" text-anchor="middle" x="399.8" y="-587.24" font-family="CMU Serif" font-size="12.00">да</text>
</g>
<!-- output -->
<g id="node15" class="node">
<title>output</title>
<polygon fill="#f5f5f5" stroke="#000000" points="652.12,-523.39 488.43,-523.39 446.32,-468.39 610.01,-468.39 652.12,-523.39"/>
<text xml:space="preserve" text-anchor="start" x="507.59" y="-490.64" font-family="CMU Serif" font-size="14.00">Вывод: x*, n</text>
</g>
<!-- loopCond&#45;&gt;output -->
<g id="edge8" class="edge">
<title>loopCond&#45;&gt;output</title>
<path fill="none" stroke="#000000" d="M448.88,-615.29C467.48,-593.34 497.1,-558.4 519.34,-532.15"/>
<polygon fill="#000000" stroke="#000000" points="521.8,-534.66 525.6,-524.77 516.46,-530.13 521.8,-534.66"/>
<text xml:space="preserve" text-anchor="middle" x="484.95" y="-587.24" font-family="CMU Serif" font-size="12.00">нет</text>
</g>
<!-- chkDer -->
<g id="node9" class="node">
<title>chkDer</title>
<polygon fill="#fff7d1" stroke="#000000" points="295.22,-457.39 186.97,-429.89 295.22,-402.39 403.47,-429.89 295.22,-457.39"/>
<text xml:space="preserve" text-anchor="start" x="249.09" y="-427.34" font-family="CMU Serif" font-size="14.00">|f&#39;</text>
<text xml:space="preserve" text-anchor="start" x="265.59" y="-427.34" font-family="CMU Serif" baseline-shift="sub" font-size="14.00">x</text>
<text xml:space="preserve" text-anchor="start" x="271.59" y="-427.34" font-family="CMU Serif" font-size="14.00">| ≤ 10</text>
<text xml:space="preserve" text-anchor="start" x="315.09" y="-427.34" font-family="CMU Serif" baseline-shift="super" font-size="14.00">−12</text>
<text xml:space="preserve" text-anchor="start" x="335.34" y="-427.34" font-family="CMU Serif" font-size="14.00">?</text>
</g>
<!-- calcDer&#45;&gt;chkDer -->
<g id="edge10" class="edge">
<title>calcDer&#45;&gt;chkDer</title>
<path fill="none" stroke="#000000" d="M341.48,-534.13C333.46,-516.23 320.71,-487.78 310.62,-465.27"/>
<polygon fill="#000000" stroke="#000000" points="313.82,-463.85 306.54,-456.15 307.43,-466.71 313.82,-463.85"/>
</g>
<!-- errDer -->
<g id="node10" class="node">
<title>errDer</title>
<polygon fill="#fde2e2" stroke="#000000" points="294.44,-316.14 60.25,-316.14 0,-222.14 234.19,-222.14 294.44,-316.14"/>
<text xml:space="preserve" text-anchor="middle" x="147.22" y="-275.34" font-family="CMU Serif" font-size="14.00">Метод не сходится</text>
<text xml:space="preserve" text-anchor="middle" x="147.22" y="-255.84" font-family="CMU Serif" font-size="14.00">(f&#39; ≈ 0)</text>
</g>
<!-- chkDer&#45;&gt;errDer -->
<g id="edge11" class="edge">
<title>chkDer&#45;&gt;errDer</title>
<path fill="none" stroke="#000000" d="M274.95,-407.15C255.21,-385.97 224.39,-352.92 197.98,-324.59"/>
<polygon fill="#000000" stroke="#000000" points="200.71,-322.38 191.33,-317.46 195.59,-327.16 200.71,-322.38"/>
<text xml:space="preserve" text-anchor="middle" x="264.91" y="-379.99" font-family="CMU Serif" font-size="12.00">да</text>
</g>
<!-- step -->
<g id="node11" class="node">
<title>step</title>
<polygon fill="#ffffff" stroke="#000000" points="352.09,-363.14 248.34,-363.14 248.34,-327.14 352.09,-327.14 352.09,-363.14"/>
<text xml:space="preserve" text-anchor="start" x="256.34" y="-342.59" font-family="CMU Serif" font-size="14.00">x = x − f(x)/f&#39;</text>
<text xml:space="preserve" text-anchor="start" x="338.09" y="-342.59" font-family="CMU Serif" baseline-shift="sub" font-size="14.00">x</text>
</g>
<!-- chkDer&#45;&gt;step -->
<g id="edge13" class="edge">
<title>chkDer&#45;&gt;step</title>
<path fill="none" stroke="#000000" d="M296.8,-402.71C297.34,-393.82 297.94,-383.84 298.49,-374.77"/>
<polygon fill="#000000" stroke="#000000" points="301.97,-375.24 299.08,-365.05 294.98,-374.82 301.97,-375.24"/>
<text xml:space="preserve" text-anchor="middle" x="308.21" y="-379.99" font-family="CMU Serif" font-size="12.00">нет</text>
</g>
<!-- stop -->
<g id="node16" class="node">
<title>stop</title>
<ellipse fill="#e6eefc" stroke="#000000" cx="290.22" cy="-19.45" rx="39.95" ry="19.45"/>
<text xml:space="preserve" text-anchor="middle" x="290.22" y="-15.9" font-family="CMU Serif" font-size="14.00">Конец</text>
</g>
<!-- errDer&#45;&gt;stop -->
<g id="edge12" class="edge">
<title>errDer&#45;&gt;stop</title>
<path fill="none" stroke="#000000" d="M151.48,-221.85C157.08,-161.04 166.22,-61.89 166.22,-61.89 166.22,-61.89 211.39,-46.79 247.21,-34.82"/>
<polygon fill="#000000" stroke="#000000" points="248.15,-38.2 256.53,-31.71 245.93,-31.56 248.15,-38.2"/>
</g>
<!-- chkFinite -->
<g id="node12" class="node">
<title>chkFinite</title>
<polygon fill="#fff7d1" stroke="#000000" points="309.22,-211.14 220.47,-183.64 309.22,-156.14 397.97,-183.64 309.22,-211.14"/>
<text xml:space="preserve" text-anchor="start" x="272.84" y="-178.39" font-family="CMU Serif" font-size="14.00">x конечен?</text>
</g>
<!-- step&#45;&gt;chkFinite -->
<g id="edge14" class="edge">
<title>step&#45;&gt;chkFinite</title>
<path fill="none" stroke="#000000" d="M301.2,-326.77C302.6,-301.89 305.22,-255.47 307.09,-222.46"/>
<polygon fill="#000000" stroke="#000000" points="310.58,-222.66 307.65,-212.47 303.59,-222.26 310.58,-222.66"/>
</g>
<!-- errDiv -->
<g id="node13" class="node">
<title>errDiv</title>
<polygon fill="#fde2e2" stroke="#000000" points="404.78,-116.89 222.54,-116.89 175.66,-61.89 357.9,-61.89 404.78,-116.89"/>
<text xml:space="preserve" text-anchor="middle" x="290.22" y="-85.84" font-family="CMU Serif" font-size="14.00">Расходимость</text>
</g>
<!-- chkFinite&#45;&gt;errDiv -->
<g id="edge15" class="edge">
<title>chkFinite&#45;&gt;errDiv</title>
<path fill="none" stroke="#000000" d="M304.03,-157.43C302.18,-148.46 300.06,-138.15 298.04,-128.35"/>
<polygon fill="#000000" stroke="#000000" points="301.49,-127.75 296.04,-118.66 294.63,-129.16 301.49,-127.75"/>
<text xml:space="preserve" text-anchor="middle" x="311.17" y="-133.74" font-family="CMU Serif" font-size="12.00">нет</text>
</g>
<!-- incr -->
<g id="node14" class="node">
<title>incr</title>
<polygon fill="#ffffff" stroke="#000000" points="496.09,-107.39 422.34,-107.39 422.34,-71.39 496.09,-71.39 496.09,-107.39"/>
<text xml:space="preserve" text-anchor="start" x="430.34" y="-84.14" font-family="CMU Serif" font-size="14.00">n = n + 1</text>
</g>
<!-- chkFinite&#45;&gt;incr -->
<g id="edge17" class="edge">
<title>chkFinite&#45;&gt;incr</title>
<path fill="none" stroke="#000000" d="M338.14,-164.85C361.84,-150.28 395.57,-129.53 421.41,-113.64"/>
<polygon fill="#000000" stroke="#000000" points="422.92,-116.82 429.61,-108.6 419.25,-110.86 422.92,-116.82"/>
<text xml:space="preserve" text-anchor="middle" x="404.78" y="-133.74" font-family="CMU Serif" font-size="12.00">да</text>
</g>
<!-- errDiv&#45;&gt;stop -->
<g id="edge16" class="edge">
<title>errDiv&#45;&gt;stop</title>
<path fill="none" stroke="#000000" d="M290.22,-61.54C290.22,-57.94 290.22,-54.24 290.22,-50.59"/>
<polygon fill="#000000" stroke="#000000" points="293.72,-50.87 290.22,-40.87 286.72,-50.87 293.72,-50.87"/>
</g>
<!-- incr&#45;&gt;loopCond -->
<g id="edge18" class="edge">
<title>incr&#45;&gt;loopCond</title>
<path fill="none" stroke="#000000" d="M453.95,-107.74C445.84,-134.46 431.22,-182.64 431.22,-182.64 431.22,-553.39 431.22,-553.39 431.22,-553.39 431.22,-553.39 431.22,-576.33 431.22,-598.05"/>
<polygon fill="#000000" stroke="#000000" points="427.72,-597.99 431.22,-607.99 434.72,-597.99 427.72,-597.99"/>
</g>
<!-- output&#45;&gt;stop -->
<g id="edge19" class="edge">
<title>output&#45;&gt;stop</title>
<path fill="none" stroke="#000000" d="M545.59,-467.99C541.15,-435.1 534.22,-383.77 534.22,-383.77 534.22,-383.77 534.22,-383.77 534.22,-88.39 534.22,-88.39 505.22,-61.89 505.22,-61.89 505.22,-61.89 400.93,-41.79 337.62,-29.58"/>
<polygon fill="#000000" stroke="#000000" points="338.66,-26.22 328.18,-27.76 337.33,-33.09 338.66,-26.22"/>
</g>
</g>
</svg>
