<?xml version="1.0" encoding="UTF-8" standalone="no"?>
<!DOCTYPE svg PUBLIC "-//W3C//DTD SVG 1.1//EN"
 "http://www.w3.org/Graphics/SVG/1.1/DTD/svg11.dtd">
<!-- Generated by graphviz version 14.1.5 (0)
 -->
<!-- Title: PrepareIntervals Pages: 1 -->
<svg width="951pt" height="1072pt"
 viewBox="0.00 0.00 951.00 1072.00" xmlns="http://www.w3.org/2000/svg" xmlns:xlink="http://www.w3.org/1999/xlink">
<g id="graph0" class="graph" transform="scale(1 1) rotate(0) translate(4 1067.78)">
<title>PrepareIntervals</title>
<polygon fill="white" stroke="none" points="-4,4 -4,-1067.78 947,-1067.78 947,4 -4,4"/>
<!-- start -->
<g id="node1" class="node">
<title>start</title>
<ellipse fill="#e6eefc" stroke="#000000" cx="415.75" cy="-1044.34" rx="129.05" ry="19.45"/>
<text xml:space="preserve" text-anchor="middle" x="415.75" y="-1040.79" font-family="CMU Serif" font-size="14.00">Начало: prepareIntervals</text>
</g>
<!-- input -->
<g id="node2" class="node">
<title>input</title>
<polygon fill="#f5f5f5" stroke="#000000" points="583.96,-1001.89 316.37,-1001.89 247.54,-946.89 515.13,-946.89 583.96,-1001.89"/>
<text xml:space="preserve" text-anchor="middle" x="415.75" y="-970.84" font-family="CMU Serif" font-size="14.00">Ввод: a, b, разрывы D</text>
</g>
<!-- start&#45;&gt;input -->
<g id="edge1" class="edge">
<title>start&#45;&gt;input</title>
<path fill="none" stroke="#000000" d="M415.75,-1024.41C415.75,-1020.99 415.75,-1017.32 415.75,-1013.58"/>
<polygon fill="#000000" stroke="#000000" points="419.25,-1013.85 415.75,-1003.85 412.25,-1013.85 419.25,-1013.85"/>
</g>
<!-- init -->
<g id="node3" class="node">
<title>init</title>
<polygon fill="#ffffff" stroke="#000000" points="476.62,-923.89 354.88,-923.89 354.88,-837.89 476.62,-837.89 476.62,-923.89"/>
<text xml:space="preserve" text-anchor="start" x="362.88" y="-904.89" font-family="CMU Serif" font-size="14.00">innerPoints = [ ]</text>
<text xml:space="preserve" text-anchor="start" x="362.88" y="-885.39" font-family="CMU Serif" font-size="14.00">startSing = false</text>
<text xml:space="preserve" text-anchor="start" x="365.5" y="-865.89" font-family="CMU Serif" font-size="14.00">endSing = false</text>
<text xml:space="preserve" text-anchor="start" x="401.88" y="-846.39" font-family="CMU Serif" font-size="14.00">i = 0</text>
</g>
<!-- input&#45;&gt;init -->
<g id="edge2" class="edge">
<title>input&#45;&gt;init</title>
<path fill="none" stroke="#000000" d="M415.75,-946.43C415.75,-942.95 415.75,-939.3 415.75,-935.57"/>
<polygon fill="#000000" stroke="#000000" points="419.25,-935.79 415.75,-925.79 412.25,-935.79 419.25,-935.79"/>
</g>
<!-- loopD -->
<g id="node4" class="node">
<title>loopD</title>
<polygon fill="#fff7d1" stroke="#000000" points="415.75,-814.89 348.75,-787.39 415.75,-759.89 482.75,-787.39 415.75,-814.89"/>
<text xml:space="preserve" text-anchor="start" x="390.25" y="-782.14" font-family="CMU Serif" font-size="14.00">i &lt; |D|?</text>
</g>
<!-- init&#45;&gt;loopD -->
<g id="edge3" class="edge">
<title>init&#45;&gt;loopD</title>
<path fill="none" stroke="#000000" d="M415.75,-837.62C415.75,-833.95 415.75,-830.24 415.75,-826.6"/>
<polygon fill="#000000" stroke="#000000" points="419.25,-826.83 415.75,-816.83 412.25,-826.83 419.25,-826.83"/>
</g>
<!-- isStart -->
<g id="node5" class="node">
<title>isStart</title>
<polygon fill="#fff7d1" stroke="#000000" points="246.75,-720.64 110.75,-693.14 246.75,-665.64 382.75,-693.14 246.75,-720.64"/>
<text xml:space="preserve" text-anchor="start" x="186.75" y="-690.59" font-family="CMU Serif" font-size="14.00">|D[i] − a| &lt; 10</text>
<text xml:space="preserve" text-anchor="start" x="280.5" y="-690.59" font-family="CMU Serif" baseline-shift="super" font-size="14.00">−15</text>
<text xml:space="preserve" text-anchor="start" x="300.75" y="-690.59" font-family="CMU Serif" font-size="14.00">?</text>
</g>
<!-- loopD&#45;&gt;isStart -->
<g id="edge5" class="edge">
<title>loopD&#45;&gt;isStart</title>
<path fill="none" stroke="#000000" d="M387.84,-771.16C361.98,-757.04 323.04,-735.78 292.61,-719.18"/>
<polygon fill="#000000" stroke="#000000" points="294.43,-716.18 283.98,-714.46 291.08,-722.33 294.43,-716.18"/>
<text xml:space="preserve" text-anchor="middle" x="353.51" y="-737.49" font-family="CMU Serif" font-size="12.00">да</text>
</g>
<!-- sortInn -->
<g id="node12" class="node">
<title>sortInn</title>
<polygon fill="#ffffff" stroke="#000000" points="614,-711.14 485.5,-711.14 485.5,-675.14 614,-675.14 614,-711.14"/>
<text xml:space="preserve" text-anchor="middle" x="549.75" y="-689.59" font-family="CMU Serif" font-size="14.00">sort(innerPoints)</text>
</g>
<!-- loopD&#45;&gt;sortInn -->
<g id="edge4" class="edge">
<title>loopD&#45;&gt;sortInn</title>
<path fill="none" stroke="#000000" d="M440.33,-769.47C461.31,-755.02 491.73,-734.08 515.17,-717.95"/>
<polygon fill="#000000" stroke="#000000" points="516.92,-720.99 523.17,-712.44 512.95,-715.23 516.92,-720.99"/>
<text xml:space="preserve" text-anchor="middle" x="504.5" y="-737.49" font-family="CMU Serif" font-size="12.00">нет</text>
</g>
<!-- setStart -->
<g id="node6" class="node">
<title>setStart</title>
<polygon fill="#ffffff" stroke="#000000" points="119.5,-560.39 0,-560.39 0,-524.39 119.5,-524.39 119.5,-560.39"/>
<text xml:space="preserve" text-anchor="middle" x="59.75" y="-538.84" font-family="CMU Serif" font-size="14.00">startSing = true</text>
</g>
<!-- isStart&#45;&gt;setStart -->
<g id="edge6" class="edge">
<title>isStart&#45;&gt;setStart</title>
<path fill="none" stroke="#000000" d="M205.69,-673.65C162.51,-654.2 100.75,-626.39 100.75,-626.39 100.75,-626.39 85.2,-594.91 73.25,-570.72"/>
<polygon fill="#000000" stroke="#000000" points="76.48,-569.36 68.92,-561.95 70.21,-572.46 76.48,-569.36"/>
<text xml:space="preserve" text-anchor="middle" x="168.42" y="-643.24" font-family="CMU Serif" font-size="12.00">да</text>
</g>
<!-- isEnd -->
<g id="node7" class="node">
<title>isEnd</title>
<polygon fill="#fff7d1" stroke="#000000" points="246.75,-626.39 110,-598.89 246.75,-571.39 383.5,-598.89 246.75,-626.39"/>
<text xml:space="preserve" text-anchor="start" x="186.38" y="-596.34" font-family="CMU Serif" font-size="14.00">|D[i] − b| &lt; 10</text>
<text xml:space="preserve" text-anchor="start" x="280.88" y="-596.34" font-family="CMU Serif" baseline-shift="super" font-size="14.00">−15</text>
<text xml:space="preserve" text-anchor="start" x="301.12" y="-596.34" font-family="CMU Serif" font-size="14.00">?</text>
</g>
<!-- isStart&#45;&gt;isEnd -->
<g id="edge8" class="edge">
<title>isStart&#45;&gt;isEnd</title>
<path fill="none" stroke="#000000" d="M246.75,-665.46C246.75,-656.93 246.75,-647.31 246.75,-638.12"/>
<polygon fill="#000000" stroke="#000000" points="250.25,-638.35 246.75,-628.35 243.25,-638.35 250.25,-638.35"/>
<text xml:space="preserve" text-anchor="middle" x="256.5" y="-643.24" font-family="CMU Serif" font-size="12.00">нет</text>
</g>
<!-- incrI -->
<g id="node11" class="node">
<title>incrI</title>
<polygon fill="#ffffff" stroke="#000000" points="219.38,-220.39 156.12,-220.39 156.12,-184.39 219.38,-184.39 219.38,-220.39"/>
<text xml:space="preserve" text-anchor="middle" x="187.75" y="-198.84" font-family="CMU Serif" font-size="14.00">i = i + 1</text>
</g>
<!-- setStart&#45;&gt;incrI -->
<g id="edge7" class="edge">
<title>setStart&#45;&gt;incrI</title>
<path fill="none" stroke="#000000" d="M61.47,-524.04C65.21,-486.26 73.75,-399.89 73.75,-399.89 73.75,-399.89 140.53,-284.78 171.87,-230.77"/>
<polygon fill="#000000" stroke="#000000" points="174.88,-232.54 176.87,-222.14 168.83,-229.03 174.88,-232.54"/>
</g>
<!-- setEnd -->
<g id="node8" class="node">
<title>setEnd</title>
<polygon fill="#ffffff" stroke="#000000" points="188.88,-435.89 74.62,-435.89 74.62,-399.89 188.88,-399.89 188.88,-435.89"/>
<text xml:space="preserve" text-anchor="middle" x="131.75" y="-414.34" font-family="CMU Serif" font-size="14.00">endSing = true</text>
</g>
<!-- isEnd&#45;&gt;setEnd -->
<g id="edge9" class="edge">
<title>isEnd&#45;&gt;setEnd</title>
<path fill="none" stroke="#000000" d="M224.42,-575.69C199.23,-550.65 161.75,-513.39 161.75,-513.39 161.75,-513.39 149.52,-474.86 140.67,-447"/>
<polygon fill="#000000" stroke="#000000" points="144.07,-446.14 137.71,-437.67 137.4,-448.26 144.07,-446.14"/>
<text xml:space="preserve" text-anchor="middle" x="215.01" y="-539.62" font-family="CMU Serif" font-size="12.00">да</text>
</g>
<!-- isInner -->
<g id="node9" class="node">
<title>isInner</title>
<polygon fill="#fff7d1" stroke="#000000" points="263.75,-507.64 171.25,-480.14 263.75,-452.64 356.25,-480.14 263.75,-507.64"/>
<text xml:space="preserve" text-anchor="start" x="225.5" y="-474.89" font-family="CMU Serif" font-size="14.00">a &lt; D[i] &lt; b?</text>
</g>
<!-- isEnd&#45;&gt;isInner -->
<g id="edge11" class="edge">
<title>isEnd&#45;&gt;isInner</title>
<path fill="none" stroke="#000000" d="M250.57,-571.69C252.88,-555.81 255.86,-535.3 258.41,-517.82"/>
<polygon fill="#000000" stroke="#000000" points="261.81,-518.75 259.79,-508.35 254.88,-517.74 261.81,-518.75"/>
<text xml:space="preserve" text-anchor="middle" x="267.02" y="-539.62" font-family="CMU Serif" font-size="12.00">нет</text>
</g>
<!-- setEnd&#45;&gt;incrI -->
<g id="edge10" class="edge">
<title>setEnd&#45;&gt;incrI</title>
<path fill="none" stroke="#000000" d="M136.33,-399.42C146,-362.58 168.54,-276.63 180.3,-231.78"/>
<polygon fill="#000000" stroke="#000000" points="183.65,-232.83 182.8,-222.27 176.88,-231.05 183.65,-232.83"/>
</g>
<!-- pushInn -->
<g id="node10" class="node">
<title>pushInn</title>
<polygon fill="#ffffff" stroke="#000000" points="387.88,-379.39 225.62,-379.39 225.62,-343.39 387.88,-343.39 387.88,-379.39"/>
<text xml:space="preserve" text-anchor="middle" x="306.75" y="-357.84" font-family="CMU Serif" font-size="14.00">innerPoints.push(D[i])</text>
</g>
<!-- isInner&#45;&gt;pushInn -->
<g id="edge12" class="edge">
<title>isInner&#45;&gt;pushInn</title>
<path fill="none" stroke="#000000" d="M272.66,-454.95C279.57,-436.19 289.16,-410.16 296.41,-390.48"/>
<polygon fill="#000000" stroke="#000000" points="299.67,-391.74 299.84,-381.15 293.1,-389.32 299.67,-391.74"/>
<text xml:space="preserve" text-anchor="middle" x="299.97" y="-415.12" font-family="CMU Serif" font-size="12.00">да</text>
</g>
<!-- isInner&#45;&gt;incrI -->
<g id="edge14" class="edge">
<title>isInner&#45;&gt;incrI</title>
<path fill="none" stroke="#000000" d="M247.65,-457.29C227.97,-430.58 197.25,-388.89 197.25,-388.89 197.25,-388.89 191.9,-284.44 189.23,-232.29"/>
<polygon fill="#000000" stroke="#000000" points="192.73,-232.16 188.72,-222.35 185.74,-232.52 192.73,-232.16"/>
<text xml:space="preserve" text-anchor="middle" x="207" y="-358.62" font-family="CMU Serif" font-size="12.00">нет</text>
</g>
<!-- pushInn&#45;&gt;incrI -->
<g id="edge13" class="edge">
<title>pushInn&#45;&gt;incrI</title>
<path fill="none" stroke="#000000" d="M293.56,-342.99C272.74,-315.52 232.13,-261.94 207.72,-229.74"/>
<polygon fill="#000000" stroke="#000000" points="210.74,-227.93 201.91,-222.08 205.16,-232.16 210.74,-227.93"/>
</g>
<!-- incrI&#45;&gt;loopD -->
<g id="edge15" class="edge">
<title>incrI&#45;&gt;loopD</title>
<path fill="none" stroke="#000000" d="M215.5,-220.72C272.36,-256.22 396.75,-333.89 396.75,-333.89 396.75,-333.89 415.75,-360.39 415.75,-360.39 415.75,-694.14 415.75,-694.14 415.75,-694.14 415.75,-694.14 415.75,-722.96 415.75,-748.38"/>
<polygon fill="#000000" stroke="#000000" points="412.25,-748.19 415.75,-758.19 419.25,-748.19 412.25,-748.19"/>
</g>
<!-- hasInn -->
<g id="node13" class="node">
<title>hasInn</title>
<polygon fill="#fff7d1" stroke="#000000" points="591.75,-626.39 443.75,-598.89 591.75,-571.39 739.75,-598.89 591.75,-626.39"/>
<text xml:space="preserve" text-anchor="start" x="525.75" y="-593.64" font-family="CMU Serif" font-size="14.00">innerPoints пустой?</text>
</g>
<!-- sortInn&#45;&gt;hasInn -->
<g id="edge16" class="edge">
<title>sortInn&#45;&gt;hasInn</title>
<path fill="none" stroke="#000000" d="M557.65,-674.79C562.8,-663.48 569.7,-648.32 575.95,-634.6"/>
<polygon fill="#000000" stroke="#000000" points="578.97,-636.4 579.93,-625.85 572.6,-633.5 578.97,-636.4"/>
</g>
<!-- oneSeg -->
<g id="node14" class="node">
<title>oneSeg</title>
<polygon fill="#ffffff" stroke="#000000" points="621.62,-322.89 451.88,-322.89 451.88,-275.89 621.62,-275.89 621.62,-322.89"/>
<text xml:space="preserve" text-anchor="start" x="459.88" y="-303.89" font-family="CMU Serif" font-size="14.00">plan.segments = [ {a, b,</text>
<text xml:space="preserve" text-anchor="start" x="469.62" y="-284.39" font-family="CMU Serif" font-size="14.00">startSing, endSing} ]</text>
</g>
<!-- hasInn&#45;&gt;oneSeg -->
<g id="edge17" class="edge">
<title>hasInn&#45;&gt;oneSeg</title>
<path fill="none" stroke="#000000" d="M585.37,-572.54C579.11,-547.65 570.5,-513.39 570.5,-513.39 570.5,-513.39 551.66,-394.51 542.14,-334.38"/>
<polygon fill="#000000" stroke="#000000" points="545.62,-334.01 540.6,-324.68 538.71,-335.11 545.62,-334.01"/>
<text xml:space="preserve" text-anchor="middle" x="577.62" y="-477.37" font-family="CMU Serif" font-size="12.00">да</text>
</g>
<!-- initSplit -->
<g id="node15" class="node">
<title>initSplit</title>
<polygon fill="#ffffff" stroke="#000000" points="741.38,-513.39 594.12,-513.39 594.12,-446.89 741.38,-446.89 741.38,-513.39"/>
<text xml:space="preserve" text-anchor="start" x="642.25" y="-494.39" font-family="CMU Serif" font-size="14.00">prev = a</text>
<text xml:space="preserve" text-anchor="start" x="602.12" y="-474.89" font-family="CMU Serif" font-size="14.00">prevSing = startSing</text>
<text xml:space="preserve" text-anchor="start" x="653.88" y="-455.39" font-family="CMU Serif" font-size="14.00">j = 0</text>
</g>
<!-- hasInn&#45;&gt;initSplit -->
<g id="edge19" class="edge">
<title>hasInn&#45;&gt;initSplit</title>
<path fill="none" stroke="#000000" d="M607.31,-573.98C616.84,-559.35 629.3,-540.21 640.43,-523.11"/>
<polygon fill="#000000" stroke="#000000" points="643.1,-525.43 645.62,-515.14 637.23,-521.61 643.1,-525.43"/>
<text xml:space="preserve" text-anchor="middle" x="648.54" y="-539.62" font-family="CMU Serif" font-size="12.00">нет</text>
</g>
<!-- ret -->
<g id="node19" class="node">
<title>ret</title>
<polygon fill="#dcfce7" stroke="#000000" points="649.54,-116.89 490.8,-116.89 449.96,-61.89 608.7,-61.89 649.54,-116.89"/>
<text xml:space="preserve" text-anchor="start" x="509.62" y="-84.14" font-family="CMU Serif" font-size="14.00">Вывод: plan</text>
</g>
<!-- oneSeg&#45;&gt;ret -->
<g id="edge18" class="edge">
<title>oneSeg&#45;&gt;ret</title>
<path fill="none" stroke="#000000" d="M538.17,-275.74C540.37,-240.41 544.66,-171.81 547.36,-128.7"/>
<polygon fill="#000000" stroke="#000000" points="550.84,-128.98 547.98,-118.78 543.86,-128.54 550.84,-128.98"/>
</g>
<!-- loopInner -->
<g id="node16" class="node">
<title>loopInner</title>
<polygon fill="#fff7d1" stroke="#000000" points="695.75,-388.89 562,-361.39 695.75,-333.89 829.5,-361.39 695.75,-388.89"/>
<text xml:space="preserve" text-anchor="start" x="636.88" y="-356.14" font-family="CMU Serif" font-size="14.00">j &lt; |innerPoints|?</text>
</g>
<!-- initSplit&#45;&gt;loopInner -->
<g id="edge20" class="edge">
<title>initSplit&#45;&gt;loopInner</title>
<path fill="none" stroke="#000000" d="M675.55,-446.62C679.08,-431.89 683.28,-414.4 686.92,-399.19"/>
<polygon fill="#000000" stroke="#000000" points="690.31,-400.1 689.23,-389.56 683.5,-398.47 690.31,-400.1"/>
</g>
<!-- pushSeg -->
<g id="node17" class="node">
<title>pushSeg</title>
<polygon fill="#ffffff" stroke="#000000" points="730.75,-264.89 570.75,-264.89 570.75,-139.89 730.75,-139.89 730.75,-264.89"/>
<text xml:space="preserve" text-anchor="start" x="578.75" y="-245.89" font-family="CMU Serif" font-size="14.00">plan.segments.push({</text>
<text xml:space="preserve" text-anchor="start" x="585.88" y="-226.39" font-family="CMU Serif" font-size="14.00">prev, innerPoints[j],</text>
<text xml:space="preserve" text-anchor="start" x="599.75" y="-206.89" font-family="CMU Serif" font-size="14.00">prevSing, true})</text>
<text xml:space="preserve" text-anchor="start" x="583.62" y="-187.39" font-family="CMU Serif" font-size="14.00">prev = innerPoints[j]</text>
<text xml:space="preserve" text-anchor="start" x="600.5" y="-167.89" font-family="CMU Serif" font-size="14.00">prevSing = true</text>
<text xml:space="preserve" text-anchor="start" x="627.12" y="-148.39" font-family="CMU Serif" font-size="14.00">j = j + 1</text>
</g>
<!-- loopInner&#45;&gt;pushSeg -->
<g id="edge21" class="edge">
<title>loopInner&#45;&gt;pushSeg</title>
<path fill="none" stroke="#000000" d="M688.52,-335.17C683.91,-319.07 677.67,-297.33 671.6,-276.14"/>
<polygon fill="#000000" stroke="#000000" points="674.99,-275.25 668.87,-266.6 668.26,-277.18 674.99,-275.25"/>
<text xml:space="preserve" text-anchor="middle" x="692" y="-296.62" font-family="CMU Serif" font-size="12.00">да</text>
</g>
<!-- pushTail -->
<g id="node18" class="node">
<title>pushTail</title>
<polygon fill="#ffffff" stroke="#000000" points="943,-225.89 748.5,-225.89 748.5,-178.89 943,-178.89 943,-225.89"/>
<text xml:space="preserve" text-anchor="start" x="773.75" y="-206.89" font-family="CMU Serif" font-size="14.00">plan.segments.push({</text>
<text xml:space="preserve" text-anchor="start" x="756.5" y="-187.39" font-family="CMU Serif" font-size="14.00">prev, b, prevSing, endSing})</text>
</g>
<!-- loopInner&#45;&gt;pushTail -->
<g id="edge23" class="edge">
<title>loopInner&#45;&gt;pushTail</title>
<path fill="none" stroke="#000000" d="M717.24,-337.9C743.16,-310.77 786.86,-265.03 816,-234.53"/>
<polygon fill="#000000" stroke="#000000" points="818.39,-237.1 822.77,-227.45 813.33,-232.26 818.39,-237.1"/>
<text xml:space="preserve" text-anchor="middle" x="785" y="-296.62" font-family="CMU Serif" font-size="12.00">нет</text>
</g>
<!-- pushSeg&#45;&gt;loopInner -->
<g id="edge22" class="edge">
<title>pushSeg&#45;&gt;loopInner</title>
<path fill="none" stroke="#000000" d="M659.55,-265.24C663.7,-294.4 667.75,-322.89 667.75,-322.89 667.75,-322.89 669.33,-325 671.73,-328.22"/>
<polygon fill="#000000" stroke="#000000" points="668.8,-330.15 677.59,-336.07 674.41,-325.96 668.8,-330.15"/>
</g>
<!-- pushTail&#45;&gt;ret -->
<g id="edge24" class="edge">
<title>pushTail&#45;&gt;ret</title>
<path fill="none" stroke="#000000" d="M806.28,-178.49C776.14,-161.01 739.75,-139.89 739.75,-139.89 739.75,-139.89 702.33,-130.14 660.7,-119.3"/>
<polygon fill="#000000" stroke="#000000" points="661.78,-115.96 651.22,-116.83 660.02,-122.74 661.78,-115.96"/>
</g>
<!-- stop -->
<g id="node20" class="node">
<title>stop</title>
<ellipse fill="#e6eefc" stroke="#000000" cx="549.75" cy="-19.45" rx="39.95" ry="19.45"/>
<text xml:space="preserve" text-anchor="middle" x="549.75" y="-15.9" font-family="CMU Serif" font-size="14.00">Конец</text>
</g>
<!-- ret&#45;&gt;stop -->
<g id="edge25" class="edge">
<title>ret&#45;&gt;stop</title>
<path fill="none" stroke="#000000" d="M549.75,-61.54C549.75,-57.94 549.75,-54.24 549.75,-50.59"/>
<polygon fill="#000000" stroke="#000000" points="553.25,-50.87 549.75,-40.87 546.25,-50.87 553.25,-50.87"/>
</g>
</g>
</svg>
