<?xml version="1.0" encoding="UTF-8" standalone="no"?>
<!DOCTYPE svg PUBLIC "-//W3C//DTD SVG 1.1//EN"
 "http://www.w3.org/Graphics/SVG/1.1/DTD/svg11.dtd">
<!-- Generated by graphviz version 14.1.5 (0)
 -->
<!-- Title: PrepareIntervals Pages: 1 -->
<svg width="995pt" height="1053pt"
 viewBox="0.00 0.00 995.00 1053.00" xmlns="http://www.w3.org/2000/svg" xmlns:xlink="http://www.w3.org/1999/xlink">
<g id="graph0" class="graph" transform="scale(1 1) rotate(0) translate(4 1049.03)">
<title>PrepareIntervals</title>
<polygon fill="white" stroke="none" points="-4,4 -4,-1049.03 991,-1049.03 991,4 -4,4"/>
<!-- start -->
<g id="node1" class="node">
<title>start</title>
<ellipse fill="#e6eefc" stroke="#000000" cx="422.75" cy="-1025.59" rx="129.05" ry="19.45"/>
<text xml:space="preserve" text-anchor="middle" x="422.75" y="-1022.04" font-family="CMU Serif" font-size="14.00">Начало: prepareIntervals</text>
</g>
<!-- input -->
<g id="node2" class="node">
<title>input</title>
<polygon fill="#f5f5f5" stroke="#000000" points="590.96,-983.14 323.37,-983.14 254.54,-928.14 522.13,-928.14 590.96,-983.14"/>
<text xml:space="preserve" text-anchor="middle" x="422.75" y="-952.09" font-family="CMU Serif" font-size="14.00">Ввод: a, b, разрывы D</text>
</g>
<!-- start&#45;&gt;input -->
<g id="edge1" class="edge">
<title>start&#45;&gt;input</title>
<path fill="none" stroke="#000000" d="M422.75,-1005.66C422.75,-1002.24 422.75,-998.57 422.75,-994.83"/>
<polygon fill="#000000" stroke="#000000" points="426.25,-995.1 422.75,-985.1 419.25,-995.1 426.25,-995.1"/>
</g>
<!-- init -->
<g id="node3" class="node">
<title>init</title>
<polygon fill="#ffffff" stroke="#000000" points="483.62,-905.14 361.88,-905.14 361.88,-819.14 483.62,-819.14 483.62,-905.14"/>
<text xml:space="preserve" text-anchor="start" x="369.88" y="-886.14" font-family="CMU Serif" font-size="14.00">innerPoints = [ ]</text>
<text xml:space="preserve" text-anchor="start" x="369.88" y="-866.64" font-family="CMU Serif" font-size="14.00">startSing = false</text>
<text xml:space="preserve" text-anchor="start" x="372.5" y="-847.14" font-family="CMU Serif" font-size="14.00">endSing = false</text>
<text xml:space="preserve" text-anchor="start" x="408.88" y="-827.64" font-family="CMU Serif" font-size="14.00">i = 0</text>
</g>
<!-- input&#45;&gt;init -->
<g id="edge2" class="edge">
<title>input&#45;&gt;init</title>
<path fill="none" stroke="#000000" d="M422.75,-927.68C422.75,-924.2 422.75,-920.55 422.75,-916.82"/>
<polygon fill="#000000" stroke="#000000" points="426.25,-917.04 422.75,-907.04 419.25,-917.04 426.25,-917.04"/>
</g>
<!-- loopD -->
<g id="node4" class="node">
<title>loopD</title>
<polygon fill="#fff7d1" stroke="#000000" points="422.75,-796.14 355.75,-768.64 422.75,-741.14 489.75,-768.64 422.75,-796.14"/>
<text xml:space="preserve" text-anchor="start" x="397.25" y="-763.39" font-family="CMU Serif" font-size="14.00">i &lt; |D|?</text>
</g>
<!-- init&#45;&gt;loopD -->
<g id="edge3" class="edge">
<title>init&#45;&gt;loopD</title>
<path fill="none" stroke="#000000" d="M422.75,-818.87C422.75,-815.2 422.75,-811.49 422.75,-807.85"/>
<polygon fill="#000000" stroke="#000000" points="426.25,-808.08 422.75,-798.08 419.25,-808.08 426.25,-808.08"/>
</g>
<!-- fin -->
<g id="node5" class="node">
<title>fin</title>
<polygon fill="#fff7d1" stroke="#000000" points="292.75,-701.89 190.5,-674.39 292.75,-646.89 395,-674.39 292.75,-701.89"/>
<text xml:space="preserve" text-anchor="start" x="249.62" y="-669.14" font-family="CMU Serif" font-size="14.00">isFinite(D[i])?</text>
</g>
<!-- loopD&#45;&gt;fin -->
<g id="edge5" class="edge">
<title>loopD&#45;&gt;fin</title>
<path fill="none" stroke="#000000" d="M398.91,-750.72C379.41,-736.88 351.52,-717.09 329.22,-701.27"/>
<polygon fill="#000000" stroke="#000000" points="331.46,-698.57 321.28,-695.63 327.41,-704.28 331.46,-698.57"/>
<text xml:space="preserve" text-anchor="middle" x="376.52" y="-718.74" font-family="CMU Serif" font-size="12.00">да</text>
</g>
<!-- sortInn -->
<g id="node13" class="node">
<title>sortInn</title>
<polygon fill="#ffffff" stroke="#000000" points="621,-692.39 492.5,-692.39 492.5,-656.39 621,-656.39 621,-692.39"/>
<text xml:space="preserve" text-anchor="middle" x="556.75" y="-670.84" font-family="CMU Serif" font-size="14.00">sort(innerPoints)</text>
</g>
<!-- loopD&#45;&gt;sortInn -->
<g id="edge4" class="edge">
<title>loopD&#45;&gt;sortInn</title>
<path fill="none" stroke="#000000" d="M447.33,-750.72C468.31,-736.27 498.73,-715.33 522.17,-699.2"/>
<polygon fill="#000000" stroke="#000000" points="523.92,-702.24 530.17,-693.69 519.95,-696.48 523.92,-702.24"/>
<text xml:space="preserve" text-anchor="middle" x="511.5" y="-718.74" font-family="CMU Serif" font-size="12.00">нет</text>
</g>
<!-- isStart -->
<g id="node6" class="node">
<title>isStart</title>
<polygon fill="#fff7d1" stroke="#000000" points="220.75,-607.64 84.75,-580.14 220.75,-552.64 356.75,-580.14 220.75,-607.64"/>
<text xml:space="preserve" text-anchor="start" x="160.75" y="-577.59" font-family="CMU Serif" font-size="14.00">|D[i] − a| &lt; 10</text>
<text xml:space="preserve" text-anchor="start" x="254.5" y="-577.59" font-family="CMU Serif" baseline-shift="super" font-size="14.00">−15</text>
<text xml:space="preserve" text-anchor="start" x="274.75" y="-577.59" font-family="CMU Serif" font-size="14.00">?</text>
</g>
<!-- fin&#45;&gt;isStart -->
<g id="edge7" class="edge">
<title>fin&#45;&gt;isStart</title>
<path fill="none" stroke="#000000" d="M275.69,-651.53C266.79,-640.12 255.73,-625.95 245.87,-613.32"/>
<polygon fill="#000000" stroke="#000000" points="248.79,-611.38 239.88,-605.65 243.27,-615.69 248.79,-611.38"/>
<text xml:space="preserve" text-anchor="middle" x="270.32" y="-624.49" font-family="CMU Serif" font-size="12.00">да</text>
</g>
<!-- incrI -->
<g id="node12" class="node">
<title>incrI</title>
<polygon fill="#ffffff" stroke="#000000" points="354.38,-107.39 291.12,-107.39 291.12,-71.39 354.38,-71.39 354.38,-107.39"/>
<text xml:space="preserve" text-anchor="middle" x="322.75" y="-85.84" font-family="CMU Serif" font-size="14.00">i = i + 1</text>
</g>
<!-- fin&#45;&gt;incrI -->
<g id="edge6" class="edge">
<title>fin&#45;&gt;incrI</title>
<path fill="none" stroke="#000000" d="M315.85,-652.59C337.23,-633.32 365.75,-607.64 365.75,-607.64 365.75,-607.64 384.75,-581.14 384.75,-581.14 384.75,-581.14 384.75,-581.14 384.75,-201.39 384.75,-201.39 343.75,-127.89 343.75,-127.89 343.75,-127.89 341.27,-123.47 338.02,-117.66"/>
<polygon fill="#000000" stroke="#000000" points="341.19,-116.16 333.25,-109.14 335.08,-119.58 341.19,-116.16"/>
<text xml:space="preserve" text-anchor="middle" x="394.5" y="-415.12" font-family="CMU Serif" font-size="12.00">нет</text>
</g>
<!-- setStart -->
<g id="node7" class="node">
<title>setStart</title>
<polygon fill="#ffffff" stroke="#000000" points="361.5,-435.89 242,-435.89 242,-399.89 361.5,-399.89 361.5,-435.89"/>
<text xml:space="preserve" text-anchor="middle" x="301.75" y="-414.34" font-family="CMU Serif" font-size="14.00">startSing = true</text>
</g>
<!-- isStart&#45;&gt;setStart -->
<g id="edge8" class="edge">
<title>isStart&#45;&gt;setStart</title>
<path fill="none" stroke="#000000" d="M242.09,-556.51C260.02,-537.49 282.75,-513.39 282.75,-513.39 282.75,-513.39 290.43,-475.2 296.02,-447.37"/>
<polygon fill="#000000" stroke="#000000" points="299.43,-448.2 297.97,-437.71 292.56,-446.82 299.43,-448.2"/>
<text xml:space="preserve" text-anchor="middle" x="278.65" y="-530.24" font-family="CMU Serif" font-size="12.00">да</text>
</g>
<!-- isEnd -->
<g id="node8" class="node">
<title>isEnd</title>
<polygon fill="#fff7d1" stroke="#000000" points="136.75,-507.64 0,-480.14 136.75,-452.64 273.5,-480.14 136.75,-507.64"/>
<text xml:space="preserve" text-anchor="start" x="76.38" y="-477.59" font-family="CMU Serif" font-size="14.00">|D[i] − b| &lt; 10</text>
<text xml:space="preserve" text-anchor="start" x="170.88" y="-477.59" font-family="CMU Serif" baseline-shift="super" font-size="14.00">−15</text>
<text xml:space="preserve" text-anchor="start" x="191.12" y="-477.59" font-family="CMU Serif" font-size="14.00">?</text>
</g>
<!-- isStart&#45;&gt;isEnd -->
<g id="edge10" class="edge">
<title>isStart&#45;&gt;isEnd</title>
<path fill="none" stroke="#000000" d="M201.27,-556.41C190.11,-543.39 175.94,-526.86 163.73,-512.61"/>
<polygon fill="#000000" stroke="#000000" points="166.57,-510.55 157.4,-505.24 161.25,-515.11 166.57,-510.55"/>
<text xml:space="preserve" text-anchor="middle" x="196.02" y="-530.24" font-family="CMU Serif" font-size="12.00">нет</text>
</g>
<!-- setStart&#45;&gt;incrI -->
<g id="edge9" class="edge">
<title>setStart&#45;&gt;incrI</title>
<path fill="none" stroke="#000000" d="M305.19,-399.45C313.07,-359.53 331.75,-264.89 331.75,-264.89 331.75,-264.89 331.75,-139.89 331.75,-139.89 331.75,-139.89 329.92,-129.81 327.91,-118.75"/>
<polygon fill="#000000" stroke="#000000" points="331.4,-118.41 326.17,-109.19 324.51,-119.66 331.4,-118.41"/>
</g>
<!-- setEnd -->
<g id="node9" class="node">
<title>setEnd</title>
<polygon fill="#ffffff" stroke="#000000" points="129.88,-317.39 15.62,-317.39 15.62,-281.39 129.88,-281.39 129.88,-317.39"/>
<text xml:space="preserve" text-anchor="middle" x="72.75" y="-295.84" font-family="CMU Serif" font-size="14.00">endSing = true</text>
</g>
<!-- isEnd&#45;&gt;setEnd -->
<g id="edge11" class="edge">
<title>isEnd&#45;&gt;setEnd</title>
<path fill="none" stroke="#000000" d="M124.69,-454.96C111.36,-428.22 91.75,-388.89 91.75,-388.89 91.75,-388.89 84.45,-354.88 78.9,-329.03"/>
<polygon fill="#000000" stroke="#000000" points="82.34,-328.4 76.82,-319.36 75.5,-329.87 82.34,-328.4"/>
<text xml:space="preserve" text-anchor="middle" x="121.38" y="-415.12" font-family="CMU Serif" font-size="12.00">да</text>
</g>
<!-- isInner -->
<g id="node10" class="node">
<title>isInner</title>
<polygon fill="#fff7d1" stroke="#000000" points="193.75,-388.89 101.25,-361.39 193.75,-333.89 286.25,-361.39 193.75,-388.89"/>
<text xml:space="preserve" text-anchor="start" x="155.5" y="-356.14" font-family="CMU Serif" font-size="14.00">a &lt; D[i] &lt; b?</text>
</g>
<!-- isEnd&#45;&gt;isInner -->
<g id="edge13" class="edge">
<title>isEnd&#45;&gt;isInner</title>
<path fill="none" stroke="#000000" d="M148.7,-454.67C157.03,-437.59 168.26,-414.6 177.42,-395.84"/>
<polygon fill="#000000" stroke="#000000" points="180.49,-397.52 181.74,-387 174.2,-394.45 180.49,-397.52"/>
<text xml:space="preserve" text-anchor="middle" x="185.06" y="-415.12" font-family="CMU Serif" font-size="12.00">нет</text>
</g>
<!-- setEnd&#45;&gt;incrI -->
<g id="edge12" class="edge">
<title>setEnd&#45;&gt;incrI</title>
<path fill="none" stroke="#000000" d="M74.82,-281.13C79.74,-240.05 91.75,-139.89 91.75,-139.89 91.75,-139.89 212.75,-113.96 279.61,-99.64"/>
<polygon fill="#000000" stroke="#000000" points="280.11,-103.11 289.15,-97.59 278.64,-96.26 280.11,-103.11"/>
</g>
<!-- pushInn -->
<g id="node11" class="node">
<title>pushInn</title>
<polygon fill="#ffffff" stroke="#000000" points="262.88,-220.39 100.62,-220.39 100.62,-184.39 262.88,-184.39 262.88,-220.39"/>
<text xml:space="preserve" text-anchor="middle" x="181.75" y="-198.84" font-family="CMU Serif" font-size="14.00">innerPoints.push(D[i])</text>
</g>
<!-- isInner&#45;&gt;pushInn -->
<g id="edge14" class="edge">
<title>isInner&#45;&gt;pushInn</title>
<path fill="none" stroke="#000000" d="M191.74,-334.11C189.58,-305.85 186.16,-261.06 183.93,-231.95"/>
<polygon fill="#000000" stroke="#000000" points="187.43,-231.74 183.18,-222.03 180.45,-232.27 187.43,-231.74"/>
<text xml:space="preserve" text-anchor="middle" x="197.98" y="-296.62" font-family="CMU Serif" font-size="12.00">да</text>
</g>
<!-- isInner&#45;&gt;incrI -->
<g id="edge16" class="edge">
<title>isInner&#45;&gt;incrI</title>
<path fill="none" stroke="#000000" d="M211.45,-338.72C234.46,-310.54 271.75,-264.89 271.75,-264.89 271.75,-264.89 300.05,-168.05 314.49,-118.65"/>
<polygon fill="#000000" stroke="#000000" points="317.8,-119.79 317.25,-109.21 311.08,-117.83 317.8,-119.79"/>
<text xml:space="preserve" text-anchor="middle" x="317.74" y="-199.62" font-family="CMU Serif" font-size="12.00">нет</text>
</g>
<!-- pushInn&#45;&gt;incrI -->
<g id="edge15" class="edge">
<title>pushInn&#45;&gt;incrI</title>
<path fill="none" stroke="#000000" d="M203.78,-184.05C227.48,-165.39 265.33,-135.59 291.96,-114.63"/>
<polygon fill="#000000" stroke="#000000" points="293.99,-117.48 299.68,-108.55 289.66,-111.98 293.99,-117.48"/>
</g>
<!-- incrI&#45;&gt;loopD -->
<g id="edge17" class="edge">
<title>incrI&#45;&gt;loopD</title>
<path fill="none" stroke="#000000" d="M349.33,-107.7C371.25,-121.98 398.75,-139.89 398.75,-139.89 398.75,-139.89 422.75,-201.39 422.75,-201.39 422.75,-675.39 422.75,-675.39 422.75,-675.39 422.75,-675.39 422.75,-704.21 422.75,-729.63"/>
<polygon fill="#000000" stroke="#000000" points="419.25,-729.44 422.75,-739.44 426.25,-729.44 419.25,-729.44"/>
</g>
<!-- hasInn -->
<g id="node14" class="node">
<title>hasInn</title>
<polygon fill="#fff7d1" stroke="#000000" points="598.75,-607.64 450.75,-580.14 598.75,-552.64 746.75,-580.14 598.75,-607.64"/>
<text xml:space="preserve" text-anchor="start" x="532.75" y="-574.89" font-family="CMU Serif" font-size="14.00">innerPoints пустой?</text>
</g>
<!-- sortInn&#45;&gt;hasInn -->
<g id="edge18" class="edge">
<title>sortInn&#45;&gt;hasInn</title>
<path fill="none" stroke="#000000" d="M564.65,-656.04C569.8,-644.73 576.7,-629.57 582.95,-615.85"/>
<polygon fill="#000000" stroke="#000000" points="585.97,-617.65 586.93,-607.1 579.6,-614.75 585.97,-617.65"/>
</g>
<!-- oneSeg -->
<g id="node15" class="node">
<title>oneSeg</title>
<polygon fill="#ffffff" stroke="#000000" points="668.62,-322.89 498.88,-322.89 498.88,-275.89 668.62,-275.89 668.62,-322.89"/>
<text xml:space="preserve" text-anchor="start" x="506.88" y="-303.89" font-family="CMU Serif" font-size="14.00">plan.segments = [ {a, b,</text>
<text xml:space="preserve" text-anchor="start" x="516.62" y="-284.39" font-family="CMU Serif" font-size="14.00">startSing, endSing} ]</text>
</g>
<!-- hasInn&#45;&gt;oneSeg -->
<g id="edge19" class="edge">
<title>hasInn&#45;&gt;oneSeg</title>
<path fill="none" stroke="#000000" d="M597.31,-552.41C594.57,-501.51 588.61,-390.71 585.59,-334.53"/>
<polygon fill="#000000" stroke="#000000" points="589.08,-334.39 585.05,-324.6 582.1,-334.77 589.08,-334.39"/>
<text xml:space="preserve" text-anchor="middle" x="602.29" y="-477.37" font-family="CMU Serif" font-size="12.00">да</text>
</g>
<!-- initSplit -->
<g id="node16" class="node">
<title>initSplit</title>
<polygon fill="#ffffff" stroke="#000000" points="779.38,-513.39 632.12,-513.39 632.12,-446.89 779.38,-446.89 779.38,-513.39"/>
<text xml:space="preserve" text-anchor="start" x="680.25" y="-494.39" font-family="CMU Serif" font-size="14.00">prev = a</text>
<text xml:space="preserve" text-anchor="start" x="640.12" y="-474.89" font-family="CMU Serif" font-size="14.00">prevSing = startSing</text>
<text xml:space="preserve" text-anchor="start" x="691.88" y="-455.39" font-family="CMU Serif" font-size="14.00">j = 0</text>
</g>
<!-- hasInn&#45;&gt;initSplit -->
<g id="edge21" class="edge">
<title>hasInn&#45;&gt;initSplit</title>
<path fill="none" stroke="#000000" d="M623.03,-556.9C634.57,-546.33 648.73,-533.37 662.04,-521.17"/>
<polygon fill="#000000" stroke="#000000" points="664.07,-524.06 669.08,-514.73 659.34,-518.9 664.07,-524.06"/>
<text xml:space="preserve" text-anchor="middle" x="665.21" y="-530.24" font-family="CMU Serif" font-size="12.00">нет</text>
</g>
<!-- ret -->
<g id="node20" class="node">
<title>ret</title>
<polygon fill="#dcfce7" stroke="#000000" points="768.54,-116.89 609.8,-116.89 568.96,-61.89 727.7,-61.89 768.54,-116.89"/>
<text xml:space="preserve" text-anchor="start" x="628.62" y="-84.14" font-family="CMU Serif" font-size="14.00">Вывод: plan</text>
</g>
<!-- oneSeg&#45;&gt;ret -->
<g id="edge20" class="edge">
<title>oneSeg&#45;&gt;ret</title>
<path fill="none" stroke="#000000" d="M586.9,-275.68C592.99,-231.86 605.75,-139.89 605.75,-139.89 605.75,-139.89 614.69,-132.87 625.83,-124.11"/>
<polygon fill="#000000" stroke="#000000" points="627.78,-127.03 633.48,-118.1 623.45,-121.53 627.78,-127.03"/>
</g>
<!-- loopInner -->
<g id="node17" class="node">
<title>loopInner</title>
<polygon fill="#fff7d1" stroke="#000000" points="733.75,-388.89 600,-361.39 733.75,-333.89 867.5,-361.39 733.75,-388.89"/>
<text xml:space="preserve" text-anchor="start" x="674.88" y="-356.14" font-family="CMU Serif" font-size="14.00">j &lt; |innerPoints|?</text>
</g>
<!-- initSplit&#45;&gt;loopInner -->
<g id="edge22" class="edge">
<title>initSplit&#45;&gt;loopInner</title>
<path fill="none" stroke="#000000" d="M713.55,-446.62C717.08,-431.89 721.28,-414.4 724.92,-399.19"/>
<polygon fill="#000000" stroke="#000000" points="728.31,-400.1 727.23,-389.56 721.5,-398.47 728.31,-400.1"/>
</g>
<!-- pushSeg -->
<g id="node18" class="node">
<title>pushSeg</title>
<polygon fill="#ffffff" stroke="#000000" points="774.75,-264.89 614.75,-264.89 614.75,-139.89 774.75,-139.89 774.75,-264.89"/>
<text xml:space="preserve" text-anchor="start" x="622.75" y="-245.89" font-family="CMU Serif" font-size="14.00">plan.segments.push({</text>
<text xml:space="preserve" text-anchor="start" x="629.88" y="-226.39" font-family="CMU Serif" font-size="14.00">prev, innerPoints[j],</text>
<text xml:space="preserve" text-anchor="start" x="643.75" y="-206.89" font-family="CMU Serif" font-size="14.00">prevSing, true})</text>
<text xml:space="preserve" text-anchor="start" x="627.62" y="-187.39" font-family="CMU Serif" font-size="14.00">prev = innerPoints[j]</text>
<text xml:space="preserve" text-anchor="start" x="644.5" y="-167.89" font-family="CMU Serif" font-size="14.00">prevSing = true</text>
<text xml:space="preserve" text-anchor="start" x="671.12" y="-148.39" font-family="CMU Serif" font-size="14.00">j = j + 1</text>
</g>
<!-- loopInner&#45;&gt;pushSeg -->
<g id="edge23" class="edge">
<title>loopInner&#45;&gt;pushSeg</title>
<path fill="none" stroke="#000000" d="M714.85,-337.71C708.27,-329.81 702.5,-322.89 702.5,-322.89 702.5,-322.89 701.1,-301.27 699.49,-276.42"/>
<polygon fill="#000000" stroke="#000000" points="703,-276.5 698.86,-266.75 696.01,-276.96 703,-276.5"/>
<text xml:space="preserve" text-anchor="middle" x="709.62" y="-296.62" font-family="CMU Serif" font-size="12.00">да</text>
</g>
<!-- pushTail -->
<g id="node19" class="node">
<title>pushTail</title>
<polygon fill="#ffffff" stroke="#000000" points="987,-225.89 792.5,-225.89 792.5,-178.89 987,-178.89 987,-225.89"/>
<text xml:space="preserve" text-anchor="start" x="817.75" y="-206.89" font-family="CMU Serif" font-size="14.00">plan.segments.push({</text>
<text xml:space="preserve" text-anchor="start" x="800.5" y="-187.39" font-family="CMU Serif" font-size="14.00">prev, b, prevSing, endSing})</text>
</g>
<!-- loopInner&#45;&gt;pushTail -->
<g id="edge25" class="edge">
<title>loopInner&#45;&gt;pushTail</title>
<path fill="none" stroke="#000000" d="M755.77,-338.23C782.83,-310.99 828.89,-264.64 859.32,-234.01"/>
<polygon fill="#000000" stroke="#000000" points="861.45,-236.84 866.02,-227.28 856.48,-231.9 861.45,-236.84"/>
<text xml:space="preserve" text-anchor="middle" x="826.18" y="-296.62" font-family="CMU Serif" font-size="12.00">нет</text>
</g>
<!-- pushSeg&#45;&gt;loopInner -->
<g id="edge24" class="edge">
<title>pushSeg&#45;&gt;loopInner</title>
<path fill="none" stroke="#000000" d="M713.5,-265.19C715.46,-271.64 716.75,-275.89 716.75,-275.89 716.75,-275.89 721.73,-300.65 726.3,-323.37"/>
<polygon fill="#000000" stroke="#000000" points="722.85,-323.98 728.26,-333.1 729.72,-322.6 722.85,-323.98"/>
</g>
<!-- pushTail&#45;&gt;ret -->
<g id="edge26" class="edge">
<title>pushTail&#45;&gt;ret</title>
<path fill="none" stroke="#000000" d="M850.28,-178.49C820.14,-161.01 783.75,-139.89 783.75,-139.89 783.75,-139.89 764.42,-131.57 741.6,-121.75"/>
<polygon fill="#000000" stroke="#000000" points="743.26,-118.65 732.69,-117.91 740.49,-125.08 743.26,-118.65"/>
</g>
<!-- stop -->
<g id="node21" class="node">
<title>stop</title>
<ellipse fill="#e6eefc" stroke="#000000" cx="668.75" cy="-19.45" rx="39.95" ry="19.45"/>
<text xml:space="preserve" text-anchor="middle" x="668.75" y="-15.9" font-family="CMU Serif" font-size="14.00">Конец</text>
</g>
<!-- ret&#45;&gt;stop -->
<g id="edge27" class="edge">
<title>ret&#45;&gt;stop</title>
<path fill="none" stroke="#000000" d="M668.75,-61.54C668.75,-57.94 668.75,-54.24 668.75,-50.59"/>
<polygon fill="#000000" stroke="#000000" points="672.25,-50.87 668.75,-40.87 665.25,-50.87 672.25,-50.87"/>
</g>
</g>
</svg>
