<?xml version="1.0" encoding="UTF-8" standalone="no"?>
<!DOCTYPE svg PUBLIC "-//W3C//DTD SVG 1.1//EN"
 "http://www.w3.org/Graphics/SVG/1.1/DTD/svg11.dtd">
<!-- Generated by graphviz version 14.1.5 (0)
 -->
<!-- Title: RightRect Pages: 1 -->
<svg width="359pt" height="538pt"
 viewBox="0.00 0.00 359.00 538.00" xmlns="http://www.w3.org/2000/svg" xmlns:xlink="http://www.w3.org/1999/xlink">
<g id="graph0" class="graph" transform="scale(1 1) rotate(0) translate(4 534.03)">
<title>RightRect</title>
<polygon fill="white" stroke="none" points="-4,4 -4,-534.03 355.43,-534.03 355.43,4 -4,4"/>
<!-- start -->
<g id="node1" class="node">
<title>start</title>
<ellipse fill="#e6eefc" stroke="#000000" cx="175.72" cy="-510.59" rx="175.72" ry="19.45"/>
<text xml:space="preserve" text-anchor="middle" x="175.72" y="-507.04" font-family="CMU Serif" font-size="14.00">Начало: RightRectIntegrator::apply</text>
</g>
<!-- input -->
<g id="node2" class="node">
<title>input</title>
<polygon fill="#f5f5f5" stroke="#000000" points="305.83,-468.14 98.85,-468.14 45.6,-413.14 252.58,-413.14 305.83,-468.14"/>
<text xml:space="preserve" text-anchor="middle" x="175.72" y="-437.09" font-family="CMU Serif" font-size="14.00">Ввод: f(x), a, b, n</text>
</g>
<!-- start&#45;&gt;input -->
<g id="edge1" class="edge">
<title>start&#45;&gt;input</title>
<path fill="none" stroke="#000000" d="M175.72,-490.66C175.72,-487.24 175.72,-483.57 175.72,-479.83"/>
<polygon fill="#000000" stroke="#000000" points="179.22,-480.1 175.72,-470.1 172.22,-480.1 179.22,-480.1"/>
</g>
<!-- init -->
<g id="node3" class="node">
<title>init</title>
<polygon fill="#ffffff" stroke="#000000" points="227.22,-390.14 124.22,-390.14 124.22,-323.64 227.22,-323.64 227.22,-390.14"/>
<text xml:space="preserve" text-anchor="start" x="132.22" y="-371.14" font-family="CMU Serif" font-size="14.00">h = (b − a) / n</text>
<text xml:space="preserve" text-anchor="start" x="159.97" y="-351.64" font-family="CMU Serif" font-size="14.00">S = 0</text>
<text xml:space="preserve" text-anchor="start" x="161.84" y="-332.14" font-family="CMU Serif" font-size="14.00">i = 1</text>
</g>
<!-- input&#45;&gt;init -->
<g id="edge2" class="edge">
<title>input&#45;&gt;init</title>
<path fill="none" stroke="#000000" d="M175.72,-412.87C175.72,-409.29 175.72,-405.54 175.72,-401.75"/>
<polygon fill="#000000" stroke="#000000" points="179.22,-401.94 175.72,-391.94 172.22,-401.94 179.22,-401.94"/>
</g>
<!-- loop -->
<g id="node4" class="node">
<title>loop</title>
<polygon fill="#fff7d1" stroke="#000000" points="175.72,-300.64 121.47,-273.14 175.72,-245.64 229.97,-273.14 175.72,-300.64"/>
<text xml:space="preserve" text-anchor="start" x="156.59" y="-267.89" font-family="CMU Serif" font-size="14.00">i ≤ n?</text>
</g>
<!-- init&#45;&gt;loop -->
<g id="edge3" class="edge">
<title>init&#45;&gt;loop</title>
<path fill="none" stroke="#000000" d="M175.72,-323.58C175.72,-319.83 175.72,-315.98 175.72,-312.17"/>
<polygon fill="#000000" stroke="#000000" points="179.22,-312.46 175.72,-302.46 172.22,-312.46 179.22,-312.46"/>
</g>
<!-- body -->
<g id="node5" class="node">
<title>body</title>
<polygon fill="#ffffff" stroke="#000000" points="189.97,-206.39 103.47,-206.39 103.47,-139.89 189.97,-139.89 189.97,-206.39"/>
<text xml:space="preserve" text-anchor="start" x="111.47" y="-187.39" font-family="CMU Serif" font-size="14.00">x = a + i · h</text>
<text xml:space="preserve" text-anchor="start" x="112.97" y="-167.89" font-family="CMU Serif" font-size="14.00">S = S + f(x)</text>
<text xml:space="preserve" text-anchor="start" x="123.09" y="-148.39" font-family="CMU Serif" font-size="14.00">i = i + 1</text>
</g>
<!-- loop&#45;&gt;body -->
<g id="edge4" class="edge">
<title>loop&#45;&gt;body</title>
<path fill="none" stroke="#000000" d="M161.26,-252.95C154.31,-243.73 147.47,-234.64 147.47,-234.64 147.47,-234.64 147.38,-227.51 147.26,-218.14"/>
<polygon fill="#000000" stroke="#000000" points="150.76,-218.34 147.14,-208.38 143.76,-218.43 150.76,-218.34"/>
<text xml:space="preserve" text-anchor="middle" x="154.59" y="-223.24" font-family="CMU Serif" font-size="12.00">да</text>
</g>
<!-- mul -->
<g id="node6" class="node">
<title>mul</title>
<polygon fill="#ffffff" stroke="#000000" points="271.72,-191.14 207.72,-191.14 207.72,-155.14 271.72,-155.14 271.72,-191.14"/>
<text xml:space="preserve" text-anchor="start" x="215.72" y="-167.89" font-family="CMU Serif" font-size="14.00">I = S · h</text>
</g>
<!-- loop&#45;&gt;mul -->
<g id="edge6" class="edge">
<title>loop&#45;&gt;mul</title>
<path fill="none" stroke="#000000" d="M188.98,-251.84C198.62,-237.07 211.77,-216.94 222.26,-200.87"/>
<polygon fill="#000000" stroke="#000000" points="225.03,-203.03 227.57,-192.74 219.17,-199.2 225.03,-203.03"/>
<text xml:space="preserve" text-anchor="middle" x="219.39" y="-223.24" font-family="CMU Serif" font-size="12.00">нет</text>
</g>
<!-- body&#45;&gt;loop -->
<g id="edge5" class="edge">
<title>body&#45;&gt;loop</title>
<path fill="none" stroke="#000000" d="M157.93,-206.48C160.1,-212.73 161.72,-217.39 161.72,-217.39 161.72,-217.39 164.04,-226.47 166.79,-237.23"/>
<polygon fill="#000000" stroke="#000000" points="163.37,-238 169.24,-246.82 170.15,-236.26 163.37,-238"/>
</g>
<!-- output -->
<g id="node7" class="node">
<title>output</title>
<polygon fill="#dcfce7" stroke="#000000" points="314.62,-116.89 195.46,-116.89 164.81,-61.89 283.97,-61.89 314.62,-116.89"/>
<text xml:space="preserve" text-anchor="start" x="211.59" y="-84.14" font-family="CMU Serif" font-size="14.00">Вывод: I</text>
</g>
<!-- mul&#45;&gt;output -->
<g id="edge7" class="edge">
<title>mul&#45;&gt;output</title>
<path fill="none" stroke="#000000" d="M239.72,-154.8C239.72,-147.16 239.72,-137.85 239.72,-128.71"/>
<polygon fill="#000000" stroke="#000000" points="243.22,-128.87 239.72,-118.87 236.22,-128.87 243.22,-128.87"/>
</g>
<!-- stop -->
<g id="node8" class="node">
<title>stop</title>
<ellipse fill="#e6eefc" stroke="#000000" cx="239.72" cy="-19.45" rx="39.95" ry="19.45"/>
<text xml:space="preserve" text-anchor="middle" x="239.72" y="-15.9" font-family="CMU Serif" font-size="14.00">Конец</text>
</g>
<!-- output&#45;&gt;stop -->
<g id="edge8" class="edge">
<title>output&#45;&gt;stop</title>
<path fill="none" stroke="#000000" d="M239.72,-61.54C239.72,-57.94 239.72,-54.24 239.72,-50.59"/>
<polygon fill="#000000" stroke="#000000" points="243.22,-50.87 239.72,-40.87 236.22,-50.87 243.22,-50.87"/>
</g>
</g>
</svg>
