<?xml version="1.0" encoding="UTF-8" standalone="no"?>
<!DOCTYPE svg PUBLIC "-//W3C//DTD SVG 1.1//EN"
 "http://www.w3.org/Graphics/SVG/1.1/DTD/svg11.dtd">
<!-- Generated by graphviz version 14.1.5 (0)
 -->
<!-- Title: RungeLoop Pages: 1 -->
<svg width="700pt" height="996pt"
 viewBox="0.00 0.00 700.00 996.00" xmlns="http://www.w3.org/2000/svg" xmlns:xlink="http://www.w3.org/1999/xlink">
<g id="graph0" class="graph" transform="scale(1 1) rotate(0) translate(4 991.53)">
<title>RungeLoop</title>
<polygon fill="white" stroke="none" points="-4,4 -4,-991.53 696.12,-991.53 696.12,4 -4,4"/>
<!-- start -->
<g id="node1" class="node">
<title>start</title>
<ellipse fill="#e6eefc" stroke="#000000" cx="273.56" cy="-968.09" rx="46.85" ry="19.45"/>
<text xml:space="preserve" text-anchor="middle" x="273.56" y="-964.54" font-family="CMU Serif" font-size="14.00">Начало</text>
</g>
<!-- input -->
<g id="node2" class="node">
<title>input</title>
<polygon fill="#f5f5f5" stroke="#000000" points="451.88,-925.64 168.21,-925.64 95.24,-870.64 378.91,-870.64 451.88,-925.64"/>
<text xml:space="preserve" text-anchor="middle" x="273.56" y="-894.59" font-family="CMU Serif" font-size="14.00">Ввод: метод, f(x), a, b, ε</text>
</g>
<!-- start&#45;&gt;input -->
<g id="edge1" class="edge">
<title>start&#45;&gt;input</title>
<path fill="none" stroke="#000000" d="M273.56,-948.16C273.56,-944.74 273.56,-941.07 273.56,-937.33"/>
<polygon fill="#000000" stroke="#000000" points="277.06,-937.6 273.56,-927.6 270.06,-937.6 277.06,-937.6"/>
</g>
<!-- init -->
<g id="node3" class="node">
<title>init</title>
<polygon fill="#ffffff" stroke="#000000" points="347.56,-847.64 199.56,-847.64 199.56,-797.64 347.56,-797.64 347.56,-847.64"/>
<text xml:space="preserve" text-anchor="start" x="207.56" y="-831.34" font-family="CMU Serif" font-size="14.00">k = порядок метода</text>
<text xml:space="preserve" text-anchor="start" x="257.06" y="-817.34" font-family="CMU Serif" font-size="14.00">n = 4</text>
<text xml:space="preserve" text-anchor="start" x="209.06" y="-803.34" font-family="CMU Serif" font-size="14.00">I</text>
<text xml:space="preserve" text-anchor="start" x="213.56" y="-803.34" font-family="CMU Serif" baseline-shift="sub" font-size="14.00">h</text>
<text xml:space="preserve" text-anchor="start" x="221.06" y="-803.34" font-family="CMU Serif" font-size="14.00"> = метод(f, a, b, n)</text>
</g>
<!-- input&#45;&gt;init -->
<g id="edge2" class="edge">
<title>input&#45;&gt;init</title>
<path fill="none" stroke="#000000" d="M273.56,-870.19C273.56,-866.5 273.56,-862.67 273.56,-858.87"/>
<polygon fill="#000000" stroke="#000000" points="277.06,-859.19 273.56,-849.19 270.06,-859.19 277.06,-859.19"/>
</g>
<!-- chkInit -->
<g id="node4" class="node">
<title>chkInit</title>
<polygon fill="#fff7d1" stroke="#000000" points="273.56,-774.64 180.31,-747.14 273.56,-719.64 366.81,-747.14 273.56,-774.64"/>
<text xml:space="preserve" text-anchor="start" x="234.94" y="-744.59" font-family="CMU Serif" font-size="14.00">I</text>
<text xml:space="preserve" text-anchor="start" x="239.44" y="-744.59" font-family="CMU Serif" baseline-shift="sub" font-size="14.00">h</text>
<text xml:space="preserve" text-anchor="start" x="246.94" y="-744.59" font-family="CMU Serif" font-size="14.00"> конечен?</text>
</g>
<!-- init&#45;&gt;chkInit -->
<g id="edge3" class="edge">
<title>init&#45;&gt;chkInit</title>
<path fill="none" stroke="#000000" d="M273.56,-797.17C273.56,-793.73 273.56,-790.13 273.56,-786.51"/>
<polygon fill="#000000" stroke="#000000" points="277.06,-786.55 273.56,-776.55 270.06,-786.55 277.06,-786.55"/>
</g>
<!-- errInit -->
<g id="node5" class="node">
<title>errInit</title>
<polygon fill="#fde2e2" stroke="#000000" points="229.12,-614.39 46.88,-614.39 0,-559.39 182.24,-559.39 229.12,-614.39"/>
<text xml:space="preserve" text-anchor="middle" x="114.56" y="-583.34" font-family="CMU Serif" font-size="14.00">Расходимость</text>
</g>
<!-- chkInit&#45;&gt;errInit -->
<g id="edge4" class="edge">
<title>chkInit&#45;&gt;errInit</title>
<path fill="none" stroke="#000000" d="M252.77,-725.45C226.58,-699.38 181.17,-654.18 149.58,-622.74"/>
<polygon fill="#000000" stroke="#000000" points="152.09,-620.31 142.54,-615.73 147.15,-625.27 152.09,-620.31"/>
<text xml:space="preserve" text-anchor="middle" x="243.09" y="-697.24" font-family="CMU Serif" font-size="12.00">нет</text>
</g>
<!-- loop -->
<g id="node6" class="node">
<title>loop</title>
<polygon fill="#fff7d1" stroke="#000000" points="381.56,-680.39 289.81,-652.89 381.56,-625.39 473.31,-652.89 381.56,-680.39"/>
<text xml:space="preserve" text-anchor="start" x="343.69" y="-650.34" font-family="CMU Serif" font-size="14.00">2n ≤ n</text>
<text xml:space="preserve" text-anchor="start" x="389.44" y="-650.34" font-family="CMU Serif" baseline-shift="sub" font-size="14.00">max</text>
<text xml:space="preserve" text-anchor="start" x="413.44" y="-650.34" font-family="CMU Serif" font-size="14.00">?</text>
</g>
<!-- chkInit&#45;&gt;loop -->
<g id="edge6" class="edge">
<title>chkInit&#45;&gt;loop</title>
<path fill="none" stroke="#000000" d="M297,-726.12C312.42,-712.95 332.81,-695.53 349.7,-681.1"/>
<polygon fill="#000000" stroke="#000000" points="351.69,-684.01 357.02,-674.85 347.14,-678.69 351.69,-684.01"/>
<text xml:space="preserve" text-anchor="middle" x="344.36" y="-697.24" font-family="CMU Serif" font-size="12.00">да</text>
</g>
<!-- stop -->
<g id="node15" class="node">
<title>stop</title>
<ellipse fill="#e6eefc" stroke="#000000" cx="206.56" cy="-19.45" rx="39.95" ry="19.45"/>
<text xml:space="preserve" text-anchor="middle" x="206.56" y="-15.9" font-family="CMU Serif" font-size="14.00">Конец</text>
</g>
<!-- errInit&#45;&gt;stop -->
<g id="edge5" class="edge">
<title>errInit&#45;&gt;stop</title>
<path fill="none" stroke="#000000" d="M103.18,-559.02C89.27,-526.17 67.56,-474.89 67.56,-474.89 67.56,-474.89 67.56,-474.89 67.56,-96.89 67.56,-96.89 129.59,-62.78 170.77,-40.13"/>
<polygon fill="#000000" stroke="#000000" points="172.34,-43.26 179.42,-35.37 168.97,-37.13 172.34,-43.26"/>
</g>
<!-- maxIt -->
<g id="node7" class="node">
<title>maxIt</title>
<polygon fill="#fde2e2" stroke="#000000" points="692.12,-501.39 487.61,-501.39 435,-446.39 639.51,-446.39 692.12,-501.39"/>
<text xml:space="preserve" text-anchor="middle" x="563.56" y="-470.34" font-family="CMU Serif" font-size="14.00">Статус: max_iter</text>
</g>
<!-- loop&#45;&gt;maxIt -->
<g id="edge7" class="edge">
<title>loop&#45;&gt;maxIt</title>
<path fill="none" stroke="#000000" d="M407.87,-632.92C420.76,-623.62 433.56,-614.39 433.56,-614.39 433.56,-614.39 492.34,-551.32 530.85,-509.99"/>
<polygon fill="#000000" stroke="#000000" points="533.21,-512.6 537.46,-502.9 528.09,-507.82 533.21,-512.6"/>
<text xml:space="preserve" text-anchor="middle" x="494.48" y="-584.12" font-family="CMU Serif" font-size="12.00">нет</text>
</g>
<!-- step -->
<g id="node8" class="node">
<title>step</title>
<polygon fill="#ffffff" stroke="#000000" points="384.81,-548.39 226.31,-548.39 226.31,-512.39 384.81,-512.39 384.81,-548.39"/>
<text xml:space="preserve" text-anchor="start" x="283.44" y="-532.09" font-family="CMU Serif" font-size="14.00">n&#39; = 2n</text>
<text xml:space="preserve" text-anchor="start" x="234.31" y="-518.09" font-family="CMU Serif" font-size="14.00">I</text>
<text xml:space="preserve" text-anchor="start" x="238.81" y="-518.09" font-family="CMU Serif" baseline-shift="sub" font-size="14.00">h/2</text>
<text xml:space="preserve" text-anchor="start" x="257.56" y="-518.09" font-family="CMU Serif" font-size="14.00"> = метод(f, a, b, n&#39;)</text>
</g>
<!-- loop&#45;&gt;step -->
<g id="edge9" class="edge">
<title>loop&#45;&gt;step</title>
<path fill="none" stroke="#000000" d="M367.27,-629.23C354.57,-609.1 336,-579.65 322.55,-558.33"/>
<polygon fill="#000000" stroke="#000000" points="325.69,-556.75 317.4,-550.15 319.77,-560.48 325.69,-556.75"/>
<text xml:space="preserve" text-anchor="middle" x="364.1" y="-584.12" font-family="CMU Serif" font-size="12.00">да</text>
</g>
<!-- maxIt&#45;&gt;stop -->
<g id="edge8" class="edge">
<title>maxIt&#45;&gt;stop</title>
<path fill="none" stroke="#000000" d="M559.2,-445.99C553.88,-413.1 545.56,-361.77 545.56,-361.77 545.56,-361.77 545.56,-361.77 545.56,-96.89 545.56,-96.89 508.56,-61.89 508.56,-61.89 508.56,-61.89 341.76,-39 256.09,-27.24"/>
<polygon fill="#000000" stroke="#000000" points="256.69,-23.79 246.31,-25.9 255.74,-30.73 256.69,-23.79"/>
</g>
<!-- chkFin -->
<g id="node9" class="node">
<title>chkFin</title>
<polygon fill="#fff7d1" stroke="#000000" points="286.56,-435.39 182.06,-407.89 286.56,-380.39 391.06,-407.89 286.56,-435.39"/>
<text xml:space="preserve" text-anchor="start" x="242.31" y="-405.34" font-family="CMU Serif" font-size="14.00">I</text>
<text xml:space="preserve" text-anchor="start" x="246.81" y="-405.34" font-family="CMU Serif" baseline-shift="sub" font-size="14.00">h/2</text>
<text xml:space="preserve" text-anchor="start" x="265.56" y="-405.34" font-family="CMU Serif" font-size="14.00"> конечен?</text>
</g>
<!-- step&#45;&gt;chkFin -->
<g id="edge10" class="edge">
<title>step&#45;&gt;chkFin</title>
<path fill="none" stroke="#000000" d="M302.84,-512.13C300.13,-494.92 295.87,-467.94 292.39,-445.88"/>
<polygon fill="#000000" stroke="#000000" points="295.86,-445.38 290.84,-436.04 288.94,-446.47 295.86,-445.38"/>
</g>
<!-- errDiv -->
<g id="node10" class="node">
<title>errDiv</title>
<polygon fill="#fde2e2" stroke="#000000" points="312.12,-294.14 129.88,-294.14 83,-239.14 265.24,-239.14 312.12,-294.14"/>
<text xml:space="preserve" text-anchor="middle" x="197.56" y="-263.09" font-family="CMU Serif" font-size="14.00">Расходимость</text>
</g>
<!-- chkFin&#45;&gt;errDiv -->
<g id="edge11" class="edge">
<title>chkFin&#45;&gt;errDiv</title>
<path fill="none" stroke="#000000" d="M264.41,-386.09C243.9,-366.82 216.56,-341.14 216.56,-341.14 216.56,-341.14 212.03,-323.6 207.39,-305.66"/>
<polygon fill="#000000" stroke="#000000" points="210.8,-304.86 204.91,-296.06 204.02,-306.62 210.8,-304.86"/>
<text xml:space="preserve" text-anchor="middle" x="255.34" y="-357.99" font-family="CMU Serif" font-size="12.00">нет</text>
</g>
<!-- runge -->
<g id="node11" class="node">
<title>runge</title>
<polygon fill="#ffffff" stroke="#000000" points="391.94,-341.14 225.19,-341.14 225.19,-305.14 391.94,-305.14 391.94,-341.14"/>
<text xml:space="preserve" text-anchor="start" x="233.19" y="-320.59" font-family="CMU Serif" font-size="14.00">R = |I</text>
<text xml:space="preserve" text-anchor="start" x="269.94" y="-320.59" font-family="CMU Serif" baseline-shift="sub" font-size="14.00">h/2</text>
<text xml:space="preserve" text-anchor="start" x="288.69" y="-320.59" font-family="CMU Serif" font-size="14.00"> − I</text>
<text xml:space="preserve" text-anchor="start" x="308.94" y="-320.59" font-family="CMU Serif" baseline-shift="sub" font-size="14.00">h</text>
<text xml:space="preserve" text-anchor="start" x="316.44" y="-320.59" font-family="CMU Serif" font-size="14.00">| / (2</text>
<text xml:space="preserve" text-anchor="start" x="349.44" y="-320.59" font-family="CMU Serif" baseline-shift="super" font-size="14.00">k</text>
<text xml:space="preserve" text-anchor="start" x="355.44" y="-320.59" font-family="CMU Serif" font-size="14.00"> − 1)</text>
</g>
<!-- chkFin&#45;&gt;runge -->
<g id="edge13" class="edge">
<title>chkFin&#45;&gt;runge</title>
<path fill="none" stroke="#000000" d="M293.16,-382.06C295.63,-372.79 298.45,-362.19 300.99,-352.61"/>
<polygon fill="#000000" stroke="#000000" points="304.34,-353.62 303.53,-343.06 297.58,-351.82 304.34,-353.62"/>
<text xml:space="preserve" text-anchor="middle" x="307.94" y="-357.99" font-family="CMU Serif" font-size="12.00">да</text>
</g>
<!-- errDiv&#45;&gt;stop -->
<g id="edge12" class="edge">
<title>errDiv&#45;&gt;stop</title>
<path fill="none" stroke="#000000" d="M196.13,-238.66C194.08,-200.12 190.56,-133.89 190.56,-133.89 190.56,-133.89 190.56,-61.89 190.56,-61.89 190.56,-61.89 192.76,-56.2 195.53,-49.03"/>
<polygon fill="#000000" stroke="#000000" points="198.62,-50.75 198.95,-40.16 192.09,-48.23 198.62,-50.75"/>
</g>
<!-- chkR -->
<g id="node12" class="node">
<title>chkR</title>
<polygon fill="#fff7d1" stroke="#000000" points="327.56,-228.14 269.56,-200.64 327.56,-173.14 385.56,-200.64 327.56,-228.14"/>
<text xml:space="preserve" text-anchor="start" x="306.56" y="-195.39" font-family="CMU Serif" font-size="14.00">R ≤ ε?</text>
</g>
<!-- runge&#45;&gt;chkR -->
<g id="edge14" class="edge">
<title>runge&#45;&gt;chkR</title>
<path fill="none" stroke="#000000" d="M311.64,-304.89C312.67,-299.12 313.56,-294.14 313.56,-294.14 313.56,-294.14 318.19,-263.55 322.13,-237.55"/>
<polygon fill="#000000" stroke="#000000" points="325.55,-238.34 323.58,-227.93 318.63,-237.29 325.55,-238.34"/>
</g>
<!-- upd -->
<g id="node13" class="node">
<title>upd</title>
<polygon fill="#ffffff" stroke="#000000" points="499.81,-115.89 389.31,-115.89 389.31,-79.89 499.81,-79.89 499.81,-115.89"/>
<text xml:space="preserve" text-anchor="start" x="397.31" y="-95.34" font-family="CMU Serif" font-size="14.00">I</text>
<text xml:space="preserve" text-anchor="start" x="401.81" y="-95.34" font-family="CMU Serif" baseline-shift="sub" font-size="14.00">h</text>
<text xml:space="preserve" text-anchor="start" x="409.31" y="-95.34" font-family="CMU Serif" font-size="14.00"> = I</text>
<text xml:space="preserve" text-anchor="start" x="429.56" y="-95.34" font-family="CMU Serif" baseline-shift="sub" font-size="14.00">h/2</text>
<text xml:space="preserve" text-anchor="start" x="448.31" y="-95.34" font-family="CMU Serif" font-size="14.00">; n = n&#39;</text>
</g>
<!-- chkR&#45;&gt;upd -->
<g id="edge17" class="edge">
<title>chkR&#45;&gt;upd</title>
<path fill="none" stroke="#000000" d="M346.72,-181.71C363.78,-165.75 386.06,-144.89 386.06,-144.89 386.06,-144.89 399.65,-134.2 413.73,-123.13"/>
<polygon fill="#000000" stroke="#000000" points="415.56,-126.15 421.26,-117.22 411.23,-120.65 415.56,-126.15"/>
<text xml:space="preserve" text-anchor="middle" x="395.81" y="-150.74" font-family="CMU Serif" font-size="12.00">нет</text>
</g>
<!-- ok -->
<g id="node14" class="node">
<title>ok</title>
<polygon fill="#f5f5f5" stroke="#000000" points="371.35,-133.89 234.88,-133.89 199.77,-61.89 336.24,-61.89 371.35,-133.89"/>
<text xml:space="preserve" text-anchor="start" x="252.19" y="-99.59" font-family="CMU Serif" font-size="14.00">Статус: ok</text>
<text xml:space="preserve" text-anchor="start" x="263.81" y="-85.59" font-family="CMU Serif" font-size="14.00">I = I</text>
<text xml:space="preserve" text-anchor="start" x="288.56" y="-85.59" font-family="CMU Serif" baseline-shift="sub" font-size="14.00">h/2</text>
</g>
<!-- chkR&#45;&gt;ok -->
<g id="edge15" class="edge">
<title>chkR&#45;&gt;ok</title>
<path fill="none" stroke="#000000" d="M318.24,-177.28C314.21,-167.61 309.33,-155.91 304.59,-144.53"/>
<polygon fill="#000000" stroke="#000000" points="307.96,-143.53 300.88,-135.64 301.5,-146.22 307.96,-143.53"/>
<text xml:space="preserve" text-anchor="middle" x="318.68" y="-150.74" font-family="CMU Serif" font-size="12.00">да</text>
</g>
<!-- upd&#45;&gt;loop -->
<g id="edge18" class="edge">
<title>upd&#45;&gt;loop</title>
<path fill="none" stroke="#000000" d="M440.32,-115.98C433.19,-144.73 419.56,-199.64 419.56,-199.64 419.56,-531.39 419.56,-531.39 419.56,-531.39 419.56,-531.39 404.01,-580.71 392.8,-616.24"/>
<polygon fill="#000000" stroke="#000000" points="389.47,-615.18 389.8,-625.77 396.14,-617.29 389.47,-615.18"/>
</g>
<!-- ok&#45;&gt;stop -->
<g id="edge16" class="edge">
<title>ok&#45;&gt;stop</title>
<path fill="none" stroke="#000000" d="M249.3,-61.8C243.44,-56.13 237.49,-50.37 231.96,-45.03"/>
<polygon fill="#000000" stroke="#000000" points="234.41,-42.52 224.79,-38.08 229.54,-47.55 234.41,-42.52"/>
</g>
</g>
</svg>
