<?xml version="1.0" encoding="UTF-8" standalone="no"?>
<!DOCTYPE svg PUBLIC "-//W3C//DTD SVG 1.1//EN"
 "http://www.w3.org/Graphics/SVG/1.1/DTD/svg11.dtd">
<!-- Generated by graphviz version 14.1.5 (0)
 -->
<!-- Title: Simpson Pages: 1 -->
<svg width="663pt" height="730pt"
 viewBox="0.00 0.00 663.00 730.00" xmlns="http://www.w3.org/2000/svg" xmlns:xlink="http://www.w3.org/1999/xlink">
<g id="graph0" class="graph" transform="scale(1 1) rotate(0) translate(4 726.03)">
<title>Simpson</title>
<polygon fill="white" stroke="none" points="-4,4 -4,-726.03 658.76,-726.03 658.76,4 -4,4"/>
<!-- start -->
<g id="node1" class="node">
<title>start</title>
<ellipse fill="#e6eefc" stroke="#000000" cx="215.88" cy="-702.59" rx="46.85" ry="19.45"/>
<text xml:space="preserve" text-anchor="middle" x="215.88" y="-699.04" font-family="CMU Serif" font-size="14.00">Начало</text>
</g>
<!-- input -->
<g id="node2" class="node">
<title>input</title>
<polygon fill="#f5f5f5" stroke="#000000" points="346,-660.14 139.02,-660.14 85.77,-605.14 292.75,-605.14 346,-660.14"/>
<text xml:space="preserve" text-anchor="middle" x="215.88" y="-629.09" font-family="CMU Serif" font-size="14.00">Ввод: f(x), a, b, n</text>
</g>
<!-- start&#45;&gt;input -->
<g id="edge1" class="edge">
<title>start&#45;&gt;input</title>
<path fill="none" stroke="#000000" d="M215.88,-682.66C215.88,-679.24 215.88,-675.57 215.88,-671.83"/>
<polygon fill="#000000" stroke="#000000" points="219.38,-672.1 215.88,-662.1 212.38,-672.1 219.38,-672.1"/>
</g>
<!-- chkEven -->
<g id="node3" class="node">
<title>chkEven</title>
<polygon fill="#fff7d1" stroke="#000000" points="215.88,-582.14 92.63,-554.64 215.88,-527.14 339.13,-554.64 215.88,-582.14"/>
<text xml:space="preserve" text-anchor="start" x="162.26" y="-549.39" font-family="CMU Serif" font-size="14.00">n &gt; 0 и n чётно?</text>
</g>
<!-- input&#45;&gt;chkEven -->
<g id="edge2" class="edge">
<title>input&#45;&gt;chkEven</title>
<path fill="none" stroke="#000000" d="M215.88,-605.06C215.88,-601.42 215.88,-597.63 215.88,-593.83"/>
<polygon fill="#000000" stroke="#000000" points="219.38,-594.11 215.88,-584.11 212.38,-594.11 219.38,-594.11"/>
</g>
<!-- err -->
<g id="node4" class="node">
<title>err</title>
<polygon fill="#fde2e2" stroke="#000000" points="303.77,-410.39 62.15,-410.39 0,-316.39 241.61,-316.39 303.77,-410.39"/>
<text xml:space="preserve" text-anchor="middle" x="151.88" y="-369.59" font-family="CMU Serif" font-size="14.00">Ошибка: n нечётно</text>
<text xml:space="preserve" text-anchor="middle" x="151.88" y="-350.09" font-family="CMU Serif" font-size="14.00">или n ≤ 0</text>
</g>
<!-- chkEven&#45;&gt;err -->
<g id="edge3" class="edge">
<title>chkEven&#45;&gt;err</title>
<path fill="none" stroke="#000000" d="M207.52,-528.9C198.34,-501.75 183.29,-457.26 171.16,-421.39"/>
<polygon fill="#000000" stroke="#000000" points="174.5,-420.35 167.98,-412 167.87,-422.59 174.5,-420.35"/>
<text xml:space="preserve" text-anchor="middle" x="212.95" y="-504.74" font-family="CMU Serif" font-size="12.00">нет</text>
</g>
<!-- init -->
<g id="node5" class="node">
<title>init</title>
<polygon fill="#ffffff" stroke="#000000" points="348.38,-487.89 245.38,-487.89 245.38,-421.39 348.38,-421.39 348.38,-487.89"/>
<text xml:space="preserve" text-anchor="start" x="253.38" y="-468.89" font-family="CMU Serif" font-size="14.00">h = (b − a) / n</text>
<text xml:space="preserve" text-anchor="start" x="256.01" y="-449.39" font-family="CMU Serif" font-size="14.00">S = f(a) + f(b)</text>
<text xml:space="preserve" text-anchor="start" x="283.01" y="-429.89" font-family="CMU Serif" font-size="14.00">i = 1</text>
</g>
<!-- chkEven&#45;&gt;init -->
<g id="edge5" class="edge">
<title>chkEven&#45;&gt;init</title>
<path fill="none" stroke="#000000" d="M234.67,-530.91C243.01,-520.82 253.1,-508.61 262.7,-497"/>
<polygon fill="#000000" stroke="#000000" points="265.28,-499.38 268.95,-489.44 259.88,-494.92 265.28,-499.38"/>
<text xml:space="preserve" text-anchor="middle" x="265.94" y="-504.74" font-family="CMU Serif" font-size="12.00">да</text>
</g>
<!-- stop -->
<g id="node13" class="node">
<title>stop</title>
<ellipse fill="#e6eefc" stroke="#000000" cx="178.88" cy="-19.45" rx="39.95" ry="19.45"/>
<text xml:space="preserve" text-anchor="middle" x="178.88" y="-15.9" font-family="CMU Serif" font-size="14.00">Конец</text>
</g>
<!-- err&#45;&gt;stop -->
<g id="edge4" class="edge">
<title>err&#45;&gt;stop</title>
<path fill="none" stroke="#000000" d="M150.11,-315.97C148.67,-278.42 146.88,-231.77 146.88,-231.77 146.88,-231.77 146.88,-231.77 146.88,-88.39 146.88,-88.39 156.72,-67.51 165.49,-48.89"/>
<polygon fill="#000000" stroke="#000000" points="168.57,-50.56 169.66,-40.02 162.24,-47.58 168.57,-50.56"/>
</g>
<!-- loop -->
<g id="node6" class="node">
<title>loop</title>
<polygon fill="#fff7d1" stroke="#000000" points="342.88,-305.39 292.38,-277.89 342.88,-250.39 393.38,-277.89 342.88,-305.39"/>
<text xml:space="preserve" text-anchor="start" x="325.63" y="-272.64" font-family="CMU Serif" font-size="14.00">i &lt; n?</text>
</g>
<!-- init&#45;&gt;loop -->
<g id="edge6" class="edge">
<title>init&#45;&gt;loop</title>
<path fill="none" stroke="#000000" d="M308.85,-421.3C311.16,-415.05 312.88,-410.39 312.88,-410.39 312.88,-410.39 326.02,-352.82 334.9,-313.87"/>
<polygon fill="#000000" stroke="#000000" points="338.3,-314.71 337.11,-304.18 331.48,-313.15 338.3,-314.71"/>
</g>
<!-- coef -->
<g id="node7" class="node">
<title>coef</title>
<polygon fill="#fff7d1" stroke="#000000" points="464.88,-211.14 380.63,-183.64 464.88,-156.14 549.13,-183.64 464.88,-211.14"/>
<text xml:space="preserve" text-anchor="start" x="430.76" y="-178.39" font-family="CMU Serif" font-size="14.00">i нечётно?</text>
</g>
<!-- loop&#45;&gt;coef -->
<g id="edge7" class="edge">
<title>loop&#45;&gt;coef</title>
<path fill="none" stroke="#000000" d="M363.58,-261.24C382.14,-247.21 409.71,-226.36 431.4,-209.96"/>
<polygon fill="#000000" stroke="#000000" points="433.22,-212.97 439.09,-204.15 429,-207.39 433.22,-212.97"/>
<text xml:space="preserve" text-anchor="middle" x="421.94" y="-227.99" font-family="CMU Serif" font-size="12.00">да</text>
</g>
<!-- mul -->
<g id="node11" class="node">
<title>mul</title>
<polygon fill="#ffffff" stroke="#000000" points="308.38,-201.64 223.38,-201.64 223.38,-165.64 308.38,-165.64 308.38,-201.64"/>
<text xml:space="preserve" text-anchor="start" x="231.38" y="-178.39" font-family="CMU Serif" font-size="14.00">I = S · h / 3</text>
</g>
<!-- loop&#45;&gt;mul -->
<g id="edge13" class="edge">
<title>loop&#45;&gt;mul</title>
<path fill="none" stroke="#000000" d="M327.67,-258.67C316.17,-244.88 300.22,-225.78 287.41,-210.43"/>
<polygon fill="#000000" stroke="#000000" points="290.35,-208.49 281.25,-203.05 284.98,-212.97 290.35,-208.49"/>
<text xml:space="preserve" text-anchor="middle" x="321.03" y="-227.99" font-family="CMU Serif" font-size="12.00">нет</text>
</g>
<!-- four -->
<g id="node8" class="node">
<title>four</title>
<polygon fill="#ffffff" stroke="#000000" points="654.76,-107.39 527.01,-107.39 527.01,-71.39 654.76,-71.39 654.76,-107.39"/>
<text xml:space="preserve" text-anchor="start" x="535.01" y="-84.14" font-family="CMU Serif" font-size="14.00">S = S + 4·f(a + i·h)</text>
</g>
<!-- coef&#45;&gt;four -->
<g id="edge8" class="edge">
<title>coef&#45;&gt;four</title>
<path fill="none" stroke="#000000" d="M490.38,-163.97C509.84,-149.73 536.8,-129.99 557.9,-114.54"/>
<polygon fill="#000000" stroke="#000000" points="559.91,-117.41 565.91,-108.68 555.77,-111.76 559.91,-117.41"/>
<text xml:space="preserve" text-anchor="middle" x="546.29" y="-133.74" font-family="CMU Serif" font-size="12.00">да</text>
</g>
<!-- two -->
<g id="node9" class="node">
<title>two</title>
<polygon fill="#ffffff" stroke="#000000" points="508.76,-107.39 381.01,-107.39 381.01,-71.39 508.76,-71.39 508.76,-107.39"/>
<text xml:space="preserve" text-anchor="start" x="389.01" y="-84.14" font-family="CMU Serif" font-size="14.00">S = S + 2·f(a + i·h)</text>
</g>
<!-- coef&#45;&gt;two -->
<g id="edge9" class="edge">
<title>coef&#45;&gt;two</title>
<path fill="none" stroke="#000000" d="M459.42,-157.43C456.82,-145.47 453.71,-131.12 451.04,-118.77"/>
<polygon fill="#000000" stroke="#000000" points="454.49,-118.2 448.96,-109.17 447.65,-119.68 454.49,-118.2"/>
<text xml:space="preserve" text-anchor="middle" x="466.43" y="-133.74" font-family="CMU Serif" font-size="12.00">нет</text>
</g>
<!-- incr -->
<g id="node10" class="node">
<title>incr</title>
<polygon fill="#ffffff" stroke="#000000" points="476.51,-37.45 413.26,-37.45 413.26,-1.45 476.51,-1.45 476.51,-37.45"/>
<text xml:space="preserve" text-anchor="start" x="421.26" y="-14.2" font-family="CMU Serif" font-size="14.00">i = i + 1</text>
</g>
<!-- four&#45;&gt;incr -->
<g id="edge10" class="edge">
<title>four&#45;&gt;incr</title>
<path fill="none" stroke="#000000" d="M553.29,-70.89C533.05,-61.47 508.02,-49.83 487.11,-40.1"/>
<polygon fill="#000000" stroke="#000000" points="488.83,-37.04 478.29,-35.99 485.88,-43.38 488.83,-37.04"/>
</g>
<!-- two&#45;&gt;incr -->
<g id="edge11" class="edge">
<title>two&#45;&gt;incr</title>
<path fill="none" stroke="#000000" d="M444.88,-70.89C444.88,-64.26 444.88,-56.53 444.88,-49.14"/>
<polygon fill="#000000" stroke="#000000" points="448.38,-49.16 444.88,-39.16 441.38,-49.16 448.38,-49.16"/>
</g>
<!-- incr&#45;&gt;loop -->
<g id="edge12" class="edge">
<title>incr&#45;&gt;loop</title>
<path fill="none" stroke="#000000" d="M414.35,-37.78C394.34,-49.14 371.88,-61.89 371.88,-61.89 371.88,-61.89 356.03,-179.45 347.76,-240.71"/>
<polygon fill="#000000" stroke="#000000" points="344.34,-239.93 346.47,-250.31 351.28,-240.86 344.34,-239.93"/>
</g>
<!-- output -->
<g id="node12" class="node">
<title>output</title>
<polygon fill="#f5f5f5" stroke="#000000" points="324.79,-116.89 205.63,-116.89 174.98,-61.89 294.14,-61.89 324.79,-116.89"/>
<text xml:space="preserve" text-anchor="start" x="221.76" y="-84.14" font-family="CMU Serif" font-size="14.00">Вывод: I</text>
</g>
<!-- mul&#45;&gt;output -->
<g id="edge14" class="edge">
<title>mul&#45;&gt;output</title>
<path fill="none" stroke="#000000" d="M262.87,-165.29C261.05,-154.79 258.66,-140.99 256.42,-128.09"/>
<polygon fill="#000000" stroke="#000000" points="259.93,-127.85 254.78,-118.59 253.04,-129.04 259.93,-127.85"/>
</g>
<!-- output&#45;&gt;stop -->
<g id="edge15" class="edge">
<title>output&#45;&gt;stop</title>
<path fill="none" stroke="#000000" d="M221.82,-61.54C216.09,-56.05 210.09,-50.31 204.46,-44.92"/>
<polygon fill="#000000" stroke="#000000" points="207.27,-42.77 197.63,-38.38 202.43,-47.82 207.27,-42.77"/>
</g>
</g>
</svg>
