<?xml version="1.0" encoding="UTF-8" standalone="no"?>
<!DOCTYPE svg PUBLIC "-//W3C//DTD SVG 1.1//EN"
 "http://www.w3.org/Graphics/SVG/1.1/DTD/svg11.dtd">
<!-- Generated by graphviz version 14.1.5 (0)
 -->
<!-- Title: SystemIter Pages: 1 -->
<svg width="808pt" height="1043pt"
 viewBox="0.00 0.00 808.00 1043.00" xmlns="http://www.w3.org/2000/svg" xmlns:xlink="http://www.w3.org/1999/xlink">
<g id="graph0" class="graph" transform="scale(1 1) rotate(0) translate(4 1038.53)">
<title>SystemIter</title>
<polygon fill="white" stroke="none" points="-4,4 -4,-1038.53 803.9,-1038.53 803.9,4 -4,4"/>
<!-- start -->
<g id="node1" class="node">
<title>start</title>
<ellipse fill="#e6eefc" stroke="#000000" cx="466.78" cy="-1015.09" rx="46.85" ry="19.45"/>
<text xml:space="preserve" text-anchor="middle" x="466.78" y="-1011.54" font-family="CMU Serif" font-size="14.00">Начало</text>
</g>
<!-- input -->
<g id="node2" class="node">
<title>input</title>
<polygon fill="#f5f5f5" stroke="#000000" points="687.09,-972.64 336.62,-972.64 246.47,-917.64 596.93,-917.64 687.09,-972.64"/>
<text xml:space="preserve" text-anchor="start" x="368.53" y="-942.59" font-family="CMU Serif" font-size="14.00">Ввод: φ</text>
<text xml:space="preserve" text-anchor="start" x="420.28" y="-942.59" font-family="CMU Serif" baseline-shift="sub" font-size="14.00">1</text>
<text xml:space="preserve" text-anchor="start" x="427.03" y="-942.59" font-family="CMU Serif" font-size="14.00">(x,y), φ</text>
<text xml:space="preserve" text-anchor="start" x="472.78" y="-942.59" font-family="CMU Serif" baseline-shift="sub" font-size="14.00">2</text>
<text xml:space="preserve" text-anchor="start" x="479.53" y="-942.59" font-family="CMU Serif" font-size="14.00">(x,y), x</text>
<text xml:space="preserve" text-anchor="start" x="522.28" y="-942.59" font-family="CMU Serif" baseline-shift="sub" font-size="14.00">0</text>
<text xml:space="preserve" text-anchor="start" x="529.03" y="-942.59" font-family="CMU Serif" font-size="14.00">, y</text>
<text xml:space="preserve" text-anchor="start" x="544.03" y="-942.59" font-family="CMU Serif" baseline-shift="sub" font-size="14.00">0</text>
<text xml:space="preserve" text-anchor="start" x="550.78" y="-942.59" font-family="CMU Serif" font-size="14.00">, ε</text>
</g>
<!-- start&#45;&gt;input -->
<g id="edge1" class="edge">
<title>start&#45;&gt;input</title>
<path fill="none" stroke="#000000" d="M466.78,-995.16C466.78,-991.74 466.78,-988.07 466.78,-984.33"/>
<polygon fill="#000000" stroke="#000000" points="470.28,-984.6 466.78,-974.6 463.28,-984.6 470.28,-984.6"/>
</g>
<!-- initXY -->
<g id="node3" class="node">
<title>initXY</title>
<polygon fill="#ffffff" stroke="#000000" points="535.53,-894.64 398.03,-894.64 398.03,-858.64 535.53,-858.64 535.53,-894.64"/>
<text xml:space="preserve" text-anchor="start" x="406.03" y="-874.09" font-family="CMU Serif" font-size="14.00">x = x</text>
<text xml:space="preserve" text-anchor="start" x="436.78" y="-874.09" font-family="CMU Serif" baseline-shift="sub" font-size="14.00">0</text>
<text xml:space="preserve" text-anchor="start" x="443.53" y="-874.09" font-family="CMU Serif" font-size="14.00">; y = y</text>
<text xml:space="preserve" text-anchor="start" x="481.78" y="-874.09" font-family="CMU Serif" baseline-shift="sub" font-size="14.00">0</text>
<text xml:space="preserve" text-anchor="start" x="488.53" y="-874.09" font-family="CMU Serif" font-size="14.00">; k = 0</text>
</g>
<!-- input&#45;&gt;initXY -->
<g id="edge2" class="edge">
<title>input&#45;&gt;initXY</title>
<path fill="none" stroke="#000000" d="M466.78,-917.48C466.78,-913.77 466.78,-909.94 466.78,-906.2"/>
<polygon fill="#000000" stroke="#000000" points="470.28,-906.27 466.78,-896.27 463.28,-906.27 470.28,-906.27"/>
</g>
<!-- kMax -->
<g id="node4" class="node">
<title>kMax</title>
<polygon fill="#fff7d1" stroke="#000000" points="466.78,-835.64 387.03,-808.14 466.78,-780.64 546.53,-808.14 466.78,-835.64"/>
<text xml:space="preserve" text-anchor="start" x="434.9" y="-805.59" font-family="CMU Serif" font-size="14.00">k &lt; N</text>
<text xml:space="preserve" text-anchor="start" x="468.65" y="-805.59" font-family="CMU Serif" baseline-shift="sub" font-size="14.00">max</text>
<text xml:space="preserve" text-anchor="start" x="492.65" y="-805.59" font-family="CMU Serif" font-size="14.00">?</text>
</g>
<!-- initXY&#45;&gt;kMax -->
<g id="edge3" class="edge">
<title>initXY&#45;&gt;kMax</title>
<path fill="none" stroke="#000000" d="M466.78,-858.17C466.78,-854.78 466.78,-851.11 466.78,-847.35"/>
<polygon fill="#000000" stroke="#000000" points="470.28,-847.53 466.78,-837.53 463.28,-847.53 470.28,-847.53"/>
</g>
<!-- errMax -->
<g id="node5" class="node">
<title>errMax</title>
<polygon fill="#fde2e2" stroke="#000000" points="283.55,-694.39 58.02,-694.39 0,-600.39 225.53,-600.39 283.55,-694.39"/>
<text xml:space="preserve" text-anchor="middle" x="141.78" y="-653.59" font-family="CMU Serif" font-size="14.00">Превышен лимит</text>
<text xml:space="preserve" text-anchor="middle" x="141.78" y="-634.09" font-family="CMU Serif" font-size="14.00">итераций</text>
</g>
<!-- kMax&#45;&gt;errMax -->
<g id="edge4" class="edge">
<title>kMax&#45;&gt;errMax</title>
<path fill="none" stroke="#000000" d="M423.77,-795C356.44,-776.01 233.78,-741.39 233.78,-741.39 233.78,-741.39 215.85,-723.27 195.82,-703.03"/>
<polygon fill="#000000" stroke="#000000" points="198.36,-700.61 188.84,-695.97 193.38,-705.54 198.36,-700.61"/>
<text xml:space="preserve" text-anchor="middle" x="340.14" y="-758.24" font-family="CMU Serif" font-size="12.00">нет</text>
</g>
<!-- rows -->
<g id="node6" class="node">
<title>rows</title>
<polygon fill="#ffffff" stroke="#000000" points="690.4,-741.39 243.15,-741.39 243.15,-705.39 690.4,-705.39 690.4,-741.39"/>
<text xml:space="preserve" text-anchor="start" x="251.15" y="-720.84" font-family="CMU Serif" font-size="14.00">q</text>
<text xml:space="preserve" text-anchor="start" x="259.4" y="-720.84" font-family="CMU Serif" baseline-shift="sub" font-size="14.00">1</text>
<text xml:space="preserve" text-anchor="start" x="266.15" y="-720.84" font-family="CMU Serif" font-size="14.00"> = |∂φ</text>
<text xml:space="preserve" text-anchor="start" x="307.4" y="-720.84" font-family="CMU Serif" baseline-shift="sub" font-size="14.00">1</text>
<text xml:space="preserve" text-anchor="start" x="314.15" y="-720.84" font-family="CMU Serif" font-size="14.00">/∂x| + |∂φ</text>
<text xml:space="preserve" text-anchor="start" x="383.15" y="-720.84" font-family="CMU Serif" baseline-shift="sub" font-size="14.00">1</text>
<text xml:space="preserve" text-anchor="start" x="389.9" y="-720.84" font-family="CMU Serif" font-size="14.00">/∂y|q</text>
<text xml:space="preserve" text-anchor="start" x="425.9" y="-720.84" font-family="CMU Serif" baseline-shift="sub" font-size="14.00">2</text>
<text xml:space="preserve" text-anchor="start" x="432.65" y="-720.84" font-family="CMU Serif" font-size="14.00"> = |∂φ</text>
<text xml:space="preserve" text-anchor="start" x="473.9" y="-720.84" font-family="CMU Serif" baseline-shift="sub" font-size="14.00">2</text>
<text xml:space="preserve" text-anchor="start" x="480.65" y="-720.84" font-family="CMU Serif" font-size="14.00">/∂x| + |∂φ</text>
<text xml:space="preserve" text-anchor="start" x="549.65" y="-720.84" font-family="CMU Serif" baseline-shift="sub" font-size="14.00">2</text>
<text xml:space="preserve" text-anchor="start" x="556.4" y="-720.84" font-family="CMU Serif" font-size="14.00">/∂y|q = max(q</text>
<text xml:space="preserve" text-anchor="start" x="648.65" y="-720.84" font-family="CMU Serif" baseline-shift="sub" font-size="14.00">1</text>
<text xml:space="preserve" text-anchor="start" x="655.4" y="-720.84" font-family="CMU Serif" font-size="14.00">, q</text>
<text xml:space="preserve" text-anchor="start" x="671.15" y="-720.84" font-family="CMU Serif" baseline-shift="sub" font-size="14.00">2</text>
<text xml:space="preserve" text-anchor="start" x="677.9" y="-720.84" font-family="CMU Serif" font-size="14.00">)</text>
</g>
<!-- kMax&#45;&gt;rows -->
<g id="edge6" class="edge">
<title>kMax&#45;&gt;rows</title>
<path fill="none" stroke="#000000" d="M466.78,-780.5C466.78,-771.8 466.78,-762.09 466.78,-753.23"/>
<polygon fill="#000000" stroke="#000000" points="470.28,-753.36 466.78,-743.36 463.28,-753.36 470.28,-753.36"/>
<text xml:space="preserve" text-anchor="middle" x="473.9" y="-758.24" font-family="CMU Serif" font-size="12.00">да</text>
</g>
<!-- stop -->
<g id="node15" class="node">
<title>stop</title>
<ellipse fill="#e6eefc" stroke="#000000" cx="207.78" cy="-19.45" rx="39.95" ry="19.45"/>
<text xml:space="preserve" text-anchor="middle" x="207.78" y="-15.9" font-family="CMU Serif" font-size="14.00">Конец</text>
</g>
<!-- errMax&#45;&gt;stop -->
<g id="edge5" class="edge">
<title>errMax&#45;&gt;stop</title>
<path fill="none" stroke="#000000" d="M134.67,-599.97C128.92,-562.42 121.78,-515.77 121.78,-515.77 121.78,-515.77 121.78,-515.77 121.78,-88.39 121.78,-88.39 151.78,-61.89 151.78,-61.89 151.78,-61.89 164.3,-52.62 177.5,-42.85"/>
<polygon fill="#000000" stroke="#000000" points="179.43,-45.78 185.39,-37.01 175.27,-40.15 179.43,-45.78"/>
</g>
<!-- chkQ -->
<g id="node7" class="node">
<title>chkQ</title>
<polygon fill="#fff7d1" stroke="#000000" points="466.78,-589.39 328.53,-561.89 466.78,-534.39 605.03,-561.89 466.78,-589.39"/>
<text xml:space="preserve" text-anchor="start" x="405.65" y="-556.64" font-family="CMU Serif" font-size="14.00">q &lt; 1 и q конечен?</text>
</g>
<!-- rows&#45;&gt;chkQ -->
<g id="edge7" class="edge">
<title>rows&#45;&gt;chkQ</title>
<path fill="none" stroke="#000000" d="M466.78,-705.02C466.78,-680.28 466.78,-634.26 466.78,-601.28"/>
<polygon fill="#000000" stroke="#000000" points="470.28,-601.3 466.78,-591.3 463.28,-601.3 470.28,-601.3"/>
</g>
<!-- errQ -->
<g id="node8" class="node">
<title>errQ</title>
<polygon fill="#fde2e2" stroke="#000000" points="458.99,-448.14 202.53,-448.14 136.56,-354.14 393.02,-354.14 458.99,-448.14"/>
<text xml:space="preserve" text-anchor="middle" x="297.78" y="-407.34" font-family="CMU Serif" font-size="14.00">Условие сходимости</text>
<text xml:space="preserve" text-anchor="middle" x="297.78" y="-387.84" font-family="CMU Serif" font-size="14.00">не выполнено</text>
</g>
<!-- chkQ&#45;&gt;errQ -->
<g id="edge8" class="edge">
<title>chkQ&#45;&gt;errQ</title>
<path fill="none" stroke="#000000" d="M431.37,-541.16C396.61,-521.8 348.78,-495.14 348.78,-495.14 348.78,-495.14 339.45,-478.13 328.77,-458.65"/>
<polygon fill="#000000" stroke="#000000" points="331.88,-457.05 324,-449.97 325.74,-460.42 331.88,-457.05"/>
<text xml:space="preserve" text-anchor="middle" x="407.46" y="-511.99" font-family="CMU Serif" font-size="12.00">нет</text>
</g>
<!-- nextXY -->
<g id="node9" class="node">
<title>nextXY</title>
<polygon fill="#ffffff" stroke="#000000" points="581.28,-495.14 358.28,-495.14 358.28,-459.14 581.28,-459.14 581.28,-495.14"/>
<text xml:space="preserve" text-anchor="start" x="366.28" y="-474.59" font-family="CMU Serif" font-size="14.00">x</text>
<text xml:space="preserve" text-anchor="start" x="373.78" y="-474.59" font-family="CMU Serif" baseline-shift="sub" font-size="14.00">k+1</text>
<text xml:space="preserve" text-anchor="start" x="393.28" y="-474.59" font-family="CMU Serif" font-size="14.00"> = φ</text>
<text xml:space="preserve" text-anchor="start" x="419.53" y="-474.59" font-family="CMU Serif" baseline-shift="sub" font-size="14.00">1</text>
<text xml:space="preserve" text-anchor="start" x="426.28" y="-474.59" font-family="CMU Serif" font-size="14.00">(x</text>
<text xml:space="preserve" text-anchor="start" x="438.28" y="-474.59" font-family="CMU Serif" baseline-shift="sub" font-size="14.00">k</text>
<text xml:space="preserve" text-anchor="start" x="444.28" y="-474.59" font-family="CMU Serif" font-size="14.00">, y</text>
<text xml:space="preserve" text-anchor="start" x="459.28" y="-474.59" font-family="CMU Serif" baseline-shift="sub" font-size="14.00">k</text>
<text xml:space="preserve" text-anchor="start" x="465.28" y="-474.59" font-family="CMU Serif" font-size="14.00">)y</text>
<text xml:space="preserve" text-anchor="start" x="477.28" y="-474.59" font-family="CMU Serif" baseline-shift="sub" font-size="14.00">k+1</text>
<text xml:space="preserve" text-anchor="start" x="496.78" y="-474.59" font-family="CMU Serif" font-size="14.00"> = φ</text>
<text xml:space="preserve" text-anchor="start" x="523.03" y="-474.59" font-family="CMU Serif" baseline-shift="sub" font-size="14.00">2</text>
<text xml:space="preserve" text-anchor="start" x="529.78" y="-474.59" font-family="CMU Serif" font-size="14.00">(x</text>
<text xml:space="preserve" text-anchor="start" x="541.78" y="-474.59" font-family="CMU Serif" baseline-shift="sub" font-size="14.00">k</text>
<text xml:space="preserve" text-anchor="start" x="547.78" y="-474.59" font-family="CMU Serif" font-size="14.00">, y</text>
<text xml:space="preserve" text-anchor="start" x="562.78" y="-474.59" font-family="CMU Serif" baseline-shift="sub" font-size="14.00">k</text>
<text xml:space="preserve" text-anchor="start" x="568.78" y="-474.59" font-family="CMU Serif" font-size="14.00">)</text>
</g>
<!-- chkQ&#45;&gt;nextXY -->
<g id="edge10" class="edge">
<title>chkQ&#45;&gt;nextXY</title>
<path fill="none" stroke="#000000" d="M467.74,-534.25C468.06,-525.55 468.41,-515.84 468.73,-506.98"/>
<polygon fill="#000000" stroke="#000000" points="472.22,-507.23 469.09,-497.11 465.23,-506.98 472.22,-507.23"/>
<text xml:space="preserve" text-anchor="middle" x="475.84" y="-511.99" font-family="CMU Serif" font-size="12.00">да</text>
</g>
<!-- errQ&#45;&gt;stop -->
<g id="edge9" class="edge">
<title>errQ&#45;&gt;stop</title>
<path fill="none" stroke="#000000" d="M250.87,-353.72C212.93,-316.17 165.78,-269.52 165.78,-269.52 165.78,-269.52 165.78,-269.52 165.78,-88.39 165.78,-88.39 179.08,-66.86 190.72,-48.04"/>
<polygon fill="#000000" stroke="#000000" points="193.66,-49.93 195.95,-39.58 187.71,-46.25 193.66,-49.93"/>
</g>
<!-- chkFin -->
<g id="node10" class="node">
<title>chkFin</title>
<polygon fill="#fff7d1" stroke="#000000" points="467.78,-343.14 322.03,-315.64 467.78,-288.14 613.53,-315.64 467.78,-343.14"/>
<text xml:space="preserve" text-anchor="start" x="402.9" y="-313.09" font-family="CMU Serif" font-size="14.00">x</text>
<text xml:space="preserve" text-anchor="start" x="410.4" y="-313.09" font-family="CMU Serif" baseline-shift="sub" font-size="14.00">k+1</text>
<text xml:space="preserve" text-anchor="start" x="429.9" y="-313.09" font-family="CMU Serif" font-size="14.00">, y</text>
<text xml:space="preserve" text-anchor="start" x="444.9" y="-313.09" font-family="CMU Serif" baseline-shift="sub" font-size="14.00">k+1</text>
<text xml:space="preserve" text-anchor="start" x="464.4" y="-313.09" font-family="CMU Serif" font-size="14.00"> конечны?</text>
</g>
<!-- nextXY&#45;&gt;chkFin -->
<g id="edge11" class="edge">
<title>nextXY&#45;&gt;chkFin</title>
<path fill="none" stroke="#000000" d="M469.56,-458.77C469.25,-434.03 468.67,-388.01 468.26,-355.03"/>
<polygon fill="#000000" stroke="#000000" points="471.76,-355 468.13,-345.05 464.76,-355.09 471.76,-355"/>
</g>
<!-- errDiv -->
<g id="node11" class="node">
<title>errDiv</title>
<polygon fill="#fde2e2" stroke="#000000" points="410.34,-182.89 228.1,-182.89 181.21,-127.89 363.46,-127.89 410.34,-182.89"/>
<text xml:space="preserve" text-anchor="middle" x="295.78" y="-151.84" font-family="CMU Serif" font-size="14.00">Расходимость</text>
</g>
<!-- chkFin&#45;&gt;errDiv -->
<g id="edge12" class="edge">
<title>chkFin&#45;&gt;errDiv</title>
<path fill="none" stroke="#000000" d="M409.02,-298.81C336.82,-279.35 223.78,-248.89 223.78,-248.89 223.78,-248.89 223.78,-193.89 223.78,-193.89 223.78,-193.89 227.98,-191.7 234.36,-188.38"/>
<polygon fill="#000000" stroke="#000000" points="235.62,-191.67 242.87,-183.94 232.39,-185.46 235.62,-191.67"/>
<text xml:space="preserve" text-anchor="middle" x="334.7" y="-265.74" font-family="CMU Serif" font-size="12.00">нет</text>
</g>
<!-- stopCrit -->
<g id="node12" class="node">
<title>stopCrit</title>
<polygon fill="#fff7d1" stroke="#000000" points="467.78,-248.89 232.78,-221.39 467.78,-193.89 702.78,-221.39 467.78,-248.89"/>
<text xml:space="preserve" text-anchor="start" x="358.28" y="-218.84" font-family="CMU Serif" font-size="14.00">max(|x</text>
<text xml:space="preserve" text-anchor="start" x="405.53" y="-218.84" font-family="CMU Serif" baseline-shift="sub" font-size="14.00">k+1</text>
<text xml:space="preserve" text-anchor="start" x="425.03" y="-218.84" font-family="CMU Serif" font-size="14.00"> − x</text>
<text xml:space="preserve" text-anchor="start" x="448.28" y="-218.84" font-family="CMU Serif" baseline-shift="sub" font-size="14.00">k</text>
<text xml:space="preserve" text-anchor="start" x="454.28" y="-218.84" font-family="CMU Serif" font-size="14.00">|, |y</text>
<text xml:space="preserve" text-anchor="start" x="484.28" y="-218.84" font-family="CMU Serif" baseline-shift="sub" font-size="14.00">k+1</text>
<text xml:space="preserve" text-anchor="start" x="503.78" y="-218.84" font-family="CMU Serif" font-size="14.00"> − y</text>
<text xml:space="preserve" text-anchor="start" x="527.03" y="-218.84" font-family="CMU Serif" baseline-shift="sub" font-size="14.00">k</text>
<text xml:space="preserve" text-anchor="start" x="533.03" y="-218.84" font-family="CMU Serif" font-size="14.00">|) ≤ ε?</text>
</g>
<!-- chkFin&#45;&gt;stopCrit -->
<g id="edge14" class="edge">
<title>chkFin&#45;&gt;stopCrit</title>
<path fill="none" stroke="#000000" d="M467.78,-287.96C467.78,-279.43 467.78,-269.81 467.78,-260.62"/>
<polygon fill="#000000" stroke="#000000" points="471.28,-260.85 467.78,-250.85 464.28,-260.85 471.28,-260.85"/>
<text xml:space="preserve" text-anchor="middle" x="474.9" y="-265.74" font-family="CMU Serif" font-size="12.00">да</text>
</g>
<!-- errDiv&#45;&gt;stop -->
<g id="edge13" class="edge">
<title>errDiv&#45;&gt;stop</title>
<path fill="none" stroke="#000000" d="M278.18,-127.61C262.91,-104.36 240.9,-70.86 225.57,-47.53"/>
<polygon fill="#000000" stroke="#000000" points="228.69,-45.91 220.28,-39.47 222.84,-49.75 228.69,-45.91"/>
</g>
<!-- shift -->
<g id="node13" class="node">
<title>shift</title>
<polygon fill="#ffffff" stroke="#000000" points="799.9,-107.39 601.65,-107.39 601.65,-71.39 799.9,-71.39 799.9,-107.39"/>
<text xml:space="preserve" text-anchor="start" x="609.65" y="-86.84" font-family="CMU Serif" font-size="14.00">x</text>
<text xml:space="preserve" text-anchor="start" x="617.15" y="-86.84" font-family="CMU Serif" baseline-shift="sub" font-size="14.00">k</text>
<text xml:space="preserve" text-anchor="start" x="623.15" y="-86.84" font-family="CMU Serif" font-size="14.00"> = x</text>
<text xml:space="preserve" text-anchor="start" x="646.4" y="-86.84" font-family="CMU Serif" baseline-shift="sub" font-size="14.00">k+1</text>
<text xml:space="preserve" text-anchor="start" x="665.9" y="-86.84" font-family="CMU Serif" font-size="14.00">; y</text>
<text xml:space="preserve" text-anchor="start" x="680.9" y="-86.84" font-family="CMU Serif" baseline-shift="sub" font-size="14.00">k</text>
<text xml:space="preserve" text-anchor="start" x="686.9" y="-86.84" font-family="CMU Serif" font-size="14.00"> = y</text>
<text xml:space="preserve" text-anchor="start" x="710.15" y="-86.84" font-family="CMU Serif" baseline-shift="sub" font-size="14.00">k+1</text>
<text xml:space="preserve" text-anchor="start" x="729.65" y="-86.84" font-family="CMU Serif" font-size="14.00">; k = k + 1</text>
</g>
<!-- stopCrit&#45;&gt;shift -->
<g id="edge17" class="edge">
<title>stopCrit&#45;&gt;shift</title>
<path fill="none" stroke="#000000" d="M507.57,-198.19C550.04,-174.49 617.01,-137.13 659.9,-113.2"/>
<polygon fill="#000000" stroke="#000000" points="661.37,-116.38 668.4,-108.45 657.96,-110.27 661.37,-116.38"/>
<text xml:space="preserve" text-anchor="middle" x="641.68" y="-152.62" font-family="CMU Serif" font-size="12.00">нет</text>
</g>
<!-- output -->
<g id="node14" class="node">
<title>output</title>
<polygon fill="#f5f5f5" stroke="#000000" points="552.45,-116.89 354.12,-116.89 303.11,-61.89 501.43,-61.89 552.45,-116.89"/>
<text xml:space="preserve" text-anchor="start" x="375.65" y="-84.14" font-family="CMU Serif" font-size="14.00">Вывод: x*, y*, k</text>
</g>
<!-- stopCrit&#45;&gt;output -->
<g id="edge15" class="edge">
<title>stopCrit&#45;&gt;output</title>
<path fill="none" stroke="#000000" d="M459.78,-194.4C453.94,-175.43 445.94,-149.43 439.4,-128.17"/>
<polygon fill="#000000" stroke="#000000" points="442.77,-127.21 436.48,-118.68 436.08,-129.27 442.77,-127.21"/>
<text xml:space="preserve" text-anchor="middle" x="463.08" y="-152.62" font-family="CMU Serif" font-size="12.00">да</text>
</g>
<!-- shift&#45;&gt;kMax -->
<g id="edge18" class="edge">
<title>shift&#45;&gt;kMax</title>
<path fill="none" stroke="#000000" d="M704.76,-107.65C712.92,-143.02 730.78,-220.39 730.78,-220.39 730.78,-724.39 730.78,-724.39 730.78,-724.39 730.78,-724.39 699.78,-741.39 699.78,-741.39 699.78,-741.39 589.25,-772.58 520.44,-792"/>
<polygon fill="#000000" stroke="#000000" points="519.91,-788.51 511.24,-794.59 521.81,-795.25 519.91,-788.51"/>
</g>
<!-- output&#45;&gt;stop -->
<g id="edge16" class="edge">
<title>output&#45;&gt;stop</title>
<path fill="none" stroke="#000000" d="M340.51,-61.44C310.1,-52.05 277.27,-41.91 251.86,-34.06"/>
<polygon fill="#000000" stroke="#000000" points="253.14,-30.79 242.55,-31.19 251.07,-37.48 253.14,-30.79"/>
</g>
</g>
</svg>
