<?xml version="1.0" encoding="UTF-8" standalone="no"?>
<!DOCTYPE svg PUBLIC "-//W3C//DTD SVG 1.1//EN"
 "http://www.w3.org/Graphics/SVG/1.1/DTD/svg11.dtd">
<!-- Generated by graphviz version 14.1.5 (0)
 -->
<!-- Title: Trapezoid Pages: 1 -->
<svg width="356pt" height="538pt"
 viewBox="0.00 0.00 356.00 538.00" xmlns="http://www.w3.org/2000/svg" xmlns:xlink="http://www.w3.org/1999/xlink">
<g id="graph0" class="graph" transform="scale(1 1) rotate(0) translate(4 534.03)">
<title>Trapezoid</title>
<polygon fill="white" stroke="none" points="-4,4 -4,-534.03 352.25,-534.03 352.25,4 -4,4"/>
<!-- start -->
<g id="node1" class="node">
<title>start</title>
<ellipse fill="#e6eefc" stroke="#000000" cx="174.13" cy="-510.59" rx="174.13" ry="19.45"/>
<text xml:space="preserve" text-anchor="middle" x="174.13" y="-507.04" font-family="CMU Serif" font-size="14.00">Начало: TrapezoidIntegrator::apply</text>
</g>
<!-- input -->
<g id="node2" class="node">
<title>input</title>
<polygon fill="#f5f5f5" stroke="#000000" points="304.24,-468.14 97.26,-468.14 44.01,-413.14 250.99,-413.14 304.24,-468.14"/>
<text xml:space="preserve" text-anchor="middle" x="174.13" y="-437.09" font-family="CMU Serif" font-size="14.00">Ввод: f(x), a, b, n</text>
</g>
<!-- start&#45;&gt;input -->
<g id="edge1" class="edge">
<title>start&#45;&gt;input</title>
<path fill="none" stroke="#000000" d="M174.13,-490.66C174.13,-487.24 174.13,-483.57 174.13,-479.83"/>
<polygon fill="#000000" stroke="#000000" points="177.63,-480.1 174.13,-470.1 170.63,-480.1 177.63,-480.1"/>
</g>
<!-- init -->
<g id="node3" class="node">
<title>init</title>
<polygon fill="#ffffff" stroke="#000000" points="243.25,-390.14 105,-390.14 105,-323.64 243.25,-323.64 243.25,-390.14"/>
<text xml:space="preserve" text-anchor="start" x="130.63" y="-371.14" font-family="CMU Serif" font-size="14.00">h = (b − a) / n</text>
<text xml:space="preserve" text-anchor="start" x="113" y="-351.64" font-family="CMU Serif" font-size="14.00">S = 0.5 · (f(a) + f(b))</text>
<text xml:space="preserve" text-anchor="start" x="160.25" y="-332.14" font-family="CMU Serif" font-size="14.00">i = 1</text>
</g>
<!-- input&#45;&gt;init -->
<g id="edge2" class="edge">
<title>input&#45;&gt;init</title>
<path fill="none" stroke="#000000" d="M174.13,-412.87C174.13,-409.29 174.13,-405.54 174.13,-401.75"/>
<polygon fill="#000000" stroke="#000000" points="177.63,-401.94 174.13,-391.94 170.63,-401.94 177.63,-401.94"/>
</g>
<!-- loop -->
<g id="node4" class="node">
<title>loop</title>
<polygon fill="#fff7d1" stroke="#000000" points="174.13,-300.64 123.63,-273.14 174.13,-245.64 224.63,-273.14 174.13,-300.64"/>
<text xml:space="preserve" text-anchor="start" x="156.88" y="-267.89" font-family="CMU Serif" font-size="14.00">i &lt; n?</text>
</g>
<!-- init&#45;&gt;loop -->
<g id="edge3" class="edge">
<title>init&#45;&gt;loop</title>
<path fill="none" stroke="#000000" d="M174.13,-323.58C174.13,-319.99 174.13,-316.31 174.13,-312.66"/>
<polygon fill="#000000" stroke="#000000" points="177.63,-312.72 174.13,-302.72 170.63,-312.72 177.63,-312.72"/>
</g>
<!-- body -->
<g id="node5" class="node">
<title>body</title>
<polygon fill="#ffffff" stroke="#000000" points="188.38,-206.39 101.88,-206.39 101.88,-139.89 188.38,-139.89 188.38,-206.39"/>
<text xml:space="preserve" text-anchor="start" x="109.88" y="-187.39" font-family="CMU Serif" font-size="14.00">x = a + i · h</text>
<text xml:space="preserve" text-anchor="start" x="111.38" y="-167.89" font-family="CMU Serif" font-size="14.00">S = S + f(x)</text>
<text xml:space="preserve" text-anchor="start" x="121.5" y="-148.39" font-family="CMU Serif" font-size="14.00">i = i + 1</text>
</g>
<!-- loop&#45;&gt;body -->
<g id="edge4" class="edge">
<title>loop&#45;&gt;body</title>
<path fill="none" stroke="#000000" d="M159.67,-252.95C152.72,-243.73 145.88,-234.64 145.88,-234.64 145.88,-234.64 145.79,-227.51 145.67,-218.14"/>
<polygon fill="#000000" stroke="#000000" points="149.17,-218.34 145.55,-208.38 142.17,-218.43 149.17,-218.34"/>
<text xml:space="preserve" text-anchor="middle" x="153" y="-223.24" font-family="CMU Serif" font-size="12.00">да</text>
</g>
<!-- mul -->
<g id="node6" class="node">
<title>mul</title>
<polygon fill="#ffffff" stroke="#000000" points="270.13,-191.14 206.13,-191.14 206.13,-155.14 270.13,-155.14 270.13,-191.14"/>
<text xml:space="preserve" text-anchor="start" x="214.13" y="-167.89" font-family="CMU Serif" font-size="14.00">I = S · h</text>
</g>
<!-- loop&#45;&gt;mul -->
<g id="edge6" class="edge">
<title>loop&#45;&gt;mul</title>
<path fill="none" stroke="#000000" d="M187.08,-252.31C196.76,-237.49 210.09,-217.07 220.7,-200.82"/>
<polygon fill="#000000" stroke="#000000" points="223.54,-202.88 226.08,-192.59 217.68,-199.05 223.54,-202.88"/>
<text xml:space="preserve" text-anchor="middle" x="217.79" y="-223.24" font-family="CMU Serif" font-size="12.00">нет</text>
</g>
<!-- body&#45;&gt;loop -->
<g id="edge5" class="edge">
<title>body&#45;&gt;loop</title>
<path fill="none" stroke="#000000" d="M156.34,-206.48C158.51,-212.73 160.13,-217.39 160.13,-217.39 160.13,-217.39 162.48,-226.6 165.26,-237.47"/>
<polygon fill="#000000" stroke="#000000" points="161.86,-238.32 167.73,-247.14 168.65,-236.58 161.86,-238.32"/>
</g>
<!-- output -->
<g id="node7" class="node">
<title>output</title>
<polygon fill="#dcfce7" stroke="#000000" points="313.03,-116.89 193.87,-116.89 163.22,-61.89 282.38,-61.89 313.03,-116.89"/>
<text xml:space="preserve" text-anchor="start" x="210" y="-84.14" font-family="CMU Serif" font-size="14.00">Вывод: I</text>
</g>
<!-- mul&#45;&gt;output -->
<g id="edge7" class="edge">
<title>mul&#45;&gt;output</title>
<path fill="none" stroke="#000000" d="M238.13,-154.8C238.13,-147.16 238.13,-137.85 238.13,-128.71"/>
<polygon fill="#000000" stroke="#000000" points="241.63,-128.87 238.13,-118.87 234.63,-128.87 241.63,-128.87"/>
</g>
<!-- stop -->
<g id="node8" class="node">
<title>stop</title>
<ellipse fill="#e6eefc" stroke="#000000" cx="238.13" cy="-19.45" rx="39.95" ry="19.45"/>
<text xml:space="preserve" text-anchor="middle" x="238.13" y="-15.9" font-family="CMU Serif" font-size="14.00">Конец</text>
</g>
<!-- output&#45;&gt;stop -->
<g id="edge8" class="edge">
<title>output&#45;&gt;stop</title>
<path fill="none" stroke="#000000" d="M238.13,-61.54C238.13,-57.94 238.13,-54.24 238.13,-50.59"/>
<polygon fill="#000000" stroke="#000000" points="241.63,-50.87 238.13,-40.87 234.63,-50.87 241.63,-50.87"/>
</g>
</g>
</svg>
