<?xml version="1.0" encoding="UTF-8" standalone="no"?>
<!DOCTYPE svg PUBLIC "-//W3C//DTD SVG 1.1//EN"
 "http://www.w3.org/Graphics/SVG/1.1/DTD/svg11.dtd">
<!-- Generated by graphviz version 14.1.5 (0)
 -->
<!-- Title: TryPrincipalValue Pages: 1 -->
<svg width="1169pt" height="1994pt"
 viewBox="0.00 0.00 1169.00 1994.00" xmlns="http://www.w3.org/2000/svg" xmlns:xlink="http://www.w3.org/1999/xlink">
<g id="graph0" class="graph" transform="scale(1 1) rotate(0) translate(4 1989.53)">
<title>TryPrincipalValue</title>
<polygon fill="white" stroke="none" points="-4,4 -4,-1989.53 1165.33,-1989.53 1165.33,4 -4,4"/>
<!-- start -->
<g id="node1" class="node">
<title>start</title>
<ellipse fill="#e6eefc" stroke="#000000" cx="816.21" cy="-1966.09" rx="131.7" ry="19.45"/>
<text xml:space="preserve" text-anchor="middle" x="816.21" y="-1962.54" font-family="CMU Serif" font-size="14.00">Начало: tryPrincipalValue</text>
</g>
<!-- input -->
<g id="node2" class="node">
<title>input</title>
<polygon fill="#f5f5f5" stroke="#000000" points="992.98,-1929.64 711.78,-1929.64 639.44,-1874.64 920.64,-1874.64 992.98,-1929.64"/>
<text xml:space="preserve" text-anchor="start" x="738.96" y="-1896.89" font-family="CMU Serif" font-size="14.00">Ввод: integ, f, plan, eps</text>
</g>
<!-- start&#45;&gt;input -->
<g id="edge1" class="edge">
<title>start&#45;&gt;input</title>
<path fill="none" stroke="#000000" d="M816.21,-1946.16C816.21,-1944.56 816.21,-1942.91 816.21,-1941.23"/>
<polygon fill="#000000" stroke="#000000" points="819.71,-1941.44 816.21,-1931.44 812.71,-1941.44 819.71,-1941.44"/>
</g>
<!-- init -->
<g id="node3" class="node">
<title>init</title>
<polygon fill="#ffffff" stroke="#000000" points="901.08,-1857.64 731.33,-1857.64 731.33,-1791.14 901.08,-1791.14 901.08,-1857.64"/>
<text xml:space="preserve" text-anchor="start" x="739.33" y="-1838.64" font-family="CMU Serif" font-size="14.00">acc = 0; nAcc = 0; rg = 0</text>
<text xml:space="preserve" text-anchor="start" x="768.58" y="-1819.14" font-family="CMU Serif" font-size="14.00">usedPV = false</text>
<text xml:space="preserve" text-anchor="start" x="802.33" y="-1799.64" font-family="CMU Serif" font-size="14.00">i = 0</text>
</g>
<!-- input&#45;&gt;init -->
<g id="edge2" class="edge">
<title>input&#45;&gt;init</title>
<path fill="none" stroke="#000000" d="M816.21,-1874.22C816.21,-1872.57 816.21,-1870.9 816.21,-1869.2"/>
<polygon fill="#000000" stroke="#000000" points="819.71,-1869.44 816.21,-1859.44 812.71,-1869.44 819.71,-1869.44"/>
</g>
<!-- chkI -->
<g id="node4" class="node">
<title>chkI</title>
<polygon fill="#fff7d1" stroke="#000000" points="816.21,-1774.14 662.21,-1746.64 816.21,-1719.14 970.21,-1746.64 816.21,-1774.14"/>
<text xml:space="preserve" text-anchor="start" x="747.21" y="-1741.39" font-family="CMU Serif" font-size="14.00">i &lt; |plan.segments|?</text>
</g>
<!-- init&#45;&gt;chkI -->
<g id="edge3" class="edge">
<title>init&#45;&gt;chkI</title>
<path fill="none" stroke="#000000" d="M816.21,-1790.83C816.21,-1789.21 816.21,-1787.58 816.21,-1785.94"/>
<polygon fill="#000000" stroke="#000000" points="819.71,-1785.99 816.21,-1775.99 812.71,-1785.99 819.71,-1785.99"/>
</g>
<!-- retSucc -->
<g id="node5" class="node">
<title>retSucc</title>
<polygon fill="#fef3c7" stroke="#000000" points="364.42,-1641.89 74.56,-1641.89 0,-1430.89 289.85,-1430.89 364.42,-1641.89"/>
<text xml:space="preserve" text-anchor="start" x="134.58" y="-1570.14" font-family="CMU Serif" font-size="14.00">success = true</text>
<text xml:space="preserve" text-anchor="start" x="102.33" y="-1550.64" font-family="CMU Serif" font-size="14.00">usedPV (как накоплено)</text>
<text xml:space="preserve" text-anchor="start" x="146.21" y="-1531.14" font-family="CMU Serif" font-size="14.00">value = acc</text>
<text xml:space="preserve" text-anchor="start" x="154.08" y="-1511.64" font-family="CMU Serif" font-size="14.00">n = nAcc</text>
<text xml:space="preserve" text-anchor="start" x="146.96" y="-1492.14" font-family="CMU Serif" font-size="14.00">runge = rg</text>
</g>
<!-- chkI&#45;&gt;retSucc -->
<g id="edge4" class="edge">
<title>chkI&#45;&gt;retSucc</title>
<path fill="none" stroke="#000000" d="M749.68,-1730.64C671.18,-1712.94 551.21,-1685.89 551.21,-1685.89 551.21,-1685.89 456.23,-1647.67 362.64,-1610"/>
<polygon fill="#000000" stroke="#000000" points="364.12,-1606.82 353.53,-1606.34 361.5,-1613.32 364.12,-1606.82"/>
<text xml:space="preserve" text-anchor="middle" x="670.84" y="-1699.74" font-family="CMU Serif" font-size="12.00">нет</text>
</g>
<!-- segI -->
<g id="node6" class="node">
<title>segI</title>
<polygon fill="#ffffff" stroke="#000000" points="721.83,-1685.89 556.58,-1685.89 556.58,-1649.89 721.83,-1649.89 721.83,-1685.89"/>
<text xml:space="preserve" text-anchor="middle" x="639.21" y="-1664.34" font-family="CMU Serif" font-size="14.00">seg = plan.segments[i]</text>
</g>
<!-- chkI&#45;&gt;segI -->
<g id="edge6" class="edge">
<title>chkI&#45;&gt;segI</title>
<path fill="none" stroke="#000000" d="M772.46,-1726.67C747.44,-1715.82 715.96,-1702.17 689.87,-1690.86"/>
<polygon fill="#000000" stroke="#000000" points="691.39,-1687.7 680.82,-1686.93 688.6,-1694.12 691.39,-1687.7"/>
<text xml:space="preserve" text-anchor="middle" x="740.14" y="-1699.74" font-family="CMU Serif" font-size="12.00">да</text>
</g>
<!-- stop -->
<g id="node26" class="node">
<title>stop</title>
<ellipse fill="#e6eefc" stroke="#000000" cx="319.21" cy="-19.45" rx="39.95" ry="19.45"/>
<text xml:space="preserve" text-anchor="middle" x="319.21" y="-15.9" font-family="CMU Serif" font-size="14.00">Конец</text>
</g>
<!-- retSucc&#45;&gt;stop -->
<g id="edge5" class="edge">
<title>retSucc&#45;&gt;stop</title>
<path fill="none" stroke="#000000" d="M98.63,-1430.51C52.8,-1373 5.21,-1313.27 5.21,-1313.27 5.21,-1313.27 5.21,-1313.27 5.21,-107.64 5.21,-107.64 115.21,-55.89 115.21,-55.89 115.21,-55.89 210.25,-39.38 270.59,-28.89"/>
<polygon fill="#000000" stroke="#000000" points="271.05,-32.37 280.3,-27.21 269.85,-25.47 271.05,-32.37"/>
</g>
<!-- chkOrd -->
<g id="node7" class="node">
<title>chkOrd</title>
<polygon fill="#fff7d1" stroke="#000000" points="561.21,-1422.89 410.96,-1375.89 561.21,-1328.89 711.46,-1375.89 561.21,-1422.89"/>
<text xml:space="preserve" text-anchor="start" x="494.08" y="-1380.39" font-family="CMU Serif" font-size="14.00">¬seg.limit_at_from ∧</text>
<text xml:space="preserve" text-anchor="start" x="506.83" y="-1360.89" font-family="CMU Serif" font-size="14.00">¬seg.limit_at_to?</text>
</g>
<!-- segI&#45;&gt;chkOrd -->
<g id="edge7" class="edge">
<title>segI&#45;&gt;chkOrd</title>
<path fill="none" stroke="#000000" d="M634.56,-1649.62C623.2,-1607.37 593.63,-1497.42 575.69,-1430.74"/>
<polygon fill="#000000" stroke="#000000" points="579.07,-1429.83 573.1,-1421.08 572.31,-1431.65 579.07,-1429.83"/>
</g>
<!-- callOrd -->
<g id="node8" class="node">
<title>callOrd</title>
<polygon fill="#e6eefc" stroke="#000000" points="311.96,-1255.14 126.46,-1255.14 126.46,-1208.14 311.96,-1208.14 311.96,-1255.14"/>
<text xml:space="preserve" text-anchor="start" x="134.46" y="-1236.14" font-family="CMU Serif" font-size="14.00">inner = integ.rungeSolve(</text>
<text xml:space="preserve" text-anchor="start" x="158.08" y="-1216.64" font-family="CMU Serif" font-size="14.00">f, seg.from, seg.to)</text>
</g>
<!-- chkOrd&#45;&gt;callOrd -->
<g id="edge8" class="edge">
<title>chkOrd&#45;&gt;callOrd</title>
<path fill="none" stroke="#000000" d="M488.33,-1351.22C416.43,-1327.87 317.21,-1295.64 317.21,-1295.64 317.21,-1295.64 289.98,-1278.14 264.23,-1261.59"/>
<polygon fill="#000000" stroke="#000000" points="266.44,-1258.85 256.14,-1256.38 262.66,-1264.73 266.44,-1258.85"/>
<text xml:space="preserve" text-anchor="middle" x="396.43" y="-1309.49" font-family="CMU Serif" font-size="12.00">да</text>
</g>
<!-- chkPair -->
<g id="node12" class="node">
<title>chkPair</title>
<polygon fill="#fff7d1" stroke="#000000" points="561.21,-1295.64 323.21,-1231.64 561.21,-1167.64 799.21,-1231.64 561.21,-1295.64"/>
<text xml:space="preserve" text-anchor="start" x="476.08" y="-1247.34" font-family="CMU Serif" font-size="14.00">i + 1 &lt; |plan.segments| ∧</text>
<text xml:space="preserve" text-anchor="start" x="506.83" y="-1233.34" font-family="CMU Serif" font-size="14.00">seg.limit_at_to ∧</text>
<text xml:space="preserve" text-anchor="start" x="480.96" y="-1219.34" font-family="CMU Serif" font-size="14.00">plan[i+1].limit_at_from ∧</text>
<text xml:space="preserve" text-anchor="start" x="450.21" y="-1205.34" font-family="CMU Serif" font-size="14.00">|seg.to − plan[i+1].from| &lt; 10</text>
<text xml:space="preserve" text-anchor="start" x="645.96" y="-1205.34" font-family="CMU Serif" baseline-shift="super" font-size="14.00">−15</text>
<text xml:space="preserve" text-anchor="start" x="666.21" y="-1205.34" font-family="CMU Serif" font-size="14.00">?</text>
</g>
<!-- chkOrd&#45;&gt;chkPair -->
<g id="edge14" class="edge">
<title>chkOrd&#45;&gt;chkPair</title>
<path fill="none" stroke="#000000" d="M561.21,-1328.71C561.21,-1321.84 561.21,-1314.62 561.21,-1307.34"/>
<polygon fill="#000000" stroke="#000000" points="564.71,-1307.43 561.21,-1297.43 557.71,-1307.43 564.71,-1307.43"/>
<text xml:space="preserve" text-anchor="middle" x="570.96" y="-1309.49" font-family="CMU Serif" font-size="12.00">нет</text>
</g>
<!-- chkOrdOk -->
<g id="node9" class="node">
<title>chkOrdOk</title>
<polygon fill="#fff7d1" stroke="#000000" points="219.21,-1118.89 77.21,-1091.39 219.21,-1063.89 361.21,-1091.39 219.21,-1118.89"/>
<text xml:space="preserve" text-anchor="start" x="156.21" y="-1086.14" font-family="CMU Serif" font-size="14.00">inner.status = &quot;ok&quot;?</text>
</g>
<!-- callOrd&#45;&gt;chkOrdOk -->
<g id="edge9" class="edge">
<title>callOrd&#45;&gt;chkOrdOk</title>
<path fill="none" stroke="#000000" d="M219.21,-1207.81C219.21,-1186.76 219.21,-1155.1 219.21,-1130.26"/>
<polygon fill="#000000" stroke="#000000" points="222.71,-1130.56 219.21,-1120.56 215.71,-1130.56 222.71,-1130.56"/>
</g>
<!-- retFailOrd -->
<g id="node10" class="node">
<title>retFailOrd</title>
<polygon fill="#fde2e2" stroke="#000000" points="399.75,-913.14 95.05,-913.14 16.67,-819.14 321.37,-819.14 399.75,-913.14"/>
<text xml:space="preserve" text-anchor="start" x="159.46" y="-870.64" font-family="CMU Serif" font-size="14.00">success = false</text>
<text xml:space="preserve" text-anchor="start" x="123.83" y="-851.14" font-family="CMU Serif" font-size="14.00">(подотрезок не сошёлся)</text>
</g>
<!-- chkOrdOk&#45;&gt;retFailOrd -->
<g id="edge10" class="edge">
<title>chkOrdOk&#45;&gt;retFailOrd</title>
<path fill="none" stroke="#000000" d="M217.9,-1063.9C216.22,-1029.8 213.26,-969.58 211.05,-924.72"/>
<polygon fill="#000000" stroke="#000000" points="214.55,-924.71 210.56,-914.89 207.56,-925.05 214.55,-924.71"/>
<text xml:space="preserve" text-anchor="middle" x="226.38" y="-1028.99" font-family="CMU Serif" font-size="12.00">нет</text>
</g>
<!-- accOrd -->
<g id="node11" class="node">
<title>accOrd</title>
<polygon fill="#ffffff" stroke="#000000" points="377.08,-1011.14 243.33,-1011.14 243.33,-925.14 377.08,-925.14 377.08,-1011.14"/>
<text xml:space="preserve" text-anchor="start" x="251.33" y="-992.14" font-family="CMU Serif" font-size="14.00">acc += inner.value</text>
<text xml:space="preserve" text-anchor="start" x="259.21" y="-972.64" font-family="CMU Serif" font-size="14.00">nAcc += inner.n</text>
<text xml:space="preserve" text-anchor="start" x="252.08" y="-953.14" font-family="CMU Serif" font-size="14.00">rg += inner.runge</text>
<text xml:space="preserve" text-anchor="start" x="286.58" y="-933.64" font-family="CMU Serif" font-size="14.00">i = i + 1</text>
</g>
<!-- chkOrdOk&#45;&gt;accOrd -->
<g id="edge12" class="edge">
<title>chkOrdOk&#45;&gt;accOrd</title>
<path fill="none" stroke="#000000" d="M236.76,-1067.01C246.69,-1053.77 259.53,-1036.67 271.69,-1020.47"/>
<polygon fill="#000000" stroke="#000000" points="274.24,-1022.9 277.44,-1012.8 268.64,-1018.7 274.24,-1022.9"/>
<text xml:space="preserve" text-anchor="middle" x="274.56" y="-1028.99" font-family="CMU Serif" font-size="12.00">да</text>
</g>
<!-- retFailOrd&#45;&gt;stop -->
<g id="edge11" class="edge">
<title>retFailOrd&#45;&gt;stop</title>
<path fill="none" stroke="#000000" d="M177.52,-818.75C153.18,-781.94 123.21,-736.64 123.21,-736.64 123.21,-736.64 123.21,-736.64 123.21,-107.64 123.21,-107.64 222.55,-63.45 279.79,-37.98"/>
<polygon fill="#000000" stroke="#000000" points="281.19,-41.19 288.91,-33.93 278.35,-34.79 281.19,-41.19"/>
</g>
<!-- accOrd&#45;&gt;chkI -->
<g id="edge13" class="edge">
<title>accOrd&#45;&gt;chkI</title>
<path fill="none" stroke="#000000" d="M377.3,-996.7C401.15,-1006.49 422.21,-1015.14 422.21,-1015.14 422.21,-1015.14 686.21,-1048.39 686.21,-1048.39 686.21,-1048.39 816.21,-1090.39 816.21,-1090.39 816.21,-1668.89 816.21,-1668.89 816.21,-1668.89 816.21,-1668.89 816.21,-1688.12 816.21,-1707.33"/>
<polygon fill="#000000" stroke="#000000" points="812.71,-1707.28 816.21,-1717.28 819.71,-1707.28 812.71,-1707.28"/>
</g>
<!-- computeD -->
<g id="node13" class="node">
<title>computeD</title>
<polygon fill="#ffffff" stroke="#000000" points="680.33,-1134.39 494.08,-1134.39 494.08,-1048.39 680.33,-1048.39 680.33,-1134.39"/>
<text xml:space="preserve" text-anchor="start" x="555.71" y="-1115.39" font-family="CMU Serif" font-size="14.00">c = seg.to</text>
<text xml:space="preserve" text-anchor="start" x="515.96" y="-1095.89" font-family="CMU Serif" font-size="14.00">leftLen = c − seg.from</text>
<text xml:space="preserve" text-anchor="start" x="502.08" y="-1076.39" font-family="CMU Serif" font-size="14.00">rightLen = plan[i+1].to − c</text>
<text xml:space="preserve" text-anchor="start" x="502.46" y="-1056.89" font-family="CMU Serif" font-size="14.00">d = min(leftLen, rightLen)</text>
</g>
<!-- chkPair&#45;&gt;computeD -->
<g id="edge15" class="edge">
<title>chkPair&#45;&gt;computeD</title>
<path fill="none" stroke="#000000" d="M572.54,-1170.4C574.08,-1162.19 575.66,-1153.81 577.18,-1145.74"/>
<polygon fill="#000000" stroke="#000000" points="580.59,-1146.53 579,-1136.06 573.71,-1145.24 580.59,-1146.53"/>
<text xml:space="preserve" text-anchor="middle" x="584.43" y="-1148.24" font-family="CMU Serif" font-size="12.00">да</text>
</g>
<!-- fallback -->
<g id="node22" class="node">
<title>fallback</title>
<polygon fill="#e6eefc" stroke="#000000" points="523.83,-811.14 298.58,-811.14 298.58,-744.64 523.83,-744.64 523.83,-811.14"/>
<text xml:space="preserve" text-anchor="start" x="306.58" y="-792.14" font-family="CMU Serif" font-size="14.00">sr = computeSegmentStandard(</text>
<text xml:space="preserve" text-anchor="start" x="354.96" y="-772.64" font-family="CMU Serif" font-size="14.00">integ, f, seg, eps)</text>
<text xml:space="preserve" text-anchor="start" x="318.21" y="-753.14" font-family="CMU Serif" font-size="14.00">(см. отдельную блок&#45;схему)</text>
</g>
<!-- chkPair&#45;&gt;fallback -->
<g id="edge28" class="edge">
<title>chkPair&#45;&gt;fallback</title>
<path fill="none" stroke="#000000" d="M521.29,-1178.01C504.25,-1155.54 488.21,-1134.39 488.21,-1134.39 488.21,-1134.39 422.21,-1015.14 422.21,-1015.14 422.21,-1015.14 416.42,-890.76 413.24,-822.49"/>
<polygon fill="#000000" stroke="#000000" points="416.75,-822.58 412.79,-812.76 409.76,-822.91 416.75,-822.58"/>
<text xml:space="preserve" text-anchor="middle" x="445.58" y="-1028.99" font-family="CMU Serif" font-size="12.00">нет</text>
</g>
<!-- chkAnti -->
<g id="node14" class="node">
<title>chkAnti</title>
<polygon fill="#fff7d1" stroke="#000000" points="630.21,-1015.14 428.21,-968.14 630.21,-921.14 832.21,-968.14 630.21,-1015.14"/>
<text xml:space="preserve" text-anchor="start" x="551.83" y="-972.64" font-family="CMU Serif" font-size="14.00">isAntisymmetric(f, c, d)?</text>
<text xml:space="preserve" text-anchor="start" x="537.21" y="-953.14" font-family="CMU Serif" font-size="14.00">(см. отдельную блок&#45;схему)</text>
</g>
<!-- computeD&#45;&gt;chkAnti -->
<g id="edge16" class="edge">
<title>computeD&#45;&gt;chkAnti</title>
<path fill="none" stroke="#000000" d="M602.25,-1047.98C605.18,-1039.72 608.28,-1030.97 611.32,-1022.41"/>
<polygon fill="#000000" stroke="#000000" points="614.56,-1023.75 614.6,-1013.16 607.96,-1021.41 614.56,-1023.75"/>
</g>
<!-- leftTail -->
<g id="node15" class="node">
<title>leftTail</title>
<polygon fill="#e6eefc" stroke="#000000" points="779.83,-809.89 536.58,-809.89 536.58,-745.89 779.83,-745.89 779.83,-809.89"/>
<text xml:space="preserve" text-anchor="start" x="577.21" y="-793.59" font-family="CMU Serif" font-size="14.00">Если leftLen &gt; d + 10</text>
<text xml:space="preserve" text-anchor="start" x="715.21" y="-793.59" font-family="CMU Serif" baseline-shift="super" font-size="14.00">−15</text>
<text xml:space="preserve" text-anchor="start" x="735.46" y="-793.59" font-family="CMU Serif" font-size="14.00">:</text>
<text xml:space="preserve" text-anchor="start" x="553.58" y="-779.59" font-family="CMU Serif" font-size="14.00">интегрировать [seg.from, c − d]</text>
<text xml:space="preserve" text-anchor="start" x="544.58" y="-765.59" font-family="CMU Serif" font-size="14.00">(rungeSolve, либо limitAtEndpoint</text>
<text xml:space="preserve" text-anchor="start" x="585.46" y="-751.59" font-family="CMU Serif" font-size="14.00">при seg.limit_at_from)</text>
</g>
<!-- chkAnti&#45;&gt;leftTail -->
<g id="edge17" class="edge">
<title>chkAnti&#45;&gt;leftTail</title>
<path fill="none" stroke="#000000" d="M636.84,-922.53C641.41,-891.87 647.42,-851.41 651.91,-821.25"/>
<polygon fill="#000000" stroke="#000000" points="655.31,-822.14 653.32,-811.73 648.39,-821.11 655.31,-822.14"/>
<text xml:space="preserve" text-anchor="middle" x="659.29" y="-863.37" font-family="CMU Serif" font-size="12.00">да</text>
</g>
<!-- chkAnti&#45;&gt;fallback -->
<g id="edge27" class="edge">
<title>chkAnti&#45;&gt;fallback</title>
<path fill="none" stroke="#000000" d="M587.72,-930.62C550.37,-898.51 496.12,-851.88 457.63,-818.8"/>
<polygon fill="#000000" stroke="#000000" points="460.2,-816.39 450.33,-812.52 455.64,-821.69 460.2,-816.39"/>
<text xml:space="preserve" text-anchor="middle" x="575.25" y="-863.37" font-family="CMU Serif" font-size="12.00">нет</text>
</g>
<!-- chkLeftOk -->
<g id="node16" class="node">
<title>chkLeftOk</title>
<polygon fill="#fff7d1" stroke="#000000" points="658.21,-727.64 538.71,-680.64 658.21,-633.64 777.71,-680.64 658.21,-727.64"/>
<text xml:space="preserve" text-anchor="start" x="622.96" y="-685.14" font-family="CMU Serif" font-size="14.00">хвостовой</text>
<text xml:space="preserve" text-anchor="start" x="606.46" y="-665.64" font-family="CMU Serif" font-size="14.00">подотрезок ok?</text>
</g>
<!-- leftTail&#45;&gt;chkLeftOk -->
<g id="edge18" class="edge">
<title>leftTail&#45;&gt;chkLeftOk</title>
<path fill="none" stroke="#000000" d="M658.21,-745.44C658.21,-743.41 658.21,-741.34 658.21,-739.25"/>
<polygon fill="#000000" stroke="#000000" points="661.71,-739.39 658.21,-729.39 654.71,-739.39 661.71,-739.39"/>
</g>
<!-- retFailLT -->
<g id="node17" class="node">
<title>retFailLT</title>
<polygon fill="#fde2e2" stroke="#000000" points="697.64,-506.39 409.02,-506.39 334.78,-412.39 623.39,-412.39 697.64,-506.39"/>
<text xml:space="preserve" text-anchor="start" x="467.46" y="-463.89" font-family="CMU Serif" font-size="14.00">success = false</text>
<text xml:space="preserve" text-anchor="start" x="436.71" y="-444.39" font-family="CMU Serif" font-size="14.00">(хвостовой расходится)</text>
</g>
<!-- chkLeftOk&#45;&gt;retFailLT -->
<g id="edge19" class="edge">
<title>chkLeftOk&#45;&gt;retFailLT</title>
<path fill="none" stroke="#000000" d="M623.15,-646.95C599.73,-625.12 573.21,-600.39 573.21,-600.39 573.21,-600.39 555.03,-555.74 539.2,-516.87"/>
<polygon fill="#000000" stroke="#000000" points="542.61,-515.96 535.6,-508.02 536.13,-518.6 542.61,-515.96"/>
<text xml:space="preserve" text-anchor="middle" x="609.43" y="-614.24" font-family="CMU Serif" font-size="12.00">нет</text>
</g>
<!-- rightTail -->
<g id="node18" class="node">
<title>rightTail</title>
<polygon fill="#e6eefc" stroke="#000000" points="821.83,-589.39 578.58,-589.39 578.58,-525.39 821.83,-525.39 821.83,-589.39"/>
<text xml:space="preserve" text-anchor="start" x="613.96" y="-573.09" font-family="CMU Serif" font-size="14.00">Если rightLen &gt; d + 10</text>
<text xml:space="preserve" text-anchor="start" x="762.46" y="-573.09" font-family="CMU Serif" baseline-shift="super" font-size="14.00">−15</text>
<text xml:space="preserve" text-anchor="start" x="782.71" y="-573.09" font-family="CMU Serif" font-size="14.00">:</text>
<text xml:space="preserve" text-anchor="start" x="586.96" y="-559.09" font-family="CMU Serif" font-size="14.00">интегрировать [c + d, plan[i+1].to]</text>
<text xml:space="preserve" text-anchor="start" x="586.58" y="-545.09" font-family="CMU Serif" font-size="14.00">(rungeSolve, либо limitAtEndpoint</text>
<text xml:space="preserve" text-anchor="start" x="618.83" y="-531.09" font-family="CMU Serif" font-size="14.00">при plan[i+1].limit_at_to)</text>
</g>
<!-- chkLeftOk&#45;&gt;rightTail -->
<g id="edge21" class="edge">
<title>chkLeftOk&#45;&gt;rightTail</title>
<path fill="none" stroke="#000000" d="M672.31,-638.93C676.62,-626.48 681.37,-612.77 685.71,-600.24"/>
<polygon fill="#000000" stroke="#000000" points="688.94,-601.62 688.9,-591.03 682.32,-599.33 688.94,-601.62"/>
<text xml:space="preserve" text-anchor="middle" x="688.85" y="-614.24" font-family="CMU Serif" font-size="12.00">да</text>
</g>
<!-- retFailLT&#45;&gt;stop -->
<g id="edge20" class="edge">
<title>retFailLT&#45;&gt;stop</title>
<path fill="none" stroke="#000000" d="M514.44,-411.96C511.33,-330.26 505.21,-169.39 505.21,-169.39 505.21,-169.39 400.61,-85.63 348.29,-43.74"/>
<polygon fill="#000000" stroke="#000000" points="350.64,-41.13 340.65,-37.61 346.27,-46.6 350.64,-41.13"/>
</g>
<!-- chkRightOk -->
<g id="node19" class="node">
<title>chkRightOk</title>
<polygon fill="#fff7d1" stroke="#000000" points="710.21,-404.39 590.71,-357.39 710.21,-310.39 829.71,-357.39 710.21,-404.39"/>
<text xml:space="preserve" text-anchor="start" x="674.96" y="-361.89" font-family="CMU Serif" font-size="14.00">хвостовой</text>
<text xml:space="preserve" text-anchor="start" x="658.46" y="-342.39" font-family="CMU Serif" font-size="14.00">подотрезок ok?</text>
</g>
<!-- rightTail&#45;&gt;chkRightOk -->
<g id="edge22" class="edge">
<title>rightTail&#45;&gt;chkRightOk</title>
<path fill="none" stroke="#000000" d="M701.79,-525.02C703.28,-495.6 705.54,-450.91 707.34,-415.22"/>
<polygon fill="#000000" stroke="#000000" points="710.82,-415.66 707.83,-405.49 703.83,-415.3 710.82,-415.66"/>
</g>
<!-- retFailRT -->
<g id="node20" class="node">
<title>retFailRT</title>
<polygon fill="#fde2e2" stroke="#000000" points="891.64,-155.64 603.02,-155.64 528.78,-61.64 817.39,-61.64 891.64,-155.64"/>
<text xml:space="preserve" text-anchor="start" x="661.46" y="-113.14" font-family="CMU Serif" font-size="14.00">success = false</text>
<text xml:space="preserve" text-anchor="start" x="630.71" y="-93.64" font-family="CMU Serif" font-size="14.00">(хвостовой расходится)</text>
</g>
<!-- chkRightOk&#45;&gt;retFailRT -->
<g id="edge23" class="edge">
<title>chkRightOk&#45;&gt;retFailRT</title>
<path fill="none" stroke="#000000" d="M710.21,-309.98C710.21,-269.48 710.21,-210.57 710.21,-167.1"/>
<polygon fill="#000000" stroke="#000000" points="713.71,-167.36 710.21,-157.36 706.71,-167.36 713.71,-167.36"/>
<text xml:space="preserve" text-anchor="middle" x="719.96" y="-233.12" font-family="CMU Serif" font-size="12.00">нет</text>
</g>
<!-- accPV -->
<g id="node21" class="node">
<title>accPV</title>
<polygon fill="#fef3c7" stroke="#000000" points="1161.33,-161.39 903.08,-161.39 903.08,-55.89 1161.33,-55.89 1161.33,-161.39"/>
<text xml:space="preserve" text-anchor="start" x="953.08" y="-142.39" font-family="CMU Serif" font-size="14.00">acc += leftTail + rightTail</text>
<text xml:space="preserve" text-anchor="start" x="911.08" y="-122.89" font-family="CMU Serif" font-size="14.00">(подотрезок [c − d, c + d] зануляется</text>
<text xml:space="preserve" text-anchor="start" x="985.33" y="-103.39" font-family="CMU Serif" font-size="14.00">в смысле V.p.)</text>
<text xml:space="preserve" text-anchor="start" x="985.71" y="-83.89" font-family="CMU Serif" font-size="14.00">usedPV = true</text>
<text xml:space="preserve" text-anchor="start" x="1008.58" y="-64.39" font-family="CMU Serif" font-size="14.00">i = i + 2</text>
</g>
<!-- chkRightOk&#45;&gt;accPV -->
<g id="edge25" class="edge">
<title>chkRightOk&#45;&gt;accPV</title>
<path fill="none" stroke="#000000" d="M749.24,-325.3C815.99,-272.13 944.96,-169.39 944.96,-169.39 944.96,-169.39 945.57,-168.97 946.68,-168.21"/>
<polygon fill="#000000" stroke="#000000" points="948.49,-171.22 954.76,-162.68 944.53,-165.44 948.49,-171.22"/>
<text xml:space="preserve" text-anchor="middle" x="952.08" y="-233.12" font-family="CMU Serif" font-size="12.00">да</text>
</g>
<!-- retFailRT&#45;&gt;stop -->
<g id="edge24" class="edge">
<title>retFailRT&#45;&gt;stop</title>
<path fill="none" stroke="#000000" d="M565.24,-61.29C539.23,-52.97 520.21,-46.89 520.21,-46.89 520.21,-46.89 428.07,-34.77 368.56,-26.94"/>
<polygon fill="#000000" stroke="#000000" points="369.36,-23.51 358.99,-25.68 368.45,-30.45 369.36,-23.51"/>
</g>
<!-- accPV&#45;&gt;chkI -->
<g id="edge26" class="edge">
<title>accPV&#45;&gt;chkI</title>
<path fill="none" stroke="#000000" d="M1018.5,-161.67C999.43,-234.06 967.21,-356.39 967.21,-356.39 967.21,-1668.89 967.21,-1668.89 967.21,-1668.89 967.21,-1668.89 909.56,-1698.19 865.5,-1720.59"/>
<polygon fill="#000000" stroke="#000000" points="864.17,-1717.34 856.84,-1724.99 867.34,-1723.58 864.17,-1717.34"/>
</g>
<!-- chkFb -->
<g id="node23" class="node">
<title>chkFb</title>
<polygon fill="#fff7d1" stroke="#000000" points="409.21,-708.14 290.46,-680.64 409.21,-653.14 527.96,-680.64 409.21,-708.14"/>
<text xml:space="preserve" text-anchor="start" x="357.83" y="-675.39" font-family="CMU Serif" font-size="14.00">sr.status = &quot;ok&quot;?</text>
</g>
<!-- fallback&#45;&gt;chkFb -->
<g id="edge29" class="edge">
<title>fallback&#45;&gt;chkFb</title>
<path fill="none" stroke="#000000" d="M410.53,-744.38C410.36,-736.39 410.18,-727.77 410.01,-719.56"/>
<polygon fill="#000000" stroke="#000000" points="413.51,-719.76 409.8,-709.83 406.51,-719.91 413.51,-719.76"/>
</g>
<!-- retFailFb -->
<g id="node24" class="node">
<title>retFailFb</title>
<polygon fill="#fde2e2" stroke="#000000" points="503.75,-302.39 210.19,-302.39 134.67,-169.39 428.23,-169.39 503.75,-302.39"/>
<text xml:space="preserve" text-anchor="start" x="270.46" y="-250.14" font-family="CMU Serif" font-size="14.00">success = false</text>
<text xml:space="preserve" text-anchor="start" x="264.83" y="-230.64" font-family="CMU Serif" font-size="14.00">(несобственный</text>
<text xml:space="preserve" text-anchor="start" x="238.21" y="-211.14" font-family="CMU Serif" font-size="14.00">подотрезок расходится)</text>
</g>
<!-- chkFb&#45;&gt;retFailFb -->
<g id="edge30" class="edge">
<title>chkFb&#45;&gt;retFailFb</title>
<path fill="none" stroke="#000000" d="M393.74,-656.29C378.26,-632.92 356.71,-600.39 356.71,-600.39 356.71,-600.39 331.21,-506.39 331.21,-506.39 331.21,-506.39 326.2,-393.94 322.66,-314.31"/>
<polygon fill="#000000" stroke="#000000" points="326.15,-314.16 322.21,-304.33 319.16,-314.48 326.15,-314.16"/>
<text xml:space="preserve" text-anchor="middle" x="366.46" y="-554.62" font-family="CMU Serif" font-size="12.00">нет</text>
</g>
<!-- accFb -->
<g id="node25" class="node">
<title>accFb</title>
<polygon fill="#ffffff" stroke="#000000" points="492.46,-600.39 381.96,-600.39 381.96,-514.39 492.46,-514.39 492.46,-600.39"/>
<text xml:space="preserve" text-anchor="start" x="389.96" y="-581.39" font-family="CMU Serif" font-size="14.00">acc += sr.value</text>
<text xml:space="preserve" text-anchor="start" x="397.83" y="-561.89" font-family="CMU Serif" font-size="14.00">nAcc += sr.n</text>
<text xml:space="preserve" text-anchor="start" x="390.71" y="-542.39" font-family="CMU Serif" font-size="14.00">rg += sr.runge</text>
<text xml:space="preserve" text-anchor="start" x="413.58" y="-522.89" font-family="CMU Serif" font-size="14.00">i = i + 1</text>
</g>
<!-- chkFb&#45;&gt;accFb -->
<g id="edge32" class="edge">
<title>chkFb&#45;&gt;accFb</title>
<path fill="none" stroke="#000000" d="M415.08,-654.22C417.94,-641.83 421.5,-626.43 424.92,-611.62"/>
<polygon fill="#000000" stroke="#000000" points="428.31,-612.49 427.15,-601.95 421.49,-610.91 428.31,-612.49"/>
<text xml:space="preserve" text-anchor="middle" x="432.01" y="-614.24" font-family="CMU Serif" font-size="12.00">да</text>
</g>
<!-- retFailFb&#45;&gt;stop -->
<g id="edge31" class="edge">
<title>retFailFb&#45;&gt;stop</title>
<path fill="none" stroke="#000000" d="M319.21,-169.09C319.21,-129.53 319.21,-81.07 319.21,-50.47"/>
<polygon fill="#000000" stroke="#000000" points="322.71,-50.81 319.21,-40.81 315.71,-50.81 322.71,-50.81"/>
</g>
<!-- accFb&#45;&gt;chkI -->
<g id="edge33" class="edge">
<title>accFb&#45;&gt;chkI</title>
<path fill="none" stroke="#000000" d="M492.92,-575.6C530.48,-587.19 573.21,-600.39 573.21,-600.39 573.21,-600.39 698.21,-608.39 698.21,-608.39 698.21,-608.39 783.21,-633.64 783.21,-633.64 783.21,-633.64 849.21,-679.64 849.21,-679.64 849.21,-1668.89 849.21,-1668.89 849.21,-1668.89 849.21,-1668.89 839.98,-1690.36 831.28,-1710.59"/>
<polygon fill="#000000" stroke="#000000" points="828.16,-1708.97 827.43,-1719.54 834.6,-1711.74 828.16,-1708.97"/>
</g>
</g>
</svg>
