<?xml version="1.0" encoding="UTF-8" standalone="no"?>
<!DOCTYPE svg PUBLIC "-//W3C//DTD SVG 1.1//EN"
 "http://www.w3.org/Graphics/SVG/1.1/DTD/svg11.dtd">
<!-- Generated by graphviz version 14.1.5 (0)
 -->
<!-- Title: TryPrincipalValue Pages: 1 -->
<svg width="1240pt" height="2117pt"
 viewBox="0.00 0.00 1240.00 2117.00" xmlns="http://www.w3.org/2000/svg" xmlns:xlink="http://www.w3.org/1999/xlink">
<g id="graph0" class="graph" transform="scale(1 1) rotate(0) translate(4 2112.53)">
<title>TryPrincipalValue</title>
<polygon fill="white" stroke="none" points="-4,4 -4,-2112.53 1236.12,-2112.53 1236.12,4 -4,4"/>
<!-- start -->
<g id="node1" class="node">
<title>start</title>
<ellipse fill="#e6eefc" stroke="#000000" cx="832" cy="-2089.09" rx="131.7" ry="19.45"/>
<text xml:space="preserve" text-anchor="middle" x="832" y="-2085.54" font-family="CMU Serif" font-size="14.00">Начало: tryPrincipalValue</text>
</g>
<!-- input -->
<g id="node2" class="node">
<title>input</title>
<polygon fill="#f5f5f5" stroke="#000000" points="1008.77,-2046.64 727.57,-2046.64 655.23,-1991.64 936.43,-1991.64 1008.77,-2046.64"/>
<text xml:space="preserve" text-anchor="start" x="754.75" y="-2013.89" font-family="CMU Serif" font-size="14.00">Ввод: integ, f, plan, eps</text>
</g>
<!-- start&#45;&gt;input -->
<g id="edge1" class="edge">
<title>start&#45;&gt;input</title>
<path fill="none" stroke="#000000" d="M832,-2069.16C832,-2065.74 832,-2062.07 832,-2058.33"/>
<polygon fill="#000000" stroke="#000000" points="835.5,-2058.6 832,-2048.6 828.5,-2058.6 835.5,-2058.6"/>
</g>
<!-- init -->
<g id="node3" class="node">
<title>init</title>
<polygon fill="#ffffff" stroke="#000000" points="916.88,-1968.64 747.12,-1968.64 747.12,-1902.14 916.88,-1902.14 916.88,-1968.64"/>
<text xml:space="preserve" text-anchor="start" x="755.12" y="-1949.64" font-family="CMU Serif" font-size="14.00">acc = 0; nAcc = 0; rg = 0</text>
<text xml:space="preserve" text-anchor="start" x="784.38" y="-1930.14" font-family="CMU Serif" font-size="14.00">usedPV = false</text>
<text xml:space="preserve" text-anchor="start" x="818.12" y="-1910.64" font-family="CMU Serif" font-size="14.00">i = 0</text>
</g>
<!-- input&#45;&gt;init -->
<g id="edge2" class="edge">
<title>input&#45;&gt;init</title>
<path fill="none" stroke="#000000" d="M832,-1991.37C832,-1987.79 832,-1984.04 832,-1980.25"/>
<polygon fill="#000000" stroke="#000000" points="835.5,-1980.44 832,-1970.44 828.5,-1980.44 835.5,-1980.44"/>
</g>
<!-- chkI -->
<g id="node4" class="node">
<title>chkI</title>
<polygon fill="#fff7d1" stroke="#000000" points="832,-1879.14 678,-1851.64 832,-1824.14 986,-1851.64 832,-1879.14"/>
<text xml:space="preserve" text-anchor="start" x="763" y="-1846.39" font-family="CMU Serif" font-size="14.00">i &lt; |plan.segments|?</text>
</g>
<!-- init&#45;&gt;chkI -->
<g id="edge3" class="edge">
<title>init&#45;&gt;chkI</title>
<path fill="none" stroke="#000000" d="M832,-1902.08C832,-1898.33 832,-1894.48 832,-1890.67"/>
<polygon fill="#000000" stroke="#000000" points="835.5,-1890.96 832,-1880.96 828.5,-1890.96 835.5,-1890.96"/>
</g>
<!-- retSucc -->
<g id="node5" class="node">
<title>retSucc</title>
<polygon fill="#fef3c7" stroke="#000000" points="372.21,-1737.89 82.36,-1737.89 7.79,-1526.89 297.64,-1526.89 372.21,-1737.89"/>
<text xml:space="preserve" text-anchor="start" x="142.38" y="-1666.14" font-family="CMU Serif" font-size="14.00">success = true</text>
<text xml:space="preserve" text-anchor="start" x="110.12" y="-1646.64" font-family="CMU Serif" font-size="14.00">usedPV (как накоплено)</text>
<text xml:space="preserve" text-anchor="start" x="154" y="-1627.14" font-family="CMU Serif" font-size="14.00">value = acc</text>
<text xml:space="preserve" text-anchor="start" x="161.88" y="-1607.64" font-family="CMU Serif" font-size="14.00">n = nAcc</text>
<text xml:space="preserve" text-anchor="start" x="154.75" y="-1588.14" font-family="CMU Serif" font-size="14.00">runge = rg</text>
</g>
<!-- chkI&#45;&gt;retSucc -->
<g id="edge4" class="edge">
<title>chkI&#45;&gt;retSucc</title>
<path fill="none" stroke="#000000" d="M766.71,-1835.31C683.97,-1815.88 552,-1784.89 552,-1784.89 552,-1784.89 461.75,-1747.12 371.37,-1709.3"/>
<polygon fill="#000000" stroke="#000000" points="372.9,-1706.14 362.33,-1705.51 370.2,-1712.6 372.9,-1706.14"/>
<text xml:space="preserve" text-anchor="middle" x="677.85" y="-1801.74" font-family="CMU Serif" font-size="12.00">нет</text>
</g>
<!-- segI -->
<g id="node6" class="node">
<title>segI</title>
<polygon fill="#ffffff" stroke="#000000" points="726.62,-1784.89 561.38,-1784.89 561.38,-1748.89 726.62,-1748.89 726.62,-1784.89"/>
<text xml:space="preserve" text-anchor="middle" x="644" y="-1763.34" font-family="CMU Serif" font-size="14.00">seg = plan.segments[i]</text>
</g>
<!-- chkI&#45;&gt;segI -->
<g id="edge6" class="edge">
<title>chkI&#45;&gt;segI</title>
<path fill="none" stroke="#000000" d="M788.4,-1831.45C760.19,-1819.03 723.38,-1802.83 693.99,-1789.89"/>
<polygon fill="#000000" stroke="#000000" points="695.47,-1786.72 684.91,-1785.9 692.65,-1793.13 695.47,-1786.72"/>
<text xml:space="preserve" text-anchor="middle" x="750.76" y="-1801.74" font-family="CMU Serif" font-size="12.00">да</text>
</g>
<!-- stop -->
<g id="node26" class="node">
<title>stop</title>
<ellipse fill="#e6eefc" stroke="#000000" cx="366" cy="-19.45" rx="39.95" ry="19.45"/>
<text xml:space="preserve" text-anchor="middle" x="366" y="-15.9" font-family="CMU Serif" font-size="14.00">Конец</text>
</g>
<!-- retSucc&#45;&gt;stop -->
<g id="edge5" class="edge">
<title>retSucc&#45;&gt;stop</title>
<path fill="none" stroke="#000000" d="M102.79,-1526.68C52.84,-1466.71 0,-1403.27 0,-1403.27 0,-1403.27 0,-1403.27 0,-113.64 0,-113.64 152,-61.89 152,-61.89 152,-61.89 254.83,-41.98 317.93,-29.76"/>
<polygon fill="#000000" stroke="#000000" points="318.57,-33.2 327.73,-27.86 317.24,-26.32 318.57,-33.2"/>
</g>
<!-- chkOrd -->
<g id="node7" class="node">
<title>chkOrd</title>
<polygon fill="#fff7d1" stroke="#000000" points="566,-1515.89 415.75,-1468.89 566,-1421.89 716.25,-1468.89 566,-1515.89"/>
<text xml:space="preserve" text-anchor="start" x="498.88" y="-1473.39" font-family="CMU Serif" font-size="14.00">¬seg.limit_at_from ∧</text>
<text xml:space="preserve" text-anchor="start" x="511.62" y="-1453.89" font-family="CMU Serif" font-size="14.00">¬seg.limit_at_to?</text>
</g>
<!-- segI&#45;&gt;chkOrd -->
<g id="edge7" class="edge">
<title>segI&#45;&gt;chkOrd</title>
<path fill="none" stroke="#000000" d="M639.47,-1748.7C628.12,-1705.63 598.1,-1591.69 580.14,-1523.54"/>
<polygon fill="#000000" stroke="#000000" points="583.57,-1522.84 577.64,-1514.07 576.8,-1524.63 583.57,-1522.84"/>
</g>
<!-- callOrd -->
<g id="node8" class="node">
<title>callOrd</title>
<polygon fill="#e6eefc" stroke="#000000" points="309.75,-1342.14 124.25,-1342.14 124.25,-1295.14 309.75,-1295.14 309.75,-1342.14"/>
<text xml:space="preserve" text-anchor="start" x="132.25" y="-1323.14" font-family="CMU Serif" font-size="14.00">inner = integ.rungeSolve(</text>
<text xml:space="preserve" text-anchor="start" x="155.88" y="-1303.64" font-family="CMU Serif" font-size="14.00">f, seg.from, seg.to)</text>
</g>
<!-- chkOrd&#45;&gt;callOrd -->
<g id="edge8" class="edge">
<title>chkOrd&#45;&gt;callOrd</title>
<path fill="none" stroke="#000000" d="M495.55,-1443.58C422.54,-1418.38 319,-1382.64 319,-1382.64 319,-1382.64 290.66,-1365.14 263.86,-1348.59"/>
<polygon fill="#000000" stroke="#000000" points="265.75,-1345.64 255.4,-1343.36 262.07,-1351.59 265.75,-1345.64"/>
<text xml:space="preserve" text-anchor="middle" x="406.02" y="-1399.49" font-family="CMU Serif" font-size="12.00">да</text>
</g>
<!-- chkPair -->
<g id="node12" class="node">
<title>chkPair</title>
<polygon fill="#fff7d1" stroke="#000000" points="566,-1382.64 328,-1318.64 566,-1254.64 804,-1318.64 566,-1382.64"/>
<text xml:space="preserve" text-anchor="start" x="480.88" y="-1334.34" font-family="CMU Serif" font-size="14.00">i + 1 &lt; |plan.segments| ∧</text>
<text xml:space="preserve" text-anchor="start" x="511.62" y="-1320.34" font-family="CMU Serif" font-size="14.00">seg.limit_at_to ∧</text>
<text xml:space="preserve" text-anchor="start" x="485.75" y="-1306.34" font-family="CMU Serif" font-size="14.00">plan[i+1].limit_at_from ∧</text>
<text xml:space="preserve" text-anchor="start" x="455" y="-1292.34" font-family="CMU Serif" font-size="14.00">|seg.to − plan[i+1].from| &lt; 10</text>
<text xml:space="preserve" text-anchor="start" x="650.75" y="-1292.34" font-family="CMU Serif" baseline-shift="super" font-size="14.00">−15</text>
<text xml:space="preserve" text-anchor="start" x="671" y="-1292.34" font-family="CMU Serif" font-size="14.00">?</text>
</g>
<!-- chkOrd&#45;&gt;chkPair -->
<g id="edge14" class="edge">
<title>chkOrd&#45;&gt;chkPair</title>
<path fill="none" stroke="#000000" d="M566,-1421.39C566,-1412.76 566,-1403.54 566,-1394.31"/>
<polygon fill="#000000" stroke="#000000" points="569.5,-1394.6 566,-1384.6 562.5,-1394.6 569.5,-1394.6"/>
<text xml:space="preserve" text-anchor="middle" x="575.75" y="-1399.49" font-family="CMU Serif" font-size="12.00">нет</text>
</g>
<!-- chkOrdOk -->
<g id="node9" class="node">
<title>chkOrdOk</title>
<polygon fill="#fff7d1" stroke="#000000" points="217,-1199.89 75,-1172.39 217,-1144.89 359,-1172.39 217,-1199.89"/>
<text xml:space="preserve" text-anchor="start" x="154" y="-1167.14" font-family="CMU Serif" font-size="14.00">inner.status = &quot;ok&quot;?</text>
</g>
<!-- callOrd&#45;&gt;chkOrdOk -->
<g id="edge9" class="edge">
<title>callOrd&#45;&gt;chkOrdOk</title>
<path fill="none" stroke="#000000" d="M217,-1294.78C217,-1272.43 217,-1237.99 217,-1211.49"/>
<polygon fill="#000000" stroke="#000000" points="220.5,-1211.83 217,-1201.83 213.5,-1211.83 220.5,-1211.83"/>
</g>
<!-- retFailOrd -->
<g id="node10" class="node">
<title>retFailOrd</title>
<polygon fill="#fde2e2" stroke="#000000" points="398.54,-946.14 93.84,-946.14 15.46,-852.14 320.16,-852.14 398.54,-946.14"/>
<text xml:space="preserve" text-anchor="start" x="158.25" y="-903.64" font-family="CMU Serif" font-size="14.00">success = false</text>
<text xml:space="preserve" text-anchor="start" x="122.62" y="-884.14" font-family="CMU Serif" font-size="14.00">(подотрезок не сошёлся)</text>
</g>
<!-- chkOrdOk&#45;&gt;retFailOrd -->
<g id="edge10" class="edge">
<title>chkOrdOk&#45;&gt;retFailOrd</title>
<path fill="none" stroke="#000000" d="M216.02,-1144.89C214.44,-1101.86 211.26,-1015.82 209.14,-958.09"/>
<polygon fill="#000000" stroke="#000000" points="212.63,-957.97 208.77,-948.1 205.64,-958.23 212.63,-957.97"/>
<text xml:space="preserve" text-anchor="middle" x="224.77" y="-1106.99" font-family="CMU Serif" font-size="12.00">нет</text>
</g>
<!-- accOrd -->
<g id="node11" class="node">
<title>accOrd</title>
<polygon fill="#ffffff" stroke="#000000" points="377.88,-1066.64 244.12,-1066.64 244.12,-980.64 377.88,-980.64 377.88,-1066.64"/>
<text xml:space="preserve" text-anchor="start" x="252.12" y="-1047.64" font-family="CMU Serif" font-size="14.00">acc += inner.value</text>
<text xml:space="preserve" text-anchor="start" x="260" y="-1028.14" font-family="CMU Serif" font-size="14.00">nAcc += inner.n</text>
<text xml:space="preserve" text-anchor="start" x="252.88" y="-1008.64" font-family="CMU Serif" font-size="14.00">rg += inner.runge</text>
<text xml:space="preserve" text-anchor="start" x="287.38" y="-989.14" font-family="CMU Serif" font-size="14.00">i = i + 1</text>
</g>
<!-- chkOrdOk&#45;&gt;accOrd -->
<g id="edge12" class="edge">
<title>chkOrdOk&#45;&gt;accOrd</title>
<path fill="none" stroke="#000000" d="M232.31,-1147.49C244.62,-1128.27 262.36,-1100.58 277.87,-1076.36"/>
<polygon fill="#000000" stroke="#000000" points="280.66,-1078.5 283.1,-1068.19 274.76,-1074.73 280.66,-1078.5"/>
<text xml:space="preserve" text-anchor="middle" x="268.31" y="-1106.99" font-family="CMU Serif" font-size="12.00">да</text>
</g>
<!-- retFailOrd&#45;&gt;stop -->
<g id="edge11" class="edge">
<title>retFailOrd&#45;&gt;stop</title>
<path fill="none" stroke="#000000" d="M192.89,-851.85C181.03,-812.95 166,-763.64 166,-763.64 166,-763.64 166,-763.64 166,-113.64 166,-113.64 269.37,-65.47 327.48,-38.39"/>
<polygon fill="#000000" stroke="#000000" points="328.81,-41.64 336.4,-34.24 325.85,-35.29 328.81,-41.64"/>
</g>
<!-- accOrd&#45;&gt;chkI -->
<g id="edge13" class="edge">
<title>accOrd&#45;&gt;chkI</title>
<path fill="none" stroke="#000000" d="M378.07,-1060.65C406.42,-1075.87 433,-1090.14 433,-1090.14 433,-1090.14 718,-1129.39 718,-1129.39 718,-1129.39 832,-1171.39 832,-1171.39 832,-1767.89 832,-1767.89 832,-1767.89 832,-1767.89 832,-1790.83 832,-1812.55"/>
<polygon fill="#000000" stroke="#000000" points="828.5,-1812.49 832,-1822.49 835.5,-1812.49 828.5,-1812.49"/>
</g>
<!-- computeD -->
<g id="node13" class="node">
<title>computeD</title>
<polygon fill="#ffffff" stroke="#000000" points="709.12,-1215.39 522.88,-1215.39 522.88,-1129.39 709.12,-1129.39 709.12,-1215.39"/>
<text xml:space="preserve" text-anchor="start" x="584.5" y="-1196.39" font-family="CMU Serif" font-size="14.00">c = seg.to</text>
<text xml:space="preserve" text-anchor="start" x="544.75" y="-1176.89" font-family="CMU Serif" font-size="14.00">leftLen = c − seg.from</text>
<text xml:space="preserve" text-anchor="start" x="530.88" y="-1157.39" font-family="CMU Serif" font-size="14.00">rightLen = plan[i+1].to − c</text>
<text xml:space="preserve" text-anchor="start" x="531.25" y="-1137.89" font-family="CMU Serif" font-size="14.00">d = min(leftLen, rightLen)</text>
</g>
<!-- chkPair&#45;&gt;computeD -->
<g id="edge15" class="edge">
<title>chkPair&#45;&gt;computeD</title>
<path fill="none" stroke="#000000" d="M586.05,-1259.8C589.88,-1248.75 593.87,-1237.23 597.65,-1226.34"/>
<polygon fill="#000000" stroke="#000000" points="600.87,-1227.73 600.84,-1217.13 594.26,-1225.43 600.87,-1227.73"/>
<text xml:space="preserve" text-anchor="middle" x="604.07" y="-1232.24" font-family="CMU Serif" font-size="12.00">да</text>
</g>
<!-- fallback -->
<g id="node22" class="node">
<title>fallback</title>
<polygon fill="#e6eefc" stroke="#000000" points="526.62,-841.14 301.38,-841.14 301.38,-774.64 526.62,-774.64 526.62,-841.14"/>
<text xml:space="preserve" text-anchor="start" x="309.38" y="-822.14" font-family="CMU Serif" font-size="14.00">sr = computeSegmentStandard(</text>
<text xml:space="preserve" text-anchor="start" x="357.75" y="-802.64" font-family="CMU Serif" font-size="14.00">integ, f, seg, eps)</text>
<text xml:space="preserve" text-anchor="start" x="321" y="-783.14" font-family="CMU Serif" font-size="14.00">(см. отдельную блок&#45;схему)</text>
</g>
<!-- chkPair&#45;&gt;fallback -->
<g id="edge28" class="edge">
<title>chkPair&#45;&gt;fallback</title>
<path fill="none" stroke="#000000" d="M533.97,-1262.86C494.62,-1195.54 433,-1090.14 433,-1090.14 433,-1090.14 422.28,-931.45 416.94,-852.47"/>
<polygon fill="#000000" stroke="#000000" points="420.47,-852.68 416.3,-842.94 413.48,-853.15 420.47,-852.68"/>
<text xml:space="preserve" text-anchor="middle" x="458.6" y="-1106.99" font-family="CMU Serif" font-size="12.00">нет</text>
</g>
<!-- chkAnti -->
<g id="node14" class="node">
<title>chkAnti</title>
<polygon fill="#fff7d1" stroke="#000000" points="644,-1090.14 442,-1023.64 644,-957.14 846,-1023.64 644,-1090.14"/>
<text xml:space="preserve" text-anchor="start" x="620.75" y="-1037.89" font-family="CMU Serif" font-size="14.00">d &gt; 0 ∧</text>
<text xml:space="preserve" text-anchor="start" x="565.62" y="-1018.39" font-family="CMU Serif" font-size="14.00">isAntisymmetric(f, c, d)?</text>
<text xml:space="preserve" text-anchor="start" x="551" y="-998.89" font-family="CMU Serif" font-size="14.00">(см. отдельную блок&#45;схему)</text>
</g>
<!-- computeD&#45;&gt;chkAnti -->
<g id="edge16" class="edge">
<title>computeD&#45;&gt;chkAnti</title>
<path fill="none" stroke="#000000" d="M624.1,-1128.94C625.97,-1119.14 628.01,-1108.44 630.05,-1097.75"/>
<polygon fill="#000000" stroke="#000000" points="633.45,-1098.61 631.89,-1088.13 626.57,-1097.3 633.45,-1098.61"/>
</g>
<!-- leftTail -->
<g id="node15" class="node">
<title>leftTail</title>
<polygon fill="#e6eefc" stroke="#000000" points="789.62,-839.89 546.38,-839.89 546.38,-775.89 789.62,-775.89 789.62,-839.89"/>
<text xml:space="preserve" text-anchor="start" x="587" y="-823.59" font-family="CMU Serif" font-size="14.00">Если leftLen &gt; d + 10</text>
<text xml:space="preserve" text-anchor="start" x="725" y="-823.59" font-family="CMU Serif" baseline-shift="super" font-size="14.00">−15</text>
<text xml:space="preserve" text-anchor="start" x="745.25" y="-823.59" font-family="CMU Serif" font-size="14.00">:</text>
<text xml:space="preserve" text-anchor="start" x="563.38" y="-809.59" font-family="CMU Serif" font-size="14.00">интегрировать [seg.from, c − d]</text>
<text xml:space="preserve" text-anchor="start" x="554.38" y="-795.59" font-family="CMU Serif" font-size="14.00">(rungeSolve, либо limitAtEndpoint</text>
<text xml:space="preserve" text-anchor="start" x="595.25" y="-781.59" font-family="CMU Serif" font-size="14.00">при seg.limit_at_from)</text>
</g>
<!-- chkAnti&#45;&gt;leftTail -->
<g id="edge17" class="edge">
<title>chkAnti&#45;&gt;leftTail</title>
<path fill="none" stroke="#000000" d="M651.14,-959.09C655.03,-924.39 659.75,-882.35 663.21,-851.59"/>
<polygon fill="#000000" stroke="#000000" points="666.66,-852.22 664.29,-841.89 659.7,-851.44 666.66,-852.22"/>
<text xml:space="preserve" text-anchor="middle" x="669.94" y="-896.37" font-family="CMU Serif" font-size="12.00">да</text>
</g>
<!-- chkAnti&#45;&gt;fallback -->
<g id="edge27" class="edge">
<title>chkAnti&#45;&gt;fallback</title>
<path fill="none" stroke="#000000" d="M591.81,-974.14C551.27,-936.46 495.71,-884.83 457.54,-849.36"/>
<polygon fill="#000000" stroke="#000000" points="460.01,-846.87 450.3,-842.63 455.25,-852 460.01,-846.87"/>
<text xml:space="preserve" text-anchor="middle" x="566.11" y="-896.37" font-family="CMU Serif" font-size="12.00">нет</text>
</g>
<!-- chkLeftOk -->
<g id="node16" class="node">
<title>chkLeftOk</title>
<polygon fill="#fff7d1" stroke="#000000" points="668,-751.64 548.5,-704.64 668,-657.64 787.5,-704.64 668,-751.64"/>
<text xml:space="preserve" text-anchor="start" x="632.75" y="-709.14" font-family="CMU Serif" font-size="14.00">хвостовой</text>
<text xml:space="preserve" text-anchor="start" x="616.25" y="-689.64" font-family="CMU Serif" font-size="14.00">подотрезок ok?</text>
</g>
<!-- leftTail&#45;&gt;chkLeftOk -->
<g id="edge18" class="edge">
<title>leftTail&#45;&gt;chkLeftOk</title>
<path fill="none" stroke="#000000" d="M668,-775.41C668,-771.46 668,-767.33 668,-763.14"/>
<polygon fill="#000000" stroke="#000000" points="671.5,-763.48 668,-753.48 664.5,-763.48 671.5,-763.48"/>
</g>
<!-- retFailLT -->
<g id="node17" class="node">
<title>retFailLT</title>
<polygon fill="#fde2e2" stroke="#000000" points="753.43,-521.39 464.81,-521.39 390.57,-427.39 679.19,-427.39 753.43,-521.39"/>
<text xml:space="preserve" text-anchor="start" x="523.25" y="-478.89" font-family="CMU Serif" font-size="14.00">success = false</text>
<text xml:space="preserve" text-anchor="start" x="492.5" y="-459.39" font-family="CMU Serif" font-size="14.00">(хвостовой расходится)</text>
</g>
<!-- chkLeftOk&#45;&gt;retFailLT -->
<g id="edge19" class="edge">
<title>chkLeftOk&#45;&gt;retFailLT</title>
<path fill="none" stroke="#000000" d="M650.1,-664.51C639.85,-642.1 629,-618.39 629,-618.39 629,-618.39 610.59,-572.2 594.69,-532.32"/>
<polygon fill="#000000" stroke="#000000" points="598.02,-531.22 591.07,-523.22 591.52,-533.81 598.02,-531.22"/>
<text xml:space="preserve" text-anchor="middle" x="650.89" y="-635.24" font-family="CMU Serif" font-size="12.00">нет</text>
</g>
<!-- rightTail -->
<g id="node18" class="node">
<title>rightTail</title>
<polygon fill="#e6eefc" stroke="#000000" points="881.62,-607.39 638.38,-607.39 638.38,-543.39 881.62,-543.39 881.62,-607.39"/>
<text xml:space="preserve" text-anchor="start" x="673.75" y="-591.09" font-family="CMU Serif" font-size="14.00">Если rightLen &gt; d + 10</text>
<text xml:space="preserve" text-anchor="start" x="822.25" y="-591.09" font-family="CMU Serif" baseline-shift="super" font-size="14.00">−15</text>
<text xml:space="preserve" text-anchor="start" x="842.5" y="-591.09" font-family="CMU Serif" font-size="14.00">:</text>
<text xml:space="preserve" text-anchor="start" x="646.75" y="-577.09" font-family="CMU Serif" font-size="14.00">интегрировать [c + d, plan[i+1].to]</text>
<text xml:space="preserve" text-anchor="start" x="646.38" y="-563.09" font-family="CMU Serif" font-size="14.00">(rungeSolve, либо limitAtEndpoint</text>
<text xml:space="preserve" text-anchor="start" x="678.62" y="-549.09" font-family="CMU Serif" font-size="14.00">при plan[i+1].limit_at_to)</text>
</g>
<!-- chkLeftOk&#45;&gt;rightTail -->
<g id="edge21" class="edge">
<title>chkLeftOk&#45;&gt;rightTail</title>
<path fill="none" stroke="#000000" d="M694.12,-667.52C705.49,-651.79 718.86,-633.29 730.58,-617.09"/>
<polygon fill="#000000" stroke="#000000" points="733.35,-619.23 736.37,-609.07 727.68,-615.13 733.35,-619.23"/>
<text xml:space="preserve" text-anchor="middle" x="726.63" y="-635.24" font-family="CMU Serif" font-size="12.00">да</text>
</g>
<!-- retFailLT&#45;&gt;stop -->
<g id="edge20" class="edge">
<title>retFailLT&#45;&gt;stop</title>
<path fill="none" stroke="#000000" d="M568.85,-426.97C563.22,-343.9 552,-178.39 552,-178.39 552,-178.39 445.86,-88.26 393.94,-44.17"/>
<polygon fill="#000000" stroke="#000000" points="396.25,-41.54 386.36,-37.73 391.72,-46.87 396.25,-41.54"/>
</g>
<!-- chkRightOk -->
<g id="node19" class="node">
<title>chkRightOk</title>
<polygon fill="#fff7d1" stroke="#000000" points="774,-416.39 654.5,-369.39 774,-322.39 893.5,-369.39 774,-416.39"/>
<text xml:space="preserve" text-anchor="start" x="738.75" y="-373.89" font-family="CMU Serif" font-size="14.00">хвостовой</text>
<text xml:space="preserve" text-anchor="start" x="722.25" y="-354.39" font-family="CMU Serif" font-size="14.00">подотрезок ok?</text>
</g>
<!-- rightTail&#45;&gt;chkRightOk -->
<g id="edge22" class="edge">
<title>rightTail&#45;&gt;chkRightOk</title>
<path fill="none" stroke="#000000" d="M762.16,-542.96C764.28,-512.07 767.56,-464.24 770.13,-426.76"/>
<polygon fill="#000000" stroke="#000000" points="773.61,-427.22 770.8,-417 766.62,-426.74 773.61,-427.22"/>
</g>
<!-- retFailRT -->
<g id="node20" class="node">
<title>retFailRT</title>
<polygon fill="#fde2e2" stroke="#000000" points="955.43,-161.64 666.81,-161.64 592.57,-67.64 881.19,-67.64 955.43,-161.64"/>
<text xml:space="preserve" text-anchor="start" x="725.25" y="-119.14" font-family="CMU Serif" font-size="14.00">success = false</text>
<text xml:space="preserve" text-anchor="start" x="694.5" y="-99.64" font-family="CMU Serif" font-size="14.00">(хвостовой расходится)</text>
</g>
<!-- chkRightOk&#45;&gt;retFailRT -->
<g id="edge23" class="edge">
<title>chkRightOk&#45;&gt;retFailRT</title>
<path fill="none" stroke="#000000" d="M774,-322.03C774,-280.21 774,-218.53 774,-173.49"/>
<polygon fill="#000000" stroke="#000000" points="777.5,-173.65 774,-163.65 770.5,-173.65 777.5,-173.65"/>
<text xml:space="preserve" text-anchor="middle" x="783.75" y="-242.12" font-family="CMU Serif" font-size="12.00">нет</text>
</g>
<!-- accPV -->
<g id="node21" class="node">
<title>accPV</title>
<polygon fill="#fef3c7" stroke="#000000" points="1232.12,-167.39 973.88,-167.39 973.88,-61.89 1232.12,-61.89 1232.12,-167.39"/>
<text xml:space="preserve" text-anchor="start" x="1023.88" y="-148.39" font-family="CMU Serif" font-size="14.00">acc += leftTail + rightTail</text>
<text xml:space="preserve" text-anchor="start" x="981.88" y="-128.89" font-family="CMU Serif" font-size="14.00">(подотрезок [c − d, c + d] зануляется</text>
<text xml:space="preserve" text-anchor="start" x="1056.12" y="-109.39" font-family="CMU Serif" font-size="14.00">в смысле V.p.)</text>
<text xml:space="preserve" text-anchor="start" x="1056.5" y="-89.89" font-family="CMU Serif" font-size="14.00">usedPV = true</text>
<text xml:space="preserve" text-anchor="start" x="1079.38" y="-70.39" font-family="CMU Serif" font-size="14.00">i = i + 2</text>
</g>
<!-- chkRightOk&#45;&gt;accPV -->
<g id="edge25" class="edge">
<title>chkRightOk&#45;&gt;accPV</title>
<path fill="none" stroke="#000000" d="M798.9,-332.21C836.84,-277.08 904.75,-178.39 904.75,-178.39 904.75,-178.39 942.37,-171.41 962.49,-166.77"/>
<polygon fill="#000000" stroke="#000000" points="963.32,-170.17 972.09,-164.22 961.53,-163.4 963.32,-170.17"/>
<text xml:space="preserve" text-anchor="middle" x="911.88" y="-242.12" font-family="CMU Serif" font-size="12.00">да</text>
</g>
<!-- retFailRT&#45;&gt;stop -->
<g id="edge24" class="edge">
<title>retFailRT&#45;&gt;stop</title>
<path fill="none" stroke="#000000" d="M631.77,-67.14C601.78,-57.34 579,-49.89 579,-49.89 579,-49.89 478.28,-35.97 415.36,-27.27"/>
<polygon fill="#000000" stroke="#000000" points="415.96,-23.82 405.58,-25.92 415.01,-30.75 415.96,-23.82"/>
</g>
<!-- accPV&#45;&gt;chkI -->
<g id="edge26" class="edge">
<title>accPV&#45;&gt;chkI</title>
<path fill="none" stroke="#000000" d="M1067.98,-167.7C1018.22,-241.69 933,-368.39 933,-368.39 933,-1767.89 933,-1767.89 933,-1767.89 933,-1767.89 896.64,-1797.68 867.55,-1821.52"/>
<polygon fill="#000000" stroke="#000000" points="865.49,-1818.68 859.97,-1827.72 869.93,-1824.09 865.49,-1818.68"/>
</g>
<!-- chkFb -->
<g id="node23" class="node">
<title>chkFb</title>
<polygon fill="#fff7d1" stroke="#000000" points="412,-732.14 293.25,-704.64 412,-677.14 530.75,-704.64 412,-732.14"/>
<text xml:space="preserve" text-anchor="start" x="360.62" y="-699.39" font-family="CMU Serif" font-size="14.00">sr.status = &quot;ok&quot;?</text>
</g>
<!-- fallback&#45;&gt;chkFb -->
<g id="edge29" class="edge">
<title>fallback&#45;&gt;chkFb</title>
<path fill="none" stroke="#000000" d="M413.36,-774.3C413.16,-764.57 412.95,-753.83 412.75,-743.79"/>
<polygon fill="#000000" stroke="#000000" points="416.26,-743.86 412.56,-733.93 409.26,-744 416.26,-743.86"/>
</g>
<!-- retFailFb -->
<g id="node24" class="node">
<title>retFailFb</title>
<polygon fill="#fde2e2" stroke="#000000" points="550.54,-311.39 256.98,-311.39 181.46,-178.39 475.02,-178.39 550.54,-311.39"/>
<text xml:space="preserve" text-anchor="start" x="317.25" y="-259.14" font-family="CMU Serif" font-size="14.00">success = false</text>
<text xml:space="preserve" text-anchor="start" x="311.62" y="-239.64" font-family="CMU Serif" font-size="14.00">(несобственный</text>
<text xml:space="preserve" text-anchor="start" x="285" y="-220.14" font-family="CMU Serif" font-size="14.00">подотрезок расходится)</text>
</g>
<!-- chkFb&#45;&gt;retFailFb -->
<g id="edge30" class="edge">
<title>chkFb&#45;&gt;retFailFb</title>
<path fill="none" stroke="#000000" d="M407.77,-677.92C399.5,-627.68 382,-521.39 382,-521.39 382,-521.39 375.22,-404.63 370.49,-323.13"/>
<polygon fill="#000000" stroke="#000000" points="373.99,-323.17 369.92,-313.39 367.01,-323.58 373.99,-323.17"/>
<text xml:space="preserve" text-anchor="middle" x="407.57" y="-572.62" font-family="CMU Serif" font-size="12.00">нет</text>
</g>
<!-- accFb -->
<g id="node25" class="node">
<title>accFb</title>
<polygon fill="#ffffff" stroke="#000000" points="557.25,-618.39 446.75,-618.39 446.75,-532.39 557.25,-532.39 557.25,-618.39"/>
<text xml:space="preserve" text-anchor="start" x="454.75" y="-599.39" font-family="CMU Serif" font-size="14.00">acc += sr.value</text>
<text xml:space="preserve" text-anchor="start" x="462.62" y="-579.89" font-family="CMU Serif" font-size="14.00">nAcc += sr.n</text>
<text xml:space="preserve" text-anchor="start" x="455.5" y="-560.39" font-family="CMU Serif" font-size="14.00">rg += sr.runge</text>
<text xml:space="preserve" text-anchor="start" x="478.38" y="-540.89" font-family="CMU Serif" font-size="14.00">i = i + 1</text>
</g>
<!-- chkFb&#45;&gt;accFb -->
<g id="edge32" class="edge">
<title>chkFb&#45;&gt;accFb</title>
<path fill="none" stroke="#000000" d="M428.3,-680.6C438.65,-665.96 452.48,-646.4 465.37,-628.19"/>
<polygon fill="#000000" stroke="#000000" points="468.2,-630.24 471.12,-620.05 462.49,-626.2 468.2,-630.24"/>
<text xml:space="preserve" text-anchor="middle" x="469.51" y="-635.24" font-family="CMU Serif" font-size="12.00">да</text>
</g>
<!-- retFailFb&#45;&gt;stop -->
<g id="edge31" class="edge">
<title>retFailFb&#45;&gt;stop</title>
<path fill="none" stroke="#000000" d="M366,-178.06C366,-135.82 366,-83 366,-50.5"/>
<polygon fill="#000000" stroke="#000000" points="369.5,-50.61 366,-40.61 362.5,-50.61 369.5,-50.61"/>
</g>
<!-- accFb&#45;&gt;chkI -->
<g id="edge33" class="edge">
<title>accFb&#45;&gt;chkI</title>
<path fill="none" stroke="#000000" d="M557.7,-594.81C591.83,-606.1 629,-618.39 629,-618.39 629,-618.39 738,-629.39 738,-629.39 738,-629.39 797,-657.64 797,-657.64 797,-657.64 874,-703.64 874,-703.64 874,-1767.89 874,-1767.89 874,-1767.89 874,-1767.89 861.04,-1793.43 849.52,-1816.13"/>
<polygon fill="#000000" stroke="#000000" points="846.46,-1814.41 845.06,-1824.91 852.71,-1817.58 846.46,-1814.41"/>
</g>
</g>
</svg>
